<?xml version="1.0" encoding="UTF-8" standalone="no"?>
<!-- Created with Inkscape (http://www.inkscape.org/) -->

<svg
   xmlns:dc="http://purl.org/dc/elements/1.1/"
   xmlns:cc="http://creativecommons.org/ns#"
   xmlns:rdf="http://www.w3.org/1999/02/22-rdf-syntax-ns#"
   xmlns:svg="http://www.w3.org/2000/svg"
   xmlns="http://www.w3.org/2000/svg"
   xmlns:sodipodi="http://sodipodi.sourceforge.net/DTD/sodipodi-0.dtd"
   xmlns:inkscape="http://www.inkscape.org/namespaces/inkscape"
   width="12in"
   height="12in"
   viewBox="0 0 1080 1080"
   id="svg9350"
   version="1.1"
   inkscape:version="0.91 r13725"
   sodipodi:docname="sheet1.svg">
  <defs
     id="defs9352">
    <marker
       style="overflow:visible"
       refY="0.0"
       refX="0.0"
       orient="auto"
       id="DistanceX">
      <path
         id="path9"
         style="stroke:#000000; stroke-width:0.5"
         d="M 3,-3 L -3,3 M 0,-5 L  0,5" />
    </marker>
    <pattern
       y="0"
       x="0"
       width="8"
       patternUnits="userSpaceOnUse"
       id="Hatch"
       height="8">
      <path
         id="path12"
         stroke-width="0.25"
         stroke="#000000"
         linecap="square"
         d="M8 4 l-4,4" />
      <path
         id="path14"
         stroke-width="0.25"
         stroke="#000000"
         linecap="square"
         d="M6 2 l-4,4" />
      <path
         id="path16"
         stroke-width="0.25"
         stroke="#000000"
         linecap="square"
         d="M4 0 l-4,4" />
    </pattern>
  </defs>
  <sodipodi:namedview
     id="base"
     pagecolor="#ffffff"
     bordercolor="#666666"
     borderopacity="1.0"
     inkscape:pageopacity="0.0"
     inkscape:pageshadow="2"
     inkscape:zoom="0.47458516"
     inkscape:cx="382.60329"
     inkscape:cy="513.07883"
     inkscape:document-units="px"
     inkscape:current-layer="g11942"
     showgrid="false"
     units="in"
     inkscape:window-width="1022"
     inkscape:window-height="877"
     inkscape:window-x="71"
     inkscape:window-y="20"
     inkscape:window-maximized="0" />
  <metadata
     id="metadata9355">
    <rdf:RDF>
      <cc:Work
         rdf:about="">
        <dc:format>image/svg+xml</dc:format>
        <dc:type
           rdf:resource="http://purl.org/dc/dcmitype/StillImage" />
        <dc:title></dc:title>
      </cc:Work>
    </rdf:RDF>
  </metadata>
  <g
     inkscape:label="Layer 1"
     inkscape:groupmode="layer"
     id="layer1"
     transform="translate(0,27.637855)">
    <path
       id="path1734"
       style="fill:none;stroke:#000000"
       d="m 424.91073,700.53474 0.61654,-0.054 m -0.61654,-121.5996 0,121.6535 m -18.41102,-121.6535 18.41102,0 m -18.41102,121.6535 0,-121.6535 m -0.61654,121.5996 0.61654,0.054 m -1.21182,-0.2137 0.59528,0.1598 m -1.15512,-0.4209 0.55984,0.2611 m -1.06653,-0.6155 0.50669,0.3544 m -0.94252,-0.7909 0.43583,0.4365 m -0.79016,-0.9425 0.35433,0.506 m -0.61653,-1.0658 0.2622,0.5598 m -0.42165,-1.1565 0.15945,0.5967 m -0.2126,-1.2118 0.0531,0.6151 m -2.70355,-33.738 2.6504,33.1229 m -60.44173,-3.2588 57.79133,-29.8641 m -58.35118,30.1252 0.55985,-0.2611 m -1.15512,0.4209 0.59527,-0.1598 m -1.21181,0.2137 0.61654,-0.054 m -1.22953,0 0.61299,0.054 m -1.21181,-0.2137 0.59882,0.1598 m -1.15866,-0.4209 0.55984,0.2611 m -1.06653,-0.6155 0.50669,0.3544 m -0.94252,-0.7909 0.43583,0.4365 m -0.79016,-0.9425 0.35433,0.506 m -0.61299,-1.0658 0.25866,0.5598 m -0.42165,-1.1565 0.16299,0.5967 m -0.21614,-1.2118 0.0532,0.6151 m 0,-1.2306 -0.0532,0.6155 m 0.21614,-1.2118 -0.16299,0.5963 m 0.42165,-1.1562 -0.25866,0.5599 m 0.61299,-1.0659 -0.35433,0.506 m 0.79016,-0.9429 -0.43583,0.4369 m 0.94252,-0.7908 -0.50669,0.3539 m 60.65433,-38.9257 -60.14764,38.5718 m 57.90472,-66.6284 2.24292,28.0566 m -34.68544,-12.2371 32.44252,-15.8195 m -33.00236,16.0803 0.55984,-0.2608 m -1.15511,0.4209 0.59527,-0.1601 m -1.21181,0.214 0.61654,-0.054 m -1.22953,0 0.61299,0.054 m -1.21181,-0.214 0.59882,0.1601 m -1.15866,-0.4209 0.55984,0.2608 m -1.06654,-0.6152 0.5067,0.3544 m -0.94252,-0.7912 0.43582,0.4368 m -0.79015,-0.9425 0.35433,0.5057 m -0.61654,-1.0655 0.26221,0.5598 m -0.42166,-1.1565 0.15945,0.5967 m -0.2126,-1.2118 0.0532,0.6151 m 0,-1.2306 -0.0532,0.6155 m 0.2126,-1.2122 -0.15945,0.5967 m 0.42166,-1.1562 -0.26221,0.5595 m 0.61654,-1.0655 -0.35433,0.506 m 0.79015,-0.9429 -0.43582,0.4369 m 0.94252,-0.7912 -0.5067,0.3543 m 35.38347,-23.8818 -34.87677,23.5275 m 32.47086,-53.5989 2.40591,30.0714 m -9.97441,-27.0202 7.5685,-3.0512 m -8.16378,3.211 0.59528,-0.1598 m -1.21181,0.2136 0.61653,-0.054 m -1.23307,0 0.61654,0.054 m -1.21181,-0.2136 0.59527,0.1598 m -1.15512,-0.421 0.55985,0.2612 m -1.06654,-0.6152 0.50669,0.354 m -0.94251,-0.7909 0.43582,0.4369 m -0.79016,-0.9428 0.35434,0.5059 m -0.61654,-1.0658 0.2622,0.5599 m -0.42165,-1.1562 0.15945,0.5963 m -0.2126,-1.2118 0.0531,0.6155 m 0,-1.2306 -0.0531,0.6151 m 0.2126,-1.2118 -0.15945,0.5967 m 0.42165,-1.1565 -0.2622,0.5598 m 0.61654,-1.0658 -0.35434,0.506 m 0.79016,-0.9426 -0.43582,0.4366 m 10.61929,-8.403 -10.18347,7.9664 m 8.63504,-27.2803 1.54843,19.3139 m -19.04528,-10.9951 17.49685,-8.3188 m -19.30748,21.1189 1.81063,-12.8001 m -1.97008,13.3968 0.15945,-0.5967 m -0.41811,1.1562 0.25866,-0.5595 m -0.61299,1.0654 0.35433,-0.5059 m -0.7937,0.9428 0.43937,-0.4369 m -0.94252,0.7913 0.50315,-0.3544 m -1.06299,0.6152 0.55984,-0.2608 m -1.15866,0.4206 0.59882,-0.1598 m -1.21181,0.2136 0.61299,-0.054 m -1.22953,0 0.61654,0.054 m -1.21182,-0.2136 0.59528,0.1598 m -1.15512,-0.4206 0.55984,0.2608 m -1.06653,-0.6152 0.50669,0.3544 m -0.94252,-0.7913 0.43583,0.4369 m -0.79016,-0.9428 0.35433,0.5059 m -0.61653,-1.0654 0.2622,0.5595 m -0.42165,-1.1562 0.15945,0.5967 m -1.3004,-8.6765 1.14095,8.0798 m -28.38898,4.8724 27.24803,-12.9522 m -30.18543,54.9195 2.9374,-41.9673 m -2.99055,42.5824 0.0531,-0.6151 m -0.2126,1.2118 0.15945,-0.5967 m -0.42165,1.1565 0.2622,-0.5598 m -0.61653,1.0658 0.35433,-0.506 m -0.79016,0.9425 0.43583,-0.4365 m -0.94252,0.7909 0.50669,-0.3544 m -1.06653,0.6155 0.55984,-0.2611 m -1.15512,0.4209 0.59528,-0.1598 m -1.21182,0.2137 0.61654,-0.054 m -1.22953,0 0.61299,0.054 m -1.21181,-0.2137 0.59882,0.1598 m -1.15866,-0.4209 0.55984,0.2611 m -1.06299,-0.6155 0.50315,0.3544 m -0.94252,-0.7909 0.43937,0.4365 m -0.7937,-0.9425 0.35433,0.506 m -0.61299,-1.0658 0.25866,0.5598 m -0.41811,-1.1562 0.15945,0.5964 m -0.21614,-1.2118 0.0567,0.6154 m -2.57599,-36.619 2.5193,36.0036 m -27.93898,-23.9191 25.41968,-12.0845 m -28.75039,83.4587 3.33071,-71.3742 m -3.38386,71.9893 0.0532,-0.6151 m -0.2126,1.2118 0.15945,-0.5967 m -0.42165,1.1566 0.2622,-0.5599 m -0.61653,1.0655 0.35433,-0.5056 m -0.79016,0.9425 0.43583,-0.4369 m -0.94252,0.7912 0.50669,-0.3543 m -1.06653,0.6151 0.55984,-0.2608 m -1.15512,0.421 0.59528,-0.1602 m -1.21182,0.214 0.61654,-0.054 m -1.23307,0 0.61653,0.054 m -1.21181,-0.214 0.59528,0.1602 m -1.15512,-0.421 0.55984,0.2608 m -1.06653,-0.6151 0.50669,0.3543 m -0.94252,-0.7912 0.43583,0.4369 m -0.79016,-0.9425 0.35433,0.5056 m -0.61653,-1.0655 0.2622,0.5599 m -0.42165,-1.1566 0.15945,0.5967 m -0.2126,-1.2118 0.0532,0.6151 m -3.08622,-65.5954 3.03307,64.9803 m -33.04134,-50.7139 30.00827,-14.2664 m -30.56811,14.5275 0.55984,-0.2611 m -1.15866,0.4209 0.59882,-0.1598 m -1.21182,0.2137 0.613,-0.054 m -1.22953,0 0.61653,0.054 m -1.21181,-0.2137 0.59528,0.1598 m -1.15512,-0.4209 0.55984,0.2611 m -1.06653,-0.6154 0.50669,0.3543 m -0.94252,-0.7909 0.43583,0.4366 m -0.79016,-0.9426 0.35433,0.506 m -0.61653,-1.0658 0.2622,0.5598 m -0.42165,-1.1565 0.15945,0.5967 m -0.2126,-1.2118 0.0531,0.6151 m 0,-1.2302 -0.0531,0.6151 m 0.2126,-1.2118 -0.15945,0.5967 m 0.42165,-1.1566 -0.2622,0.5599 m 0.61653,-1.0659 -0.35433,0.506 m 0.79016,-0.9428 -0.43583,0.4368 m 0.94252,-0.7908 -0.50669,0.354 m 27.86457,-19.2104 -27.35788,18.8564 m -27.40039,-53.9726 54.75827,35.1162 m -55.26142,-35.4705 0.50315,0.3543 m -0.94252,-0.791 0.43937,0.4367 m -0.7937,-0.9427 0.35433,0.506 m -0.61299,-1.0657 0.25866,0.5597 m -0.42166,-1.1563 0.163,0.5966 m -0.21614,-1.2119 0.0531,0.6153 m 0,-1.2306 -0.0531,0.6153 m 0.21614,-1.2119 -0.163,0.5966 m 0.42166,-1.1564 -0.25866,0.5598 m 0.61299,-1.0657 -0.35433,0.5059 m 0.7937,-0.9426 -0.43937,0.4367 m 0.94252,-0.791 -0.50315,0.3543 m 1.06299,-0.6153 -0.55984,0.261 m 1.15866,-0.4209 -0.59882,0.1599 m 1.21181,-0.2137 -0.61299,0.054 m 1.22953,0 -0.61654,-0.054 m 1.21181,0.2136 -0.59527,-0.1598 m 1.15511,0.4209 -0.55984,-0.2611 m 64.03819,33.0637 -63.47835,-32.8026 m 86.65512,16.8304 -23.17677,15.9722 m -6.74291,-36.1564 29.91968,20.1842 m -30.42638,-20.5385 0.5067,0.3543 m -0.94606,-0.791 0.43936,0.4367 m -0.79015,-0.9426 0.35079,0.5059 m -0.613,-1.0657 0.26221,0.5598 m -0.42166,-1.1564 0.15945,0.5966 m -0.21259,-1.2119 0.0531,0.6153 m 0,-1.2306 -0.0531,0.6153 m 0.21259,-1.2119 -0.15945,0.5966 m 0.41812,-1.1563 -0.25867,0.5597 m 0.613,-1.0657 -0.35433,0.506 m 0.79369,-0.9428 -0.43936,0.4368 m 0.94606,-0.791 -0.5067,0.3542 m 1.063,-0.6152 -0.5563,0.261 m 1.15512,-0.4209 -0.59882,0.1599 m 1.21535,-0.2137 -0.61653,0.054 m 1.22952,0 -0.61299,-0.054 m 1.21181,0.2137 -0.59882,-0.1599 m 1.15866,0.4209 -0.55984,-0.261 m 38.37047,18.7005 -37.81063,-18.4395 m 62.65276,1.3205 -24.84213,17.119 m 18.41457,-22.1476 6.42756,5.0286 m -6.86338,-5.4653 0.43582,0.4367 m -0.79015,-0.9426 0.35433,0.5059 m -0.61654,-1.0658 0.26221,0.5599 m -0.42166,-1.1564 0.15945,0.5965 m -0.2126,-1.2118 0.0532,0.6153 m 0,-1.2306 -0.0532,0.6153 m 0.2126,-1.2119 -0.15945,0.5966 m 0.42166,-1.1564 -0.26221,0.5598 m 0.61654,-1.0657 -0.35433,0.5059 m 0.79015,-0.9426 -0.43582,0.4367 m 0.94251,-0.791 -0.50669,0.3543 m 1.06654,-0.6154 -0.55985,0.2611 m 1.15512,-0.4209 -0.59527,0.1598 m 1.21181,-0.2136 -0.61654,0.054 m 1.22953,0 -0.61299,-0.054 m 1.21181,0.2137 -0.59882,-0.1599 m 12.58583,4.9935 -11.98701,-4.8336 m 27.94252,-6.1614 -15.95551,10.995 m 0,-21.99 15.95551,10.995 m -27.94252,-6.1614 11.98701,-4.8336 m -12.58583,4.9935 0.59882,-0.1599 m -1.21181,0.2137 0.61299,-0.054 m -1.22953,0 0.61654,0.054 m -1.21181,-0.2136 0.59527,0.1598 m -1.15512,-0.4209 0.55985,0.2611 m -1.06654,-0.6153 0.50669,0.3542 m -0.94251,-0.791 0.43582,0.4368 m -0.79015,-0.9427 0.35433,0.5059 m -0.61654,-1.0657 0.26221,0.5598 m -0.42166,-1.1564 0.15945,0.5966 m -0.2126,-1.2119 0.0532,0.6153 m 0,-1.2306 -0.0532,0.6153 m 0.2126,-1.2118 -0.15945,0.5965 m 0.42166,-1.1563 -0.26221,0.5598 m 0.61654,-1.0658 -0.35433,0.506 m 0.79015,-0.9427 -0.43582,0.4367 m 6.86338,-5.4653 -6.42756,5.0286 m -18.41457,-22.1476 24.84213,17.119 m -62.65276,1.3205 37.81063,-18.4395 m -38.37047,18.7005 0.55984,-0.261 m -1.15866,0.4209 0.59882,-0.1599 m -1.21181,0.2137 0.61299,-0.054 m -1.22952,0 0.61653,0.054 m -1.21535,-0.2137 0.59882,0.1599 m -1.15512,-0.4209 0.5563,0.261 m -1.063,-0.6152 0.5067,0.3542 m -0.94606,-0.7909 0.43936,0.4367 m -0.79369,-0.9428 0.35433,0.5061 m -0.613,-1.0658 0.25867,0.5597 m -0.41812,-1.1563 0.15945,0.5966 m -0.21259,-1.2119 0.0531,0.6153 m 0,-1.2305 -0.0531,0.6152 m 0.21259,-1.2119 -0.15945,0.5967 m 0.42166,-1.1565 -0.26221,0.5598 m 0.613,-1.0657 -0.35079,0.5059 m 0.79015,-0.9426 -0.43936,0.4367 m 0.94606,-0.791 -0.5067,0.3543 m 30.42638,-20.5385 -29.91968,20.1842 m 6.74291,-36.15636 23.17677,15.97216 m -86.65512,16.8304 63.47835,-32.80256 m -64.03819,33.06366 0.55984,-0.2611 m -1.15511,0.4209 0.59527,-0.1598 m -1.21181,0.2136 0.61654,-0.054 m -1.22953,0 0.61299,0.054 m -1.21181,-0.2137 0.59882,0.1599 m -1.15866,-0.4209 0.55984,0.261 m -1.06299,-0.6153 0.50315,0.3543 m -0.94252,-0.791 0.43937,0.4367 m -0.7937,-0.9426 0.35433,0.5059 m -0.61299,-1.0657 0.25866,0.5598 m -0.42166,-1.1564 0.163,0.5966 m -0.21614,-1.2119 0.0531,0.6153 m 0,-1.2305 -0.0531,0.6152 m 0.21614,-1.2119 -0.163,0.5967 m 0.42166,-1.1564 -0.25866,0.5597 m 0.61299,-1.0657 -0.35433,0.506 m 0.7937,-0.9427 -0.43937,0.4367 m 0.94252,-0.791 -0.50315,0.3543 m 55.26142,-35.47045 -54.75827,35.11615 m 27.40039,-53.97257 27.35788,18.85642 m -27.86457,-19.2104 0.50669,0.35398 m -0.94252,-0.79086 0.43583,0.43688 m -0.79016,-0.94287 0.35433,0.50599 m -0.61653,-1.06583 0.2622,0.55984 m -0.42165,-1.15653 0.15945,0.59669 m -0.2126,-1.21181 0.0531,0.61512 m 0,-1.23024 -0.0531,0.61512 m 0.2126,-1.21181 -0.15945,0.59669 m 0.42165,-1.15654 -0.2622,0.55985 m 0.61653,-1.06583 -0.35433,0.50598 m 0.79016,-0.94252 -0.43583,0.43654 m 0.94252,-0.79087 -0.50669,0.35433 m 1.06653,-0.61547 -0.55984,0.26114 m 1.15512,-0.42094 -0.59528,0.1598 m 1.21181,-0.21366 -0.61653,0.0539 m 1.22953,0 -0.613,-0.0539 m 1.21182,0.21366 -0.59882,-0.1598 m 1.15866,0.42094 -0.55984,-0.26114 m 30.56811,14.52756 -30.00827,-14.26642 m 33.04134,-50.71392 -3.03307,64.98034 m 3.08622,-65.59546 -0.0532,0.61512 m 0.2126,-1.21181 -0.15945,0.59669 m 0.42165,-1.15654 -0.2622,0.55985 m 0.61653,-1.06548 -0.35433,0.50563 m 0.79016,-0.94252 -0.43583,0.43689 m 0.94252,-0.79122 -0.50669,0.35433 m 1.06653,-0.61512 -0.55984,0.26079 m 1.15512,-0.42094 -0.59528,0.16015 m 1.21181,-0.21401 -0.61653,0.0539 m 1.23307,0 -0.61654,-0.0539 m 1.21182,0.21401 -0.59524,-0.16015 m 1.15512,0.42094 -0.55984,-0.26079 m 1.06653,0.61512 -0.50669,-0.35433 m 0.94252,0.79122 -0.43583,-0.43689 m 0.79016,0.94252 -0.35433,-0.50563 m 0.61653,1.06548 -0.2622,-0.55985 m 0.42165,1.15654 -0.15945,-0.59669 m 0.2126,1.21181 -0.0532,-0.61512 m 3.38386,71.98936 -3.33071,-71.37424 m 28.75039,83.45869 -25.41968,-12.08445 m 27.93898,-23.9191 -2.5193,36.00355 m 2.57599,-36.61902 -0.0567,0.61547 m 0.21614,-1.21181 -0.15945,0.59634 m 0.41811,-1.15618 -0.25866,0.55984 m 0.61299,-1.06582 -0.35433,0.50598 m 0.7937,-0.94252 -0.43937,0.43654 m 0.94252,-0.79087 -0.50315,0.35433 m 1.06299,-0.61547 -0.55984,0.26114 m 1.15866,-0.42094 -0.59882,0.1598 m 1.21181,-0.21366 -0.61299,0.0539 m 1.22953,0 -0.61654,-0.0539 m 1.21182,0.21366 -0.59528,-0.1598 m 1.15512,0.42094 -0.55984,-0.26114 m 1.06653,0.61547 -0.50669,-0.35433 m 0.94252,0.79087 -0.43583,-0.43654 m 0.79016,0.94252 -0.35433,-0.50598 m 0.61653,1.06582 -0.2622,-0.55984 m 0.42165,1.15654 -0.15945,-0.5967 m 0.2126,1.21181 -0.0531,-0.61511 m 2.99055,42.5824 -2.9374,-41.96729 m 30.18543,54.91946 -27.24803,-12.95217 m 28.38898,4.87237 -1.14095,8.0798 m 1.3004,-8.6765 -0.15945,0.5967 m 0.42165,-1.1562 -0.2622,0.5595 m 0.61653,-1.0654 -0.35433,0.5059 m 0.79016,-0.9428 -0.43583,0.4369 m 0.94252,-0.7913 -0.50669,0.3544 m 1.06653,-0.6151 -0.55984,0.2607 m 1.15512,-0.4205 -0.59528,0.1598 m 1.21182,-0.2137 -0.61654,0.054 m 1.22953,0 -0.61299,-0.054 m 1.21181,0.2137 -0.59882,-0.1598 m 1.15866,0.4205 -0.55984,-0.2607 m 1.06299,0.6151 -0.50315,-0.3544 m 0.94252,0.7913 -0.43937,-0.4369 m 0.7937,0.9428 -0.35433,-0.5059 m 0.61299,1.0654 -0.25866,-0.5595 m 0.41811,1.1562 -0.15945,-0.5967 m 1.97008,13.3968 -1.81063,-12.8001 m 19.30748,21.1189 -17.49685,-8.3188 m 19.04528,-10.9951 -1.54843,19.3139 m -8.63504,-27.28033 10.18347,7.96643 m -10.61929,-8.40296 0.43582,0.43653 m -0.79016,-0.94252 0.35434,0.50599 m -0.61654,-1.06583 0.2622,0.55984 m -0.42165,-1.15653 0.15945,0.59669 m -0.2126,-1.21181 0.0531,0.61512 m 0,-1.23059 -0.0531,0.61547 m 0.2126,-1.21181 -0.15945,0.59634 m 0.42165,-1.15618 -0.2622,0.55984 m 0.61654,-1.06583 -0.35434,0.50599 m 0.79016,-0.94288 -0.43582,0.43689 m 0.94251,-0.79086 -0.50669,0.35397 m 1.06654,-0.61512 -0.55985,0.26115 m 1.15512,-0.42095 -0.59527,0.1598 m 1.21181,-0.21366 -0.61654,0.0539 m 1.23307,0 -0.61653,-0.0539 m 1.21181,0.21366 -0.59528,-0.1598 m 8.16378,3.21094 -7.5685,-3.05114 m 9.97441,-27.02019 -2.40591,30.07133 m -32.47086,-53.59888 34.87677,23.52755 m -35.38347,-23.88188 0.5067,0.35433 m -0.94252,-0.79122 0.43582,0.43689 m -0.79015,-0.94288 0.35433,0.50599 m -0.61654,-1.06548 0.26221,0.55949 m -0.42166,-1.15618 0.15945,0.59669 m -0.2126,-1.21216 0.0532,0.61547 m 0,-1.23059 -0.0532,0.61512 m 0.2126,-1.21181 -0.15945,0.59669 m 0.42166,-1.15653 -0.26221,0.55984 m 0.61654,-1.06547 -0.35433,0.50563 m 0.79015,-0.94252 -0.43582,0.43689 m 0.94252,-0.79123 -0.5067,0.35434 m 1.06654,-0.61512 -0.55984,0.26078 m 1.15866,-0.42094 -0.59882,0.16016 m 1.21181,-0.21402 -0.61299,0.0539 m 1.22953,0 -0.61654,-0.0539 m 1.21181,0.21402 -0.59527,-0.16016 m 1.15511,0.42094 -0.55984,-0.26078 m 32.99882,16.08023 -32.43898,-15.81945 m 34.68544,-12.23716 -2.24646,28.05661 m -57.90118,-66.62834 60.14764,38.57173 m -60.65433,-38.92571 0.50669,0.35398 m -0.94252,-0.79087 0.43583,0.43689 m -0.79016,-0.94287 0.35433,0.50598 m -0.61299,-1.06582 0.25866,0.55984 m -0.42165,-1.15618 0.16299,0.59634 m -0.21614,-1.21182 0.0532,0.61548 m 0,-1.23059 -0.0532,0.61511 m 0.21614,-1.21181 -0.16299,0.5967 m 0.42165,-1.15654 -0.25866,0.55984 m 0.61299,-1.06582 -0.35433,0.50598 m 0.79016,-0.94252 -0.43583,0.43654 m 0.94252,-0.79087 -0.50669,0.35433 m 1.06653,-0.61547 -0.55984,0.26114 m 1.15866,-0.42095 -0.59882,0.15981 m 1.21181,-0.21366 -0.61299,0.0539 m 1.22953,0 -0.61654,-0.0539 m 1.21181,0.21366 -0.59527,-0.15981 m 1.15512,0.42095 -0.55985,-0.26114 m 58.35118,30.1252 -57.79133,-29.86406 m 60.44173,-3.25878 -2.6504,33.12284 m 2.70355,-33.73796 -0.0531,0.61512 m 0.2126,-1.21181 -0.15945,0.59669 m 0.42165,-1.15653 -0.2622,0.55984 m 0.61653,-1.06583 -0.35433,0.50599 m 0.79016,-0.94252 -0.43583,0.43653 m 0.94252,-0.79086 -0.50669,0.35433 m 1.06653,-0.61547 -0.55984,0.26114 m 1.15512,-0.42095 -0.59528,0.15981 m 1.21182,-0.21367 -0.61654,0.0539 m 0.61654,121.59956 0,-121.65342 m 18.41102,121.65342 -18.41102,0 m 18.41102,-121.65342 0,121.65342 m 0.61654,-121.59956 -0.61654,-0.0539 m 1.21181,0.21367 -0.59527,-0.15981 m 1.15511,0.42095 -0.55984,-0.26114 m 1.06654,0.61547 -0.5067,-0.35433 m 0.94252,0.79086 -0.43582,-0.43653 m 0.79015,0.94252 -0.35433,-0.50599 m 0.61654,1.06583 -0.26221,-0.55984 m 0.42166,1.15653 -0.15945,-0.59669 m 0.2126,1.21181 -0.0532,-0.61512 m 2.70354,33.73796 -2.65039,-33.12284 m 60.44173,3.25878 -57.79134,29.86406 m 58.35118,-30.1252 -0.55984,0.26114 m 1.15512,-0.42095 -0.59528,0.15981 m 1.21181,-0.21366 -0.61653,0.0539 m 1.22952,0 -0.61299,-0.0539 m 1.21181,0.21366 -0.59882,-0.15981 m 1.15867,0.42095 -0.55985,-0.26114 m 1.06654,0.61547 -0.50669,-0.35433 m 0.94252,0.79087 -0.43583,-0.43654 m 0.79016,0.94252 -0.35433,-0.50598 m 0.61299,1.06582 -0.25866,-0.55984 m 0.42165,1.15654 -0.16299,-0.5967 m 0.21614,1.21181 -0.0531,-0.61511 m 0,1.23059 0.0531,-0.61548 m -0.21614,1.21182 0.16299,-0.59634 m -0.42165,1.15618 0.25866,-0.55984 m -0.61299,1.06582 0.35433,-0.50598 m -0.79016,0.94287 0.43583,-0.43689 m -0.94252,0.79087 0.50669,-0.35398 m -60.65433,38.92571 60.14764,-38.57173 m -57.90119,66.62834 -2.24645,-28.05661 m 34.68543,12.23716 -32.43898,15.81945 m 32.99882,-16.08023 -0.55984,0.26078 m 1.15512,-0.42094 -0.59528,0.16016 m 1.21181,-0.21402 -0.61653,0.0539 m 1.22953,0 -0.613,-0.0539 m 1.21181,0.21402 -0.59881,-0.16016 m 1.15866,0.42094 -0.55985,-0.26078 m 1.06654,0.61512 -0.50669,-0.35434 m 0.94252,0.79123 -0.43583,-0.43689 m 0.79016,0.94252 -0.35433,-0.50563 m 0.61653,1.06547 -0.2622,-0.55984 m 0.42165,1.15653 -0.15945,-0.59669 m 0.2126,1.21181 -0.0531,-0.61512 m 0,1.23059 0.0531,-0.61547 m -0.2126,1.21216 0.15945,-0.59669 m -0.42165,1.15618 0.2622,-0.55949 m -0.61653,1.06548 0.35433,-0.50599 m -0.79016,0.94288 0.43583,-0.43689 m -0.94252,0.79122 0.50669,-0.35433 m -35.38346,23.88188 34.87677,-23.52755 m -32.47087,53.59888 -2.4059,-30.07133 m 9.97441,27.02019 -7.56851,3.05114 m 8.16378,-3.21094 -0.59527,0.1598 m 1.21181,-0.21366 -0.61654,0.0539 m 1.23307,0 -0.61653,-0.0539 m 1.21181,0.21366 -0.59528,-0.1598 m 1.15512,0.42095 -0.55984,-0.26115 m 1.06653,0.61512 -0.50669,-0.35397 m 0.94252,0.79086 -0.43583,-0.43689 m 0.79016,0.94288 -0.35433,-0.50599 m 0.61653,1.06583 -0.2622,-0.55984 m 0.42165,1.15618 -0.15945,-0.59634 m 0.2126,1.21181 -0.0531,-0.61547 m 0,1.23059 0.0531,-0.61512 m -0.2126,1.21181 0.15945,-0.59669 m -0.42165,1.15653 0.2622,-0.55984 m -0.61653,1.06583 0.35433,-0.50599 m -0.79016,0.94252 0.43583,-0.43653 m -10.61929,8.40296 10.18346,-7.96643 m -8.63504,27.28033 -1.54842,-19.3139 m 19.04527,10.9951 -17.49685,8.3188 m 19.30748,-21.1189 -1.81063,12.8001 m 1.97008,-13.3968 -0.15945,0.5967 m 0.41811,-1.1562 -0.25866,0.5595 m 0.61299,-1.0654 -0.35433,0.5059 m 0.79371,-0.9428 -0.43938,0.4369 m 0.94253,-0.7913 -0.50315,0.3544 m 1.06299,-0.6151 -0.55984,0.2607 m 1.15866,-0.4205 -0.59882,0.1598 m 1.21181,-0.2137 -0.61299,0.054 m 1.22952,0 -0.61653,-0.054 m 1.21181,0.2137 -0.59528,-0.1598 m 1.15512,0.4205 -0.55984,-0.2607 m 1.06653,0.6151 -0.50669,-0.3544 m 0.94252,0.7913 -0.43583,-0.4369 m 0.79016,0.9428 -0.35433,-0.5059 m 0.61654,1.0654 -0.26221,-0.5595 m 0.42166,1.1562 -0.15945,-0.5967 m 1.30039,8.6765 -1.14094,-8.0798 m 28.38897,-4.87237 -27.24803,12.95217 m 30.18543,-54.91946 -2.9374,41.96729 m 2.99055,-42.5824 -0.0531,0.61511 m 0.2126,-1.21181 -0.15945,0.5967 m 0.42166,-1.15654 -0.26221,0.55984 m 0.61654,-1.06582 -0.35433,0.50598 m 0.79015,-0.94252 -0.43582,0.43654 m 0.94252,-0.79087 -0.5067,0.35433 m 1.06654,-0.61547 -0.55984,0.26114 m 1.15512,-0.42094 -0.59528,0.1598 m 1.21181,-0.21366 -0.61653,0.0539 m 1.22952,0 -0.61299,-0.0539 m 1.21181,0.21366 -0.59882,-0.1598 m 1.15866,0.42094 -0.55984,-0.26114 m 1.06299,0.61547 -0.50315,-0.35433 m 0.94252,0.79087 -0.43937,-0.43654 m 0.7937,0.94252 -0.35433,-0.50598 m 0.613,1.06582 -0.25867,-0.55984 m 0.41812,1.15618 -0.15945,-0.59634 m 0.21614,1.21181 -0.0567,-0.61547 m 2.57598,36.61902 -2.51929,-36.00355 m 27.93897,23.9191 -25.41968,12.08445 m 28.75039,-83.45869 -3.33071,71.37424 m 3.38386,-71.98936 -0.0531,0.61512 m 0.2126,-1.21181 -0.15945,0.59669 m 0.42166,-1.15654 -0.26221,0.55985 m 0.61654,-1.06548 -0.35433,0.50563 m 0.79015,-0.94252 -0.43582,0.43689 m 0.94252,-0.79122 -0.5067,0.35433 m 1.06654,-0.61512 -0.55984,0.26079 m 1.15512,-0.42094 -0.59528,0.16015 m 1.21181,-0.21401 -0.61653,0.0539 m 1.23307,0 -0.61654,-0.0539 m 1.21181,0.21401 -0.59527,-0.16015 m 1.15511,0.42094 -0.55984,-0.26079 m 1.06654,0.61512 -0.5067,-0.35433 m 0.94252,0.79122 -0.43582,-0.43689 m 0.79015,0.94252 -0.35433,-0.50563 m 0.61654,1.06548 -0.26221,-0.55985 m 0.42166,1.15654 -0.15945,-0.59669 m 0.2126,1.21181 -0.0531,-0.61512 m 3.08622,65.59546 -3.03307,-64.98034 m 33.04134,50.71392 -30.00827,14.26642 m 30.56811,-14.52756 -0.55984,0.26114 m 1.15866,-0.42094 -0.59882,0.1598 m 1.21181,-0.21366 -0.61299,0.0539 m 1.22952,0 -0.61653,-0.0539 m 1.21181,0.21366 -0.59528,-0.1598 m 1.15512,0.42094 -0.55984,-0.26114 m 1.06654,0.61547 -0.5067,-0.35433 m 0.94252,0.79087 -0.43582,-0.43654 m 0.79015,0.94252 -0.35433,-0.50598 m 0.61654,1.06583 -0.26221,-0.55985 m 0.42166,1.15654 -0.15945,-0.59669 m 0.2126,1.21181 -0.0531,-0.61512 m 0,1.23024 0.0531,-0.61512 m -0.2126,1.21181 0.15945,-0.59669 m -0.42166,1.15653 0.26221,-0.55984 m -0.61654,1.06583 0.35433,-0.50599 m -0.79015,0.94287 0.43582,-0.43688 m -0.94252,0.79086 0.5067,-0.35398 m -27.86457,19.2104 27.35787,-18.85642 m 27.4004,53.97257 -54.75827,-35.11615 m 55.26142,35.47045 -0.50315,-0.3543 m 0.94252,0.791 -0.43937,-0.4367 m 0.7937,0.9427 -0.35433,-0.506 m 0.61299,1.0657 -0.25866,-0.5597 m 0.42165,1.1564 -0.16299,-0.5967 m 0.21614,1.2119 -0.0531,-0.6152 m 0,1.2305 0.0531,-0.6153 m -0.21614,1.2119 0.16299,-0.5966 m -0.42165,1.1564 0.25866,-0.5598 m -0.61299,1.0657 0.35433,-0.5059 m -0.7937,0.9426 0.43937,-0.4367 m -0.94252,0.791 0.50315,-0.3543 m -1.063,0.6153 0.55985,-0.261 m -1.15867,0.4209 0.59882,-0.1599 m -1.21181,0.2137 0.61299,-0.054 m -1.22952,0 0.61653,0.054 m -1.21181,-0.2136 0.59528,0.1598 m -1.15512,-0.4209 0.55984,0.2611 m -64.03819,-33.06366 63.47835,32.80256 m -86.65512,-16.8304 23.17677,-15.97216 m 6.74292,36.15636 -29.91969,-20.1842 m 30.42638,20.5385 -0.50669,-0.3543 m 0.94606,0.791 -0.43937,-0.4367 m 0.79016,0.9426 -0.35079,-0.5059 m 0.61299,1.0657 -0.2622,-0.5598 m 0.42165,1.1565 -0.15945,-0.5967 m 0.2126,1.2119 -0.0532,-0.6152 m 0,1.2305 0.0532,-0.6153 m -0.2126,1.2119 0.15945,-0.5966 m -0.41811,1.1563 0.25866,-0.5597 m -0.61299,1.0658 0.35433,-0.5061 m -0.7937,0.9428 0.43937,-0.4367 m -0.94606,0.7909 0.50669,-0.3542 m -1.06299,0.6152 0.5563,-0.261 m -1.15512,0.4209 0.59882,-0.1599 m -1.21536,0.2137 0.61654,-0.054 m -1.22953,0 0.61299,0.054 m -1.21181,-0.2137 0.59882,0.1599 m -1.15866,-0.4209 0.55984,0.261 m -38.37047,-18.7005 37.81063,18.4395 m -62.65276,-1.3205 24.84213,-17.119 m -18.41457,22.1476 -6.42756,-5.0286 m 6.86339,5.4653 -0.43583,-0.4367 m 0.79016,0.9427 -0.35433,-0.506 m 0.61654,1.0658 -0.26221,-0.5598 m 0.42165,1.1563 -0.15944,-0.5965 m 0.21259,1.2118 -0.0531,-0.6153 m 0,1.2306 0.0531,-0.6153 m -0.21259,1.2119 0.15944,-0.5966 m -0.42165,1.1564 0.26221,-0.5598 m -0.61654,1.0657 0.35433,-0.5059 m -0.79016,0.9427 0.43583,-0.4368 m -0.94252,0.791 0.50669,-0.3542 m -1.06653,0.6153 0.55984,-0.2611 m -1.15512,0.4209 0.59528,-0.1598 m -1.21181,0.2136 0.61653,-0.054 m -1.22953,0 0.613,0.054 m -1.21182,-0.2137 0.59882,0.1599 m -12.58582,-4.9935 11.987,4.8336 m -27.94252,6.1614 15.95552,-10.995 m 0,21.99 -15.95552,-10.995 m 27.94252,6.1614 -11.987,4.8336 m 12.58582,-4.9935 -0.59882,0.1599 m 1.21182,-0.2137 -0.613,0.054 m 1.22953,0 -0.61653,-0.054 m 1.21181,0.2136 -0.59528,-0.1598 m 1.15512,0.4209 -0.55984,-0.2611 m 1.06653,0.6154 -0.50669,-0.3543 m 0.94252,0.791 -0.43583,-0.4367 m 0.79016,0.9426 -0.35433,-0.5059 m 0.61654,1.0657 -0.26221,-0.5598 m 0.42165,1.1564 -0.15944,-0.5966 m 0.21259,1.2119 -0.0531,-0.6153 m 0,1.2306 0.0531,-0.6153 m -0.21259,1.2118 0.15944,-0.5965 m -0.42165,1.1564 0.26221,-0.5599 m -0.61654,1.0658 0.35433,-0.5059 m -0.79016,0.9426 0.43583,-0.4367 m -6.86339,5.4653 6.42756,-5.0286 m 18.41457,22.1476 -24.84213,-17.119 m 62.65276,-1.3205 -37.81063,18.4395 m 38.37047,-18.7005 -0.55984,0.261 m 1.15866,-0.4209 -0.59882,0.1599 m 1.21181,-0.2137 -0.61299,0.054 m 1.22953,0 -0.61654,-0.054 m 1.21536,0.2137 -0.59882,-0.1599 m 1.15512,0.4209 -0.5563,-0.261 m 1.06299,0.6152 -0.50669,-0.3542 m 0.94606,0.791 -0.43937,-0.4368 m 0.7937,0.9428 -0.35433,-0.506 m 0.61299,1.0657 -0.25866,-0.5597 m 0.41811,1.1563 -0.15945,-0.5966 m 0.2126,1.2119 -0.0532,-0.6153 m 0,1.2306 0.0532,-0.6153 m -0.2126,1.2119 0.15945,-0.5966 m -0.42165,1.1564 0.2622,-0.5598 m -0.61299,1.0657 0.35079,-0.5059 m -0.79016,0.9426 0.43937,-0.4367 m -0.94606,0.791 0.50669,-0.3543 m -30.42638,20.5385 29.91969,-20.1842 m -6.74292,36.1564 -23.17677,-15.9722 m 86.65512,-16.8304 -63.47835,32.8026 m 64.03819,-33.0637 -0.55984,0.2611 m 1.15512,-0.4209 -0.59528,0.1598 m 1.21181,-0.2136 -0.61653,0.054 m 1.22952,0 -0.61299,-0.054 m 1.21181,0.2137 -0.59882,-0.1599 m 1.15867,0.4209 -0.55985,-0.261 m 1.063,0.6153 -0.50315,-0.3543 m 0.94252,0.791 -0.43937,-0.4367 m 0.7937,0.9426 -0.35433,-0.5059 m 0.61299,1.0657 -0.25866,-0.5598 m 0.42165,1.1564 -0.16299,-0.5966 m 0.21614,1.2119 -0.0531,-0.6153 m 0,1.2306 0.0531,-0.6153 m -0.21614,1.2119 0.16299,-0.5966 m -0.42165,1.1563 0.25866,-0.5597 m -0.61299,1.0657 0.35433,-0.506 m -0.7937,0.9427 0.43937,-0.4367 m -0.94252,0.791 0.50315,-0.3543 m -55.26142,35.4705 54.75827,-35.1162 m -27.4004,53.9726 -27.35787,-18.8564 m 27.86457,19.2104 -0.5067,-0.354 m 0.94252,0.7908 -0.43582,-0.4368 m 0.79015,0.9428 -0.35433,-0.506 m 0.61654,1.0659 -0.26221,-0.5599 m 0.42166,1.1566 -0.15945,-0.5967 m 0.2126,1.2118 -0.0531,-0.6151 m 0,1.2302 0.0531,-0.6151 m -0.2126,1.2118 0.15945,-0.5967 m -0.42166,1.1565 0.26221,-0.5598 m -0.61654,1.0658 0.35433,-0.506 m -0.79015,0.9426 0.43582,-0.4366 m -0.94252,0.7909 0.5067,-0.3543 m -1.06654,0.6154 0.55984,-0.2611 m -1.15512,0.4209 0.59528,-0.1598 m -1.21181,0.2137 0.61653,-0.054 m -1.22952,0 0.61299,0.054 m -1.21181,-0.2137 0.59882,0.1598 m -1.15866,-0.4209 0.55984,0.2611 m -30.56811,-14.5275 30.00827,14.2664 m -33.04134,50.7139 3.03307,-64.9803 m -3.08622,65.5954 0.0531,-0.6151 m -0.2126,1.2118 0.15945,-0.5967 m -0.42166,1.1566 0.26221,-0.5599 m -0.61654,1.0655 0.35433,-0.5056 m -0.79015,0.9425 0.43582,-0.4369 m -0.94252,0.7912 0.5067,-0.3543 m -1.06654,0.6151 0.55984,-0.2608 m -1.15511,0.421 0.59527,-0.1602 m -1.21181,0.214 0.61654,-0.054 m -1.23307,0 0.61653,0.054 m -1.21181,-0.214 0.59528,0.1602 m -1.15512,-0.421 0.55984,0.2608 m -1.06654,-0.6151 0.5067,0.3543 m -0.94252,-0.7912 0.43582,0.4369 m -0.79015,-0.9425 0.35433,0.5056 m -0.61654,-1.0655 0.26221,0.5599 m -0.42166,-1.1566 0.15945,0.5967 m -0.2126,-1.2118 0.0531,0.6151 m -3.38386,-71.9893 3.33071,71.3742 m -28.75039,-83.4587 25.41968,12.0845 m -27.93897,23.9191 2.51929,-36.0036 m -2.57598,36.619 0.0567,-0.6154 m -0.21614,1.2118 0.15945,-0.5964 m -0.41812,1.1562 0.25867,-0.5598 m -0.613,1.0658 0.35433,-0.506 m -0.7937,0.9425 0.43937,-0.4365 m -0.94252,0.7909 0.50315,-0.3544 m -1.06299,0.6155 0.55984,-0.2611 m -1.15866,0.4209 0.59882,-0.1598 m -1.21181,0.2137 0.61299,-0.054 m -1.22952,0 0.61653,0.054 m -1.21181,-0.2137 0.59528,0.1598 m -1.15512,-0.4209 0.55984,0.2611 m -1.06654,-0.6155 0.5067,0.3544 m -0.94252,-0.7909 0.43582,0.4365 m -0.79015,-0.9425 0.35433,0.506 m -0.61654,-1.0658 0.26221,0.5598 m -0.42166,-1.1565 0.15945,0.5967 m -0.2126,-1.2118 0.0531,0.6151 m -2.99055,-42.5824 2.9374,41.9673 m -30.18543,-54.9195 27.24803,12.9522 m -28.38897,-4.8724 1.14094,-8.0798 m -1.30039,8.6765 0.15945,-0.5967 m -0.42166,1.1562 0.26221,-0.5595 m -0.61654,1.0654 0.35433,-0.5059 m -0.79016,0.9428 0.43583,-0.4369 m -0.94252,0.7913 0.50669,-0.3544 m -1.06653,0.6152 0.55984,-0.2608 m -1.15512,0.4206 0.59528,-0.1598 m -1.21181,0.2136 0.61653,-0.054 m -1.22952,0 0.61299,0.054 m -1.21181,-0.2136 0.59882,0.1598 m -1.15866,-0.4206 0.55984,0.2608 m -1.06299,-0.6152 0.50315,0.3544 m -0.94253,-0.7913 0.43938,0.4369 m -0.79371,-0.9428 0.35433,0.5059 m -0.61299,-1.0654 0.25866,0.5595 m -0.41811,-1.1562 0.15945,0.5967 m -1.97008,-13.3968 1.81063,12.8001 m -19.30748,-21.1189 17.49685,8.3188 m -19.04527,10.9951 1.54842,-19.3139 m 8.63504,27.2803 -10.18346,-7.9664 m 10.61929,8.403 -0.43583,-0.4366 m 0.79016,0.9426 -0.35433,-0.506 m 0.61653,1.0658 -0.2622,-0.5598 m 0.42165,1.1565 -0.15945,-0.5967 m 0.2126,1.2118 -0.0531,-0.6151 m 0,1.2306 0.0531,-0.6155 m -0.2126,1.2118 0.15945,-0.5963 m -0.42165,1.1562 0.2622,-0.5599 m -0.61653,1.0658 0.35433,-0.5059 m -0.79016,0.9428 0.43583,-0.4369 m -0.94252,0.7909 0.50669,-0.354 m -1.06653,0.6152 0.55984,-0.2612 m -1.15512,0.421 0.59528,-0.1598 m -1.21181,0.2136 0.61653,-0.054 m -1.23307,0 0.61654,0.054 m -1.21181,-0.2136 0.59527,0.1598 m -8.16378,-3.211 7.56851,3.0512 m -9.97441,27.0202 2.4059,-30.0714 m 32.47087,53.5989 -34.87677,-23.5275 m 35.38346,23.8818 -0.50669,-0.3543 m 0.94252,0.7912 -0.43583,-0.4369 m 0.79016,0.9429 -0.35433,-0.506 m 0.61653,1.0655 -0.2622,-0.5595 m 0.42165,1.1562 -0.15945,-0.5967 m 0.2126,1.2122 -0.0531,-0.6155 m 0,1.2306 0.0531,-0.6151 m -0.2126,1.2118 0.15945,-0.5967 m -0.42165,1.1565 0.2622,-0.5598 m -0.61653,1.0655 0.35433,-0.5057 m -0.79016,0.9425 0.43583,-0.4368 m -0.94252,0.7912 0.50669,-0.3544 m -1.06654,0.6152 0.55985,-0.2608 m -1.15866,0.4209 0.59881,-0.1601 m -1.21181,0.214 0.613,-0.054 m -1.22953,0 0.61653,0.054 m -1.21181,-0.214 0.59528,0.1601 m -1.15512,-0.4209 0.55984,0.2608 m -33.00236,-16.0803 32.44252,15.8195 m -34.68543,12.2371 2.24291,-28.0566 m 57.90473,66.6284 -60.14764,-38.5718 m 60.65433,38.9257 -0.50669,-0.3539 m 0.94252,0.7908 -0.43583,-0.4369 m 0.79016,0.9429 -0.35433,-0.506 m 0.61299,1.0659 -0.25866,-0.5599 m 0.42165,1.1562 -0.16299,-0.5963 m 0.21614,1.2118 -0.0531,-0.6155 m 0,1.2306 0.0531,-0.6151 m -0.21614,1.2118 0.16299,-0.5967 m -0.42165,1.1565 0.25866,-0.5598 m -0.61299,1.0658 0.35433,-0.506 m -0.79016,0.9425 0.43583,-0.4365 m -0.94252,0.7909 0.50669,-0.3544 m -1.06654,0.6155 0.55985,-0.2611 m -1.15867,0.4209 0.59882,-0.1598 m -1.21181,0.2137 0.61299,-0.054 m -1.22952,0 0.61653,0.054 m -1.21181,-0.2137 0.59528,0.1598 m -1.15512,-0.4209 0.55984,0.2611 m -58.35118,-30.1252 57.79134,29.8641 m -60.44173,3.2588 2.65039,-33.1229 m -2.70354,33.738 0.0532,-0.6151 m -0.2126,1.2118 0.15945,-0.5967 m -0.42166,1.1565 0.26221,-0.5598 m -0.61654,1.0658 0.35433,-0.506 m -0.79015,0.9425 0.43582,-0.4365 m -0.94252,0.7909 0.5067,-0.3544 m -1.06654,0.6155 0.55984,-0.2611 m -1.15511,0.4209 0.59527,-0.1598"
       inkscape:connector-curvature="0" />
    <path
       id="path3474"
       style="fill:none;stroke:#000000"
       d="m 223.60202,715.42728 -3.96149,-1.28693 m 6.40988,-2.08276 -2.44839,3.36969 m 0,-6.73937 2.44839,3.36968 m -6.40988,-2.08275 3.96149,-1.28693 m -3.96149,5.45244 0,-4.16551 m -7.41586,333.38196 0.61522,-0.054 m -0.61522,-3.4894 0,3.5433 m -18.41152,-3.5433 18.41152,0 m -18.41152,3.5433 0,-3.5433 m -0.61522,3.4894 0.61522,0.054 m -1.21178,-0.2137 0.59656,0.1598 m -1.15633,-0.4209 0.55977,0.2611 m -1.06572,-0.6155 0.50595,0.3544 m -0.94269,-0.7909 0.43674,0.4365 m -0.791,-0.9425 0.35426,0.506 m -0.61526,-1.0658 0.261,0.5598 m -0.42091,-1.1565 0.15991,0.5967 m -0.21374,-1.2118 0.0538,0.6151 m -2.70365,-33.738 2.64983,33.1229 m -60.44049,-3.2588 57.79066,-29.8641 m -58.3505,30.1252 0.55984,-0.2611 m -1.15654,0.4209 0.5967,-0.1598 m -1.21182,0.2137 0.61512,-0.054 m -1.23059,0 0.61547,0.054 m -1.21216,-0.2137 0.59669,0.1598 m -1.15618,-0.4209 0.55949,0.2611 m -1.06547,-0.6155 0.50598,0.3544 m -0.94287,-0.7909 0.43689,0.4365 m -0.79122,-0.9425 0.35433,0.506 m -0.61512,-1.0658 0.26079,0.5598 m -0.42059,-1.1565 0.1598,0.5967 m -0.21366,-1.2118 0.0539,0.6151 m 0,-1.2306 -0.0539,0.6155 m 0.21366,-1.2118 -0.1598,0.5963 m 0.42059,-1.1562 -0.26079,0.5599 m 0.61512,-1.0659 -0.35433,0.506 m 0.79122,-0.9429 -0.43689,0.4369 m 0.94287,-0.7908 -0.50598,0.3539 m 60.65234,-38.92566 -60.14636,38.57176 m 57.90189,-66.62836 2.24447,28.0566 m -34.68451,-12.2371 32.44004,-15.8195 m -32.99988,16.0803 0.55984,-0.2608 m -1.15653,0.4209 0.59669,-0.1601 m -1.21181,0.214 0.61512,-0.054 m -1.23059,0 0.61547,0.054 m -1.21217,-0.214 0.5967,0.1601 m -1.15619,-0.4209 0.55949,0.2608 m -1.06547,-0.6152 0.50598,0.3544 m -0.94287,-0.7912 0.43689,0.4368 m -0.79122,-0.9425 0.35433,0.5057 m -0.61512,-1.0655 0.26079,0.5598 m -0.42095,-1.1565 0.16016,0.5967 m -0.21366,-1.2118 0.0535,0.6151 m 0,-1.2306 -0.0535,0.6155 m 0.21366,-1.2122 -0.16016,0.5967 m 0.42095,-1.1562 -0.26079,0.5595 m 0.61512,-1.0655 -0.35433,0.506 m 0.79122,-0.9429 -0.43689,0.4369 m 0.94287,-0.7912 -0.50598,0.3543 m 35.38166,-23.8818 -34.87568,23.5275 m 32.46998,-53.5989 2.4057,30.0714 m -9.97377,-27.0202 7.56807,-3.0512 m -8.16463,3.211 0.59656,-0.1598 m -1.21185,0.2136 0.61529,-0.054 m -1.23062,0 0.61533,0.054 m -1.21188,-0.2136 0.59655,0.1598 m -1.15632,-0.421 0.55977,0.2612 m -1.06572,-0.6152 0.50595,0.354 m -0.9427,-0.7909 0.43675,0.4369 m -0.79098,-0.9428 0.35423,0.5059 m -0.61526,-1.0658 0.26103,0.5599 m -0.4209,-1.1562 0.15987,0.5963 m -0.2137,-1.2118 0.0538,0.6155 m 0,-1.2306 -0.0538,0.6151 m 0.2137,-1.2118 -0.15987,0.5967 m 0.4209,-1.1565 -0.26103,0.5598 m 0.61526,-1.0658 -0.35423,0.506 m 0.79098,-0.9426 -0.43675,0.4366 m 10.61755,-8.403 -10.1808,7.9664 m 8.63567,-27.2803 1.54513,19.3139 m -19.04392,-10.9951 17.49879,-8.3188 m -19.30765,21.1189 1.80886,-12.8001 m -1.96867,13.3968 0.15981,-0.5967 m -0.42095,1.1562 0.26114,-0.5595 m -0.61511,1.0654 0.35397,-0.5059 m -0.79086,0.9428 0.43689,-0.4369 m -0.94288,0.7913 0.50599,-0.3544 m -1.06583,0.6152 0.55984,-0.2608 m -1.15618,0.4206 0.59634,-0.1598 m -1.21181,0.2136 0.61547,-0.054 m -1.23059,0 0.61512,0.054 m -1.21181,-0.2136 0.59669,0.1598 m -1.15654,-0.4206 0.55985,0.2608 m -1.06583,-0.6152 0.50598,0.3544 m -0.94252,-0.7913 0.43654,0.4369 m -0.79087,-0.9428 0.35433,0.5059 m -0.61547,-1.0654 0.26114,0.5595 m -0.42094,-1.1562 0.1598,0.5967 m -1.30145,-8.6765 1.14165,8.0798 m -28.38685,4.8724 27.2452,-12.9522 m -30.18296,54.9195 2.93776,-41.9673 m -2.99162,42.5824 0.0539,-0.6151 m -0.21366,1.2118 0.15981,-0.5967 m -0.42095,1.1565 0.26114,-0.5598 m -0.61547,1.0658 0.35433,-0.506 m -0.79087,0.9425 0.43654,-0.4365 m -0.94252,0.7909 0.50598,-0.3544 m -1.06582,0.6155 0.55984,-0.2611 m -1.15618,0.4209 0.59634,-0.1598 m -1.21181,0.2137 0.61547,-0.054 m -1.23059,0 0.61512,0.054 m -1.21181,-0.2137 0.59669,0.1598 m -1.15654,-0.4209 0.55985,0.2611 m -1.06583,-0.6155 0.50598,0.3544 m -0.94252,-0.7909 0.43654,0.4365 m -0.79087,-0.9425 0.35433,0.506 m -0.61547,-1.0658 0.26114,0.5598 m -0.42094,-1.1562 0.1598,0.5964 m -0.21366,-1.2118 0.0539,0.6154 m -2.57421,-36.619 2.52035,36.0036 m -27.940044,-23.9191 25.419694,-12.0845 m -28.750404,83.45866 3.33071,-71.37416 m -3.38456,71.98926 0.0538,-0.6151 m -0.21366,1.2118 0.15981,-0.5967 m -0.42095,1.1566 0.26114,-0.5599 m -0.61547,1.0655 0.35433,-0.5056 m -0.79087,0.9425 0.43654,-0.4369 m -0.94252,0.7912 0.50598,-0.3543 m -1.06582,0.6151 0.55984,-0.2608 m -1.15654,0.421 0.5967,-0.1602 m -1.21181,0.214 0.61511,-0.054 m -1.23058,0 0.61547,0.054 m -1.21181,-0.214 0.59634,0.1602 m -1.15619,-0.421 0.55985,0.2608 m -1.06583,-0.6151 0.50598,0.3543 m -0.94287,-0.7912 0.43689,0.4369 m -0.79087,-0.9425 0.35398,0.5056 m -0.61512,-1.0655 0.26114,0.5599 m -0.42094,-1.1566 0.1598,0.5967 m -0.21366,-1.2118 0.0539,0.6151 m -3.08622,-65.59536 3.03236,64.98026 m -33.0424,-50.71386 30.01004,-14.2664 m -30.56988,14.5275 0.55984,-0.2611 m -1.15654,0.4209 0.5967,-0.1598 m -1.21181,0.2137 0.61511,-0.054 m -1.23059,0 0.61548,0.054 m -1.21182,-0.2137 0.59634,0.1598 m -1.15618,-0.4209 0.55984,0.2611 m -1.06582,-0.6154 0.50598,0.3543 m -0.94287,-0.7909 0.43689,0.4366 m -0.79122,-0.9426 0.35433,0.506 m -0.61512,-1.0658 0.26079,0.5598 m -0.42059,-1.1565 0.1598,0.5967 m -0.21366,-1.2118 0.0539,0.6151 m 0,-1.2302 -0.0539,0.6151 m 0.21366,-1.2118 -0.1598,0.5967 m 0.42059,-1.1566 -0.26079,0.5599 m 0.61512,-1.0659 -0.35433,0.506 m 0.79122,-0.9428 -0.43689,0.4368 m 0.94287,-0.7908 -0.50598,0.354 m 27.86634,-19.2104 -27.36036,18.8564 m -27.39827,-53.9726 54.75863,35.1162 m -55.26461,-35.4705 0.50598,0.3543 m -0.94252,-0.791 0.43654,0.4367 m -0.7908704,-0.9427 0.3543304,0.506 m -0.6154704,-1.0657 0.26114,0.5597 m -0.42094,-1.1563 0.1598,0.5966 m -0.21366,-1.2119 0.0539,0.6153 m 0,-1.2306 -0.0539,0.6153 m 0.21366,-1.2119 -0.1598,0.5966 m 0.42094,-1.1564 -0.26114,0.5598 m 0.6154704,-1.0657 -0.3543304,0.5059 m 0.7908704,-0.9426 -0.43654,0.4367 m 0.94252,-0.791 -0.50598,0.3543 m 1.06583,-0.6153 -0.55985,0.261 m 1.15654,-0.4209 -0.59669,0.1599 m 1.21181,-0.2137 -0.61512,0.054 m 1.23059,0 -0.61547,-0.054 m 1.21181,0.2136 -0.59634,-0.1598 m 1.15618,0.4209 -0.55984,-0.2611 m 64.03712,33.0637 -63.47728,-32.8026 m 86.652644,16.8304 -23.175364,15.9722 m -6.74468,-36.1564 29.920044,20.1842 m -30.426024,-20.5385 0.50598,0.3543 m -0.94252,-0.791 0.43654,0.4367 m -0.79087,-0.9426 0.35433,0.5059 m -0.61547,-1.0657 0.26114,0.5598 m -0.42095,-1.1564 0.15981,0.5966 m -0.21366,-1.2119 0.0539,0.6153 m 0,-1.2306 -0.0539,0.6153 m 0.21366,-1.2119 -0.15981,0.5966 m 0.42095,-1.1563 -0.26114,0.5597 m 0.61547,-1.0657 -0.35433,0.506 m 0.79087,-0.9428 -0.43654,0.4368 m 0.94252,-0.791 -0.50598,0.3542 m 1.06582,-0.6152 -0.55984,0.261 m 1.15654,-0.4209 -0.5967,0.1599 m 1.21181,-0.2137 -0.61511,0.054 m 1.23059,0 -0.61548,-0.054 m 1.21181,0.2137 -0.59633,-0.1599 m 1.15618,0.4209 -0.55985,-0.261 m 38.373314,18.7005 -37.813464,-18.4395 m 62.653114,1.3205 -24.83965,17.119 m 18.4135,-22.1476 6.42615,5.0286 m -6.86304,-5.4653 0.43689,0.4367 m -0.79122,-0.9426 0.35433,0.5059 m -0.61547,-1.0658 0.26114,0.5599 m -0.42094,-1.1564 0.1598,0.5965 m -0.21366,-1.2118 0.0539,0.6153 m 0,-1.2306 -0.0539,0.6153 m 0.21366,-1.2119 -0.1598,0.5966 m 0.42094,-1.1564 -0.26114,0.5598 m 0.61547,-1.0657 -0.35433,0.5059 m 0.79087,-0.9426 -0.43654,0.4367 m 0.94252,-0.791 -0.50598,0.3543 m 1.06583,-0.6154 -0.55985,0.2611 m 1.15654,-0.4209 -0.59669,0.1598 m 1.21181,-0.2136 -0.61512,0.054 m 1.23059,0 -0.61547,-0.054 m 1.21216,0.2137 -0.59669,-0.1599 m 12.58618,4.9935 -11.98949,-4.8336 m 27.94288,-6.1614 -15.95339,10.995 m 0,-21.99 15.95339,10.995 m -27.94288,-6.1614 11.98949,-4.8336 m -12.58618,4.9935 0.59669,-0.1599 m -1.21216,0.2137 0.61547,-0.054 m -1.23059,0 0.61512,0.054 m -1.21181,-0.2136 0.59669,0.1598 m -1.15654,-0.4209 0.55985,0.2611 m -1.06583,-0.6153 0.50598,0.3542 m -0.94252,-0.791 0.43654,0.4368 m -0.79087,-0.9427 0.35433,0.5059 m -0.61547,-1.0657 0.26114,0.5598 m -0.42094,-1.1564 0.1598,0.5966 m -0.21366,-1.2119 0.0539,0.6153 m 0,-1.2306 -0.0539,0.6153 m 0.21366,-1.2118 -0.1598,0.5965 m 0.42094,-1.1563 -0.26114,0.5598 m 0.61547,-1.0658 -0.35433,0.506 m 0.79122,-0.9427 -0.43689,0.4367 m 6.86304,-5.4653 -6.42615,5.0286 m -18.4135,-22.1476 24.83965,17.119 m -62.653114,1.3205 37.813464,-18.4395 m -38.373314,18.7005 0.55985,-0.261 m -1.15618,0.4209 0.59633,-0.1599 m -1.21181,0.2137 0.61548,-0.054 m -1.23059,0 0.61511,0.054 m -1.21181,-0.2137 0.5967,0.1599 m -1.15654,-0.4209 0.55984,0.261 m -1.06582,-0.6152 0.50598,0.3542 m -0.94252,-0.7909 0.43654,0.4367 m -0.79087,-0.9428 0.35433,0.5061 m -0.61547,-1.0658 0.26114,0.5597 m -0.42095,-1.1563 0.15981,0.5966 m -0.21366,-1.2119 0.0539,0.6153 m 0,-1.2305 -0.0539,0.6152 m 0.21366,-1.2119 -0.15981,0.5967 m 0.42095,-1.1565 -0.26114,0.5598 m 0.61547,-1.0657 -0.35433,0.5059 m 0.79087,-0.9426 -0.43654,0.4367 m 0.94252,-0.791 -0.50598,0.3543 m 30.426024,-20.5385 -29.920044,20.1842 m 6.74468,-36.15636 23.175364,15.97216 m -86.652644,16.8304 63.47728,-32.80256 m -64.03712,33.06366 0.55984,-0.2611 m -1.15618,0.4209 0.59634,-0.1598 m -1.21181,0.2136 0.61547,-0.054 m -1.23059,0 0.61512,0.054 m -1.21181,-0.2137 0.59669,0.1599 m -1.15654,-0.4209 0.55985,0.261 m -1.06583,-0.6153 0.50598,0.3543 m -0.94252,-0.791 0.43654,0.4367 m -0.7908704,-0.9426 0.3543304,0.5059 m -0.6154704,-1.0657 0.26114,0.5598 m -0.42094,-1.1564 0.1598,0.5966 m -0.21366,-1.2119 0.0539,0.6153 m 0,-1.2305 -0.0539,0.6152 m 0.21366,-1.2119 -0.1598,0.5967 m 0.42094,-1.1564 -0.26114,0.5597 m 0.6154704,-1.0657 -0.3543304,0.506 m 0.7908704,-0.9427 -0.43654,0.4367 m 0.94252,-0.791 -0.50598,0.3543 m 55.26461,-35.47045 -54.75863,35.11615 m 27.39827,-53.97257 27.36036,18.85642 m -27.86634,-19.2104 0.50598,0.35398 m -0.94287,-0.79086 0.43689,0.43688 m -0.79122,-0.94287 0.35433,0.50599 m -0.61512,-1.06583 0.26079,0.55984 m -0.42059,-1.15653 0.1598,0.59669 m -0.21366,-1.21181 0.0539,0.61512 m 0,-1.23024 -0.0539,0.61512 m 0.21366,-1.21181 -0.1598,0.59669 m 0.42059,-1.15654 -0.26079,0.55985 m 0.61512,-1.06583 -0.35433,0.50598 m 0.79122,-0.94252 -0.43689,0.43654 m 0.94287,-0.79087 -0.50598,0.35433 m 1.06582,-0.61547 -0.55984,0.26114 m 1.15618,-0.42094 -0.59634,0.1598 m 1.21182,-0.21366 -0.61548,0.0539 m 1.23059,0 -0.61511,-0.0539 m 1.21181,0.21366 -0.5967,-0.1598 m 1.15654,0.42094 -0.55984,-0.26114 m 30.56988,14.52756 -30.01004,-14.26642 m 33.0424,-50.71393 -3.03236,64.98035 m 3.08622,-65.59547 -0.0539,0.61512 m 0.21366,-1.21181 -0.1598,0.59669 m 0.42094,-1.15654 -0.26114,0.55985 m 0.61512,-1.06548 -0.35398,0.50563 m 0.79087,-0.94252 -0.43689,0.43689 m 0.94287,-0.79122 -0.50598,0.35433 m 1.06583,-0.61512 -0.55985,0.26079 m 1.15619,-0.42094 -0.59634,0.16015 m 1.21181,-0.21401 -0.61547,0.0539 m 1.23058,0 -0.61511,-0.0539 m 1.21181,0.21401 -0.5967,-0.16015 m 1.15654,0.42094 -0.55984,-0.26079 m 1.06582,0.61512 -0.50598,-0.35433 m 0.94252,0.79122 -0.43654,-0.43689 m 0.79087,0.94252 -0.35433,-0.50563 m 0.61547,1.06548 -0.26114,-0.55985 m 0.42095,1.15654 -0.15981,-0.59669 m 0.21366,1.21181 -0.0538,-0.61512 m 3.38456,71.98937 -3.33071,-71.37425 m 28.750404,83.4587 -25.419694,-12.08445 m 27.940044,-23.9191 -2.52035,36.00355 m 2.57421,-36.61902 -0.0539,0.61547 m 0.21366,-1.21181 -0.1598,0.59634 m 0.42094,-1.15618 -0.26114,0.55984 m 0.61547,-1.06582 -0.35433,0.50598 m 0.79087,-0.94252 -0.43654,0.43654 m 0.94252,-0.79087 -0.50598,0.35433 m 1.06583,-0.61547 -0.55985,0.26114 m 1.15654,-0.42094 -0.59669,0.1598 m 1.21181,-0.21366 -0.61512,0.0539 m 1.23059,0 -0.61547,-0.0539 m 1.21181,0.21366 -0.59634,-0.1598 m 1.15618,0.42094 -0.55984,-0.26114 m 1.06582,0.61547 -0.50598,-0.35433 m 0.94252,0.79087 -0.43654,-0.43654 m 0.79087,0.94252 -0.35433,-0.50598 m 0.61547,1.06582 -0.26114,-0.55984 m 0.42095,1.15654 -0.15981,-0.5967 m 0.21366,1.21181 -0.0539,-0.61511 m 2.99162,42.5824 -2.93776,-41.96729 m 30.18296,54.91946 -27.2452,-12.95217 m 28.38685,4.87237 -1.14165,8.0798 m 1.30145,-8.6765 -0.1598,0.5967 m 0.42094,-1.1562 -0.26114,0.5595 m 0.61547,-1.0654 -0.35433,0.5059 m 0.79087,-0.9428 -0.43654,0.4369 m 0.94252,-0.7913 -0.50598,0.3544 m 1.06583,-0.6151 -0.55985,0.2607 m 1.15654,-0.4205 -0.59669,0.1598 m 1.21181,-0.2137 -0.61512,0.054 m 1.23059,0 -0.61547,-0.054 m 1.21181,0.2137 -0.59634,-0.1598 m 1.15618,0.4205 -0.55984,-0.2607 m 1.06583,0.6151 -0.50599,-0.3544 m 0.94288,0.7913 -0.43689,-0.4369 m 0.79086,0.9428 -0.35397,-0.5059 m 0.61511,1.0654 -0.26114,-0.5595 m 0.42095,1.1562 -0.15981,-0.5967 m 1.96867,13.3968 -1.80886,-12.8001 m 19.30762,21.1189 -17.49876,-8.3188 m 19.04385,-10.9951 -1.54509,19.3139 m -8.63568,-27.28033 10.18077,7.96643 m -10.61752,-8.40296 0.43675,0.43653 m -0.79101,-0.94252 0.35426,0.50599 m -0.61529,-1.06583 0.26103,0.55984 m -0.42091,-1.15653 0.15988,0.59669 m -0.21366,-1.21181 0.0538,0.61512 m 0,-1.23059 -0.0538,0.61547 m 0.21366,-1.21181 -0.15988,0.59634 m 0.42091,-1.15618 -0.26103,0.55984 m 0.61529,-1.06583 -0.35426,0.50599 m 0.79101,-0.94288 -0.43675,0.43689 m 0.9427,-0.79086 -0.50595,0.35397 m 1.06569,-0.61512 -0.55974,0.26115 m 1.15632,-0.42095 -0.59658,0.1598 m 1.21191,-0.21366 -0.61533,0.0539 m 1.23059,0 -0.61526,-0.0539 m 1.21185,0.21366 -0.59659,-0.1598 m 8.16467,3.21094 -7.56808,-3.05114 m 9.97377,-27.02019 -2.40569,30.07133 m -32.46995,-53.59889 34.87564,23.52756 m -35.38162,-23.88189 0.50598,0.35433 m -0.94287,-0.79122 0.43689,0.43689 m -0.79122,-0.94288 0.35433,0.50599 m -0.61512,-1.06548 0.26079,0.55949 m -0.42095,-1.15618 0.16016,0.59669 m -0.21366,-1.21216 0.0535,0.61547 m 0,-1.23059 -0.0535,0.61512 m 0.21366,-1.21181 -0.16016,0.59669 m 0.42095,-1.15653 -0.26079,0.55984 m 0.61512,-1.06547 -0.35433,0.50563 m 0.79122,-0.94252 -0.43689,0.43689 m 0.94287,-0.79123 -0.50598,0.35434 m 1.06547,-0.61512 -0.55949,0.26078 m 1.15619,-0.42094 -0.5967,0.16016 m 1.21217,-0.21402 -0.61547,0.0539 m 1.23059,0 -0.61512,-0.0539 m 1.21181,0.21402 -0.59669,-0.16016 m 1.15653,0.42094 -0.55984,-0.26078 m 32.99985,16.08023 -32.44001,-15.81945 m 34.68444,-12.23716 -2.24443,28.05661 m -57.90186,-66.62834 60.14629,38.57173 m -60.65227,-38.92571 0.50598,0.35398 m -0.94287,-0.79087 0.43689,0.43689 m -0.79122,-0.94287 0.35433,0.50598 m -0.61512,-1.06582 0.26079,0.55984 m -0.42059,-1.15618 0.1598,0.59634 m -0.21366,-1.21182 0.0539,0.61548 m 0,-1.23059 -0.0539,0.61511 m 0.21366,-1.21181 -0.1598,0.5967 m 0.42059,-1.15654 -0.26079,0.55984 m 0.61512,-1.06582 -0.35433,0.50598 m 0.79122,-0.94252 -0.43689,0.43654 m 0.94287,-0.79087 -0.50598,0.35433 m 1.06547,-0.61547 -0.55949,0.26114 m 1.15618,-0.42095 -0.59669,0.15981 m 1.21216,-0.21366 -0.61547,0.0539 m 1.23059,0 -0.61512,-0.0539 m 1.21182,0.21366 -0.5967,-0.15981 m 1.15654,0.42095 -0.55984,-0.26114 m 58.35047,30.1252 -57.79063,-29.86406 m 60.44042,-3.25878 -2.64979,33.12284 m 2.70365,-33.73796 -0.0539,0.61512 m 0.21373,-1.21181 -0.15987,0.59669 m 0.42091,-1.15653 -0.26104,0.55984 m 0.61526,-1.06583 -0.35422,0.50599 m 0.791,-0.94252 -0.43678,0.43653 m 0.94273,-0.79086 -0.50595,0.35433 m 1.06569,-0.61547 -0.55974,0.26114 m 1.15632,-0.42095 -0.59658,0.15981 m 1.21184,-0.21367 -0.61526,0.0539 m 0.61526,239.71 0,-239.76386 m 18.41152,239.76386 -18.41152,0 M 212.2246,713.127 l 0,208.57638 m -0.34748,-209.64579 0.34749,1.06937 m 0,-2.13874 -0.34749,1.06937 m 0.34749,-30.11811 0,29.04874 m 0.61526,-28.99488 -0.61526,-0.0539 m 1.21185,0.21367 -0.59659,-0.15981 m 1.15632,0.42095 -0.55973,-0.26114 m 1.06568,0.61547 -0.50595,-0.35433 m 0.94273,0.79086 -0.43678,-0.43653 m 0.79101,0.94252 -0.35423,-0.50599 m 0.61526,1.06583 -0.26103,-0.55984 m 0.42091,1.15653 -0.15988,-0.59669 m 0.21374,1.21181 -0.0539,-0.61512 m 1.48843,18.5478 -1.43458,-17.93268 m 3.4543,16.46504 -2.01972,1.46764 m 8.58937,-1.46764 -6.56965,0 m 11.88461,3.8615 -5.31496,-3.8615 m 7.05065,9.20374 -1.73569,-5.34224 m 45.10152,-17.06776 -43.36583,22.41 m 43.92567,-22.67114 -0.55984,0.26114 m 1.15653,-0.42095 -0.59669,0.15981 m 1.21181,-0.21366 -0.61512,0.0539 m 1.23059,0 -0.61547,-0.0539 m 1.21216,0.21366 -0.59669,-0.15981 m 1.15618,0.42095 -0.55949,-0.26114 m 1.06548,0.61547 -0.50599,-0.35433 m 0.94288,0.79087 -0.43689,-0.43654 m 0.79122,0.94252 -0.35433,-0.50598 m 0.61511,1.06582 -0.26078,-0.5598 m 0.42059,1.15654 -0.1598,-0.5967 m 0.21366,1.21181 -0.0539,-0.61511 m 0,1.23059 0.0539,-0.61548 m -0.21366,1.21182 0.1598,-0.59634 m -0.42059,1.15618 0.26079,-0.55984 m -0.61512,1.06582 0.35433,-0.50598 m -0.79122,0.94287 0.43689,-0.43689 m -0.94288,0.79087 0.50599,-0.35398 m -60.65228,38.92571 60.14629,-38.57173 m -57.90185,66.62834 -2.24444,-28.05661 m 34.68444,12.23716 -32.44,15.81945 m 32.99985,-16.08023 -0.55985,0.26078 m 1.15654,-0.42094 -0.59669,0.16016 m 1.21181,-0.21402 -0.61512,0.0539 m 1.23059,0 -0.61547,-0.0539 m 1.21216,0.21402 -0.59669,-0.16016 m 1.15618,0.42094 -0.55949,-0.26078 m 1.06548,0.61512 -0.50599,-0.35434 m 0.94288,0.79123 -0.43689,-0.43689 m 0.79122,0.94252 -0.35433,-0.50563 m 0.61511,1.06547 -0.26078,-0.55984 m 0.42094,1.15653 -0.16016,-0.59669 m 0.21367,1.21181 -0.0535,-0.61512 m 0,1.23059 0.0535,-0.61547 m -0.21367,1.21216 0.16016,-0.59669 m -0.42094,1.15618 0.26078,-0.55949 m -0.61511,1.06548 0.35433,-0.50599 m -0.79122,0.94288 0.43689,-0.43689 m -0.94288,0.79122 0.50599,-0.35433 m -35.38163,23.88189 34.87564,-23.52756 m -32.46994,53.59889 -2.4057,-30.07133 m 9.97378,27.02019 -7.56808,3.05114 m 8.16466,-3.21094 -0.59658,0.1598 m 1.21184,-0.21366 -0.61526,0.0539 m 1.23059,0 -0.61533,-0.0539 m 1.21192,0.21366 -0.59659,-0.1598 m 1.15633,0.42095 -0.55974,-0.26115 m 1.06568,0.61512 -0.50594,-0.35397 m 0.94269,0.79086 -0.43675,-0.43689 m 0.79101,0.94288 -0.35426,-0.50599 m 0.6153,1.06583 -0.26104,-0.55984 m 0.42091,1.15618 -0.15987,-0.59634 m 0.21366,1.21181 -0.0538,-0.61547 m 0,1.23059 0.0538,-0.61512 m -0.21366,1.21181 0.15987,-0.59669 m -0.42091,1.15653 0.26104,-0.55984 m -0.6153,1.06583 0.35426,-0.50599 m -0.79101,0.94252 0.43675,-0.43653 m -10.61752,8.40296 10.18077,-7.96643 m -8.63567,27.28033 -1.5451,-19.3139 m 19.04386,10.9951 -17.49876,8.3188 m 19.30762,-21.1189 -1.80886,12.8001 m 1.96866,-13.3968 -0.1598,0.5967 m 0.42094,-1.1562 -0.26114,0.5595 m 0.61512,-1.0654 -0.35398,0.5059 m 0.79087,-0.9428 -0.43689,0.4369 m 0.94287,-0.7913 -0.50598,0.3544 m 1.06583,-0.6151 -0.55985,0.2607 m 1.15619,-0.4205 -0.59634,0.1598 m 1.21181,-0.2137 -0.61547,0.054 m 1.23059,0 -0.61512,-0.054 m 1.21181,0.2137 -0.59669,-0.1598 m 1.15653,0.4205 -0.55984,-0.2607 m 1.06583,0.6151 -0.50599,-0.3544 m 0.94252,0.7913 -0.43653,-0.4369 m 0.79086,0.9428 -0.35433,-0.5059 m 0.61547,1.0654 -0.26114,-0.5595 m 0.42095,1.1562 -0.15981,-0.5967 m 1.30146,8.6765 -1.14165,-8.0798 m 28.38685,-4.87237 -27.2452,12.95217 m 30.18295,-54.91946 -2.93775,41.96729 m 2.99161,-42.5824 -0.0539,0.61511 m 0.21366,-1.21181 -0.1598,0.5967 m 0.42095,-1.15654 -0.26115,0.55984 m 0.61548,-1.06582 -0.35433,0.50598 m 0.79086,-0.94252 -0.43653,0.43654 m 0.94252,-0.79087 -0.50599,0.35433 m 1.06583,-0.61547 -0.55984,0.26114 m 1.15618,-0.42094 -0.59634,0.1598 m 1.21181,-0.21366 -0.61547,0.0539 m 1.23059,0 -0.61512,-0.0539 m 1.21181,0.21366 -0.59669,-0.1598 m 1.15653,0.42094 -0.55984,-0.26114 m 1.06583,0.61547 -0.50599,-0.35433 m 0.94252,0.79087 -0.43653,-0.43654 m 0.79086,0.94252 -0.35433,-0.50598 m 0.61547,1.06582 -0.26114,-0.55984 m 0.42095,1.15618 -0.15981,-0.59634 m 0.21367,1.21181 -0.0539,-0.61547 m 2.57421,36.61902 -2.52035,-36.00355 m 27.94004,23.9191 -25.41969,12.08445 m 28.7504,-83.4587 -3.33071,71.37425 m 3.38456,-71.98937 -0.0538,0.61512 m 0.21366,-1.21181 -0.15981,0.59669 m 0.42095,-1.15654 -0.26114,0.55985 m 0.61547,-1.06548 -0.35433,0.50563 m 0.79087,-0.94252 -0.43654,0.43689 m 0.94252,-0.79122 -0.50598,0.35433 m 1.06582,-0.61512 -0.55984,0.26079 m 1.15654,-0.42094 -0.5967,0.16015 m 1.21181,-0.21401 -0.61511,0.0539 m 1.23058,0 -0.61547,-0.0539 m 1.21181,0.21401 -0.59634,-0.16015 m 1.15619,0.42094 -0.55985,-0.26079 m 1.06583,0.61512 -0.50598,-0.35433 m 0.94287,0.79122 -0.43689,-0.43689 m 0.79087,0.94252 -0.35398,-0.50563 m 0.61512,1.06548 -0.26114,-0.55985 m 0.42094,1.15654 -0.1598,-0.59669 m 0.21366,1.21181 -0.0539,-0.61512 m 3.08622,65.59547 -3.03236,-64.98035 m 33.0424,50.71393 -30.01004,14.26642 m 30.56988,-14.52756 -0.55984,0.26114 m 1.15654,-0.42094 -0.5967,0.1598 m 1.21181,-0.21366 -0.61511,0.0539 m 1.23059,0 -0.61548,-0.0539 m 1.21182,0.21366 -0.59634,-0.1598 m 1.15618,0.42094 -0.55984,-0.26114 m 1.06582,0.61547 -0.50598,-0.35433 m 0.94287,0.79087 -0.43689,-0.43654 m 0.79122,0.94252 -0.35433,-0.50598 m 0.61512,1.06583 -0.26079,-0.55985 m 0.42059,1.15654 -0.1598,-0.59669 m 0.21366,1.21181 -0.0539,-0.61512 m 0,1.23024 0.0539,-0.61512 m -0.21366,1.21181 0.1598,-0.59669 m -0.42059,1.15653 0.26079,-0.55984 m -0.61512,1.06583 0.35433,-0.50599 m -0.79122,0.94287 0.43689,-0.43688 m -0.94287,0.79086 0.50598,-0.35398 m -27.86634,19.2104 27.36036,-18.85642 m 27.39827,53.97257 -54.75863,-35.11615 m 55.26461,35.47045 -0.50598,-0.3543 m 0.94252,0.791 -0.43654,-0.4367 m 0.79087,0.9427 -0.35433,-0.506 m 0.61547,1.0657 -0.26114,-0.5597 m 0.42094,1.1564 -0.1598,-0.5967 m 0.21366,1.2119 -0.0539,-0.6152 m 0,1.2305 0.0539,-0.6153 m -0.21366,1.2119 0.1598,-0.5966 m -0.42094,1.1564 0.26114,-0.5598 m -0.61547,1.0657 0.35433,-0.5059 m -0.79087,0.9426 0.43654,-0.4367 m -0.94252,0.791 0.50598,-0.3543 m -1.06583,0.6153 0.55985,-0.261 m -1.15654,0.4209 0.59669,-0.1599 m -1.21181,0.2137 0.61512,-0.054 m -1.23059,0 0.61547,0.054 m -1.21181,-0.2136 0.59634,0.1598 m -1.15618,-0.4209 0.55984,0.2611 m -64.03712,-33.06366 63.47728,32.80256 m -86.65264,-16.8304 23.17536,-15.97216 m 6.74468,36.15636 -29.92004,-20.1842 m 30.42602,20.5385 -0.50598,-0.3543 m 0.94252,0.791 -0.43654,-0.4367 m 0.79087,0.9426 -0.35433,-0.5059 m 0.61547,1.0657 -0.26114,-0.5598 m 0.42095,1.1565 -0.15981,-0.5967 m 0.21366,1.2119 -0.0539,-0.6152 m 0,1.2305 0.0539,-0.6153 m -0.21366,1.2119 0.15981,-0.5966 m -0.42095,1.1563 0.26114,-0.5597 m -0.61547,1.0658 0.35433,-0.5061 m -0.79087,0.9428 0.43654,-0.4367 m -0.94252,0.7909 0.50598,-0.3542 m -1.06582,0.6152 0.55984,-0.261 m -1.15654,0.4209 0.5967,-0.1599 m -1.21181,0.2137 0.61511,-0.054 m -1.23059,0 0.61548,0.054 m -1.21181,-0.2137 0.59633,0.1599 m -1.15618,-0.4209 0.55985,0.261 m -38.37331,-18.7005 37.81346,18.4395 m -62.65311,-1.3205 24.83965,-17.119 m -18.41351,22.1476 -6.42614,-5.0286 m 6.86303,5.4653 -0.43689,-0.4367 m 0.79122,0.9427 -0.35433,-0.506 m 0.61547,1.0658 -0.26114,-0.5598 m 0.42095,1.1563 -0.15981,-0.5965 m 0.21367,1.2118 -0.0539,-0.6153 m 0,1.2306 0.0539,-0.6153 m -0.21367,1.2119 0.15981,-0.5966 m -0.42095,1.1564 0.26114,-0.5598 m -0.61547,1.0657 0.35433,-0.5059 m -0.79086,0.9427 0.43653,-0.4368 m -0.94252,0.791 0.50599,-0.3542 m -1.06583,0.6153 0.55984,-0.2611 m -1.15653,0.4209 0.59669,-0.1598 m -1.21181,0.2136 0.61512,-0.054 m -1.23059,0 0.61547,0.054 m -1.21217,-0.2137 0.5967,0.1599 m -12.58618,-4.9935 11.98948,4.8336 m -27.94287,6.1614 15.95339,-10.995 m 0,21.99 -15.95339,-10.995 m 27.94287,6.1614 -11.98948,4.8336 m 12.58618,-4.9935 -0.5967,0.1599 m 1.21217,-0.2137 -0.61547,0.054 m 1.23059,0 -0.61512,-0.054 m 1.21181,0.2136 -0.59669,-0.1598 m 1.15653,0.4209 -0.55984,-0.2611 m 1.06583,0.6154 -0.50599,-0.3543 m 0.94252,0.791 -0.43653,-0.4367 m 0.79086,0.9426 -0.35433,-0.5059 m 0.61547,1.0657 -0.26114,-0.5598 m 0.42095,1.1564 -0.15981,-0.5966 m 0.21367,1.2119 -0.0539,-0.6153 m 0,1.2306 0.0539,-0.6153 m -0.21367,1.2118 0.15981,-0.5965 m -0.42095,1.1564 0.26114,-0.5599 m -0.61547,1.0658 0.35433,-0.5059 m -0.79122,0.9426 0.43689,-0.4367 m -6.86303,5.4653 6.42614,-5.0286 m 18.41351,22.1476 -24.83965,-17.119 m 62.65311,-1.3205 -37.81346,18.4395 m 38.37331,-18.7005 -0.55985,0.261 m 1.15618,-0.4209 -0.59633,0.1599 m 1.21181,-0.2137 -0.61548,0.054 m 1.23059,0 -0.61511,-0.054 m 1.21181,0.2137 -0.5967,-0.1599 m 1.15654,0.4209 -0.55984,-0.261 m 1.06582,0.6152 -0.50598,-0.3542 m 0.94252,0.791 -0.43654,-0.4368 m 0.79087,0.9428 -0.35433,-0.506 m 0.61547,1.0657 -0.26114,-0.5597 m 0.42095,1.1563 -0.15981,-0.5966 m 0.21366,1.2119 -0.0539,-0.6153 m 0,1.2306 0.0539,-0.6153 m -0.21366,1.2119 0.15981,-0.5966 m -0.42095,1.1564 0.26114,-0.5598 m -0.61547,1.0657 0.35433,-0.5059 m -0.79087,0.9426 0.43654,-0.4367 m -0.94252,0.791 0.50598,-0.3543 m -30.42602,20.5385 29.92004,-20.1842 m -6.74468,36.1564 -23.17536,-15.9722 m 86.65264,-16.8304 -63.47728,32.8026 m 64.03712,-33.0637 -0.55984,0.2611 m 1.15618,-0.4209 -0.59634,0.1598 m 1.21181,-0.2136 -0.61547,0.054 m 1.23059,0 -0.61512,-0.054 m 1.21181,0.2137 -0.59669,-0.1599 m 1.15654,0.4209 -0.55985,-0.261 m 1.06583,0.6153 -0.50598,-0.3543 m 0.94252,0.791 -0.43654,-0.4367 m 0.79087,0.9426 -0.35433,-0.5059 m 0.61547,1.0657 -0.26114,-0.5598 m 0.42094,1.1564 -0.1598,-0.5966 m 0.21366,1.2119 -0.0539,-0.6153 m 0,1.2306 0.0539,-0.6153 m -0.21366,1.2119 0.1598,-0.5966 m -0.42094,1.1563 0.26114,-0.5597 m -0.61547,1.0657 0.35433,-0.506 m -0.79087,0.9427 0.43654,-0.4367 m -0.94252,0.791 0.50598,-0.3543 m -55.26461,35.4705 54.75863,-35.1162 m -27.39827,53.9726 -27.36036,-18.8564 m 27.86634,19.2104 -0.50598,-0.354 m 0.94287,0.7908 -0.43689,-0.4368 m 0.79122,0.9428 -0.35433,-0.506 m 0.61512,1.0659 -0.26079,-0.5599 m 0.42059,1.1566 -0.1598,-0.5967 m 0.21366,1.2118 -0.0539,-0.6151 m 0,1.2302 0.0539,-0.6151 m -0.21366,1.2118 0.1598,-0.5967 m -0.42059,1.1565 0.26079,-0.5598 m -0.61512,1.0658 0.35433,-0.506 m -0.79122,0.9426 0.43689,-0.4366 m -0.94287,0.7909 0.50598,-0.3543 m -1.06582,0.6154 0.55984,-0.2611 m -1.15618,0.4209 0.59634,-0.1598 m -1.21182,0.2137 0.61548,-0.054 m -1.23059,0 0.61511,0.054 m -1.21181,-0.2137 0.5967,0.1598 m -1.15654,-0.4209 0.55984,0.2611 m -30.56988,-14.5275 30.01004,14.2664 m -33.0424,50.71386 3.03236,-64.98026 m -3.08622,65.59536 0.0539,-0.6151 m -0.21366,1.2118 0.1598,-0.5967 m -0.42094,1.1566 0.26114,-0.5599 m -0.61512,1.0655 0.35398,-0.5056 m -0.79087,0.9425 0.43689,-0.4369 m -0.94287,0.7912 0.50598,-0.3543 m -1.06583,0.6151 0.55985,-0.2608 m -1.15619,0.421 0.59634,-0.1602 m -1.21181,0.214 0.61547,-0.054 m -1.23058,0 0.61511,0.054 m -1.21181,-0.214 0.5967,0.1602 m -1.15654,-0.421 0.55984,0.2608 m -1.06582,-0.6151 0.50598,0.3543 m -0.94252,-0.7912 0.43654,0.4369 m -0.79087,-0.9425 0.35433,0.5056 m -0.61547,-1.0655 0.26114,0.5599 m -0.42095,-1.1566 0.15981,0.5967 m -0.21366,-1.2118 0.0538,0.6151 m -3.38456,-71.98926 3.33071,71.37416 m -28.7504,-83.45866 25.41969,12.0845 m -27.94004,23.9191 2.52035,-36.0036 m -2.57421,36.619 0.0539,-0.6154 m -0.21367,1.2118 0.15981,-0.5964 m -0.42095,1.1562 0.26114,-0.5598 m -0.61547,1.0658 0.35433,-0.506 m -0.79086,0.9425 0.43653,-0.4365 m -0.94252,0.7909 0.50599,-0.3544 m -1.06583,0.6155 0.55984,-0.2611 m -1.15653,0.4209 0.59669,-0.1598 m -1.21181,0.2137 0.61512,-0.054 m -1.23059,0 0.61547,0.054 m -1.21181,-0.2137 0.59634,0.1598 m -1.15618,-0.4209 0.55984,0.2611 m -1.06583,-0.6155 0.50599,0.3544 m -0.94252,-0.7909 0.43653,0.4365 m -0.79086,-0.9425 0.35433,0.506 m -0.61548,-1.0658 0.26115,0.5598 m -0.42095,-1.1565 0.1598,0.5967 m -0.21366,-1.2118 0.0539,0.6151 m -2.99161,-42.5824 2.93775,41.9673 m -30.18295,-54.9195 27.2452,12.9522 m -28.38685,-4.8724 1.14165,-8.0798 m -1.30146,8.6765 0.15981,-0.5967 m -0.42095,1.1562 0.26114,-0.5595 m -0.61547,1.0654 0.35433,-0.5059 m -0.79086,0.9428 0.43653,-0.4369 m -0.94252,0.7913 0.50599,-0.3544 m -1.06583,0.6152 0.55984,-0.2608 m -1.15653,0.4206 0.59669,-0.1598 m -1.21181,0.2136 0.61512,-0.054 m -1.23059,0 0.61547,0.054 m -1.21181,-0.2136 0.59634,0.1598 m -1.15619,-0.4206 0.55985,0.2608 m -1.06583,-0.6152 0.50598,0.3544 m -0.94287,-0.7913 0.43689,0.4369 m -0.79087,-0.9428 0.35398,0.5059 m -0.61512,-1.0654 0.26114,0.5595 m -0.42094,-1.1562 0.1598,0.5967 m -1.96866,-13.3968 1.80886,12.8001 m -19.30766,-21.1189 17.4988,8.3188 m -19.04393,10.9951 1.54513,-19.3139 m 8.63568,27.2803 -10.18081,-7.9664 m 10.61756,8.403 -0.43675,-0.4366 m 0.79097,0.9426 -0.35422,-0.506 m 0.61526,1.0658 -0.26104,-0.5598 m 0.42091,1.1565 -0.15987,-0.5967 m 0.21369,1.2118 -0.0538,-0.6151 m 0,1.2306 0.0538,-0.6155 m -0.21369,1.2118 0.15987,-0.5963 m -0.42091,1.1562 0.26104,-0.5599 m -0.61526,1.0658 0.35422,-0.5059 m -0.79097,0.9428 0.43675,-0.4369 m -0.9427,0.7909 0.50595,-0.354 m -1.06572,0.6152 0.55977,-0.2612 m -1.15632,0.421 0.59655,-0.1598 m -1.21188,0.2136 0.61533,-0.054 m -1.23063,0 0.6153,0.054 m -1.21185,-0.2136 0.59655,0.1598 m -8.16463,-3.211 7.56808,3.0512 m -9.97377,27.0202 2.40569,-30.0714 m 32.46998,53.5989 -34.87567,-23.5275 m 35.38166,23.8818 -0.50599,-0.3543 m 0.94288,0.7912 -0.43689,-0.4369 m 0.79122,0.9429 -0.35433,-0.506 m 0.61511,1.0655 -0.26078,-0.5595 m 0.42094,1.1562 -0.16016,-0.5967 m 0.21367,1.2122 -0.0535,-0.6155 m 0,1.2306 0.0535,-0.6151 m -0.21367,1.2118 0.16016,-0.5967 m -0.42094,1.1565 0.26078,-0.5598 m -0.61511,1.0655 0.35433,-0.5057 m -0.79122,0.9425 0.43689,-0.4368 m -0.94288,0.7912 0.50599,-0.3544 m -1.06548,0.6152 0.55949,-0.2608 m -1.15618,0.4209 0.59669,-0.1601 m -1.21216,0.214 0.61547,-0.054 m -1.23059,0 0.61512,0.054 m -1.21181,-0.214 0.59669,0.1601 m -1.15654,-0.4209 0.55985,0.2608 m -32.99988,-16.0803 32.44003,15.8195 m -34.68451,12.2371 2.24448,-28.0566 m 57.90188,66.62836 -60.14636,-38.57176 m 60.65235,38.92566 -0.50599,-0.3539 m 0.94288,0.7908 -0.43689,-0.4369 m 0.79122,0.9429 -0.35433,-0.506 m 0.61512,1.0659 -0.26079,-0.5599 m 0.42059,1.1562 -0.1598,-0.5963 m 0.21366,1.2118 -0.0539,-0.6155 m 0,1.2306 0.0539,-0.6151 m -0.21366,1.2118 0.1598,-0.5967 m -0.42059,1.1565 0.26079,-0.5598 m -0.61512,1.0658 0.35433,-0.506 m -0.79122,0.9425 0.43689,-0.4365 m -0.94288,0.7909 0.50599,-0.3544 m -1.06547,0.6155 0.55948,-0.2611 m -1.15618,0.4209 0.5967,-0.1598 m -1.21217,0.2137 0.61547,-0.054 m -1.23059,0 0.61512,0.054 m -1.21181,-0.2137 0.59669,0.1598 m -1.15653,-0.4209 0.55984,0.2611 m -58.35051,-30.1252 57.79067,29.8641 m -60.44049,3.2588 2.64982,-33.1229 m -2.70365,33.738 0.0538,-0.6151 m -0.21373,1.2118 0.15991,-0.5967 m -0.42091,1.1565 0.261,-0.5598 m -0.61526,1.0658 0.35426,-0.506 m -0.79101,0.9425 0.43675,-0.4365 m -0.9427,0.7909 0.50595,-0.3544 m -1.06572,0.6155 0.55977,-0.2611 m -1.15632,0.4209 0.59655,-0.1598"
       inkscape:connector-curvature="0" />
    <path
       id="path5190"
       style="fill:none;stroke:#000000"
       d="m 615.50654,1039.9511 0.6166,-0.054 m -0.6166,-239.71007 0,239.76397 m -18.411,-239.76397 18.411,0 m -18.411,239.76397 0,-239.76397 m -0.6165,239.71007 0.6165,0.054 m -1.2118,-0.2137 0.5953,0.1598 m -1.1551,-0.4209 0.5598,0.2611 m -1.0665,-0.6155 0.5067,0.3544 m -0.9425,-0.7909 0.4358,0.4365 m -0.7902,-0.9425 0.3544,0.506 m -0.6166,-1.0658 0.2622,0.5598 m -0.4216,-1.1565 0.1594,0.5967 m -0.2126,-1.2118 0.053,0.6151 m -2.7036,-33.738 2.6504,33.1229 m -60.4417,-3.2588 57.7913,-29.8641 m -58.3512,30.1252 0.5599,-0.2611 m -1.1551,0.4209 0.5952,-0.1598 m -1.2118,0.2137 0.6166,-0.054 m -1.2296,0 0.613,0.054 m -1.2118,-0.2137 0.5988,0.1598 m -1.1586,-0.4209 0.5598,0.2611 m -1.0665,-0.6155 0.5067,0.3544 m -0.9425,-0.7909 0.4358,0.4365 m -0.7902,-0.9425 0.3544,0.506 m -0.613,-1.0658 0.2586,0.5598 m -0.4216,-1.1565 0.163,0.5967 m -0.2162,-1.2118 0.053,0.6151 m 0,-1.2306 -0.053,0.6155 m 0.2162,-1.2118 -0.163,0.5963 m 0.4216,-1.1562 -0.2586,0.5599 m 0.613,-1.0659 -0.3544,0.506 m 0.7902,-0.9429 -0.4358,0.4369 m 0.9425,-0.7908 -0.5067,0.3539 m 60.6543,-38.92574 -60.1476,38.57184 m 57.9047,-66.62844 2.2429,28.0566 m -34.6854,-12.2371 32.4425,-15.8195 m -33.0024,16.0803 0.5599,-0.2608 m -1.1551,0.4209 0.5952,-0.1601 m -1.2118,0.214 0.6166,-0.054 m -1.2296,0 0.613,0.054 m -1.2118,-0.214 0.5988,0.1601 m -1.1586,-0.4209 0.5598,0.2608 m -1.0665,-0.6152 0.5067,0.3544 m -0.9425,-0.7912 0.4358,0.4368 m -0.7902,-0.9425 0.3544,0.5057 m -0.6166,-1.0655 0.2622,0.5598 m -0.4216,-1.1565 0.1594,0.5967 m -0.2126,-1.2118 0.053,0.6151 m 0,-1.2306 -0.053,0.6155 m 0.2126,-1.2122 -0.1594,0.5967 m 0.4216,-1.1562 -0.2622,0.5595 m 0.6166,-1.0655 -0.3544,0.506 m 0.7902,-0.9429 -0.4358,0.4369 m 0.9425,-0.7912 -0.5067,0.3543 m 35.3834,-23.8818 -34.8767,23.5275 m 32.4708,-53.5989 2.4059,30.0714 m -9.9744,-27.0202 7.5685,-3.0512 m -8.1637,3.211 0.5952,-0.1598 m -1.2118,0.2136 0.6166,-0.054 m -1.2331,0 0.6165,0.054 m -1.2118,-0.2136 0.5953,0.1598 m -1.1551,-0.421 0.5598,0.2612 m -1.0665,-0.6152 0.5067,0.354 m -0.9425,-0.7909 0.4358,0.4369 m -0.7902,-0.9428 0.3544,0.5059 m -0.6166,-1.0658 0.2622,0.5599 m -0.4216,-1.1562 0.1594,0.5963 m -0.2126,-1.2118 0.053,0.6155 m 0,-1.2306 -0.053,0.6151 m 0.2126,-1.2118 -0.1594,0.5967 m 0.4216,-1.1565 -0.2622,0.5598 m 0.6166,-1.0658 -0.3544,0.506 m 0.7902,-0.9426 -0.4358,0.4366 m 10.6192,-8.403 -10.1834,7.9664 m 8.635,-27.2803 1.5484,19.3139 m -19.0452,-10.9951 17.4968,-8.3188 m -19.3075,21.1189 1.8107,-12.8001 m -1.9701,13.3968 0.1594,-0.5967 m -0.4181,1.1562 0.2587,-0.5595 m -0.613,1.0654 0.3543,-0.5059 m -0.7937,0.9428 0.4394,-0.4369 m -0.9425,0.7913 0.5031,-0.3544 m -1.063,0.6152 0.5599,-0.2608 m -1.1587,0.4206 0.5988,-0.1598 m -1.2118,0.2136 0.613,-0.054 m -1.2295,0 0.6165,0.054 m -1.2118,-0.2136 0.5953,0.1598 m -1.1551,-0.4206 0.5598,0.2608 m -1.0665,-0.6152 0.5067,0.3544 m -0.9425,-0.7913 0.4358,0.4369 m -0.7902,-0.9428 0.3544,0.5059 m -0.6166,-1.0654 0.2622,0.5595 m -0.4216,-1.1562 0.1594,0.5967 m -1.3004,-8.6765 1.141,8.0798 m -28.389,4.8724 27.248,-12.9522 m -30.1854,54.9195 2.9374,-41.9673 m -2.9906,42.5824 0.053,-0.6151 m -0.2126,1.2118 0.1594,-0.5967 m -0.4216,1.1565 0.2622,-0.5598 m -0.6165,1.0658 0.3543,-0.506 m -0.7902,0.9425 0.4359,-0.4365 m -0.9426,0.7909 0.5067,-0.3544 m -1.0665,0.6155 0.5598,-0.2611 m -1.1551,0.4209 0.5953,-0.1598 m -1.2118,0.2137 0.6165,-0.054 m -1.2295,0 0.613,0.054 m -1.2118,-0.2137 0.5988,0.1598 m -1.1587,-0.4209 0.5599,0.2611 m -1.063,-0.6155 0.5031,0.3544 m -0.9425,-0.7909 0.4394,0.4365 m -0.7937,-0.9425 0.3543,0.506 m -0.613,-1.0658 0.2587,0.5598 m -0.4181,-1.1562 0.1594,0.5964 m -0.2161,-1.2118 0.057,0.6154 m -2.576,-36.619 2.5193,36.0036 m -27.939,-23.9191 25.4197,-12.0845 m -28.7504,83.45874 3.3307,-71.37424 m -3.3839,71.98934 0.053,-0.6151 m -0.2126,1.2118 0.1594,-0.5967 m -0.4216,1.1566 0.2622,-0.5599 m -0.6165,1.0655 0.3543,-0.5056 m -0.7902,0.9425 0.4359,-0.4369 m -0.9426,0.7912 0.5067,-0.3543 m -1.0665,0.6151 0.5598,-0.2608 m -1.1551,0.421 0.5953,-0.1602 m -1.2118,0.214 0.6165,-0.054 m -1.2331,0 0.6166,0.054 m -1.2118,-0.214 0.5952,0.1602 m -1.1551,-0.421 0.5599,0.2608 m -1.0666,-0.6151 0.5067,0.3543 m -0.9425,-0.7912 0.4358,0.4369 m -0.7901,-0.9425 0.3543,0.5056 m -0.6165,-1.0655 0.2622,0.5599 m -0.4217,-1.1566 0.1595,0.5967 m -0.2126,-1.2118 0.053,0.6151 m -3.0862,-65.59544 3.0331,64.98034 m -33.0414,-50.71394 30.0083,-14.2664 m -30.5681,14.5275 0.5598,-0.2611 m -1.1586,0.4209 0.5988,-0.1598 m -1.2118,0.2137 0.613,-0.054 m -1.2296,0 0.6166,0.054 m -1.2118,-0.2137 0.5952,0.1598 m -1.1551,-0.4209 0.5599,0.2611 m -1.0666,-0.6154 0.5067,0.3543 m -0.9425,-0.7909 0.4358,0.4366 m -0.7901,-0.9426 0.3543,0.506 m -0.6165,-1.0658 0.2622,0.5598 m -0.4217,-1.1565 0.1595,0.5967 m -0.2126,-1.2118 0.053,0.6151 m 0,-1.2302 -0.053,0.6151 m 0.2126,-1.2118 -0.1595,0.5967 m 0.4217,-1.1566 -0.2622,0.5599 m 0.6165,-1.0659 -0.3543,0.506 m 0.7901,-0.9428 -0.4358,0.4368 m 0.9425,-0.7908 -0.5067,0.354 m 27.8646,-19.2104 -27.3579,18.8564 m -27.4004,-53.9726 54.7583,35.1162 m -55.2614,-35.4705 0.5031,0.3543 m -0.9425,-0.791 0.4394,0.4367 m -0.7937,-0.9427 0.3543,0.506 m -0.613,-1.0657 0.2587,0.5597 m -0.4217,-1.1563 0.163,0.5966 m -0.2161,-1.2119 0.053,0.6153 m 0,-1.2306 -0.053,0.6153 m 0.2161,-1.2119 -0.163,0.5966 m 0.4217,-1.1564 -0.2587,0.5598 m 0.613,-1.0657 -0.3543,0.5059 m 0.7937,-0.9426 -0.4394,0.4367 m 0.9425,-0.791 -0.5031,0.3543 m 1.063,-0.6153 -0.5599,0.261 m 1.1587,-0.4209 -0.5988,0.1599 m 1.2118,-0.2137 -0.613,0.054 m 1.2295,0 -0.6165,-0.054 m 1.2118,0.2136 -0.5953,-0.1598 m 1.1551,0.4209 -0.5598,-0.2611 m 64.0382,33.0637 -63.4784,-32.8026 m 86.6552,16.8304 -23.1768,15.9722 m -6.7429,-36.1564 29.9197,20.1842 m -30.4264,-20.5385 0.5067,0.3543 m -0.9461,-0.791 0.4394,0.4367 m -0.7902,-0.9426 0.3508,0.5059 m -0.613,-1.0657 0.2622,0.5598 m -0.4216,-1.1564 0.1594,0.5966 m -0.2126,-1.2119 0.053,0.6153 m 0,-1.2306 -0.053,0.6153 m 0.2126,-1.2119 -0.1594,0.5966 m 0.4181,-1.1563 -0.2587,0.5597 m 0.613,-1.0657 -0.3543,0.506 m 0.7937,-0.9428 -0.4394,0.4368 m 0.9461,-0.791 -0.5067,0.3542 m 1.063,-0.6152 -0.5563,0.261 m 1.1551,-0.4209 -0.5988,0.1599 m 1.2153,-0.2137 -0.6165,0.054 m 1.2295,0 -0.613,-0.054 m 1.2118,0.2137 -0.5988,-0.1599 m 1.1587,0.4209 -0.5599,-0.261 m 38.3705,18.7005 -37.8106,-18.4395 m 62.6527,1.3205 -24.8421,17.119 m 18.4146,-22.1476 6.4275,5.0286 m -6.8633,-5.4653 0.4358,0.4367 m -0.7902,-0.9426 0.3544,0.5059 m -0.6166,-1.0658 0.2622,0.5599 m -0.4216,-1.1564 0.1594,0.5965 m -0.2126,-1.2118 0.053,0.6153 m 0,-1.2306 -0.053,0.6153 m 0.2126,-1.2119 -0.1594,0.5966 m 0.4216,-1.1564 -0.2622,0.5598 m 0.6166,-1.0657 -0.3544,0.5059 m 0.7902,-0.9426 -0.4358,0.4367 m 0.9425,-0.791 -0.5067,0.3543 m 1.0665,-0.6154 -0.5598,0.2611 m 1.1551,-0.4209 -0.5953,0.1598 m 1.2118,-0.2136 -0.6165,0.054 m 1.2295,0 -0.613,-0.054 m 1.2118,0.2137 -0.5988,-0.1599 m 12.5858,4.9935 -11.987,-4.8336 m 27.9426,-6.1614 -15.9556,10.995 m 0,-21.99 15.9556,10.995 m -27.9426,-6.1614 11.987,-4.8336 m -12.5858,4.9935 0.5988,-0.1599 m -1.2118,0.2137 0.613,-0.054 m -1.2295,0 0.6165,0.054 m -1.2118,-0.2136 0.5953,0.1598 m -1.1551,-0.4209 0.5598,0.2611 m -1.0665,-0.6153 0.5067,0.3542 m -0.9425,-0.791 0.4358,0.4368 m -0.7902,-0.9427 0.3544,0.5059 m -0.6166,-1.0657 0.2622,0.5598 m -0.4216,-1.1564 0.1594,0.5966 m -0.2126,-1.2119 0.053,0.6153 m 0,-1.2306 -0.053,0.6153 m 0.2126,-1.2118 -0.1594,0.5965 m 0.4216,-1.1563 -0.2622,0.5598 m 0.6166,-1.0658 -0.3544,0.506 m 0.7902,-0.9427 -0.4358,0.4367 m 6.8633,-5.4653 -6.4275,5.0286 m -18.4146,-22.1476 24.8421,17.119 m -62.6527,1.3205 37.8106,-18.4395 m -38.3705,18.7005 0.5599,-0.261 m -1.1587,0.4209 0.5988,-0.1599 m -1.2118,0.2137 0.613,-0.054 m -1.2295,0 0.6165,0.054 m -1.2153,-0.2137 0.5988,0.1599 m -1.1551,-0.4209 0.5563,0.261 m -1.063,-0.6152 0.5067,0.3542 m -0.9461,-0.7909 0.4394,0.4367 m -0.7937,-0.9428 0.3543,0.5061 m -0.613,-1.0658 0.2587,0.5597 m -0.4181,-1.1563 0.1594,0.5966 m -0.2126,-1.2119 0.053,0.6153 m 0,-1.2305 -0.053,0.6152 m 0.2126,-1.2119 -0.1594,0.5967 m 0.4216,-1.1565 -0.2622,0.5598 m 0.613,-1.0657 -0.3508,0.5059 m 0.7902,-0.9426 -0.4394,0.4367 m 0.9461,-0.791 -0.5067,0.3543 m 30.4264,-20.5385 -29.9197,20.1842 m 6.7429,-36.15636 23.1768,15.97216 m -86.6552,16.8304 63.4784,-32.80256 m -64.0382,33.06366 0.5598,-0.2611 m -1.1551,0.4209 0.5953,-0.1598 m -1.2118,0.2136 0.6165,-0.054 m -1.2295,0 0.613,0.054 m -1.2118,-0.2137 0.5988,0.1599 m -1.1587,-0.4209 0.5599,0.261 m -1.063,-0.6153 0.5031,0.3543 m -0.9425,-0.791 0.4394,0.4367 m -0.7937,-0.9426 0.3543,0.5059 m -0.613,-1.0657 0.2587,0.5598 m -0.4217,-1.1564 0.163,0.5966 m -0.2161,-1.2119 0.053,0.6153 m 0,-1.2305 -0.053,0.6152 m 0.2161,-1.2119 -0.163,0.5967 m 0.4217,-1.1564 -0.2587,0.5597 m 0.613,-1.0657 -0.3543,0.506 m 0.7937,-0.9427 -0.4394,0.4367 m 0.9425,-0.791 -0.5031,0.3543 m 55.2614,-35.47045 -54.7583,35.11615 m 27.4004,-53.97257 27.3579,18.85642 m -27.8646,-19.2104 0.5067,0.35398 m -0.9425,-0.79086 0.4358,0.43688 m -0.7901,-0.94287 0.3543,0.50599 m -0.6165,-1.06583 0.2622,0.55984 m -0.4217,-1.15653 0.1595,0.59669 m -0.2126,-1.21181 0.053,0.61512 m 0,-1.23024 -0.053,0.61512 m 0.2126,-1.21181 -0.1595,0.59669 m 0.4217,-1.15654 -0.2622,0.55985 m 0.6165,-1.06583 -0.3543,0.50598 m 0.7901,-0.94252 -0.4358,0.43654 m 0.9425,-0.79087 -0.5067,0.35433 m 1.0666,-0.61547 -0.5599,0.26114 m 1.1551,-0.42094 -0.5952,0.1598 m 1.2118,-0.21366 -0.6166,0.0539 m 1.2296,0 -0.613,-0.0539 m 1.2118,0.21366 -0.5988,-0.1598 m 1.1586,0.42094 -0.5598,-0.26114 m 30.5681,14.52756 -30.0083,-14.26642 m 33.0414,-50.71393 -3.0331,64.98035 m 3.0862,-65.59547 -0.053,0.61512 m 0.2126,-1.21181 -0.1595,0.59669 m 0.4217,-1.15654 -0.2622,0.55985 m 0.6165,-1.06548 -0.3543,0.50563 m 0.7901,-0.94252 -0.4358,0.43689 m 0.9425,-0.79122 -0.5067,0.35433 m 1.0666,-0.61512 -0.5599,0.26079 m 1.1551,-0.42094 -0.5952,0.16015 m 1.2118,-0.21401 -0.6166,0.0539 m 1.2331,0 -0.6165,-0.0539 m 1.2118,0.21401 -0.5953,-0.16015 m 1.1551,0.42094 -0.5598,-0.26079 m 1.0665,0.61512 -0.5067,-0.35433 m 0.9426,0.79122 -0.4359,-0.43689 m 0.7902,0.94252 -0.3543,-0.50563 m 0.6165,1.06548 -0.2622,-0.55985 m 0.4216,1.15654 -0.1594,-0.59669 m 0.2126,1.21181 -0.053,-0.61512 m 3.3839,71.98937 -3.3307,-71.37425 m 28.7504,83.4587 -25.4197,-12.08445 m 27.939,-23.9191 -2.5193,36.00355 m 2.576,-36.61902 -0.057,0.61547 m 0.2161,-1.21181 -0.1594,0.59634 m 0.4181,-1.15618 -0.2587,0.55984 m 0.613,-1.06582 -0.3543,0.50598 m 0.7937,-0.94252 -0.4394,0.43654 m 0.9425,-0.79087 -0.5031,0.35433 m 1.063,-0.61547 -0.5599,0.26114 m 1.1587,-0.42094 -0.5988,0.1598 m 1.2118,-0.21366 -0.613,0.0539 m 1.2295,0 -0.6165,-0.0539 m 1.2118,0.21366 -0.5953,-0.1598 m 1.1551,0.42094 -0.5598,-0.26114 m 1.0665,0.61547 -0.5067,-0.35433 m 0.9426,0.79087 -0.4359,-0.43654 m 0.7902,0.94252 -0.3543,-0.50598 m 0.6165,1.06582 -0.2622,-0.55984 m 0.4216,1.15654 -0.1594,-0.5967 m 0.2126,1.21181 -0.053,-0.61511 m 2.9906,42.5824 -2.9374,-41.96729 m 30.1854,54.91946 -27.248,-12.95217 m 28.389,4.87237 -1.141,8.0798 m 1.3004,-8.6765 -0.1594,0.5967 m 0.4216,-1.1562 -0.2622,0.5595 m 0.6166,-1.0654 -0.3544,0.5059 m 0.7902,-0.9428 -0.4358,0.4369 m 0.9425,-0.7913 -0.5067,0.3544 m 1.0665,-0.6151 -0.5598,0.2607 m 1.1551,-0.4205 -0.5953,0.1598 m 1.2118,-0.2137 -0.6165,0.054 m 1.2295,0 -0.613,-0.054 m 1.2118,0.2137 -0.5988,-0.1598 m 1.1587,0.4205 -0.5599,-0.2607 m 1.063,0.6151 -0.5031,-0.3544 m 0.9425,0.7913 -0.4394,-0.4369 m 0.7937,0.9428 -0.3543,-0.5059 m 0.613,1.0654 -0.2587,-0.5595 m 0.4181,1.1562 -0.1594,-0.5967 m 1.9701,13.3968 -1.8107,-12.8001 m 19.3075,21.1189 -17.4968,-8.3188 m 19.0452,-10.9951 -1.5484,19.3139 m -8.635,-27.28033 10.1834,7.96643 m -10.6192,-8.40296 0.4358,0.43653 m -0.7902,-0.94252 0.3544,0.50599 m -0.6166,-1.06583 0.2622,0.55984 m -0.4216,-1.15653 0.1594,0.59669 m -0.2126,-1.21181 0.053,0.61512 m 0,-1.23059 -0.053,0.61547 m 0.2126,-1.21181 -0.1594,0.59634 m 0.4216,-1.15618 -0.2622,0.55984 m 0.6166,-1.06583 -0.3544,0.50599 m 0.7902,-0.94288 -0.4358,0.43689 m 0.9425,-0.79086 -0.5067,0.35397 m 1.0665,-0.61512 -0.5598,0.26115 m 1.1551,-0.42095 -0.5953,0.1598 m 1.2118,-0.21366 -0.6165,0.0539 m 1.2331,0 -0.6166,-0.0539 m 1.2118,0.21366 -0.5952,-0.1598 m 8.1637,3.21094 -7.5685,-3.05114 m 9.9744,-27.02019 -2.4059,30.07133 m -32.4708,-53.59889 34.8767,23.52756 m -35.3834,-23.88189 0.5067,0.35433 m -0.9425,-0.79122 0.4358,0.43689 m -0.7902,-0.94288 0.3544,0.50599 m -0.6166,-1.06548 0.2622,0.55949 m -0.4216,-1.15618 0.1594,0.59669 m -0.2126,-1.21216 0.053,0.61547 m 0,-1.23059 -0.053,0.61512 m 0.2126,-1.21181 -0.1594,0.59669 m 0.4216,-1.15653 -0.2622,0.55984 m 0.6166,-1.06547 -0.3544,0.50563 m 0.7902,-0.94252 -0.4358,0.43689 m 0.9425,-0.79123 -0.5067,0.35434 m 1.0665,-0.61512 -0.5598,0.26078 m 1.1586,-0.42094 -0.5988,0.16016 m 1.2118,-0.21402 -0.613,0.0539 m 1.2296,0 -0.6166,-0.0539 m 1.2118,0.21402 -0.5952,-0.16016 m 1.1551,0.42094 -0.5599,-0.26078 m 32.9989,16.08023 -32.439,-15.81945 m 34.6854,-12.23716 -2.2464,28.05661 m -57.9012,-66.62834 60.1476,38.57173 m -60.6543,-38.92571 0.5067,0.35398 m -0.9425,-0.79087 0.4358,0.43689 m -0.7902,-0.94287 0.3544,0.50598 m -0.613,-1.06582 0.2586,0.55984 m -0.4216,-1.15618 0.163,0.59634 m -0.2162,-1.21182 0.053,0.61548 m 0,-1.23059 -0.053,0.61511 m 0.2162,-1.21181 -0.163,0.5967 m 0.4216,-1.15654 -0.2586,0.55984 m 0.613,-1.06582 -0.3544,0.50598 m 0.7902,-0.94252 -0.4358,0.43654 m 0.9425,-0.79087 -0.5067,0.35433 m 1.0665,-0.61547 -0.5598,0.26114 m 1.1586,-0.42095 -0.5988,0.15981 m 1.2118,-0.21366 -0.613,0.0539 m 1.2296,0 -0.6166,-0.0539 m 1.2118,0.21366 -0.5952,-0.15981 m 1.1551,0.42095 -0.5599,-0.26114 m 58.3512,30.1252 -57.7913,-29.86406 m 60.4417,-3.25878 -2.6504,33.12284 m 2.7036,-33.73796 -0.053,0.61512 m 0.2126,-1.21181 -0.1594,0.59669 m 0.4216,-1.15653 -0.2622,0.55984 m 0.6166,-1.06583 -0.3544,0.50599 m 0.7902,-0.94252 -0.4358,0.43653 m 0.9425,-0.79086 -0.5067,0.35433 m 1.0665,-0.61547 -0.5598,0.26114 m 1.1551,-0.42095 -0.5953,0.15981 m 1.2118,-0.21367 -0.6165,0.0539 m 0.6165,3.48945 0,-3.54331 m 18.411,3.54331 -18.411,0 m 18.411,-3.54331 0,3.54331 m 0.6166,-3.48945 -0.6166,-0.0539 m 1.2119,0.21367 -0.5953,-0.15981 m 1.1551,0.42095 -0.5598,-0.26114 m 1.0665,0.61547 -0.5067,-0.35433 m 0.9425,0.79086 -0.4358,-0.43653 m 0.7902,0.94252 -0.3544,-0.50599 m 0.6166,1.06583 -0.2622,-0.55984 m 0.4216,1.15653 -0.1594,-0.59669 m 0.2126,1.21181 -0.053,-0.61512 m 2.7035,33.73796 -2.6503,-33.12284 m 60.4417,3.25878 -57.7914,29.86406 m 58.3512,-30.1252 -0.5598,0.26114 m 1.1551,-0.42095 -0.5953,0.15981 m 1.2118,-0.21366 -0.6165,0.0539 m 1.2295,0 -0.613,-0.0539 m 1.2119,0.21366 -0.5989,-0.15981 m 1.1587,0.42095 -0.5598,-0.26114 m 1.0665,0.61547 -0.5067,-0.35433 m 0.9425,0.79087 -0.4358,-0.43654 m 0.7901,0.94252 -0.3543,-0.50598 m 0.613,1.06582 -0.2587,-0.55984 m 0.4217,1.15654 -0.163,-0.5967 m 0.2161,1.21181 -0.053,-0.61511 m 0,1.23059 0.053,-0.61548 m -0.2161,1.21182 0.163,-0.59634 m -0.4217,1.15618 0.2587,-0.55984 m -0.613,1.06582 0.3543,-0.50598 m -0.7901,0.94287 0.4358,-0.43689 m -0.9425,0.79087 0.5067,-0.35398 m -60.6543,38.92571 60.1476,-38.57173 m -57.9012,66.62834 -2.2464,-28.05661 m 34.6854,12.23716 -32.439,15.81945 m 32.9988,-16.08023 -0.5598,0.26078 m 1.1551,-0.42094 -0.5953,0.16016 m 1.2118,-0.21402 -0.6165,0.0539 m 1.2295,0 -0.613,-0.0539 m 1.2119,0.21402 -0.5989,-0.16016 m 1.1587,0.42094 -0.5598,-0.26078 m 1.0665,0.61512 -0.5067,-0.35434 m 0.9425,0.79123 -0.4358,-0.43689 m 0.7901,0.94252 -0.3543,-0.50563 m 0.6166,1.06547 -0.2623,-0.55984 m 0.4217,1.15653 -0.1594,-0.59669 m 0.2125,1.21181 -0.053,-0.61512 m 0,1.23059 0.053,-0.61547 m -0.2125,1.21216 0.1594,-0.59669 m -0.4217,1.15618 0.2623,-0.55949 m -0.6166,1.06548 0.3543,-0.50599 m -0.7901,0.94288 0.4358,-0.43689 m -0.9425,0.79122 0.5067,-0.35433 m -35.3835,23.88189 34.8768,-23.52756 m -32.4709,53.59889 -2.4059,-30.07133 m 9.9744,27.02019 -7.5685,3.05114 m 8.1638,-3.21094 -0.5953,0.1598 m 1.2118,-0.21366 -0.6165,0.0539 m 1.2331,0 -0.6166,-0.0539 m 1.2119,0.21366 -0.5953,-0.1598 m 1.1551,0.42095 -0.5598,-0.26115 m 1.0665,0.61512 -0.5067,-0.35397 m 0.9425,0.79086 -0.4358,-0.43689 m 0.7901,0.94288 -0.3543,-0.50599 m 0.6166,1.06583 -0.2623,-0.55984 m 0.4217,1.15618 -0.1594,-0.59634 m 0.2126,1.21181 -0.053,-0.61547 m 0,1.23059 0.053,-0.61512 m -0.2126,1.21181 0.1594,-0.59669 m -0.4217,1.15653 0.2623,-0.55984 m -0.6166,1.06583 0.3543,-0.50599 m -0.7901,0.94252 0.4358,-0.43653 m -10.6193,8.40296 10.1835,-7.96643 m -8.635,27.28033 -1.5485,-19.3139 m 19.0453,10.9951 -17.4968,8.3188 m 19.3074,-21.1189 -1.8106,12.8001 m 1.9701,-13.3968 -0.1595,0.5967 m 0.4181,-1.1562 -0.2586,0.5595 m 0.613,-1.0654 -0.3544,0.5059 m 0.7937,-0.9428 -0.4393,0.4369 m 0.9425,-0.7913 -0.5032,0.3544 m 1.063,-0.6151 -0.5598,0.2607 m 1.1587,-0.4205 -0.5989,0.1598 m 1.2118,-0.2137 -0.6129,0.054 m 1.2295,0 -0.6166,-0.054 m 1.2119,0.2137 -0.5953,-0.1598 m 1.1551,0.4205 -0.5598,-0.2607 m 1.0665,0.6151 -0.5067,-0.3544 m 0.9425,0.7913 -0.4358,-0.4369 m 0.7902,0.9428 -0.3544,-0.5059 m 0.6166,1.0654 -0.2622,-0.5595 m 0.4216,1.1562 -0.1594,-0.5967 m 1.3003,8.6765 -1.1409,-8.0798 m 28.389,-4.87237 -27.2481,12.95217 m 30.1855,-54.91946 -2.9374,41.96729 m 2.9905,-42.5824 -0.053,0.61511 m 0.2126,-1.21181 -0.1595,0.5967 m 0.4217,-1.15654 -0.2622,0.55984 m 0.6165,-1.06582 -0.3543,0.50598 m 0.7901,-0.94252 -0.4358,0.43654 m 0.9425,-0.79087 -0.5067,0.35433 m 1.0666,-0.61547 -0.5599,0.26114 m 1.1552,-0.42094 -0.5953,0.1598 m 1.2118,-0.21366 -0.6165,0.0539 m 1.2295,0 -0.613,-0.0539 m 1.2118,0.21366 -0.5988,-0.1598 m 1.1586,0.42094 -0.5598,-0.26114 m 1.063,0.61547 -0.5032,-0.35433 m 0.9426,0.79087 -0.4394,-0.43654 m 0.7937,0.94252 -0.3543,-0.50598 m 0.613,1.06582 -0.2587,-0.55984 m 0.4181,1.15618 -0.1594,-0.59634 m 0.2161,1.21181 -0.057,-0.61547 m 2.576,36.61902 -2.5193,-36.00355 m 27.939,23.9191 -25.4197,12.08445 m 28.7504,-83.4587 -3.3307,71.37425 m 3.3838,-71.98937 -0.053,0.61512 m 0.2126,-1.21181 -0.1595,0.59669 m 0.4217,-1.15654 -0.2622,0.55985 m 0.6165,-1.06548 -0.3543,0.50563 m 0.7901,-0.94252 -0.4358,0.43689 m 0.9425,-0.79122 -0.5067,0.35433 m 1.0666,-0.61512 -0.5599,0.26079 m 1.1552,-0.42094 -0.5953,0.16015 m 1.2118,-0.21401 -0.6165,0.0539 m 1.233,0 -0.6165,-0.0539 m 1.2118,0.21401 -0.5953,-0.16015 m 1.1551,0.42094 -0.5598,-0.26079 m 1.0665,0.61512 -0.5067,-0.35433 m 0.9426,0.79122 -0.4359,-0.43689 m 0.7902,0.94252 -0.3543,-0.50563 m 0.6165,1.06548 -0.2622,-0.55985 m 0.4216,1.15654 -0.1594,-0.59669 m 0.2126,1.21181 -0.053,-0.61512 m 3.0863,65.59547 -3.0331,-64.98035 m 33.0413,50.71393 -30.0082,14.26642 m 30.5681,-14.52756 -0.5599,0.26114 m 1.1587,-0.42094 -0.5988,0.1598 m 1.2118,-0.21366 -0.613,0.0539 m 1.2295,0 -0.6165,-0.0539 m 1.2118,0.21366 -0.5953,-0.1598 m 1.1551,0.42094 -0.5598,-0.26114 m 1.0665,0.61547 -0.5067,-0.35433 m 0.9426,0.79087 -0.4359,-0.43654 m 0.7902,0.94252 -0.3543,-0.50598 m 0.6165,1.06583 -0.2622,-0.55985 m 0.4216,1.15654 -0.1594,-0.59669 m 0.2126,1.21181 -0.053,-0.61512 m 0,1.23024 0.053,-0.61512 m -0.2126,1.21181 0.1594,-0.59669 m -0.4216,1.15653 0.2622,-0.55984 m -0.6165,1.06583 0.3543,-0.50599 m -0.7902,0.94287 0.4359,-0.43688 m -0.9426,0.79086 0.5067,-0.35398 m -27.8645,19.2104 27.3578,-18.85642 m 27.4004,53.97257 -54.7582,-35.11615 m 55.2614,35.47045 -0.5032,-0.3543 m 0.9426,0.791 -0.4394,-0.4367 m 0.7937,0.9427 -0.3543,-0.506 m 0.6129,1.0657 -0.2586,-0.5597 m 0.4216,1.1564 -0.163,-0.5967 m 0.2162,1.2119 -0.053,-0.6152 m 0,1.2305 0.053,-0.6153 m -0.2162,1.2119 0.163,-0.5966 m -0.4216,1.1564 0.2586,-0.5598 m -0.6129,1.0657 0.3543,-0.5059 m -0.7937,0.9426 0.4394,-0.4367 m -0.9426,0.791 0.5032,-0.3543 m -1.063,0.6153 0.5598,-0.261 m -1.1586,0.4209 0.5988,-0.1599 m -1.2118,0.2137 0.613,-0.054 m -1.2296,0 0.6166,0.054 m -1.2118,-0.2136 0.5952,0.1598 m -1.1551,-0.4209 0.5599,0.2611 m -64.0382,-33.06366 63.4783,32.80256 m -86.6551,-16.8304 23.1768,-15.97216 m 6.7429,36.15636 -29.9197,-20.1842 m 30.4264,20.5385 -0.5067,-0.3543 m 0.9461,0.791 -0.4394,-0.4367 m 0.7901,0.9426 -0.3507,-0.5059 m 0.6129,1.0657 -0.2622,-0.5598 m 0.4217,1.1565 -0.1595,-0.5967 m 0.2126,1.2119 -0.053,-0.6152 m 0,1.2305 0.053,-0.6153 m -0.2126,1.2119 0.1595,-0.5966 m -0.4181,1.1563 0.2586,-0.5597 m -0.6129,1.0658 0.3543,-0.5061 m -0.7937,0.9428 0.4394,-0.4367 m -0.9461,0.7909 0.5067,-0.3542 m -1.063,0.6152 0.5563,-0.261 m -1.1551,0.4209 0.5988,-0.1599 m -1.2154,0.2137 0.6166,-0.054 m -1.2296,0 0.613,0.054 m -1.2118,-0.2137 0.5988,0.1599 m -1.1586,-0.4209 0.5598,0.261 m -38.3704,-18.7005 37.8106,18.4395 m -62.6528,-1.3205 24.8422,-17.119 m -18.4146,22.1476 -6.4276,-5.0286 m 6.8634,5.4653 -0.4358,-0.4367 m 0.7901,0.9427 -0.3543,-0.506 m 0.6166,1.0658 -0.2623,-0.5598 m 0.4217,1.1563 -0.1594,-0.5965 m 0.2126,1.2118 -0.053,-0.6153 m 0,1.2306 0.053,-0.6153 m -0.2126,1.2119 0.1594,-0.5966 m -0.4217,1.1564 0.2623,-0.5598 m -0.6166,1.0657 0.3543,-0.5059 m -0.7901,0.9427 0.4358,-0.4368 m -0.9425,0.791 0.5067,-0.3542 m -1.0665,0.6153 0.5598,-0.2611 m -1.1551,0.4209 0.5953,-0.1598 m -1.2119,0.2136 0.6166,-0.054 m -1.2295,0 0.6129,0.054 m -1.2118,-0.2137 0.5989,0.1599 m -12.5859,-4.9935 11.987,4.8336 m -27.9425,6.1614 15.9555,-10.995 m 0,21.99 -15.9555,-10.995 m 27.9425,6.1614 -11.987,4.8336 m 12.5859,-4.9935 -0.5989,0.1599 m 1.2118,-0.2137 -0.6129,0.054 m 1.2295,0 -0.6166,-0.054 m 1.2119,0.2136 -0.5953,-0.1598 m 1.1551,0.4209 -0.5598,-0.2611 m 1.0665,0.6154 -0.5067,-0.3543 m 0.9425,0.791 -0.4358,-0.4367 m 0.7901,0.9426 -0.3543,-0.5059 m 0.6166,1.0657 -0.2623,-0.5598 m 0.4217,1.1564 -0.1594,-0.5966 m 0.2126,1.2119 -0.053,-0.6153 m 0,1.2306 0.053,-0.6153 m -0.2126,1.2118 0.1594,-0.5965 m -0.4217,1.1564 0.2623,-0.5599 m -0.6166,1.0658 0.3543,-0.5059 m -0.7901,0.9426 0.4358,-0.4367 m -6.8634,5.4653 6.4276,-5.0286 m 18.4146,22.1476 -24.8422,-17.119 m 62.6528,-1.3205 -37.8106,18.4395 m 38.3704,-18.7005 -0.5598,0.261 m 1.1586,-0.4209 -0.5988,0.1599 m 1.2118,-0.2137 -0.613,0.054 m 1.2296,0 -0.6166,-0.054 m 1.2154,0.2137 -0.5988,-0.1599 m 1.1551,0.4209 -0.5563,-0.261 m 1.063,0.6152 -0.5067,-0.3542 m 0.9461,0.791 -0.4394,-0.4368 m 0.7937,0.9428 -0.3543,-0.506 m 0.6129,1.0657 -0.2586,-0.5597 m 0.4181,1.1563 -0.1595,-0.5966 m 0.2126,1.2119 -0.053,-0.6153 m 0,1.2306 0.053,-0.6153 m -0.2126,1.2119 0.1595,-0.5966 m -0.4217,1.1564 0.2622,-0.5598 m -0.6129,1.0657 0.3507,-0.5059 m -0.7901,0.9426 0.4394,-0.4367 m -0.9461,0.791 0.5067,-0.3543 m -30.4264,20.5385 29.9197,-20.1842 m -6.7429,36.1564 -23.1768,-15.9722 m 86.6551,-16.8304 -63.4783,32.8026 m 64.0382,-33.0637 -0.5599,0.2611 m 1.1551,-0.4209 -0.5952,0.1598 m 1.2118,-0.2136 -0.6166,0.054 m 1.2296,0 -0.613,-0.054 m 1.2118,0.2137 -0.5988,-0.1599 m 1.1586,0.4209 -0.5598,-0.261 m 1.063,0.6153 -0.5032,-0.3543 m 0.9426,0.791 -0.4394,-0.4367 m 0.7937,0.9426 -0.3543,-0.5059 m 0.6129,1.0657 -0.2586,-0.5598 m 0.4216,1.1564 -0.163,-0.5966 m 0.2162,1.2119 -0.053,-0.6153 m 0,1.2306 0.053,-0.6153 m -0.2162,1.2119 0.163,-0.5966 m -0.4216,1.1563 0.2586,-0.5597 m -0.6129,1.0657 0.3543,-0.506 m -0.7937,0.9427 0.4394,-0.4367 m -0.9426,0.791 0.5032,-0.3543 m -55.2614,35.4705 54.7582,-35.1162 m -27.4004,53.9726 -27.3578,-18.8564 m 27.8645,19.2104 -0.5067,-0.354 m 0.9426,0.7908 -0.4359,-0.4368 m 0.7902,0.9428 -0.3543,-0.506 m 0.6165,1.0659 -0.2622,-0.5599 m 0.4216,1.1566 -0.1594,-0.5967 m 0.2126,1.2118 -0.053,-0.6151 m 0,1.2302 0.053,-0.6151 m -0.2126,1.2118 0.1594,-0.5967 m -0.4216,1.1565 0.2622,-0.5598 m -0.6165,1.0658 0.3543,-0.506 m -0.7902,0.9426 0.4359,-0.4366 m -0.9426,0.7909 0.5067,-0.3543 m -1.0665,0.6154 0.5598,-0.2611 m -1.1551,0.4209 0.5953,-0.1598 m -1.2118,0.2137 0.6165,-0.054 m -1.2295,0 0.613,0.054 m -1.2118,-0.2137 0.5988,0.1598 m -1.1587,-0.4209 0.5599,0.2611 m -30.5681,-14.5275 30.0082,14.2664 m -33.0413,50.71394 3.0331,-64.98034 m -3.0863,65.59544 0.053,-0.6151 m -0.2126,1.2118 0.1594,-0.5967 m -0.4216,1.1566 0.2622,-0.5599 m -0.6165,1.0655 0.3543,-0.5056 m -0.7902,0.9425 0.4359,-0.4369 m -0.9426,0.7912 0.5067,-0.3543 m -1.0665,0.6151 0.5598,-0.2608 m -1.1551,0.421 0.5953,-0.1602 m -1.2118,0.214 0.6165,-0.054 m -1.233,0 0.6165,0.054 m -1.2118,-0.214 0.5953,0.1602 m -1.1552,-0.421 0.5599,0.2608 m -1.0666,-0.6151 0.5067,0.3543 m -0.9425,-0.7912 0.4358,0.4369 m -0.7901,-0.9425 0.3543,0.5056 m -0.6165,-1.0655 0.2622,0.5599 m -0.4217,-1.1566 0.1595,0.5967 m -0.2126,-1.2118 0.053,0.6151 m -3.3838,-71.98934 3.3307,71.37424 m -28.7504,-83.45874 25.4197,12.0845 m -27.939,23.9191 2.5193,-36.0036 m -2.576,36.619 0.057,-0.6154 m -0.2161,1.2118 0.1594,-0.5964 m -0.4181,1.1562 0.2587,-0.5598 m -0.613,1.0658 0.3543,-0.506 m -0.7937,0.9425 0.4394,-0.4365 m -0.9426,0.7909 0.5032,-0.3544 m -1.063,0.6155 0.5598,-0.2611 m -1.1586,0.4209 0.5988,-0.1598 m -1.2118,0.2137 0.613,-0.054 m -1.2295,0 0.6165,0.054 m -1.2118,-0.2137 0.5953,0.1598 m -1.1552,-0.4209 0.5599,0.2611 m -1.0666,-0.6155 0.5067,0.3544 m -0.9425,-0.7909 0.4358,0.4365 m -0.7901,-0.9425 0.3543,0.506 m -0.6165,-1.0658 0.2622,0.5598 m -0.4217,-1.1565 0.1595,0.5967 m -0.2126,-1.2118 0.053,0.6151 m -2.9905,-42.5824 2.9374,41.9673 m -30.1855,-54.9195 27.2481,12.9522 m -28.389,-4.8724 1.1409,-8.0798 m -1.3003,8.6765 0.1594,-0.5967 m -0.4216,1.1562 0.2622,-0.5595 m -0.6166,1.0654 0.3544,-0.5059 m -0.7902,0.9428 0.4358,-0.4369 m -0.9425,0.7913 0.5067,-0.3544 m -1.0665,0.6152 0.5598,-0.2608 m -1.1551,0.4206 0.5953,-0.1598 m -1.2119,0.2136 0.6166,-0.054 m -1.2295,0 0.6129,0.054 m -1.2118,-0.2136 0.5989,0.1598 m -1.1587,-0.4206 0.5598,0.2608 m -1.063,-0.6152 0.5032,0.3544 m -0.9425,-0.7913 0.4393,0.4369 m -0.7937,-0.9428 0.3544,0.5059 m -0.613,-1.0654 0.2586,0.5595 m -0.4181,-1.1562 0.1595,0.5967 m -1.9701,-13.3968 1.8106,12.8001 m -19.3074,-21.1189 17.4968,8.3188 m -19.0453,10.9951 1.5485,-19.3139 m 8.635,27.2803 -10.1835,-7.9664 m 10.6193,8.403 -0.4358,-0.4366 m 0.7901,0.9426 -0.3543,-0.506 m 0.6166,1.0658 -0.2623,-0.5598 m 0.4217,1.1565 -0.1594,-0.5967 m 0.2126,1.2118 -0.053,-0.6151 m 0,1.2306 0.053,-0.6155 m -0.2126,1.2118 0.1594,-0.5963 m -0.4217,1.1562 0.2623,-0.5599 m -0.6166,1.0658 0.3543,-0.5059 m -0.7901,0.9428 0.4358,-0.4369 m -0.9425,0.7909 0.5067,-0.354 m -1.0665,0.6152 0.5598,-0.2612 m -1.1551,0.421 0.5953,-0.1598 m -1.2119,0.2136 0.6166,-0.054 m -1.2331,0 0.6165,0.054 m -1.2118,-0.2136 0.5953,0.1598 m -8.1638,-3.211 7.5685,3.0512 m -9.9744,27.0202 2.4059,-30.0714 m 32.4709,53.5989 -34.8768,-23.5275 m 35.3835,23.8818 -0.5067,-0.3543 m 0.9425,0.7912 -0.4358,-0.4369 m 0.7901,0.9429 -0.3543,-0.506 m 0.6166,1.0655 -0.2623,-0.5595 m 0.4217,1.1562 -0.1594,-0.5967 m 0.2125,1.2122 -0.053,-0.6155 m 0,1.2306 0.053,-0.6151 m -0.2125,1.2118 0.1594,-0.5967 m -0.4217,1.1565 0.2623,-0.5598 m -0.6166,1.0655 0.3543,-0.5057 m -0.7901,0.9425 0.4358,-0.4368 m -0.9425,0.7912 0.5067,-0.3544 m -1.0665,0.6152 0.5598,-0.2608 m -1.1587,0.4209 0.5989,-0.1601 m -1.2119,0.214 0.613,-0.054 m -1.2295,0 0.6165,0.054 m -1.2118,-0.214 0.5953,0.1601 m -1.1551,-0.4209 0.5598,0.2608 m -33.0023,-16.0803 32.4425,15.8195 m -34.6854,12.2371 2.2429,-28.0566 m 57.9047,66.62844 -60.1476,-38.57184 m 60.6543,38.92574 -0.5067,-0.3539 m 0.9425,0.7908 -0.4358,-0.4369 m 0.7901,0.9429 -0.3543,-0.506 m 0.613,1.0659 -0.2587,-0.5599 m 0.4217,1.1562 -0.163,-0.5963 m 0.2161,1.2118 -0.053,-0.6155 m 0,1.2306 0.053,-0.6151 m -0.2161,1.2118 0.163,-0.5967 m -0.4217,1.1565 0.2587,-0.5598 m -0.613,1.0658 0.3543,-0.506 m -0.7901,0.9425 0.4358,-0.4365 m -0.9425,0.7909 0.5067,-0.3544 m -1.0665,0.6155 0.5598,-0.2611 m -1.1587,0.4209 0.5989,-0.1598 m -1.2119,0.2137 0.613,-0.054 m -1.2295,0 0.6165,0.054 m -1.2118,-0.2137 0.5953,0.1598 m -1.1551,-0.4209 0.5598,0.2611 m -58.3512,-30.1252 57.7914,29.8641 m -60.4417,3.2588 2.6503,-33.1229 m -2.7035,33.738 0.053,-0.6151 m -0.2126,1.2118 0.1594,-0.5967 m -0.4216,1.1565 0.2622,-0.5598 m -0.6166,1.0658 0.3544,-0.506 m -0.7902,0.9425 0.4358,-0.4365 m -0.9425,0.7909 0.5067,-0.3544 m -1.0665,0.6155 0.5598,-0.2611 m -1.1551,0.4209 0.5953,-0.1598"
       inkscape:connector-curvature="0" />
    <g
       id="g11942"
       transform="matrix(0.66360279,0,0,0.66360279,9.9944683,-18.58742)">
      <path
         id="path4"
         d="M 0,0 0,570 570,570 570,0 0,0 Z"
         style="fill:#ffffff;stroke:none"
         inkscape:connector-curvature="0" />
      <path
         id="path6"
         d="M 220,24.4252 C 179.694,29.912 147.693,53.5909 118,79.9498 107.168,89.5657 94.8454,98.7141 86.865,111 c -12.8536,19.788 -17.4041,43.72 -27.1736,65 -11.1368,24.258 -26.4337,46.25 -31.267,73 -2.3953,13.257 -2.5949,26.639 -1.2539,40 0.8871,8.837 3.1843,16.999 2.7901,26 -0.6497,14.838 -5.2992,29.275 -5.9212,44 -0.4129,9.773 3.5403,18.572 5.3487,28 2.9439,15.348 3.1946,31.009 10.9244,45 10.354,18.741 30.4742,29.812 45.6481,44.17 13.5731,12.843 22.6634,31.074 39.0394,40.9 8.834,5.301 19.572,6.036 29,9.942 7.99,3.31 15.648,7.177 24,9.561 33.415,9.535 68.565,9.427 103,9.427 28.832,0 57.426,-0.062 86,-4.272 18.773,-2.765 34.456,-9.681 52,-16.303 9.407,-3.55 19.732,-5.324 28,-11.352 11.69,-8.524 20.523,-21.411 30.17,-32.073 16.416,-18.143 41.846,-31.088 53.507,-53 5.602,-10.528 6.46,-22.463 8.404,-34 1.848,-10.964 5.391,-21.842 5.88,-33 0.651,-14.885 -3.385,-29.28 -4.791,-44 -1.913,-20.017 5.013,-39.892 2.544,-60 -4.017,-32.704 -22.236,-57.776 -35.408,-87 C 498.354,151.141 494.758,126.361 481.32,109 474.332,99.9712 465.207,92.7949 457,84.9606 429.057,58.2866 392.647,29.1554 353,24.2863 c -11.707,-1.4378 -23.428,1.0033 -35,2.429 -12.339,1.5202 -24.562,2.4287 -37,2.2809 -20.253,-0.2409 -40.694,-7.3353 -61,-4.571 z"
         style="fill:none;stroke:#000000;stroke-opacity:1"
         inkscape:connector-curvature="0" />
      <path
         id="path8"
         d="m 76.0586,217.576 c -7.1557,2.16 -1.1166,8.589 2.9422,10.291 11.0135,4.617 25.2132,7.702 36.9992,9.543 4.153,0.648 10.868,1.786 14.836,-0.013 2.855,-1.295 2.397,-4.127 0.712,-6.254 -2.491,-3.144 -7.964,-6.486 -11.563,-8.225 -9.622,-4.649 -21.5654,-4.677 -31.985,-4.933 -3.8663,-0.094 -8.1473,-1.554 -11.9414,-0.409 M 498,218 c -8.507,-0.176 -16.451,-1.392 -25,-0.282 -5.429,0.705 -10.685,1.55 -16,2.912 -6.108,1.565 -13.079,3.543 -17.852,7.899 -2.543,2.322 -4.451,6.796 -0.83,9.153 4.385,2.854 11.939,0.49 16.682,-0.272 10.162,-1.632 20.299,-3.568 30,-7.105 6.284,-2.292 11.605,-5.394 13,-12.305 M 282.04,351.654 c -6.802,2.207 -8.448,12.145 -9.035,18.346 -1.689,17.839 -0.36,37.163 1.081,55 0.409,5.07 1.669,21.794 9.875,20.029 6.495,-1.397 8.768,-13.652 9.778,-19.029 3.671,-19.53 3.33,-38.296 2.226,-58 -0.446,-7.938 -3.271,-19.805 -13.925,-16.346 M 391,427 c -0.759,3.916 -2.024,7.982 -1.671,12 0.928,10.578 8.623,19.544 13.571,28.464 4.63,8.347 9.291,17.186 20.1,17.536 -0.002,-16 -5.212,-31.866 -14.44,-45 -4.309,-6.133 -9.837,-11.973 -17.56,-13 m -244,59 c 16.712,-1.723 26.706,-23.968 31.329,-38 1.593,-4.835 5.268,-14.343 0.353,-18.393 -5.781,-4.763 -13.731,4.269 -16.755,8.394 -4.08,5.566 -5.911,11.636 -8.233,17.999 -1.814,4.974 -4.933,9.904 -6.161,15 -1.148,4.765 -0.533,10.13 -0.533,15 z"
         style="fill:#ffffff;stroke:#000000;stroke-opacity:1"
         inkscape:connector-curvature="0" />
    </g>
  </g>
</svg>
