<?xml version="1.0" encoding="utf-8"?>
<!DOCTYPE svg PUBLIC "-//W3C//DTD SVG 1.0//EN" "http://www.w3.org/TR/2001/REC-SVG-20010904/DTD/svg10.dtd" [
<!ENTITY ns_svg "http://www.w3.org/2000/svg">
]>
<svg xmlns="&ns_svg;" width="960" height="672" overflow="visible">
    <g id="Layer_1">
        <rect x="0" y="0" rx="0" ry="0" width="960" height="672" fill="none" stroke="#000000"/>
        <polyline fill="none" stroke="#000000" stroke-width="1" points="  0,96 42.9473,96 42.9473,96 44.6619,96.2684 46.2126,97.0479 47.4509,98.2639 48.2584,99.8002 48.5578,101.51 48.3205,103.229 47.5693,104.794 46.3758,106.054 46.3758,106.054 44.2277,108.322 42.8754,111.138 42.4483,114.233 42.9873,117.31 44.4408,120.075 46.6697,122.264 49.4609,123.667 52.5473,124.15 55.6337,123.667 58.4249,122.264 60.6538,120.075 62.1073,117.31 62.6462,114.233 62.2191,111.138 60.8668,108.322 58.7187,106.054 58.7187,106.054 57.5253,104.794 56.774,103.229 56.5368,101.51 56.8362,99.8002 57.6437,98.2639 58.8819,97.0479 60.4326,96.2684 62.1473,96 62.1473,96 96,96 "/>
        <polyline fill="none" stroke="#000000" stroke-width="1" points="  96,96 129.677,96 129.677,96 131.118,96.2154 132.434,96.8428 133.509,97.8274 134.249,99.0832 134.59,100.501 134.502,101.956 133.992,103.321 133.105,104.478 133.105,104.478 131.509,106.561 130.591,109.019 130.432,111.638 131.046,114.189 132.378,116.45 134.313,118.222 136.681,119.351 139.277,119.739 141.872,119.351 144.24,118.222 146.175,116.45 147.507,114.189 148.121,111.638 147.962,109.019 147.044,106.561 145.448,104.478 145.448,104.478 144.561,103.321 144.051,101.956 143.963,100.501 144.304,99.0832 145.044,97.8274 146.119,96.8428 147.435,96.2154 148.877,96 148.877,96 192,96 "/>
        <polyline fill="none" stroke="#000000" stroke-width="1" points="  192,96 222.221,96 222.221,96 223.914,95.7357 225.447,94.968 226.672,93.7698 227.475,92.2552 227.778,90.5681 227.552,88.8689 226.819,87.3194 225.649,86.0667 225.649,86.0667 223.543,83.8119 222.224,81.0227 221.818,77.9642 222.363,74.9274 223.807,72.2011 226.014,70.0444 228.772,68.6625 231.821,68.1868 234.869,68.6625 237.628,70.0444 239.834,72.2011 241.278,74.9274 241.823,77.9642 241.417,81.0227 240.098,83.8119 237.992,86.0667 237.992,86.0667 236.822,87.3194 236.089,88.8689 235.864,90.5681 236.166,92.2552 236.969,93.7698 238.195,94.968 239.727,95.7357 241.421,96 241.421,96 288,96 "/>
        <polyline fill="none" stroke="#000000" stroke-width="1" points="  288,96 329.132,96 329.132,96 330.88,96.2747 332.458,97.0723 333.716,98.3158 334.531,99.8853 334.825,101.629 334.57,103.379 333.79,104.967 332.561,106.238 332.561,106.238 330.348,108.527 328.945,111.384 328.485,114.534 329.015,117.673 330.483,120.498 332.746,122.737 335.588,124.172 338.732,124.667 341.877,124.172 344.719,122.737 346.982,120.498 348.45,117.673 348.98,114.534 348.52,111.384 347.117,108.527 344.904,106.238 344.904,106.238 343.675,104.967 342.895,103.379 342.64,101.629 342.934,99.8853 343.749,98.3158 345.007,97.0723 346.585,96.2747 348.332,96 348.332,96 384,96 "/>
        <polyline fill="none" stroke="#000000" stroke-width="1" points="  384,96 424.115,96 424.115,96 425.614,96.2265 426.979,96.8857 428.088,97.9188 428.843,99.2335 429.175,100.712 429.056,102.224 428.496,103.632 427.544,104.812 427.544,104.812 425.831,106.936 424.822,109.471 424.607,112.191 425.205,114.853 426.564,117.22 428.56,119.079 431.017,120.266 433.715,120.673 436.413,120.266 438.87,119.079 440.867,117.22 442.225,114.853 442.824,112.191 442.609,109.471 441.6,106.936 439.887,104.812 439.887,104.812 438.935,103.632 438.375,102.224 438.255,100.712 438.588,99.2335 439.342,97.9188 440.451,96.8857 441.816,96.2265 443.315,96 443.315,96 480,96 "/>
        <polyline fill="none" stroke="#000000" stroke-width="1" points="  480,96 515.901,96 515.901,96 517.454,96.2369 518.865,96.9259 520.006,98.0044 520.774,99.3743 521.099,100.911 520.95,102.474 520.342,103.922 519.33,105.123 519.33,105.123 517.508,107.284 516.414,109.89 516.146,112.704 516.73,115.47 518.112,117.936 520.167,119.877 522.707,121.117 525.501,121.544 528.296,121.117 530.836,119.877 532.89,117.936 534.273,115.47 534.857,112.704 534.589,109.89 533.495,107.284 531.673,105.123 531.673,105.123 530.661,103.922 530.053,102.474 529.904,100.911 530.229,99.3743 530.996,98.0044 532.138,96.9259 533.549,96.2369 535.101,96 535.101,96 576,96 "/>
        <polyline fill="none" stroke="#000000" stroke-width="1" points="  576,96 614.791,96 614.791,96 616.441,95.7442 617.936,95.0008 619.136,93.8396 619.928,92.3697 620.237,90.729 620.035,89.0716 619.341,87.5531 618.22,86.3162 618.22,86.3162 616.201,84.0896 614.952,81.3563 614.589,78.373 615.146,75.4198 616.571,72.7739 618.73,70.6838 621.421,69.3457 624.391,68.8852 627.361,69.3457 630.052,70.6838 632.212,72.7739 633.637,75.4198 634.194,78.373 633.831,81.3563 632.581,84.0896 630.563,86.3162 630.563,86.3162 629.441,87.5531 628.747,89.0716 628.545,90.729 628.855,92.3697 629.647,93.8396 630.846,95.0008 632.341,95.7442 633.991,96 633.991,96 672,96 "/>
        <polyline fill="none" stroke="#000000" stroke-width="1" points="  672,96 716.621,96 716.621,96 718.014,95.794 719.288,95.1937 720.333,94.2505 721.061,93.045 721.409,91.6805 721.347,90.2738 720.881,88.9451 720.05,87.8083 720.05,87.8083 718.476,85.6112 717.656,83.0363 717.67,80.3341 718.515,77.7674 720.11,75.5859 722.299,74.0018 724.87,73.1693 727.572,73.1693 730.143,74.0018 732.332,75.5859 733.927,77.7674 734.772,80.3341 734.786,83.0363 733.966,85.6112 732.392,87.8083 732.392,87.8083 731.561,88.9451 731.095,90.2738 731.033,91.6805 731.381,93.045 732.109,94.2505 733.154,95.1937 734.428,95.794 735.821,96 735.821,96 768,96 "/>
        <polyline fill="none" stroke="#000000" stroke-width="1" points="  768,96 798.123,96 798.123,96 799.568,96.216 800.886,96.8451 801.963,97.8322 802.704,99.0911 803.044,100.512 802.954,101.97 802.442,103.338 801.552,104.496 801.552,104.496 799.949,106.581 799.027,109.043 798.865,111.667 799.478,114.224 800.811,116.49 802.749,118.267 805.123,119.4 807.723,119.788 810.323,119.4 812.697,118.267 814.635,116.49 815.968,114.224 816.581,111.667 816.419,109.043 815.497,106.581 813.894,104.496 813.894,104.496 813.004,103.338 812.492,101.97 812.402,100.512 812.742,99.0911 813.483,97.8322 814.56,96.8451 815.878,96.216 817.323,96 817.323,96 864,96 "/>
        <polyline fill="none" stroke="#000000" stroke-width="1" points="  864,96 906.673,96 906.673,96 908.241,96.2399 909.666,96.9377 910.816,98.0295 911.588,99.4154 911.91,100.969 911.753,102.547 911.131,104.007 910.101,105.213 910.101,105.213 908.248,107.385 907.128,110.012 906.846,112.853 907.425,115.649 908.814,118.144 910.886,120.109 913.45,121.365 916.273,121.797 919.095,121.365 921.66,120.109 923.731,118.144 925.12,115.649 925.7,112.853 925.417,110.012 924.298,107.385 922.444,105.213 922.444,105.213 921.414,104.007 920.793,102.547 920.636,100.969 920.958,99.4154 921.729,98.0295 922.88,96.9377 924.305,96.2399 925.873,96 925.873,96 960,96 "/>
        <polyline fill="none" stroke="#000000" stroke-width="1" points="  0,192 38.5087,192 38.5087,192 40.1297,191.75 41.5998,191.023 42.7823,189.886 43.567,188.446 43.881,186.836 43.695,185.206 43.0263,183.708 41.9373,182.482 41.9373,182.482 39.9769,180.275 38.7733,177.579 38.4386,174.645 39.0037,171.748 40.4163,169.155 42.5447,167.109 45.1909,165.8 48.1087,165.35 51.0265,165.8 53.6727,167.109 55.8011,169.155 57.2137,171.748 57.7788,174.645 57.444,177.579 56.2405,180.275 54.2801,182.482 54.2801,182.482 53.191,183.708 52.5224,185.206 52.3364,186.836 52.6504,188.446 53.4351,189.886 54.6176,191.023 56.0877,191.75 57.7087,192 57.7087,192 96,192 "/>
        <polyline fill="none" stroke="#000000" stroke-width="1" points="  96,192 131.225,192 131.225,192 132.936,191.732 134.483,190.955 135.719,189.743 136.525,188.211 136.825,186.506 136.59,184.79 135.842,183.229 134.654,181.97 134.654,181.97 132.514,179.705 131.168,176.894 130.745,173.806 131.285,170.737 132.737,167.979 134.962,165.797 137.746,164.398 140.825,163.916 143.904,164.398 146.689,165.797 148.913,167.979 150.365,170.737 150.905,173.806 150.482,176.894 149.136,179.705 146.997,181.97 146.997,181.97 145.808,183.229 145.06,184.79 144.825,186.506 145.125,188.211 145.932,189.743 147.168,190.955 148.715,191.732 150.425,192 150.425,192 192,192 "/>
        <polyline fill="none" stroke="#000000" stroke-width="1" points="  192,192 226.77,192 226.77,192 228.486,191.732 230.037,190.952 231.275,189.735 232.083,188.199 232.382,186.489 232.145,184.769 231.393,183.204 230.199,181.944 230.199,181.944 228.05,179.675 226.697,176.859 226.27,173.763 226.808,170.686 228.262,167.919 230.491,165.73 233.283,164.326 236.37,163.843 239.458,164.326 242.249,165.73 244.479,167.919 245.932,170.686 246.471,173.763 246.044,176.859 244.691,179.675 242.542,181.944 242.542,181.944 241.348,183.204 240.596,184.769 240.359,186.489 240.658,188.199 241.466,189.735 242.704,190.952 244.255,191.732 245.97,192 245.97,192 288,192 "/>
        <polyline fill="none" stroke="#000000" stroke-width="1" points="  288,192 333.777,192 333.777,192 335.524,191.725 337.102,190.928 338.359,189.684 339.175,188.115 339.469,186.372 339.214,184.622 338.434,183.034 337.205,181.763 337.205,181.763 334.993,179.475 333.59,176.618 333.131,173.468 333.66,170.329 335.128,167.504 337.391,165.266 340.232,163.831 343.377,163.337 346.521,163.831 349.362,165.266 351.626,167.504 353.093,170.329 353.623,173.468 353.164,176.618 351.761,179.475 349.548,181.763 349.548,181.763 348.319,183.034 347.539,184.622 347.284,186.372 347.579,188.115 348.394,189.684 349.651,190.928 351.23,191.725 352.977,192 352.977,192 384,192 "/>
        <polyline fill="none" stroke="#000000" stroke-width="1" points="  384,192 424.303,192 424.303,192 425.734,191.787 427.041,191.165 428.11,190.189 428.848,188.943 429.19,187.537 429.107,186.092 428.606,184.734 427.731,183.581 427.731,183.581 426.156,181.506 425.254,179.061 425.105,176.46 425.721,173.929 427.049,171.687 428.973,169.93 431.326,168.811 433.903,168.427 436.48,168.811 438.832,169.93 440.756,171.687 442.084,173.929 442.7,176.46 442.551,179.061 441.649,181.506 440.074,183.581 440.074,183.581 439.199,184.734 438.698,186.092 438.615,187.537 438.957,188.943 439.695,190.189 440.764,191.165 442.071,191.787 443.503,192 443.503,192 480,192 "/>
        <polyline fill="none" stroke="#000000" stroke-width="1" points="  480,192 522.037,192 522.037,192 523.485,192.217 524.805,192.847 525.884,193.837 526.625,195.098 526.965,196.522 526.874,197.983 526.359,199.353 525.466,200.512 525.466,200.512 523.858,202.599 522.931,205.065 522.766,207.694 523.378,210.257 524.713,212.528 526.654,214.309 529.032,215.444 531.637,215.834 534.243,215.444 536.62,214.309 538.561,212.528 539.896,210.257 540.508,207.694 540.343,205.065 539.416,202.599 537.808,200.512 537.808,200.512 536.915,199.353 536.4,197.983 536.309,196.522 536.649,195.098 537.39,193.837 538.469,192.847 539.79,192.217 541.237,192 541.237,192 576,192 "/>
        <polyline fill="none" stroke="#000000" stroke-width="1" points="  576,192 613.409,192 613.409,192 615.096,192.263 616.623,193.027 617.845,194.22 618.646,195.728 618.95,197.408 618.728,199.101 618.001,200.646 616.838,201.897 616.838,201.897 614.745,204.147 613.436,206.928 613.036,209.976 613.583,213 615.024,215.715 617.224,217.862 619.973,219.237 623.009,219.711 626.046,219.237 628.795,217.862 630.994,215.715 632.436,213 632.982,209.976 632.582,206.928 631.274,204.147 629.181,201.897 629.181,201.897 628.018,200.646 627.291,199.101 627.069,197.408 627.372,195.728 628.173,194.22 629.395,193.027 630.922,192.263 632.609,192 632.609,192 672,192 "/>
        <polyline fill="none" stroke="#000000" stroke-width="1" points="  672,192 703.248,192 703.248,192 704.742,192.226 706.104,192.882 707.21,193.912 707.964,195.222 708.297,196.696 708.18,198.203 707.623,199.608 706.676,200.787 706.676,200.787 704.972,202.907 703.97,205.437 703.76,208.149 704.359,210.803 705.715,213.161 707.707,215.014 710.158,216.197 712.848,216.603 715.538,216.197 717.988,215.014 719.98,213.161 721.336,210.803 721.936,208.149 721.725,205.437 720.723,202.907 719.019,200.787 719.019,200.787 718.072,199.608 717.516,198.203 717.399,196.696 717.732,195.222 718.485,193.912 719.592,192.882 720.953,192.226 722.448,192 722.448,192 768,192 "/>
        <polyline fill="none" stroke="#000000" stroke-width="1" points="  768,192 800.803,192 800.803,192 802.257,191.782 803.583,191.148 804.665,190.153 805.408,188.885 805.747,187.455 805.653,185.988 805.132,184.613 804.232,183.451 804.232,183.451 802.611,181.36 801.674,178.885 801.503,176.245 802.113,173.67 803.451,171.387 805.399,169.596 807.786,168.455 810.403,168.063 813.02,168.455 815.407,169.596 817.355,171.387 818.693,173.67 819.303,176.245 819.132,178.885 818.195,181.36 816.574,183.451 816.574,183.451 815.674,184.613 815.153,185.988 815.059,187.455 815.398,188.885 816.141,190.153 817.223,191.148 818.549,191.782 820.003,192 820.003,192 864,192 "/>
        <polyline fill="none" stroke="#000000" stroke-width="1" points="  864,192 911.806,192 911.806,192 913.28,191.778 914.624,191.133 915.719,190.121 916.467,188.831 916.803,187.379 916.697,185.892 916.158,184.502 915.235,183.332 915.235,183.332 913.572,181.225 912.602,178.723 912.412,176.047 913.016,173.432 914.364,171.112 916.334,169.29 918.752,168.128 921.406,167.729 924.06,168.128 926.478,169.29 928.449,171.112 929.796,173.432 930.401,176.047 930.21,178.723 929.24,181.225 927.577,183.332 927.577,183.332 926.654,184.502 926.115,185.892 926.009,187.379 926.345,188.831 927.094,190.121 928.188,191.133 929.532,191.778 931.006,192 931.006,192 960,192 "/>
        <polyline fill="none" stroke="#000000" stroke-width="1" points="  0,288 39.6375,288 39.6375,288 41.262,288.251 42.7352,288.98 43.9198,290.12 44.7054,291.564 45.0189,293.177 44.8309,294.81 44.1591,296.311 43.0661,297.538 43.0661,297.538 41.0985,299.748 39.8893,302.449 39.551,305.388 40.1152,308.293 41.5293,310.892 43.6616,312.943 46.3133,314.256 49.2375,314.707 52.1617,314.256 54.8134,312.943 56.9457,310.892 58.3598,308.293 58.924,305.388 58.5857,302.449 57.3764,299.748 55.4089,297.538 55.4089,297.538 54.3159,296.311 53.6441,294.81 53.4561,293.177 53.7696,291.564 54.5552,290.12 55.7398,288.98 57.2129,288.251 58.8375,288 58.8375,288 96,288 "/>
        <polyline fill="none" stroke="#000000" stroke-width="1" points="  96,288 143.757,288 143.757,288 145.512,288.276 147.098,289.078 148.36,290.329 149.177,291.907 149.47,293.659 149.211,295.417 148.424,297.01 147.186,298.284 147.186,298.284 144.957,300.578 143.54,303.446 143.073,306.61 143.6,309.764 145.071,312.604 147.344,314.855 150.198,316.299 153.357,316.796 156.516,316.299 159.37,314.855 161.643,312.604 163.114,309.764 163.641,306.61 163.174,303.446 161.757,300.578 159.528,298.284 159.528,298.284 158.29,297.01 157.503,295.417 157.244,293.659 157.537,291.907 158.354,290.329 159.616,289.078 161.202,288.276 162.957,288 162.957,288 192,288 "/>
        <polyline fill="none" stroke="#000000" stroke-width="1" points="  192,288 238.775,288 238.775,288 240.207,287.786 241.515,287.164 242.584,286.188 243.322,284.941 243.664,283.534 243.581,282.089 243.079,280.73 242.203,279.577 242.203,279.577 240.627,277.501 239.724,275.056 239.574,272.453 240.19,269.92 241.518,267.677 243.443,265.92 245.797,264.8 248.375,264.415 250.953,264.8 253.307,265.92 255.232,267.677 256.56,269.92 257.176,272.453 257.026,275.056 256.123,277.501 254.546,279.577 254.546,279.577 253.67,280.73 253.169,282.089 253.086,283.534 253.428,284.941 254.166,286.188 255.235,287.164 256.543,287.786 257.975,288 257.975,288 288,288 "/>
        <polyline fill="none" stroke="#000000" stroke-width="1" points="  288,288 327.379,288 327.379,288 329.137,288.277 330.725,289.081 331.989,290.333 332.807,291.914 333.099,293.67 332.838,295.43 332.049,297.025 330.807,298.301 330.807,298.301 328.572,300.596 327.151,303.467 326.681,306.636 327.208,309.796 328.68,312.642 330.956,314.897 333.814,316.344 336.979,316.842 340.143,316.344 343.002,314.897 345.277,312.642 346.749,309.796 347.276,306.636 346.806,303.467 345.385,300.596 343.15,298.301 343.15,298.301 341.908,297.025 341.119,295.43 340.858,293.67 341.15,291.914 341.968,290.333 343.232,289.081 344.82,288.277 346.579,288 346.579,288 384,288 "/>
        <polyline fill="none" stroke="#000000" stroke-width="1" points="  384,288 422.808,288 422.808,288 424.327,288.23 425.709,288.901 426.831,289.951 427.59,291.287 427.92,292.788 427.789,294.319 427.211,295.742 426.236,296.93 426.236,296.93 424.482,299.068 423.44,301.63 423.206,304.386 423.799,307.087 425.166,309.491 427.185,311.382 429.673,312.589 432.408,313.003 435.142,312.589 437.63,311.382 439.649,309.491 441.016,307.087 441.609,304.386 441.375,301.63 440.333,299.068 438.579,296.93 438.579,296.93 437.604,295.742 437.026,294.319 436.895,292.788 437.225,291.287 437.984,289.951 439.106,288.901 440.488,288.23 442.008,288 442.008,288 480,288 "/>
        <polyline fill="none" stroke="#000000" stroke-width="1" points="  480,288 525.603,288 525.603,288 527.26,288.257 528.762,289.005 529.966,290.172 530.76,291.65 531.068,293.299 530.862,294.963 530.161,296.487 529.031,297.727 529.031,297.727 526.998,299.959 525.736,302.702 525.365,305.698 525.92,308.666 527.349,311.325 529.517,313.427 532.219,314.773 535.203,315.236 538.186,314.773 540.889,313.427 543.056,311.325 544.485,308.666 545.04,305.698 544.669,302.702 543.408,299.959 541.374,297.727 541.374,297.727 540.244,296.487 539.544,294.963 539.338,293.299 539.646,291.65 540.44,290.172 541.644,289.005 543.145,288.257 544.803,288 544.803,288 576,288 "/>
        <polyline fill="none" stroke="#000000" stroke-width="1" points="  576,288 616.915,288 616.915,288 618.378,287.781 619.711,287.142 620.799,286.14 621.544,284.863 621.882,283.423 621.782,281.948 621.254,280.566 620.344,279.401 620.344,279.401 618.706,277.303 617.755,274.817 617.576,272.162 618.184,269.57 619.526,267.272 621.483,265.468 623.883,264.318 626.515,263.923 629.148,264.318 631.548,265.468 633.505,267.272 634.847,269.57 635.455,272.162 635.276,274.817 634.325,277.303 632.687,279.401 632.687,279.401 631.777,280.566 631.248,281.948 631.149,283.423 631.487,284.863 632.232,286.14 633.319,287.142 634.653,287.781 636.115,288 636.115,288 672,288 "/>
        <polyline fill="none" stroke="#000000" stroke-width="1" points="  672,288 718.905,288 718.905,288 720.64,288.272 722.208,289.063 723.458,290.296 724.27,291.853 724.567,293.584 724.318,295.323 723.549,296.902 722.333,298.169 722.333,298.169 720.145,300.45 718.76,303.292 718.313,306.421 718.846,309.537 720.309,312.339 722.559,314.559 725.382,315.983 728.505,316.473 731.627,315.983 734.45,314.559 736.701,312.339 738.163,309.537 738.696,306.421 738.249,303.292 736.865,300.45 734.676,298.169 734.676,298.169 733.46,296.902 732.691,295.323 732.443,293.584 732.739,291.853 733.551,290.296 734.802,289.063 736.37,288.272 738.105,288 738.105,288 768,288 "/>
        <polyline fill="none" stroke="#000000" stroke-width="1" points="  768,288 811.306,288 811.306,288 812.841,288.233 814.237,288.913 815.367,289.976 816.131,291.328 816.458,292.846 816.319,294.392 815.727,295.827 814.734,297.021 814.734,297.021 812.948,299.17 811.882,301.753 811.632,304.536 812.22,307.268 813.595,309.701 815.63,311.615 818.143,312.838 820.906,313.258 823.668,312.838 826.181,311.615 828.217,309.701 829.591,307.268 830.18,304.536 829.93,301.753 828.863,299.17 827.077,297.021 827.077,297.021 826.085,295.827 825.492,294.392 825.353,292.846 825.681,291.328 826.444,289.976 827.575,288.913 828.971,288.233 830.506,288 830.506,288 864,288 "/>
        <polyline fill="none" stroke="#000000" stroke-width="1" points="  864,288 894.688,288 894.688,288 896.262,288.241 897.692,288.942 898.846,290.039 899.62,291.431 899.941,292.991 899.78,294.575 899.153,296.039 898.117,297.248 898.117,297.248 896.251,299.424 895.122,302.059 894.833,304.911 895.411,307.718 896.803,310.224 898.881,312.199 901.455,313.461 904.288,313.895 907.121,313.461 909.695,312.199 911.773,310.224 913.165,307.718 913.743,304.911 913.454,302.059 912.325,299.424 910.459,297.248 910.459,297.248 909.423,296.039 908.796,294.575 908.635,292.991 908.956,291.431 909.73,290.039 910.884,288.942 912.314,288.241 913.888,288 913.888,288 960,288 "/>
        <polyline fill="none" stroke="#000000" stroke-width="1" points="  0,384 44.1932,384 44.1932,384 45.8801,384.263 47.4069,385.027 48.6286,386.219 49.4294,387.727 49.7332,389.407 49.5111,391.1 48.7843,392.645 47.6218,393.895 47.6218,393.895 45.5292,396.146 44.221,398.926 43.8213,401.973 44.3681,404.997 45.8095,407.711 48.0086,409.858 50.7568,411.233 53.7932,411.707 56.8296,411.233 59.5778,409.858 61.7769,407.711 63.2183,404.997 63.7651,401.973 63.3654,398.926 62.0572,396.146 59.9646,393.895 59.9646,393.895 58.8021,392.645 58.0753,391.1 57.8532,389.407 58.157,387.727 58.9578,386.219 60.1795,385.027 61.7063,384.263 63.3932,384 63.3932,384 96,384 "/>
        <polyline fill="none" stroke="#000000" stroke-width="1" points="  96,384 131.204,384 131.204,384 132.886,383.738 134.41,382.976 135.629,381.787 136.429,380.283 136.733,378.607 136.513,376.918 135.79,375.376 134.632,374.128 134.632,374.128 132.548,371.88 131.246,369.104 130.85,366.064 131.398,363.048 132.837,360.341 135.032,358.201 137.774,356.829 140.804,356.357 143.833,356.829 146.575,358.201 148.77,360.341 150.209,363.048 150.757,366.064 150.361,369.104 149.06,371.88 146.975,374.128 146.975,374.128 145.817,375.376 145.094,376.918 144.874,378.607 145.178,380.283 145.978,381.787 147.197,382.976 148.721,383.738 150.404,384 150.404,384 192,384 "/>
        <polyline fill="none" stroke="#000000" stroke-width="1" points="  192,384 233.519,384 233.519,384 234.923,384.208 236.206,384.814 237.258,385.767 237.989,386.983 238.335,388.359 238.267,389.777 237.791,391.113 236.948,392.255 236.948,392.255 235.351,394.461 234.514,397.052 234.517,399.775 235.361,402.364 236.964,404.566 239.168,406.165 241.758,407.006 244.481,407.006 247.071,406.165 249.275,404.566 250.877,402.364 251.721,399.775 251.725,397.052 250.887,394.461 249.291,392.255 249.291,392.255 248.447,391.113 247.972,389.777 247.904,388.359 248.25,386.983 248.981,385.767 250.033,384.814 251.316,384.208 252.719,384 252.719,384 288,384 "/>
        <polyline fill="none" stroke="#000000" stroke-width="1" points="  288,384 330.408,384 330.408,384 332.017,384.248 333.478,384.969 334.653,386.096 335.435,387.524 335.751,389.122 335.571,390.74 334.913,392.23 333.837,393.452 333.837,393.452 331.899,395.652 330.714,398.332 330.391,401.246 330.959,404.121 332.367,406.692 334.483,408.721 337.111,410.018 340.008,410.465 342.905,410.018 345.533,408.721 347.649,406.692 349.057,404.121 349.625,401.246 349.302,398.332 348.117,395.652 346.179,393.452 346.179,393.452 345.103,392.23 344.445,390.74 344.265,389.122 344.581,387.524 345.363,386.096 346.538,384.969 347.999,384.248 349.608,384 349.608,384 384,384 "/>
        <polyline fill="none" stroke="#000000" stroke-width="1" points="  384,384 427.408,384 427.408,384 428.876,384.221 430.215,384.863 431.305,385.869 432.052,387.152 432.389,388.598 432.287,390.079 431.753,391.465 430.837,392.632 430.837,392.632 429.187,394.734 428.227,397.228 428.042,399.893 428.649,402.496 429.993,404.805 431.957,406.618 434.366,407.773 437.008,408.17 439.651,407.773 442.06,406.618 444.023,404.805 445.368,402.496 445.974,399.893 445.789,397.228 444.83,394.734 443.18,392.632 443.18,392.632 442.263,391.465 441.73,390.079 441.627,388.598 441.964,387.152 442.711,385.869 443.802,384.863 445.14,384.221 446.608,384 446.608,384 480,384 "/>
        <polyline fill="none" stroke="#000000" stroke-width="1" points="  480,384 521.282,384 521.282,384 522.953,384.26 524.466,385.015 525.679,386.194 526.475,387.685 526.782,389.349 526.568,391.026 525.856,392.56 524.711,393.804 524.711,393.804 522.65,396.044 521.367,398.805 520.983,401.824 521.535,404.818 522.969,407.502 525.151,409.625 527.875,410.984 530.882,411.452 533.89,410.984 536.613,409.625 538.796,407.502 540.23,404.818 540.781,401.824 540.397,398.805 539.114,396.044 537.054,393.804 537.054,393.804 535.909,392.56 535.196,391.026 534.983,389.349 535.289,387.685 536.086,386.194 537.298,385.015 538.811,384.26 540.482,384 540.482,384 576,384 "/>
        <polyline fill="none" stroke="#000000" stroke-width="1" points="  576,384 613.701,384 613.701,384 615.136,384.214 616.446,384.838 617.516,385.817 618.255,387.065 618.597,388.475 618.512,389.924 618.008,391.284 617.129,392.439 617.129,392.439 615.547,394.516 614.64,396.965 614.488,399.572 615.103,402.11 616.432,404.358 618.36,406.12 620.718,407.243 623.301,407.628 625.884,407.243 628.241,406.12 630.169,404.358 631.498,402.11 632.114,399.572 631.961,396.965 631.054,394.516 629.472,392.439 629.472,392.439 628.593,391.284 628.089,389.924 628.005,388.475 628.346,387.065 629.085,385.817 630.156,384.838 631.466,384.214 632.901,384 632.901,384 672,384 "/>
        <polyline fill="none" stroke="#000000" stroke-width="1" points="  672,384 709.423,384 709.423,384 710.853,383.787 712.158,383.166 713.226,382.192 713.963,380.949 714.305,379.545 714.224,378.102 713.725,376.746 712.852,375.594 712.852,375.594 711.281,373.52 710.383,371.078 710.236,368.481 710.853,365.954 712.179,363.716 714.101,361.962 716.45,360.845 719.023,360.462 721.596,360.845 723.946,361.962 725.868,363.716 727.194,365.954 727.811,368.481 727.664,371.078 726.766,373.52 725.195,375.594 725.195,375.594 724.322,376.746 723.823,378.102 723.741,379.545 724.084,380.949 724.821,382.192 725.889,383.166 727.194,383.787 728.623,384 728.623,384 768,384 "/>
        <polyline fill="none" stroke="#000000" stroke-width="1" points="  768,384 799.462,384 799.462,384 800.953,384.225 802.311,384.88 803.416,385.906 804.168,387.212 804.502,388.682 804.387,390.186 803.833,391.588 802.891,392.765 802.891,392.765 801.194,394.883 800.198,397.407 799.991,400.113 800.592,402.759 801.947,405.111 803.935,406.958 806.379,408.137 809.062,408.541 811.746,408.137 814.19,406.958 816.178,405.111 817.533,402.759 818.133,400.113 817.926,397.407 816.93,394.883 815.234,392.765 815.234,392.765 814.291,391.588 813.738,390.186 813.623,388.682 813.957,387.212 814.709,385.906 815.814,384.88 817.172,384.225 818.662,384 818.662,384 864,384 "/>
        <polyline fill="none" stroke="#000000" stroke-width="1" points="  864,384 909.617,384 909.617,384 911.273,383.743 912.773,382.996 913.976,381.83 914.769,380.355 915.078,378.708 914.873,377.045 914.173,375.522 913.046,374.283 913.046,374.283 911.016,372.053 909.757,369.312 909.388,366.319 909.944,363.355 911.371,360.698 913.537,358.6 916.237,357.256 919.217,356.793 922.197,357.256 924.897,358.6 927.063,360.698 928.49,363.355 929.046,366.319 928.677,369.312 927.418,372.053 925.388,374.283 925.388,374.283 924.261,375.522 923.561,377.045 923.356,378.708 923.665,380.355 924.458,381.83 925.661,382.996 927.161,383.743 928.817,384 928.817,384 960,384 "/>
        <polyline fill="none" stroke="#000000" stroke-width="1" points="  0,480 45.0746,480 45.0746,480 46.8438,479.721 48.4412,478.911 49.7118,477.649 50.5324,476.057 50.8232,474.29 50.5561,472.519 49.7569,470.916 48.5032,469.637 48.5032,469.637 46.2466,467.335 44.8081,464.45 44.3272,461.262 44.8507,458.081 46.3277,455.215 48.6149,452.943 51.4902,451.486 54.6746,450.983 57.8591,451.486 60.7344,452.943 63.0216,455.215 64.4986,458.081 65.0221,461.262 64.5412,464.45 63.1027,467.335 60.8461,469.637 60.8461,469.637 59.5924,470.916 58.7932,472.519 58.5261,474.29 58.8169,476.057 59.6374,477.649 60.9081,478.911 62.5055,479.721 64.2746,480 64.2746,480 96,480 "/>
        <polyline fill="none" stroke="#000000" stroke-width="1" points="  96,480 132.315,480 132.315,480 133.912,479.754 135.362,479.041 136.53,477.924 137.309,476.509 137.626,474.924 137.454,473.318 136.806,471.837 135.744,470.62 135.744,470.62 133.832,468.428 132.666,465.764 132.355,462.872 132.927,460.02 134.329,457.472 136.432,455.463 139.041,454.178 141.915,453.736 144.79,454.178 147.399,455.463 149.502,457.472 150.904,460.02 151.475,462.872 151.164,465.764 149.999,468.428 148.087,470.62 148.087,470.62 147.025,471.837 146.377,473.318 146.204,474.924 146.522,476.509 147.301,477.924 148.469,479.041 149.918,479.754 151.515,480 151.515,480 192,480 "/>
        <polyline fill="none" stroke="#000000" stroke-width="1" points="  192,480 233.721,480 233.721,480 235.16,480.215 236.472,480.84 237.545,481.822 238.285,483.074 238.626,484.488 238.54,485.939 238.033,487.303 237.15,488.458 237.15,488.458 235.561,490.538 234.649,492.992 234.493,495.605 235.107,498.149 236.438,500.403 238.369,502.17 240.732,503.296 243.321,503.683 245.91,503.296 248.273,502.17 250.205,500.403 251.535,498.149 252.15,495.605 251.994,492.992 251.082,490.538 249.493,488.458 249.493,488.458 248.61,487.303 248.103,485.939 248.017,484.488 248.358,483.074 249.097,481.822 250.17,480.84 251.483,480.215 252.921,480 252.921,480 288,480 "/>
        <polyline fill="none" stroke="#000000" stroke-width="1" points="  288,480 334.2,480 334.2,480 335.82,480.25 337.289,480.977 338.471,482.113 339.256,483.552 339.57,485.161 339.384,486.79 338.716,488.287 337.628,489.514 337.628,489.514 335.669,491.721 334.467,494.415 334.133,497.347 334.698,500.244 336.111,502.835 338.238,504.88 340.883,506.188 343.8,506.638 346.716,506.188 349.361,504.88 351.489,502.835 352.901,500.244 353.466,497.347 353.132,494.415 351.93,491.721 349.971,489.514 349.971,489.514 348.883,488.287 348.215,486.79 348.029,485.161 348.343,483.552 349.128,482.113 350.31,480.977 351.779,480.25 353.4,480 353.4,480 384,480 "/>
        <polyline fill="none" stroke="#000000" stroke-width="1" points="  384,480 428.582,480 428.582,480 430.194,480.248 431.655,480.97 432.832,482.098 433.614,483.529 433.93,485.128 433.749,486.748 433.089,488.239 432.011,489.461 432.011,489.461 430.07,491.662 428.883,494.346 428.557,497.262 429.125,500.141 430.534,502.715 432.651,504.746 435.282,506.045 438.182,506.492 441.083,506.045 443.714,504.746 445.831,502.715 447.24,500.141 447.807,497.262 447.482,494.346 446.294,491.662 444.354,489.461 444.354,489.461 443.276,488.239 442.616,486.748 442.435,485.128 442.751,483.529 443.533,482.098 444.71,480.97 446.171,480.248 447.782,480 447.782,480 480,480 "/>
        <polyline fill="none" stroke="#000000" stroke-width="1" points="  480,480 519.097,480 519.097,480 520.637,479.765 522.038,479.083 523.172,478.015 523.937,476.657 524.263,475.133 524.121,473.582 523.524,472.142 522.525,470.946 522.525,470.946 520.727,468.793 519.652,466.203 519.396,463.41 519.984,460.667 521.36,458.223 523.402,456.3 525.924,455.072 528.697,454.65 531.469,455.072 533.991,456.3 536.033,458.223 537.41,460.667 537.997,463.41 537.741,466.203 536.666,468.793 534.868,470.946 534.868,470.946 533.869,472.142 533.272,473.582 533.13,475.133 533.456,476.657 534.221,478.015 535.355,479.083 536.756,479.765 538.297,480 538.297,480 576,480 "/>
        <polyline fill="none" stroke="#000000" stroke-width="1" points="  576,480 612.858,480 612.858,480 614.456,479.754 615.905,479.04 617.074,477.924 617.853,476.507 618.17,474.923 617.997,473.316 617.349,471.835 616.287,470.617 616.287,470.617 614.374,468.425 613.207,465.76 612.896,462.868 613.467,460.015 614.87,457.466 616.973,455.456 619.583,454.171 622.458,453.728 625.333,454.171 627.943,455.456 630.046,457.466 631.449,460.015 632.02,462.868 631.709,465.76 630.542,468.425 628.629,470.617 628.629,470.617 627.567,471.835 626.919,473.316 626.746,474.923 627.063,476.507 627.842,477.924 629.011,479.04 630.461,479.754 632.058,480 632.058,480 672,480 "/>
        <polyline fill="none" stroke="#000000" stroke-width="1" points="  672,480 718.476,480 718.476,480 719.969,480.225 721.33,480.882 722.436,481.91 723.189,483.22 723.522,484.693 723.406,486.199 722.85,487.604 721.904,488.781 721.904,488.781 720.202,490.902 719.201,493.43 718.991,496.141 719.591,498.793 720.947,501.149 722.938,503.001 725.387,504.182 728.076,504.588 730.764,504.182 733.213,503.001 735.204,501.149 736.56,498.793 737.16,496.141 736.95,493.43 735.949,490.902 734.247,488.781 734.247,488.781 733.301,487.604 732.745,486.199 732.629,484.693 732.962,483.22 733.715,481.91 734.821,480.882 736.182,480.225 737.676,480 737.676,480 768,480 "/>
        <polyline fill="none" stroke="#000000" stroke-width="1" points="  768,480 804.046,480 804.046,480 805.79,479.726 807.366,478.93 808.622,477.689 809.437,476.123 809.731,474.382 809.478,472.635 808.701,471.049 807.475,469.779 807.475,469.779 805.268,467.492 803.869,464.639 803.413,461.494 803.944,458.36 805.41,455.541 807.67,453.307 810.507,451.875 813.646,451.381 816.786,451.875 819.622,453.307 821.883,455.541 823.349,458.36 823.88,461.494 823.423,464.639 822.024,467.492 819.818,469.779 819.818,469.779 818.592,471.049 817.815,472.635 817.561,474.382 817.856,476.123 818.67,477.689 819.926,478.93 821.502,479.726 823.246,480 823.246,480 864,480 "/>
        <polyline fill="none" stroke="#000000" stroke-width="1" points="  864,480 905.293,480 905.293,480 906.928,479.747 908.41,479.012 909.601,477.864 910.389,476.409 910.701,474.784 910.507,473.141 909.826,471.633 908.722,470.402 908.722,470.402 906.733,468.185 905.507,465.471 905.159,462.514 905.72,459.589 907.139,456.971 909.282,454.904 911.95,453.581 914.893,453.125 917.836,453.581 920.504,454.904 922.647,456.971 924.066,459.589 924.627,462.514 924.279,465.471 923.053,468.185 921.064,470.402 921.064,470.402 919.96,471.633 919.279,473.141 919.085,474.784 919.397,476.409 920.185,477.864 921.376,479.012 922.858,479.747 924.493,480 924.493,480 960,480 "/>
        <polyline fill="none" stroke="#000000" stroke-width="1" points="  0,576 47.7639,576 47.7639,576 49.1889,575.788 50.4903,575.17 51.5552,574.199 52.2911,572.961 52.6344,571.562 52.5551,570.123 52.0601,568.77 51.1925,567.62 51.1925,567.62 49.6308,565.55 48.7399,563.114 48.5972,560.525 49.215,558.006 50.5397,555.777 52.4565,554.03 54.7989,552.917 57.3639,552.536 59.9289,552.917 62.2714,554.03 64.1882,555.777 65.5129,558.006 66.1307,560.525 65.988,563.114 65.0971,565.55 63.5354,567.62 63.5354,567.62 62.6677,568.77 62.1728,570.123 62.0935,571.562 62.4367,572.961 63.1727,574.199 64.2376,575.17 65.5389,575.788 66.9639,576 66.9639,576 96,576 "/>
        <polyline fill="none" stroke="#000000" stroke-width="1" points="  96,576 125.105,576 125.105,576 126.813,575.733 128.358,574.957 129.592,573.747 130.398,572.217 130.699,570.515 130.465,568.802 129.72,567.242 128.534,565.984 128.534,565.984 126.399,563.72 125.057,560.912 124.636,557.829 125.177,554.764 126.628,552.011 128.849,549.832 131.63,548.436 134.705,547.955 137.78,548.436 140.56,549.832 142.782,552.011 144.233,554.764 144.774,557.829 144.353,560.912 143.011,563.72 140.876,565.984 140.876,565.984 139.69,567.242 138.945,568.802 138.711,570.515 139.012,572.217 139.818,573.747 141.052,574.957 142.597,575.733 144.305,576 144.305,576 192,576 "/>
        <polyline fill="none" stroke="#000000" stroke-width="1" points="  192,576 231.074,576 231.074,576 232.484,575.791 233.774,575.18 234.83,574.222 235.562,572.998 235.908,571.614 235.836,570.19 235.354,568.848 234.502,567.703 234.502,567.703 232.97,565.644 232.102,563.228 231.973,560.663 232.594,558.173 233.912,555.97 235.814,554.244 238.134,553.146 240.674,552.769 243.213,553.146 245.534,554.244 247.435,555.97 248.753,558.173 249.375,560.663 249.246,563.228 248.378,565.644 246.845,567.703 246.845,567.703 245.994,568.848 245.511,570.19 245.44,571.614 245.785,572.998 246.517,574.222 247.574,575.18 248.863,575.791 250.274,576 250.274,576 288,576 "/>
        <polyline fill="none" stroke="#000000" stroke-width="1" points="  288,576 323.828,576 323.828,576 325.541,575.732 327.091,574.953 328.328,573.738 329.136,572.203 329.435,570.495 329.199,568.777 328.449,567.213 327.257,565.954 327.257,565.954 325.111,563.686 323.761,560.872 323.335,557.78 323.874,554.705 325.327,551.942 327.555,549.755 330.344,548.353 333.428,547.871 336.512,548.353 339.301,549.755 341.529,551.942 342.982,554.705 343.521,557.78 343.095,560.872 341.745,563.686 339.599,565.954 339.599,565.954 338.407,567.213 337.657,568.777 337.421,570.495 337.72,572.203 338.528,573.738 339.765,574.953 341.315,575.732 343.028,576 343.028,576 384,576 "/>
        <polyline fill="none" stroke="#000000" stroke-width="1" points="  384,576 416.736,576 416.736,576 418.188,576.217 419.513,576.851 420.594,577.844 421.337,579.111 421.676,580.539 421.582,582.005 421.063,583.378 420.164,584.539 420.164,584.539 418.547,586.63 417.613,589.102 417.443,591.739 418.054,594.311 419.391,596.591 421.337,598.379 423.722,599.519 426.336,599.91 428.95,599.519 431.334,598.379 433.281,596.591 434.618,594.311 435.228,591.739 435.059,589.102 434.125,586.63 432.507,584.539 432.507,584.539 431.609,583.378 431.09,582.005 430.996,580.539 431.335,579.111 432.078,577.844 433.159,576.851 434.484,576.217 435.936,576 435.936,576 480,576 "/>
        <polyline fill="none" stroke="#000000" stroke-width="1" points="  480,576 514.637,576 514.637,576 516.095,576.219 517.426,576.856 518.511,577.855 519.256,579.128 519.594,580.564 519.496,582.036 518.971,583.414 518.065,584.578 518.065,584.578 516.434,586.673 515.489,589.154 515.314,591.803 515.923,594.388 517.263,596.68 519.216,598.478 521.611,599.625 524.237,600.018 526.862,599.625 529.257,598.478 531.211,596.68 532.551,594.388 533.16,591.803 532.984,589.154 532.039,586.673 530.408,584.578 530.408,584.578 529.502,583.414 528.977,582.036 528.88,580.564 529.218,579.128 529.962,577.855 531.048,576.856 532.378,576.219 533.837,576 533.837,576 576,576 "/>
        <polyline fill="none" stroke="#000000" stroke-width="1" points="  576,576 616.441,576 616.441,576 618.049,575.752 619.508,575.032 620.682,573.907 621.464,572.48 621.78,570.884 621.601,569.267 620.944,567.778 619.869,566.557 619.869,566.557 617.935,564.358 616.752,561.679 616.43,558.768 616.999,555.895 618.406,553.327 620.52,551.3 623.146,550.004 626.041,549.559 628.935,550.004 631.561,551.3 633.676,553.327 635.083,555.895 635.651,558.768 635.329,561.679 634.146,564.358 632.212,566.557 632.212,566.557 631.138,567.778 630.48,569.267 630.302,570.884 630.618,572.48 631.399,573.907 632.574,575.032 634.033,575.752 635.641,576 635.641,576 672,576 "/>
        <polyline fill="none" stroke="#000000" stroke-width="1" points="  672,576 707.285,576 707.285,576 708.748,576.219 710.082,576.858 711.169,577.861 711.914,579.138 712.252,580.578 712.153,582.054 711.624,583.435 710.714,584.601 710.714,584.601 709.075,586.698 708.124,589.185 707.944,591.841 708.552,594.433 709.894,596.732 711.852,598.536 714.252,599.687 716.885,600.082 719.518,599.687 721.919,598.536 723.876,596.732 725.218,594.433 725.826,591.841 725.647,589.185 724.695,586.698 723.057,584.601 723.057,584.601 722.146,583.435 721.618,582.054 721.518,580.578 721.856,579.138 722.601,577.861 723.689,576.858 725.023,576.219 726.485,576 726.485,576 768,576 "/>
        <polyline fill="none" stroke="#000000" stroke-width="1" points="  768,576 809.833,576 809.833,576 811.604,576.279 813.203,577.09 814.475,578.354 815.296,579.948 815.586,581.718 815.318,583.491 814.517,585.095 813.261,586.375 813.261,586.375 811.001,588.678 809.559,591.566 809.076,594.757 809.599,597.942 811.077,600.811 813.366,603.086 816.245,604.546 819.433,605.049 822.621,604.546 825.499,603.086 827.789,600.811 829.267,597.942 829.789,594.757 829.307,591.566 827.865,588.678 825.604,586.375 825.604,586.375 824.348,585.095 823.547,583.491 823.279,581.718 823.569,579.948 824.39,578.354 825.662,577.09 827.261,576.279 829.033,576 829.033,576 864,576 "/>
        <polyline fill="none" stroke="#000000" stroke-width="1" points="  864,576 896.937,576 896.937,576 898.625,575.737 900.153,574.972 901.375,573.778 902.176,572.269 902.48,570.588 902.257,568.894 901.529,567.348 900.365,566.097 900.365,566.097 898.27,563.846 896.96,561.064 896.559,558.014 897.105,554.988 898.547,552.271 900.748,550.123 903.498,548.746 906.537,548.273 909.575,548.746 912.326,550.123 914.526,552.271 915.968,554.988 916.515,558.014 916.114,561.064 914.803,563.846 912.708,566.097 912.708,566.097 911.544,567.348 910.816,568.894 910.593,570.588 910.897,572.269 911.698,573.778 912.921,574.972 914.448,575.737 916.137,576 916.137,576 960,576 "/>
        <polyline fill="none" stroke="#000000" stroke-width="1" points="  96,0 96,45.5446 96,45.5446 96.2284,47.0534 96.8931,48.427 97.9347,49.5422 99.2596,50.2993 100.749,50.6302 102.27,50.5054 103.686,49.9361 104.87,48.9732 104.87,48.9732 107.001,47.24 109.549,46.2151 112.287,45.9905 114.968,46.5862 117.353,47.9489 119.228,49.9564 120.424,52.4288 120.835,55.1446 120.424,57.8604 119.228,60.3328 117.353,62.3403 114.968,63.703 112.287,64.2987 109.549,64.0741 107.001,63.0492 104.87,61.316 104.87,61.316 103.686,60.3531 102.27,59.7838 100.749,59.659 99.2596,59.9899 97.9347,60.747 96.8931,61.8623 96.2284,63.2358 96,64.7446 96,64.7446 96,96 "/>
        <polyline fill="none" stroke="#000000" stroke-width="1" points="  192,0 192,46.0233 192,46.0233 191.786,47.4554 191.164,48.7629 190.188,49.8321 188.942,50.5699 187.535,50.9121 186.09,50.8289 184.731,50.3276 183.578,49.4519 183.578,49.4519 181.502,47.8755 179.057,46.9732 176.455,46.8235 173.923,47.4395 171.68,48.7675 169.923,50.6919 168.803,53.0455 168.418,55.6233 168.803,58.2011 169.923,60.5546 171.68,62.4791 173.923,63.8071 176.455,64.4231 179.057,64.2734 181.502,63.3711 183.578,61.7947 183.578,61.7947 184.731,60.919 186.09,60.4177 187.535,60.3345 188.942,60.6767 190.188,61.4145 191.164,62.4837 191.786,63.7912 192,65.2233 192,65.2233 192,96 "/>
        <polyline fill="none" stroke="#000000" stroke-width="1" points="  288,0 288,30.3659 288,30.3659 288.233,31.8989 288.911,33.2934 289.973,34.4232 291.323,35.1863 292.839,35.5136 294.384,35.3756 295.817,34.7847 297.011,33.7944 297.011,33.7944 299.158,32.0119 301.739,30.9483 304.519,30.6999 307.247,31.2891 309.677,32.6626 311.589,34.6963 312.81,37.2064 313.23,39.9659 312.81,42.7253 311.589,45.2354 309.677,47.2691 307.247,48.6426 304.519,49.2318 301.739,48.9834 299.158,47.9198 297.011,46.1373 297.011,46.1373 295.817,45.147 294.384,44.5561 292.839,44.4181 291.323,44.7454 289.973,45.5085 288.911,46.6383 288.233,48.0328 288,49.5659 288,49.5659 288,96 "/>
        <polyline fill="none" stroke="#000000" stroke-width="1" points="  384,0 384,40.0946 384,40.0946 384.21,41.51 384.823,42.8031 385.785,43.8622 387.014,44.5957 388.403,44.9403 389.832,44.8662 391.178,44.3798 392.324,43.5231 392.324,43.5231 394.387,41.9811 396.809,41.1056 399.382,40.9722 401.881,41.5925 404.093,42.9129 405.825,44.8192 406.928,47.1468 407.307,49.6946 406.928,52.2423 405.825,54.5699 404.093,56.4763 401.881,57.7966 399.382,58.4169 396.809,58.2835 394.387,57.408 392.324,55.866 392.324,55.866 391.178,55.0093 389.832,54.5229 388.403,54.4488 387.014,54.7934 385.785,55.527 384.823,56.586 384.21,57.8792 384,59.2946 384,59.2946 384,96 "/>
        <polyline fill="none" stroke="#000000" stroke-width="1" points="  480,0 480,33.5248 480,33.5248 480.212,34.9512 480.831,36.2537 481.803,37.3194 483.043,38.0557 484.443,38.3987 485.883,38.3187 487.237,37.8226 488.388,36.9534 488.388,36.9534 490.459,35.3889 492.897,34.4959 495.488,34.3519 498.009,34.9694 500.241,36.2947 501.99,38.2129 503.104,40.5575 503.486,43.1248 503.104,45.6922 501.99,48.0368 500.241,49.955 498.009,51.2803 495.488,51.8978 492.897,51.7538 490.459,50.8608 488.388,49.2963 488.388,49.2963 487.237,48.4271 485.883,47.931 484.443,47.851 483.043,48.194 481.803,48.9303 480.831,49.996 480.212,51.2985 480,52.7248 480,52.7248 480,96 "/>
        <polyline fill="none" stroke="#000000" stroke-width="1" points="  576,0 576,33.4156 576,33.4156 575.723,35.1721 574.921,36.7587 573.669,38.0218 572.09,38.8394 570.336,39.1322 568.577,38.8719 566.983,38.0839 565.708,36.8441 565.708,36.8441 563.414,34.6126 560.545,33.1941 557.379,32.7257 554.222,33.2527 551.379,34.7243 549.127,36.998 547.682,39.8538 547.184,43.0156 547.682,46.1773 549.127,49.0331 551.379,51.3068 554.222,52.7784 557.379,53.3055 560.545,52.8371 563.414,51.4185 565.708,49.187 565.708,49.187 566.983,47.9473 568.577,47.1592 570.336,46.8989 572.09,47.1918 573.669,48.0093 574.921,49.2725 575.723,50.859 576,52.6156 576,52.6156 576,96 "/>
        <polyline fill="none" stroke="#000000" stroke-width="1" points="  672,0 672,39.5974 672,39.5974 672.228,41.1058 672.893,42.4791 673.934,43.5942 675.259,44.3511 676.748,44.6821 678.269,44.5575 679.684,43.9885 680.868,43.0259 680.868,43.0259 682.998,41.2934 685.546,40.2691 688.283,40.0448 690.964,40.6406 693.348,42.0031 695.223,44.0102 696.419,46.4821 696.83,49.1974 696.419,51.9126 695.223,54.3845 693.348,56.3916 690.964,57.7542 688.283,58.3499 685.546,58.1256 682.998,57.1013 680.868,55.3688 680.868,55.3688 679.684,54.4063 678.269,53.8372 676.748,53.7126 675.259,54.0436 673.934,54.8005 672.893,55.9156 672.228,57.2889 672,58.7974 672,58.7974 672,96 "/>
        <polyline fill="none" stroke="#000000" stroke-width="1" points="  768,0 768,41.7281 768,41.7281 768.219,43.1904 768.858,44.524 769.86,45.6114 771.138,46.3568 772.577,46.6946 774.053,46.595 775.434,46.0669 776.599,45.1567 776.599,45.1567 778.697,43.5183 781.183,42.5676 783.839,42.3884 786.43,42.9965 788.729,44.3382 790.532,46.2954 791.682,48.6959 792.077,51.3281 791.682,53.9603 790.532,56.3608 788.729,58.318 786.43,59.6597 783.839,60.2678 781.183,60.0886 778.697,59.1379 776.599,57.4995 776.599,57.4995 775.434,56.5893 774.053,56.0612 772.577,55.9616 771.138,56.2994 769.86,57.0448 768.858,58.1322 768.219,59.4657 768,60.9281 768,60.9281 768,96 "/>
        <polyline fill="none" stroke="#000000" stroke-width="1" points="  864,0 864,46.6128 864,46.6128 863.778,48.0881 863.132,49.4329 862.119,50.528 860.828,51.2767 859.375,51.6126 857.887,51.506 856.496,50.9663 855.325,50.0414 855.325,50.0414 853.218,48.3764 850.715,47.405 848.036,47.2132 845.419,47.8178 843.097,49.1653 841.273,51.1367 840.11,53.5572 839.71,56.2128 840.11,58.8684 841.273,61.2889 843.097,63.2602 845.419,64.6078 848.036,65.2124 850.715,65.0205 853.218,64.0491 855.325,62.3842 855.325,62.3842 856.496,61.4593 857.887,60.9196 859.375,60.813 860.828,61.1489 862.119,61.8975 863.132,62.9927 863.778,64.3375 864,65.8128 864,65.8128 864,96 "/>
        <polyline fill="none" stroke="#000000" stroke-width="1" points="  96,96 96,134.926 96,134.926 95.7559,136.516 95.0459,137.959 93.9356,139.123 92.5272,139.9 90.9506,140.219 89.3509,140.05 87.8757,139.409 86.6608,138.354 86.6608,138.354 84.4741,136.457 81.8186,135.303 78.9393,134.998 76.1013,135.572 73.5662,136.971 71.5677,139.066 70.2898,141.664 69.8503,144.526 70.2898,147.388 71.5677,149.986 73.5662,152.081 76.1013,153.48 78.9393,154.053 81.8186,153.749 84.4741,152.595 86.6608,150.697 86.6608,150.697 87.8757,149.643 89.3509,149.002 90.9506,148.833 92.5272,149.152 93.9356,149.929 95.0459,151.093 95.7559,152.536 96,154.126 96,154.126 96,192 "/>
        <polyline fill="none" stroke="#000000" stroke-width="1" points="  192,96 192,135.78 192,135.78 192.267,137.488 193.043,139.034 194.254,140.269 195.784,141.075 197.488,141.375 199.201,141.141 200.761,140.395 202.019,139.208 202.019,139.208 204.284,137.072 207.092,135.729 210.177,135.308 213.242,135.849 215.996,137.3 218.176,139.522 219.573,142.304 220.054,145.38 219.573,148.455 218.176,151.237 215.996,153.46 213.242,154.91 210.177,155.451 207.092,155.03 204.284,153.687 202.019,151.551 202.019,151.551 200.761,150.364 199.201,149.618 197.488,149.384 195.784,149.685 194.254,150.491 193.043,151.726 192.267,153.271 192,154.98 192,154.98 192,192 "/>
        <polyline fill="none" stroke="#000000" stroke-width="1" points="  288,96 288,127.405 288,127.405 288.249,129.02 288.973,130.486 290.105,131.665 291.54,132.448 293.144,132.763 294.768,132.58 296.262,131.916 297.486,130.834 297.486,130.834 299.69,128.884 302.379,127.689 305.303,127.36 308.19,127.927 310.772,129.337 312.81,131.459 314.113,134.097 314.562,137.005 314.113,139.913 312.81,142.551 310.772,144.673 308.19,146.083 305.303,146.65 302.379,146.32 299.69,145.126 297.486,143.176 297.486,143.176 296.262,142.093 294.768,141.43 293.144,141.247 291.54,141.561 290.105,142.345 288.973,143.524 288.249,144.989 288,146.605 288,146.605 288,192 "/>
        <polyline fill="none" stroke="#000000" stroke-width="1" points="  384,96 384,131.534 384,131.534 383.735,133.232 382.965,134.768 381.763,135.996 380.244,136.799 378.552,137.102 376.849,136.873 375.297,136.137 374.043,134.962 374.043,134.962 371.785,132.848 368.99,131.522 365.925,131.112 362.88,131.656 360.146,133.102 357.983,135.313 356.596,138.078 356.119,141.134 356.596,144.19 357.983,146.955 360.146,149.166 362.88,150.612 365.925,151.156 368.99,150.745 371.785,149.42 374.043,147.305 374.043,147.305 375.297,146.131 376.849,145.394 378.552,145.166 380.244,145.468 381.763,146.272 382.965,147.5 383.735,149.036 384,150.734 384,150.734 384,192 "/>
        <polyline fill="none" stroke="#000000" stroke-width="1" points="  480,96 480,131.48 480,131.48 480.237,133.031 480.925,134.441 482.002,135.582 483.371,136.349 484.906,136.674 486.468,136.526 487.915,135.919 489.115,134.909 489.115,134.909 491.276,133.089 493.88,131.997 496.692,131.731 499.456,132.315 501.919,133.697 503.858,135.75 505.097,138.288 505.523,141.08 505.097,143.872 503.858,146.41 501.919,148.463 499.456,149.845 496.692,150.429 493.88,150.163 491.276,149.071 489.115,147.251 489.115,147.251 487.915,146.241 486.468,145.634 484.906,145.486 483.371,145.811 482.002,146.578 480.925,147.719 480.237,149.129 480,150.68 480,150.68 480,192 "/>
        <polyline fill="none" stroke="#000000" stroke-width="1" points="  576,96 576,131.699 576,131.699 575.769,133.223 575.096,134.609 574.042,135.733 572.702,136.494 571.196,136.822 569.661,136.69 568.234,136.107 567.045,135.128 567.045,135.128 564.904,133.364 562.336,132.316 559.572,132.077 556.862,132.669 554.45,134.038 552.553,136.062 551.342,138.557 550.925,141.299 551.342,144.041 552.553,146.537 554.45,148.56 556.862,149.929 559.572,150.521 562.336,150.282 564.904,149.234 567.045,147.47 567.045,147.47 568.234,146.491 569.661,145.909 571.196,145.776 572.702,146.105 574.042,146.865 575.096,147.989 575.769,149.376 576,150.899 576,150.899 576,192 "/>
        <polyline fill="none" stroke="#000000" stroke-width="1" points="  672,96 672,135.667 672,135.667 671.776,137.153 671.124,138.507 670.102,139.609 668.8,140.36 667.335,140.695 665.836,140.582 664.437,140.033 663.262,139.096 663.262,139.096 661.147,137.409 658.629,136.42 655.932,136.218 653.294,136.82 650.952,138.172 649.111,140.155 647.938,142.592 647.534,145.267 647.938,147.942 649.111,150.38 650.952,152.363 653.294,153.715 655.932,154.317 658.629,154.114 661.147,153.126 663.262,151.439 663.262,151.439 664.437,150.502 665.836,149.952 667.335,149.84 668.8,150.174 670.102,150.926 671.124,152.027 671.776,153.381 672,154.867 672,154.867 672,192 "/>
        <polyline fill="none" stroke="#000000" stroke-width="1" points="  768,96 768,138.215 768,138.215 767.737,139.901 766.973,141.427 765.781,142.649 764.274,143.45 762.595,143.753 760.902,143.532 759.358,142.805 758.108,141.643 758.108,141.643 755.858,139.552 753.077,138.244 750.031,137.845 747.008,138.392 744.295,139.833 742.15,142.032 740.775,144.779 740.302,147.815 740.775,150.85 742.15,153.598 744.295,155.796 747.008,157.237 750.031,157.784 753.077,157.385 755.858,156.078 758.108,153.986 758.108,153.986 759.358,152.824 760.902,152.098 762.595,151.876 764.274,152.18 765.781,152.981 766.973,154.202 767.737,155.728 768,157.415 768,157.415 768,192 "/>
        <polyline fill="none" stroke="#000000" stroke-width="1" points="  864,96 864,131.963 864,131.963 863.734,133.665 862.962,135.204 861.757,136.435 860.234,137.239 858.539,137.541 856.832,137.311 855.277,136.571 854.021,135.392 854.021,135.392 851.761,133.27 848.962,131.939 845.89,131.525 842.838,132.067 840.097,133.515 837.928,135.73 836.538,138.501 836.06,141.563 836.538,144.626 837.928,147.397 840.097,149.612 842.838,151.06 845.89,151.602 848.962,151.188 851.761,149.857 854.021,147.735 854.021,147.735 855.277,146.556 856.832,145.816 858.539,145.586 860.234,145.888 861.757,146.692 862.962,147.923 863.734,149.462 864,151.163 864,151.163 864,192 "/>
        <polyline fill="none" stroke="#000000" stroke-width="1" points="  96,192 96,237.464 96,237.464 95.7244,239.216 94.9242,240.798 93.6767,242.058 92.1024,242.875 90.3535,243.168 88.599,242.911 87.0084,242.127 85.7353,240.892 85.7353,240.892 83.4437,238.67 80.5805,237.259 77.4224,236.795 74.2744,237.324 71.4407,238.793 69.1952,241.062 67.7548,243.91 67.2587,247.064 67.7548,250.217 69.1952,253.066 71.4407,255.334 74.2744,256.804 77.4224,257.332 80.5805,256.868 83.4437,255.457 85.7353,253.235 85.7353,253.235 87.0084,252.001 88.599,251.217 90.3535,250.959 92.1024,251.253 93.6767,252.069 94.9242,253.329 95.7244,254.912 96,256.664 96,256.664 96,288 "/>
        <polyline fill="none" stroke="#000000" stroke-width="1" points="  192,192 192,237.741 192,237.741 191.759,239.314 191.058,240.743 189.962,241.897 188.571,242.67 187.012,242.991 185.428,242.831 183.965,242.205 182.756,241.169 182.756,241.169 180.581,239.305 177.947,238.177 175.097,237.889 172.291,238.468 169.786,239.859 167.813,241.936 166.552,244.509 166.118,247.341 166.552,250.173 167.813,252.745 169.786,254.822 172.291,256.214 175.097,256.792 177.947,256.504 180.581,255.376 182.756,253.512 182.756,253.512 183.965,252.476 185.428,251.85 187.012,251.69 188.571,252.011 189.962,252.784 191.058,253.938 191.759,255.367 192,256.941 192,256.941 192,288 "/>
        <polyline fill="none" stroke="#000000" stroke-width="1" points="  288,192 288,222.664 288,222.664 287.733,224.371 286.958,225.915 285.749,227.148 284.221,227.954 282.52,228.255 280.808,228.022 279.249,227.278 277.992,226.093 277.992,226.093 275.729,223.961 272.923,222.621 269.842,222.202 266.781,222.744 264.03,224.194 261.853,226.414 260.458,229.193 259.978,232.264 260.458,235.336 261.853,238.115 264.03,240.335 266.781,241.785 269.842,242.327 272.923,241.908 275.729,240.568 277.992,238.436 277.992,238.436 279.249,237.251 280.808,236.507 282.52,236.274 284.221,236.575 285.749,237.381 286.958,238.614 287.733,240.158 288,241.864 288,241.864 288,288 "/>
        <polyline fill="none" stroke="#000000" stroke-width="1" points="  384,192 384,234.466 384,234.466 383.783,235.918 383.149,237.243 382.156,238.324 380.89,239.067 379.461,239.406 377.996,239.312 376.623,238.793 375.462,237.895 375.462,237.895 373.372,236.277 370.899,235.343 368.262,235.174 365.691,235.785 363.412,237.122 361.624,239.068 360.484,241.453 360.093,244.066 360.484,246.68 361.624,249.064 363.412,251.01 365.691,252.347 368.262,252.958 370.899,252.789 373.372,251.855 375.462,250.237 375.462,250.237 376.623,249.339 377.996,248.82 379.461,248.726 380.89,249.066 382.156,249.808 383.149,250.889 383.783,252.214 384,253.666 384,253.666 384,288 "/>
        <polyline fill="none" stroke="#000000" stroke-width="1" points="  480,192 480,233.281 480,233.281 480.215,234.72 480.841,236.034 481.824,237.108 483.078,237.848 484.493,238.189 485.946,238.102 487.311,237.594 488.467,236.709 488.467,236.709 490.548,235.117 493.004,234.202 495.619,234.045 498.167,234.659 500.424,235.991 502.193,237.923 503.32,240.289 503.707,242.881 503.32,245.472 502.193,247.838 500.424,249.77 498.167,251.102 495.619,251.716 493.004,251.559 490.548,250.644 488.467,249.052 488.467,249.052 487.311,248.167 485.946,247.659 484.493,247.572 483.078,247.913 481.824,248.653 480.841,249.727 480.215,251.041 480,252.481 480,252.481 480,288 "/>
        <polyline fill="none" stroke="#000000" stroke-width="1" points="  576,192 576,235.557 576,235.557 576.215,236.996 576.841,238.31 577.823,239.383 579.077,240.123 580.491,240.464 581.944,240.377 583.308,239.869 584.464,238.985 584.464,238.985 586.544,237.394 588.999,236.481 591.614,236.324 594.16,236.938 596.416,238.269 598.185,240.201 599.311,242.566 599.698,245.157 599.311,247.747 598.185,250.112 596.416,252.044 594.16,253.375 591.614,253.989 588.999,253.833 586.544,252.919 584.464,251.328 584.464,251.328 583.308,250.444 581.944,249.937 580.491,249.85 579.077,250.191 577.823,250.93 576.841,252.004 576.215,253.317 576,254.757 576,254.757 576,288 "/>
        <polyline fill="none" stroke="#000000" stroke-width="1" points="  672,192 672,221.3 672,221.3 672.274,223.044 673.07,224.62 674.311,225.876 675.878,226.691 677.619,226.985 679.366,226.732 680.952,225.954 682.222,224.728 682.222,224.728 684.509,222.521 687.363,221.122 690.508,220.665 693.642,221.196 696.462,222.662 698.696,224.923 700.129,227.76 700.623,230.9 700.129,234.039 698.696,236.876 696.462,239.137 693.642,240.603 690.508,241.134 687.363,240.677 684.509,239.278 682.222,237.071 682.222,237.071 680.952,235.845 679.366,235.067 677.619,234.814 675.878,235.108 674.311,235.923 673.07,237.179 672.274,238.755 672,240.5 672,240.5 672,288 "/>
        <polyline fill="none" stroke="#000000" stroke-width="1" points="  768,192 768,224.612 768,224.612 768.228,226.119 768.891,227.49 769.931,228.604 771.254,229.361 772.741,229.692 774.26,229.569 775.674,229.001 776.857,228.041 776.857,228.041 778.986,226.312 781.532,225.291 784.265,225.068 786.942,225.665 789.323,227.026 791.194,229.031 792.389,231.5 792.799,234.212 792.389,236.924 791.194,239.393 789.323,241.398 786.942,242.76 784.265,243.356 781.532,243.134 778.986,242.112 776.857,240.384 776.857,240.384 775.674,239.423 774.26,238.856 772.741,238.732 771.254,239.064 769.931,239.82 768.891,240.934 768.228,242.306 768,243.812 768,243.812 768,288 "/>
        <polyline fill="none" stroke="#000000" stroke-width="1" points="  864,192 864,230.849 864,230.849 864.232,232.375 864.906,233.763 865.962,234.889 867.305,235.65 868.813,235.979 870.351,235.845 871.779,235.26 872.97,234.278 872.97,234.278 875.113,232.509 877.684,231.457 880.452,231.215 883.167,231.807 885.583,233.177 887.484,235.203 888.698,237.702 889.115,240.449 888.698,243.196 887.484,245.695 885.583,247.721 883.167,249.091 880.452,249.683 877.684,249.441 875.113,248.389 872.97,246.62 872.97,246.62 871.779,245.638 870.351,245.053 868.813,244.919 867.305,245.248 865.962,246.009 864.906,247.135 864.232,248.523 864,250.049 864,250.049 864,288 "/>
        <polyline fill="none" stroke="#000000" stroke-width="1" points="  96,288 96,322.709 96,322.709 95.7393,324.384 94.9818,325.901 93.7991,327.116 92.3032,327.914 90.6355,328.219 88.9539,328.003 87.4173,327.287 86.1712,326.137 86.1712,326.137 83.9282,324.068 81.1623,322.778 78.1354,322.39 75.1336,322.94 72.4409,324.376 70.3122,326.563 68.9486,329.293 68.4793,332.309 68.9486,335.324 70.3122,338.054 72.4409,340.241 75.1336,341.677 78.1354,342.227 81.1623,341.839 83.9282,340.549 86.1712,338.48 86.1712,338.48 87.4173,337.331 88.9539,336.614 90.6355,336.398 92.3032,336.704 93.7991,337.502 94.9818,338.717 95.7393,340.233 96,341.909 96,341.909 96,384 "/>
        <polyline fill="none" stroke="#000000" stroke-width="1" points="  192,288 192,326.517 192,326.517 192.244,328.105 192.953,329.547 194.061,330.71 195.468,331.486 197.042,331.805 198.64,331.637 200.114,330.998 201.328,329.946 201.328,329.946 203.513,328.052 206.166,326.901 209.042,326.599 211.876,327.173 214.408,328.571 216.403,330.664 217.679,333.259 218.118,336.117 217.679,338.976 216.403,341.571 214.408,343.663 211.876,345.061 209.042,345.636 206.166,345.333 203.513,344.182 201.328,342.289 201.328,342.289 200.114,341.237 198.64,340.597 197.042,340.429 195.468,340.748 194.061,341.525 192.953,342.688 192.244,344.129 192,345.717 192,345.717 192,384 "/>
        <polyline fill="none" stroke="#000000" stroke-width="1" points="  288,288 288,316.916 288,316.916 287.726,318.66 286.93,320.236 285.688,321.492 284.121,322.307 282.38,322.602 280.633,322.348 279.047,321.571 277.776,320.344 277.776,320.344 275.489,318.136 272.635,316.737 269.49,316.28 266.356,316.811 263.535,318.277 261.301,320.538 259.868,323.375 259.374,326.516 259.868,329.656 261.301,332.493 263.535,334.754 266.356,336.22 269.49,336.751 272.635,336.294 275.489,334.895 277.776,332.687 277.776,332.687 279.047,331.461 280.633,330.683 282.38,330.429 284.121,330.724 285.688,331.539 286.93,332.795 287.726,334.371 288,336.116 288,336.116 288,384 "/>
        <polyline fill="none" stroke="#000000" stroke-width="1" points="  384,288 384,334.257 384,334.257 384.213,335.686 384.833,336.99 385.806,338.057 387.048,338.794 388.451,339.136 389.892,339.055 391.248,338.557 392.399,337.686 392.399,337.686 394.472,336.118 396.912,335.222 399.507,335.076 402.032,335.693 404.267,337.019 406.019,338.939 407.135,341.287 407.518,343.857 407.135,346.428 406.019,348.776 404.267,350.696 402.032,352.022 399.507,352.639 396.912,352.493 394.472,351.597 392.399,350.029 392.399,350.029 391.248,349.158 389.892,348.66 388.451,348.579 387.048,348.921 385.806,349.658 384.833,350.725 384.213,352.029 384,353.457 384,353.457 384,384 "/>
        <polyline fill="none" stroke="#000000" stroke-width="1" points="  480,288 480,330.457 480,330.457 480.256,332.109 481.001,333.606 482.164,334.807 483.636,335.599 485.279,335.908 486.938,335.705 488.458,335.009 489.696,333.886 489.696,333.886 491.924,331.863 494.66,330.61 497.647,330.244 500.605,330.801 503.255,332.227 505.348,334.389 506.688,337.083 507.15,340.057 506.688,343.031 505.348,345.725 503.255,347.887 500.605,349.313 497.647,349.87 494.66,349.504 491.924,348.251 489.696,346.228 489.696,346.228 488.458,345.105 486.938,344.408 485.279,344.205 483.636,344.515 482.164,345.307 481.001,346.508 480.256,348.005 480,349.657 480,349.657 480,384 "/>
        <polyline fill="none" stroke="#000000" stroke-width="1" points="  576,288 576,321.633 576,321.633 576.228,323.142 576.893,324.515 577.934,325.63 579.259,326.387 580.748,326.718 582.268,326.593 583.684,326.024 584.867,325.062 584.867,325.062 586.998,323.329 589.546,322.305 592.283,322.081 594.963,322.677 597.348,324.039 599.222,326.046 600.418,328.518 600.829,331.233 600.418,333.948 599.222,336.42 597.348,338.427 594.963,339.79 592.283,340.386 589.546,340.161 586.998,339.137 584.867,337.405 584.867,337.405 583.684,336.442 582.268,335.873 580.748,335.749 579.259,336.08 577.934,336.837 576.893,337.952 576.228,339.325 576,340.833 576,340.833 576,384 "/>
        <polyline fill="none" stroke="#000000" stroke-width="1" points="  672,288 672,319.402 672,319.402 671.726,321.144 670.931,322.718 669.692,323.973 668.128,324.787 666.389,325.082 664.644,324.83 663.06,324.054 661.79,322.83 661.79,322.83 659.504,320.627 656.653,319.232 653.512,318.777 650.382,319.308 647.566,320.774 645.335,323.032 643.905,325.866 643.412,329.002 643.905,332.138 645.335,334.971 647.566,337.23 650.382,338.695 653.512,339.226 656.653,338.772 659.504,337.376 661.79,335.173 661.79,335.173 663.06,333.949 664.644,333.174 666.389,332.921 668.128,333.217 669.692,334.031 670.931,335.285 671.726,336.86 672,338.602 672,338.602 672,384 "/>
        <polyline fill="none" stroke="#000000" stroke-width="1" points="  768,288 768,332.522 768,332.522 768.22,333.99 768.862,335.328 769.868,336.418 771.151,337.165 772.595,337.502 774.076,337.399 775.461,336.867 776.628,335.951 776.628,335.951 778.729,334.302 781.222,333.344 783.886,333.16 786.487,333.767 788.795,335.111 790.607,337.073 791.762,339.481 792.158,342.122 791.762,344.764 790.607,347.172 788.795,349.134 786.487,350.478 783.886,351.085 781.222,350.901 778.729,349.942 776.628,348.294 776.628,348.294 775.461,347.378 774.076,346.845 772.595,346.743 771.151,347.08 769.868,347.827 768.862,348.917 768.22,350.255 768,351.722 768,351.722 768,384 "/>
        <polyline fill="none" stroke="#000000" stroke-width="1" points="  864,288 864,327.048 864,327.048 864.261,328.727 865.021,330.247 866.207,331.464 867.707,332.263 869.378,332.568 871.064,332.35 872.603,331.63 873.85,330.476 873.85,330.476 876.096,328.399 878.866,327.104 881.9,326.712 884.909,327.261 887.609,328.699 889.743,330.889 891.11,333.626 891.581,336.648 891.11,339.67 889.743,342.406 887.609,344.597 884.909,346.035 881.9,346.584 878.866,346.192 876.096,344.896 873.85,342.819 873.85,342.819 872.603,341.665 871.064,340.946 869.378,340.728 867.707,341.033 866.207,341.832 865.021,343.049 864.261,344.569 864,346.248 864,346.248 864,384 "/>
        <polyline fill="none" stroke="#000000" stroke-width="1" points="  96,384 96,426.933 96,426.933 95.7915,428.338 95.1841,429.623 94.23,430.677 93.0113,431.408 91.6329,431.754 90.2134,431.685 88.8749,431.207 87.7328,430.361 87.7328,430.361 85.525,428.76 82.9306,427.919 80.2034,427.921 77.6099,428.765 75.404,430.368 73.8015,432.575 72.959,435.169 72.959,437.896 73.8015,440.49 75.404,442.697 77.6099,444.301 80.2034,445.145 82.9306,445.146 85.525,444.305 87.7328,442.704 87.7328,442.704 88.8749,441.858 90.2134,441.381 91.6329,441.312 93.0113,441.658 94.23,442.389 95.1841,443.442 95.7915,444.727 96,446.133 96,446.133 96,480 "/>
        <polyline fill="none" stroke="#000000" stroke-width="1" points="  192,384 192,423.512 192,423.512 191.735,425.209 190.966,426.744 189.765,427.971 188.247,428.775 186.557,429.077 184.855,428.849 183.303,428.114 182.05,426.941 182.05,426.941 179.793,424.829 177,423.505 173.936,423.096 170.894,423.64 168.162,425.086 166.001,427.295 164.616,430.058 164.139,433.112 164.616,436.166 166.001,438.929 168.162,441.139 170.894,442.584 173.936,443.128 177,442.719 179.793,441.396 182.05,439.284 182.05,439.284 183.303,438.11 184.855,437.375 186.557,437.148 188.247,437.45 189.765,438.253 190.966,439.481 191.735,441.016 192,442.712 192,442.712 192,480 "/>
        <polyline fill="none" stroke="#000000" stroke-width="1" points="  288,384 288,422.431 288,422.431 287.753,424.037 287.034,425.494 285.91,426.668 284.485,427.449 282.891,427.765 281.276,427.587 279.789,426.932 278.568,425.86 278.568,425.86 276.371,423.93 273.694,422.75 270.787,422.43 267.918,422.999 265.353,424.405 263.33,426.517 262.036,429.14 261.591,432.031 262.036,434.922 263.33,437.545 265.353,439.657 267.918,441.063 270.787,441.632 273.694,441.312 276.371,440.133 278.568,438.203 278.568,438.203 279.789,437.13 281.276,436.475 282.891,436.297 284.485,436.613 285.91,437.394 287.034,438.568 287.753,440.025 288,441.631 288,441.631 288,480 "/>
        <polyline fill="none" stroke="#000000" stroke-width="1" points="  384,384 384,427.201 384,427.201 383.738,428.884 382.976,430.408 381.786,431.628 380.282,432.428 378.605,432.732 376.916,432.512 375.373,431.788 374.124,430.629 374.124,430.629 371.876,428.543 369.099,427.241 366.058,426.844 363.041,427.392 360.333,428.832 358.192,431.027 356.82,433.77 356.348,436.801 356.82,439.831 358.192,442.574 360.333,444.769 363.041,446.209 366.058,446.757 369.099,446.361 371.876,445.058 374.124,442.972 374.124,442.972 375.373,441.813 376.916,441.089 378.605,440.869 380.282,441.174 381.786,441.974 382.976,443.193 383.738,444.717 384,446.401 384,446.401 384,480 "/>
        <polyline fill="none" stroke="#000000" stroke-width="1" points="  480,384 480,426.222 480,426.222 480.261,427.898 481.019,429.416 482.203,430.632 483.701,431.43 485.37,431.736 487.053,431.519 488.591,430.801 489.837,429.65 489.837,429.65 492.081,427.578 494.849,426.286 497.878,425.896 500.883,426.446 503.578,427.883 505.709,430.071 507.074,432.803 507.544,435.822 507.074,438.84 505.709,441.572 503.578,443.76 500.883,445.197 497.878,445.747 494.849,445.357 492.081,444.065 489.837,441.993 489.837,441.993 488.591,440.842 487.053,440.124 485.37,439.907 483.701,440.213 482.203,441.011 481.019,442.227 480.261,443.745 480,445.422 480,445.422 480,480 "/>
        <polyline fill="none" stroke="#000000" stroke-width="1" points="  576,384 576,422.853 576,422.853 575.762,424.411 575.07,425.826 573.988,426.97 572.613,427.739 571.071,428.063 569.503,427.912 568.052,427.299 566.849,426.282 566.849,426.282 564.685,424.45 562.072,423.348 559.249,423.076 556.474,423.658 554,425.043 552.051,427.103 550.806,429.65 550.377,432.453 550.806,435.256 552.051,437.804 554,439.864 556.474,441.248 559.249,441.831 562.072,441.559 564.685,440.456 566.849,438.625 566.849,438.625 568.052,437.607 569.503,436.995 571.071,436.844 572.613,437.167 573.988,437.936 575.07,439.081 575.762,440.496 576,442.053 576,442.053 576,480 "/>
        <polyline fill="none" stroke="#000000" stroke-width="1" points="  672,384 672,431.049 672,431.049 671.726,432.792 670.931,434.367 669.691,435.622 668.125,436.436 666.386,436.731 664.64,436.478 663.055,435.702 661.785,434.477 661.785,434.477 659.499,432.273 656.647,430.876 653.504,430.42 650.372,430.951 647.555,432.417 645.323,434.676 643.891,437.511 643.398,440.649 643.891,443.786 645.323,446.621 647.555,448.881 650.372,450.346 653.504,450.877 656.647,450.422 659.499,449.025 661.785,446.82 661.785,446.82 663.055,445.595 664.64,444.819 666.386,444.566 668.125,444.861 669.691,445.676 670.931,446.931 671.726,448.506 672,450.249 672,450.249 672,480 "/>
        <polyline fill="none" stroke="#000000" stroke-width="1" points="  768,384 768,421.781 768,421.781 768.257,423.437 769.003,424.937 770.169,426.14 771.645,426.933 773.292,427.242 774.955,427.037 776.477,426.338 777.716,425.21 777.716,425.21 779.947,423.18 782.687,421.921 785.68,421.553 788.644,422.108 791.301,423.536 793.4,425.701 794.743,428.401 795.206,431.381 794.743,434.361 793.4,437.061 791.301,439.227 788.644,440.654 785.68,441.21 782.687,440.841 779.947,439.583 777.716,437.553 777.716,437.553 776.477,436.425 774.955,435.726 773.292,435.521 771.645,435.83 770.169,436.623 769.003,437.826 768.257,439.326 768,440.981 768,440.981 768,480 "/>
        <polyline fill="none" stroke="#000000" stroke-width="1" points="  864,384 864,426.731 864,426.731 863.785,428.17 863.159,429.484 862.176,430.558 860.922,431.298 859.507,431.639 858.054,431.551 856.69,431.043 855.534,430.159 855.534,430.159 853.453,428.567 850.997,427.653 848.382,427.496 845.835,428.11 843.578,429.441 841.809,431.374 840.682,433.739 840.295,436.331 840.682,438.922 841.809,441.287 843.578,443.22 845.835,444.551 848.382,445.165 850.997,445.008 853.453,444.094 855.534,442.502 855.534,442.502 856.69,441.618 858.054,441.11 859.507,441.022 860.922,441.364 862.176,442.103 863.159,443.177 863.785,444.491 864,445.931 864,445.931 864,480 "/>
        <polyline fill="none" stroke="#000000" stroke-width="1" points="  96,480 96,520.204 96,520.204 95.7802,521.668 95.1403,523.003 94.1367,524.092 92.8577,524.838 91.4161,525.175 89.9389,525.075 88.5564,524.545 87.3903,523.633 87.3903,523.633 85.2912,521.99 82.8026,521.037 80.1438,520.856 77.5489,521.463 75.2467,522.806 73.4401,524.765 72.2883,527.168 71.8927,529.804 72.2883,532.44 73.4401,534.843 75.2467,536.802 77.5489,538.145 80.1438,538.752 82.8026,538.571 85.2912,537.618 87.3903,535.975 87.3903,535.975 88.5564,535.063 89.9389,534.533 91.4161,534.433 92.8577,534.77 94.1367,535.516 95.1403,536.605 95.7802,537.94 96,539.404 96,539.404 96,576 "/>
        <polyline fill="none" stroke="#000000" stroke-width="1" points="  192,480 192,521.176 192,521.176 191.788,522.599 191.171,523.898 190.203,524.962 188.967,525.697 187.57,526.041 186.134,525.963 184.782,525.47 183.633,524.605 183.633,524.605 181.565,523.048 179.132,522.161 176.547,522.02 174.033,522.638 171.808,523.962 170.064,525.876 168.954,528.215 168.573,530.776 168.954,533.337 170.064,535.676 171.808,537.59 174.033,538.914 176.547,539.532 179.132,539.392 181.565,538.505 183.633,536.948 183.633,536.948 184.782,536.083 186.134,535.59 187.57,535.512 188.967,535.855 190.203,536.591 191.171,537.654 191.788,538.954 192,540.376 192,540.376 192,576 "/>
        <polyline fill="none" stroke="#000000" stroke-width="1" points="  288,480 288,524.133 288,524.133 287.792,525.538 287.185,526.821 286.232,527.874 285.015,528.605 283.638,528.951 282.22,528.883 280.882,528.406 279.741,527.562 279.741,527.562 277.534,525.964 274.942,525.125 272.217,525.128 269.627,525.972 267.423,527.575 265.823,529.779 264.981,532.371 264.981,535.096 265.823,537.687 267.423,539.892 269.627,541.495 272.217,542.339 274.942,542.342 277.534,541.503 279.741,539.905 279.741,539.905 280.882,539.061 282.22,538.584 283.638,538.516 285.015,538.862 286.232,539.593 287.185,540.645 287.792,541.929 288,543.333 288,543.333 288,576 "/>
        <polyline fill="none" stroke="#000000" stroke-width="1" points="  384,480 384,522.842 384,522.842 384.264,524.536 385.032,526.069 386.231,527.295 387.746,528.098 389.434,528.4 391.134,528.174 392.684,527.441 393.936,526.271 393.936,526.271 396.192,524.164 398.982,522.844 402.041,522.437 405.079,522.982 407.806,524.426 409.964,526.633 411.346,529.393 411.822,532.442 411.346,535.491 409.964,538.251 407.806,540.458 405.079,541.902 402.041,542.447 398.982,542.04 396.192,540.721 393.936,538.613 393.936,538.613 392.684,537.443 391.134,536.71 389.434,536.484 387.746,536.786 386.231,537.589 385.032,538.815 384.264,540.348 384,542.042 384,542.042 384,576 "/>
        <polyline fill="none" stroke="#000000" stroke-width="1" points="  480,480 480,520.154 480,520.154 479.788,521.579 479.17,522.88 478.2,523.945 476.961,524.68 475.562,525.024 474.124,524.944 472.771,524.45 471.621,523.582 471.621,523.582 469.551,522.021 467.115,521.13 464.526,520.988 462.008,521.606 459.779,522.93 458.033,524.847 456.92,527.189 456.538,529.754 456.92,532.318 458.033,534.661 459.779,536.577 462.008,537.902 464.526,538.52 467.115,538.377 469.551,537.487 471.621,535.925 471.621,535.925 472.771,535.058 474.124,534.563 475.562,534.484 476.961,534.827 478.2,535.563 479.17,536.628 479.788,537.929 480,539.354 480,539.354 480,576 "/>
        <polyline fill="none" stroke="#000000" stroke-width="1" points="  576,480 576,513.035 576,513.035 576.244,514.622 576.952,516.063 578.06,517.226 579.466,518.002 581.04,518.321 582.637,518.154 584.111,517.515 585.325,516.463 585.325,516.463 587.51,514.571 590.162,513.421 593.037,513.119 595.87,513.693 598.4,515.091 600.395,517.183 601.671,519.778 602.109,522.635 601.671,525.492 600.395,528.086 598.4,530.179 595.87,531.576 593.037,532.151 590.162,531.849 587.51,530.699 585.325,528.806 585.325,528.806 584.111,527.755 582.637,527.116 581.04,526.948 579.466,527.267 578.06,528.044 576.952,529.206 576.244,530.647 576,532.235 576,532.235 576,576 "/>
        <polyline fill="none" stroke="#000000" stroke-width="1" points="  672,480 672,514.506 672,514.506 672.227,516.005 672.886,517.371 673.92,518.481 675.235,519.235 676.715,519.568 678.226,519.448 679.635,518.887 680.815,517.935 680.815,517.935 682.94,516.22 685.476,515.21 688.197,514.995 690.86,515.593 693.228,516.952 695.088,518.949 696.275,521.407 696.683,524.106 696.275,526.805 695.088,529.263 693.228,531.26 690.86,532.619 688.197,533.217 685.476,533.001 682.94,531.992 680.815,530.277 680.815,530.277 679.635,529.325 678.226,528.764 676.715,528.644 675.235,528.977 673.92,529.731 672.886,530.841 672.227,532.207 672,533.706 672,533.706 672,576 "/>
        <polyline fill="none" stroke="#000000" stroke-width="1" points="  768,480 768,509.459 768,509.459 768.273,511.198 769.066,512.77 770.303,514.023 771.865,514.836 773.6,515.132 775.343,514.881 776.925,514.108 778.194,512.888 778.194,512.888 780.477,510.69 783.325,509.299 786.461,508.848 789.585,509.38 792.396,510.844 794.622,513.099 796.05,515.928 796.542,519.059 796.05,522.19 794.622,525.019 792.396,527.274 789.585,528.738 786.461,529.27 783.325,528.819 780.477,527.428 778.194,525.23 778.194,525.23 776.925,524.01 775.343,523.237 773.6,522.986 771.865,523.282 770.303,524.095 769.066,525.348 768.273,526.92 768,528.659 768,528.659 768,576 "/>
        <polyline fill="none" stroke="#000000" stroke-width="1" points="  864,480 864,509.515 864,509.515 864.224,511.002 864.877,512.357 865.9,513.459 867.202,514.21 868.668,514.544 870.168,514.432 871.567,513.882 872.742,512.944 872.742,512.944 874.858,511.255 877.377,510.265 880.076,510.062 882.715,510.663 885.059,512.016 886.9,514 888.075,516.439 888.479,519.115 888.075,521.791 886.9,524.23 885.059,526.214 882.715,527.566 880.076,528.168 877.377,527.965 874.858,526.975 872.742,525.286 872.742,525.286 871.567,524.348 870.168,523.798 868.668,523.685 867.202,524.02 865.9,524.771 864.877,525.873 864.224,527.228 864,528.715 864,528.715 864,576 "/>
        <polyline fill="none" stroke="#000000" stroke-width="1" points="  96,576 96,609.123 96,609.123 96.2108,610.541 96.8249,611.836 97.7893,612.897 99.0204,613.631 100.412,613.975 101.843,613.9 103.191,613.411 104.338,612.552 104.338,612.552 106.403,611.004 108.829,610.125 111.405,609.989 113.91,610.609 116.126,611.93 117.862,613.839 118.967,616.171 119.347,618.723 118.967,621.275 117.862,623.606 116.126,625.515 113.91,626.837 111.405,627.457 108.829,627.321 106.403,626.441 104.338,624.894 104.338,624.894 103.191,624.035 101.843,623.546 100.412,623.471 99.0204,623.815 97.7893,624.549 96.8249,625.61 96.2108,626.905 96,628.323 96,628.323 96,672 "/>
        <polyline fill="none" stroke="#000000" stroke-width="1" points="  192,576 192,609.995 192,609.995 192.236,611.543 192.923,612.951 193.998,614.09 195.363,614.856 196.895,615.182 198.454,615.035 199.899,614.431 201.098,613.424 201.098,613.424 203.256,611.611 205.857,610.523 208.663,610.26 211.421,610.845 213.878,612.225 215.813,614.275 217.049,616.809 217.474,619.595 217.049,622.382 215.813,624.915 213.878,626.965 211.421,628.345 208.663,628.931 205.857,628.667 203.256,627.58 201.098,625.767 201.098,625.767 199.899,624.759 198.454,624.155 196.895,624.009 195.363,624.334 193.998,625.101 192.923,626.24 192.236,627.647 192,629.195 192,629.195 192,672 "/>
        <polyline fill="none" stroke="#000000" stroke-width="1" points="  288,576 288,608.939 288,608.939 287.788,610.363 287.171,611.663 286.202,612.727 284.965,613.462 283.567,613.806 282.13,613.727 280.778,613.234 279.629,612.368 279.629,612.368 277.56,610.809 275.126,609.921 272.54,609.78 270.024,610.398 267.798,611.722 266.053,613.637 264.942,615.977 264.561,618.539 264.942,621.102 266.053,623.442 267.798,625.357 270.024,626.681 272.54,627.299 275.126,627.158 277.56,626.269 279.629,624.711 279.629,624.711 280.778,623.845 282.13,623.351 283.567,623.273 284.965,623.616 286.202,624.352 287.171,625.416 287.788,626.716 288,628.139 288,628.139 288,672 "/>
        <polyline fill="none" stroke="#000000" stroke-width="1" points="  384,576 384,623.076 384,623.076 384.237,624.631 384.928,626.045 386.009,627.188 387.382,627.956 388.921,628.28 390.487,628.13 391.937,627.52 393.139,626.504 393.139,626.504 395.302,624.677 397.912,623.578 400.731,623.308 403.502,623.891 405.973,625.274 407.919,627.332 409.162,629.876 409.589,632.676 409.162,635.475 407.919,638.02 405.973,640.077 403.502,641.461 400.731,642.044 397.912,641.774 395.302,640.675 393.139,638.847 393.139,638.847 391.937,637.832 390.487,637.221 388.921,637.071 387.382,637.395 386.009,638.164 384.928,639.307 384.237,640.721 384,642.276 384,642.276 384,672 "/>
        <polyline fill="none" stroke="#000000" stroke-width="1" points="  480,576 480,620.439 480,620.439 479.75,622.062 479.021,623.533 477.884,624.716 476.442,625.501 474.83,625.815 473.199,625.628 471.701,624.958 470.474,623.868 470.474,623.868 468.265,621.904 465.567,620.698 462.632,620.362 459.731,620.927 457.136,622.34 455.088,624.47 453.777,627.119 453.326,630.039 453.777,632.96 455.088,635.608 457.136,637.738 459.731,639.151 462.632,639.716 465.567,639.38 468.265,638.174 470.474,636.211 470.474,636.211 471.701,635.12 473.199,634.45 474.83,634.263 476.442,634.577 477.884,635.362 479.021,636.545 479.75,638.017 480,639.639 480,639.639 480,672 "/>
        <polyline fill="none" stroke="#000000" stroke-width="1" points="  576,576 576,609.706 576,609.706 575.774,611.204 575.115,612.568 574.083,613.676 572.77,614.431 571.292,614.763 569.782,614.644 568.374,614.085 567.195,613.135 567.195,613.135 565.072,611.424 562.538,610.417 559.82,610.203 557.161,610.802 554.796,612.16 552.939,614.155 551.753,616.61 551.346,619.306 551.753,622.002 552.939,624.457 554.796,626.453 557.161,627.81 559.82,628.409 562.538,628.195 565.072,627.188 567.195,625.478 567.195,625.478 568.374,624.527 569.782,623.968 571.292,623.849 572.77,624.182 574.083,624.936 575.115,626.044 575.774,627.408 576,628.906 576,628.906 576,672 "/>
        <polyline fill="none" stroke="#000000" stroke-width="1" points="  672,576 672,622.36 672,622.36 671.743,624.016 670.996,625.516 669.83,626.719 668.354,627.513 666.707,627.821 665.043,627.616 663.521,626.917 662.281,625.789 662.281,625.789 660.051,623.758 657.31,622.499 654.316,622.129 651.351,622.685 648.694,624.113 646.595,626.279 645.251,628.979 644.788,631.96 645.251,634.941 646.595,637.641 648.694,639.807 651.351,641.235 654.316,641.79 657.31,641.421 660.051,640.162 662.281,638.131 662.281,638.131 663.521,637.003 665.043,636.304 666.707,636.099 668.354,636.407 669.83,637.2 670.996,638.404 671.743,639.904 672,641.56 672,641.56 672,672 "/>
        <polyline fill="none" stroke="#000000" stroke-width="1" points="  768,576 768,622.831 768,622.831 768.272,624.566 769.063,626.133 770.295,627.383 771.852,628.195 773.582,628.492 775.32,628.244 776.898,627.475 778.165,626.26 778.165,626.26 780.446,624.073 783.287,622.69 786.415,622.243 789.529,622.777 792.331,624.238 794.55,626.488 795.972,629.31 796.462,632.431 795.972,635.553 794.55,638.375 792.331,640.624 789.529,642.086 786.415,642.62 783.287,642.173 780.446,640.79 778.165,638.603 778.165,638.603 776.898,637.388 775.32,636.619 773.582,636.371 771.852,636.668 770.295,637.48 769.063,638.73 768.272,640.297 768,642.031 768,642.031 768,672 "/>
        <polyline fill="none" stroke="#000000" stroke-width="1" points="  864,576 864,605.197 864,605.197 864.249,606.811 864.972,608.275 866.103,609.454 867.537,610.237 869.139,610.552 870.762,610.37 872.255,609.707 873.479,608.626 873.479,608.626 875.682,606.679 878.369,605.486 881.29,605.158 884.175,605.725 886.755,607.135 888.791,609.256 890.093,611.891 890.541,614.797 890.093,617.702 888.791,620.338 886.755,622.459 884.175,623.869 881.29,624.436 878.369,624.108 875.682,622.915 873.479,620.968 873.479,620.968 872.255,619.887 870.762,619.224 869.139,619.042 867.537,619.357 866.103,620.14 864.972,621.318 864.249,622.783 864,624.397 864,624.397 864,672 "/>
    </g>
</svg>
