<?xml version="1.0" encoding="utf-8"?>
<!DOCTYPE svg PUBLIC "-//W3C//DTD SVG 1.0//EN" "http://www.w3.org/TR/2001/REC-SVG-20010904/DTD/svg10.dtd" [
<!ENTITY ns_svg "http://www.w3.org/2000/svg">
]>
<svg xmlns="&ns_svg;" width="288" height="288" overflow="visible">
    <g id="Layer_1">
        <rect x="0" y="0" rx="0" ry="0" width="288" height="288" fill="none" stroke="#000000"/>
        <polyline fill="none" stroke="#000000" stroke-width="1" points="  0,96 37.7849,96 37.7849,96 39.2293,95.7841 40.5474,95.1552 41.6239,94.1683 42.3648,92.9098 42.7052,91.4896 42.6154,90.0319 42.1033,88.6643 41.2135,87.5062 41.2135,87.5062 39.612,85.4216 38.6901,82.9598 38.5284,80.336 39.1412,77.7796 40.4748,75.5143 42.4125,73.7379 44.7851,72.6059 47.3849,72.2172 49.9848,72.6059 52.3574,73.7379 54.2951,75.5143 55.6287,77.7796 56.2414,80.336 56.0798,82.9598 55.1579,85.4216 53.5564,87.5062 53.5564,87.5062 52.6666,88.6643 52.1545,90.0319 52.0647,91.4896 52.4051,92.9098 53.1459,94.1683 54.2225,95.1552 55.5406,95.7841 56.9849,96 56.9849,96 96,96 "/>
        <polyline fill="none" stroke="#000000" stroke-width="1" points="  96,96 131.272,96 131.272,96 132.784,96.2292 134.161,96.8961 135.279,97.9411 136.037,99.2701 136.367,100.764 136.24,102.289 135.668,103.708 134.7,104.893 134.7,104.893 132.959,107.027 131.928,109.58 131.699,112.325 132.294,115.014 133.658,117.406 135.67,119.287 138.149,120.488 140.872,120.9 143.595,120.488 146.073,119.287 148.085,117.406 149.449,115.014 150.044,112.325 149.816,109.58 148.784,107.027 147.043,104.893 147.043,104.893 146.076,103.708 145.503,102.289 145.376,100.764 145.706,99.2701 146.464,97.9411 147.582,96.8961 148.959,96.2292 150.472,96 150.472,96 192,96 "/>
        <polyline fill="none" stroke="#000000" stroke-width="1" points="  192,96 237.871,96 237.871,96 239.608,96.2728 241.178,97.0649 242.43,98.3001 243.243,99.8595 243.538,101.593 243.289,103.334 242.518,104.914 241.299,106.182 241.299,106.182 239.106,108.465 237.718,111.31 237.268,114.443 237.801,117.563 239.264,120.37 241.517,122.593 244.343,124.019 247.471,124.51 250.598,124.019 253.424,122.593 255.677,120.37 257.14,117.563 257.673,114.443 257.223,111.31 255.835,108.465 253.642,106.182 253.642,106.182 252.424,104.914 251.652,103.334 251.403,101.593 251.699,99.8595 252.511,98.3001 253.763,97.0649 255.333,96.2728 257.071,96 257.071,96 288,96 "/>
        <polyline fill="none" stroke="#000000" stroke-width="1" points="  0,192 42.1752,192 42.1752,192 43.6838,191.772 45.0572,191.107 46.1724,190.066 46.9293,188.741 47.2603,187.251 47.1356,185.731 46.5665,184.315 45.6038,183.131 45.6038,183.131 43.871,181.001 42.8465,178.453 42.622,175.715 43.2178,173.034 44.5804,170.65 46.5876,168.775 49.0598,167.579 51.7752,167.168 54.4907,167.579 56.9628,168.775 58.9701,170.65 60.3326,173.034 60.9284,175.715 60.704,178.453 59.6794,181.001 57.9466,183.131 57.9466,183.131 56.984,184.315 56.4148,185.731 56.2901,187.251 56.6211,188.741 57.3781,190.066 58.4932,191.107 59.8666,191.772 61.3752,192 61.3752,192 96,192 "/>
        <polyline fill="none" stroke="#000000" stroke-width="1" points="  96,192 141.816,192 141.816,192 143.366,191.764 144.774,191.076 145.914,190 146.681,188.633 147.006,187.099 146.859,185.539 146.253,184.093 145.244,182.893 145.244,182.893 143.428,180.734 142.338,178.131 142.073,175.322 142.658,172.561 144.039,170.101 146.091,168.163 148.626,166.926 151.416,166.5 154.205,166.926 156.741,168.163 158.793,170.101 160.174,172.561 160.758,175.322 160.494,178.131 159.404,180.734 157.587,182.893 157.587,182.893 156.578,184.093 155.973,185.539 155.826,187.099 156.15,188.633 156.918,190 158.057,191.076 159.466,191.764 161.016,192 161.016,192 192,192 "/>
        <polyline fill="none" stroke="#000000" stroke-width="1" points="  192,192 222.329,192 222.329,192 224.056,192.271 225.617,193.057 226.863,194.284 227.674,195.833 227.971,197.556 227.727,199.288 226.965,200.861 225.757,202.126 225.757,202.126 223.584,204.402 222.211,207.234 221.772,210.351 222.307,213.452 223.766,216.241 226.008,218.449 228.819,219.865 231.929,220.352 235.038,219.865 237.849,218.449 240.091,216.241 241.55,213.452 242.085,210.351 241.646,207.234 240.273,204.402 238.1,202.126 238.1,202.126 236.892,200.861 236.13,199.288 235.886,197.556 236.183,195.833 236.994,194.284 238.24,193.057 239.801,192.271 241.529,192 241.529,192 288,192 "/>
        <polyline fill="none" stroke="#000000" stroke-width="1" points="  96,0 96,32.3059 96,32.3059 95.7692,33.827 95.0976,35.2111 94.0457,36.3338 92.708,37.0939 91.2052,37.423 89.6723,37.2915 88.2474,36.7113 87.0588,35.7345 87.0588,35.7345 84.9193,33.9762 82.3545,32.9317 79.5953,32.695 76.8901,33.2875 74.4824,34.6556 72.5889,36.6764 71.38,39.1679 70.9646,41.9059 71.38,44.6438 72.5889,47.1353 74.4824,49.1561 76.8901,50.5243 79.5953,51.1167 82.3545,50.88 84.9193,49.8356 87.0588,48.0773 87.0588,48.0773 88.2474,47.1005 89.6723,46.5202 91.2052,46.3888 92.708,46.7179 94.0457,47.478 95.0976,48.6006 95.7692,49.9848 96,51.5059 96,51.5059 96,96 "/>
        <polyline fill="none" stroke="#000000" stroke-width="1" points="  192,0 192,34.5481 192,34.5481 192.248,36.1589 192.97,37.6203 194.098,38.7967 195.528,39.5789 197.127,39.8945 198.746,39.7141 200.237,39.0544 201.459,37.9767 201.459,37.9767 203.66,36.0368 206.343,34.8495 209.259,34.5247 212.137,35.0927 214.71,36.5007 216.741,38.6182 218.04,41.2487 218.486,44.1481 218.04,47.0476 216.741,49.6781 214.71,51.7955 212.137,53.2036 209.259,53.7716 206.343,53.4468 203.66,52.2594 201.459,50.3196 201.459,50.3196 200.237,49.2419 198.746,48.5822 197.127,48.4018 195.528,48.7173 194.098,49.4996 192.97,50.6759 192.248,52.1373 192,53.7481 192,53.7481 192,96 "/>
        <polyline fill="none" stroke="#000000" stroke-width="1" points="  96,96 96,136.975 96,136.975 95.7819,138.431 95.1467,139.759 94.1503,140.842 92.88,141.586 91.4476,141.924 89.9788,141.828 88.6027,141.306 87.44,140.404 87.44,140.404 85.3471,138.779 82.87,137.839 80.2262,137.666 77.6478,138.276 75.3615,139.615 73.5678,141.565 72.4245,143.955 72.0319,146.575 72.4245,149.195 73.5678,151.585 75.3615,153.535 77.6478,154.874 80.2262,155.484 82.87,155.311 85.3471,154.371 87.44,152.746 87.44,152.746 88.6027,151.844 89.9788,151.322 91.4476,151.226 92.88,151.564 94.1503,152.308 95.1467,153.392 95.7819,154.719 96,156.175 96,156.175 96,192 "/>
        <polyline fill="none" stroke="#000000" stroke-width="1" points="  192,96 192,126.369 192,126.369 192.239,127.932 192.934,129.353 194.022,130.501 195.404,131.272 196.952,131.595 198.526,131.44 199.982,130.822 201.187,129.797 201.187,129.797 203.356,127.953 205.977,126.841 208.811,126.562 211.598,127.143 214.084,128.53 216.043,130.597 217.294,133.154 217.725,135.969 217.294,138.783 216.043,141.341 214.084,143.407 211.598,144.794 208.811,145.375 205.977,145.097 203.356,143.985 201.187,142.14 201.187,142.14 199.982,141.115 198.526,140.497 196.952,140.343 195.404,140.666 194.022,141.436 192.934,142.584 192.239,144.005 192,145.569 192,145.569 192,192 "/>
        <polyline fill="none" stroke="#000000" stroke-width="1" points="  96,192 96,238.502 96,238.502 95.773,240.004 95.1124,241.371 94.0771,242.482 92.7597,243.237 91.2779,243.569 89.7642,243.448 88.3538,242.886 87.1729,241.931 87.1729,241.931 85.0472,240.213 82.5086,239.2 79.7839,238.982 77.1167,239.58 74.7454,240.939 72.8819,242.939 71.6927,245.4 71.2841,248.102 71.6927,250.805 72.8819,253.266 74.7454,255.266 77.1167,256.625 79.7839,257.223 82.5086,257.005 85.0472,255.992 87.1729,254.274 87.1729,254.274 88.3538,253.319 89.7642,252.756 91.2779,252.636 92.7597,252.968 94.0771,253.723 95.1124,254.834 95.773,256.201 96,257.702 96,257.702 96,288 "/>
        <polyline fill="none" stroke="#000000" stroke-width="1" points="  192,192 192,224.437 192,224.437 192.251,226.061 192.98,227.534 194.119,228.718 195.562,229.503 197.175,229.817 198.808,229.629 200.308,228.958 201.535,227.865 201.535,227.865 203.745,225.899 206.445,224.691 209.383,224.353 212.287,224.917 214.885,226.331 216.935,228.463 218.248,231.114 218.699,234.037 218.248,236.96 216.935,239.611 214.885,241.743 212.287,243.157 209.383,243.721 206.445,243.383 203.745,242.175 201.535,240.208 201.535,240.208 200.308,239.116 198.808,238.444 197.175,238.257 195.562,238.57 194.119,239.356 192.98,240.54 192.251,242.013 192,243.637 192,243.637 192,288 "/>
    </g>
</svg>
