<?xml version="1.0" encoding="utf-8"?>
<!DOCTYPE svg PUBLIC "-//W3C//DTD SVG 1.0//EN" "http://www.w3.org/TR/2001/REC-SVG-20010904/DTD/svg10.dtd" [
<!ENTITY ns_svg "http://www.w3.org/2000/svg">
]>
<svg xmlns="&ns_svg;" width="288" height="576" overflow="visible">
    <g id="Layer_1">
        <rect x="0" y="0" rx="0" ry="0" width="288" height="576" fill="none" stroke="#000000"/>
        <polyline fill="none" stroke="#000000" stroke-width="1" points="  0,96 34.8318,96 34.8318,96 36.264,95.7864 37.5715,95.1643 38.6407,94.1878 39.3785,92.9419 39.7207,91.5349 39.6375,90.0892 39.1362,88.7308 38.2604,87.5777 38.2604,87.5777 36.6839,85.5021 35.7815,83.0568 35.6318,80.4547 36.2477,77.9221 37.5757,75.6794 39.5002,73.9217 41.8539,72.8019 44.4318,72.4175 47.0097,72.8019 49.3633,73.9217 51.2879,75.6794 52.6159,77.9221 53.2318,80.4547 53.0821,83.0568 52.1797,85.5021 50.6032,87.5777 50.6032,87.5777 49.7274,88.7308 49.2261,90.0892 49.1429,91.5349 49.4851,92.9419 50.2228,94.1878 51.292,95.1643 52.5996,95.7864 54.0318,96 54.0318,96 96,96 "/>
        <polyline fill="none" stroke="#000000" stroke-width="1" points="  96,96 136.15,96 136.15,96 137.755,96.2471 139.212,96.9656 140.385,98.0888 141.166,99.5129 141.482,101.106 141.305,102.72 140.65,104.207 139.578,105.427 139.578,105.427 137.65,107.624 136.472,110.299 136.152,113.205 136.722,116.073 138.127,118.636 140.239,120.658 142.861,121.951 145.75,122.396 148.639,121.951 151.261,120.658 153.372,118.636 154.778,116.073 155.348,113.205 155.028,110.299 153.85,107.624 151.921,105.427 151.921,105.427 150.85,104.207 150.195,102.72 150.018,101.106 150.334,99.5129 151.115,98.0888 152.288,96.9656 153.745,96.2471 155.35,96 155.35,96 192,96 "/>
        <polyline fill="none" stroke="#000000" stroke-width="1" points="  192,96 225.104,96 225.104,96 226.6,95.7741 227.962,95.1167 229.069,94.0864 229.823,92.775 230.156,91.2995 230.039,89.7915 229.481,88.3855 228.533,87.2068 228.533,87.2068 226.826,85.0853 225.823,82.5544 225.611,79.8401 226.21,77.1842 227.567,74.8237 229.56,72.969 232.012,71.7857 234.704,71.3792 237.396,71.7857 239.848,72.969 241.842,74.8237 243.198,77.1842 243.798,79.8401 243.586,82.5544 242.582,85.0853 240.876,87.2068 240.876,87.2068 239.928,88.3855 239.37,89.7915 239.252,91.2995 239.585,92.775 240.339,94.0864 241.446,95.1167 242.809,95.7741 244.304,96 244.304,96 288,96 "/>
        <polyline fill="none" stroke="#000000" stroke-width="1" points="  0,192 43.4511,192 43.4511,192 45.1599,191.733 46.7054,190.957 47.9402,189.746 48.7462,188.215 49.0466,186.512 48.8126,184.798 48.0665,183.238 46.8797,181.98 46.8797,181.98 44.7434,179.716 43.4005,176.907 42.9792,173.823 43.5199,170.757 44.9708,168.002 47.1934,165.822 49.9754,164.425 53.0511,163.944 56.1269,164.425 58.9089,165.822 61.1315,168.002 62.5824,170.757 63.123,173.823 62.7017,176.907 61.3588,179.716 59.2225,181.98 59.2225,181.98 58.0357,183.238 57.2897,184.798 57.0556,186.512 57.356,188.215 58.162,189.746 59.3968,190.957 60.9424,191.733 62.6511,192 62.6511,192 96,192 "/>
        <polyline fill="none" stroke="#000000" stroke-width="1" points="  96,192 130.611,192 130.611,192 132.136,192.232 133.523,192.905 134.648,193.96 135.409,195.302 135.738,196.808 135.604,198.345 135.021,199.773 134.04,200.963 134.04,200.963 132.274,203.105 131.223,205.674 130.983,208.44 131.575,211.152 132.944,213.567 134.969,215.466 137.466,216.679 140.211,217.095 142.956,216.679 145.453,215.466 147.478,213.567 148.847,211.152 149.439,208.44 149.198,205.674 148.148,203.105 146.382,200.963 146.382,200.963 145.401,199.773 144.818,198.345 144.684,196.808 145.013,195.302 145.774,193.96 146.899,192.905 148.286,192.232 149.811,192 149.811,192 192,192 "/>
        <polyline fill="none" stroke="#000000" stroke-width="1" points="  192,192 230.371,192 230.371,192 232.009,191.747 233.494,191.01 234.687,189.859 235.475,188.401 235.787,186.773 235.592,185.127 234.908,183.617 233.8,182.384 233.8,182.384 231.805,180.165 230.574,177.447 230.223,174.485 230.783,171.554 232.203,168.93 234.35,166.858 237.023,165.532 239.971,165.076 242.92,165.532 245.592,166.858 247.739,168.93 249.159,171.554 249.719,174.485 249.368,177.447 248.137,180.165 246.142,182.384 246.142,182.384 245.034,183.617 244.351,185.127 244.155,186.773 244.467,188.401 245.256,189.859 246.448,191.01 247.933,191.747 249.571,192 249.571,192 288,192 "/>
        <polyline fill="none" stroke="#000000" stroke-width="1" points="  0,288 32.6197,288 32.6197,288 34.1141,287.774 35.4754,287.118 36.582,286.088 37.3355,284.778 37.6685,283.304 37.5516,281.797 36.9949,280.392 36.0483,279.214 36.0483,279.214 34.3443,277.093 33.3424,274.564 33.1318,271.851 33.7314,269.198 35.0876,266.84 37.0796,264.987 39.5297,263.805 42.2197,263.399 44.9097,263.805 47.3599,264.987 49.3519,266.84 50.7081,269.198 51.3076,271.851 51.097,274.564 50.0951,277.093 48.3911,279.214 48.3911,279.214 47.4445,280.392 46.8879,281.797 46.7709,283.304 47.104,284.778 47.8574,286.088 48.9641,287.118 50.3253,287.774 51.8197,288 51.8197,288 96,288 "/>
        <polyline fill="none" stroke="#000000" stroke-width="1" points="  96,288 126.648,288 126.648,288 128.054,287.791 129.34,287.184 130.393,286.229 131.125,285.01 131.47,283.631 131.401,282.211 130.923,280.872 130.077,279.729 130.077,279.729 128.474,277.521 127.632,274.926 127.633,272.198 128.477,269.603 130.081,267.396 132.289,265.793 134.884,264.95 137.612,264.95 140.207,265.793 142.415,267.396 144.019,269.603 144.863,272.198 144.864,274.926 144.022,277.521 142.419,279.729 142.419,279.729 141.573,280.872 141.095,282.211 141.026,283.631 141.371,285.01 142.103,286.229 143.156,287.184 144.442,287.791 145.848,288 145.848,288 192,288 "/>
        <polyline fill="none" stroke="#000000" stroke-width="1" points="  192,288 235.004,288 235.004,288 236.51,288.228 237.882,288.891 238.996,289.931 239.752,291.253 240.083,292.74 239.96,294.258 239.393,295.672 238.433,296.855 238.433,296.855 236.705,298.984 235.684,301.529 235.462,304.262 236.058,306.939 237.42,309.319 239.424,311.19 241.893,312.384 244.604,312.794 247.315,312.384 249.784,311.19 251.789,309.319 253.15,306.939 253.747,304.262 253.524,301.529 252.504,298.984 250.776,296.855 250.776,296.855 249.816,295.672 249.248,294.258 249.125,292.74 249.456,291.253 250.213,289.931 251.326,288.891 252.698,288.228 254.204,288 254.204,288 288,288 "/>
        <polyline fill="none" stroke="#000000" stroke-width="1" points="  0,384 36.1208,384 36.1208,384 37.8087,383.737 39.3364,382.972 40.5587,381.779 41.3597,380.27 41.6634,378.589 41.4408,376.895 40.7131,375.35 39.5494,374.099 39.5494,374.099 37.4548,371.848 36.145,369.066 35.7443,366.017 36.2908,362.991 37.7326,360.275 39.9329,358.127 42.6826,356.751 45.7208,356.277 48.759,356.751 51.5088,358.127 53.709,360.275 55.1509,362.991 55.6974,366.017 55.2967,369.066 53.9869,371.848 51.8923,374.099 51.8923,374.099 50.7286,375.35 50.0009,376.895 49.7783,378.589 50.0819,380.27 50.8829,381.779 52.1053,382.972 53.6329,383.737 55.3208,384 55.3208,384 96,384 "/>
        <polyline fill="none" stroke="#000000" stroke-width="1" points="  96,384 128.325,384 128.325,384 130.091,383.722 131.686,382.913 132.955,381.654 133.775,380.065 134.066,378.301 133.8,376.533 133.004,374.933 131.754,373.655 131.754,373.655 129.503,371.354 128.07,368.473 127.592,365.291 128.116,362.116 129.592,359.256 131.876,356.989 134.746,355.534 137.925,355.033 141.104,355.534 143.975,356.989 146.258,359.256 147.734,362.116 148.258,365.291 147.781,368.473 146.347,371.354 144.097,373.655 144.097,373.655 142.846,374.933 142.05,376.533 141.785,378.301 142.076,380.065 142.896,381.654 144.165,382.913 145.759,383.722 147.525,384 147.525,384 192,384 "/>
        <polyline fill="none" stroke="#000000" stroke-width="1" points="  192,384 228.923,384 228.923,384 230.694,383.721 232.293,382.91 233.565,381.646 234.386,380.052 234.677,378.282 234.408,376.509 233.607,374.905 232.351,373.625 232.351,373.625 230.091,371.322 228.649,368.434 228.166,365.243 228.689,362.058 230.167,359.189 232.456,356.913 235.335,355.454 238.523,354.951 241.711,355.454 244.59,356.913 246.879,359.189 248.357,362.058 248.88,365.243 248.397,368.434 246.955,371.322 244.694,373.625 244.694,373.625 243.438,374.905 242.637,376.509 242.369,378.282 242.66,380.052 243.481,381.646 244.753,382.91 246.352,383.721 248.123,384 248.123,384 288,384 "/>
        <polyline fill="none" stroke="#000000" stroke-width="1" points="  0,480 29.1342,480 29.1342,480 30.625,480.225 31.983,480.88 33.0875,481.906 33.84,483.212 34.1736,484.683 34.0586,486.186 33.5053,487.588 32.5628,488.765 32.5628,488.765 30.8663,490.883 29.8702,493.407 29.6632,496.113 30.2637,498.76 31.6183,501.111 33.6063,502.958 36.0508,504.137 38.7342,504.542 41.4176,504.137 43.8621,502.958 45.8501,501.111 47.2047,498.76 47.8052,496.113 47.5982,493.407 46.6021,490.883 44.9056,488.765 44.9056,488.765 43.9631,487.588 43.4098,486.186 43.2948,484.683 43.6284,483.212 44.3809,481.906 45.4854,480.88 46.8434,480.225 48.3342,480 48.3342,480 96,480 "/>
        <polyline fill="none" stroke="#000000" stroke-width="1" points="  96,480 133.339,480 133.339,480 134.741,480.208 136.023,480.814 137.075,481.765 137.805,482.98 138.152,484.355 138.084,485.772 137.609,487.108 136.767,488.249 136.767,488.249 135.173,490.454 134.337,493.043 134.341,495.765 135.186,498.351 136.787,500.551 138.99,502.149 141.578,502.989 144.299,502.989 146.887,502.149 149.09,500.551 150.692,498.351 151.536,495.765 151.54,493.043 150.704,490.454 149.11,488.249 149.11,488.249 148.268,487.108 147.793,485.772 147.726,484.355 148.072,482.98 148.803,481.765 149.854,480.814 151.136,480.208 152.539,480 152.539,480 192,480 "/>
        <polyline fill="none" stroke="#000000" stroke-width="1" points="  192,480 233.024,480 233.024,480 234.501,479.778 235.847,479.131 236.943,478.116 237.693,476.824 238.028,475.368 237.921,473.878 237.379,472.486 236.452,471.314 236.452,471.314 234.784,469.206 233.809,466.7 233.615,464.018 234.22,461.398 235.568,459.072 237.541,457.245 239.965,456.08 242.624,455.68 245.283,456.08 247.706,457.245 249.679,459.072 251.028,461.398 251.632,464.018 251.438,466.7 250.464,469.206 248.795,471.314 248.795,471.314 247.868,472.486 247.327,473.878 247.219,475.368 247.555,476.824 248.304,478.116 249.4,479.131 250.746,479.778 252.224,480 252.224,480 288,480 "/>
        <polyline fill="none" stroke="#000000" stroke-width="1" points="  96,0 96,46.3215 96,46.3215 95.7521,47.9307 95.0314,49.3906 93.9048,50.5661 92.4766,51.3479 90.8794,51.6637 89.2611,51.4842 87.7719,50.8259 86.5499,49.75 86.5499,49.75 84.3502,47.8135 81.6697,46.6287 78.7568,46.3055 75.8818,46.8739 73.3111,48.2812 71.2831,50.397 69.9859,53.0249 69.5397,55.9215 69.9859,58.818 71.2831,61.446 73.3111,63.5617 75.8818,64.969 78.7568,65.5375 81.6697,65.2143 84.3502,64.0295 86.5499,62.0929 86.5499,62.0929 87.7719,61.017 89.2611,60.3588 90.8794,60.1793 92.4766,60.4951 93.9048,61.2769 95.0314,62.4523 95.7521,63.9123 96,65.5215 96,65.5215 96,96 "/>
        <polyline fill="none" stroke="#000000" stroke-width="1" points="  192,0 192,37.5167 192,37.5167 191.774,39.0115 191.117,40.373 190.088,41.4799 188.777,42.2335 187.302,42.5665 185.795,42.4493 184.39,41.8923 183.211,40.9452 183.211,40.9452 181.09,39.2405 178.561,38.2379 175.848,38.027 173.193,38.6264 170.834,39.9828 168.981,41.9752 167.798,44.426 167.392,47.1167 167.798,49.8074 168.981,52.2581 170.834,54.2505 173.193,55.6069 175.848,56.2064 178.561,55.9954 181.09,54.9928 183.211,53.2881 183.211,53.2881 184.39,52.341 185.795,51.784 187.302,51.6668 188.777,51.9999 190.088,52.7534 191.117,53.8603 191.774,55.2219 192,56.7167 192,56.7167 192,96 "/>
        <polyline fill="none" stroke="#000000" stroke-width="1" points="  96,96 96,133.363 96,133.363 95.7346,135.062 94.9638,136.599 93.761,137.828 92.2407,138.632 90.5478,138.934 88.8434,138.705 87.2899,137.967 86.0353,136.791 86.0353,136.791 83.777,134.674 80.9807,133.347 77.9128,132.935 74.8655,133.478 72.129,134.925 69.9639,137.137 68.5765,139.904 68.0988,142.963 68.5765,146.021 69.9639,148.788 72.129,151 74.8655,152.447 77.9128,152.99 80.9807,152.579 83.777,151.251 86.0353,149.134 86.0353,149.134 87.2899,147.958 88.8434,147.22 90.5478,146.992 92.2407,147.294 93.761,148.097 94.9638,149.326 95.7346,150.864 96,152.563 96,152.563 96,192 "/>
        <polyline fill="none" stroke="#000000" stroke-width="1" points="  192,96 192,138.198 192,138.198 191.746,139.839 191.008,141.326 189.854,142.521 188.393,143.31 186.762,143.621 185.114,143.424 183.602,142.738 182.368,141.627 182.368,141.627 180.147,139.626 177.426,138.391 174.458,138.037 171.522,138.597 168.893,140.018 166.816,142.168 165.487,144.845 165.03,147.798 165.487,150.752 166.816,153.429 168.893,155.579 171.522,157 174.458,157.56 177.426,157.205 180.147,155.97 182.368,153.97 182.368,153.97 183.602,152.858 185.114,152.172 186.762,151.975 188.393,152.286 189.854,153.076 191.008,154.27 191.746,155.757 192,157.398 192,157.398 192,192 "/>
        <polyline fill="none" stroke="#000000" stroke-width="1" points="  96,192 96,227.248 96,227.248 96.2407,228.82 96.9408,230.249 98.0361,231.402 99.4263,232.175 100.984,232.496 102.567,232.337 104.029,231.711 105.237,230.677 105.237,230.677 107.412,228.815 110.044,227.689 112.893,227.402 115.697,227.981 118.199,229.372 120.171,231.447 121.431,234.018 121.864,236.848 121.431,239.678 120.171,242.249 118.199,244.325 115.697,245.716 112.893,246.295 110.044,246.008 107.412,244.882 105.237,243.02 105.237,243.02 104.029,241.985 102.567,241.36 100.984,241.2 99.4263,241.522 98.0361,242.295 96.9408,243.448 96.2407,244.876 96,246.448 96,246.448 96,288 "/>
        <polyline fill="none" stroke="#000000" stroke-width="1" points="  192,192 192,235.588 192,235.588 191.754,237.187 191.039,238.638 189.921,239.807 188.504,240.587 186.917,240.904 185.309,240.73 183.827,240.081 182.609,239.017 182.609,239.017 180.416,237.101 177.749,235.932 174.854,235.619 171.998,236.19 169.447,237.593 167.434,239.698 166.147,242.31 165.705,245.188 166.147,248.066 167.434,250.678 169.447,252.783 171.998,254.186 174.854,254.757 177.749,254.444 180.416,253.275 182.609,251.359 182.609,251.359 183.827,250.295 185.309,249.646 186.917,249.472 188.504,249.789 189.921,250.569 191.039,251.738 191.754,253.189 192,254.788 192,254.788 192,288 "/>
        <polyline fill="none" stroke="#000000" stroke-width="1" points="  96,288 96,324.367 96,324.367 96.2142,325.803 96.8383,327.113 97.8179,328.185 99.0675,328.923 100.478,329.265 101.927,329.18 103.289,328.675 104.443,327.796 104.443,327.796 106.521,326.212 108.971,325.304 111.58,325.15 114.119,325.765 116.369,327.095 118.132,329.023 119.255,331.383 119.641,333.967 119.255,336.551 118.132,338.91 116.369,340.839 114.119,342.168 111.58,342.783 108.971,342.63 106.521,341.722 104.443,340.138 104.443,340.138 103.289,339.258 101.927,338.754 100.478,338.669 99.0675,339.011 97.8179,339.749 96.8383,340.821 96.2142,342.131 96,343.567 96,343.567 96,384 "/>
        <polyline fill="none" stroke="#000000" stroke-width="1" points="  192,288 192,334.132 192,334.132 192.254,335.773 192.993,337.261 194.146,338.455 195.607,339.245 197.238,339.556 198.887,339.359 200.399,338.672 201.633,337.561 201.633,337.561 203.854,335.56 206.576,334.325 209.544,333.97 212.48,334.53 215.109,335.951 217.186,338.101 218.515,340.778 218.972,343.732 218.515,346.686 217.186,349.363 215.109,351.513 212.48,352.935 209.544,353.494 206.576,353.14 203.854,351.904 201.633,349.904 201.633,349.904 200.399,348.792 198.887,348.106 197.238,347.909 195.607,348.22 194.146,349.009 192.993,350.204 192.254,351.691 192,353.332 192,353.332 192,384 "/>
        <polyline fill="none" stroke="#000000" stroke-width="1" points="  96,384 96,422.376 96,422.376 95.7433,424.031 94.9974,425.53 93.8323,426.732 92.3577,427.525 90.7121,427.834 89.0503,427.629 87.5286,426.931 86.2899,425.805 86.2899,425.805 84.0604,423.777 81.3212,422.52 78.33,422.152 75.368,422.708 72.7136,424.135 70.6165,426.3 69.2738,428.998 68.8118,431.976 69.2738,434.954 70.6165,437.652 72.7136,439.817 75.368,441.244 78.33,441.8 81.3212,441.432 84.0604,440.175 86.2899,438.148 86.2899,438.148 87.5286,437.021 89.0503,436.323 90.7121,436.118 92.3577,436.427 93.8323,437.22 94.9974,438.423 95.7433,439.922 96,441.576 96,441.576 96,480 "/>
        <polyline fill="none" stroke="#000000" stroke-width="1" points="  192,384 192,429.365 192,429.365 191.738,431.046 190.978,432.568 189.79,433.786 188.289,434.585 186.615,434.89 184.928,434.671 183.388,433.95 182.139,432.794 182.139,432.794 179.893,430.713 177.12,429.415 174.083,429.021 171.071,429.57 168.368,431.008 166.231,433.201 164.862,435.94 164.391,438.965 164.862,441.991 166.231,444.73 168.368,446.922 171.071,448.361 174.083,448.909 177.12,448.516 179.893,447.217 182.139,445.137 182.139,445.137 183.388,443.981 184.928,443.259 186.615,443.041 188.289,443.345 189.79,444.145 190.978,445.363 191.738,446.884 192,448.565 192,448.565 192,480 "/>
        <polyline fill="none" stroke="#000000" stroke-width="1" points="  96,480 96,524.749 96,524.749 96.215,526.188 96.8411,527.502 97.8238,528.575 99.0773,529.315 100.492,529.656 101.945,529.569 103.309,529.061 104.465,528.177 104.465,528.177 106.546,526.586 109.001,525.672 111.616,525.515 114.163,526.129 116.419,527.46 118.188,529.393 119.315,531.757 119.702,534.349 119.315,536.94 118.188,539.304 116.419,541.237 114.163,542.568 111.616,543.182 109.001,543.025 106.546,542.111 104.465,540.52 104.465,540.52 103.309,539.636 101.945,539.128 100.492,539.041 99.0773,539.382 97.8238,540.122 96.8411,541.195 96.215,542.509 96,543.949 96,543.949 96,576 "/>
        <polyline fill="none" stroke="#000000" stroke-width="1" points="  192,480 192,522.461 192,522.461 191.724,524.215 190.923,525.799 189.673,527.06 188.097,527.877 186.346,528.17 184.59,527.912 182.998,527.126 181.724,525.889 181.724,525.889 179.431,523.663 176.565,522.249 173.404,521.783 170.252,522.311 167.415,523.781 165.166,526.052 163.724,528.904 163.227,532.061 163.724,535.218 165.166,538.069 167.415,540.34 170.252,541.81 173.404,542.338 176.565,541.873 179.431,540.458 181.724,538.232 181.724,538.232 182.998,536.995 184.59,536.21 186.346,535.951 188.097,536.244 189.673,537.061 190.923,538.323 191.724,539.907 192,541.661 192,541.661 192,576 "/>
    </g>
</svg>
