<?xml version="1.0" encoding="utf-8"?>
<!DOCTYPE svg PUBLIC "-//W3C//DTD SVG 1.0//EN" "http://www.w3.org/TR/2001/REC-SVG-20010904/DTD/svg10.dtd" [
<!ENTITY ns_svg "http://www.w3.org/2000/svg">
]>
<svg xmlns="&ns_svg;" width="288" height="288" overflow="visible">
    <g id="Layer_1">
        <rect x="0" y="0" rx="0" ry="0" width="288" height="288" fill="none" stroke="#000000"/>
        <polyline fill="none" stroke="#000000" stroke-width="1" points="  0,72 22.3982,72 22.3982,72 23.5734,72.1798 24.6411,72.7026 25.5037,73.5207 26.0823,74.5593 26.324,75.7234 26.2066,76.9064 25.741,78.0003 24.9696,78.905 24.9696,78.905 23.5812,80.5334 22.743,82.5023 22.5318,84.6319 22.9668,86.7271 24.0083,88.5966 25.561,90.0692 27.4829,91.0103 29.5982,91.3339 31.7136,91.0103 33.6355,90.0692 35.1881,88.5966 36.2296,86.7271 36.6646,84.6319 36.4534,82.5023 35.6152,80.5334 34.2268,78.905 34.2268,78.905 33.4554,78.0003 32.9898,76.9064 32.8724,75.7234 33.1141,74.5593 33.6927,73.5207 34.5553,72.7026 35.623,72.1798 36.7982,72 36.7982,72 72,72 "/>
        <polyline fill="none" stroke="#000000" stroke-width="1" points="  72,72 99.5793,72 99.5793,72 100.788,72.1862 101.884,72.7277 102.767,73.5741 103.354,74.647 103.59,75.8468 103.455,77.0621 102.96,78.1802 102.151,79.0974 102.151,79.0974 100.695,80.7483 99.8036,82.7609 99.5595,84.9484 99.9854,87.108 101.042,89.0392 102.63,90.5627 104.604,91.5374 106.779,91.8726 108.955,91.5374 110.928,90.5627 112.517,89.0392 113.573,87.108 113.999,84.9484 113.755,82.7609 112.864,80.7483 111.408,79.0974 111.408,79.0974 110.599,78.1802 110.104,77.0621 109.968,75.8468 110.205,74.647 110.792,73.5741 111.674,72.7277 112.771,72.1862 113.979,72 113.979,72 144,72 "/>
        <polyline fill="none" stroke="#000000" stroke-width="1" points="  144,72 169.919,72 169.919,72 170.978,72.1572 171.945,72.6154 172.738,73.3349 173.288,74.2537 173.546,75.2926 173.492,76.3618 173.13,77.3691 172.49,78.2277 172.49,78.2277 171.339,79.7731 170.686,81.5864 170.589,83.511 171.055,85.3809 172.044,87.0348 173.471,88.3299 175.212,89.1546 177.119,89.4376 179.025,89.1546 180.767,88.3299 182.194,87.0348 183.183,85.3809 183.648,83.511 183.551,81.5864 182.898,79.7731 181.747,78.2277 181.747,78.2277 181.108,77.3691 180.745,76.3618 180.691,75.2926 180.95,74.2537 181.499,73.3349 182.292,72.6154 183.26,72.1572 184.319,72 184.319,72 216,72 "/>
        <polyline fill="none" stroke="#000000" stroke-width="1" points="  216,72 250.193,72 250.193,72 251.463,72.1982 252.612,72.774 253.532,73.6726 254.133,74.8086 254.361,76.0739 254.191,77.3483 253.642,78.5105 252.764,79.45 252.764,79.45 251.185,81.141 250.196,83.233 249.891,85.5268 250.3,87.8044 251.383,89.8492 253.038,91.4667 255.107,92.5031 257.393,92.8599 259.679,92.5031 261.748,91.4667 263.403,89.8492 264.486,87.8044 264.895,85.5268 264.59,83.233 263.601,81.141 262.021,79.45 262.021,79.45 261.144,78.5105 260.594,77.3483 260.425,76.0739 260.652,74.8086 261.254,73.6726 262.173,72.774 263.323,72.1982 264.593,72 264.593,72 288,72 "/>
        <polyline fill="none" stroke="#000000" stroke-width="1" points="  0,144 35.6311,144 35.6311,144 36.9163,143.799 38.0787,143.215 39.007,142.303 39.6124,141.152 39.8371,139.87 39.6595,138.582 39.0967,137.409 38.2025,136.464 38.2025,136.464 36.5929,134.763 35.5798,132.652 35.2602,130.332 35.6646,128.026 36.7544,125.953 38.4253,124.313 40.5176,123.261 42.8311,122.899 45.1446,123.261 47.2368,124.313 48.9077,125.953 49.9975,128.026 50.4019,130.332 50.0823,132.652 49.0693,134.763 47.4596,136.464 47.4596,136.464 46.5654,137.409 46.0026,138.582 45.825,139.87 46.0497,141.152 46.6551,142.303 47.5834,143.215 48.7458,143.799 50.0311,144 50.0311,144 72,144 "/>
        <polyline fill="none" stroke="#000000" stroke-width="1" points="  72,144 102.275,144 102.275,144 103.505,144.19 104.619,144.744 105.514,145.608 106.106,146.702 106.34,147.925 106.193,149.16 105.679,150.294 104.846,151.219 104.846,151.219 103.348,152.884 102.423,154.923 102.158,157.148 102.578,159.348 103.644,161.318 105.255,162.874 107.261,163.87 109.475,164.212 111.688,163.87 113.695,162.874 115.306,161.318 116.372,159.348 116.792,157.148 116.527,154.923 115.602,152.884 114.103,151.219 114.103,151.219 113.271,150.294 112.757,149.16 112.61,147.925 112.843,146.702 113.435,145.608 114.331,144.744 115.445,144.19 116.675,144 116.675,144 144,144 "/>
        <polyline fill="none" stroke="#000000" stroke-width="1" points="  144,144 176.263,144 176.263,144 177.507,143.807 178.634,143.246 179.538,142.369 180.134,141.26 180.365,140.022 180.21,138.773 179.683,137.629 178.835,136.699 178.835,136.699 177.308,135.025 176.36,132.966 176.081,130.718 176.497,128.49 177.569,126.493 179.195,124.916 181.224,123.905 183.463,123.558 185.703,123.905 187.731,124.916 189.358,126.493 190.43,128.49 190.846,130.718 190.567,132.966 189.619,135.025 188.092,136.699 188.092,136.699 187.243,137.629 186.717,138.773 186.562,140.022 186.793,141.26 187.389,142.369 188.292,143.246 189.419,143.807 190.663,144 190.663,144 216,144 "/>
        <polyline fill="none" stroke="#000000" stroke-width="1" points="  216,144 242.616,144 242.616,144 243.934,144.208 245.125,144.81 246.073,145.75 246.686,146.935 246.906,148.252 246.71,149.572 246.118,150.768 245.187,151.724 245.187,151.724 243.512,153.446 242.446,155.599 242.094,157.976 242.489,160.345 243.593,162.479 245.299,164.17 247.443,165.255 249.816,165.629 252.189,165.255 254.332,164.17 256.039,162.479 257.143,160.345 257.538,157.976 257.186,155.599 256.12,153.446 254.444,151.724 254.444,151.724 253.513,150.768 252.921,149.572 252.726,148.252 252.945,146.935 253.559,145.75 254.507,144.81 255.697,144.208 257.016,144 257.016,144 288,144 "/>
        <polyline fill="none" stroke="#000000" stroke-width="1" points="  0,216 35.1655,216 35.1655,216 36.3453,216.181 37.417,216.706 38.2824,217.528 38.8621,218.571 39.1031,219.74 38.9832,220.928 38.5135,222.025 37.7369,222.932 37.7369,222.932 36.3391,224.563 35.4936,226.538 35.2778,228.676 35.7115,230.78 36.755,232.658 38.3127,234.138 40.2418,235.084 42.3655,235.409 44.4892,235.084 46.4183,234.138 47.9759,232.658 49.0195,230.78 49.4532,228.676 49.2374,226.538 48.3919,224.563 46.9941,222.932 46.9941,222.932 46.2175,222.025 45.7478,220.928 45.6279,219.74 45.8688,218.571 46.4486,217.528 47.3139,216.706 48.3857,216.181 49.5655,216 49.5655,216 72,216 "/>
        <polyline fill="none" stroke="#000000" stroke-width="1" points="  72,216 97.5641,216 97.5641,216 98.6286,215.842 99.601,215.38 100.397,214.656 100.948,213.732 101.206,212.687 101.149,211.612 100.781,210.601 100.135,209.74 100.135,209.74 98.9729,208.19 98.3115,206.369 98.2085,204.435 98.673,202.554 99.6646,200.89 101.098,199.586 102.848,198.756 104.764,198.471 106.68,198.756 108.431,199.586 109.864,200.89 110.855,202.554 111.32,204.435 111.217,206.369 110.555,208.19 109.393,209.74 109.393,209.74 108.747,210.601 108.379,211.612 108.322,212.687 108.58,213.732 109.131,214.656 109.927,215.38 110.9,215.842 111.964,216 111.964,216 144,216 "/>
        <polyline fill="none" stroke="#000000" stroke-width="1" points="  144,216 177.497,216 177.497,216 178.563,216.159 179.537,216.621 180.334,217.346 180.885,218.272 181.143,219.319 181.085,220.395 180.716,221.408 180.068,222.269 180.068,222.269 178.902,223.82 178.238,225.643 178.134,227.58 178.598,229.464 179.59,231.131 181.025,232.437 182.778,233.269 184.697,233.555 186.616,233.269 188.368,232.437 189.803,231.131 190.795,229.464 191.259,227.58 191.155,225.643 190.491,223.82 189.325,222.269 189.325,222.269 188.678,221.408 188.309,220.395 188.251,219.319 188.509,218.272 189.06,217.346 189.857,216.621 190.831,216.159 191.897,216 191.897,216 216,216 "/>
        <polyline fill="none" stroke="#000000" stroke-width="1" points="  216,216 243.494,216 243.494,216 244.595,215.835 245.598,215.353 246.416,214.599 246.976,213.637 247.229,212.553 247.152,211.443 246.752,210.404 246.066,209.529 246.066,209.529 244.829,207.953 244.11,206.083 243.972,204.085 244.427,202.134 245.435,200.403 246.907,199.045 248.713,198.178 250.694,197.881 252.675,198.178 254.481,199.045 255.953,200.403 256.961,202.134 257.416,204.085 257.278,206.083 256.559,207.953 255.323,209.529 255.323,209.529 254.636,210.404 254.236,211.443 254.16,212.553 254.412,213.637 254.972,214.599 255.79,215.353 256.794,215.835 257.894,216 257.894,216 288,216 "/>
        <polyline fill="none" stroke="#000000" stroke-width="1" points="  72,0 72,26.7851 72,26.7851 72.1683,27.9011 72.6582,28.9179 73.4261,29.745 74.4038,30.3089 75.5043,30.5594 76.6297,30.4742 77.68,30.061 78.5617,29.3565 78.5617,29.3565 80.1488,28.0884 82.0393,27.3446 84.0651,27.1914 86.0459,27.6423 87.8057,28.6573 89.188,30.1461 90.0698,31.9762 90.3727,33.9851 90.0698,35.9939 89.188,37.8241 87.8057,39.3129 86.0459,40.3279 84.0651,40.7788 82.0393,40.6256 80.1488,39.8818 78.5617,38.6137 78.5617,38.6137 77.68,37.9091 76.6297,37.4959 75.5043,37.4108 74.4038,37.6613 73.4261,38.2252 72.6582,39.0523 72.1683,40.0691 72,41.1851 72,41.1851 72,72 "/>
        <polyline fill="none" stroke="#000000" stroke-width="1" points="  144,0 144,25.6016 144,25.6016 143.829,26.7326 143.331,27.7623 142.55,28.5985 141.557,29.1661 140.44,29.4144 139.3,29.3211 138.239,28.8946 137.351,28.173 137.351,28.173 135.753,26.8742 133.843,26.1065 131.79,25.9385 129.78,26.3854 127.993,27.4072 126.587,28.9122 125.691,30.7657 125.382,32.8016 125.691,34.8375 126.587,36.6909 127.993,38.196 129.78,39.2177 131.79,39.6646 133.843,39.4967 135.753,38.7289 137.351,37.4302 137.351,37.4302 138.239,36.7086 139.3,36.2821 140.44,36.1888 141.557,36.4371 142.55,37.0047 143.331,37.8408 143.829,38.8705 144,40.0016 144,40.0016 144,72 "/>
        <polyline fill="none" stroke="#000000" stroke-width="1" points="  216,0 216,33.4486 216,33.4486 215.8,34.7266 215.22,35.8827 214.315,36.8067 213.171,37.4104 211.897,37.6362 210.615,37.4626 209.447,36.9062 208.505,36.02 208.505,36.02 206.809,34.4248 204.707,33.4233 202.4,33.1108 200.107,33.5173 198.048,34.6039 196.418,36.2671 195.374,38.3481 195.015,40.6486 195.374,42.949 196.418,45.0301 198.048,46.6932 200.107,47.7799 202.4,48.1863 204.707,47.8739 206.809,46.8723 208.505,45.2772 208.505,45.2772 209.447,44.3909 210.615,43.8345 211.897,43.6609 213.171,43.8868 214.315,44.4904 215.22,45.4144 215.8,46.5706 216,47.8486 216,47.8486 216,72 "/>
        <polyline fill="none" stroke="#000000" stroke-width="1" points="  72,72 72,96.3701 72,96.3701 71.8044,97.627 71.236,98.765 70.3486,99.6764 69.2262,100.275 67.9749,100.504 66.7132,100.342 65.5605,99.8042 64.6257,98.9415 64.6257,98.9415 62.9431,97.3886 60.8682,96.4205 58.5971,96.1289 56.3449,96.5413 54.3245,97.6187 52.7272,99.2592 51.7041,101.308 51.352,103.57 51.7041,105.833 52.7272,107.881 54.3245,109.521 56.3449,110.599 58.5971,111.011 60.8682,110.72 62.9431,109.752 64.6257,108.199 64.6257,108.199 65.5605,107.336 66.7132,106.798 67.9749,106.636 69.2262,106.865 70.3486,107.464 71.236,108.375 71.8044,109.513 72,110.77 72,110.77 72,144 "/>
        <polyline fill="none" stroke="#000000" stroke-width="1" points="  144,72 144,103.131 144,103.131 144.19,104.36 144.743,105.474 145.607,106.369 146.701,106.96 147.922,107.194 149.157,107.047 150.29,106.534 151.214,105.702 151.214,105.702 152.879,104.206 154.918,103.282 157.141,103.018 159.339,103.438 161.308,104.503 162.863,106.114 163.858,108.119 164.2,110.331 163.858,112.543 162.863,114.548 161.308,116.159 159.339,117.224 157.141,117.644 154.918,117.38 152.879,116.456 151.214,114.96 151.214,114.96 150.29,114.128 149.157,113.615 147.922,113.468 146.701,113.701 145.607,114.293 144.743,115.188 144.19,116.302 144,117.531 144,117.531 144,144 "/>
        <polyline fill="none" stroke="#000000" stroke-width="1" points="  216,72 216,93.9817 216,93.9817 215.828,95.1157 215.328,96.148 214.545,96.986 213.549,97.5543 212.429,97.8022 211.286,97.7073 210.222,97.2781 209.333,96.5531 209.333,96.5531 207.734,95.2482 205.819,94.4757 203.762,94.3048 201.746,94.7509 199.953,95.774 198.543,97.2823 197.643,99.1404 197.334,101.182 197.643,103.223 198.543,105.081 199.953,106.589 201.746,107.612 203.762,108.059 205.819,107.888 207.734,107.115 209.333,105.81 209.333,105.81 210.222,105.085 211.286,104.656 212.429,104.561 213.549,104.809 214.545,105.377 215.328,106.215 215.828,107.248 216,108.382 216,108.382 216,144 "/>
        <polyline fill="none" stroke="#000000" stroke-width="1" points="  72,144 72,178.501 72,178.501 72.1765,179.659 72.6899,180.712 73.4937,181.564 74.5148,182.139 75.6607,182.383 76.8274,182.275 77.9089,181.824 78.8071,181.072 78.8071,181.072 80.4239,179.718 82.3706,178.907 84.4705,178.712 86.5331,179.152 88.3712,180.186 89.818,181.72 90.7422,183.616 91.0599,185.701 90.7422,187.785 89.818,189.681 88.3712,191.216 86.5331,192.249 84.4705,192.689 82.3706,192.494 80.4239,191.683 78.8071,190.329 78.8071,190.329 77.9089,189.577 76.8274,189.126 75.6607,189.018 74.5148,189.262 73.4937,189.837 72.6899,190.689 72.1765,191.742 72,192.901 72,192.901 72,216 "/>
        <polyline fill="none" stroke="#000000" stroke-width="1" points="  144,144 144,171.832 144,171.832 143.836,172.927 143.357,173.926 142.606,174.741 141.65,175.3 140.571,175.553 139.466,175.479 138.431,175.084 137.557,174.403 137.557,174.403 135.985,173.176 134.122,172.465 132.132,172.332 130.191,172.788 128.469,173.794 127.118,175.261 126.256,177.059 125.96,179.032 126.256,181.004 127.118,182.802 128.469,184.269 130.191,185.275 132.132,185.731 134.122,185.598 135.985,184.887 137.557,183.66 137.557,183.66 138.431,182.979 139.466,182.584 140.571,182.51 141.65,182.763 142.606,183.322 143.357,184.137 143.836,185.136 144,186.232 144,186.232 144,216 "/>
        <polyline fill="none" stroke="#000000" stroke-width="1" points="  216,144 216,175.634 216,175.634 215.792,176.955 215.188,178.148 214.246,179.097 213.058,179.711 211.739,179.93 210.417,179.733 209.219,179.139 208.262,178.205 208.262,178.205 206.539,176.525 204.382,175.455 202.002,175.1 199.627,175.495 197.489,176.6 195.795,178.309 194.707,180.456 194.333,182.834 194.707,185.211 195.795,187.359 197.489,189.068 199.627,190.173 202.002,190.567 204.382,190.212 206.539,189.143 208.262,187.462 208.262,187.462 209.219,186.529 210.417,185.935 211.739,185.738 213.058,185.957 214.246,186.571 215.188,187.52 215.792,188.713 216,190.034 216,190.034 216,216 "/>
        <polyline fill="none" stroke="#000000" stroke-width="1" points="  72,216 72,251.131 72,251.131 72.1743,252.278 72.6816,253.322 73.476,254.167 74.4859,254.739 75.62,254.985 76.7759,254.883 77.8493,254.442 78.7432,253.702 78.7432,253.702 80.3524,252.37 82.2845,251.577 84.3652,251.393 86.4065,251.835 88.2242,252.864 89.6542,254.387 90.5673,256.266 90.8811,258.331 90.5673,260.396 89.6542,262.274 88.2242,263.797 86.4065,264.826 84.3652,265.268 82.2845,265.085 80.3524,264.291 78.7432,262.959 78.7432,262.959 77.8493,262.219 76.7759,261.778 75.62,261.676 74.4859,261.922 73.476,262.494 72.6816,263.34 72.1743,264.383 72,265.531 72,265.531 72,288 "/>
        <polyline fill="none" stroke="#000000" stroke-width="1" points="  144,216 144,250.151 144,250.151 144.182,251.337 144.71,252.413 145.537,253.281 146.585,253.862 147.76,254.103 148.953,253.98 150.054,253.505 150.962,252.723 150.962,252.723 152.598,251.314 154.58,250.46 156.727,250.239 158.841,250.671 160.729,251.717 162.217,253.281 163.168,255.218 163.495,257.351 163.168,259.485 162.217,261.422 160.729,262.985 158.841,264.031 156.727,264.464 154.58,264.243 152.598,263.389 150.962,261.98 150.962,261.98 150.054,261.197 148.953,260.723 147.76,260.6 146.585,260.84 145.537,261.421 144.71,262.29 144.182,263.366 144,264.551 144,264.551 144,288 "/>
        <polyline fill="none" stroke="#000000" stroke-width="1" points="  216,216 216,237.932 216,237.932 216.19,239.161 216.743,240.274 217.606,241.169 218.699,241.76 219.92,241.994 221.154,241.847 222.286,241.335 223.211,240.504 223.211,240.504 224.875,239.008 226.913,238.086 229.135,237.822 231.332,238.243 233.3,239.307 234.853,240.917 235.848,242.921 236.19,245.132 235.848,247.343 234.853,249.348 233.3,250.957 231.332,252.022 229.135,252.443 226.913,252.179 224.875,251.257 223.211,249.761 223.211,249.761 222.286,248.93 221.154,248.418 219.92,248.271 218.699,248.505 217.606,249.096 216.743,249.991 216.19,251.104 216,252.332 216,252.332 216,288 "/>
    </g>
</svg>
