<?xml version="1.0" encoding="utf-8"?>
<!DOCTYPE svg PUBLIC "-//W3C//DTD SVG 1.0//EN" "http://www.w3.org/TR/2001/REC-SVG-20010904/DTD/svg10.dtd" [
<!ENTITY ns_svg "http://www.w3.org/2000/svg">
]>
<svg xmlns="&ns_svg;" width="288" height="288" overflow="visible">
    <g id="Layer_1">
        <rect x="0" y="0" rx="0" ry="0" width="288" height="288" fill="none" stroke="#000000"/>
        <polyline fill="none" stroke="#000000" stroke-width="1" points="  0,96 32.0706,96 32.0706,96 33.7215,95.744 35.2174,95 36.4177,93.838 37.2098,92.367 37.5191,90.7253 37.3168,89.0669 36.6217,87.5477 35.4992,86.3104 35.4992,86.3104 33.4786,84.0831 32.2275,81.3486 31.8632,78.3635 32.4201,75.4083 33.8457,72.7606 36.0063,70.6689 38.6989,69.3298 41.6706,68.869 44.6423,69.3298 47.3348,70.6689 49.4954,72.7606 50.9211,75.4083 51.478,78.3635 51.1137,81.3486 49.8626,84.0831 47.842,86.3104 47.842,86.3104 46.7195,87.5477 46.0244,89.0669 45.822,90.7253 46.1314,92.367 46.9235,93.838 48.1238,95 49.6197,95.744 51.2706,96 51.2706,96 96,96 "/>
        <polyline fill="none" stroke="#000000" stroke-width="1" points="  96,96 135.9,96 135.9,96 137.668,95.7213 139.264,94.9122 140.534,93.6513 141.354,92.0608 141.645,90.2951 141.378,88.5256 140.581,86.9238 139.329,85.6452 139.329,85.6452 137.075,83.3438 135.639,80.4607 135.159,77.2754 135.683,74.0972 137.159,71.2344 139.445,68.9647 142.318,67.5084 145.5,67.0067 148.682,67.5084 151.555,68.9647 153.84,71.2344 155.317,74.0972 155.841,77.2754 155.361,80.4607 153.925,83.3438 151.671,85.6452 151.671,85.6452 150.419,86.9238 149.621,88.5256 149.355,90.2951 149.646,92.0608 150.466,93.6513 151.736,94.9122 153.332,95.7213 155.1,96 155.1,96 192,96 "/>
        <polyline fill="none" stroke="#000000" stroke-width="1" points="  192,96 223.84,96 223.84,96 225.388,96.2361 226.796,96.923 227.935,97.9982 228.702,99.3641 229.027,100.896 228.881,102.456 228.276,103.901 227.268,105.1 227.268,105.1 225.454,107.259 224.366,109.86 224.103,112.667 224.688,115.425 226.068,117.884 228.118,119.819 230.652,121.056 233.44,121.481 236.227,121.056 238.761,119.819 240.812,117.884 242.192,115.425 242.777,112.667 242.513,109.86 241.425,107.259 239.611,105.1 239.611,105.1 238.604,103.901 237.999,102.456 237.852,100.896 238.177,99.3641 238.944,97.9982 240.084,96.923 241.491,96.2361 243.04,96 243.04,96 288,96 "/>
        <polyline fill="none" stroke="#000000" stroke-width="1" points="  0,192 41.3856,192 41.3856,192 42.9054,192.231 44.2885,192.901 45.4104,193.952 46.1702,195.289 46.4995,196.79 46.3687,198.322 45.7896,199.746 44.8142,200.934 44.8142,200.934 43.0586,203.072 42.0161,205.635 41.7807,208.392 42.3735,211.095 43.7411,213.5 45.7605,215.392 48.25,216.6 50.9856,217.015 53.7213,216.6 56.2108,215.392 58.2302,213.5 59.5978,211.095 60.1905,208.392 59.9551,205.635 58.9127,203.072 57.1571,200.934 57.1571,200.934 56.1817,199.746 55.6026,198.322 55.4718,196.79 55.8011,195.289 56.5609,193.952 57.6828,192.901 59.0658,192.231 60.5856,192 60.5856,192 96,192 "/>
        <polyline fill="none" stroke="#000000" stroke-width="1" points="  96,192 138.346,192 138.346,192 139.783,191.786 141.094,191.161 142.166,190.18 142.905,188.929 143.247,187.517 143.161,186.067 142.655,184.705 141.774,183.55 141.774,183.55 140.188,181.471 139.278,179.019 139.123,176.408 139.738,173.866 141.068,171.615 142.998,169.85 145.359,168.725 147.946,168.339 150.532,168.725 152.893,169.85 154.823,171.615 156.153,173.866 156.768,176.408 156.613,179.019 155.703,181.471 154.117,183.55 154.117,183.55 153.236,184.705 152.73,186.067 152.644,187.517 152.986,188.929 153.725,190.18 154.797,191.161 156.109,191.786 157.546,192 157.546,192 192,192 "/>
        <polyline fill="none" stroke="#000000" stroke-width="1" points="  192,192 234.91,192 234.91,192 236.384,191.778 237.727,191.133 238.822,190.121 239.57,188.832 239.906,187.38 239.8,185.894 239.262,184.504 238.339,183.334 238.339,183.334 236.677,181.228 235.708,178.727 235.517,176.051 236.123,173.437 237.469,171.117 239.439,169.296 241.857,168.134 244.51,167.735 247.163,168.134 249.581,169.296 251.551,171.117 252.898,173.437 253.503,176.051 253.312,178.727 252.343,181.228 250.682,183.334 250.682,183.334 249.758,184.504 249.22,185.894 249.114,187.38 249.45,188.832 250.199,190.121 251.293,191.133 252.636,191.778 254.11,192 254.11,192 288,192 "/>
        <polyline fill="none" stroke="#000000" stroke-width="1" points="  96,0 96,38.2385 96,38.2385 95.7699,39.756 95.1002,41.1372 94.0512,42.2578 92.7172,43.017 91.2181,43.3466 89.6886,43.217 88.2663,42.6399 87.0791,41.667 87.0791,41.667 84.942,39.9159 82.3819,38.877 79.6288,38.6437 76.9304,39.2371 74.5291,40.6037 72.641,42.6207 71.4356,45.1068 71.0214,47.8385 71.4356,50.5701 72.641,53.0562 74.5291,55.0732 76.9304,56.4398 79.6288,57.0332 82.3819,56.7999 84.942,55.761 87.0791,54.0099 87.0791,54.0099 88.2663,53.037 89.6886,52.4599 91.2181,52.3303 92.7172,52.6599 94.0512,53.4191 95.1002,54.5397 95.7699,55.9209 96,57.4385 96,57.4385 96,96 "/>
        <polyline fill="none" stroke="#000000" stroke-width="1" points="  192,0 192,40.4098 192,40.4098 191.734,42.1105 190.963,43.6491 189.758,44.879 188.237,45.6831 186.542,45.9847 184.836,45.7552 183.281,45.0162 182.026,43.8384 182.026,43.8384 179.767,41.7183 176.969,40.3882 173.898,39.975 170.848,40.5179 168.108,41.9653 165.941,44.1792 164.552,46.9486 164.074,50.0098 164.552,53.071 165.941,55.8405 168.108,58.0544 170.848,59.5018 173.898,60.0447 176.969,59.6314 179.767,58.3014 182.026,56.1812 182.026,56.1812 183.281,55.0034 184.836,54.2645 186.542,54.0349 188.237,54.3365 189.758,55.1406 190.963,56.3706 191.734,57.9092 192,59.6098 192,59.6098 192,96 "/>
        <polyline fill="none" stroke="#000000" stroke-width="1" points="  96,96 96,126.954 96,126.954 96.2736,128.695 97.0682,130.269 98.3071,131.523 99.871,132.337 101.609,132.633 103.354,132.381 104.938,131.605 106.207,130.382 106.207,130.382 108.492,128.18 111.343,126.785 114.484,126.331 117.612,126.863 120.427,128.328 122.657,130.586 124.088,133.419 124.58,136.554 124.088,139.689 122.657,142.522 120.427,144.779 117.612,146.244 114.484,146.776 111.343,146.322 108.492,144.927 106.207,142.725 106.207,142.725 104.938,141.502 103.354,140.727 101.609,140.475 99.871,140.77 98.3071,141.584 97.0682,142.838 96.2736,144.412 96,146.154 96,146.154 96,192 "/>
        <polyline fill="none" stroke="#000000" stroke-width="1" points="  192,96 192,142.368 192,142.368 192.263,144.054 193.026,145.58 194.218,146.801 195.724,147.601 197.403,147.905 199.095,147.684 200.639,146.958 201.889,145.797 201.889,145.797 204.138,143.707 206.918,142.4 209.963,142.002 212.985,142.549 215.697,143.99 217.841,146.188 219.215,148.934 219.688,151.968 219.215,155.003 217.841,157.749 215.697,159.947 212.985,161.388 209.963,161.935 206.918,161.536 204.138,160.23 201.889,158.14 201.889,158.14 200.639,156.978 199.095,156.253 197.403,156.031 195.724,156.335 194.218,157.136 193.026,158.357 192.263,159.883 192,161.568 192,161.568 192,192 "/>
        <polyline fill="none" stroke="#000000" stroke-width="1" points="  96,192 96,229.862 96,229.862 96.2147,231.3 96.84,232.612 97.8214,233.685 99.0733,234.424 100.487,234.765 101.938,234.679 103.301,234.173 104.456,233.29 104.456,233.29 106.536,231.702 108.989,230.79 111.601,230.635 114.145,231.249 116.399,232.58 118.165,234.511 119.291,236.873 119.677,239.462 119.291,242.05 118.165,244.413 116.399,246.343 114.145,247.674 111.601,248.288 108.989,248.133 106.536,247.221 104.456,245.633 104.456,245.633 103.301,244.751 101.938,244.244 100.487,244.158 99.0733,244.499 97.8214,245.238 96.84,246.311 96.2147,247.624 96,249.062 96,249.062 96,288 "/>
        <polyline fill="none" stroke="#000000" stroke-width="1" points="  192,192 192,225.96 192,225.96 192.229,227.472 192.895,228.848 193.939,229.965 195.267,230.722 196.76,231.053 198.284,230.927 199.702,230.355 200.886,229.389 200.886,229.389 203.019,227.649 205.572,226.62 208.314,226.393 211.001,226.987 213.391,228.351 215.271,230.362 216.47,232.839 216.882,235.56 216.47,238.281 215.271,240.758 213.391,242.768 211.001,244.132 208.314,244.727 205.572,244.5 203.019,243.47 200.886,241.731 200.886,241.731 199.702,240.765 198.284,240.193 196.76,240.067 195.267,240.397 193.939,241.155 192.895,242.272 192.229,243.648 192,245.16 192,245.16 192,288 "/>
    </g>
</svg>
