<?xml version="1.0" encoding="utf-8"?>
<!DOCTYPE svg PUBLIC "-//W3C//DTD SVG 1.0//EN" "http://www.w3.org/TR/2001/REC-SVG-20010904/DTD/svg10.dtd" [
<!ENTITY ns_svg "http://www.w3.org/2000/svg">
]>
<svg xmlns="&ns_svg;" width="480" height="480" overflow="visible">
    <g id="Layer_1">
        <rect x="0" y="0" rx="32" ry="32" width="480" height="480" fill="none" stroke="#000000"/>
        <polyline fill="none" stroke="#000000" stroke-width="1" points="  0,96 31.626,96 31.626,96 33.33,96.2663 34.8714,97.0399 36.1034,98.2468 36.9083,99.7722 37.2094,101.47 36.9779,103.179 36.2361,104.736 35.0545,105.993 35.0545,105.993 32.9277,108.254 31.5924,111.057 31.1759,114.133 31.7178,117.19 33.1667,119.935 35.3841,122.108 38.1588,123.5 41.226,123.98 44.2931,123.5 47.0678,122.108 49.2853,119.935 50.7341,117.19 51.2761,114.133 50.8595,111.057 49.5242,108.254 47.3974,105.993 47.3974,105.993 46.2158,104.736 45.474,103.179 45.2426,101.47 45.5437,99.7722 46.3486,98.2468 47.5805,97.0399 49.122,96.2663 50.826,96 50.826,96 96,96 "/>
        <polyline fill="none" stroke="#000000" stroke-width="1" points="  96,96 129.839,96 129.839,96 131.418,96.2421 132.852,96.9462 134.01,98.0476 134.785,99.4451 135.105,101.01 134.942,102.6 134.31,104.068 133.267,105.278 133.267,105.278 131.391,107.458 130.253,110.1 129.96,112.961 130.536,115.778 131.93,118.294 134.014,120.277 136.596,121.544 139.439,121.98 142.282,121.544 144.863,120.277 146.947,118.294 148.341,115.778 148.918,112.961 148.624,110.1 147.487,107.458 145.61,105.278 145.61,105.278 144.568,104.068 143.936,102.6 143.773,101.01 144.093,99.4451 144.867,98.0476 146.025,96.9462 147.459,96.2421 149.039,96 149.039,96 192,96 "/>
        <polyline fill="none" stroke="#000000" stroke-width="1" points="  192,96 239.395,96 239.395,96 240.789,95.7938 242.064,95.1928 243.11,94.2485 243.838,93.0418 244.186,91.676 244.123,90.268 243.656,88.9384 242.823,87.8011 242.823,87.8011 241.248,85.603 240.426,83.0262 240.438,80.3216 241.283,77.7523 242.879,75.5685 245.07,73.9827 247.643,73.1492 250.347,73.1492 252.92,73.9827 255.111,75.5685 256.707,77.7523 257.552,80.3216 257.564,83.0262 256.742,85.603 255.166,87.8011 255.166,87.8011 254.334,88.9384 253.866,90.268 253.804,91.676 254.151,93.0418 254.88,94.2485 255.926,95.1928 257.201,95.7938 258.595,96 258.595,96 288,96 "/>
        <polyline fill="none" stroke="#000000" stroke-width="1" points="  288,96 324.281,96 324.281,96 325.83,95.7637 327.239,95.0765 328.378,94.0006 329.145,92.6341 329.47,91.101 329.324,89.5407 328.718,88.0952 327.71,86.8957 327.71,86.8957 325.894,84.7366 324.805,82.1346 324.541,79.3261 325.126,76.5665 326.506,74.1067 328.557,72.1702 331.093,70.9331 333.881,70.5079 336.67,70.9331 339.205,72.1702 341.256,74.1067 342.637,76.5665 343.222,79.3261 342.957,82.1346 341.868,84.7366 340.053,86.8957 340.053,86.8957 339.044,88.0952 338.439,89.5407 338.292,91.101 338.617,92.6341 339.384,94.0006 340.524,95.0765 341.932,95.7637 343.481,96 343.481,96 384,96 "/>
        <polyline fill="none" stroke="#000000" stroke-width="1" points="  384,96 423.867,96 423.867,96 425.606,95.7268 427.178,94.9337 428.431,93.6969 429.244,92.1356 429.54,90.4002 429.289,88.6577 428.516,87.0759 427.296,85.8072 427.296,85.8072 425.099,83.5236 423.708,80.6764 423.257,77.5399 423.789,74.416 425.253,71.6057 427.508,69.3795 430.337,67.9518 433.467,67.4602 436.598,67.9518 439.427,69.3795 441.682,71.6057 443.146,74.416 443.678,77.5399 443.227,80.6764 441.835,83.5236 439.639,85.8072 439.639,85.8072 438.418,87.0759 437.645,88.6577 437.395,90.4002 437.69,92.1356 438.503,93.6969 439.756,94.9337 441.328,95.7268 443.067,96 443.067,96 480,96 "/>
        <polyline fill="none" stroke="#000000" stroke-width="1" points="  0,192 46.1716,192 46.1716,192 47.627,191.782 48.9547,191.147 50.0379,190.151 50.7815,188.881 51.1203,187.448 51.0245,185.98 50.5025,184.604 49.6001,183.441 49.6001,183.441 47.9758,181.349 47.0362,178.872 46.8637,176.228 47.4736,173.65 48.8122,171.364 50.762,169.571 53.1517,168.428 55.7716,168.035 58.3914,168.428 60.7811,169.571 62.7309,171.364 64.0695,173.65 64.6794,176.228 64.5069,178.872 63.5673,181.349 61.943,183.441 61.943,183.441 61.0406,184.604 60.5186,185.98 60.4228,187.448 60.7616,188.881 61.5052,190.151 62.5885,191.147 63.9161,191.782 65.3716,192 65.3716,192 96,192 "/>
        <polyline fill="none" stroke="#000000" stroke-width="1" points="  96,192 130.291,192 130.291,192 131.81,191.77 133.192,191.099 134.313,190.05 135.072,188.715 135.402,187.214 135.272,185.684 134.694,184.261 133.72,183.073 133.72,183.073 131.966,180.935 130.926,178.374 130.692,175.619 131.285,172.919 132.652,170.515 134.67,168.626 137.158,167.419 139.891,167.005 142.625,167.419 145.112,168.626 147.13,170.515 148.498,172.919 149.091,175.619 148.856,178.374 147.816,180.935 146.063,183.073 146.063,183.073 145.089,184.261 144.51,185.684 144.38,187.214 144.71,188.715 145.469,190.05 146.59,191.099 147.973,191.77 149.491,192 149.491,192 192,192 "/>
        <polyline fill="none" stroke="#000000" stroke-width="1" points="  192,192 235.372,192 235.372,192 236.805,191.786 238.113,191.164 239.183,190.187 239.92,188.94 240.263,187.533 240.179,186.087 239.677,184.728 238.801,183.574 238.801,183.574 237.223,181.498 236.32,179.052 236.169,176.449 236.785,173.915 238.114,171.672 240.039,169.913 242.393,168.793 244.972,168.408 247.551,168.793 249.906,169.913 251.831,171.672 253.159,173.915 253.775,176.449 253.625,179.052 252.721,181.498 251.144,183.574 251.144,183.574 250.267,184.728 249.765,186.087 249.682,187.533 250.024,188.94 250.762,190.187 251.831,191.164 253.139,191.786 254.572,192 254.572,192 288,192 "/>
        <polyline fill="none" stroke="#000000" stroke-width="1" points="  288,192 318.347,192 318.347,192 319.894,192.236 321.301,192.922 322.439,193.996 323.206,195.36 323.531,196.891 323.385,198.449 322.782,199.894 321.776,201.092 321.776,201.092 319.964,203.25 318.878,205.849 318.616,208.654 319.202,211.409 320.581,213.865 322.63,215.799 325.162,217.034 327.947,217.458 330.732,217.034 333.264,215.799 335.313,213.865 336.692,211.409 337.278,208.654 337.016,205.849 335.93,203.25 334.118,201.092 334.118,201.092 333.112,199.894 332.509,198.449 332.363,196.891 332.688,195.36 333.455,193.996 334.593,192.922 336,192.236 337.547,192 337.547,192 384,192 "/>
        <polyline fill="none" stroke="#000000" stroke-width="1" points="  384,192 415.256,192 415.256,192 417.016,192.277 418.605,193.082 419.87,194.336 420.689,195.919 420.981,197.676 420.719,199.438 419.928,201.035 418.684,202.31 418.684,202.31 416.446,204.607 415.022,207.48 414.551,210.652 415.077,213.816 416.55,216.664 418.827,218.922 421.688,220.37 424.856,220.869 428.023,220.37 430.884,218.922 433.162,216.664 434.635,213.816 435.161,210.652 434.689,207.48 433.265,204.607 431.027,202.31 431.027,202.31 429.784,201.035 428.993,199.438 428.731,197.676 429.023,195.919 429.841,194.336 431.106,193.082 432.696,192.277 434.456,192 434.456,192 480,192 "/>
        <polyline fill="none" stroke="#000000" stroke-width="1" points="  0,288 37.3473,288 37.3473,288 38.7423,288.206 40.0177,288.808 41.0644,289.753 41.7927,290.96 42.1403,292.327 42.0773,293.735 41.6091,295.066 40.7759,296.203 40.7759,296.203 39.1984,298.402 38.3753,300.98 38.3868,303.686 39.2318,306.257 40.828,308.442 43.0199,310.029 45.5943,310.863 48.3004,310.863 50.8747,310.029 53.0667,308.442 54.6628,306.257 55.5078,303.686 55.5193,300.98 54.6963,298.402 53.1187,296.203 53.1187,296.203 52.2855,295.066 51.8174,293.735 51.7544,292.327 52.1019,290.96 52.8302,289.753 53.8769,288.808 55.1524,288.206 56.5473,288 56.5473,288 96,288 "/>
        <polyline fill="none" stroke="#000000" stroke-width="1" points="  96,288 133.373,288 133.373,288 135.118,287.726 136.695,286.929 137.952,285.687 138.767,284.119 139.061,282.377 138.807,280.629 138.029,279.043 136.802,277.772 136.802,277.772 134.593,275.485 133.192,272.63 132.734,269.483 133.265,266.347 134.731,263.525 136.993,261.29 139.832,259.856 142.973,259.362 146.115,259.856 148.953,261.29 151.215,263.525 152.682,266.347 153.212,269.483 152.755,272.63 151.354,275.485 149.145,277.772 149.145,277.772 147.917,279.043 147.139,280.629 146.885,282.377 147.18,284.119 147.994,285.687 149.251,286.929 150.828,287.726 152.573,288 152.573,288 192,288 "/>
        <polyline fill="none" stroke="#000000" stroke-width="1" points="  192,288 230.289,288 230.289,288 231.734,287.784 233.053,287.155 234.129,286.168 234.87,284.909 235.211,283.488 235.121,282.03 234.608,280.662 233.718,279.503 233.718,279.503 232.115,277.418 231.193,274.956 231.031,272.331 231.643,269.774 232.977,267.508 234.915,265.731 237.289,264.598 239.889,264.209 242.49,264.598 244.863,265.731 246.802,267.508 248.135,269.774 248.748,272.331 248.586,274.956 247.663,277.418 246.061,279.503 246.061,279.503 245.17,280.662 244.658,282.03 244.568,283.488 244.908,284.909 245.649,286.168 246.726,287.155 248.044,287.784 249.489,288 249.489,288 288,288 "/>
        <polyline fill="none" stroke="#000000" stroke-width="1" points="  288,288 335.847,288 335.847,288 337.537,287.736 339.067,286.97 340.291,285.775 341.092,284.264 341.396,282.58 341.172,280.884 340.442,279.337 339.276,278.085 339.276,278.085 337.176,275.833 335.863,273.048 335.46,269.995 336.006,266.964 337.448,264.244 339.651,262.092 342.405,260.714 345.447,260.239 348.49,260.714 351.243,262.092 353.446,264.244 354.889,266.964 355.435,269.995 355.032,273.048 353.718,275.833 351.619,278.085 351.619,278.085 350.452,279.337 349.722,280.884 349.499,282.58 349.802,284.264 350.603,285.775 351.827,286.97 353.357,287.736 355.047,288 355.047,288 384,288 "/>
        <polyline fill="none" stroke="#000000" stroke-width="1" points="  384,288 420.333,288 420.333,288 421.916,287.757 423.353,287.051 424.513,285.947 425.289,284.545 425.608,282.976 425.443,281.383 424.808,279.913 423.762,278.701 423.762,278.701 421.878,276.519 420.735,273.872 420.437,271.005 421.013,268.181 422.409,265.658 424.496,263.67 427.084,262.399 429.933,261.962 432.782,262.399 435.37,263.67 437.457,265.658 438.853,268.181 439.429,271.005 439.131,273.872 437.988,276.519 436.104,278.701 436.104,278.701 435.058,279.913 434.423,281.383 434.258,282.976 434.578,284.545 435.353,285.947 436.513,287.051 437.95,287.757 439.533,288 439.533,288 480,288 "/>
        <polyline fill="none" stroke="#000000" stroke-width="1" points="  0,384 46.9486,384 46.9486,384 48.607,384.257 50.1094,385.006 51.3142,386.174 52.1081,387.653 52.4163,389.302 52.2098,390.968 51.5081,392.493 50.3771,393.733 50.3771,393.733 48.3415,395.965 47.0784,398.709 46.7068,401.707 47.2615,404.677 48.6905,407.338 50.8591,409.441 53.5634,410.788 56.5486,411.252 59.5338,410.788 62.238,409.441 64.4067,407.338 65.8356,404.677 66.3904,401.707 66.0187,398.709 64.7556,395.965 62.72,393.733 62.72,393.733 61.5891,392.493 60.8874,390.968 60.6809,389.302 60.9891,387.653 61.783,386.174 62.9878,385.006 64.4901,384.257 66.1486,384 66.1486,384 96,384 "/>
        <polyline fill="none" stroke="#000000" stroke-width="1" points="  96,384 126.763,384 126.763,384 128.359,383.755 129.807,383.041 130.975,381.926 131.753,380.512 132.071,378.929 131.899,377.323 131.253,375.844 130.192,374.627 130.192,374.627 128.282,372.436 127.118,369.773 126.808,366.883 127.38,364.034 128.782,361.488 130.883,359.48 133.491,358.196 136.363,357.755 139.236,358.196 141.843,359.48 143.944,361.488 145.346,364.034 145.918,366.883 145.608,369.773 144.444,372.436 142.534,374.627 142.534,374.627 141.474,375.844 140.827,377.323 140.655,378.929 140.973,380.512 141.751,381.926 142.919,383.041 144.367,383.755 145.963,384 145.963,384 192,384 "/>
        <polyline fill="none" stroke="#000000" stroke-width="1" points="  192,384 234.376,384 234.376,384 236.034,384.257 237.535,385.005 238.74,386.173 239.533,387.651 239.842,389.3 239.636,390.965 238.935,392.489 237.805,393.728 237.805,393.728 235.77,395.96 234.508,398.703 234.138,401.7 234.693,404.668 236.121,407.329 238.289,409.431 240.992,410.777 243.976,411.24 246.96,410.777 249.663,409.431 251.831,407.329 253.259,404.668 253.814,401.7 253.444,398.703 252.182,395.96 250.147,393.728 250.147,393.728 249.017,392.489 248.316,390.965 248.11,389.3 248.419,387.651 249.212,386.173 250.417,385.005 251.918,384.257 253.576,384 253.576,384 288,384 "/>
        <polyline fill="none" stroke="#000000" stroke-width="1" points="  288,384 318.391,384 318.391,384 320.121,384.271 321.685,385.06 322.933,386.289 323.744,387.841 324.041,389.567 323.795,391.302 323.03,392.877 321.819,394.143 321.819,394.143 319.64,396.421 318.263,399.257 317.82,402.378 318.355,405.485 319.815,408.28 322.061,410.492 324.876,411.911 327.991,412.4 331.105,411.911 333.921,410.492 336.167,408.28 337.627,405.485 338.161,402.378 337.719,399.257 336.342,396.421 334.162,394.143 334.162,394.143 332.952,392.877 332.186,391.302 331.941,389.567 332.238,387.841 333.049,386.289 334.296,385.06 335.861,384.271 337.591,384 337.591,384 384,384 "/>
        <polyline fill="none" stroke="#000000" stroke-width="1" points="  384,384 421.773,384 421.773,384 423.475,384.266 425.014,385.038 426.244,386.243 427.049,387.765 427.35,389.461 427.12,391.167 426.381,392.722 425.202,393.978 425.202,393.978 423.08,396.238 421.749,399.037 421.335,402.109 421.878,405.161 423.326,407.901 425.54,410.07 428.311,411.46 431.373,411.938 434.436,411.46 437.206,410.07 439.421,407.901 440.869,405.161 441.412,402.109 440.998,399.037 439.666,396.238 437.545,393.978 437.545,393.978 436.366,392.722 435.627,391.167 435.397,389.461 435.698,387.765 436.502,386.243 437.733,385.038 439.272,384.266 440.973,384 440.973,384 480,384 "/>
        <polyline fill="none" stroke="#000000" stroke-width="1" points="  96,0 96,32.6374 96,32.6374 96.231,34.1595 96.9032,35.5446 97.956,36.6679 99.2947,37.4283 100.799,37.7572 102.333,37.6252 103.758,37.044 104.947,36.066 104.947,36.066 107.088,34.3056 109.654,33.2594 112.415,33.0217 115.122,33.6138 117.532,34.9825 119.427,37.0044 120.637,39.4975 121.052,42.2374 120.637,44.9772 119.427,47.4704 117.532,49.4923 115.122,50.8609 112.415,51.4531 109.654,51.2154 107.088,50.1692 104.947,48.4088 104.947,48.4088 103.758,47.4308 102.333,46.8496 100.799,46.7176 99.2947,47.0465 97.956,47.8069 96.9032,48.9302 96.231,50.3153 96,51.8374 96,51.8374 96,96 "/>
        <polyline fill="none" stroke="#000000" stroke-width="1" points="  192,0 192,31.2981 192,31.2981 191.759,32.8725 191.058,34.3026 189.96,35.4572 188.568,36.2305 187.008,36.5516 185.423,36.3911 183.959,35.7636 182.75,34.7267 182.75,34.7267 180.574,32.8603 177.939,31.7308 175.086,31.4418 172.278,32.0198 169.772,33.4118 167.797,35.4901 166.535,38.0642 166.101,40.8981 166.535,43.7321 167.797,46.3062 169.772,48.3845 172.278,49.7764 175.086,50.3544 177.939,50.0654 180.574,48.9359 182.75,47.0696 182.75,47.0696 183.959,46.0327 185.423,45.4052 187.008,45.2446 188.568,45.5657 189.96,46.339 191.058,47.4936 191.759,48.9237 192,50.4981 192,50.4981 192,96 "/>
        <polyline fill="none" stroke="#000000" stroke-width="1" points="  288,0 288,45.5315 288,45.5315 287.765,47.0757 287.08,48.4798 286.009,49.6163 284.647,50.3822 283.12,50.7078 281.564,50.5637 280.122,49.963 278.925,48.9601 278.925,48.9601 276.769,47.1549 274.174,46.0736 271.374,45.8143 268.624,46.4004 266.174,47.7789 264.245,49.8247 263.013,52.352 262.59,55.1315 263.013,57.9111 264.245,60.4384 266.174,62.4841 268.624,63.8627 271.374,64.4488 274.174,64.1895 276.769,63.1082 278.925,61.303 278.925,61.303 280.122,60.3001 281.564,59.6994 283.12,59.5553 284.647,59.8809 286.009,60.6468 287.08,61.7833 287.765,63.1873 288,64.7315 288,64.7315 288,96 "/>
        <polyline fill="none" stroke="#000000" stroke-width="1" points="  384,0 384,40.6264 384,40.6264 383.726,42.3699 382.93,43.9453 381.69,45.2008 380.124,46.0152 378.384,46.3101 376.637,46.057 375.053,45.2803 373.782,44.055 373.782,44.055 371.496,41.8493 368.643,40.4513 365.499,39.9958 362.367,40.5266 359.549,41.9925 357.316,44.2523 355.884,47.0881 355.39,50.2264 355.884,53.3647 357.316,56.2005 359.549,58.4603 362.367,59.9262 365.499,60.457 368.643,60.0015 371.496,58.6035 373.782,56.3978 373.782,56.3978 375.053,55.1725 376.637,54.3958 378.384,54.1427 380.124,54.4376 381.69,55.252 382.93,56.5075 383.726,58.0829 384,59.8264 384,59.8264 384,96 "/>
        <polyline fill="none" stroke="#000000" stroke-width="1" points="  96,96 96,124.867 96,124.867 96.224,126.353 96.8761,127.707 97.8983,128.809 99.1998,129.56 100.665,129.895 102.164,129.782 103.562,129.233 104.737,128.296 104.737,128.296 106.852,126.609 109.37,125.621 112.068,125.418 114.705,126.02 117.048,127.372 118.888,129.355 120.061,131.792 120.464,134.467 120.061,137.142 118.888,139.579 117.048,141.562 114.705,142.915 112.068,143.516 109.37,143.314 106.852,142.325 104.737,140.639 104.737,140.639 103.562,139.702 102.164,139.152 100.665,139.04 99.1998,139.374 97.8983,140.126 96.8761,141.227 96.224,142.581 96,144.067 96,144.067 96,192 "/>
        <polyline fill="none" stroke="#000000" stroke-width="1" points="  192,96 192,137.52 192,137.52 192.215,138.958 192.84,140.27 193.821,141.343 195.073,142.082 196.486,142.423 197.937,142.337 199.3,141.831 200.455,140.948 200.455,140.948 202.535,139.36 204.988,138.449 207.6,138.294 210.144,138.908 212.397,140.239 214.163,142.169 215.289,144.532 215.675,147.12 215.289,149.708 214.163,152.07 212.397,154.001 210.144,155.331 207.6,155.946 204.988,155.791 202.535,154.879 200.455,153.291 200.455,153.291 199.3,152.409 197.937,151.903 196.486,151.816 195.073,152.158 193.821,152.897 192.84,153.97 192.215,155.282 192,156.72 192,156.72 192,192 "/>
        <polyline fill="none" stroke="#000000" stroke-width="1" points="  288,96 288,128.903 288,128.903 287.767,130.433 287.091,131.825 286.031,132.954 284.683,133.716 283.17,134.044 281.628,133.907 280.197,133.319 279.004,132.331 279.004,132.331 276.858,130.554 274.281,129.494 271.506,129.249 268.782,129.838 266.357,131.211 264.449,133.242 263.231,135.748 262.812,138.503 263.231,141.257 264.449,143.763 266.357,145.794 268.782,147.167 271.506,147.757 274.281,147.511 276.858,146.451 279.004,144.674 279.004,144.674 280.197,143.687 281.628,143.098 283.17,142.961 284.683,143.289 286.031,144.052 287.091,145.18 287.767,146.572 288,148.103 288,148.103 288,192 "/>
        <polyline fill="none" stroke="#000000" stroke-width="1" points="  384,96 384,130.695 384,130.695 383.795,132.083 383.198,133.352 382.259,134.394 381.059,135.121 379.701,135.469 378.299,135.41 376.975,134.949 375.84,134.124 375.84,134.124 373.648,132.563 371.081,131.752 368.39,131.77 365.834,132.616 363.663,134.207 362.087,136.388 361.259,138.949 361.259,141.641 362.087,144.202 363.663,146.384 365.834,147.975 368.39,148.821 371.081,148.839 373.648,148.028 375.84,146.467 375.84,146.467 376.975,145.642 378.299,145.18 379.701,145.121 381.059,145.47 382.259,146.196 383.198,147.239 383.795,148.508 384,149.895 384,149.895 384,192 "/>
        <polyline fill="none" stroke="#000000" stroke-width="1" points="  96,192 96,233 96,233 96.2317,234.527 96.9061,235.915 97.9622,237.041 99.305,237.802 100.813,238.13 102.351,237.996 103.779,237.411 104.97,236.429 104.97,236.429 107.113,234.661 109.684,233.608 112.452,233.367 115.167,233.958 117.584,235.328 119.485,237.354 120.699,239.854 121.116,242.6 120.699,245.347 119.485,247.846 117.584,249.873 115.167,251.243 112.452,251.834 109.684,251.593 107.113,250.54 104.97,248.772 104.97,248.772 103.779,247.79 102.351,247.205 100.813,247.071 99.305,247.399 97.9622,248.16 96.9061,249.286 96.2317,250.674 96,252.2 96,252.2 96,288 "/>
        <polyline fill="none" stroke="#000000" stroke-width="1" points="  192,192 192,227.006 192,227.006 191.733,228.716 190.956,230.263 189.744,231.498 188.213,232.304 186.508,232.604 184.794,232.37 183.233,231.623 181.974,230.435 181.974,230.435 179.709,228.297 176.899,226.952 173.813,226.53 170.745,227.07 167.989,228.521 165.807,230.745 164.409,233.529 163.928,236.606 164.409,239.684 165.807,242.468 167.989,244.691 170.745,246.143 173.813,246.683 176.899,246.261 179.709,244.916 181.974,242.778 181.974,242.778 183.233,241.59 184.794,240.843 186.508,240.608 188.213,240.908 189.744,241.715 190.956,242.95 191.733,244.497 192,246.206 192,246.206 192,288 "/>
        <polyline fill="none" stroke="#000000" stroke-width="1" points="  288,192 288,233.638 288,233.638 287.72,235.41 286.908,237.011 285.643,238.284 284.048,239.105 282.277,239.395 280.502,239.126 278.897,238.324 277.617,237.066 277.617,237.066 275.312,234.802 272.423,233.358 269.229,232.874 266.041,233.396 263.169,234.875 260.891,237.166 259.43,240.047 258.927,243.238 259.43,246.428 260.891,249.309 263.169,251.6 266.041,253.079 269.229,253.601 272.423,253.117 275.312,251.673 277.617,249.409 277.617,249.409 278.897,248.151 280.502,247.349 282.277,247.08 284.048,247.37 285.643,248.192 286.908,249.464 287.72,251.065 288,252.838 288,252.838 288,288 "/>
        <polyline fill="none" stroke="#000000" stroke-width="1" points="  384,192 384,223.156 384,223.156 383.762,224.716 383.069,226.133 381.984,227.279 380.607,228.048 379.063,228.372 377.493,228.219 376.04,227.605 374.836,226.585 374.836,226.585 372.67,224.749 370.055,223.643 367.228,223.369 364.449,223.951 361.97,225.336 360.018,227.398 358.77,229.949 358.342,232.756 358.77,235.563 360.018,238.114 361.97,240.177 364.449,241.562 367.228,242.144 370.055,241.87 372.67,240.764 374.836,238.928 374.836,238.928 376.04,237.908 377.493,237.293 379.063,237.141 380.607,237.464 381.984,238.234 383.069,239.38 383.762,240.797 384,242.356 384,242.356 384,288 "/>
        <polyline fill="none" stroke="#000000" stroke-width="1" points="  96,288 96,320.311 96,320.311 95.7864,321.744 95.1643,323.051 94.1877,324.121 92.9416,324.858 91.5345,325.201 90.0888,325.117 88.7303,324.616 87.5771,323.74 87.5771,323.74 85.5014,322.163 83.0561,321.261 80.4538,321.111 77.921,321.727 75.6781,323.055 73.9202,324.98 72.8003,327.333 72.4159,329.911 72.8003,332.49 73.9202,334.843 75.6781,336.768 77.921,338.096 80.4538,338.712 83.0561,338.562 85.5014,337.66 87.5771,336.083 87.5771,336.083 88.7303,335.207 90.0888,334.706 91.5345,334.622 92.9416,334.964 94.1877,335.702 95.1643,336.772 95.7864,338.079 96,339.511 96,339.511 96,384 "/>
        <polyline fill="none" stroke="#000000" stroke-width="1" points="  192,288 192,333.731 192,333.731 191.746,335.37 191.009,336.855 189.857,338.048 188.399,338.837 186.77,339.149 185.123,338.953 183.612,338.268 182.379,337.159 182.379,337.159 180.16,335.163 177.441,333.931 174.477,333.579 171.545,334.139 168.919,335.559 166.846,337.707 165.519,340.381 165.062,343.331 165.519,346.281 166.846,348.955 168.919,351.102 171.545,352.523 174.477,353.083 177.441,352.731 180.16,351.499 182.379,349.502 182.379,349.502 183.612,348.393 185.123,347.709 186.77,347.513 188.399,347.824 189.857,348.613 191.009,349.806 191.746,351.292 192,352.931 192,352.931 192,384 "/>
        <polyline fill="none" stroke="#000000" stroke-width="1" points="  288,288 288,320.209 288,320.209 288.274,321.955 289.071,323.532 290.314,324.789 291.882,325.604 293.624,325.899 295.373,325.644 296.959,324.866 298.23,323.638 298.23,323.638 300.518,321.428 303.373,320.026 306.521,319.569 309.658,320.099 312.48,321.566 314.716,323.828 316.15,326.667 316.644,329.809 316.15,332.952 314.716,335.791 312.48,338.053 309.658,339.52 306.521,340.05 303.373,339.592 300.518,338.191 298.23,335.981 298.23,335.981 296.959,334.753 295.373,333.974 293.624,333.72 291.882,334.015 290.314,334.83 289.071,336.086 288.274,337.664 288,339.409 288,339.409 288,384 "/>
        <polyline fill="none" stroke="#000000" stroke-width="1" points="  384,288 384,328.975 384,328.975 384.225,330.466 384.88,331.824 385.907,332.929 387.214,333.682 388.685,334.016 390.189,333.9 391.592,333.346 392.769,332.403 392.769,332.403 394.887,330.705 397.412,329.708 400.119,329.501 402.767,330.101 405.12,331.456 406.968,333.445 408.147,335.89 408.552,338.575 408.147,341.259 406.968,343.704 405.12,345.693 402.767,347.048 400.119,347.648 397.412,347.441 394.887,346.444 392.769,344.746 392.769,344.746 391.592,343.803 390.189,343.249 388.685,343.133 387.214,343.467 385.907,344.22 384.88,345.325 384.225,346.683 384,348.175 384,348.175 384,384 "/>
        <polyline fill="none" stroke="#000000" stroke-width="1" points="  96,384 96,426.365 96,426.365 95.7473,427.999 95.0127,429.48 93.865,430.67 92.4113,431.458 90.7876,431.77 89.1454,431.577 87.6383,430.897 86.4071,429.793 86.4071,429.793 84.1909,427.807 81.4782,426.582 78.5223,426.235 75.5995,426.796 72.9829,428.214 70.917,430.357 69.5948,433.023 69.1399,435.965 69.5948,438.906 70.917,441.572 72.9829,443.715 75.5995,445.133 78.5223,445.695 81.4782,445.347 84.1909,444.123 86.4071,442.136 86.4071,442.136 87.6383,441.032 89.1454,440.352 90.7876,440.159 92.4113,440.471 93.865,441.259 95.0127,442.449 95.7473,443.931 96,445.565 96,445.565 96,480 "/>
        <polyline fill="none" stroke="#000000" stroke-width="1" points="  192,384 192,430.197 192,430.197 192.262,431.878 193.022,433.399 194.209,434.617 195.711,435.416 197.384,435.721 199.071,435.502 200.611,434.781 201.86,433.626 201.86,433.626 204.106,431.545 206.879,430.247 209.915,429.854 212.927,430.402 215.63,431.841 217.767,434.033 219.135,436.772 219.607,439.797 219.135,442.822 217.767,445.561 215.63,447.753 212.927,449.192 209.915,449.74 206.879,449.347 204.106,448.048 201.86,445.968 201.86,445.968 200.611,444.813 199.071,444.091 197.384,443.873 195.711,444.178 194.209,444.977 193.022,446.195 192.262,447.716 192,449.397 192,449.397 192,480 "/>
        <polyline fill="none" stroke="#000000" stroke-width="1" points="  288,384 288,430.985 288,430.985 287.781,432.443 287.145,433.773 286.146,434.858 284.874,435.602 283.438,435.94 281.967,435.843 280.589,435.319 279.425,434.413 279.425,434.413 277.331,432.783 274.85,431.839 272.202,431.664 269.619,432.273 267.328,433.613 265.531,435.566 264.385,437.96 263.991,440.585 264.385,443.209 265.531,445.603 267.328,447.556 269.619,448.896 272.202,449.505 274.85,449.33 277.331,448.386 279.425,446.756 279.425,446.756 280.589,445.851 281.967,445.326 283.438,445.229 284.874,445.567 286.146,446.312 287.145,447.397 287.781,448.726 288,450.185 288,450.185 288,480 "/>
        <polyline fill="none" stroke="#000000" stroke-width="1" points="  384,384 384,416.795 384,416.795 383.723,418.554 382.919,420.142 381.666,421.407 380.085,422.225 378.329,422.517 376.568,422.256 374.973,421.466 373.697,420.224 373.697,420.224 371.401,417.988 368.53,416.567 365.36,416.096 362.199,416.623 359.353,418.095 357.098,420.371 355.651,423.23 355.152,426.395 355.651,429.561 357.098,432.42 359.353,434.695 362.199,436.168 365.36,436.694 368.53,436.224 371.401,434.802 373.697,432.567 373.697,432.567 374.973,431.325 376.568,430.535 378.329,430.274 380.085,430.566 381.666,431.384 382.919,432.649 383.723,434.237 384,435.995 384,435.995 384,480 "/>
    </g>
</svg>
