<?xml version="1.0" encoding="utf-8"?>
<!DOCTYPE svg PUBLIC "-//W3C//DTD SVG 1.0//EN" "http://www.w3.org/TR/2001/REC-SVG-20010904/DTD/svg10.dtd" [
<!ENTITY ns_svg "http://www.w3.org/2000/svg">
]>
<svg xmlns="&ns_svg;" width="288" height="576" overflow="visible">
    <g id="Layer_1">
        <rect x="0" y="0" rx="0" ry="0" width="288" height="576" fill="none" stroke="#000000"/>
        <polyline fill="none" stroke="#000000" stroke-width="1" points="  0,144 50.3098,144 50.3098,144 52.4894,143.674 54.4778,142.723 56.1005,141.232 57.2152,139.33 57.7239,137.186 57.5821,134.986 56.8022,132.925 55.4526,131.183 55.4526,131.183 53.0235,128.046 51.6196,124.336 51.3644,120.377 52.2801,116.517 54.2864,113.094 57.2072,110.41 60.7864,108.699 64.7098,108.111 68.6332,108.699 72.2123,110.41 75.1332,113.094 77.1395,116.517 78.0552,120.377 77.7999,124.336 76.3961,128.046 73.9669,131.183 73.9669,131.183 72.6174,132.925 71.8375,134.986 71.6957,137.186 72.2044,139.33 73.319,141.232 74.9417,142.723 76.9301,143.674 79.1098,144 79.1098,144 144,144 "/>
        <polyline fill="none" stroke="#000000" stroke-width="1" points="  144,144 214.229,144 214.229,144 216.398,143.676 218.376,142.731 219.992,141.25 221.104,139.36 221.614,137.228 221.479,135.039 220.709,132.986 219.372,131.248 219.372,131.248 216.966,128.12 215.58,124.425 215.336,120.486 216.255,116.648 218.256,113.246 221.164,110.579 224.726,108.879 228.629,108.296 232.532,108.879 236.094,110.579 239.003,113.246 241.004,116.648 241.923,120.486 241.678,124.425 240.292,128.12 237.886,131.248 237.886,131.248 236.55,132.986 235.78,135.039 235.644,137.228 236.154,139.36 237.266,141.25 238.882,142.731 240.861,143.676 243.029,144 243.029,144 288,144 "/>
        <polyline fill="none" stroke="#000000" stroke-width="1" points="  0,288 57.0154,288 57.0154,288 59.404,287.633 61.5723,286.566 63.3203,284.897 64.4869,282.781 64.9645,280.412 64.7089,278.009 63.7439,275.794 62.1583,273.97 62.1583,273.97 59.3043,270.687 57.5672,266.699 57.1072,262.374 57.9668,258.11 60.0666,254.3 63.2131,251.297 67.116,249.376 71.4154,248.716 75.7149,249.376 79.6178,251.297 82.7643,254.3 84.8641,258.11 85.7237,262.374 85.2637,266.699 83.5266,270.687 80.6726,273.97 80.6726,273.97 79.087,275.794 78.1219,278.009 77.8664,280.412 78.3439,282.781 79.5105,284.897 81.2586,286.566 83.4269,287.633 85.8154,288 85.8154,288 144,288 "/>
        <polyline fill="none" stroke="#000000" stroke-width="1" points="  144,288 191.294,288 191.294,288 193.588,288.349 195.675,289.363 197.367,290.951 198.51,292.971 199.002,295.238 198.798,297.55 197.916,299.696 196.437,301.484 196.437,301.484 193.774,304.702 192.188,308.565 191.821,312.726 192.706,316.808 194.764,320.442 197.808,323.301 201.565,325.127 205.694,325.755 209.823,325.127 213.58,323.301 216.625,320.442 218.682,316.808 219.568,312.726 219.2,308.565 217.614,304.702 214.951,301.484 214.951,301.484 213.472,299.696 212.591,297.55 212.387,295.238 212.879,292.971 214.022,290.951 215.713,289.363 217.8,288.349 220.094,288 220.094,288 288,288 "/>
        <polyline fill="none" stroke="#000000" stroke-width="1" points="  0,432 51.9101,432 51.9101,432 54.479,431.598 56.8022,430.431 58.6577,428.609 59.8682,426.308 60.3178,423.747 59.9637,421.171 58.8396,418.827 57.053,416.938 57.053,416.938 53.8371,413.537 51.8138,409.317 51.1763,404.681 51.9856,400.071 54.1644,395.929 57.5044,392.65 61.6862,390.549 66.3101,389.825 70.934,390.549 75.1158,392.65 78.4558,395.929 80.6346,400.071 81.444,404.681 80.8065,409.317 78.7831,413.537 75.5673,416.938 75.5673,416.938 73.7807,418.827 72.6566,421.171 72.3024,423.747 72.7521,426.308 73.9625,428.609 75.8181,430.431 78.1413,431.598 80.7101,432 80.7101,432 144,432 "/>
        <polyline fill="none" stroke="#000000" stroke-width="1" points="  144,432 201.447,432 201.447,432 203.547,432.311 205.466,433.217 207.041,434.641 208.135,436.459 208.655,438.517 208.557,440.637 207.848,442.638 206.59,444.348 206.59,444.348 204.208,447.652 202.961,451.53 202.972,455.603 204.238,459.474 206.638,462.766 209.936,465.157 213.81,466.413 217.884,466.413 221.758,465.157 225.056,462.766 227.455,459.474 228.722,455.603 228.733,451.53 227.486,447.652 225.104,444.348 225.104,444.348 223.846,442.638 223.137,440.637 223.039,438.517 223.559,436.459 224.653,434.641 226.228,433.217 228.147,432.311 230.247,432 230.247,432 288,432 "/>
        <polyline fill="none" stroke="#000000" stroke-width="1" points="  144,0 144,69.7286 144,69.7286 143.643,72.0636 142.606,74.1859 140.983,75.9019 138.922,77.0553 136.61,77.5409 134.259,77.3146 132.082,76.3969 130.279,74.8715 130.279,74.8715 127.033,72.1257 123.115,70.4738 118.883,70.0664 114.722,70.9406 111.011,73.0167 108.089,76.1055 106.223,79.9255 105.581,84.1286 106.223,88.3317 108.089,92.1517 111.011,95.2405 114.722,97.3166 118.883,98.1908 123.115,97.7834 127.033,96.1315 130.279,93.3857 130.279,93.3857 132.082,91.8603 134.259,90.9426 136.61,90.7163 138.922,91.2019 140.983,92.3553 142.606,94.0713 143.643,96.1936 144,98.5286 144,98.5286 144,144 "/>
        <polyline fill="none" stroke="#000000" stroke-width="1" points="  144,144 144,197.795 144,197.795 144.412,200.417 145.609,202.785 147.475,204.672 149.83,205.895 152.447,206.336 155.073,205.953 157.454,204.783 159.362,202.938 159.362,202.938 162.795,199.617 167.082,197.51 171.809,196.821 176.519,197.615 180.758,199.817 184.117,203.213 186.271,207.477 187.013,212.195 186.271,216.914 184.117,221.177 180.758,224.573 176.519,226.775 171.809,227.569 167.082,226.88 162.795,224.773 159.362,221.452 159.362,221.452 157.454,219.607 155.073,218.437 152.447,218.054 149.83,218.495 147.475,219.718 145.609,221.605 144.412,223.974 144,226.595 144,226.595 144,288 "/>
        <polyline fill="none" stroke="#000000" stroke-width="1" points="  144,288 144,341.289 144,341.289 144.378,343.735 145.477,345.953 147.194,347.735 149.37,348.916 151.8,349.385 154.259,349.098 156.516,348.082 158.361,346.432 158.361,346.432 161.682,343.462 165.744,341.634 170.169,341.117 174.544,341.961 178.46,344.086 181.551,347.294 183.529,351.286 184.21,355.689 183.529,360.092 181.551,364.084 178.46,367.292 174.544,369.418 170.169,370.261 165.744,369.745 161.682,367.916 158.361,364.946 158.361,364.946 156.516,363.297 154.259,362.281 151.8,361.994 149.37,362.462 147.194,363.643 145.477,365.426 144.378,367.643 144,370.089 144,370.089 144,432 "/>
        <polyline fill="none" stroke="#000000" stroke-width="1" points="  144,432 144,487.262 144,487.262 143.689,489.36 142.784,491.279 141.361,492.852 139.544,493.946 137.488,494.467 135.369,494.369 133.369,493.662 131.66,492.405 131.66,492.405 128.357,490.025 124.481,488.781 120.41,488.793 116.541,490.06 113.252,492.458 110.863,495.754 109.607,499.627 109.607,503.697 110.863,507.57 113.252,510.866 116.541,513.264 120.41,514.531 124.481,514.543 128.357,513.299 131.66,510.919 131.66,510.919 133.369,509.662 135.369,508.955 137.488,508.857 139.544,509.378 141.361,510.472 142.784,512.045 143.689,513.964 144,516.062 144,516.062 144,576 "/>
    </g>
</svg>
