<?xml version="1.0" encoding="utf-8"?>
<!DOCTYPE svg PUBLIC "-//W3C//DTD SVG 1.0//EN" "http://www.w3.org/TR/2001/REC-SVG-20010904/DTD/svg10.dtd" [
<!ENTITY ns_svg "http://www.w3.org/2000/svg">
]>
<svg xmlns="&ns_svg;" width="192" height="192" overflow="visible">
    <g id="Layer_1">
        <rect x="0" y="0" rx="32" ry="32" width="192" height="192" fill="none" stroke="#000000"/>
        <polyline fill="none" stroke="#000000" stroke-width="1" points="  0,96 47.3163,96 47.3163,96 49.0037,96.2631 50.5309,97.0274 51.753,98.2204 52.5539,99.7287 52.8576,101.409 52.6353,103.103 51.908,104.648 50.7448,105.898 50.7448,105.898 48.6511,108.149 47.342,110.931 46.9418,113.979 47.4885,117.004 48.9301,119.719 51.1298,121.866 53.8789,123.242 56.9163,123.715 59.9536,123.242 62.7027,121.866 64.9024,119.719 66.344,117.004 66.8907,113.979 66.4905,110.931 65.1814,108.149 63.0877,105.898 63.0877,105.898 61.9245,104.648 61.1972,103.103 60.9749,101.409 61.2786,99.7287 62.0795,98.2204 63.3016,97.0274 64.8288,96.2631 66.5163,96 66.5163,96 96,96 "/>
        <polyline fill="none" stroke="#000000" stroke-width="1" points="  96,96 127.765,96 127.765,96 129.298,95.7667 130.694,95.088 131.824,94.0252 132.587,92.6744 132.914,91.1578 132.776,89.6124 132.184,88.1781 131.193,86.9846 131.193,86.9846 129.409,84.8361 128.344,82.2544 128.095,79.4728 128.684,76.7428 130.058,74.3114 132.092,72.3984 134.604,71.1767 137.365,70.7568 140.126,71.1767 142.637,72.3984 144.672,74.3114 146.045,76.7428 146.634,79.4728 146.385,82.2544 145.32,84.8361 143.536,86.9846 143.536,86.9846 142.545,88.1781 141.953,89.6124 141.815,91.1578 142.142,92.6744 142.905,94.0252 144.036,95.088 145.431,95.7667 146.965,96 146.965,96 192,96 "/>
        <polyline fill="none" stroke="#000000" stroke-width="1" points="  96,0 96,45.3792 96,45.3792 96.2642,47.0725 97.0318,48.6047 98.2297,49.8303 99.7441,50.6326 101.431,50.9354 103.13,50.7098 104.679,49.9774 105.932,48.8078 105.932,48.8078 108.186,46.7024 110.975,45.3841 114.033,44.9781 117.069,45.5231 119.795,46.9673 121.951,49.1733 123.333,51.9313 123.809,54.9792 123.333,58.0271 121.951,60.7852 119.795,62.9912 117.069,64.4353 114.033,64.9803 110.975,64.5744 108.186,63.256 105.932,61.1506 105.932,61.1506 104.679,59.981 103.13,59.2486 101.431,59.023 99.7441,59.3258 98.2297,60.1281 97.0318,61.3537 96.2642,62.8859 96,64.5792 96,64.5792 96,96 "/>
        <polyline fill="none" stroke="#000000" stroke-width="1" points="  96,96 96,134.138 96,134.138 95.7928,135.537 95.1891,136.816 94.2406,137.865 93.0287,138.595 91.6575,138.942 90.2446,138.876 88.9112,138.404 87.7718,137.566 87.7718,137.566 85.5696,135.98 82.9852,135.149 80.2709,135.157 77.6912,136.002 75.498,137.601 73.905,139.799 73.0676,142.381 73.0676,145.095 73.905,147.677 75.498,149.875 77.6912,151.474 80.2709,152.319 82.9852,152.326 85.5696,151.496 87.7718,149.909 87.7718,149.909 88.9112,149.071 90.2446,148.599 91.6575,148.534 93.0287,148.881 94.2406,149.61 95.1891,150.66 95.7928,151.939 96,153.338 96,153.338 96,192 "/>
    </g>
</svg>
