<?xml version="1.0" encoding="utf-8"?>
<!DOCTYPE svg PUBLIC "-//W3C//DTD SVG 1.0//EN" "http://www.w3.org/TR/2001/REC-SVG-20010904/DTD/svg10.dtd" [
<!ENTITY ns_svg "http://www.w3.org/2000/svg">
]>
<svg xmlns="&ns_svg;" width="384" height="1152" overflow="visible">
    <g id="Layer_1">
        <rect x="0" y="0" rx="0" ry="0" width="384" height="1152" fill="none" stroke="#000000"/>
        <polyline fill="none" stroke="#000000" stroke-width="1" points="  0,96 33.9249,96 33.9249,96 35.5425,95.7505 37.0097,95.0252 38.1901,93.8914 38.9739,92.4547 39.2885,90.8485 39.1044,89.2222 38.4388,87.727 37.3535,86.5019 37.3535,86.5019 35.4001,84.2966 34.202,81.6052 33.8706,78.6779 34.4368,75.7868 35.8478,73.2007 37.9725,71.16 40.6134,69.8544 43.5249,69.4053 46.4365,69.8544 49.0774,71.16 51.2021,73.2007 52.6131,75.7868 53.1793,78.6779 52.8479,81.6052 51.6498,84.2966 49.6964,86.5019 49.6964,86.5019 48.6111,87.727 47.9455,89.2222 47.7614,90.8485 48.076,92.4547 48.8598,93.8914 50.0402,95.0252 51.5074,95.7505 53.1249,96 53.1249,96 96,96 "/>
        <polyline fill="none" stroke="#000000" stroke-width="1" points="  96,96 131.642,96 131.642,96 133.152,96.2286 134.527,96.894 135.643,97.9365 136.4,99.2626 136.731,100.753 136.605,102.275 136.035,103.692 135.071,104.876 135.071,104.876 133.335,107.008 132.308,109.558 132.083,112.297 132.678,114.981 134.041,117.368 136.05,119.245 138.524,120.442 141.242,120.854 143.96,120.442 146.434,119.245 148.443,117.368 149.806,114.981 150.401,112.297 150.176,109.558 149.149,107.008 147.414,104.876 147.414,104.876 146.449,103.692 145.879,102.275 145.754,100.753 146.084,99.2626 146.842,97.9365 147.958,96.894 149.332,96.2286 150.842,96 150.842,96 192,96 "/>
        <polyline fill="none" stroke="#000000" stroke-width="1" points="  192,96 223.656,96 223.656,96 225.364,96.267 226.908,97.0427 228.142,98.2528 228.948,99.7819 229.249,101.484 229.015,103.197 228.27,104.756 227.084,106.014 227.084,106.014 224.95,108.278 223.609,111.085 223.189,114.168 223.73,117.232 225.18,119.984 227.402,122.162 230.182,123.558 233.256,124.039 236.33,123.558 239.11,122.162 241.332,119.984 242.782,117.232 243.323,114.168 242.903,111.085 241.562,108.278 239.427,106.014 239.427,106.014 238.242,104.756 237.496,103.197 237.263,101.484 237.564,99.7819 238.369,98.2528 239.603,97.0427 241.148,96.267 242.856,96 242.856,96 288,96 "/>
        <polyline fill="none" stroke="#000000" stroke-width="1" points="  288,96 333.619,96 333.619,96 335.254,95.747 336.736,95.0118 337.927,93.863 338.716,92.4081 339.027,90.783 338.834,89.1396 338.152,87.6316 337.047,86.4 337.047,86.4 335.058,84.183 333.832,81.4686 333.483,78.5106 334.044,75.5854 335.463,72.9665 337.607,70.8987 340.275,69.5753 343.219,69.12 346.162,69.5753 348.83,70.8987 350.974,72.9665 352.393,75.5854 352.954,78.5106 352.605,81.4686 351.379,84.183 349.39,86.4 349.39,86.4 348.285,87.6316 347.604,89.1396 347.41,90.783 347.722,92.4081 348.51,93.863 349.701,95.0118 351.183,95.747 352.819,96 352.819,96 384,96 "/>
        <polyline fill="none" stroke="#000000" stroke-width="1" points="  0,192 29.5788,192 29.5788,192 31.0928,192.229 32.4709,192.897 33.5893,193.943 34.3476,195.273 34.6778,196.769 34.5502,198.294 33.9762,199.714 33.0074,200.9 33.0074,200.9 31.2636,203.034 30.2305,205.59 30.0008,208.337 30.5951,211.028 31.9601,213.423 33.9732,215.305 36.4537,216.507 39.1788,216.92 41.904,216.507 44.3845,215.305 46.3976,213.423 47.7626,211.028 48.3569,208.337 48.1272,205.59 47.0941,203.034 45.3503,200.9 45.3503,200.9 44.3815,199.714 43.8075,198.294 43.6799,196.769 44.0101,195.273 44.7684,193.943 45.8868,192.897 47.2649,192.229 48.7788,192 48.7788,192 96,192 "/>
        <polyline fill="none" stroke="#000000" stroke-width="1" points="  96,192 135.303,192 135.303,192 136.95,192.255 138.441,192.996 139.639,194.155 140.43,195.621 140.74,197.258 140.54,198.912 139.849,200.427 138.732,201.663 138.732,201.663 136.721,203.887 135.477,206.616 135.117,209.593 135.675,212.539 137.099,215.178 139.255,217.263 141.94,218.597 144.903,219.057 147.867,218.597 150.552,217.263 152.708,215.178 154.131,212.539 154.689,209.593 154.33,206.616 153.086,203.887 151.075,201.663 151.075,201.663 149.957,200.427 149.266,198.912 149.067,197.258 149.377,195.621 150.168,194.155 151.365,192.996 152.857,192.255 154.503,192 154.503,192 192,192 "/>
        <polyline fill="none" stroke="#000000" stroke-width="1" points="  192,192 237.978,192 237.978,192 239.593,192.249 241.057,192.972 242.235,194.103 243.019,195.537 243.334,197.14 243.151,198.763 242.488,200.256 241.407,201.479 241.407,201.479 239.46,203.683 238.267,206.37 237.939,209.291 238.506,212.176 239.915,214.756 242.037,216.792 244.673,218.095 247.578,218.543 250.484,218.095 253.12,216.792 255.241,214.756 256.651,212.176 257.218,209.291 256.89,206.37 255.697,203.683 253.75,201.479 253.75,201.479 252.668,200.256 252.005,198.763 251.823,197.14 252.138,195.537 252.921,194.103 254.1,192.972 255.564,192.249 257.178,192 257.178,192 288,192 "/>
        <polyline fill="none" stroke="#000000" stroke-width="1" points="  288,192 332.179,192 332.179,192 333.617,191.785 334.93,191.16 336.002,190.179 336.742,188.927 337.083,187.514 336.997,186.062 336.49,184.7 335.608,183.544 335.608,183.544 334.02,181.464 333.108,179.011 332.953,176.399 333.567,173.855 334.898,171.602 336.829,169.836 339.191,168.71 341.779,168.324 344.368,168.71 346.73,169.836 348.661,171.602 349.991,173.855 350.606,176.399 350.451,179.011 349.539,181.464 347.951,183.544 347.951,183.544 347.068,184.7 346.562,186.062 346.476,187.514 346.817,188.927 347.556,190.179 348.629,191.16 349.941,191.785 351.379,192 351.379,192 384,192 "/>
        <polyline fill="none" stroke="#000000" stroke-width="1" points="  0,288 35.365,288 35.365,288 36.9715,287.753 38.4292,287.033 39.6031,285.909 40.3843,284.484 40.7005,282.889 40.5224,281.273 39.8665,279.786 38.7936,278.565 38.7936,278.565 36.8623,276.367 35.6817,273.69 35.3611,270.782 35.9303,267.912 37.3365,265.346 39.4493,263.322 42.0732,262.028 44.965,261.582 47.8568,262.028 50.4806,263.322 52.5935,265.346 53.9997,267.912 54.5688,270.782 54.2483,273.69 53.0677,276.367 51.1364,278.565 51.1364,278.565 50.0635,279.786 49.4076,281.273 49.2295,282.889 49.5457,284.484 50.3269,285.909 51.5007,287.033 52.9584,287.753 54.565,288 54.565,288 96,288 "/>
        <polyline fill="none" stroke="#000000" stroke-width="1" points="  96,288 140.929,288 140.929,288 142.417,288.224 143.772,288.877 144.875,289.901 145.626,291.204 145.96,292.671 145.847,294.171 145.296,295.571 144.357,296.747 144.357,296.747 142.667,298.863 141.676,301.383 141.472,304.083 142.074,306.724 143.427,309.07 145.411,310.912 147.851,312.087 150.529,312.491 153.207,312.087 155.646,310.912 157.631,309.07 158.984,306.724 159.586,304.083 159.382,301.383 158.39,298.863 156.7,296.747 156.7,296.747 155.761,295.571 155.211,294.171 155.097,292.671 155.431,291.204 156.183,289.901 157.286,288.877 158.641,288.224 160.129,288 160.129,288 192,288 "/>
        <polyline fill="none" stroke="#000000" stroke-width="1" points="  192,288 233.712,288 233.712,288 235.219,287.772 236.591,287.108 237.705,286.069 238.461,284.746 238.792,283.259 238.669,281.74 238.101,280.326 237.141,279.143 237.141,279.143 235.412,277.013 234.39,274.468 234.168,271.734 234.764,269.057 236.126,266.676 238.131,264.804 240.6,263.61 243.312,263.199 246.024,263.61 248.493,264.804 250.499,266.676 251.86,269.057 252.457,271.734 252.234,274.468 251.213,277.013 249.484,279.143 249.484,279.143 248.523,280.326 247.956,281.74 247.832,283.259 248.163,284.746 248.92,286.069 250.034,287.108 251.406,287.772 252.912,288 252.912,288 288,288 "/>
        <polyline fill="none" stroke="#000000" stroke-width="1" points="  288,288 329.087,288 329.087,288 330.729,287.746 332.216,287.007 333.411,285.853 334.201,284.392 334.512,282.76 334.314,281.111 333.628,279.598 332.516,278.364 332.516,278.364 330.514,276.143 329.278,273.421 328.923,270.452 329.482,267.515 330.904,264.884 333.054,262.807 335.732,261.478 338.687,261.02 341.642,261.478 344.32,262.807 346.47,264.884 347.892,267.515 348.451,270.452 348.096,273.421 346.86,276.143 344.858,278.364 344.858,278.364 343.746,279.598 343.06,281.111 342.862,282.76 343.173,284.392 343.963,285.853 345.158,287.007 346.646,287.746 348.287,288 348.287,288 384,288 "/>
        <polyline fill="none" stroke="#000000" stroke-width="1" points="  0,384 47.2814,384 47.2814,384 48.7917,384.229 50.1665,384.894 51.2827,385.937 52.0401,387.263 52.3708,388.755 52.2452,390.277 51.6745,391.694 50.71,392.878 50.71,392.878 48.9738,395.01 47.9466,397.561 47.7206,400.301 48.3159,402.985 49.6792,405.372 51.6883,407.249 54.163,408.447 56.8814,408.859 59.5999,408.447 62.0746,407.249 64.0836,405.372 65.447,402.985 66.0423,400.301 65.8162,397.561 64.789,395.01 63.0529,392.878 63.0529,392.878 62.0883,391.694 61.5177,390.277 61.3921,388.755 61.7228,387.263 62.4802,385.937 63.5963,384.894 64.9712,384.229 66.4814,384 66.4814,384 96,384 "/>
        <polyline fill="none" stroke="#000000" stroke-width="1" points="  96,384 127.655,384 127.655,384 129.268,384.249 130.732,384.972 131.91,386.102 132.692,387.535 133.008,389.136 132.826,390.759 132.164,392.251 131.083,393.474 131.083,393.474 129.138,395.677 127.946,398.363 127.619,401.283 128.186,404.166 129.596,406.745 131.716,408.779 134.35,410.081 137.255,410.528 140.159,410.081 142.793,408.779 144.914,406.745 146.323,404.166 146.89,401.283 146.563,398.363 145.371,395.677 143.426,393.474 143.426,393.474 142.345,392.251 141.683,390.759 141.502,389.136 141.817,387.535 142.6,386.102 143.778,384.972 145.241,384.249 146.855,384 146.855,384 192,384 "/>
        <polyline fill="none" stroke="#000000" stroke-width="1" points="  192,384 239.597,384 239.597,384 241.183,384.243 242.623,384.951 243.785,386.058 244.561,387.463 244.881,389.036 244.714,390.632 244.076,392.104 243.026,393.318 243.026,393.318 241.135,395.502 239.987,398.152 239.687,401.025 240.261,403.856 241.659,406.384 243.75,408.377 246.342,409.651 249.197,410.089 252.052,409.651 254.645,408.377 256.736,406.384 258.133,403.856 258.707,401.025 258.407,398.152 257.259,395.502 255.369,393.318 255.369,393.318 254.318,392.104 253.681,390.632 253.514,389.036 253.833,387.463 254.609,386.058 255.771,384.951 257.211,384.243 258.797,384 258.797,384 288,384 "/>
        <polyline fill="none" stroke="#000000" stroke-width="1" points="  288,384 329.452,384 329.452,384 331.021,384.24 332.447,384.939 333.598,386.031 334.37,387.418 334.692,388.973 334.534,390.552 333.912,392.013 332.881,393.22 332.881,393.22 331.025,395.392 329.904,398.021 329.62,400.864 330.199,403.662 331.589,406.159 333.661,408.126 336.227,409.383 339.052,409.815 341.876,409.383 344.443,408.126 346.515,406.159 347.905,403.662 348.484,400.864 348.2,398.021 347.079,395.392 345.223,393.22 345.223,393.22 344.192,392.013 343.57,390.552 343.412,388.973 343.734,387.418 344.506,386.031 345.657,384.939 347.083,384.24 348.652,384 348.652,384 384,384 "/>
        <polyline fill="none" stroke="#000000" stroke-width="1" points="  0,480 41.0843,480 41.0843,480 42.5637,480.223 43.912,480.871 45.0097,481.888 45.7593,483.182 46.0946,484.641 45.9858,486.133 45.4425,487.527 44.5128,488.699 44.5128,488.699 42.8395,490.809 41.8615,493.318 41.6656,496.004 42.2692,498.628 43.6186,500.959 45.5944,502.789 48.0213,503.956 50.6843,504.357 53.3473,503.956 55.7742,502.789 57.75,500.959 59.0994,498.628 59.7029,496.004 59.507,493.318 58.529,490.809 56.8557,488.699 56.8557,488.699 55.9261,487.527 55.3828,486.133 55.2739,484.641 55.6092,483.182 56.3589,481.888 57.4565,480.871 58.8048,480.223 60.2843,480 60.2843,480 96,480 "/>
        <polyline fill="none" stroke="#000000" stroke-width="1" points="  96,480 132.691,480 132.691,480 134.239,479.764 135.646,479.078 136.784,478.004 137.551,476.639 137.876,475.108 137.73,473.549 137.127,472.105 136.12,470.906 136.12,470.906 134.308,468.748 133.222,466.149 132.959,463.343 133.545,460.587 134.924,458.131 136.974,456.197 139.506,454.962 142.291,454.537 145.077,454.962 147.609,456.197 149.658,458.131 151.038,460.587 151.624,463.343 151.361,466.149 150.275,468.748 148.463,470.906 148.463,470.906 147.456,472.105 146.853,473.549 146.707,475.108 147.032,476.639 147.799,478.004 148.937,479.078 150.344,479.764 151.891,480 151.891,480 192,480 "/>
        <polyline fill="none" stroke="#000000" stroke-width="1" points="  192,480 239.998,480 239.998,480 241.474,479.778 242.82,479.131 243.915,478.117 244.664,476.826 245,475.371 244.893,473.882 244.352,472.491 243.426,471.32 243.426,471.32 241.76,469.212 240.787,466.707 240.594,464.027 241.198,461.409 242.546,459.084 244.519,457.259 246.941,456.095 249.598,455.695 252.255,456.095 254.677,457.259 256.649,459.084 257.997,461.409 258.602,464.027 258.409,466.707 257.436,469.212 255.769,471.32 255.769,471.32 254.843,472.491 254.303,473.882 254.196,475.371 254.531,476.826 255.28,478.117 256.376,479.131 257.722,479.778 259.198,480 259.198,480 288,480 "/>
        <polyline fill="none" stroke="#000000" stroke-width="1" points="  288,480 324,480 324,480 325.545,479.765 326.95,479.08 328.087,478.008 328.853,476.645 329.178,475.117 329.034,473.561 328.432,472.118 327.429,470.921 327.429,470.921 325.622,468.765 324.54,466.168 324.279,463.367 324.865,460.616 326.244,458.164 328.291,456.234 330.819,455.002 333.6,454.578 336.381,455.002 338.909,456.234 340.956,458.164 342.335,460.616 342.921,463.367 342.661,466.168 341.578,468.765 339.771,470.921 339.771,470.921 338.768,472.118 338.166,473.561 338.022,475.117 338.347,476.645 339.114,478.008 340.25,479.08 341.655,479.765 343.2,480 343.2,480 384,480 "/>
        <polyline fill="none" stroke="#000000" stroke-width="1" points="  0,576 40.4119,576 40.4119,576 42.1483,575.727 43.7176,574.936 44.9688,573.701 45.7815,572.143 46.0775,570.41 45.8284,568.67 45.058,567.091 43.8405,565.823 43.8405,565.823 41.649,563.541 40.2623,560.697 39.8138,557.565 40.3466,554.447 41.8095,551.641 44.0617,549.419 46.8864,547.994 50.0119,547.504 53.1374,547.994 55.9622,549.419 58.2144,551.641 59.6772,554.447 60.21,557.565 59.7615,560.697 58.3748,563.541 56.1833,565.823 56.1833,565.823 54.9659,567.091 54.1955,568.67 53.9463,570.41 54.2423,572.143 55.055,573.701 56.3062,574.936 57.8755,575.727 59.6119,576 59.6119,576 96,576 "/>
        <polyline fill="none" stroke="#000000" stroke-width="1" points="  96,576 126.443,576 126.443,576 128.215,575.72 129.816,574.909 131.088,573.643 131.91,572.048 132.2,570.277 131.931,568.503 131.129,566.898 129.871,565.618 129.871,565.618 127.608,563.313 126.164,560.424 125.68,557.23 126.202,554.043 127.681,551.171 129.972,548.894 132.852,547.433 136.043,546.929 139.233,547.433 142.114,548.894 144.405,551.171 145.883,554.043 146.406,557.23 145.921,560.424 144.477,563.313 142.214,565.618 142.214,565.618 140.957,566.898 140.155,568.503 139.885,570.277 140.176,572.048 140.997,573.643 142.27,574.909 143.87,575.72 145.643,576 145.643,576 192,576 "/>
        <polyline fill="none" stroke="#000000" stroke-width="1" points="  192,576 231.886,576 231.886,576 233.299,575.79 234.59,575.179 235.647,574.218 236.38,572.992 236.725,571.606 236.652,570.179 236.168,568.836 235.314,567.69 235.314,567.69 233.777,565.629 232.906,563.21 232.775,560.642 233.395,558.147 234.715,555.94 236.618,554.211 238.942,553.111 241.486,552.733 244.029,553.111 246.353,554.211 248.257,555.94 249.576,558.147 250.197,560.642 250.066,563.21 249.194,565.629 247.657,567.69 247.657,567.69 246.803,568.836 246.319,570.179 246.246,571.606 246.591,572.992 247.324,574.218 248.382,575.179 249.673,575.79 251.086,576 251.086,576 288,576 "/>
        <polyline fill="none" stroke="#000000" stroke-width="1" points="  288,576 331.75,576 331.75,576 333.19,576.215 334.504,576.841 335.578,577.824 336.318,579.078 336.659,580.493 336.571,581.947 336.063,583.311 335.179,584.467 335.179,584.467 333.587,586.548 332.672,589.004 332.515,591.619 333.129,594.167 334.46,596.424 336.393,598.193 338.759,599.321 341.35,599.708 343.942,599.321 346.307,598.193 348.24,596.424 349.572,594.167 350.186,591.619 350.028,589.004 349.114,586.548 347.522,584.467 347.522,584.467 346.637,583.311 346.129,581.947 346.042,580.493 346.383,579.078 347.123,577.824 348.196,576.841 349.51,576.215 350.95,576 350.95,576 384,576 "/>
        <polyline fill="none" stroke="#000000" stroke-width="1" points="  0,672 42.9388,672 42.9388,672 44.3464,671.791 45.6328,671.183 46.6871,670.227 47.4187,669.007 47.7644,667.626 47.6946,666.205 47.2151,664.865 46.3674,663.722 46.3674,663.722 44.8415,661.665 43.9785,659.253 43.8527,656.695 44.475,654.21 45.7918,652.013 47.6896,650.293 50.0051,649.198 52.5388,648.822 55.0725,649.198 57.388,650.293 59.2858,652.013 60.6026,654.21 61.2249,656.695 61.0991,659.253 60.2361,661.665 58.7102,663.722 58.7102,663.722 57.8625,664.865 57.3831,666.205 57.3132,667.626 57.6589,669.007 58.3905,670.227 59.4448,671.183 60.7312,671.791 62.1388,672 62.1388,672 96,672 "/>
        <polyline fill="none" stroke="#000000" stroke-width="1" points="  96,672 130.086,672 130.086,672 131.858,671.72 133.458,670.909 134.73,669.644 135.552,668.049 135.842,666.278 135.573,664.505 134.771,662.9 133.514,661.62 133.514,661.62 131.251,659.315 129.808,656.426 129.324,653.233 129.847,650.047 131.325,647.175 133.615,644.899 136.496,643.438 139.686,642.935 142.875,643.438 145.756,644.899 148.046,647.175 149.524,650.047 150.047,653.233 149.563,656.426 148.12,659.315 145.857,661.62 145.857,661.62 144.6,662.9 143.798,664.505 143.529,666.278 143.82,668.049 144.641,669.644 145.913,670.909 147.513,671.72 149.286,672 149.286,672 192,672 "/>
        <polyline fill="none" stroke="#000000" stroke-width="1" points="  192,672 231.574,672 231.574,672 233.216,672.254 234.704,672.993 235.899,674.147 236.689,675.609 236.999,677.241 236.802,678.89 236.115,680.403 235.003,681.637 235.003,681.637 233.001,683.858 231.764,686.581 231.409,689.55 231.968,692.488 233.39,695.119 235.541,697.196 238.219,698.526 241.174,698.984 244.129,698.526 246.808,697.196 248.958,695.119 250.38,692.488 250.94,689.55 250.584,686.581 249.348,683.858 247.346,681.637 247.346,681.637 246.233,680.403 245.546,678.89 245.349,677.241 245.66,675.609 246.45,674.147 247.644,672.993 249.132,672.254 250.774,672 250.774,672 288,672 "/>
        <polyline fill="none" stroke="#000000" stroke-width="1" points="  288,672 327.563,672 327.563,672 329.18,672.249 330.647,672.974 331.827,674.108 332.611,675.544 332.925,677.15 332.741,678.775 332.076,680.27 330.992,681.495 330.992,681.495 329.039,683.7 327.842,686.391 327.511,689.317 328.077,692.207 329.488,694.792 331.612,696.832 334.252,698.137 337.163,698.586 340.074,698.137 342.714,696.832 344.838,694.792 346.249,692.207 346.815,689.317 346.484,686.391 345.287,683.7 343.334,681.495 343.334,681.495 342.25,680.27 341.585,678.775 341.401,677.15 341.715,675.544 342.499,674.108 343.679,672.974 345.146,672.249 346.763,672 346.763,672 384,672 "/>
        <polyline fill="none" stroke="#000000" stroke-width="1" points="  0,768 29.1815,768 29.1815,768 30.5784,768.207 31.8555,768.809 32.9034,769.756 33.6322,770.965 33.9795,772.334 33.9154,773.745 33.4455,775.076 32.6101,776.215 32.6101,776.215 31.0283,778.415 30.202,780.996 30.2117,783.706 31.0565,786.281 32.6541,788.469 34.8487,790.059 37.4266,790.895 40.1364,790.895 42.7143,790.059 44.9089,788.469 46.5065,786.281 47.3513,783.706 47.361,780.996 46.5347,778.415 44.9529,776.215 44.9529,776.215 44.1175,775.076 43.6476,773.745 43.5835,772.334 43.9308,770.965 44.6596,769.756 45.7075,768.809 46.9846,768.207 48.3815,768 48.3815,768 96,768 "/>
        <polyline fill="none" stroke="#000000" stroke-width="1" points="  96,768 130.51,768 130.51,768 131.989,768.223 133.337,768.871 134.434,769.887 135.183,771.18 135.519,772.638 135.41,774.129 134.868,775.522 133.939,776.694 133.939,776.694 132.267,778.804 131.29,781.312 131.095,783.996 131.699,786.619 133.048,788.948 135.023,790.777 137.449,791.943 140.11,792.344 142.772,791.943 145.198,790.777 147.172,788.948 148.522,786.619 149.125,783.996 148.93,781.312 147.953,778.804 146.282,776.694 146.282,776.694 145.353,775.522 144.81,774.129 144.702,772.638 145.037,771.18 145.787,769.887 146.884,768.871 148.232,768.223 149.71,768 149.71,768 192,768 "/>
        <polyline fill="none" stroke="#000000" stroke-width="1" points="  192,768 229.992,768 229.992,768 231.676,767.738 233.2,766.975 234.42,765.785 235.22,764.281 235.524,762.604 235.304,760.914 234.58,759.371 233.42,758.122 233.42,758.122 231.334,755.873 230.03,753.096 229.634,750.055 230.181,747.036 231.621,744.328 233.817,742.186 236.561,740.814 239.592,740.341 242.623,740.814 245.366,742.186 247.562,744.328 249.002,747.036 249.55,750.055 249.153,753.096 247.85,755.873 245.763,758.122 245.763,758.122 244.604,759.371 243.88,760.914 243.66,762.604 243.964,764.281 244.764,765.785 245.984,766.975 247.508,767.738 249.192,768 249.192,768 288,768 "/>
        <polyline fill="none" stroke="#000000" stroke-width="1" points="  288,768 334.296,768 334.296,768 335.734,768.215 337.046,768.84 338.119,769.821 338.858,771.073 339.199,772.486 339.113,773.937 338.607,775.299 337.725,776.455 337.725,776.455 336.137,778.534 335.226,780.987 335.071,783.599 335.685,786.142 337.016,788.395 338.946,790.161 341.309,791.286 343.896,791.673 346.484,791.286 348.846,790.161 350.777,788.395 352.107,786.142 352.722,783.599 352.567,780.987 351.656,778.534 350.068,776.455 350.068,776.455 349.186,775.299 348.68,773.937 348.593,772.486 348.935,771.073 349.674,769.821 350.746,768.84 352.059,768.215 353.496,768 353.496,768 384,768 "/>
        <polyline fill="none" stroke="#000000" stroke-width="1" points="  0,864 33.606,864 33.606,864 35.255,864.256 36.7492,864.999 37.9484,866.159 38.74,867.628 39.0496,869.268 38.8483,870.924 38.1549,872.442 37.0345,873.679 37.0345,873.679 35.0178,875.905 33.7697,878.637 33.4073,881.619 33.9647,884.57 35.3895,887.214 37.5481,889.303 40.2377,890.64 43.206,891.1 46.1742,890.64 48.8638,889.303 51.0224,887.214 52.4472,884.57 53.0046,881.619 52.6422,878.637 51.3941,875.905 49.3774,873.679 49.3774,873.679 48.257,872.442 47.5636,870.924 47.3623,869.268 47.6719,867.628 48.4635,866.159 49.6627,864.999 51.1569,864.256 52.806,864 52.806,864 96,864 "/>
        <polyline fill="none" stroke="#000000" stroke-width="1" points="  96,864 140.648,864 140.648,864 142.414,864.278 144.008,865.086 145.277,866.345 146.096,867.933 146.388,869.696 146.122,871.464 145.327,873.064 144.077,874.342 144.077,874.342 141.828,876.642 140.395,879.522 139.918,882.704 140.443,885.877 141.918,888.736 144.201,891.002 147.071,892.456 150.248,892.957 153.426,892.456 156.296,891.002 158.579,888.736 160.054,885.877 160.579,882.704 160.102,879.522 158.669,876.642 156.42,874.342 156.42,874.342 155.17,873.064 154.374,871.464 154.109,869.696 154.401,867.933 155.22,866.345 156.489,865.086 158.083,864.278 159.848,864 159.848,864 192,864 "/>
        <polyline fill="none" stroke="#000000" stroke-width="1" points="  192,864 222.595,864 222.595,864 224.086,863.775 225.444,863.12 226.549,862.094 227.301,860.787 227.635,859.317 227.52,857.813 226.966,856.411 226.023,855.234 226.023,855.234 224.326,853.116 223.33,850.591 223.123,847.885 223.723,845.238 225.078,842.886 227.066,841.038 229.511,839.86 232.195,839.455 234.879,839.86 237.323,841.038 239.312,842.886 240.666,845.238 241.267,847.885 241.06,850.591 240.063,853.116 238.366,855.234 238.366,855.234 237.424,856.411 236.87,857.813 236.755,859.317 237.088,860.787 237.841,862.094 238.946,863.12 240.304,863.775 241.795,864 241.795,864 288,864 "/>
        <polyline fill="none" stroke="#000000" stroke-width="1" points="  288,864 333.088,864 333.088,864 334.514,863.788 335.817,863.169 336.882,862.197 337.619,860.957 337.962,859.557 337.882,858.117 337.386,856.763 336.516,855.612 336.516,855.612 334.952,853.541 334.059,851.104 333.915,848.513 334.533,845.992 335.858,843.76 337.776,842.011 340.121,840.897 342.688,840.515 345.255,840.897 347.6,842.011 349.518,843.76 350.843,845.992 351.46,848.513 351.317,851.104 350.424,853.541 348.859,855.612 348.859,855.612 347.99,856.763 347.494,858.117 347.414,859.557 347.757,860.957 348.494,862.197 349.559,863.169 350.862,863.788 352.288,864 352.288,864 384,864 "/>
        <polyline fill="none" stroke="#000000" stroke-width="1" points="  0,960 33.7679,960 33.7679,960 35.5396,960.279 37.1393,961.091 38.4114,962.355 39.2326,963.95 39.523,965.72 39.2544,967.493 38.453,969.098 37.1965,970.378 37.1965,970.378 34.9348,972.682 33.4922,975.57 33.0088,978.762 33.5315,981.948 35.0096,984.818 37.2996,987.094 40.1789,988.554 43.3679,989.057 46.557,988.554 49.4363,987.094 51.7262,984.818 53.2043,981.948 53.7271,978.762 53.2437,975.57 51.8011,972.682 49.5394,970.378 49.5394,970.378 48.2829,969.098 47.4814,967.493 47.2129,965.72 47.5033,963.95 48.3244,962.355 49.5966,961.091 51.1962,960.279 52.9679,960 52.9679,960 96,960 "/>
        <polyline fill="none" stroke="#000000" stroke-width="1" points="  96,960 127.398,960 127.398,960 128.905,959.772 130.276,959.109 131.39,958.069 132.146,956.747 132.478,955.26 132.354,953.741 131.787,952.327 130.827,951.145 130.827,951.145 129.099,949.015 128.078,946.47 127.856,943.737 128.452,941.061 129.814,938.68 131.818,936.809 134.287,935.615 136.998,935.205 139.71,935.615 142.178,936.809 144.183,938.68 145.545,941.061 146.141,943.737 145.919,946.47 144.898,949.015 143.17,951.145 143.17,951.145 142.21,952.327 141.643,953.741 141.519,955.26 141.85,956.747 142.607,958.069 143.721,959.109 145.092,959.772 146.598,960 146.598,960 192,960 "/>
        <polyline fill="none" stroke="#000000" stroke-width="1" points="  192,960 238.58,960 238.58,960 240.021,959.785 241.335,959.158 242.41,958.174 243.15,956.92 243.491,955.504 243.403,954.05 242.894,952.685 242.009,951.529 242.009,951.529 240.415,949.447 239.499,946.99 239.341,944.373 239.955,941.824 241.287,939.566 243.221,937.796 245.587,936.667 248.18,936.28 250.773,936.667 253.14,937.796 255.073,939.566 256.405,941.824 257.019,944.373 256.861,946.99 255.945,949.447 254.352,951.529 254.352,951.529 253.466,952.685 252.957,954.05 252.87,955.504 253.211,956.92 253.951,958.174 255.025,959.158 256.34,959.785 257.78,960 257.78,960 288,960 "/>
        <polyline fill="none" stroke="#000000" stroke-width="1" points="  288,960 330.446,960 330.446,960 331.962,959.77 333.341,959.102 334.461,958.055 335.219,956.723 335.549,955.226 335.421,953.698 334.845,952.278 333.875,951.091 333.875,951.091 332.128,948.956 331.092,946.398 330.861,943.649 331.455,940.954 332.821,938.557 334.836,936.672 337.318,935.469 340.046,935.055 342.774,935.469 345.257,936.672 347.272,938.557 348.638,940.954 349.232,943.649 349,946.398 347.965,948.956 346.218,951.091 346.218,951.091 345.247,952.278 344.672,953.698 344.544,955.226 344.873,956.723 345.632,958.055 346.751,959.102 348.131,959.77 349.646,960 349.646,960 384,960 "/>
        <polyline fill="none" stroke="#000000" stroke-width="1" points="  0,1056 28.9938,1056 28.9938,1056 30.3852,1056.21 31.6576,1056.81 32.7022,1057.75 33.4296,1058.95 33.7776,1060.31 33.7165,1061.72 33.2515,1063.05 32.4224,1064.18 32.4224,1064.18 30.8526,1066.38 30.0354,1068.95 30.0501,1071.65 30.8954,1074.21 32.4891,1076.39 34.6763,1077.97 37.2442,1078.8 39.9434,1078.8 42.5114,1077.97 44.6985,1076.39 46.2922,1074.21 47.1375,1071.65 47.1522,1068.95 46.335,1066.38 44.7652,1064.18 44.7652,1064.18 43.9361,1063.05 43.4711,1061.72 43.41,1060.31 43.758,1058.95 44.4854,1057.75 45.53,1056.81 46.8024,1056.21 48.1938,1056 48.1938,1056 96,1056 "/>
        <polyline fill="none" stroke="#000000" stroke-width="1" points="  96,1056 135.959,1056 135.959,1056 137.542,1055.76 138.98,1055.05 140.139,1053.95 140.915,1052.55 141.235,1050.98 141.069,1049.38 140.434,1047.91 139.388,1046.7 139.388,1046.7 137.504,1044.52 136.36,1041.87 136.063,1039 136.638,1036.18 138.034,1033.66 140.122,1031.67 142.709,1030.4 145.559,1029.96 148.409,1030.4 150.996,1031.67 153.084,1033.66 154.48,1036.18 155.055,1039 154.758,1041.87 153.614,1044.52 151.73,1046.7 151.73,1046.7 150.684,1047.91 150.049,1049.38 149.883,1050.98 150.203,1052.55 150.979,1053.95 152.138,1055.05 153.576,1055.76 155.159,1056 155.159,1056 192,1056 "/>
        <polyline fill="none" stroke="#000000" stroke-width="1" points="  192,1056 231.094,1056 231.094,1056 232.686,1055.76 234.132,1055.04 235.298,1053.93 236.076,1052.52 236.394,1050.94 236.223,1049.34 235.58,1047.86 234.522,1046.64 234.522,1046.64 232.619,1044.46 231.46,1041.8 231.153,1038.91 231.726,1036.07 233.126,1033.53 235.224,1031.52 237.827,1030.24 240.694,1029.8 243.561,1030.24 246.163,1031.52 248.261,1033.53 249.661,1036.07 250.234,1038.91 249.927,1041.8 248.769,1044.46 246.865,1046.64 246.865,1046.64 245.808,1047.86 245.164,1049.34 244.993,1050.94 245.311,1052.52 246.089,1053.93 247.255,1055.04 248.701,1055.76 250.294,1056 250.294,1056 288,1056 "/>
        <polyline fill="none" stroke="#000000" stroke-width="1" points="  288,1056 321.029,1056 321.029,1056 322.524,1056.23 323.886,1056.88 324.993,1057.91 325.747,1059.22 326.079,1060.7 325.962,1062.21 325.405,1063.61 324.457,1064.79 324.457,1064.79 322.752,1066.91 321.749,1069.44 321.537,1072.16 322.137,1074.81 323.493,1077.17 325.486,1079.02 327.937,1080.21 330.629,1080.61 333.32,1080.21 335.771,1079.02 337.764,1077.17 339.121,1074.81 339.72,1072.16 339.509,1069.44 338.506,1066.91 336.8,1064.79 336.8,1064.79 335.853,1063.61 335.295,1062.21 335.178,1060.7 335.511,1059.22 336.265,1057.91 337.372,1056.88 338.734,1056.23 340.229,1056 340.229,1056 384,1056 "/>
        <polyline fill="none" stroke="#000000" stroke-width="1" points="  96,0 96,37.6795 96,37.6795 96.239,39.2427 96.934,40.6632 98.0217,41.8111 99.4027,42.5816 100.951,42.9044 102.525,42.75 103.98,42.1324 105.185,41.1081 105.185,41.1081 107.354,39.2643 109.974,38.1527 112.807,37.8746 115.594,38.4557 118.08,39.8426 120.037,41.9089 121.289,44.4657 121.719,47.2795 121.289,50.0933 120.037,52.6501 118.08,54.7164 115.594,56.1033 112.807,56.6844 109.974,56.4063 107.354,55.2947 105.185,53.4509 105.185,53.4509 103.98,52.4266 102.525,51.809 100.951,51.6546 99.4027,51.9774 98.0217,52.7479 96.934,53.8958 96.239,55.3163 96,56.8795 96,56.8795 96,96 "/>
        <polyline fill="none" stroke="#000000" stroke-width="1" points="  192,0 192,31.8651 192,31.8651 191.76,33.4358 191.06,34.8627 189.966,36.0151 188.578,36.7874 187.022,37.1091 185.441,36.9506 183.979,36.3264 182.772,35.2937 182.772,35.2937 180.598,33.4348 177.968,32.3113 175.122,32.0259 172.321,32.6049 169.821,33.9952 167.852,36.0695 166.593,38.6379 166.161,41.4651 166.593,44.2924 167.852,46.8607 169.821,48.935 172.321,50.3253 175.122,50.9043 177.968,50.6189 180.598,49.4954 182.772,47.6365 182.772,47.6365 183.979,46.6038 185.441,45.9797 187.022,45.8211 188.578,46.1428 189.966,46.9152 191.06,48.0676 191.76,49.4944 192,51.0651 192,51.0651 192,96 "/>
        <polyline fill="none" stroke="#000000" stroke-width="1" points="  288,0 288,46.2351 288,46.2351 288.24,47.8015 288.936,49.2246 290.027,50.3744 291.411,51.1457 292.962,51.468 294.539,51.3118 295.997,50.6915 297.203,49.6637 297.203,49.6637 299.374,47.8137 301.998,46.6971 304.837,46.416 307.629,46.9962 310.121,48.3846 312.083,50.4541 313.338,53.0158 313.769,55.8351 313.338,58.6545 312.083,61.2161 310.121,63.2857 307.629,64.6741 304.837,65.2543 301.998,64.9732 299.374,63.8566 297.203,62.0066 297.203,62.0066 295.997,60.9788 294.539,60.3584 292.962,60.2023 291.411,60.5246 290.027,61.2959 288.936,62.4457 288.24,63.8688 288,65.4351 288,65.4351 288,96 "/>
        <polyline fill="none" stroke="#000000" stroke-width="1" points="  96,96 96,129.885 96,129.885 96.2458,131.483 96.9603,132.934 98.0777,134.103 99.4946,134.882 101.08,135.199 102.688,135.026 104.169,134.377 105.387,133.314 105.387,133.314 107.579,131.399 110.246,130.232 113.139,129.92 115.993,130.491 118.544,131.893 120.555,133.997 121.841,136.608 122.284,139.485 121.841,142.362 120.555,144.973 118.544,147.077 115.993,148.479 113.139,149.051 110.246,148.738 107.579,147.571 105.387,145.657 105.387,145.657 104.169,144.593 102.688,143.944 101.08,143.771 99.4946,144.088 98.0777,144.868 96.9603,146.036 96.2458,147.487 96,149.085 96,149.085 96,192 "/>
        <polyline fill="none" stroke="#000000" stroke-width="1" points="  192,96 192,126.21 192,126.21 191.734,127.914 190.96,129.456 189.753,130.688 188.228,131.493 186.53,131.794 184.821,131.562 183.264,130.821 182.007,129.639 182.007,129.639 179.746,127.512 176.943,126.177 173.867,125.76 170.81,126.302 168.065,127.751 165.892,129.969 164.5,132.743 164.021,135.81 164.5,138.878 165.892,141.652 168.065,143.87 170.81,145.319 173.867,145.861 176.943,145.444 179.746,144.109 182.007,141.982 182.007,141.982 183.264,140.8 184.821,140.059 186.53,139.827 188.228,140.128 189.753,140.933 190.96,142.165 191.734,143.707 192,145.41 192,145.41 192,192 "/>
        <polyline fill="none" stroke="#000000" stroke-width="1" points="  288,96 288,138.563 288,138.563 287.764,140.111 287.078,141.518 286.003,142.656 284.639,143.423 283.108,143.748 281.549,143.602 280.105,142.999 278.906,141.992 278.906,141.992 276.748,140.18 274.148,139.094 271.343,138.831 268.587,139.416 266.13,140.796 264.197,142.846 262.961,145.378 262.537,148.163 262.961,150.949 264.197,153.481 266.13,155.531 268.587,156.91 271.343,157.496 274.148,157.233 276.748,156.147 278.906,154.335 278.906,154.335 280.105,153.328 281.549,152.725 283.108,152.579 284.639,152.904 286.003,153.671 287.078,154.809 287.764,156.216 288,157.763 288,157.763 288,192 "/>
        <polyline fill="none" stroke="#000000" stroke-width="1" points="  96,192 96,239.661 96,239.661 95.7657,241.2 95.0841,242.599 94.0169,243.733 92.6608,244.497 91.1386,244.824 89.5882,244.683 88.1501,244.086 86.9545,243.089 86.9545,243.089 84.8025,241.294 82.2139,240.221 79.4232,239.967 76.6833,240.555 74.2423,241.931 72.3213,243.971 71.0944,246.49 70.6727,249.261 71.0944,252.031 72.3213,254.55 74.2423,256.591 76.6833,257.967 79.4232,258.554 82.2139,258.3 84.8025,257.227 86.9545,255.432 86.9545,255.432 88.1501,254.435 89.5882,253.839 91.1386,253.698 92.6608,254.024 94.0169,254.788 95.0841,255.922 95.7657,257.322 96,258.861 96,258.861 96,288 "/>
        <polyline fill="none" stroke="#000000" stroke-width="1" points="  192,192 192,238.107 192,238.107 192.235,239.648 192.917,241.05 193.986,242.184 195.345,242.949 196.869,243.275 198.421,243.133 199.861,242.535 201.057,241.536 201.057,241.536 203.211,239.737 205.802,238.66 208.596,238.404 211.34,238.991 213.785,240.368 215.709,242.411 216.938,244.933 217.36,247.707 216.938,250.481 215.709,253.004 213.785,255.046 211.34,256.423 208.596,257.01 205.802,256.754 203.211,255.677 201.057,253.879 201.057,253.879 199.861,252.879 198.421,252.281 196.869,252.139 195.345,252.465 193.986,253.23 192.917,254.365 192.235,255.766 192,257.307 192,257.307 192,288 "/>
        <polyline fill="none" stroke="#000000" stroke-width="1" points="  288,192 288,223.309 288,223.309 287.766,224.844 287.087,226.241 286.023,227.372 284.671,228.135 283.153,228.462 281.607,228.323 280.171,227.73 278.977,226.738 278.977,226.738 276.828,224.951 274.245,223.884 271.461,223.634 268.729,224.222 266.295,225.597 264.38,227.633 263.157,230.146 262.737,232.909 263.157,235.672 264.38,238.186 266.295,240.222 268.729,241.596 271.461,242.185 274.245,241.934 276.828,240.867 278.977,239.081 278.977,239.081 280.171,238.088 281.607,237.495 283.153,237.356 284.671,237.683 286.023,238.447 287.087,239.578 287.766,240.974 288,242.509 288,242.509 288,288 "/>
        <polyline fill="none" stroke="#000000" stroke-width="1" points="  96,288 96,328.689 96,328.689 95.7219,330.453 94.9147,332.047 93.6565,333.315 92.0693,334.134 90.307,334.426 88.5405,334.161 86.941,333.366 85.6636,332.118 85.6636,332.118 83.3642,329.87 80.4851,328.439 77.3054,327.963 74.1333,328.488 71.2764,329.963 69.0117,332.245 67.5586,335.113 67.058,338.289 67.5586,341.465 69.0117,344.333 71.2764,346.615 74.1333,348.09 77.3054,348.615 80.4851,348.139 83.3642,346.708 85.6636,344.46 85.6636,344.46 86.941,343.212 88.5405,342.417 90.307,342.152 92.0693,342.444 93.6565,343.263 94.9147,344.531 95.7219,346.125 96,347.889 96,347.889 96,384 "/>
        <polyline fill="none" stroke="#000000" stroke-width="1" points="  192,288 192,330.352 192,330.352 192.231,331.874 192.903,333.258 193.955,334.381 195.293,335.142 196.797,335.471 198.33,335.339 199.755,334.758 200.944,333.781 200.944,333.781 203.084,332.022 205.649,330.976 208.409,330.739 211.115,331.332 213.524,332.7 215.418,334.721 216.627,337.214 217.043,339.952 216.627,342.691 215.418,345.183 213.524,347.205 211.115,348.573 208.409,349.165 205.649,348.928 203.084,347.883 200.944,346.124 200.944,346.124 199.755,345.146 198.33,344.566 196.797,344.434 195.293,344.763 193.955,345.523 192.903,346.646 192.231,348.031 192,349.552 192,349.552 192,384 "/>
        <polyline fill="none" stroke="#000000" stroke-width="1" points="  288,288 288,328.118 288,328.118 287.742,329.781 286.991,331.288 285.818,332.496 284.334,333.291 282.679,333.598 281.009,333.389 279.481,332.683 278.239,331.546 278.239,331.546 276.004,329.501 273.253,328.23 270.247,327.854 267.268,328.407 264.597,329.838 262.487,332.012 261.135,334.724 260.67,337.718 261.135,340.712 262.487,343.424 264.597,345.598 267.268,347.029 270.247,347.582 273.253,347.206 276.004,345.935 278.239,343.889 278.239,343.889 279.481,342.753 281.009,342.047 282.679,341.838 284.334,342.145 285.818,342.94 286.991,344.148 287.742,345.655 288,347.318 288,347.318 288,384 "/>
        <polyline fill="none" stroke="#000000" stroke-width="1" points="  96,384 96,431.575 96,431.575 96.2123,433.001 96.8309,434.303 97.802,435.368 99.0414,436.104 100.441,436.448 101.881,436.368 103.234,435.872 104.385,435.004 104.385,435.004 106.456,433.44 108.892,432.548 111.483,432.404 114.003,433.022 116.234,434.347 117.982,436.265 119.096,438.609 119.478,441.175 119.096,443.741 117.982,446.085 116.234,448.003 114.003,449.328 111.483,449.946 108.892,449.802 106.456,448.91 104.385,447.346 104.385,447.346 103.234,446.478 101.881,445.982 100.441,445.903 99.0414,446.246 97.802,446.982 96.8309,448.047 96.2123,449.349 96,450.775 96,450.775 96,480 "/>
        <polyline fill="none" stroke="#000000" stroke-width="1" points="  192,384 192,426.061 192,426.061 191.779,427.529 191.137,428.869 190.129,429.96 188.845,430.707 187.399,431.044 185.917,430.941 184.531,430.407 183.363,429.489 183.363,429.489 181.26,427.837 178.766,426.876 176.098,426.691 173.494,427.297 171.184,428.642 169.37,430.606 168.213,433.017 167.816,435.661 168.213,438.305 169.37,440.715 171.184,442.679 173.494,444.024 176.098,444.63 178.766,444.445 181.26,443.484 183.363,441.832 183.363,441.832 184.531,440.914 185.917,440.381 187.399,440.277 188.845,440.614 190.129,441.361 191.137,442.453 191.779,443.792 192,445.261 192,445.261 192,480 "/>
        <polyline fill="none" stroke="#000000" stroke-width="1" points="  288,384 288,428.767 288,428.767 288.262,430.448 289.023,431.971 290.211,433.189 291.714,433.989 293.388,434.293 295.076,434.074 296.618,433.352 297.866,432.195 297.866,432.195 300.113,430.113 302.887,428.813 305.926,428.418 308.94,428.966 311.644,430.405 313.783,432.599 315.153,435.339 315.625,438.367 315.153,441.394 313.783,444.134 311.644,446.328 308.94,447.767 305.926,448.315 302.887,447.92 300.113,446.62 297.866,444.538 297.866,444.538 296.618,443.381 295.076,442.659 293.388,442.44 291.714,442.744 290.211,443.544 289.023,444.762 288.262,446.285 288,447.967 288,447.967 288,480 "/>
        <polyline fill="none" stroke="#000000" stroke-width="1" points="  96,480 96,521.49 96,521.49 96.2386,523.052 96.9328,524.471 98.019,525.618 99.3982,526.388 100.944,526.711 102.517,526.557 103.971,525.941 105.175,524.919 105.175,524.919 107.343,523.079 109.961,521.97 112.791,521.693 115.574,522.275 118.057,523.661 120.012,525.726 121.261,528.28 121.691,531.09 121.261,533.901 120.012,536.455 118.057,538.52 115.574,539.906 112.791,540.487 109.961,540.211 107.343,539.102 105.175,537.262 105.175,537.262 103.971,536.24 102.517,535.623 100.944,535.47 99.3982,535.793 98.019,536.563 96.9328,537.71 96.2386,539.129 96,540.69 96,540.69 96,576 "/>
        <polyline fill="none" stroke="#000000" stroke-width="1" points="  192,480 192,517.456 192,517.456 192.249,519.072 192.974,520.538 194.107,521.718 195.542,522.502 197.147,522.816 198.773,522.633 200.267,521.968 201.492,520.884 201.492,520.884 203.696,518.933 206.386,517.737 209.312,517.406 212.201,517.973 214.785,519.383 216.824,521.507 218.128,524.146 218.577,527.056 218.128,529.965 216.824,532.604 214.785,534.728 212.201,536.138 209.312,536.705 206.386,536.375 203.696,535.178 201.492,533.227 201.492,533.227 200.267,532.143 198.773,531.478 197.147,531.295 195.542,531.61 194.107,532.393 192.974,533.573 192.249,535.039 192,536.656 192,536.656 192,576 "/>
        <polyline fill="none" stroke="#000000" stroke-width="1" points="  288,480 288,521.496 288,521.496 287.771,523.009 287.104,524.385 286.06,525.503 284.731,526.261 283.237,526.591 281.713,526.464 280.294,525.892 279.109,524.925 279.109,524.925 276.976,523.184 274.423,522.154 271.679,521.926 268.99,522.52 266.599,523.885 264.718,525.896 263.518,528.374 263.106,531.096 263.518,533.819 264.718,536.297 266.599,538.308 268.99,539.672 271.679,540.267 274.423,540.039 276.976,539.008 279.109,537.268 279.109,537.268 280.294,536.301 281.713,535.728 283.237,535.601 284.731,535.932 286.06,536.69 287.104,537.807 287.771,539.184 288,540.696 288,540.696 288,576 "/>
        <polyline fill="none" stroke="#000000" stroke-width="1" points="  96,576 96,618.228 96,618.228 96.2499,619.847 96.9762,621.316 98.1115,622.498 99.5501,623.282 101.158,623.596 102.786,623.411 104.283,622.744 105.509,621.657 105.509,621.657 107.715,619.699 110.409,618.499 113.339,618.165 116.234,618.731 118.823,620.143 120.867,622.269 122.174,624.913 122.624,627.828 122.174,630.743 120.867,633.386 118.823,635.513 116.234,636.925 113.339,637.491 110.409,637.157 107.715,635.956 105.509,633.999 105.509,633.999 104.283,632.912 102.786,632.245 101.158,632.06 99.5501,632.374 98.1115,633.158 96.9762,634.34 96.2499,635.809 96,637.428 96,637.428 96,672 "/>
        <polyline fill="none" stroke="#000000" stroke-width="1" points="  192,576 192,617.092 192,617.092 191.738,618.776 190.975,620.301 189.785,621.521 188.28,622.321 186.603,622.625 184.913,622.404 183.37,621.68 182.121,620.521 182.121,620.521 179.872,618.434 177.095,617.13 174.053,616.733 171.034,617.281 168.325,618.721 166.183,620.917 164.811,623.661 164.338,626.692 164.811,629.723 166.183,632.467 168.325,634.663 171.034,636.104 174.053,636.651 177.095,636.254 179.872,634.951 182.121,632.864 182.121,632.864 183.37,631.704 184.913,630.98 186.603,630.759 188.28,631.064 189.785,631.864 190.975,633.084 191.738,634.608 192,636.292 192,636.292 192,672 "/>
        <polyline fill="none" stroke="#000000" stroke-width="1" points="  288,576 288,612.107 288,612.107 288.26,613.779 289.016,615.293 290.196,616.506 291.688,617.303 293.352,617.609 295.031,617.395 296.565,616.682 297.81,615.536 297.81,615.536 300.051,613.473 302.812,612.189 305.834,611.804 308.829,612.355 311.516,613.789 313.639,615.973 315,618.698 315.468,621.707 315,624.717 313.639,627.442 311.516,629.625 308.829,631.06 305.834,631.611 302.812,631.226 300.051,629.941 297.81,627.879 297.81,627.879 296.565,626.733 295.031,626.019 293.352,625.805 291.688,626.111 290.196,626.908 289.016,628.121 288.26,629.635 288,631.307 288,631.307 288,672 "/>
        <polyline fill="none" stroke="#000000" stroke-width="1" points="  96,672 96,705.511 96,705.511 96.2235,706.995 96.874,708.346 97.8939,709.446 99.1925,710.197 100.655,710.531 102.151,710.421 103.547,709.874 104.721,708.94 104.721,708.94 106.834,707.259 109.348,706.275 112.041,706.075 114.673,706.677 117.01,708.029 118.846,710.009 120.017,712.441 120.419,715.111 120.017,717.781 118.846,720.214 117.01,722.194 114.673,723.545 112.041,724.148 109.348,723.948 106.834,722.964 104.721,721.283 104.721,721.283 103.547,720.349 102.151,719.802 100.655,719.691 99.1925,720.026 97.8939,720.776 96.874,721.876 96.2235,723.228 96,724.711 96,724.711 96,768 "/>
        <polyline fill="none" stroke="#000000" stroke-width="1" points="  192,672 192,718.267 192,718.267 192.222,719.744 192.869,721.09 193.884,722.186 195.176,722.935 196.631,723.271 198.121,723.163 199.513,722.622 200.685,721.695 200.685,721.695 202.793,720.027 205.299,719.053 207.98,718.859 210.6,719.464 212.926,720.812 214.752,722.785 215.917,725.208 216.317,727.867 215.917,730.525 214.752,732.948 212.926,734.922 210.6,736.27 207.98,736.874 205.299,736.681 202.793,735.707 200.685,734.038 200.685,734.038 199.513,733.111 198.121,732.57 196.631,732.463 195.176,732.798 193.884,733.547 192.869,734.644 192.222,735.99 192,737.467 192,737.467 192,768 "/>
        <polyline fill="none" stroke="#000000" stroke-width="1" points="  288,672 288,714.801 288,714.801 288.21,716.215 288.822,717.507 289.784,718.566 291.011,719.299 292.399,719.644 293.827,719.57 295.172,719.085 296.318,718.229 296.318,718.229 298.38,716.69 300.801,715.816 303.371,715.683 305.869,716.304 308.079,717.624 309.809,719.529 310.911,721.855 311.289,724.401 310.911,726.947 309.809,729.273 308.079,731.178 305.869,732.498 303.371,733.118 300.801,732.986 298.38,732.112 296.318,730.572 296.318,730.572 295.172,729.717 293.827,729.231 292.399,729.158 291.011,729.503 289.784,730.236 288.822,731.294 288.21,732.586 288,734.001 288,734.001 288,768 "/>
        <polyline fill="none" stroke="#000000" stroke-width="1" points="  96,768 96,814.719 96,814.719 96.2392,816.283 96.935,817.705 98.0237,818.853 99.406,819.624 100.955,819.947 102.53,819.792 103.987,819.173 105.193,818.147 105.193,818.147 107.362,816.301 109.984,815.187 112.819,814.908 115.608,815.489 118.096,816.876 120.056,818.944 121.308,821.503 121.739,824.319 121.308,827.135 120.056,829.694 118.096,831.761 115.608,833.149 112.819,833.729 109.984,833.45 107.362,832.336 105.193,830.49 105.193,830.49 103.987,829.464 102.53,828.846 100.955,828.691 99.406,829.013 98.0237,829.784 96.935,830.933 96.2392,832.354 96,833.919 96,833.919 96,864 "/>
        <polyline fill="none" stroke="#000000" stroke-width="1" points="  192,768 192,802.703 192,802.703 191.762,804.261 191.07,805.677 189.986,806.822 188.61,807.591 187.068,807.915 185.499,807.763 184.047,807.15 182.844,806.131 182.844,806.131 180.678,804.298 178.065,803.194 175.24,802.921 172.463,803.503 169.987,804.888 168.037,806.949 166.791,809.498 166.362,812.303 166.791,815.108 168.037,817.657 169.987,819.717 172.463,821.102 175.24,821.685 178.065,821.411 180.678,820.308 182.844,818.474 182.844,818.474 184.047,817.455 185.499,816.842 187.068,816.691 188.61,817.014 189.986,817.783 191.07,818.928 191.762,820.344 192,821.903 192,821.903 192,864 "/>
        <polyline fill="none" stroke="#000000" stroke-width="1" points="  288,768 288,798.325 288,798.325 288.23,799.842 288.899,801.223 289.948,802.343 291.282,803.102 292.78,803.432 294.309,803.303 295.731,802.726 296.918,801.754 296.918,801.754 299.055,800.003 301.614,798.965 304.367,798.733 307.064,799.326 309.464,800.692 311.352,802.709 312.557,805.194 312.971,807.925 312.557,810.656 311.352,813.141 309.464,815.158 307.064,816.524 304.367,817.118 301.614,816.885 299.055,815.847 296.918,814.096 296.918,814.096 295.731,813.124 294.309,812.547 292.78,812.418 291.282,812.748 289.948,813.507 288.899,814.627 288.23,816.008 288,817.525 288,817.525 288,864 "/>
        <polyline fill="none" stroke="#000000" stroke-width="1" points="  96,864 96,894.164 96,894.164 95.7334,895.87 94.959,897.413 93.7507,898.645 92.2238,899.451 90.524,899.752 88.8134,899.519 87.2554,898.776 85.9985,897.593 85.9985,897.593 83.736,895.463 80.9316,894.125 77.8526,893.707 74.7929,894.249 72.0445,895.698 69.8695,897.917 68.4756,900.694 67.9957,903.764 68.4756,906.834 69.8695,909.611 72.0445,911.83 74.7929,913.28 77.8526,913.821 80.9316,913.403 83.736,912.066 85.9985,909.936 85.9985,909.936 87.2554,908.752 88.8134,908.009 90.524,907.777 92.2238,908.078 93.7507,908.883 94.959,910.116 95.7334,911.659 96,913.364 96,913.364 96,960 "/>
        <polyline fill="none" stroke="#000000" stroke-width="1" points="  192,864 192,894.644 192,894.644 192.206,896.035 192.805,897.307 193.747,898.351 194.95,899.079 196.313,899.427 197.718,899.366 199.045,898.901 200.181,898.072 200.181,898.072 202.376,896.503 204.949,895.686 207.647,895.701 210.21,896.546 212.388,898.14 213.969,900.327 214.801,902.894 214.801,905.593 213.969,908.161 212.388,910.347 210.21,911.941 207.647,912.786 204.949,912.801 202.376,911.984 200.181,910.415 200.181,910.415 199.045,909.586 197.718,909.121 196.313,909.06 194.95,909.408 193.747,910.136 192.805,911.18 192.206,912.452 192,913.844 192,913.844 192,960 "/>
        <polyline fill="none" stroke="#000000" stroke-width="1" points="  288,864 288,896.328 288,896.328 287.758,897.908 287.053,899.343 285.951,900.502 284.552,901.276 282.985,901.597 281.395,901.433 279.926,900.8 278.715,899.756 278.715,899.756 276.535,897.877 273.892,896.738 271.029,896.443 268.209,897.02 265.691,898.414 263.707,900.499 262.438,903.083 262.002,905.928 262.438,908.772 263.707,911.356 265.691,913.441 268.209,914.835 271.029,915.412 273.892,915.117 276.535,913.978 278.715,912.099 278.715,912.099 279.926,911.055 281.395,910.422 282.985,910.259 284.552,910.579 285.951,911.353 287.053,912.512 287.758,913.947 288,915.528 288,915.528 288,960 "/>
        <polyline fill="none" stroke="#000000" stroke-width="1" points="  96,960 96,992.709 96,992.709 96.2736,994.45 97.0679,996.024 98.3064,997.278 99.8698,998.091 101.607,998.387 103.352,998.135 104.935,997.36 106.204,996.138 106.204,996.138 108.489,993.937 111.339,992.542 114.479,992.089 117.607,992.62 120.421,994.085 122.65,996.343 124.08,999.175 124.573,1002.31 124.08,1005.44 122.65,1008.28 120.421,1010.53 117.607,1012 114.479,1012.53 111.339,1012.08 108.489,1010.68 106.204,1008.48 106.204,1008.48 104.935,1007.26 103.352,1006.48 101.607,1006.23 99.8698,1006.53 98.3064,1007.34 97.0679,1008.59 96.2736,1010.17 96,1011.91 96,1011.91 96,1056 "/>
        <polyline fill="none" stroke="#000000" stroke-width="1" points="  192,960 192,1002.49 192,1002.49 191.722,1004.25 190.917,1005.84 189.661,1007.11 188.077,1007.93 186.318,1008.22 184.554,1007.96 182.956,1007.16 181.68,1005.92 181.68,1005.92 179.382,1003.68 176.507,1002.25 173.332,1001.78 170.165,1002.3 167.314,1003.78 165.053,1006.06 163.603,1008.92 163.103,1012.09 163.603,1015.26 165.053,1018.13 167.314,1020.4 170.165,1021.88 173.332,1022.4 176.507,1021.93 179.382,1020.5 181.68,1018.26 181.68,1018.26 182.956,1017.02 184.554,1016.22 186.318,1015.96 188.077,1016.25 189.661,1017.07 190.917,1018.34 191.722,1019.93 192,1021.69 192,1021.69 192,1056 "/>
        <polyline fill="none" stroke="#000000" stroke-width="1" points="  288,960 288,1003.85 288,1003.85 288.214,1005.29 288.839,1006.6 289.819,1007.67 291.07,1008.41 292.482,1008.75 293.932,1008.67 295.294,1008.16 296.449,1007.28 296.449,1007.28 298.528,1005.69 300.979,1004.78 303.589,1004.63 306.131,1005.24 308.382,1006.57 310.146,1008.5 311.271,1010.86 311.657,1013.45 311.271,1016.04 310.146,1018.4 308.382,1020.33 306.131,1021.66 303.589,1022.27 300.979,1022.12 298.528,1021.21 296.449,1019.62 296.449,1019.62 295.294,1018.74 293.932,1018.24 292.482,1018.15 291.07,1018.49 289.819,1019.23 288.839,1020.3 288.214,1021.61 288,1023.05 288,1023.05 288,1056 "/>
        <polyline fill="none" stroke="#000000" stroke-width="1" points="  96,1056 96,1102.36 96,1102.36 96.2251,1103.86 96.8804,1105.21 97.9074,1106.32 99.2148,1107.07 100.686,1107.41 102.19,1107.29 103.593,1106.74 104.771,1105.79 104.771,1105.79 106.889,1104.09 109.415,1103.1 112.123,1102.89 114.771,1103.49 117.124,1104.84 118.973,1106.83 120.152,1109.28 120.558,1111.96 120.152,1114.65 118.973,1117.1 117.124,1119.08 114.771,1120.44 112.123,1121.04 109.415,1120.83 106.889,1119.83 104.771,1118.14 104.771,1118.14 103.593,1117.19 102.19,1116.64 100.686,1116.52 99.2148,1116.86 97.9074,1117.61 96.8804,1118.71 96.2251,1120.07 96,1121.56 96,1121.56 96,1152 "/>
        <polyline fill="none" stroke="#000000" stroke-width="1" points="  192,1056 192,1103.94 192,1103.94 192.235,1105.48 192.917,1106.88 193.986,1108.02 195.344,1108.78 196.868,1109.11 198.42,1108.96 199.859,1108.37 201.056,1107.37 201.056,1107.37 203.209,1105.57 205.8,1104.49 208.594,1104.24 211.337,1104.82 213.781,1106.2 215.705,1108.24 216.933,1110.77 217.356,1113.54 216.933,1116.31 215.705,1118.83 213.781,1120.88 211.337,1122.25 208.594,1122.84 205.8,1122.58 203.209,1121.51 201.056,1119.71 201.056,1119.71 199.859,1118.71 198.42,1118.11 196.868,1117.97 195.344,1118.3 193.986,1119.06 192.917,1120.2 192.235,1121.6 192,1123.14 192,1123.14 192,1152 "/>
        <polyline fill="none" stroke="#000000" stroke-width="1" points="  288,1056 288,1098.7 288,1098.7 287.769,1100.22 287.096,1101.61 286.042,1102.73 284.702,1103.49 283.196,1103.82 281.661,1103.69 280.235,1103.11 279.045,1102.13 279.045,1102.13 276.904,1100.36 274.336,1099.31 271.573,1099.08 268.863,1099.67 266.451,1101.04 264.554,1103.06 263.342,1105.55 262.926,1108.3 263.342,1111.04 264.554,1113.53 266.451,1115.56 268.863,1116.93 271.573,1117.52 274.336,1117.28 276.904,1116.23 279.045,1114.47 279.045,1114.47 280.235,1113.49 281.661,1112.91 283.196,1112.77 284.702,1113.1 286.042,1113.86 287.096,1114.99 287.769,1116.37 288,1117.9 288,1117.9 288,1152 "/>
    </g>
</svg>
