<?xml version="1.0" encoding="utf-8"?>
<!DOCTYPE svg PUBLIC "-//W3C//DTD SVG 1.0//EN" "http://www.w3.org/TR/2001/REC-SVG-20010904/DTD/svg10.dtd" [
<!ENTITY ns_svg "http://www.w3.org/2000/svg">
]>
<svg xmlns="&ns_svg;" width="1152" height="384" overflow="visible">
    <g id="Layer_1">
        <rect x="0" y="0" rx="0" ry="0" width="1152" height="384" fill="none" stroke="#000000"/>
        <polyline fill="none" stroke="#000000" stroke-width="1" points="  0,96 33.9135,96 33.9135,96 35.4138,96.2268 36.7801,96.8868 37.8902,97.9211 38.6451,99.2373 38.9774,100.718 38.8572,102.23 38.2954,103.64 37.3421,104.82 37.3421,104.82 35.6262,106.945 34.615,109.482 34.3987,112.205 34.9966,114.87 36.3555,117.239 38.3538,119.101 40.813,120.289 43.5135,120.697 46.214,120.289 48.6733,119.101 50.6716,117.239 52.0304,114.87 52.6284,112.205 52.4121,109.482 51.4008,106.945 49.685,104.82 49.685,104.82 48.7317,103.64 48.1699,102.23 48.0497,100.718 48.3819,99.2373 49.1368,97.9211 50.247,96.8868 51.6133,96.2268 53.1135,96 53.1135,96 96,96 "/>
        <polyline fill="none" stroke="#000000" stroke-width="1" points="  96,96 142.47,96 142.47,96 144.065,95.7549 145.513,95.0422 146.679,93.9277 147.458,92.5143 147.776,90.9324 147.604,89.328 146.958,87.8492 145.899,86.6325 145.899,86.6325 143.991,84.4424 142.829,81.7806 142.52,78.8927 143.092,76.0452 144.493,73.5011 146.594,71.495 149.199,70.2122 152.07,69.771 154.941,70.2122 157.547,71.495 159.647,73.5011 161.048,76.0452 161.62,78.8927 161.311,81.7806 160.149,84.4424 158.242,86.6325 158.242,86.6325 157.182,87.8492 156.536,89.328 156.364,90.9324 156.682,92.5143 157.461,93.9277 158.628,95.0422 160.075,95.7549 161.67,96 161.67,96 192,96 "/>
        <polyline fill="none" stroke="#000000" stroke-width="1" points="  192,96 231.725,96 231.725,96 233.174,95.7831 234.497,95.1515 235.576,94.1604 236.318,92.8967 236.658,91.4711 236.565,90.0086 236.049,88.6372 235.154,87.4771 235.154,87.4771 233.542,85.3888 232.612,82.9203 232.445,80.2877 233.057,77.7217 234.393,75.4471 236.336,73.6631 238.716,72.5261 241.325,72.1358 243.934,72.5261 246.314,73.6631 248.257,75.4471 249.593,77.7217 250.204,80.2877 250.038,82.9203 249.108,85.3888 247.496,87.4771 247.496,87.4771 246.601,88.6372 246.084,90.0086 245.992,91.4711 246.332,92.8967 247.074,94.1604 248.153,95.1515 249.476,95.7831 250.925,96 250.925,96 288,96 "/>
        <polyline fill="none" stroke="#000000" stroke-width="1" points="  288,96 331.998,96 331.998,96 333.463,95.7802 334.798,95.1401 335.887,94.1361 336.633,92.8568 336.97,91.4148 336.869,89.9373 336.339,88.5545 335.427,87.3882 335.427,87.3882 333.784,85.289 332.83,82.7999 332.648,80.1404 333.256,77.5448 334.599,75.242 336.558,73.4349 338.962,72.2827 341.598,71.887 344.234,72.2827 346.638,73.4349 348.598,75.242 349.94,77.5448 350.548,80.1404 350.367,82.7999 349.412,85.289 347.77,87.3882 347.77,87.3882 346.857,88.5545 346.327,89.9373 346.226,91.4148 346.564,92.8568 347.31,94.1361 348.398,95.1401 349.734,95.7802 351.198,96 351.198,96 384,96 "/>
        <polyline fill="none" stroke="#000000" stroke-width="1" points="  384,96 425.169,96 425.169,96 426.89,96.2696 428.446,97.0524 429.688,98.2735 430.497,99.8159 430.795,101.532 430.555,103.257 429.798,104.825 428.598,106.088 428.598,106.088 426.438,108.36 425.076,111.183 424.643,114.288 425.181,117.377 426.637,120.153 428.872,122.351 431.672,123.76 434.769,124.245 437.867,123.76 440.667,122.351 442.902,120.153 444.358,117.377 444.896,114.288 444.463,111.183 443.101,108.36 440.941,106.088 440.941,106.088 439.741,104.825 438.984,103.257 438.744,101.532 439.042,99.8159 439.851,98.2735 441.093,97.0524 442.649,96.2696 444.369,96 444.369,96 480,96 "/>
        <polyline fill="none" stroke="#000000" stroke-width="1" points="  480,96 508.817,96 508.817,96 510.564,96.2746 512.142,97.072 513.4,98.3152 514.215,99.8843 514.509,101.628 514.254,103.378 513.475,104.965 512.246,106.236 512.246,106.236 510.034,108.524 508.631,111.381 508.172,114.531 508.702,117.669 510.169,120.493 512.433,122.731 515.273,124.166 518.417,124.661 521.561,124.166 524.402,122.731 526.665,120.493 528.133,117.669 528.663,114.531 528.204,111.381 526.801,108.524 524.589,106.236 524.589,106.236 523.36,104.965 522.58,103.378 522.326,101.628 522.62,99.8843 523.435,98.3152 524.692,97.072 526.271,96.2746 528.017,96 528.017,96 576,96 "/>
        <polyline fill="none" stroke="#000000" stroke-width="1" points="  576,96 617.802,96 617.802,96 619.498,95.7353 621.032,94.9664 622.259,93.7664 623.062,92.2496 623.364,90.5603 623.137,88.8591 622.403,87.308 621.23,86.0546 621.23,86.0546 619.12,83.7985 617.798,81.0065 617.39,77.9444 617.934,74.9036 619.379,72.1733 621.588,70.0134 624.35,68.6293 627.402,68.1529 630.454,68.6293 633.216,70.0134 635.424,72.1733 636.87,74.9036 637.414,77.9444 637.006,81.0065 635.683,83.7985 633.573,86.0546 633.573,86.0546 632.401,87.308 631.666,88.8591 631.44,90.5603 631.742,92.2496 632.545,93.7664 633.772,94.9664 635.306,95.7353 637.002,96 637.002,96 672,96 "/>
        <polyline fill="none" stroke="#000000" stroke-width="1" points="  672,96 711.482,96 711.482,96 713.054,96.2407 714.482,96.9406 715.635,98.0356 716.408,99.4255 716.729,100.983 716.57,102.565 715.945,104.027 714.911,105.235 714.911,105.235 713.049,107.41 711.924,110.042 711.637,112.89 712.216,115.693 713.607,118.195 715.683,120.166 718.253,121.426 721.082,121.859 723.912,121.426 726.482,120.166 728.558,118.195 729.948,115.693 730.527,112.89 730.24,110.042 729.115,107.41 727.254,105.235 727.254,105.235 726.22,104.027 725.594,102.565 725.435,100.983 725.757,99.4255 726.529,98.0356 727.682,96.9406 729.11,96.2407 730.682,96 730.682,96 768,96 "/>
        <polyline fill="none" stroke="#000000" stroke-width="1" points="  768,96 801.395,96 801.395,96 803.046,96.256 804.542,96.9999 805.742,98.1619 806.534,99.6329 806.844,101.275 806.642,102.933 805.946,104.452 804.824,105.689 804.824,105.689 802.803,107.917 801.552,110.651 801.188,113.636 801.745,116.591 803.171,119.239 805.331,121.331 808.024,122.67 810.995,123.13 813.967,122.67 816.66,121.331 818.82,119.239 820.246,116.591 820.803,113.636 820.438,110.651 819.187,107.917 817.167,105.689 817.167,105.689 816.044,104.452 815.349,102.933 815.147,101.275 815.456,99.6329 816.248,98.1619 817.449,96.9999 818.945,96.256 820.595,96 820.595,96 864,96 "/>
        <polyline fill="none" stroke="#000000" stroke-width="1" points="  864,96 897.748,96 897.748,96 899.453,96.2665 900.995,97.0406 902.228,98.2485 903.033,99.7749 903.334,101.474 903.102,103.184 902.359,104.742 901.176,105.999 901.176,105.999 899.047,108.261 897.71,111.065 897.293,114.143 897.835,117.201 899.284,119.949 901.502,122.123 904.279,123.516 907.348,123.996 910.417,123.516 913.193,122.123 915.412,119.949 916.861,117.201 917.403,114.143 916.985,111.065 915.648,108.261 913.519,105.999 913.519,105.999 912.336,104.742 911.594,103.184 911.362,101.474 911.663,99.7749 912.468,98.2485 913.7,97.0406 915.243,96.2665 916.948,96 916.948,96 960,96 "/>
        <polyline fill="none" stroke="#000000" stroke-width="1" points="  960,96 1003.17,96 1003.17,96 1004.68,96.2297 1006.06,96.8982 1007.18,97.9455 1007.94,99.2775 1008.27,100.774 1008.14,102.302 1007.57,103.723 1006.6,104.909 1006.6,104.909 1004.85,107.045 1003.81,109.602 1003.58,112.352 1004.18,115.046 1005.54,117.444 1007.56,119.329 1010.04,120.532 1012.77,120.946 1015.5,120.532 1017.98,119.329 1019.99,117.444 1021.36,115.046 1021.95,112.352 1021.72,109.602 1020.69,107.045 1018.94,104.909 1018.94,104.909 1017.97,103.723 1017.39,102.302 1017.27,100.774 1017.6,99.2775 1018.35,97.9455 1019.47,96.8982 1020.85,96.2297 1022.37,96 1022.37,96 1056,96 "/>
        <polyline fill="none" stroke="#000000" stroke-width="1" points="  1056,96 1090.08,96 1090.08,96 1091.53,95.7832 1092.85,95.1519 1093.93,94.1613 1094.68,92.8982 1095.02,91.4733 1094.92,90.0113 1094.41,88.6404 1093.51,87.4805 1093.51,87.4805 1091.9,85.3927 1090.97,82.9249 1090.81,80.2934 1091.42,77.7285 1092.75,75.455 1094.7,73.6719 1097.08,72.5355 1099.68,72.1453 1102.29,72.5355 1104.67,73.6719 1106.61,75.455 1107.95,77.7285 1108.56,80.2934 1108.39,82.9249 1107.47,85.3927 1105.86,87.4805 1105.86,87.4805 1104.96,88.6404 1104.44,90.0113 1104.35,91.4733 1104.69,92.8982 1105.43,94.1613 1106.51,95.1519 1107.84,95.7832 1109.28,96 1109.28,96 1152,96 "/>
        <polyline fill="none" stroke="#000000" stroke-width="1" points="  0,192 37.0663,192 37.0663,192 38.5804,191.771 39.9586,191.103 41.0771,190.057 41.8354,188.726 42.1656,187.231 42.0379,185.705 41.4638,184.285 40.4949,183.099 40.4949,183.099 38.7509,180.965 37.7175,178.409 37.4877,175.662 38.082,172.971 39.447,170.576 41.4603,168.693 43.941,167.491 46.6663,167.078 49.3917,167.491 51.8724,168.693 53.8856,170.576 55.2507,172.971 55.845,175.662 55.6151,178.409 54.5818,180.965 52.8378,183.099 52.8378,183.099 51.8689,184.285 51.2948,185.705 51.1671,187.231 51.4973,188.726 52.2556,190.057 53.3741,191.103 54.7522,191.771 56.2663,192 56.2663,192 96,192 "/>
        <polyline fill="none" stroke="#000000" stroke-width="1" points="  96,192 130.95,192 130.95,192 132.369,191.789 133.666,191.174 134.728,190.208 135.462,188.975 135.806,187.582 135.73,186.149 135.24,184.8 134.379,183.653 134.379,183.653 132.828,181.586 131.946,179.159 131.809,176.579 132.428,174.071 133.75,171.852 135.661,170.114 137.995,169.007 140.55,168.627 143.105,169.007 145.439,170.114 147.35,171.852 148.672,174.071 149.291,176.579 149.154,179.159 148.272,181.586 146.721,183.653 146.721,183.653 145.86,184.8 145.37,186.149 145.294,187.582 145.638,188.975 146.373,190.208 147.434,191.174 148.731,191.789 150.15,192 150.15,192 192,192 "/>
        <polyline fill="none" stroke="#000000" stroke-width="1" points="  192,192 239.163,192 239.163,192 240.596,192.214 241.905,192.836 242.974,193.814 243.713,195.061 244.055,196.469 243.971,197.916 243.469,199.275 242.592,200.428 242.592,200.428 241.013,202.505 240.109,204.951 239.958,207.555 240.574,210.09 241.902,212.335 243.828,214.094 246.183,215.215 248.763,215.599 251.343,215.215 253.698,214.094 255.624,212.335 256.952,210.09 257.568,207.555 257.417,204.951 256.513,202.505 254.934,200.428 254.934,200.428 254.057,199.275 253.555,197.916 253.471,196.469 253.813,195.061 254.552,193.814 255.621,192.836 256.93,192.214 258.363,192 258.363,192 288,192 "/>
        <polyline fill="none" stroke="#000000" stroke-width="1" points="  288,192 324.964,192 324.964,192 326.38,191.789 327.675,191.176 328.735,190.212 329.469,188.982 329.813,187.592 329.738,186.161 329.251,184.814 328.392,183.668 328.392,183.668 326.847,181.603 325.969,179.179 325.835,176.604 326.455,174.102 327.776,171.887 329.683,170.153 332.013,169.049 334.564,168.669 337.114,169.049 339.444,170.153 341.352,171.887 342.673,174.102 343.293,176.604 343.158,179.179 342.28,181.603 340.735,183.668 340.735,183.668 339.877,184.814 339.389,186.161 339.314,187.592 339.659,188.982 340.392,190.212 341.452,191.176 342.747,191.789 344.164,192 344.164,192 384,192 "/>
        <polyline fill="none" stroke="#000000" stroke-width="1" points="  384,192 422.065,192 422.065,192 423.814,192.275 425.393,193.073 426.652,194.318 427.467,195.889 427.761,197.634 427.506,199.386 426.725,200.974 425.494,202.246 425.494,202.246 423.278,204.535 421.872,207.394 421.412,210.547 421.941,213.688 423.409,216.516 425.675,218.756 428.518,220.193 431.665,220.688 434.812,220.193 437.656,218.756 439.921,216.516 441.389,213.688 441.918,210.547 441.458,207.394 440.052,204.535 437.837,202.246 437.837,202.246 436.606,200.974 435.825,199.386 435.569,197.634 435.863,195.889 436.679,194.318 437.937,193.073 439.517,192.275 441.265,192 441.265,192 480,192 "/>
        <polyline fill="none" stroke="#000000" stroke-width="1" points="  480,192 512.997,192 512.997,192 514.555,191.762 515.972,191.069 517.117,189.986 517.886,188.61 518.21,187.066 518.058,185.497 517.444,184.045 516.425,182.842 516.425,182.842 514.591,180.676 513.487,178.062 513.213,175.237 513.796,172.46 515.181,169.982 517.242,168.032 519.791,166.785 522.597,166.357 525.402,166.785 527.952,168.032 530.013,169.982 531.398,172.46 531.98,175.237 531.707,178.062 530.603,180.676 528.768,182.842 528.768,182.842 527.749,184.045 527.136,185.497 526.984,187.066 527.307,188.61 528.077,189.986 529.222,191.069 530.638,191.762 532.197,192 532.197,192 576,192 "/>
        <polyline fill="none" stroke="#000000" stroke-width="1" points="  576,192 616.386,192 616.386,192 617.83,191.784 619.148,191.155 620.225,190.168 620.966,188.91 621.306,187.49 621.216,186.032 620.704,184.665 619.814,183.506 619.814,183.506 618.213,181.422 617.291,178.96 617.13,176.336 617.742,173.78 619.076,171.515 621.014,169.739 623.386,168.607 625.986,168.218 628.586,168.607 630.958,169.739 632.896,171.515 634.229,173.78 634.842,176.336 634.681,178.96 633.759,181.422 632.157,183.506 632.157,183.506 631.268,184.665 630.755,186.032 630.666,187.49 631.006,188.91 631.747,190.168 632.823,191.155 634.142,191.784 635.586,192 635.586,192 672,192 "/>
        <polyline fill="none" stroke="#000000" stroke-width="1" points="  672,192 710.854,192 710.854,192 712.555,191.734 714.093,190.963 715.323,189.759 716.127,188.237 716.429,186.543 716.199,184.837 715.461,183.283 714.283,182.027 714.283,182.027 712.163,179.768 710.834,176.97 710.421,173.9 710.964,170.85 712.411,168.111 714.625,165.944 717.394,164.555 720.454,164.077 723.515,164.555 726.284,165.944 728.498,168.111 729.945,170.85 730.488,173.9 730.075,176.97 728.746,179.768 726.626,182.027 726.626,182.027 725.448,183.283 724.71,184.837 724.48,186.543 724.782,188.237 725.586,189.759 726.816,190.963 728.354,191.734 730.054,192 730.054,192 768,192 "/>
        <polyline fill="none" stroke="#000000" stroke-width="1" points="  768,192 803.199,192 803.199,192 804.754,192.237 806.167,192.928 807.31,194.008 808.078,195.381 808.402,196.92 808.252,198.486 807.642,199.935 806.627,201.137 806.627,201.137 804.8,203.3 803.702,205.909 803.432,208.727 804.016,211.498 805.399,213.968 807.456,215.913 810,217.156 812.799,217.583 815.597,217.156 818.141,215.913 820.199,213.968 821.582,211.498 822.165,208.727 821.895,205.909 820.797,203.3 818.97,201.137 818.97,201.137 817.955,199.935 817.345,198.486 817.195,196.92 817.519,195.381 818.288,194.008 819.431,192.928 820.844,192.237 822.399,192 822.399,192 864,192 "/>
        <polyline fill="none" stroke="#000000" stroke-width="1" points="  864,192 905.698,192 905.698,192 907.471,192.28 909.071,193.092 910.344,194.357 911.165,195.953 911.456,197.724 911.187,199.498 910.384,201.104 909.126,202.384 909.126,202.384 906.862,204.689 905.418,207.579 904.933,210.773 905.456,213.961 906.934,216.833 909.225,219.111 912.107,220.572 915.298,221.076 918.489,220.572 921.37,219.111 923.661,216.833 925.14,213.961 925.662,210.773 925.178,207.579 923.733,204.689 921.469,202.384 921.469,202.384 920.211,201.104 919.409,199.498 919.14,197.724 919.43,195.953 920.251,194.357 921.524,193.092 923.125,192.28 924.898,192 924.898,192 960,192 "/>
        <polyline fill="none" stroke="#000000" stroke-width="1" points="  960,192 1000.09,192 1000.09,192 1001.66,191.759 1003.09,191.06 1004.24,189.965 1005.02,188.576 1005.34,187.019 1005.18,185.437 1004.56,183.976 1003.52,182.768 1003.52,182.768 1001.66,180.594 1000.54,177.963 1000.25,175.115 1000.83,172.313 1002.22,169.813 1004.3,167.842 1006.86,166.583 1009.69,166.15 1012.52,166.583 1015.09,167.842 1017.17,169.813 1018.56,172.313 1019.14,175.115 1018.85,177.963 1017.72,180.594 1015.86,182.768 1015.86,182.768 1014.83,183.976 1014.21,185.437 1014.05,187.019 1014.37,188.576 1015.14,189.965 1016.29,191.06 1017.72,191.759 1019.29,192 1019.29,192 1056,192 "/>
        <polyline fill="none" stroke="#000000" stroke-width="1" points="  1056,192 1087.64,192 1087.64,192 1089.1,192.219 1090.43,192.857 1091.51,193.857 1092.26,195.131 1092.6,196.569 1092.5,198.042 1091.97,199.421 1091.06,200.586 1091.06,200.586 1089.43,202.682 1088.48,205.165 1088.31,207.816 1088.91,210.403 1090.26,212.698 1092.21,214.498 1094.61,215.646 1097.24,216.04 1099.86,215.646 1102.26,214.498 1104.22,212.698 1105.56,210.403 1106.16,207.816 1105.99,205.165 1105.04,202.682 1103.41,200.586 1103.41,200.586 1102.5,199.421 1101.97,198.042 1101.87,196.569 1102.21,195.131 1102.96,193.857 1104.04,192.857 1105.38,192.219 1106.84,192 1106.84,192 1152,192 "/>
        <polyline fill="none" stroke="#000000" stroke-width="1" points="  0,288 44.7166,288 44.7166,288 46.4586,287.726 48.0327,286.932 49.2872,285.692 50.1012,284.128 50.3964,282.39 50.1441,280.645 49.3688,279.061 48.1452,277.791 48.1452,277.791 45.9426,275.506 44.5471,272.655 44.093,269.514 44.6243,266.384 46.0895,263.569 48.3477,261.338 51.181,259.908 54.3166,259.415 57.4521,259.908 60.2855,261.338 62.5437,263.569 64.0089,266.384 64.5402,269.514 64.0861,272.655 62.6906,275.506 60.488,277.791 60.488,277.791 59.2644,279.061 58.4891,280.645 58.2368,282.39 58.532,284.128 59.346,285.692 60.6005,286.932 62.1746,287.726 63.9166,288 63.9166,288 96,288 "/>
        <polyline fill="none" stroke="#000000" stroke-width="1" points="  96,288 139.604,288 139.604,288 141.146,288.235 142.549,288.918 143.684,289.988 144.449,291.347 144.775,292.873 144.632,294.426 144.033,295.866 143.033,297.063 143.033,297.063 141.232,299.217 140.154,301.81 139.897,304.606 140.483,307.352 141.861,309.798 143.904,311.724 146.428,312.954 149.204,313.377 151.98,312.954 154.504,311.724 156.548,309.798 157.925,307.352 158.512,304.606 158.255,301.81 157.177,299.217 155.376,297.063 155.376,297.063 154.375,295.866 153.776,294.426 153.633,292.873 153.959,291.347 154.725,289.988 155.86,288.918 157.262,288.235 158.804,288 158.804,288 192,288 "/>
        <polyline fill="none" stroke="#000000" stroke-width="1" points="  192,288 236.342,288 236.342,288 237.801,288.219 239.132,288.856 240.218,289.855 240.962,291.129 241.3,292.566 241.203,294.038 240.677,295.417 239.771,296.581 239.771,296.581 238.139,298.676 237.193,301.158 237.017,303.808 237.626,306.393 238.966,308.686 240.92,310.486 243.315,311.632 245.942,312.026 248.569,311.632 250.964,310.486 252.918,308.686 254.258,306.393 254.867,303.808 254.691,301.158 253.745,298.676 252.113,296.581 252.113,296.581 251.207,295.417 250.681,294.038 250.584,292.566 250.922,291.129 251.666,289.855 252.752,288.856 254.083,288.219 255.542,288 255.542,288 288,288 "/>
        <polyline fill="none" stroke="#000000" stroke-width="1" points="  288,288 317.35,288 317.35,288 319.046,287.735 320.581,286.966 321.809,285.765 322.612,284.247 322.914,282.556 322.687,280.854 321.952,279.302 320.778,278.049 320.778,278.049 318.666,275.792 317.342,272.999 316.933,269.935 317.477,266.892 318.922,264.16 321.132,261.998 323.895,260.613 326.95,260.136 330.004,260.613 332.767,261.998 334.977,264.16 336.422,266.892 336.966,269.935 336.557,272.999 335.233,275.792 333.121,278.049 333.121,278.049 331.947,279.302 331.212,280.854 330.985,282.556 331.287,284.247 332.09,285.765 333.318,286.966 334.853,287.735 336.55,288 336.55,288 384,288 "/>
        <polyline fill="none" stroke="#000000" stroke-width="1" points="  384,288 419.203,288 419.203,288 420.703,288.227 422.069,288.887 423.179,289.921 423.934,291.236 424.266,292.717 424.146,294.229 423.584,295.638 422.632,296.818 422.632,296.818 420.916,298.943 419.906,301.48 419.69,304.202 420.288,306.866 421.646,309.235 423.644,311.096 426.103,312.284 428.803,312.692 431.503,312.284 433.962,311.096 435.96,309.235 437.318,306.866 437.916,304.202 437.7,301.48 436.69,298.943 434.974,296.818 434.974,296.818 434.022,295.638 433.46,294.229 433.34,292.717 433.672,291.236 434.427,289.921 435.537,288.887 436.903,288.227 438.403,288 438.403,288 480,288 "/>
        <polyline fill="none" stroke="#000000" stroke-width="1" points="  480,288 516.672,288 516.672,288 518.296,287.749 519.769,287.02 520.953,285.881 521.739,284.438 522.052,282.825 521.864,281.192 521.193,279.693 520.101,278.465 520.101,278.465 518.134,276.256 516.926,273.556 516.589,270.618 517.153,267.714 518.567,265.116 520.698,263.066 523.349,261.754 526.272,261.302 529.195,261.754 531.846,263.066 533.978,265.116 535.392,267.714 535.956,270.618 535.618,273.556 534.41,276.256 532.444,278.465 532.444,278.465 531.351,279.693 530.68,281.192 530.492,282.825 530.806,284.438 531.591,285.881 532.776,287.02 534.248,287.749 535.872,288 535.872,288 576,288 "/>
        <polyline fill="none" stroke="#000000" stroke-width="1" points="  576,288 623.093,288 623.093,288 624.527,288.214 625.836,288.837 626.906,289.815 627.644,291.062 627.986,292.471 627.902,293.918 627.4,295.278 626.522,296.432 626.522,296.432 624.942,298.509 624.037,300.956 623.886,303.561 624.501,306.097 625.83,308.343 627.756,310.103 630.112,311.225 632.693,311.61 635.274,311.225 637.63,310.103 639.557,308.343 640.885,306.097 641.501,303.561 641.35,300.956 640.445,298.509 638.865,296.432 638.865,296.432 637.987,295.278 637.484,293.918 637.4,292.471 637.742,291.062 638.48,289.815 639.55,288.837 640.859,288.214 642.293,288 642.293,288 672,288 "/>
        <polyline fill="none" stroke="#000000" stroke-width="1" points="  672,288 709.897,288 709.897,288 711.376,288.223 712.723,288.871 713.821,289.887 714.57,291.181 714.906,292.639 714.797,294.13 714.254,295.524 713.325,296.696 713.325,296.696 711.653,298.806 710.676,301.314 710.48,303.999 711.084,306.623 712.433,308.952 714.408,310.782 716.834,311.948 719.497,312.349 722.159,311.948 724.585,310.782 726.56,308.952 727.909,306.623 728.513,303.999 728.318,301.314 727.34,298.806 725.668,296.696 725.668,296.696 724.739,295.524 724.196,294.13 724.087,292.639 724.423,291.181 725.172,289.887 726.27,288.871 727.618,288.223 729.097,288 729.097,288 768,288 "/>
        <polyline fill="none" stroke="#000000" stroke-width="1" points="  768,288 797.076,288 797.076,288 798.668,288.245 800.113,288.956 801.278,290.067 802.055,291.478 802.374,293.056 802.204,294.658 801.561,296.135 800.505,297.35 800.505,297.35 798.603,299.538 797.446,302.196 797.14,305.079 797.713,307.92 799.113,310.459 801.21,312.46 803.811,313.74 806.676,314.18 809.541,313.74 812.142,312.46 814.239,310.459 815.639,307.92 816.212,305.079 815.906,302.196 814.749,299.538 812.847,297.35 812.847,297.35 811.791,296.135 811.148,294.658 810.978,293.056 811.297,291.478 812.074,290.067 813.239,288.956 814.684,288.245 816.276,288 816.276,288 864,288 "/>
        <polyline fill="none" stroke="#000000" stroke-width="1" points="  864,288 909.797,288 909.797,288 911.279,287.777 912.63,287.127 913.729,286.108 914.48,284.81 914.815,283.349 914.704,281.854 914.158,280.458 913.226,279.285 913.226,279.285 911.547,277.173 910.564,274.66 910.366,271.97 910.969,269.34 912.319,267.004 914.298,265.17 916.729,264 919.397,263.598 922.065,264 924.496,265.17 926.475,267.004 927.826,269.34 928.429,271.97 928.23,274.66 927.248,277.173 925.569,279.285 925.569,279.285 924.636,280.458 924.09,281.854 923.98,283.349 924.315,284.81 925.065,286.108 926.164,287.127 927.515,287.777 928.997,288 928.997,288 960,288 "/>
        <polyline fill="none" stroke="#000000" stroke-width="1" points="  960,288 1002.8,288 1002.8,288 1004.29,287.774 1005.66,287.117 1006.76,286.088 1007.52,284.777 1007.85,283.303 1007.73,281.795 1007.17,280.39 1006.23,279.212 1006.23,279.212 1004.52,277.091 1003.52,274.561 1003.31,271.848 1003.91,269.194 1005.27,266.835 1007.26,264.982 1009.71,263.799 1012.4,263.393 1015.09,263.799 1017.54,264.982 1019.53,266.835 1020.89,269.194 1021.49,271.848 1021.28,274.561 1020.28,277.091 1018.57,279.212 1018.57,279.212 1017.62,280.39 1017.07,281.795 1016.95,283.303 1017.28,284.777 1018.04,286.088 1019.14,287.117 1020.5,287.774 1022,288 1022,288 1056,288 "/>
        <polyline fill="none" stroke="#000000" stroke-width="1" points="  1056,288 1096.47,288 1096.47,288 1098.24,287.721 1099.83,286.912 1101.1,285.652 1101.92,284.061 1102.21,282.296 1101.95,280.527 1101.15,278.925 1099.9,277.647 1099.9,277.647 1097.64,275.345 1096.21,272.462 1095.73,269.278 1096.25,266.1 1097.73,263.237 1100.01,260.968 1102.89,259.512 1106.07,259.01 1109.25,259.512 1112.12,260.968 1114.41,263.237 1115.88,266.1 1116.41,269.278 1115.93,272.462 1114.49,275.345 1112.24,277.647 1112.24,277.647 1110.99,278.925 1110.19,280.527 1109.92,282.296 1110.22,284.061 1111.04,285.652 1112.3,286.912 1113.9,287.721 1115.67,288 1115.67,288 1152,288 "/>
        <polyline fill="none" stroke="#000000" stroke-width="1" points="  96,0 96,47.5762 96,47.5762 96.2191,49.0368 96.857,50.3689 97.8577,51.4552 99.133,52.2002 100.571,52.5382 102.044,52.4396 103.424,51.913 104.589,51.0047 104.589,51.0047 106.685,49.3699 109.169,48.422 111.822,48.2445 114.41,48.853 116.705,50.1939 118.507,52.1493 119.655,54.547 120.049,57.1762 119.655,59.8053 118.507,62.2031 116.705,64.1584 114.41,65.4994 111.822,66.1079 109.169,65.9304 106.685,64.9825 104.589,63.3476 104.589,63.3476 103.424,62.4393 102.044,61.9127 100.571,61.8141 99.133,62.1522 97.8577,62.8971 96.857,63.9835 96.2191,65.3155 96,66.7762 96,66.7762 96,96 "/>
        <polyline fill="none" stroke="#000000" stroke-width="1" points="  192,0 192,32.2573 192,32.2573 191.787,33.6868 191.166,34.9921 190.192,36.0597 188.949,36.7968 187.545,37.1394 186.102,37.0576 184.745,36.5587 183.593,35.6858 183.593,35.6858 181.52,34.1148 179.078,33.2166 176.48,33.0695 173.953,33.6861 171.715,35.0129 169.961,36.9346 168.844,39.2841 168.461,41.8573 168.844,44.4305 169.961,46.78 171.715,48.7017 173.953,50.0285 176.48,50.6451 179.078,50.4979 181.52,49.5998 183.593,48.0287 183.593,48.0287 184.745,47.1559 186.102,46.6569 187.545,46.5752 188.949,46.9177 190.192,47.6548 191.166,48.7224 191.787,50.0277 192,51.4573 192,51.4573 192,96 "/>
        <polyline fill="none" stroke="#000000" stroke-width="1" points="  288,0 288,36.5101 288,36.5101 287.731,38.2282 286.95,39.7818 285.731,41.0222 284.191,41.8305 282.478,42.1293 280.755,41.8902 279.188,41.1359 277.927,39.9387 277.927,39.9387 275.656,37.7837 272.836,36.426 269.735,35.9955 266.652,36.5335 263.88,37.9885 261.686,40.2211 260.279,43.0176 259.795,46.1101 260.279,49.2027 261.686,51.9992 263.88,54.2318 266.652,55.6867 269.735,56.2247 272.836,55.7943 275.656,54.4365 277.927,52.2816 277.927,52.2816 279.188,51.0844 280.755,50.3301 282.478,50.0909 284.191,50.3898 285.731,51.1981 286.95,52.4384 287.731,53.992 288,55.7101 288,55.7101 288,96 "/>
        <polyline fill="none" stroke="#000000" stroke-width="1" points="  384,0 384,36.8266 384,36.8266 383.749,38.4541 383.018,39.9299 381.875,41.1162 380.428,41.9026 378.812,42.2156 377.176,42.026 375.673,41.3515 374.444,40.2551 374.444,40.2551 372.233,38.2816 369.528,37.0676 366.584,36.7264 363.673,37.2897 361.069,38.7051 359.013,40.8406 357.697,43.497 357.244,46.4266 357.697,49.3561 359.013,52.0125 361.069,54.148 363.673,55.5634 366.584,56.1268 369.528,55.7855 372.233,54.5715 374.444,52.598 374.444,52.598 375.673,51.5016 377.176,50.8271 378.812,50.6376 380.428,50.9505 381.875,51.7369 383.018,52.9232 383.749,54.399 384,56.0266 384,56.0266 384,96 "/>
        <polyline fill="none" stroke="#000000" stroke-width="1" points="  480,0 480,32.4313 480,32.4313 480.223,33.9124 480.872,35.262 481.89,36.3606 483.187,37.1107 484.646,37.4458 486.14,37.3361 487.535,36.7914 488.708,35.8599 488.708,35.8599 490.819,34.1833 493.331,33.2028 496.019,33.0053 498.647,33.6084 500.98,34.9586 502.813,36.9361 503.981,39.3655 504.383,42.0313 503.981,44.6972 502.813,47.1266 500.98,49.1041 498.647,50.4542 496.019,51.0573 493.331,50.8599 490.819,49.8794 488.708,48.2028 488.708,48.2028 487.535,47.2713 486.14,46.7266 484.646,46.6169 483.187,46.952 481.89,47.702 480.872,48.8006 480.223,50.1503 480,51.6313 480,51.6313 480,96 "/>
        <polyline fill="none" stroke="#000000" stroke-width="1" points="  576,0 576,32.875 576,32.875 576.211,34.2924 576.825,35.5873 577.789,36.6476 579.019,37.3817 580.411,37.726 581.842,37.6508 583.189,37.1626 584.336,36.3035 584.336,36.3035 586.401,34.7573 588.826,33.8785 591.402,33.7431 593.906,34.3628 596.121,35.6841 597.856,37.5927 598.961,39.9235 599.341,42.475 598.961,45.0264 597.856,47.3572 596.121,49.2658 593.906,50.5871 591.402,51.2069 588.826,51.0715 586.401,50.1926 584.336,48.6464 584.336,48.6464 583.189,47.7874 581.842,47.2991 580.411,47.2239 579.019,47.5682 577.789,48.3023 576.825,49.3626 576.211,50.6575 576,52.075 576,52.075 576,96 "/>
        <polyline fill="none" stroke="#000000" stroke-width="1" points="  672,0 672,35.0122 672,35.0122 671.788,36.4376 671.169,37.7393 670.199,38.8044 668.96,39.5405 667.56,39.8836 666.121,39.8041 664.768,39.3088 663.617,38.4407 663.617,38.4407 661.547,36.8782 659.111,35.9867 656.521,35.8435 654.001,36.4612 651.771,37.7862 650.024,39.7034 648.911,42.0465 648.529,44.6122 648.911,47.1779 650.024,49.521 651.771,51.4382 654.001,52.7631 656.521,53.3808 659.111,53.2377 661.547,52.3462 663.617,50.7836 663.617,50.7836 664.768,49.9155 666.121,49.4202 667.56,49.3407 668.96,49.6839 670.199,50.4199 671.169,51.4851 671.788,52.7868 672,54.2122 672,54.2122 672,96 "/>
        <polyline fill="none" stroke="#000000" stroke-width="1" points="  768,0 768,45.4329 768,45.4329 767.774,46.9304 767.115,48.2942 766.083,49.4027 764.77,50.1569 763.293,50.4895 761.783,50.3709 760.376,49.8116 759.196,48.8615 759.196,48.8615 757.073,47.1514 754.54,46.1446 751.822,45.9311 749.163,46.5298 746.799,47.8874 744.942,49.8826 743.756,52.3375 743.349,55.0329 743.756,57.7283 744.942,60.1832 746.799,62.1785 749.163,63.536 751.822,64.1348 754.54,63.9212 757.073,62.9145 759.196,61.2044 759.196,61.2044 760.376,60.2543 761.783,59.695 763.293,59.5764 764.77,59.909 766.083,60.6632 767.115,61.7717 767.774,63.1355 768,64.6329 768,64.6329 768,96 "/>
        <polyline fill="none" stroke="#000000" stroke-width="1" points="  864,0 864,37.1131 864,37.1131 864.244,38.7027 864.954,40.1458 866.064,41.3095 867.472,42.0865 869.048,42.4053 870.648,42.2365 872.123,41.5956 873.337,40.5417 873.337,40.5417 875.524,38.6446 878.179,37.491 881.058,37.187 883.895,37.7609 886.43,39.1595 888.428,41.2542 889.705,43.8518 890.145,46.7131 889.705,49.5744 888.428,52.172 886.43,54.2666 883.895,55.6653 881.058,56.2391 878.179,55.9352 875.524,54.7816 873.337,52.8845 873.337,52.8845 872.123,51.8306 870.648,51.1897 869.048,51.0208 867.472,51.3396 866.064,52.1167 864.954,53.2804 864.244,54.7235 864,56.3131 864,56.3131 864,96 "/>
        <polyline fill="none" stroke="#000000" stroke-width="1" points="  960,0 960,42.023 960,42.023 959.739,43.7007 958.98,45.2197 957.795,46.436 956.297,47.2346 954.626,47.5398 952.942,47.3227 951.404,46.604 950.157,45.4515 950.157,45.4515 947.912,43.3771 945.143,42.0833 942.112,41.6926 939.105,42.242 936.408,43.6794 934.275,45.8688 932.909,48.6029 932.439,51.623 932.909,54.643 934.275,57.3771 936.408,59.5665 939.105,61.0039 942.112,61.5533 945.143,61.1626 947.912,59.8688 950.157,57.7944 950.157,57.7944 951.404,56.6419 952.942,55.9232 954.626,55.7061 956.297,56.0113 957.795,56.8099 958.98,58.0262 959.739,59.5452 960,61.223 960,61.223 960,96 "/>
        <polyline fill="none" stroke="#000000" stroke-width="1" points="  1056,0 1056,41.7465 1056,41.7465 1055.73,43.4546 1054.96,44.9996 1053.75,46.234 1052.22,47.0399 1050.51,47.3404 1048.8,47.1067 1047.24,46.3612 1045.98,45.1751 1045.98,45.1751 1043.72,43.0401 1040.91,41.6982 1037.83,41.2776 1034.76,41.8184 1032.01,43.269 1029.83,45.4909 1028.44,48.2719 1027.95,51.3465 1028.44,54.4211 1029.83,57.2021 1032.01,59.424 1034.76,60.8746 1037.83,61.4155 1040.91,60.9948 1043.72,59.653 1045.98,57.5179 1045.98,57.5179 1047.24,56.3318 1048.8,55.5863 1050.51,55.3526 1052.22,55.6531 1053.75,56.459 1054.96,57.6934 1055.73,59.2384 1056,60.9465 1056,60.9465 1056,96 "/>
        <polyline fill="none" stroke="#000000" stroke-width="1" points="  96,96 96,125.56 96,125.56 96.2359,127.107 96.9221,128.514 97.9964,129.653 99.3611,130.419 100.892,130.745 102.451,130.599 103.895,129.995 105.094,128.989 105.094,128.989 107.252,127.177 109.851,126.091 112.656,125.828 115.412,126.413 117.869,127.793 119.803,129.843 121.038,132.375 121.462,135.16 121.038,137.945 119.803,140.478 117.869,142.527 115.412,143.907 112.656,144.492 109.851,144.23 107.252,143.143 105.094,141.332 105.094,141.332 103.895,140.325 102.451,139.721 100.892,139.576 99.3611,139.901 97.9964,140.667 96.9221,141.806 96.2359,143.213 96,144.76 96,144.76 96,192 "/>
        <polyline fill="none" stroke="#000000" stroke-width="1" points="  192,96 192,132.274 192,132.274 192.274,134.016 193.069,135.591 194.308,136.846 195.873,137.66 197.612,137.955 199.358,137.702 200.942,136.927 202.211,135.702 202.211,135.702 204.497,133.499 207.348,132.103 210.491,131.648 213.621,132.179 216.437,133.645 218.668,135.904 220.099,138.738 220.592,141.874 220.099,145.01 218.668,147.844 216.437,150.103 213.621,151.568 210.491,152.099 207.348,151.645 204.497,150.249 202.211,148.045 202.211,148.045 200.942,146.821 199.358,146.046 197.612,145.793 195.873,146.088 194.308,146.902 193.069,148.157 192.274,149.731 192,151.474 192,151.474 192,192 "/>
        <polyline fill="none" stroke="#000000" stroke-width="1" points="  288,96 288,139.818 288,139.818 287.769,141.341 287.097,142.726 286.044,143.849 284.705,144.609 283.201,144.938 281.667,144.806 280.242,144.225 279.053,143.247 279.053,143.247 276.912,141.487 274.346,140.44 271.585,140.203 268.878,140.795 266.468,142.163 264.573,144.185 263.363,146.678 262.947,149.418 263.363,152.158 264.573,154.651 266.468,156.673 268.878,158.042 271.585,158.634 274.346,158.396 276.912,157.35 279.053,155.59 279.053,155.59 280.242,154.612 281.667,154.031 283.201,153.898 284.705,154.227 286.044,154.988 287.097,156.111 287.769,157.496 288,159.018 288,159.018 288,192 "/>
        <polyline fill="none" stroke="#000000" stroke-width="1" points="  384,96 384,131.498 384,131.498 384.226,132.995 384.884,134.358 385.915,135.465 387.227,136.219 388.703,136.552 390.212,136.434 391.618,135.876 392.797,134.927 392.797,134.927 394.919,133.219 397.451,132.214 400.167,132.002 402.824,132.601 405.186,133.958 407.042,135.952 408.226,138.405 408.632,141.098 408.226,143.792 407.042,146.245 405.186,148.239 402.824,149.596 400.167,150.195 397.451,149.983 394.919,148.978 392.797,147.27 392.797,147.27 391.618,146.321 390.212,145.763 388.703,145.645 387.227,145.977 385.915,146.731 384.884,147.839 384.226,149.202 384,150.698 384,150.698 384,192 "/>
        <polyline fill="none" stroke="#000000" stroke-width="1" points="  480,96 480,137.646 480,137.646 480.278,139.411 481.085,141.004 482.344,142.272 483.931,143.092 485.693,143.383 487.46,143.118 489.06,142.323 490.337,141.075 490.337,141.075 492.637,138.827 495.516,137.396 498.696,136.92 501.868,137.444 504.725,138.919 506.99,141.202 508.443,144.07 508.944,147.246 508.443,150.422 506.99,153.291 504.725,155.573 501.868,157.048 498.696,157.573 495.516,157.096 492.637,155.665 490.337,153.418 490.337,153.418 489.06,152.169 487.46,151.374 485.693,151.109 483.931,151.401 482.344,152.22 481.085,153.488 480.278,155.082 480,156.846 480,156.846 480,192 "/>
        <polyline fill="none" stroke="#000000" stroke-width="1" points="  576,96 576,140.469 576,140.469 576.232,141.996 576.907,143.385 577.964,144.511 579.307,145.273 580.816,145.601 582.355,145.467 583.784,144.881 584.975,143.898 584.975,143.898 587.118,142.128 589.691,141.074 592.46,140.832 595.177,141.422 597.595,142.793 599.498,144.82 600.712,147.321 601.13,150.069 600.712,152.818 599.498,155.318 597.595,157.345 595.177,158.716 592.46,159.307 589.691,159.064 587.118,158.011 584.975,156.241 584.975,156.241 583.784,155.257 582.355,154.672 580.816,154.537 579.307,154.865 577.964,155.627 576.907,156.753 576.232,158.142 576,159.669 576,159.669 576,192 "/>
        <polyline fill="none" stroke="#000000" stroke-width="1" points="  672,96 672,126.358 672,126.358 671.788,127.78 671.172,129.079 670.204,130.142 668.968,130.877 667.572,131.221 666.137,131.143 664.786,130.651 663.637,129.786 663.637,129.786 661.569,128.231 659.138,127.344 656.553,127.205 654.041,127.823 651.817,129.147 650.074,131.06 648.965,133.398 648.584,135.958 648.965,138.517 650.074,140.855 651.817,142.769 654.041,144.092 656.553,144.711 659.138,144.571 661.569,143.685 663.637,142.129 663.637,142.129 664.786,141.265 666.137,140.773 667.572,140.695 668.968,141.039 670.204,141.774 671.172,142.837 671.788,144.136 672,145.558 672,145.558 672,192 "/>
        <polyline fill="none" stroke="#000000" stroke-width="1" points="  768,96 768,128.619 768,128.619 767.748,130.251 767.014,131.731 765.869,132.919 764.417,133.707 762.796,134.019 761.156,133.827 759.651,133.149 758.42,132.048 758.42,132.048 756.206,130.066 753.496,128.845 750.544,128.5 747.625,129.062 745.013,130.479 742.951,132.619 741.631,135.282 741.177,138.219 741.631,141.157 742.951,143.819 745.013,145.959 747.625,147.377 750.544,147.939 753.496,147.594 756.206,146.373 758.42,144.391 758.42,144.391 759.651,143.29 761.156,142.611 762.796,142.42 764.417,142.732 765.869,143.519 767.014,144.708 767.748,146.188 768,147.819 768,147.819 768,192 "/>
        <polyline fill="none" stroke="#000000" stroke-width="1" points="  864,96 864,136.603 864,136.603 864.24,138.17 864.937,139.593 866.027,140.743 867.412,141.514 868.964,141.837 870.541,141.68 871.999,141.06 873.206,140.031 873.206,140.031 875.377,138.18 878.002,137.063 880.841,136.782 883.634,137.362 886.126,138.75 888.09,140.82 889.344,143.383 889.776,146.203 889.344,149.023 888.09,151.585 886.126,153.655 883.634,155.044 880.841,155.624 878.002,155.342 875.377,154.225 873.206,152.374 873.206,152.374 871.999,151.346 870.541,150.725 868.964,150.569 867.412,150.891 866.027,151.662 864.937,152.813 864.24,154.236 864,155.803 864,155.803 864,192 "/>
        <polyline fill="none" stroke="#000000" stroke-width="1" points="  960,96 960,128.693 960,128.693 960.209,130.102 960.819,131.39 961.776,132.446 962.999,133.178 964.382,133.524 965.805,133.453 967.147,132.971 968.29,132.121 968.29,132.121 970.349,130.591 972.764,129.724 975.326,129.596 977.815,130.218 980.016,131.536 981.739,133.436 982.837,135.755 983.213,138.293 982.837,140.83 981.739,143.149 980.016,145.049 977.815,146.367 975.326,146.989 972.764,146.861 970.349,145.994 968.29,144.464 968.29,144.464 967.147,143.614 965.805,143.132 964.382,143.061 962.999,143.407 961.776,144.139 960.819,145.195 960.209,146.483 960,147.893 960,147.893 960,192 "/>
        <polyline fill="none" stroke="#000000" stroke-width="1" points="  1056,96 1056,126.832 1056,126.832 1055.72,128.585 1054.92,130.169 1053.67,131.43 1052.1,132.247 1050.35,132.54 1048.59,132.282 1047,131.497 1045.73,130.261 1045.73,130.261 1043.44,128.036 1040.57,126.623 1037.41,126.158 1034.26,126.686 1031.42,128.156 1029.18,130.426 1027.74,133.277 1027.24,136.432 1027.74,139.588 1029.18,142.438 1031.42,144.708 1034.26,146.178 1037.41,146.706 1040.57,146.241 1043.44,144.828 1045.73,142.604 1045.73,142.604 1047,141.368 1048.59,140.583 1050.35,140.324 1052.1,140.618 1053.67,141.434 1054.92,142.695 1055.72,144.279 1056,146.032 1056,146.032 1056,192 "/>
        <polyline fill="none" stroke="#000000" stroke-width="1" points="  96,192 96,237.598 96,237.598 95.7886,239.019 95.1727,240.317 94.2057,241.379 92.9713,242.114 91.5764,242.458 90.1419,242.381 88.7919,241.89 87.6434,241.027 87.6434,241.027 85.5761,239.473 83.1461,238.589 80.5639,238.45 78.0531,239.069 75.8312,240.392 74.0906,242.304 72.982,244.64 72.6015,247.198 72.982,249.756 74.0906,252.092 75.8312,254.005 78.0531,255.327 80.5639,255.946 83.1461,255.807 85.5761,254.923 87.6434,253.369 87.6434,253.369 88.7919,252.506 90.1419,252.015 91.5764,251.938 92.9713,252.282 94.2057,253.017 95.1727,254.079 95.7886,255.377 96,256.798 96,256.798 96,288 "/>
        <polyline fill="none" stroke="#000000" stroke-width="1" points="  192,192 192,221.007 192,221.007 192.254,222.65 192.994,224.139 194.149,225.335 195.611,226.125 197.245,226.435 198.895,226.237 200.408,225.549 201.643,224.436 201.643,224.436 203.865,222.432 206.589,221.194 209.56,220.838 212.499,221.397 215.132,222.819 217.211,224.971 218.542,227.651 219,230.607 218.542,233.564 217.211,236.244 215.132,238.396 212.499,239.818 209.56,240.377 206.589,240.021 203.865,238.783 201.643,236.779 201.643,236.779 200.408,235.666 198.895,234.978 197.245,234.78 195.611,235.09 194.149,235.88 192.994,237.076 192.254,238.565 192,240.207 192,240.207 192,288 "/>
        <polyline fill="none" stroke="#000000" stroke-width="1" points="  288,192 288,221.12 288,221.12 288.277,222.88 289.082,224.47 290.337,225.736 291.921,226.555 293.679,226.847 295.442,226.584 297.039,225.793 298.315,224.548 298.315,224.548 300.612,222.309 303.486,220.884 306.659,220.411 309.824,220.937 312.674,222.41 314.933,224.689 316.382,227.551 316.881,230.72 316.382,233.889 314.933,236.751 312.674,239.029 309.824,240.502 306.659,241.028 303.486,240.556 300.612,239.131 298.315,236.891 298.315,236.891 297.039,235.647 295.442,234.855 293.679,234.593 291.921,234.885 290.337,235.703 289.082,236.969 288.277,238.559 288,240.32 288,240.32 288,288 "/>
        <polyline fill="none" stroke="#000000" stroke-width="1" points="  384,192 384,236.899 384,236.899 383.722,238.664 382.914,240.257 381.656,241.526 380.068,242.345 378.305,242.637 376.538,242.372 374.938,241.576 373.66,240.327 373.66,240.327 371.361,238.079 368.481,236.647 365.3,236.17 362.127,236.695 359.269,238.17 357.003,240.453 355.55,243.322 355.049,246.499 355.55,249.676 357.003,252.544 359.269,254.827 362.127,256.302 365.3,256.827 368.481,256.35 371.361,254.918 373.66,252.67 373.66,252.67 374.938,251.421 376.538,250.625 378.305,250.36 380.068,250.652 381.656,251.471 382.914,252.74 383.722,254.334 384,256.099 384,256.099 384,288 "/>
        <polyline fill="none" stroke="#000000" stroke-width="1" points="  480,192 480,224.091 480,224.091 479.777,225.571 479.129,226.92 478.111,228.018 476.816,228.767 475.358,229.103 473.865,228.993 472.471,228.45 471.298,227.52 471.298,227.52 469.188,225.845 466.678,224.866 463.991,224.67 461.366,225.273 459.034,226.623 457.204,228.599 456.036,231.027 455.635,233.691 456.036,236.355 457.204,238.783 459.034,240.759 461.366,242.109 463.991,242.712 466.678,242.516 469.188,241.537 471.298,239.862 471.298,239.862 472.471,238.932 473.865,238.388 475.358,238.279 476.816,238.615 478.111,239.364 479.129,240.462 479.777,241.811 480,243.291 480,243.291 480,288 "/>
        <polyline fill="none" stroke="#000000" stroke-width="1" points="  576,192 576,223.019 576,223.019 576.234,224.556 576.914,225.953 577.979,227.085 579.333,227.849 580.853,228.176 582.401,228.036 583.837,227.442 585.032,226.447 585.032,226.447 587.183,224.657 589.768,223.588 592.555,223.336 595.29,223.924 597.727,225.299 599.645,227.337 600.869,229.853 601.29,232.619 600.869,235.385 599.645,237.901 597.727,239.939 595.29,241.314 592.555,241.902 589.768,241.65 587.183,240.58 585.032,238.79 585.032,238.79 583.837,237.796 582.401,237.202 580.853,237.062 579.333,237.388 577.979,238.152 576.914,239.284 576.234,240.682 576,242.219 576,242.219 576,288 "/>
        <polyline fill="none" stroke="#000000" stroke-width="1" points="  672,192 672,235.217 672,235.217 672.279,236.985 673.089,238.583 674.351,239.853 675.942,240.674 677.709,240.964 679.48,240.697 681.083,239.898 682.361,238.645 682.361,238.645 684.664,236.389 687.548,234.951 690.736,234.47 693.916,234.994 696.781,236.471 699.053,238.758 700.51,241.633 701.012,244.817 700.51,248 699.053,250.875 696.781,253.162 693.916,254.639 690.736,255.163 687.548,254.682 684.664,253.244 682.361,250.988 682.361,250.988 681.083,249.735 679.48,248.936 677.709,248.669 675.942,248.96 674.351,249.78 673.089,251.051 672.279,252.648 672,254.417 672,254.417 672,288 "/>
        <polyline fill="none" stroke="#000000" stroke-width="1" points="  768,192 768,238.121 768,238.121 767.724,239.875 766.923,241.459 765.674,242.72 764.098,243.537 762.347,243.83 760.591,243.572 758.999,242.786 757.726,241.55 757.726,241.55 755.433,239.324 752.568,237.91 749.407,237.445 746.255,237.973 743.419,239.443 741.17,241.714 739.728,244.565 739.232,247.721 739.728,250.878 741.17,253.729 743.419,255.999 746.255,257.469 749.407,257.997 752.568,257.532 755.433,256.118 757.726,253.893 757.726,253.893 758.999,252.656 760.591,251.871 762.347,251.612 764.098,251.906 765.674,252.722 766.923,253.984 767.724,255.568 768,257.321 768,257.321 768,288 "/>
        <polyline fill="none" stroke="#000000" stroke-width="1" points="  864,192 864,222.465 864,222.465 863.791,223.873 863.182,225.161 862.226,226.216 861.004,226.947 859.623,227.293 858.201,227.223 856.86,226.742 855.717,225.893 855.717,225.893 853.659,224.366 851.246,223.501 848.686,223.374 846.199,223.997 844.001,225.314 842.279,227.213 841.183,229.53 840.807,232.065 841.183,234.6 842.279,236.917 844.001,238.816 846.199,240.133 848.686,240.755 851.246,240.629 853.659,239.764 855.717,238.236 855.717,238.236 856.86,237.388 858.201,236.907 859.623,236.837 861.004,237.183 862.226,237.914 863.182,238.969 863.791,240.256 864,241.665 864,241.665 864,288 "/>
        <polyline fill="none" stroke="#000000" stroke-width="1" points="  960,192 960,232.723 960,232.723 959.752,234.332 959.032,235.792 957.906,236.967 956.478,237.748 954.881,238.064 953.264,237.885 951.775,237.227 950.553,236.152 950.553,236.152 948.354,234.217 945.674,233.033 942.762,232.71 939.888,233.279 937.319,234.686 935.292,236.801 933.995,239.428 933.549,242.323 933.995,245.219 935.292,247.846 937.319,249.961 939.888,251.368 942.762,251.937 945.674,251.614 948.354,250.43 950.553,248.495 950.553,248.495 951.775,247.42 953.264,246.762 954.881,246.583 956.478,246.899 957.906,247.68 959.032,248.855 959.752,250.315 960,251.923 960,251.923 960,288 "/>
        <polyline fill="none" stroke="#000000" stroke-width="1" points="  1056,192 1056,229.375 1056,229.375 1055.74,231.034 1054.99,232.538 1053.82,233.743 1052.34,234.537 1050.69,234.845 1049.03,234.638 1047.5,233.936 1046.26,232.803 1046.26,232.803 1044.03,230.765 1041.28,229.5 1038.28,229.128 1035.31,229.682 1032.65,231.111 1030.54,233.281 1029.19,235.987 1028.73,238.975 1029.19,241.962 1030.54,244.668 1032.65,246.838 1035.31,248.267 1038.28,248.822 1041.28,248.449 1044.03,247.184 1046.26,245.146 1046.26,245.146 1047.5,244.014 1049.03,243.311 1050.69,243.104 1052.34,243.412 1053.82,244.206 1054.99,245.412 1055.74,246.915 1056,248.575 1056,248.575 1056,288 "/>
        <polyline fill="none" stroke="#000000" stroke-width="1" points="  96,288 96,326.791 96,326.791 95.7546,328.387 95.041,329.836 93.9252,331.004 92.5101,331.783 90.9264,332.101 89.3205,331.928 87.8405,331.281 86.6232,330.22 86.6232,330.22 84.432,328.309 81.7681,327.144 78.8774,326.833 76.0269,327.405 73.4797,328.807 71.4712,330.909 70.1867,333.517 69.745,336.391 70.1867,339.265 71.4712,341.873 73.4797,343.975 76.0269,345.376 78.8774,345.948 81.7681,345.638 84.432,344.473 86.6232,342.562 86.6232,342.562 87.8405,341.501 89.3205,340.854 90.9264,340.681 92.5101,340.999 93.9252,341.778 95.041,342.945 95.7546,344.394 96,345.991 96,345.991 96,384 "/>
        <polyline fill="none" stroke="#000000" stroke-width="1" points="  192,288 192,328.749 192,328.749 191.788,330.174 191.17,331.476 190.199,332.541 188.96,333.277 187.56,333.62 186.122,333.541 184.768,333.046 183.618,332.178 183.618,332.178 181.548,330.615 179.112,329.724 176.522,329.581 174.003,330.199 171.773,331.523 170.026,333.441 168.913,335.783 168.531,338.349 168.913,340.915 170.026,343.258 171.773,345.175 174.003,346.499 176.522,347.117 179.112,346.974 181.548,346.083 183.618,344.52 183.618,344.52 184.768,343.652 186.122,343.157 187.56,343.078 188.96,343.421 190.199,344.157 191.17,345.222 191.788,346.524 192,347.949 192,347.949 192,384 "/>
        <polyline fill="none" stroke="#000000" stroke-width="1" points="  288,288 288,325.282 288,325.282 287.782,326.739 287.145,328.069 286.147,329.153 284.875,329.898 283.44,330.236 281.97,330.139 280.592,329.615 279.429,328.71 279.429,328.71 277.334,327.082 274.855,326.139 272.207,325.964 269.625,326.573 267.335,327.913 265.539,329.865 264.394,332.258 264,334.882 264.394,337.505 265.539,339.899 267.335,341.851 269.625,343.19 272.207,343.799 274.855,343.625 277.334,342.682 279.429,341.053 279.429,341.053 280.592,340.148 281.97,339.624 283.44,339.527 284.875,339.866 286.147,340.61 287.145,341.695 287.782,343.024 288,344.482 288,344.482 288,384 "/>
        <polyline fill="none" stroke="#000000" stroke-width="1" points="  384,288 384,320.718 384,320.718 384.256,322.371 385.002,323.869 386.166,325.071 387.639,325.863 389.283,326.172 390.944,325.969 392.465,325.272 393.703,324.147 393.703,324.147 395.931,322.121 398.669,320.867 401.658,320.5 404.618,321.056 407.269,322.483 409.365,324.646 410.706,327.342 411.168,330.318 410.706,333.294 409.365,335.99 407.269,338.153 404.618,339.58 401.658,340.136 398.669,339.769 395.931,338.515 393.703,336.489 393.703,336.489 392.465,335.364 390.944,334.667 389.283,334.464 387.639,334.773 386.166,335.565 385.002,336.767 384.256,338.265 384,339.918 384,339.918 384,384 "/>
        <polyline fill="none" stroke="#000000" stroke-width="1" points="  480,288 480,322.127 480,322.127 480.253,323.762 480.988,325.244 482.136,326.435 483.591,327.223 485.215,327.535 486.858,327.341 488.366,326.66 489.597,325.556 489.597,325.556 491.814,323.567 494.528,322.342 497.485,321.993 500.41,322.555 503.028,323.973 505.095,326.117 506.418,328.784 506.873,331.727 506.418,334.67 505.095,337.338 503.028,339.481 500.41,340.9 497.485,341.461 494.528,341.112 491.814,339.887 489.597,337.899 489.597,337.899 488.366,336.794 486.858,336.113 485.215,335.92 483.591,336.231 482.136,337.02 480.988,338.21 480.253,339.692 480,341.327 480,341.327 480,384 "/>
        <polyline fill="none" stroke="#000000" stroke-width="1" points="  576,288 576,334.297 576,334.297 576.213,335.724 576.832,337.027 577.804,338.093 579.044,338.829 580.446,339.172 581.886,339.092 583.241,338.595 584.392,337.725 584.392,337.725 586.463,336.159 588.901,335.265 591.494,335.121 594.017,335.738 596.25,337.064 597.999,338.983 599.114,341.328 599.496,343.897 599.114,346.465 597.999,348.811 596.25,350.73 594.017,352.055 591.494,352.672 588.901,352.528 586.463,351.634 584.392,350.068 584.392,350.068 583.241,349.198 581.886,348.702 580.446,348.621 579.044,348.964 577.804,349.701 576.832,350.767 576.213,352.07 576,353.497 576,353.497 576,384 "/>
        <polyline fill="none" stroke="#000000" stroke-width="1" points="  672,288 672,330.302 672,330.302 672.254,331.945 672.994,333.434 674.15,334.63 675.613,335.42 677.246,335.73 678.897,335.532 680.411,334.844 681.645,333.73 681.645,333.73 683.867,331.725 686.592,330.486 689.564,330.13 692.504,330.689 695.137,332.111 697.217,334.263 698.548,336.944 699.007,339.902 698.548,342.859 697.217,345.54 695.137,347.692 692.504,349.114 689.564,349.673 686.592,349.317 683.867,348.078 681.645,346.073 681.645,346.073 680.411,344.959 678.897,344.271 677.246,344.073 675.613,344.383 674.15,345.173 672.994,346.369 672.254,347.858 672,349.502 672,349.502 672,384 "/>
        <polyline fill="none" stroke="#000000" stroke-width="1" points="  768,288 768,323.764 768,323.764 768.264,325.458 769.032,326.991 770.231,328.217 771.746,329.019 773.433,329.322 775.132,329.096 776.682,328.363 777.935,327.193 777.935,327.193 780.19,325.086 782.98,323.767 786.038,323.361 789.076,323.905 791.803,325.35 793.96,327.556 795.342,330.315 795.818,333.364 795.342,336.413 793.96,339.172 791.803,341.379 789.076,342.823 786.038,343.368 782.98,342.962 780.19,341.642 777.935,339.536 777.935,339.536 776.682,338.365 775.132,337.633 773.433,337.407 771.746,337.709 770.231,338.512 769.032,339.738 768.264,341.27 768,342.964 768,342.964 768,384 "/>
        <polyline fill="none" stroke="#000000" stroke-width="1" points="  864,288 864,325.597 864,325.597 863.746,327.235 863.009,328.721 861.858,329.914 860.399,330.703 858.771,331.014 857.124,330.818 855.614,330.134 854.381,329.025 854.381,329.025 852.162,327.03 849.443,325.798 846.48,325.446 843.548,326.006 840.923,327.427 838.851,329.574 837.524,332.247 837.067,335.197 837.524,338.146 838.851,340.82 840.923,342.967 843.548,344.387 846.48,344.947 849.443,344.595 852.162,343.364 854.381,341.368 854.381,341.368 855.614,340.259 857.124,339.575 858.771,339.38 860.399,339.691 861.858,340.48 863.009,341.673 863.746,343.158 864,344.797 864,344.797 864,384 "/>
        <polyline fill="none" stroke="#000000" stroke-width="1" points="  960,288 960,328.021 960,328.021 959.792,329.427 959.184,330.712 958.23,331.765 957.011,332.496 955.633,332.842 954.213,332.773 952.875,332.295 951.733,331.45 951.733,331.45 949.525,329.848 946.93,329.007 944.203,329.009 941.61,329.853 939.404,331.456 937.801,333.663 936.958,336.257 936.958,338.985 937.801,341.579 939.404,343.785 941.61,345.389 944.203,346.233 946.93,346.235 949.525,345.394 951.733,343.792 951.733,343.792 952.875,342.947 954.213,342.469 955.633,342.4 957.011,342.746 958.23,343.477 959.184,344.53 959.792,345.815 960,347.221 960,347.221 960,384 "/>
        <polyline fill="none" stroke="#000000" stroke-width="1" points="  1056,288 1056,335.524 1056,335.524 1056.27,337.266 1057.07,338.841 1058.31,340.095 1059.87,340.909 1061.61,341.204 1063.36,340.952 1064.94,340.177 1066.21,338.953 1066.21,338.953 1068.5,336.75 1071.35,335.354 1074.49,334.9 1077.62,335.431 1080.43,336.896 1082.66,339.155 1084.1,341.988 1084.59,345.124 1084.1,348.26 1082.66,351.094 1080.43,353.352 1077.62,354.817 1074.49,355.348 1071.35,354.894 1068.5,353.498 1066.21,351.296 1066.21,351.296 1064.94,350.072 1063.36,349.296 1061.61,349.044 1059.87,349.339 1058.31,350.153 1057.07,351.408 1056.27,352.982 1056,354.724 1056,354.724 1056,384 "/>
    </g>
</svg>
