<?xml version="1.0" encoding="UTF-8" standalone="no"?>
<!-- Created with Inkscape (http://www.inkscape.org/) -->

<svg
   xmlns:dc="http://purl.org/dc/elements/1.1/"
   xmlns:cc="http://creativecommons.org/ns#"
   xmlns:rdf="http://www.w3.org/1999/02/22-rdf-syntax-ns#"
   xmlns:svg="http://www.w3.org/2000/svg"
   xmlns="http://www.w3.org/2000/svg"
   xmlns:sodipodi="http://sodipodi.sourceforge.net/DTD/sodipodi-0.dtd"
   xmlns:inkscape="http://www.inkscape.org/namespaces/inkscape"
   id="svg6836"
   version="1.1"
   inkscape:version="0.91 r13725"
   xml:space="preserve"
   width="1052.3625"
   height="744.09998"
   viewBox="0 0 1052.3625 744.09998"
   sodipodi:docname="cartonus-christmas-tree-ornament-stars.svg"><metadata
     id="metadata6842"><rdf:RDF><cc:Work
         rdf:about=""><dc:format>image/svg+xml</dc:format><dc:type
           rdf:resource="http://purl.org/dc/dcmitype/StillImage" /><dc:title></dc:title></cc:Work></rdf:RDF></metadata><defs
     id="defs6840"><clipPath
       clipPathUnits="userSpaceOnUse"
       id="clipPath6850"><path
         d="m 0,595.28 841.89,0 L 841.89,0 0,0 0,595.28 Z"
         id="path6852"
         inkscape:connector-curvature="0" /></clipPath></defs><sodipodi:namedview
     pagecolor="#ffffff"
     bordercolor="#666666"
     borderopacity="1"
     objecttolerance="10"
     gridtolerance="10"
     guidetolerance="10"
     inkscape:pageopacity="0"
     inkscape:pageshadow="2"
     inkscape:window-width="875"
     inkscape:window-height="480"
     id="namedview6838"
     showgrid="false"
     inkscape:zoom="0.31716168"
     inkscape:cx="324.46855"
     inkscape:cy="624.28727"
     inkscape:window-x="42"
     inkscape:window-y="14"
     inkscape:window-maximized="0"
     inkscape:current-layer="g6846" /><g
     id="g6844"
     inkscape:groupmode="layer"
     inkscape:label="cartonus-christmas-tree-ornament-stars"
     transform="matrix(1.25,0,0,-1.25,0,744.1)"><g
       id="g6846"><g
         id="g7964"><g
           id="g7058"
           transform="translate(59.5127,296.0107)"><path
             d="m 0,0 10.772,-0.225 0,-8.22 L 0,-8.67 c -1.565,-0.031 -2.834,-1.328 -2.834,-2.893 l 0,-98.935 c 0,-1.566 1.269,-2.86 2.834,-2.895 l 10.772,-0.224 0,-8.221 L 0,-122.061 c -1.565,-0.033 -2.834,-1.328 -2.834,-2.894 l 0,-40.891 c 0,-1.566 1.265,-2.736 2.821,-2.57 54.188,5.791 96.392,51.658 96.392,107.384 0,55.727 -42.204,101.594 -96.392,107.387 -1.556,0.166 -2.821,-1.006 -2.821,-2.57 l 0,-40.893 C -2.834,1.328 -1.565,0.033 0,0 Z"
             style="fill:none;stroke:#ff0000;stroke-width:0.28299999;stroke-linecap:butt;stroke-linejoin:miter;stroke-miterlimit:10;stroke-dasharray:none;stroke-opacity:1"
             id="path7060"
             inkscape:connector-curvature="0" /></g><g
           id="g7062"
           transform="translate(119.6221,230.9609)"><path
             d="m 0,0 -13.934,-16.345 -21.365,2.215 11.237,-18.307 -8.706,-19.628 20.88,5.029 15.98,-14.348 1.668,21.41 18.586,10.766 L 4.494,-21.005 0,0 Z"
             style="fill:none;stroke:#ff0000;stroke-width:0.28299999;stroke-linecap:butt;stroke-linejoin:miter;stroke-miterlimit:10;stroke-dasharray:none;stroke-opacity:1"
             id="path7064"
             inkscape:connector-curvature="0" /></g><g
           id="g7066"
           transform="translate(72.71,219.9268)"><path
             d="M 0,0 9.359,6.894 20.344,3.091 16.68,14.124 23.691,23.398 12.065,23.322 5.414,32.855 1.895,21.777 -9.229,18.395 0.222,11.62 0,0 Z"
             style="fill:none;stroke:#ff0000;stroke-width:0.28299999;stroke-linecap:butt;stroke-linejoin:miter;stroke-miterlimit:10;stroke-dasharray:none;stroke-opacity:1"
             id="path7068"
             inkscape:connector-curvature="0" /></g><g
           id="g7070"
           transform="translate(139.1582,229.9238)"><path
             d="m 0,0 -6.568,3.084 1.548,-7.09 -4.961,-5.292 7.217,-0.721 3.5,-6.351 2.914,6.641 7.124,1.368 L 5.356,-3.537 6.261,3.662 0,0 Z"
             style="fill:none;stroke:#ff0000;stroke-width:0.28299999;stroke-linecap:butt;stroke-linejoin:miter;stroke-miterlimit:10;stroke-dasharray:none;stroke-opacity:1"
             id="path7072"
             inkscape:connector-curvature="0" /></g><g
           id="g7074"
           transform="translate(101.7227,270.417)"><path
             d="m 0,0 -20.059,-8.355 18.833,-10.838 1.748,-21.656 16.127,14.562 21.133,-5.027 -8.863,19.832 L 40.232,7.067 18.629,4.766 4.485,21.26 0,0 Z"
             style="fill:none;stroke:#ff0000;stroke-width:0.28299999;stroke-linecap:butt;stroke-linejoin:miter;stroke-miterlimit:10;stroke-dasharray:none;stroke-opacity:1"
             id="path7076"
             inkscape:connector-curvature="0" /></g><g
           id="g7078"
           transform="translate(89.2285,299.2935)"><path
             d="m 0,0 4.41,-11.22 6.224,10.324 12.031,0.728 -7.894,9.107 3.027,11.67 L 6.693,15.914 -3.469,22.398 -2.434,10.389 -11.743,2.727 0,0 Z"
             style="fill:none;stroke:#ff0000;stroke-width:0.28299999;stroke-linecap:butt;stroke-linejoin:miter;stroke-miterlimit:10;stroke-dasharray:none;stroke-opacity:1"
             id="path7080"
             inkscape:connector-curvature="0" /></g><g
           id="g7082"
           transform="translate(95.0137,164.085)"><path
             d="m 0,0 -10.083,-1.961 -7.332,7.197 -1.252,-10.195 -9.108,-4.75 9.309,-4.342 1.702,-10.129 7.003,7.512 10.162,-1.514 -4.98,8.987 L 0,0 Z"
             style="fill:none;stroke:#ff0000;stroke-width:0.28299999;stroke-linecap:butt;stroke-linejoin:miter;stroke-miterlimit:10;stroke-dasharray:none;stroke-opacity:1"
             id="path7084"
             inkscape:connector-curvature="0" /></g><g
           id="g7086"
           transform="translate(167.2295,296.0107)"><path
             d="m 0,0 10.772,-0.225 0,-8.22 L 0,-8.67 c -1.565,-0.031 -2.834,-1.328 -2.834,-2.893 l 0,-98.935 c 0,-1.566 1.269,-2.86 2.834,-2.895 l 10.772,-0.224 0,-8.221 L 0,-122.061 c -1.565,-0.033 -2.834,-1.328 -2.834,-2.894 l 0,-40.891 c 0,-1.566 1.265,-2.736 2.821,-2.57 54.188,5.791 96.392,51.658 96.392,107.384 0,55.727 -42.204,101.594 -96.392,107.387 -1.556,0.166 -2.821,-1.006 -2.821,-2.57 l 0,-40.893 C -2.834,1.328 -1.565,0.033 0,0 Z"
             style="fill:none;stroke:#ff0000;stroke-width:0.28299999;stroke-linecap:butt;stroke-linejoin:miter;stroke-miterlimit:10;stroke-dasharray:none;stroke-opacity:1"
             id="path7088"
             inkscape:connector-curvature="0" /></g><g
           id="g7090"
           transform="translate(227.3389,230.9609)"><path
             d="m 0,0 -13.934,-16.345 -21.365,2.215 11.237,-18.307 -8.706,-19.628 20.88,5.029 15.98,-14.348 1.668,21.41 18.586,10.766 L 4.494,-21.005 0,0 Z"
             style="fill:none;stroke:#ff0000;stroke-width:0.28299999;stroke-linecap:butt;stroke-linejoin:miter;stroke-miterlimit:10;stroke-dasharray:none;stroke-opacity:1"
             id="path7092"
             inkscape:connector-curvature="0" /></g><g
           id="g7094"
           transform="translate(180.4268,219.9268)"><path
             d="M 0,0 9.359,6.894 20.344,3.091 16.68,14.124 23.691,23.398 12.065,23.322 5.414,32.855 1.895,21.777 -9.229,18.395 0.222,11.62 0,0 Z"
             style="fill:none;stroke:#ff0000;stroke-width:0.28299999;stroke-linecap:butt;stroke-linejoin:miter;stroke-miterlimit:10;stroke-dasharray:none;stroke-opacity:1"
             id="path7096"
             inkscape:connector-curvature="0" /></g><g
           id="g7098"
           transform="translate(246.875,229.9238)"><path
             d="m 0,0 -6.568,3.084 1.548,-7.09 -4.961,-5.292 7.217,-0.721 3.5,-6.351 2.914,6.641 7.124,1.368 L 5.356,-3.537 6.261,3.662 0,0 Z"
             style="fill:none;stroke:#ff0000;stroke-width:0.28299999;stroke-linecap:butt;stroke-linejoin:miter;stroke-miterlimit:10;stroke-dasharray:none;stroke-opacity:1"
             id="path7100"
             inkscape:connector-curvature="0" /></g><g
           id="g7102"
           transform="translate(209.4395,270.417)"><path
             d="m 0,0 -20.059,-8.355 18.833,-10.838 1.748,-21.656 16.127,14.562 21.133,-5.027 -8.863,19.832 L 40.232,7.067 18.629,4.766 4.485,21.26 0,0 Z"
             style="fill:none;stroke:#ff0000;stroke-width:0.28299999;stroke-linecap:butt;stroke-linejoin:miter;stroke-miterlimit:10;stroke-dasharray:none;stroke-opacity:1"
             id="path7104"
             inkscape:connector-curvature="0" /></g><g
           id="g7106"
           transform="translate(196.9453,299.2935)"><path
             d="m 0,0 4.41,-11.22 6.224,10.324 12.031,0.728 -7.894,9.107 3.027,11.67 L 6.693,15.914 -3.469,22.398 -2.434,10.389 -11.743,2.727 0,0 Z"
             style="fill:none;stroke:#ff0000;stroke-width:0.28299999;stroke-linecap:butt;stroke-linejoin:miter;stroke-miterlimit:10;stroke-dasharray:none;stroke-opacity:1"
             id="path7108"
             inkscape:connector-curvature="0" /></g><g
           id="g7110"
           transform="translate(202.7305,164.085)"><path
             d="m 0,0 -10.083,-1.961 -7.332,7.197 -1.252,-10.195 -9.108,-4.75 9.309,-4.342 1.702,-10.129 7.003,7.512 10.162,-1.514 -4.98,8.987 L 0,0 Z"
             style="fill:none;stroke:#ff0000;stroke-width:0.28299999;stroke-linecap:butt;stroke-linejoin:miter;stroke-miterlimit:10;stroke-dasharray:none;stroke-opacity:1"
             id="path7112"
             inkscape:connector-curvature="0" /></g><g
           id="g7114"
           transform="translate(274.9463,296.0107)"><path
             d="m 0,0 10.772,-0.225 0,-8.22 L 0,-8.67 c -1.565,-0.031 -2.834,-1.328 -2.834,-2.893 l 0,-98.935 c 0,-1.566 1.269,-2.86 2.834,-2.895 l 10.772,-0.224 0,-8.221 L 0,-122.061 c -1.565,-0.033 -2.834,-1.328 -2.834,-2.894 l 0,-40.891 c 0,-1.566 1.265,-2.736 2.821,-2.57 54.188,5.791 96.392,51.658 96.392,107.384 0,55.727 -42.204,101.594 -96.392,107.387 -1.556,0.166 -2.821,-1.006 -2.821,-2.57 l 0,-40.893 C -2.834,1.328 -1.565,0.033 0,0 Z"
             style="fill:none;stroke:#ff0000;stroke-width:0.28299999;stroke-linecap:butt;stroke-linejoin:miter;stroke-miterlimit:10;stroke-dasharray:none;stroke-opacity:1"
             id="path7116"
             inkscape:connector-curvature="0" /></g><g
           id="g7118"
           transform="translate(335.0557,230.9609)"><path
             d="m 0,0 -13.934,-16.345 -21.365,2.215 11.237,-18.307 -8.706,-19.628 20.88,5.029 15.98,-14.348 1.668,21.41 18.586,10.766 L 4.494,-21.005 0,0 Z"
             style="fill:none;stroke:#ff0000;stroke-width:0.28299999;stroke-linecap:butt;stroke-linejoin:miter;stroke-miterlimit:10;stroke-dasharray:none;stroke-opacity:1"
             id="path7120"
             inkscape:connector-curvature="0" /></g><g
           id="g7122"
           transform="translate(288.1436,219.9268)"><path
             d="M 0,0 9.359,6.894 20.344,3.091 16.68,14.124 23.691,23.398 12.065,23.322 5.414,32.855 1.895,21.777 -9.229,18.395 0.222,11.62 0,0 Z"
             style="fill:none;stroke:#ff0000;stroke-width:0.28299999;stroke-linecap:butt;stroke-linejoin:miter;stroke-miterlimit:10;stroke-dasharray:none;stroke-opacity:1"
             id="path7124"
             inkscape:connector-curvature="0" /></g><g
           id="g7126"
           transform="translate(354.5918,229.9238)"><path
             d="m 0,0 -6.568,3.084 1.548,-7.09 -4.961,-5.292 7.217,-0.721 3.5,-6.351 2.914,6.641 7.124,1.368 L 5.356,-3.537 6.261,3.662 0,0 Z"
             style="fill:none;stroke:#ff0000;stroke-width:0.28299999;stroke-linecap:butt;stroke-linejoin:miter;stroke-miterlimit:10;stroke-dasharray:none;stroke-opacity:1"
             id="path7128"
             inkscape:connector-curvature="0" /></g><g
           id="g7130"
           transform="translate(317.1563,270.417)"><path
             d="m 0,0 -20.059,-8.355 18.833,-10.838 1.748,-21.656 16.127,14.562 21.133,-5.027 -8.863,19.832 L 40.232,7.067 18.629,4.766 4.485,21.26 0,0 Z"
             style="fill:none;stroke:#ff0000;stroke-width:0.28299999;stroke-linecap:butt;stroke-linejoin:miter;stroke-miterlimit:10;stroke-dasharray:none;stroke-opacity:1"
             id="path7132"
             inkscape:connector-curvature="0" /></g><g
           id="g7134"
           transform="translate(304.6621,299.2935)"><path
             d="m 0,0 4.41,-11.22 6.224,10.324 12.031,0.728 -7.894,9.107 3.027,11.67 L 6.693,15.914 -3.469,22.398 -2.434,10.389 -11.743,2.727 0,0 Z"
             style="fill:none;stroke:#ff0000;stroke-width:0.28299999;stroke-linecap:butt;stroke-linejoin:miter;stroke-miterlimit:10;stroke-dasharray:none;stroke-opacity:1"
             id="path7136"
             inkscape:connector-curvature="0" /></g><g
           id="g7138"
           transform="translate(310.4473,164.085)"><path
             d="m 0,0 -10.083,-1.961 -7.332,7.197 -1.252,-10.195 -9.108,-4.75 9.309,-4.342 1.702,-10.129 7.003,7.512 10.162,-1.514 -4.98,8.987 L 0,0 Z"
             style="fill:none;stroke:#ff0000;stroke-width:0.28299999;stroke-linecap:butt;stroke-linejoin:miter;stroke-miterlimit:10;stroke-dasharray:none;stroke-opacity:1"
             id="path7140"
             inkscape:connector-curvature="0" /></g><g
           id="g7142"
           transform="translate(382.6631,296.0107)"><path
             d="m 0,0 10.772,-0.225 0,-8.22 L 0,-8.67 c -1.565,-0.031 -2.834,-1.328 -2.834,-2.893 l 0,-98.935 c 0,-1.566 1.269,-2.86 2.834,-2.895 l 10.772,-0.224 0,-8.221 L 0,-122.061 c -1.565,-0.033 -2.834,-1.328 -2.834,-2.894 l 0,-40.891 c 0,-1.566 1.265,-2.736 2.821,-2.57 54.188,5.791 96.392,51.658 96.392,107.384 0,55.727 -42.204,101.594 -96.392,107.387 -1.556,0.166 -2.821,-1.006 -2.821,-2.57 l 0,-40.893 C -2.834,1.328 -1.565,0.033 0,0 Z"
             style="fill:none;stroke:#ff0000;stroke-width:0.28299999;stroke-linecap:butt;stroke-linejoin:miter;stroke-miterlimit:10;stroke-dasharray:none;stroke-opacity:1"
             id="path7144"
             inkscape:connector-curvature="0" /></g><g
           id="g7146"
           transform="translate(442.7725,230.9609)"><path
             d="m 0,0 -13.934,-16.345 -21.365,2.215 11.237,-18.307 -8.706,-19.628 20.88,5.029 15.98,-14.348 1.668,21.41 18.586,10.766 L 4.494,-21.005 0,0 Z"
             style="fill:none;stroke:#ff0000;stroke-width:0.28299999;stroke-linecap:butt;stroke-linejoin:miter;stroke-miterlimit:10;stroke-dasharray:none;stroke-opacity:1"
             id="path7148"
             inkscape:connector-curvature="0" /></g><g
           id="g7150"
           transform="translate(395.8604,219.9268)"><path
             d="M 0,0 9.359,6.894 20.344,3.091 16.68,14.124 23.691,23.398 12.065,23.322 5.414,32.855 1.895,21.777 -9.229,18.395 0.222,11.62 0,0 Z"
             style="fill:none;stroke:#ff0000;stroke-width:0.28299999;stroke-linecap:butt;stroke-linejoin:miter;stroke-miterlimit:10;stroke-dasharray:none;stroke-opacity:1"
             id="path7152"
             inkscape:connector-curvature="0" /></g><g
           id="g7154"
           transform="translate(462.3086,229.9238)"><path
             d="m 0,0 -6.568,3.084 1.548,-7.09 -4.961,-5.292 7.217,-0.721 3.5,-6.351 2.914,6.641 7.124,1.368 L 5.356,-3.537 6.261,3.662 0,0 Z"
             style="fill:none;stroke:#ff0000;stroke-width:0.28299999;stroke-linecap:butt;stroke-linejoin:miter;stroke-miterlimit:10;stroke-dasharray:none;stroke-opacity:1"
             id="path7156"
             inkscape:connector-curvature="0" /></g><g
           id="g7158"
           transform="translate(424.873,270.417)"><path
             d="m 0,0 -20.059,-8.355 18.833,-10.838 1.748,-21.656 16.127,14.562 21.133,-5.027 -8.863,19.832 L 40.232,7.067 18.629,4.766 4.485,21.26 0,0 Z"
             style="fill:none;stroke:#ff0000;stroke-width:0.28299999;stroke-linecap:butt;stroke-linejoin:miter;stroke-miterlimit:10;stroke-dasharray:none;stroke-opacity:1"
             id="path7160"
             inkscape:connector-curvature="0" /></g><g
           id="g7162"
           transform="translate(412.3789,299.2935)"><path
             d="m 0,0 4.41,-11.22 6.224,10.324 12.031,0.728 -7.894,9.107 3.027,11.67 L 6.693,15.914 -3.469,22.398 -2.434,10.389 -11.743,2.727 0,0 Z"
             style="fill:none;stroke:#ff0000;stroke-width:0.28299999;stroke-linecap:butt;stroke-linejoin:miter;stroke-miterlimit:10;stroke-dasharray:none;stroke-opacity:1"
             id="path7164"
             inkscape:connector-curvature="0" /></g><g
           id="g7166"
           transform="translate(418.1641,164.085)"><path
             d="m 0,0 -10.083,-1.961 -7.332,7.197 -1.252,-10.195 -9.108,-4.75 9.309,-4.342 1.702,-10.129 7.003,7.512 10.162,-1.514 -4.98,8.987 L 0,0 Z"
             style="fill:none;stroke:#ff0000;stroke-width:0.28299999;stroke-linecap:butt;stroke-linejoin:miter;stroke-miterlimit:10;stroke-dasharray:none;stroke-opacity:1"
             id="path7168"
             inkscape:connector-curvature="0" /></g><g
           id="g7170"
           transform="translate(490.3799,296.0107)"><path
             d="m 0,0 10.772,-0.225 0,-8.22 L 0,-8.67 c -1.565,-0.031 -2.834,-1.328 -2.834,-2.893 l 0,-98.935 c 0,-1.566 1.269,-2.86 2.834,-2.895 l 10.772,-0.224 0,-8.221 L 0,-122.061 c -1.565,-0.033 -2.834,-1.328 -2.834,-2.894 l 0,-40.891 c 0,-1.566 1.265,-2.736 2.821,-2.57 54.188,5.791 96.392,51.658 96.392,107.384 0,55.727 -42.204,101.594 -96.392,107.387 -1.556,0.166 -2.821,-1.006 -2.821,-2.57 l 0,-40.893 C -2.834,1.328 -1.565,0.033 0,0 Z"
             style="fill:none;stroke:#ff0000;stroke-width:0.28299999;stroke-linecap:butt;stroke-linejoin:miter;stroke-miterlimit:10;stroke-dasharray:none;stroke-opacity:1"
             id="path7172"
             inkscape:connector-curvature="0" /></g><g
           id="g7174"
           transform="translate(550.4893,230.9609)"><path
             d="m 0,0 -13.934,-16.345 -21.365,2.215 11.237,-18.307 -8.706,-19.628 20.88,5.029 15.98,-14.348 1.668,21.41 18.586,10.766 L 4.494,-21.005 0,0 Z"
             style="fill:none;stroke:#ff0000;stroke-width:0.28299999;stroke-linecap:butt;stroke-linejoin:miter;stroke-miterlimit:10;stroke-dasharray:none;stroke-opacity:1"
             id="path7176"
             inkscape:connector-curvature="0" /></g><g
           id="g7178"
           transform="translate(503.5771,219.9268)"><path
             d="M 0,0 9.359,6.894 20.344,3.091 16.68,14.124 23.691,23.398 12.065,23.322 5.414,32.855 1.895,21.777 -9.229,18.395 0.222,11.62 0,0 Z"
             style="fill:none;stroke:#ff0000;stroke-width:0.28299999;stroke-linecap:butt;stroke-linejoin:miter;stroke-miterlimit:10;stroke-dasharray:none;stroke-opacity:1"
             id="path7180"
             inkscape:connector-curvature="0" /></g><g
           id="g7182"
           transform="translate(570.0254,229.9238)"><path
             d="m 0,0 -6.568,3.084 1.548,-7.09 -4.961,-5.292 7.217,-0.721 3.5,-6.351 2.914,6.641 7.124,1.368 L 5.356,-3.537 6.261,3.662 0,0 Z"
             style="fill:none;stroke:#ff0000;stroke-width:0.28299999;stroke-linecap:butt;stroke-linejoin:miter;stroke-miterlimit:10;stroke-dasharray:none;stroke-opacity:1"
             id="path7184"
             inkscape:connector-curvature="0" /></g><g
           id="g7186"
           transform="translate(532.5898,270.417)"><path
             d="m 0,0 -20.059,-8.355 18.833,-10.838 1.748,-21.656 16.127,14.562 21.133,-5.027 -8.863,19.832 L 40.232,7.067 18.629,4.766 4.485,21.26 0,0 Z"
             style="fill:none;stroke:#ff0000;stroke-width:0.28299999;stroke-linecap:butt;stroke-linejoin:miter;stroke-miterlimit:10;stroke-dasharray:none;stroke-opacity:1"
             id="path7188"
             inkscape:connector-curvature="0" /></g><g
           id="g7190"
           transform="translate(520.0957,299.2935)"><path
             d="m 0,0 4.41,-11.22 6.224,10.324 12.031,0.728 -7.894,9.107 3.027,11.67 L 6.693,15.914 -3.469,22.398 -2.434,10.389 -11.743,2.727 0,0 Z"
             style="fill:none;stroke:#ff0000;stroke-width:0.28299999;stroke-linecap:butt;stroke-linejoin:miter;stroke-miterlimit:10;stroke-dasharray:none;stroke-opacity:1"
             id="path7192"
             inkscape:connector-curvature="0" /></g><g
           id="g7194"
           transform="translate(525.8809,164.085)"><path
             d="m 0,0 -10.083,-1.961 -7.332,7.197 -1.252,-10.195 -9.108,-4.75 9.309,-4.342 1.702,-10.129 7.003,7.512 10.162,-1.514 -4.98,8.987 L 0,0 Z"
             style="fill:none;stroke:#ff0000;stroke-width:0.28299999;stroke-linecap:butt;stroke-linejoin:miter;stroke-miterlimit:10;stroke-dasharray:none;stroke-opacity:1"
             id="path7196"
             inkscape:connector-curvature="0" /></g><g
           id="g7198"
           transform="translate(634.3662,310.4917)"><path
             d="m 0,0 10.496,0.218 c 1.565,0.033 2.692,1.322 2.381,2.856 -2.096,10.353 -8.632,19.091 -17.537,24.143 -1.362,0.772 -2.936,0.101 -3.45,-1.378 l -3.454,-9.922 -7.819,2.541 3.037,10.056 c 0.453,1.499 -0.425,2.966 -1.981,3.144 -1.335,0.152 -2.692,0.232 -4.068,0.232 -9.373,0 -17.904,-3.587 -24.308,-9.457 -1.154,-1.058 -1.001,-2.762 0.246,-3.708 l 8.362,-6.347 -4.831,-6.65 -8.627,5.997 c -1.285,0.894 -2.955,0.514 -3.605,-0.911 -2.076,-4.546 -3.237,-9.599 -3.237,-14.924 0,-5.324 1.161,-10.376 3.236,-14.922 0.649,-1.424 2.319,-1.805 3.605,-0.912 l 8.626,5.997 4.833,-6.65 -8.364,-6.347 c -1.246,-0.945 -1.399,-2.649 -0.246,-3.707 6.405,-5.871 14.937,-9.458 24.31,-9.458 1.375,0 2.733,0.079 4.067,0.233 1.557,0.176 2.434,1.644 1.982,3.142 l -3.038,10.057 7.819,2.541 3.454,-9.923 c 0.514,-1.479 2.088,-2.15 3.449,-1.378 8.906,5.052 15.441,13.789 17.539,24.141 0.311,1.534 -0.816,2.824 -2.381,2.857 L 0,-8.221 0,0 Z"
             style="fill:none;stroke:#ff0000;stroke-width:0.28299999;stroke-linecap:butt;stroke-linejoin:miter;stroke-miterlimit:10;stroke-dasharray:none;stroke-opacity:1"
             id="path7200"
             inkscape:connector-curvature="0" /></g><g
           id="g7202"
           transform="translate(613.3887,306.3818)"><path
             d="m 0,0 c 0,-0.783 -0.635,-1.417 -1.418,-1.417 -0.782,0 -1.417,0.634 -1.417,1.417 0,0.783 0.635,1.417 1.417,1.417 C -0.635,1.417 0,0.783 0,0 Z"
             style="fill:none;stroke:#ff0000;stroke-width:0.28299999;stroke-linecap:butt;stroke-linejoin:miter;stroke-miterlimit:10;stroke-dasharray:none;stroke-opacity:1"
             id="path7204"
             inkscape:connector-curvature="0" /></g><g
           id="g7206"
           transform="translate(634.3662,167.6885)"><path
             d="m 0,0 10.496,0.219 c 1.565,0.032 2.692,1.321 2.381,2.855 -2.096,10.353 -8.632,19.09 -17.537,24.143 -1.362,0.772 -2.936,0.101 -3.45,-1.377 l -3.454,-9.922 -7.819,2.539 3.037,10.057 c 0.453,1.499 -0.425,2.966 -1.981,3.144 -1.335,0.153 -2.692,0.232 -4.068,0.232 -9.373,0 -17.904,-3.587 -24.308,-9.457 -1.154,-1.058 -1.001,-2.762 0.246,-3.708 l 8.362,-6.346 -4.831,-6.651 -8.627,5.997 c -1.285,0.894 -2.955,0.513 -3.605,-0.911 -2.076,-4.546 -3.237,-9.599 -3.237,-14.924 0,-5.324 1.161,-10.376 3.236,-14.921 0.649,-1.425 2.319,-1.807 3.605,-0.912 l 8.626,5.996 4.833,-6.651 -8.364,-6.345 c -1.246,-0.948 -1.399,-2.651 -0.246,-3.709 6.405,-5.871 14.937,-9.457 24.31,-9.457 1.375,0 2.733,0.079 4.067,0.232 1.557,0.177 2.434,1.645 1.982,3.143 l -3.038,10.056 7.819,2.541 3.454,-9.924 c 0.514,-1.478 2.088,-2.149 3.449,-1.377 8.906,5.052 15.441,13.79 17.539,24.141 0.311,1.535 -0.816,2.825 -2.381,2.858 L 0,-8.221 0,0 Z"
             style="fill:none;stroke:#ff0000;stroke-width:0.28299999;stroke-linecap:butt;stroke-linejoin:miter;stroke-miterlimit:10;stroke-dasharray:none;stroke-opacity:1"
             id="path7208"
             inkscape:connector-curvature="0" /></g><g
           id="g7210"
           transform="translate(613.3887,163.5781)"><path
             d="m 0,0 c 0,-0.782 -0.635,-1.417 -1.417,-1.417 -0.783,0 -1.417,0.635 -1.417,1.417 0,0.783 0.634,1.418 1.417,1.418 C -0.635,1.418 0,0.783 0,0 Z"
             style="fill:none;stroke:#ff0000;stroke-width:0.28299999;stroke-linecap:butt;stroke-linejoin:miter;stroke-miterlimit:10;stroke-dasharray:none;stroke-opacity:1"
             id="path7212"
             inkscape:connector-curvature="0" /></g></g></g></g></svg>