<?xml version="1.0" encoding="UTF-8" standalone="no"?>
<!-- Created with Inkscape (http://www.inkscape.org/) -->

<svg
   xmlns:dc="http://purl.org/dc/elements/1.1/"
   xmlns:cc="http://creativecommons.org/ns#"
   xmlns:rdf="http://www.w3.org/1999/02/22-rdf-syntax-ns#"
   xmlns:svg="http://www.w3.org/2000/svg"
   xmlns="http://www.w3.org/2000/svg"
   xmlns:sodipodi="http://sodipodi.sourceforge.net/DTD/sodipodi-0.dtd"
   xmlns:inkscape="http://www.inkscape.org/namespaces/inkscape"
   id="svg4918"
   version="1.1"
   inkscape:version="0.91 r13725"
   xml:space="preserve"
   width="850.27502"
   height="521.3125"
   viewBox="0 0 850.27502 521.3125"
   sodipodi:docname="cartonus-christmas-tree-ornament-crystal.svg"><metadata
     id="metadata4924"><rdf:RDF><cc:Work
         rdf:about=""><dc:format>image/svg+xml</dc:format><dc:type
           rdf:resource="http://purl.org/dc/dcmitype/StillImage" /><dc:title></dc:title></cc:Work></rdf:RDF></metadata><defs
     id="defs4922" /><sodipodi:namedview
     pagecolor="#ffffff"
     bordercolor="#666666"
     borderopacity="1"
     objecttolerance="10"
     gridtolerance="10"
     guidetolerance="10"
     inkscape:pageopacity="0"
     inkscape:pageshadow="2"
     inkscape:window-width="1110"
     inkscape:window-height="745"
     id="namedview4920"
     showgrid="false"
     inkscape:zoom="0.41986415"
     inkscape:cx="495.39833"
     inkscape:cy="260.65625"
     inkscape:window-x="56"
     inkscape:window-y="16"
     inkscape:window-maximized="0"
     inkscape:current-layer="g4928" /><g
     id="g4926"
     inkscape:groupmode="layer"
     inkscape:label="ink_ext_XXXXXX"
     transform="matrix(1.25,0,0,-1.25,0,521.3125)"><g
       id="g4928"
       transform="scale(0.1,0.1)"><path
         d="m 6071.23,1602.78 92.17,55.8 -41.1,71.19 -94.41,-51.94 c -13.72,-7.54 -33.81,-4.66 -44.89,6.39 l -101.87,101.87 c -11.07,11.06 -11.07,29 0,40.08 L 5983,1928.04 c 11.08,11.08 31.16,13.95 44.89,6.39 34.94,-19.22 94.41,-51.93 94.41,-51.93 l 41.09,71.21 -92.16,55.8 c -13.4,8.1 -20.96,26.94 -16.92,42.07 l 37.29,139.14 c 4.04,15.13 19.59,24.1 34.7,20.06 l 139.18,-37.3 c 15.12,-4.05 27.64,-20.01 27.96,-35.67 0.83,-39.86 2.24,-107.73 2.24,-107.73 l 82.21,0 2.24,107.73 c 0.32,15.64 12.85,31.62 27.97,35.68 l 139.14,37.29 c 15.14,4.04 30.68,-4.92 34.73,-20.04 l 37.28,-139.16 c 4.07,-15.13 -3.51,-33.96 -16.9,-42.07 -34.11,-20.65 -92.18,-55.8 -92.18,-55.8 l 41.1,-71.19 94.42,51.93 c 13.72,7.54 33.82,4.67 44.88,-6.41 l 101.87,-101.85 c 11.07,-11.08 11.07,-29.02 0,-40.1 l -101.87,-101.87 c -11.06,-11.05 -31.16,-13.93 -44.87,-6.39 -34.94,19.24 -94.42,51.94 -94.42,51.94 l -41.11,-71.19 92.17,-55.8 c 13.4,-8.11 20.98,-26.94 16.91,-42.07 l -37.27,-139.15 c -4.06,-15.11 -19.58,-24.1 -34.71,-20.05 -36.9,9.9 -102.26,27.4 -139.17,37.28 -15.12,4.06 -27.65,20.02 -27.97,35.68 l -2.23,107.74 -82.21,0 -2.24,-107.74 c -0.33,-15.64 -12.85,-31.62 -27.97,-35.68 l -139.16,-37.28 c -15.11,-4.05 -30.66,4.92 -34.7,20.03 -9.91,36.92 -27.41,102.25 -37.31,139.17 -4.04,15.11 3.52,33.96 16.92,42.07 z"
         style="fill:none;stroke:#ff0000;stroke-width:2.83465004;stroke-linecap:butt;stroke-linejoin:miter;stroke-miterlimit:10;stroke-dasharray:none;stroke-opacity:1"
         id="path4930"
         inkscape:connector-curvature="0" /><path
         d="m 6336.77,1791.97 c -7.82,0 -14.17,6.35 -14.17,14.16 0,7.83 6.35,14.17 14.17,14.17 7.83,0 14.18,-6.34 14.18,-14.17 0,-7.81 -6.35,-14.16 -14.18,-14.16 z"
         style="fill:none;stroke:#ff0000;stroke-width:2.83465004;stroke-linecap:butt;stroke-linejoin:miter;stroke-miterlimit:10;stroke-dasharray:none;stroke-opacity:1"
         id="path4932"
         inkscape:connector-curvature="0" /><path
         d="m 6071.23,427.48 92.17,55.801 -41.1,71.207 -94.41,-51.929 c -13.72,-7.539 -33.81,-4.688 -44.89,6.39 l -101.87,101.852 c -11.07,11.078 -11.07,29.031 0,40.097 L 5983,752.781 c 11.08,11.071 31.16,13.918 44.89,6.379 34.94,-19.219 94.41,-51.93 94.41,-51.93 l 41.09,71.192 -92.16,55.816 c -13.4,8.114 -20.96,26.934 -16.92,42.051 l 37.29,139.161 c 4.04,15.12 19.59,24.1 34.7,20.04 l 139.18,-37.279 c 15.12,-4.051 27.64,-20.02 27.96,-35.672 0.83,-39.879 2.24,-107.73 2.24,-107.73 l 82.21,0 2.24,107.73 c 0.32,15.652 12.85,31.621 27.97,35.672 l 139.14,37.279 c 15.14,4.06 30.68,-4.92 34.73,-20.04 l 37.28,-139.161 c 4.07,-15.117 -3.51,-33.937 -16.9,-42.051 -34.11,-20.636 -92.18,-55.797 -92.18,-55.797 l 41.1,-71.191 94.42,51.91 c 13.72,7.539 33.82,4.692 44.88,-6.379 l 101.87,-101.859 c 11.07,-11.07 11.07,-29.024 0,-40.102 L 6690.57,508.949 c -11.06,-11.078 -31.16,-13.929 -44.87,-6.39 -34.94,19.222 -94.42,51.929 -94.42,51.929 l -41.11,-71.187 92.17,-55.801 c 13.4,-8.102 20.98,-26.949 16.91,-42.07 l -37.27,-139.141 c -4.06,-15.141 -19.58,-24.098 -34.71,-20.059 -36.9,9.891 -102.26,27.399 -139.17,37.29 -15.12,4.039 -27.65,20.019 -27.97,35.66 l -2.23,107.742 -82.21,0 -2.24,-107.723 c -0.33,-15.64 -12.85,-31.617 -27.97,-35.679 l -139.16,-37.29 c -15.11,-4.058 -30.66,4.899 -34.7,20.04 -9.91,36.902 -27.41,102.25 -37.31,139.16 -4.04,15.121 3.52,33.949 16.92,42.05 z"
         style="fill:none;stroke:#ff0000;stroke-width:2.83465004;stroke-linecap:butt;stroke-linejoin:miter;stroke-miterlimit:10;stroke-dasharray:none;stroke-opacity:1"
         id="path4934"
         inkscape:connector-curvature="0" /><path
         d="m 6336.78,616.68 c -7.83,0 -14.18,6.351 -14.18,14.179 0,7.832 6.35,14.161 14.18,14.161 7.82,0 14.17,-6.329 14.17,-14.161 0,-7.828 -6.35,-14.179 -14.17,-14.179 z"
         style="fill:none;stroke:#ff0000;stroke-width:2.83465004;stroke-linecap:butt;stroke-linejoin:miter;stroke-miterlimit:10;stroke-dasharray:none;stroke-opacity:1"
         id="path4936"
         inkscape:connector-curvature="0" /><path
         d="M 451.566,10.5313 C 476.93,-7.82813 494.254,2.46094 490.258,33.5195 L 425.355,538.629 c -3.992,31.062 18.106,54.711 49.368,52.84 l 511.816,-30.778 c 31.251,-1.882 38.351,14.25 15.851,36.028 L 645.504,942.332 c -22.5,21.77 -16.699,47.59 12.949,57.688 l 551.007,187.48 c 29.64,10.08 29.87,27.09 0.52,38 l -517.007,192.07 c -29.356,10.92 -36.336,38.77 -15.586,62.23 l 338.183,382.39 c 20.74,23.47 12.5,38.45 -18.418,33.47 l -513.32,-82.52 c -30.918,-4.95 -52.09,16.1 -47.305,47.04 l 72.922,471.06 c 4.793,30.93 -11.554,40.69 -36.504,21.76 L 46.6055,2029.92 C 21.6563,2011.01 1.42188,1970.31 1.42969,1938.99 L 1.42188,1803.6 C 1.42969,1787.96 14.1172,1775 29.7695,1774.67 l 107.7145,-2.24 0.012,-82.21 -107.7343,-2.25 C 14.1172,1687.65 1.42969,1674.7 1.42969,1659.04 L 1.42188,669.77 C 1.42969,654.102 14.1172,641.148 29.7617,640.82 l 107.7223,-2.218 0.012,-82.211 -107.7343,-2.25 C 14.1172,553.809 1.42188,540.859 1.42188,525.199 l 0,-131.988 C 1.42969,361.879 21.9766,321.621 47.3477,303.262 L 451.566,10.5313 Z"
         style="fill:none;stroke:#ff0000;stroke-width:2.83465004;stroke-linecap:butt;stroke-linejoin:miter;stroke-miterlimit:10;stroke-dasharray:none;stroke-opacity:1"
         id="path4938"
         inkscape:connector-curvature="0" /><path
         d="m 348.871,1409.02 460.703,356.62 c 12.375,9.58 10.156,14.08 -4.98,10.06 l -375.281,-99.92 c -15.129,-4.04 -30.723,-19.55 -34.844,-34.65 L 333.91,1419.02 c -4.109,-15.11 2.578,-19.59 14.961,-10 z"
         style="fill:none;stroke:#ff0000;stroke-width:2.83465004;stroke-linecap:butt;stroke-linejoin:miter;stroke-miterlimit:10;stroke-dasharray:none;stroke-opacity:1"
         id="path4940"
         inkscape:connector-curvature="0" /><path
         d="m 290.688,1037.21 691.21,165.47 c 15.227,3.65 15.305,9.8 0.157,13.76 l -498.172,130.31 c -15.156,3.96 -33.938,-3.72 -41.973,-17.16 L 277.672,1054.94 c -8.039,-13.43 -2.199,-21.36 13.016,-17.73 z"
         style="fill:none;stroke:#ff0000;stroke-width:2.83465004;stroke-linecap:butt;stroke-linejoin:miter;stroke-miterlimit:10;stroke-dasharray:none;stroke-opacity:1"
         id="path4942"
         inkscape:connector-curvature="0" /><path
         d="M 207.582,778.379 791.188,661.531 c 15.359,-3.09 17.917,2.399 5.742,12.239 L 423.98,975.141 c -12.179,9.82 -31.308,9.121 -42.707,-1.621 L 200.445,803.359 c -11.406,-10.718 -8.203,-21.91 7.137,-24.98 z"
         style="fill:none;stroke:#ff0000;stroke-width:2.83465004;stroke-linecap:butt;stroke-linejoin:miter;stroke-miterlimit:10;stroke-dasharray:none;stroke-opacity:1"
         id="path4944"
         inkscape:connector-curvature="0" /><path
         d="M 123.129,395.199 366.813,180.262 c 11.746,-10.364 17.988,-6.492 13.964,8.648 l -70.351,263.731 c -4.035,15.14 -19.356,23.441 -34.238,18.55 l -147.375,-48.41 c -14.891,-4.871 -17.422,-17.23 -5.684,-27.582 z"
         style="fill:none;stroke:#ff0000;stroke-width:2.83465004;stroke-linecap:butt;stroke-linejoin:miter;stroke-miterlimit:10;stroke-dasharray:none;stroke-opacity:1"
         id="path4946"
         inkscape:connector-curvature="0" /><path
         d="M 380.055,2174.47 188.316,2016.36 c -12.07,-9.96 -14.628,-28.47 -5.703,-41.32 l 77.117,-111.16 c 8.926,-12.87 20.43,-11.33 25.715,3.4 l 106.922,298.54 c 5.274,14.73 -0.234,18.61 -12.312,8.65 z"
         style="fill:none;stroke:#ff0000;stroke-width:2.83465004;stroke-linecap:butt;stroke-linejoin:miter;stroke-miterlimit:10;stroke-dasharray:none;stroke-opacity:1"
         id="path4948"
         inkscape:connector-curvature="0" /><path
         d="m 1319.39,2171.44 119.23,-304.84 c 11.39,-29.17 -3.58,-60.39 -33.45,-69.77 l -476.639,-149.4 c -29.883,-9.35 -33.261,-31.45 -7.551,-49.31 l 521.8,-362.83 c 25.7,-17.88 27.5,-49.16 4.04,-69.88 L 977.328,751.039 c -23.457,-20.73 -17.664,-42.801 12.969,-49.277 L 1394.07,616.25 c 30.62,-6.48 48.69,-36.211 40.33,-66.379 L 1355.1,263.32 c -8.35,-30.172 8.6,-45.582 37.85,-34.429 l 430.03,163.89 c 29.26,11.149 52.98,45.578 52.98,76.891 l 0,135.387 c 0,15.652 -12.67,28.613 -28.33,28.929 l -107.72,2.242 0,82.192 107.72,2.269 c 15.65,0.329 28.33,13.278 28.33,28.918 l 0,989.291 c 0,15.64 -12.67,28.6 -28.33,28.93 l -107.73,2.25 0.01,82.2 107.72,2.23 c 15.65,0.33 28.33,13.29 28.33,28.94 l 0,132 c 0,31.3 -24.53,63.16 -54.81,71.13 l -467.58,123.2 c -30.28,8 -45.58,-9.18 -34.18,-38.34 z"
         style="fill:none;stroke:#ff0000;stroke-width:2.83465004;stroke-linecap:butt;stroke-linejoin:miter;stroke-miterlimit:10;stroke-dasharray:none;stroke-opacity:1"
         id="path4950"
         inkscape:connector-curvature="0" /><path
         d="M 1526.11,1003.32 1101.89,769.941 c -13.72,-7.562 -12.17,-14.179 3.48,-14.8 l 341.77,-13.809 c 15.66,-0.641 31.67,11.066 35.79,26.188 l 60.54,222.128 c 4.13,15.102 -3.65,21.232 -17.36,13.672 z"
         style="fill:none;stroke:#ff0000;stroke-width:2.83465004;stroke-linecap:butt;stroke-linejoin:miter;stroke-miterlimit:10;stroke-dasharray:none;stroke-opacity:1"
         id="path4952"
         inkscape:connector-curvature="0" /><path
         d="m 1041.37,1599.65 605.91,-344.25 c 13.61,-7.73 21.98,-1.6 18.68,13.69 l -68.16,316.86 c -3.3,15.3 -18.66,27.71 -34.31,27.71 l -518.43,-0.01 c -15.64,0.01 -17.3,-6.26 -3.69,-14 z"
         style="fill:none;stroke:#ff0000;stroke-width:2.83465004;stroke-linecap:butt;stroke-linejoin:miter;stroke-miterlimit:10;stroke-dasharray:none;stroke-opacity:1"
         id="path4954"
         inkscape:connector-curvature="0" /><path
         d="m 1733,2004.96 -331.37,128.65 c -14.59,5.67 -18.91,0.05 -9.62,-12.56 l 142.11,-192.95 c 9.28,-12.59 28.48,-17.81 42.88,-11.65 l 156.38,67.09 c 14.39,6.16 14.21,15.76 -0.38,21.42 z"
         style="fill:none;stroke:#ff0000;stroke-width:2.83465004;stroke-linecap:butt;stroke-linejoin:miter;stroke-miterlimit:10;stroke-dasharray:none;stroke-opacity:1"
         id="path4956"
         inkscape:connector-curvature="0" /><path
         d="m 1458.02,322.559 177.87,76.562 c 14.38,6.188 21.5,23.07 15.9,37.68 l -40.14,104.801 c -5.61,14.609 -17.13,15.859 -25.77,2.796 L 1447.59,335 c -8.62,-13.059 -3.95,-18.629 10.43,-12.441 z"
         style="fill:none;stroke:#ff0000;stroke-width:2.83465004;stroke-linecap:butt;stroke-linejoin:miter;stroke-miterlimit:10;stroke-dasharray:none;stroke-opacity:1"
         id="path4958"
         inkscape:connector-curvature="0" /><path
         d="m 2407.48,10.5313 c 25.36,-18.35943 42.68,-8.07036 38.69,22.9882 l -64.91,505.1095 c -3.99,31.062 18.11,54.711 49.37,52.84 l 511.82,-30.778 c 31.25,-1.882 38.35,14.25 15.85,36.028 l -356.89,345.613 c -22.5,21.77 -16.7,47.59 12.95,57.688 l 551.01,187.48 c 29.63,10.08 29.87,27.09 0.51,38 l -517,192.07 c -29.35,10.92 -36.34,38.77 -15.58,62.23 l 338.18,382.39 c 20.74,23.47 12.5,38.45 -18.42,33.47 l -513.32,-82.52 c -30.92,-4.95 -52.09,16.1 -47.3,47.04 l 72.92,471.06 c 4.79,30.93 -11.56,40.69 -36.51,21.76 l -426.34,-323.08 c -24.95,-18.91 -45.18,-59.61 -45.17,-90.93 l -0.01,-135.39 c 0.01,-15.64 12.69,-28.6 28.35,-28.93 l 107.71,-2.24 0.01,-82.21 -107.73,-2.25 c -15.65,-0.32 -28.33,-13.27 -28.33,-28.93 l -0.01,-989.27 c 0.01,-15.668 12.69,-28.622 28.34,-28.95 l 107.72,-2.218 0.01,-82.211 -107.73,-2.25 c -15.65,-0.332 -28.34,-13.282 -28.34,-28.942 l 0,-131.988 c 0.01,-31.332 20.56,-71.59 45.93,-89.949 L 2407.48,10.5313 Z"
         style="fill:none;stroke:#ff0000;stroke-width:2.83465004;stroke-linecap:butt;stroke-linejoin:miter;stroke-miterlimit:10;stroke-dasharray:none;stroke-opacity:1"
         id="path4960"
         inkscape:connector-curvature="0" /><path
         d="m 2304.78,1409.02 460.7,356.62 c 12.38,9.58 10.16,14.08 -4.98,10.06 l -375.28,-99.92 c -15.13,-4.04 -30.72,-19.55 -34.84,-34.65 l -60.56,-222.11 c -4.11,-15.11 2.58,-19.59 14.96,-10 z"
         style="fill:none;stroke:#ff0000;stroke-width:2.83465004;stroke-linecap:butt;stroke-linejoin:miter;stroke-miterlimit:10;stroke-dasharray:none;stroke-opacity:1"
         id="path4962"
         inkscape:connector-curvature="0" /><path
         d="m 2246.6,1037.21 691.21,165.47 c 15.22,3.65 15.3,9.8 0.15,13.76 l -498.17,130.31 c -15.16,3.96 -33.94,-3.72 -41.97,-17.16 l -164.24,-274.65 c -8.04,-13.43 -2.2,-21.36 13.02,-17.73 z"
         style="fill:none;stroke:#ff0000;stroke-width:2.83465004;stroke-linecap:butt;stroke-linejoin:miter;stroke-miterlimit:10;stroke-dasharray:none;stroke-opacity:1"
         id="path4964"
         inkscape:connector-curvature="0" /><path
         d="m 2163.49,778.379 583.6,-116.848 c 15.37,-3.09 17.92,2.399 5.75,12.239 l -372.95,301.371 c -12.18,9.82 -31.31,9.121 -42.71,-1.621 L 2156.35,803.359 c -11.4,-10.718 -8.2,-21.91 7.14,-24.98 z"
         style="fill:none;stroke:#ff0000;stroke-width:2.83465004;stroke-linecap:butt;stroke-linejoin:miter;stroke-miterlimit:10;stroke-dasharray:none;stroke-opacity:1"
         id="path4966"
         inkscape:connector-curvature="0" /><path
         d="m 2079.04,395.199 243.68,-214.937 c 11.75,-10.364 17.99,-6.492 13.96,8.648 l -70.35,263.731 c -4.03,15.14 -19.35,23.441 -34.24,18.55 l -147.37,-48.41 c -14.89,-4.871 -17.42,-17.23 -5.68,-27.582 z"
         style="fill:none;stroke:#ff0000;stroke-width:2.83465004;stroke-linecap:butt;stroke-linejoin:miter;stroke-miterlimit:10;stroke-dasharray:none;stroke-opacity:1"
         id="path4968"
         inkscape:connector-curvature="0" /><path
         d="m 2335.96,2174.47 -191.74,-158.11 c -12.07,-9.96 -14.63,-28.47 -5.7,-41.32 l 77.12,-111.16 c 8.93,-12.87 20.43,-11.33 25.71,3.4 l 106.93,298.54 c 5.27,14.73 -0.24,18.61 -12.32,8.65 z"
         style="fill:none;stroke:#ff0000;stroke-width:2.83465004;stroke-linecap:butt;stroke-linejoin:miter;stroke-miterlimit:10;stroke-dasharray:none;stroke-opacity:1"
         id="path4970"
         inkscape:connector-curvature="0" /><path
         d="m 3275.3,2171.44 119.23,-304.84 c 11.39,-29.17 -3.58,-60.39 -33.45,-69.77 l -476.64,-149.4 c -29.88,-9.35 -33.26,-31.45 -7.55,-49.31 l 521.8,-362.83 c 25.7,-17.88 27.5,-49.16 4.04,-69.88 L 2933.24,751.039 c -23.46,-20.73 -17.67,-42.801 12.97,-49.277 l 403.77,-85.512 c 30.62,-6.48 48.69,-36.211 40.33,-66.379 l -79.3,-286.551 c -8.35,-30.172 8.59,-45.582 37.85,-34.429 l 430.03,163.89 c 29.26,11.149 52.98,45.578 52.98,76.891 l 0,135.387 c 0,15.652 -12.68,28.613 -28.33,28.929 l -107.72,2.242 0,82.192 107.72,2.269 c 15.64,0.329 28.33,13.278 28.33,28.918 l 0,989.291 c 0,15.64 -12.68,28.6 -28.33,28.93 l -107.73,2.25 0.01,82.2 107.72,2.23 c 15.64,0.33 28.33,13.29 28.33,28.94 l 0,132 c 0,31.3 -24.53,63.16 -54.81,71.13 l -467.58,123.2 c -30.29,8 -45.58,-9.18 -34.18,-38.34 z"
         style="fill:none;stroke:#ff0000;stroke-width:2.83465004;stroke-linecap:butt;stroke-linejoin:miter;stroke-miterlimit:10;stroke-dasharray:none;stroke-opacity:1"
         id="path4972"
         inkscape:connector-curvature="0" /><path
         d="M 3482.02,1003.32 3057.8,769.941 c -13.72,-7.562 -12.17,-14.179 3.47,-14.8 l 341.78,-13.809 c 15.66,-0.641 31.67,11.066 35.79,26.188 l 60.54,222.128 c 4.13,15.102 -3.65,21.232 -17.36,13.672 z"
         style="fill:none;stroke:#ff0000;stroke-width:2.83465004;stroke-linecap:butt;stroke-linejoin:miter;stroke-miterlimit:10;stroke-dasharray:none;stroke-opacity:1"
         id="path4974"
         inkscape:connector-curvature="0" /><path
         d="m 2997.28,1599.65 605.91,-344.25 c 13.61,-7.73 21.98,-1.6 18.68,13.69 l -68.16,316.86 c -3.3,15.3 -18.67,27.71 -34.31,27.71 l -518.43,-0.01 c -15.64,0.01 -17.3,-6.26 -3.69,-14 z"
         style="fill:none;stroke:#ff0000;stroke-width:2.83465004;stroke-linecap:butt;stroke-linejoin:miter;stroke-miterlimit:10;stroke-dasharray:none;stroke-opacity:1"
         id="path4976"
         inkscape:connector-curvature="0" /><path
         d="m 3688.91,2004.96 -331.38,128.65 c -14.59,5.67 -18.9,0.05 -9.61,-12.56 l 142.1,-192.95 c 9.29,-12.59 28.49,-17.81 42.89,-11.65 l 156.38,67.09 c 14.39,6.16 14.21,15.76 -0.38,21.42 z"
         style="fill:none;stroke:#ff0000;stroke-width:2.83465004;stroke-linecap:butt;stroke-linejoin:miter;stroke-miterlimit:10;stroke-dasharray:none;stroke-opacity:1"
         id="path4978"
         inkscape:connector-curvature="0" /><path
         d="m 3413.93,322.559 177.87,76.562 c 14.38,6.188 21.5,23.07 15.9,37.68 l -40.15,104.801 c -5.6,14.609 -17.13,15.859 -25.76,2.796 L 3403.5,335 c -8.62,-13.059 -3.95,-18.629 10.43,-12.441 z"
         style="fill:none;stroke:#ff0000;stroke-width:2.83465004;stroke-linecap:butt;stroke-linejoin:miter;stroke-miterlimit:10;stroke-dasharray:none;stroke-opacity:1"
         id="path4980"
         inkscape:connector-curvature="0" /><path
         d="m 4363.38,10.5313 c 25.37,-18.35943 42.69,-8.07036 38.7,22.9882 l -64.91,505.1095 c -3.99,31.062 18.11,54.711 49.37,52.84 l 511.81,-30.778 c 31.25,-1.882 38.35,14.25 15.85,36.028 l -356.88,345.613 c -22.5,21.77 -16.7,47.59 12.95,57.688 l 551,187.48 c 29.64,10.08 29.88,27.09 0.52,38 l -517,192.07 c -29.36,10.92 -36.34,38.77 -15.59,62.23 l 338.19,382.39 c 20.74,23.47 12.5,38.45 -18.42,33.47 l -513.32,-82.52 c -30.92,-4.95 -52.09,16.1 -47.31,47.04 l 72.92,471.06 c 4.8,30.93 -11.55,40.69 -36.5,21.76 l -426.34,-323.08 c -24.95,-18.91 -45.18,-59.61 -45.17,-90.93 l -0.01,-135.39 c 0.01,-15.64 12.69,-28.6 28.35,-28.93 l 107.71,-2.24 0.01,-82.21 -107.73,-2.25 c -15.65,-0.32 -28.33,-13.27 -28.33,-28.93 l -0.01,-989.27 c 0.01,-15.668 12.69,-28.622 28.34,-28.95 l 107.72,-2.218 0.01,-82.211 -107.73,-2.25 c -15.65,-0.332 -28.34,-13.282 -28.34,-28.942 l 0,-131.988 c 0.01,-31.332 20.55,-71.59 45.93,-89.949 L 4363.38,10.5313 Z"
         style="fill:none;stroke:#ff0000;stroke-width:2.83465004;stroke-linecap:butt;stroke-linejoin:miter;stroke-miterlimit:10;stroke-dasharray:none;stroke-opacity:1"
         id="path4982"
         inkscape:connector-curvature="0" /><path
         d="m 4260.69,1409.02 460.7,356.62 c 12.37,9.58 10.16,14.08 -4.98,10.06 l -375.28,-99.92 c -15.13,-4.04 -30.72,-19.55 -34.85,-34.65 l -60.55,-222.11 c -4.11,-15.11 2.58,-19.59 14.96,-10 z"
         style="fill:none;stroke:#ff0000;stroke-width:2.83465004;stroke-linecap:butt;stroke-linejoin:miter;stroke-miterlimit:10;stroke-dasharray:none;stroke-opacity:1"
         id="path4984"
         inkscape:connector-curvature="0" /><path
         d="m 4202.5,1037.21 691.22,165.47 c 15.22,3.65 15.3,9.8 0.15,13.76 l -498.17,130.31 c -15.16,3.96 -33.94,-3.72 -41.97,-17.16 l -164.24,-274.65 c -8.04,-13.43 -2.2,-21.36 13.01,-17.73 z"
         style="fill:none;stroke:#ff0000;stroke-width:2.83465004;stroke-linecap:butt;stroke-linejoin:miter;stroke-miterlimit:10;stroke-dasharray:none;stroke-opacity:1"
         id="path4986"
         inkscape:connector-curvature="0" /><path
         d="M 4119.4,778.379 4703,661.531 c 15.36,-3.09 17.92,2.399 5.75,12.239 L 4335.8,975.141 c -12.18,9.82 -31.31,9.121 -42.71,-1.621 L 4112.26,803.359 c -11.41,-10.718 -8.2,-21.91 7.14,-24.98 z"
         style="fill:none;stroke:#ff0000;stroke-width:2.83465004;stroke-linecap:butt;stroke-linejoin:miter;stroke-miterlimit:10;stroke-dasharray:none;stroke-opacity:1"
         id="path4988"
         inkscape:connector-curvature="0" /><path
         d="m 4034.95,395.199 243.68,-214.937 c 11.75,-10.364 17.99,-6.492 13.96,8.648 l -70.35,263.731 c -4.03,15.14 -19.35,23.441 -34.24,18.55 l -147.37,-48.41 c -14.89,-4.871 -17.42,-17.23 -5.68,-27.582 z"
         style="fill:none;stroke:#ff0000;stroke-width:2.83465004;stroke-linecap:butt;stroke-linejoin:miter;stroke-miterlimit:10;stroke-dasharray:none;stroke-opacity:1"
         id="path4990"
         inkscape:connector-curvature="0" /><path
         d="m 4291.87,2174.47 -191.74,-158.11 c -12.07,-9.96 -14.63,-28.47 -5.7,-41.32 l 77.12,-111.16 c 8.92,-12.87 20.43,-11.33 25.71,3.4 l 106.92,298.54 c 5.28,14.73 -0.23,18.61 -12.31,8.65 z"
         style="fill:none;stroke:#ff0000;stroke-width:2.83465004;stroke-linecap:butt;stroke-linejoin:miter;stroke-miterlimit:10;stroke-dasharray:none;stroke-opacity:1"
         id="path4992"
         inkscape:connector-curvature="0" /><path
         d="m 5231.21,2171.44 119.22,-304.84 c 11.4,-29.17 -3.57,-60.39 -33.44,-69.77 l -476.64,-149.4 c -29.89,-9.35 -33.27,-31.45 -7.55,-49.31 l 521.79,-362.83 c 25.71,-17.88 27.5,-49.16 4.05,-69.88 L 4889.15,751.039 c -23.46,-20.73 -17.67,-42.801 12.96,-49.277 l 403.77,-85.512 c 30.63,-6.48 48.7,-36.211 40.34,-66.379 l -79.3,-286.551 c -8.35,-30.172 8.59,-45.582 37.85,-34.429 l 430.03,163.89 c 29.26,11.149 52.98,45.578 52.98,76.891 l 0,135.387 c 0,15.652 -12.68,28.613 -28.33,28.929 l -107.73,2.242 0,82.192 107.73,2.269 c 15.64,0.329 28.33,13.278 28.33,28.918 l 0,989.291 c 0,15.64 -12.68,28.6 -28.33,28.93 l -107.74,2.25 0.01,82.2 107.73,2.23 c 15.64,0.33 28.33,13.29 28.33,28.94 l 0,132 c 0,31.3 -24.53,63.16 -54.82,71.13 l -467.57,123.2 c -30.29,8 -45.58,-9.18 -34.18,-38.34 z"
         style="fill:none;stroke:#ff0000;stroke-width:2.83465004;stroke-linecap:butt;stroke-linejoin:miter;stroke-miterlimit:10;stroke-dasharray:none;stroke-opacity:1"
         id="path4994"
         inkscape:connector-curvature="0" /><path
         d="M 5437.92,1003.32 5013.71,769.941 c -13.72,-7.562 -12.17,-14.179 3.47,-14.8 l 341.78,-13.809 c 15.65,-0.641 31.67,11.066 35.79,26.188 l 60.54,222.128 c 4.13,15.102 -3.65,21.232 -17.37,13.672 z"
         style="fill:none;stroke:#ff0000;stroke-width:2.83465004;stroke-linecap:butt;stroke-linejoin:miter;stroke-miterlimit:10;stroke-dasharray:none;stroke-opacity:1"
         id="path4996"
         inkscape:connector-curvature="0" /><path
         d="M 4953.19,1599.65 5559.1,1255.4 c 13.61,-7.73 21.98,-1.6 18.68,13.69 l -68.17,316.86 c -3.3,15.3 -18.66,27.71 -34.3,27.71 l -518.43,-0.01 c -15.64,0.01 -17.3,-6.26 -3.69,-14 z"
         style="fill:none;stroke:#ff0000;stroke-width:2.83465004;stroke-linecap:butt;stroke-linejoin:miter;stroke-miterlimit:10;stroke-dasharray:none;stroke-opacity:1"
         id="path4998"
         inkscape:connector-curvature="0" /><path
         d="m 5644.82,2004.96 -331.38,128.65 c -14.59,5.67 -18.9,0.05 -9.62,-12.56 l 142.11,-192.95 c 9.29,-12.59 28.49,-17.81 42.88,-11.65 l 156.39,67.09 c 14.38,6.16 14.21,15.76 -0.38,21.42 z"
         style="fill:none;stroke:#ff0000;stroke-width:2.83465004;stroke-linecap:butt;stroke-linejoin:miter;stroke-miterlimit:10;stroke-dasharray:none;stroke-opacity:1"
         id="path5000"
         inkscape:connector-curvature="0" /><path
         d="m 5369.84,322.559 177.87,76.562 c 14.37,6.188 21.49,23.07 15.9,37.68 l -40.15,104.801 c -5.6,14.609 -17.13,15.859 -25.76,2.796 L 5359.41,335 c -8.62,-13.059 -3.96,-18.629 10.43,-12.441 z"
         style="fill:none;stroke:#ff0000;stroke-width:2.83465004;stroke-linecap:butt;stroke-linejoin:miter;stroke-miterlimit:10;stroke-dasharray:none;stroke-opacity:1"
         id="path5002"
         inkscape:connector-curvature="0" /></g></g></svg>