<?xml version="1.0" encoding="UTF-8" standalone="no"?>
<!-- Created with Inkscape (http://www.inkscape.org/) -->
<svg
   xmlns:dc="http://purl.org/dc/elements/1.1/"
   xmlns:cc="http://creativecommons.org/ns#"
   xmlns:rdf="http://www.w3.org/1999/02/22-rdf-syntax-ns#"
   xmlns:svg="http://www.w3.org/2000/svg"
   xmlns="http://www.w3.org/2000/svg"
   xmlns:sodipodi="http://sodipodi.sourceforge.net/DTD/sodipodi-0.dtd"
   xmlns:inkscape="http://www.inkscape.org/namespaces/inkscape"
   width="1080"
   height="1080"
   id="svg4174"
   sodipodi:version="0.32"
   inkscape:version="0.46"
   version="1.0"
   sodipodi:docname="elephant path clean.svg"
   inkscape:output_extension="org.inkscape.output.svg.inkscape">
  <defs
     id="defs4176">
    <inkscape:perspective
       sodipodi:type="inkscape:persp3d"
       inkscape:vp_x="0 : 526.18109 : 1"
       inkscape:vp_y="0 : 1000 : 0"
       inkscape:vp_z="744.09448 : 526.18109 : 1"
       inkscape:persp3d-origin="372.04724 : 350.78739 : 1"
       id="perspective4182" />
  </defs>
  <sodipodi:namedview
     id="base"
     pagecolor="#ffffff"
     bordercolor="#666666"
     borderopacity="1.0"
     gridtolerance="10000"
     guidetolerance="10"
     objecttolerance="10"
     inkscape:pageopacity="0.0"
     inkscape:pageshadow="2"
     inkscape:zoom="0.35"
     inkscape:cx="375"
     inkscape:cy="520"
     inkscape:document-units="px"
     inkscape:current-layer="layer1"
     showgrid="false"
     units="in"
     inkscape:window-width="640"
     inkscape:window-height="701"
     inkscape:window-x="32"
     inkscape:window-y="42" />
  <metadata
     id="metadata4179">
    <rdf:RDF>
      <cc:Work
         rdf:about="">
        <dc:format>image/svg+xml</dc:format>
        <dc:type
           rdf:resource="http://purl.org/dc/dcmitype/StillImage" />
      </cc:Work>
    </rdf:RDF>
  </metadata>
  <g
     inkscape:label="Layer 1"
     inkscape:groupmode="layer"
     id="layer1">
    <g
       transform="matrix(0.6735833,0,0,0.6735833,-17.639027,-54.465208)"
       id="g4099">
      <path
         style="fill:none;stroke:#000000;stroke-width:0.67358333;stroke-opacity:1"
         d="M 186.375,10.59375 C 185.62885,10.615028 184.84439,10.644189 184,10.71875 C 179.04123,10.933852 174.77459,11.127604 170.21875,11.34375 C 166.03425,12.559406 160.48713,11.501275 157.75,13.40625 C 153.69751,12.514971 143.97657,14.445885 139.21875,14 C 133.2896,14.421838 129.12323,16.202766 124.125,16.8125 C 120.67626,17.138844 116.63041,19.237558 113.46875,18.8125 C 109.85732,20.62516 108.79341,19.224418 104.28125,18.40625 C 103.64268,20.211622 95.938176,16.314263 92.96875,18 C 86.666607,17.009516 79.040645,19.076893 73.75,22.53125 C 72.811055,25.469885 70.50052,24.454688 68.28125,27.8125 C 66.248978,31.256302 63.689144,32.783311 61.71875,36.96875 C 58.338978,39.409702 58.444713,44.528898 56.28125,45.4375 C 53.470751,49.901863 51.95373,54.674635 49.40625,59.53125 C 47.073106,61.426829 48.091752,63.765729 46.3125,63.9375 C 43.392584,67.813198 41.054946,71.725143 38.71875,76.03125 C 35.726841,79.23484 34.477585,85.029109 32.625,87.90625 C 31.191925,93.939584 29.857216,99.307112 28.9375,105.15625 C 29.132738,108.20694 28.138668,110.35188 27.375,113.84375 C 26.780994,120.34031 25.460691,127.37916 24.75,134.53125 C 23.641746,143.65747 22.496946,152.64565 22.125,162.125 C 21.111344,170.74221 21.886676,182.03117 22,189.09375 C 23.507445,197.08068 22.870514,205.6173 26.875,212.90625 C 28.781935,220.28398 33.433494,226.48267 38,232.40625 C 41.548396,235.68783 46.876353,238.36062 51.4375,239.84375 C 58.244059,243.78282 66.165753,240.38352 59.40625,233.3125 C 68.123698,221.35807 53.502088,226.83414 46.875,222.1875 C 42.365535,214.75514 41.60175,205.63175 39.6875,197.4375 C 39.355167,186.18074 42.022408,175.03634 44.71875,164.15625 C 46.089148,159.61556 48.552009,139.69354 54.3125,148.625 C 59.267372,147.18857 63.622573,136.44019 72.53125,139.84375 C 83.643101,138.7269 96.76554,141.41419 105.8125,133.3125 C 112.31617,130.3427 114.36582,122.60478 121,120.5625 C 127.63418,118.52022 130.51367,146.17573 143.46875,152.6875 C 145.57797,153.74769 148.33126,154.45439 151.6875,154.9375 L 151.6875,71.34375 L 162.03125,71.34375 L 162.03125,155.71875 C 179.2825,156.32732 201.12931,154.0879 209.1875,156.625 C 217.69004,158.29593 228.34336,160.77188 237.15625,162.34375 C 244.25386,166.17767 252.99987,162.02811 261.21875,163.09375 C 268.23746,161.6534 275.12586,162.23864 281.90625,161.53125 L 281.90625,91.90625 L 292.23,91.90625 L 292.23,159.28125 C 303.01241,158.86523 301.66272,151.57168 305.9375,143.46875 C 308.33907,132.51697 311.3383,131.06959 310.5,119.84375 C 312.67464,106.92781 323.51886,130.19209 318.96875,135.65625 C 317.03513,154.58001 320.98503,173.3993 318.6875,192.21875 C 318.58004,200.81757 317.63187,210.67112 313.71875,218.09375 C 313.87093,224.23267 315.05538,236.89835 322.5625,236.34375 C 324.20688,230.17428 327.02952,226.92706 329.3125,235.875 C 336.19307,234.39781 338.62453,223.8491 336.0625,217.71875 C 332.83513,208.88579 330.57216,199.63909 328.96875,190.5 C 329.32565,180.82682 329.34209,170.50214 330.34375,160.53125 C 331.15128,146.83889 332.75636,133.00543 334.09375,119.40625 C 332.91985,110.76967 332.35672,101.62033 327.84375,94.1875 C 327.12734,90.877796 324.43759,88.465674 323.875,85.1875 C 320.89039,80.765898 318.80866,75.116497 314.96875,70.625 C 309.64409,61.35636 301.93042,53.58232 293.5625,47.03125 C 289.2336,41.871515 284.07062,37.697517 278.15625,34.5625 C 275.13763,32.702252 271.2371,30.660008 267.8125,29.28125 C 264.47593,27.309887 259.67689,24.279581 255.28125,22.9375 C 252.23576,21.957665 249.01391,21.234978 247.4375,19.875 C 240.76407,17.61601 229.09656,14.653263 222.1875,13.34375 C 213.35674,14.671746 209.10911,9.8151535 200.0625,11.34375 C 194.74281,11.438458 191.59804,10.444803 186.375,10.59375 z"
         transform="matrix(1.4845974,0,0,1.4845974,49.196275,97.889428)"
         id="path4101"
         sodipodi:nodetypes="ccccccccccccccccccccccccccccccccssccccccccccccccccccccccccccccccccc" />
    </g>
    <g
       id="g4030"
       transform="translate(19.678256,-19.83287)">
      <path
         style="fill:none;stroke:#000000;stroke-width:0.67358327;stroke-opacity:1"
         d="M 294.05435,294.30571 L 293.99087,416.08696 C 299.47871,416.08895 303.21554,415.69551 307.67935,412.74321 C 315.36749,406.80461 305.39711,393.36619 312.5231,386.30571 C 314.81845,369.98843 310.41091,353.65559 306.8981,337.93071 C 304.85106,329.57292 308.82925,321.51404 310.5231,312.89946 C 312.92467,301.94768 313.5489,286.1253 312.7106,274.89946 C 305.51608,250.32738 309.06338,261.17992 298.5856,244.71196 C 292.13238,234.18065 283.70142,227.81864 274.6481,220.27446 C 264.87803,215.14367 254.73731,207.27921 244.8356,202.14946 C 234.7706,199.62299 221.75235,193.79578 215.2731,192.49321 C 211.22061,191.60193 187.06217,191.90787 182.30435,191.46196 C 176.37518,191.8838 136.39634,192.60222 131.3981,193.21196 C 102.70116,194.48426 113.59082,189.86122 85.835598,200.52446 C 84.896658,201.32473 69.74236,215.29165 67.523098,218.64946 C 65.490818,222.09327 58.133059,240.74432 58.835598,255.08696 C 68.285998,267.68512 66.084938,275.62491 60.179348,285.08696 C 56.408578,294.02943 50.691167,307.84856 57.866848,307.30571 C 63.609768,306.87125 64.622105,300.2988 70.835598,299.68071 C 77.699228,298.99796 84.765942,298.27402 99.179348,297.43071 C 115.84022,290.71879 117.88892,281.9105 124.5231,279.86821 C 132.64363,284.52264 131.7242,295.29217 131.4606,303.43071 C 130.97276,309.84316 132.89413,317.05004 132.5856,322.33696 C 134.82744,327.26678 133.40822,332.03598 135.5231,337.99321 C 137.3408,340.47843 136.54094,344.18307 137.6481,346.99321 C 138.99892,355.61147 141.45348,364.27542 141.8981,372.64946 C 144.01136,381.05519 136.20048,386.83839 134.11685,394.02446 C 129.18178,399.02434 128.1186,414.70323 136.92935,416.08696 L 154.09528,416.08696 L 154.05435,293.36821 L 164.44528,293.36821 L 164.44528,416.08696 L 169.8356,416.08696 C 180.83507,414.22998 182.05394,408.24059 184.2106,399.58696 C 183.0696,391.72295 182.97141,383.9394 184.7731,376.77446 C 184.8471,361.31591 183.36903,345.91225 181.2106,330.68071 C 177.59338,319.55102 184.55422,310.66524 196.11685,314.30571 C 204.61939,315.97664 213.14773,314.73384 221.9606,316.30571 C 229.05822,320.13963 236.74172,322.92756 244.9606,323.99321 C 253.97281,325.54014 265.07492,329.35983 264.67935,340.49321 C 268.7503,347.07747 271.33979,354.6078 271.0856,362.43071 C 272.34468,369.83866 274.81386,377.36253 271.74185,384.93071 C 268.52779,392.4712 262.83307,399.85018 261.2731,407.33696 C 260.53867,416.44361 268.30601,415.25058 274.68519,416.08696 C 279.6809,416.23161 283.64087,416.08696 283.64087,416.08696 L 283.64087,294.30571 L 293.99087,294.30571"
         id="path4032"
         sodipodi:nodetypes="cccccccccccccccccsscccccccccccccccccccccccccccc" />
    </g>
    <g
       transform="matrix(1,0,0,-1,-35.562212,723.6977)"
       id="g4034">
      <path
         sodipodi:nodetypes="cccccccccccccccccsscccccccccccccccccccccccccccc"
         id="path4036"
         d="M 294.05435,294.30571 L 293.99087,416.08696 C 299.47871,416.08895 303.21554,415.69551 307.67935,412.74321 C 315.36749,406.80461 305.39711,393.36619 312.5231,386.30571 C 314.81845,369.98843 310.41091,353.65559 306.8981,337.93071 C 304.85106,329.57292 308.82925,321.51404 310.5231,312.89946 C 312.92467,301.94768 313.5489,286.1253 312.7106,274.89946 C 305.51608,250.32738 309.06338,261.17992 298.5856,244.71196 C 292.13238,234.18065 283.70142,227.81864 274.6481,220.27446 C 264.87803,215.14367 254.73731,207.27921 244.8356,202.14946 C 234.7706,199.62299 221.75235,193.79578 215.2731,192.49321 C 211.22061,191.60193 187.06217,191.90787 182.30435,191.46196 C 176.37518,191.8838 136.39634,192.60222 131.3981,193.21196 C 102.70116,194.48426 113.59082,189.86122 85.835598,200.52446 C 84.896658,201.32473 69.74236,215.29165 67.523098,218.64946 C 65.490818,222.09327 58.133059,240.74432 58.835598,255.08696 C 68.285998,267.68512 66.084938,275.62491 60.179348,285.08696 C 56.408578,294.02943 50.691167,307.84856 57.866848,307.30571 C 63.609768,306.87125 64.622105,300.2988 70.835598,299.68071 C 77.699228,298.99796 84.765942,298.27402 99.179348,297.43071 C 115.84022,290.71879 117.88892,281.9105 124.5231,279.86821 C 132.64363,284.52264 131.7242,295.29217 131.4606,303.43071 C 130.97276,309.84316 132.89413,317.05004 132.5856,322.33696 C 134.82744,327.26678 133.40822,332.03598 135.5231,337.99321 C 137.3408,340.47843 136.54094,344.18307 137.6481,346.99321 C 138.99892,355.61147 141.45348,364.27542 141.8981,372.64946 C 144.01136,381.05519 136.20048,386.83839 134.11685,394.02446 C 129.18178,399.02434 128.1186,414.70323 136.92935,416.08696 L 154.09528,416.08696 L 154.05435,293.36821 L 164.44528,293.36821 L 164.44528,416.08696 L 169.8356,416.08696 C 180.83507,414.22998 182.05394,408.24059 184.2106,399.58696 C 183.0696,391.72295 182.97141,383.9394 184.7731,376.77446 C 184.8471,361.31591 183.36903,345.91225 181.2106,330.68071 C 177.59338,319.55102 184.55422,310.66524 196.11685,314.30571 C 204.61939,315.97664 213.14773,314.73384 221.9606,316.30571 C 229.05822,320.13963 236.74172,322.92756 244.9606,323.99321 C 253.97281,325.54014 265.07492,329.35983 264.67935,340.49321 C 268.7503,347.07747 271.33979,354.6078 271.0856,362.43071 C 272.34468,369.83866 274.81386,377.36253 271.74185,384.93071 C 268.52779,392.4712 262.83307,399.85018 261.2731,407.33696 C 260.53867,416.44361 268.30601,415.25058 274.68519,416.08696 C 279.6809,416.23161 283.64087,416.08696 283.64087,416.08696 L 283.64087,294.30571 L 293.99087,294.30571"
         style="fill:none;stroke:#000000;stroke-width:0.67358327;stroke-opacity:1" />
    </g>
    <path
       sodipodi:nodetypes="cccccccccccccccccccccccccccccccccccc"
       id="path4062"
       d="M 244.47492,550.75092 L 244.47492,603.50092 L 234.12996,603.50092 L 234.12996,551.06342 C 223.52636,551.73922 210.77448,553.34182 207.25498,555.12592 C 204.82288,556.23792 203.36958,557.18242 201.27498,558.15712 L 201.27498,678.34465 L 190.81748,678.34465 L 190.81748,564.56342 C 189.38578,565.98252 187.96828,567.66702 186.56748,569.75092 C 177.21589,580.62982 171.17849,593.09642 172.37999,611.12592 C 177.17079,643.80148 174.77899,656.20723 176.22369,689.46965 C 176.33749,696.98743 181.66309,737.7477 176.44249,744.21966 C 173.30459,749.41369 172.09909,767.07293 176.72369,773.78216 C 183.96738,775.13311 189.54588,774.43434 196.81748,773.96966 C 202.79248,771.78291 208.35888,777.07175 213.75498,773.00091 C 218.80696,766.18493 218.93206,746.47829 215.00496,739.03216 C 215.23686,725.28162 214.44466,706.67782 213.25498,692.87591 C 213.61008,682.37632 211.60858,674.99981 220.47366,653.6259 C 225.31356,643.30545 231.92146,643.95011 239.87992,643.5009 C 247.08724,643.66509 255.38376,641.86799 260.22367,652.1884 C 265.47323,669.27462 266.28342,685.34366 266.69242,695.90716 C 265.50274,709.70909 264.74169,728.34411 264.97367,742.09466 C 261.04657,749.54073 259.39043,766.52864 264.44242,773.34466 C 269.83844,777.41549 276.27989,772.15795 282.25492,774.34466 C 289.5265,774.80931 296.85494,775.53935 304.09867,774.18841 C 308.72329,767.47918 306.64277,752.4762 303.50492,747.28216 C 298.2843,740.81021 303.6411,700.01867 303.75492,692.50091 C 305.19959,659.23844 302.77657,646.83276 307.56742,614.15712 C 308.76892,596.12762 299.67063,578.28972 295.16117,571.90712 C 294.12938,569.47162 291.31058,566.92492 289.06742,564.56342 L 289.06742,677.84465 L 279.47367,677.84465 L 279.47367,557.65712 C 276.34242,556.61002 276.35235,556.39502 272.16117,555.12592 C 267.70206,552.86552 256.09848,551.12302 244.47492,550.75092 z"
       style="fill:none;fill-rule:evenodd;stroke:#000000;stroke-width:0.56987917px;stroke-linecap:butt;stroke-linejoin:miter;stroke-opacity:1" />
    <path
       sodipodi:nodetypes="cccccccccccccccccccccccccccccccccc"
       id="path4064"
       d="M 100.48906,551.07249 L 100.48906,602.19749 L 89.936562,602.19749 L 89.936562,551.75999 C 82.218162,552.89713 75.219862,555.1348 71.874062,556.47874 C 66.375362,558.47111 60.937062,560.94401 55.936562,564.38499 L 55.936562,646.72874 L 45.686562,646.72874 L 45.686562,574.85374 C 41.619962,582.2382 37.462262,591.62822 35.999062,597.91624 C 35.900862,607.1917 30.553762,634.63881 31.999062,661.00999 C 32.112962,666.97023 37.440862,699.3164 32.217862,704.44749 C 29.078562,708.56543 27.872362,722.56579 32.499062,727.88499 C 39.746162,728.95605 45.349162,728.37837 52.624062,728.00999 C 58.601862,726.27629 64.163062,730.48741 69.561562,727.25999 C 74.615962,721.85614 74.709262,706.22594 70.780362,700.32249 C 71.012462,689.42078 70.251862,674.67118 69.061562,663.72874 C 69.416962,655.40446 67.411162,649.54943 76.280362,632.60374 C 81.122462,624.42147 87.755762,624.92859 95.717862,624.57249 C 102.92846,624.70267 111.21946,623.29647 116.06156,631.47874 C 121.31356,645.02506 122.08996,657.76006 122.49906,666.13499 C 121.30886,677.07745 120.54826,691.82706 120.78036,702.72874 C 116.85146,708.63215 115.22606,722.13735 120.28036,727.54124 C 125.67887,730.76868 132.11507,726.58883 138.09287,728.32249 C 145.36777,728.69088 152.68957,729.23731 159.93657,728.16624 C 164.56337,722.84702 162.48217,710.97169 159.34287,706.85374 C 154.11987,701.72264 159.47897,669.40775 159.59287,663.44749 C 161.03817,637.07631 153.99907,605.88502 153.99907,596.88499 C 151.69647,588.89851 148.36437,581.26432 145.31157,574.44749 L 145.31157,646.69749 L 135.84287,646.69749 L 135.84287,561.10374 C 132.85687,558.71568 129.25877,556.91556 125.06157,556.47874 C 120.60206,554.68737 111.96806,551.46554 100.48906,551.07249 z"
       style="fill:none;fill-rule:evenodd;stroke:#000000;stroke-width:0.50753999px;stroke-linecap:butt;stroke-linejoin:miter;stroke-opacity:1" />
  </g>
</svg>
