<?xml version="1.0" encoding="UTF-8" standalone="no"?>
<!-- Created with Inkscape (http://www.inkscape.org/) -->

<svg
   xmlns:dc="http://purl.org/dc/elements/1.1/"
   xmlns:cc="http://creativecommons.org/ns#"
   xmlns:rdf="http://www.w3.org/1999/02/22-rdf-syntax-ns#"
   xmlns:svg="http://www.w3.org/2000/svg"
   xmlns="http://www.w3.org/2000/svg"
   xmlns:sodipodi="http://sodipodi.sourceforge.net/DTD/sodipodi-0.dtd"
   xmlns:inkscape="http://www.inkscape.org/namespaces/inkscape"
   id="svg15083"
   version="1.1"
   inkscape:version="0.91 r13725"
   xml:space="preserve"
   width="2157.874"
   height="1077.1654"
   viewBox="0 0 2157.874 1077.1654"
   sodipodi:docname="Reindeer.svg"><metadata
     id="metadata15089"><rdf:RDF><cc:Work
         rdf:about=""><dc:format>image/svg+xml</dc:format><dc:type
           rdf:resource="http://purl.org/dc/dcmitype/StillImage" /><dc:title></dc:title></cc:Work></rdf:RDF></metadata><defs
     id="defs15087" /><sodipodi:namedview
     pagecolor="#ffffff"
     bordercolor="#666666"
     borderopacity="1"
     objecttolerance="10"
     gridtolerance="10"
     guidetolerance="10"
     inkscape:pageopacity="0"
     inkscape:pageshadow="2"
     inkscape:window-width="1680"
     inkscape:window-height="1006"
     id="namedview15085"
     showgrid="false"
     inkscape:zoom="0.70091409"
     inkscape:cx="556.11877"
     inkscape:cy="942.40486"
     inkscape:window-x="24"
     inkscape:window-y="0"
     inkscape:window-maximized="0"
     inkscape:current-layer="g15091" /><g
     id="g15091"
     inkscape:groupmode="layer"
     inkscape:label="Reindeer"
     transform="matrix(1.25,0,0,-1.25,0,1077.1654)"><g
       id="g15093"><path
         d="m 302.3901,817.4429 13.2539,0 0,-7.5968 -13.3472,0"
         style="fill:none;stroke:#0000ff;stroke-width:0.21600001;stroke-linecap:butt;stroke-linejoin:miter;stroke-miterlimit:22.92558479;stroke-dasharray:none;stroke-opacity:1"
         id="path15095"
         inkscape:connector-curvature="0" /><path
         d="m 302.3529,809.8381 c 0.002,-3.5087 1.0429,-7.2119 2.1065,-9.769 1.4221,-3.4191 4.5187,-6.745 7.0078,-8.6046 9.4515,-7.0605 34.8134,-8.1501 46.5196,-5.9833 2.3304,0.4311 3.9853,1.3172 6.6215,1.2775 2.3729,-0.0354 14.1378,0.1667 15.4241,-0.2358 0.6064,-0.1899 4.5848,-5.1928 11.2184,-4.3265 l 0.008,16.9812 c -3.2309,0.1939 -6.0689,-0.6542 -8.1972,-2.0503 -4.0085,-2.6288 -0.635,-2.4381 -7.8914,-2.4423 -7.1061,-0.004 -12.9186,-0.9077 -18.3877,2.5024 -11.7774,7.3432 -18.4028,5.2648 -22.3206,8.8733 -4.1102,3.7857 -3.8401,11.6997 -0.3518,15.2918 3.6187,3.7264 10.8077,1.8683 22.3109,8.8849 2.4268,1.4802 4.1211,2.5174 7.7021,2.6634 l 15.6191,-0.002 c 1.6087,-0.2285 4.4723,-5.0573 11.4988,-4.3711 l 0.0164,16.9696 c -2.3476,0.2716 -4.7483,-0.2576 -6.5265,-1.0766 -3.0801,-1.4181 -3.8137,-2.808 -4.5127,-3.149 -1.1849,-0.578 -13.0136,-0.2934 -15.3683,-0.354 -3.0107,-0.0777 -4.0218,0.6814 -6.5858,1.2126 -5.252,1.0883 -16.7578,1.1433 -22.0649,0.7081 -12.6181,-1.0346 -26.217,-3.1396 -31.6301,-14.9972 -1.0065,-2.2051 -2.2303,-6.7618 -2.2254,-10.3777"
         style="fill:none;stroke:#0000ff;stroke-width:0.21600001;stroke-linecap:butt;stroke-linejoin:miter;stroke-miterlimit:22.92558479;stroke-dasharray:none;stroke-opacity:1"
         id="path15097"
         inkscape:connector-curvature="0" /></g><g
       id="g15099"><path
         d="m 215.1077,817.4429 13.2539,0 0,-7.5968 -13.3472,0"
         style="fill:none;stroke:#0000ff;stroke-width:0.21600001;stroke-linecap:butt;stroke-linejoin:miter;stroke-miterlimit:22.92558479;stroke-dasharray:none;stroke-opacity:1"
         id="path15101"
         inkscape:connector-curvature="0" /><path
         d="m 215.0705,809.8381 c 0.002,-3.5087 1.0429,-7.2119 2.1064,-9.769 1.4222,-3.4191 4.5188,-6.745 7.0079,-8.6046 9.4515,-7.0605 34.8134,-8.1501 46.5196,-5.9833 2.3304,0.4311 3.9852,1.3172 6.6215,1.2775 2.3728,-0.0354 14.1378,0.1667 15.4241,-0.2358 0.6063,-0.1899 4.5848,-5.1928 11.2184,-4.3265 l 0.009,16.9812 c -3.2309,0.1939 -6.069,-0.6542 -8.1972,-2.0503 -4.0085,-2.6288 -0.635,-2.4381 -7.8914,-2.4423 -7.1062,-0.004 -12.9186,-0.9077 -18.3878,2.5024 -11.7774,7.3432 -18.4028,5.2648 -22.3205,8.8733 -4.1103,3.7857 -3.8401,11.6997 -0.3518,15.2918 3.6187,3.7264 10.8076,1.8683 22.3109,8.8849 2.4268,1.4802 4.121,2.5174 7.702,2.6634 l 15.6192,-0.002 c 1.6087,-0.2285 4.4722,-5.0573 11.4988,-4.3711 l 0.0164,16.9696 c -2.3477,0.2716 -4.7483,-0.2576 -6.5265,-1.0766 -3.0801,-1.4181 -3.8137,-2.808 -4.5127,-3.149 -1.1849,-0.578 -13.0136,-0.2934 -15.3684,-0.354 -3.0106,-0.0777 -4.0218,0.6814 -6.5857,1.2126 -5.252,1.0883 -16.7579,1.1433 -22.0649,0.7081 -12.6181,-1.0346 -26.217,-3.1396 -31.6301,-14.9972 -1.0066,-2.2051 -2.2303,-6.7618 -2.2255,-10.3777"
         style="fill:none;stroke:#0000ff;stroke-width:0.21600001;stroke-linecap:butt;stroke-linejoin:miter;stroke-miterlimit:22.92558479;stroke-dasharray:none;stroke-opacity:1"
         id="path15103"
         inkscape:connector-curvature="0" /></g><g
       id="g15105"><path
         d="m 75.9923,849.8996 12.346,3.1813 c 2.1365,0.2146 1.8978,0.5542 3.6219,0.893 1.4269,0.2803 2.317,0.7469 3.5934,0.9527 1.6728,0.2698 0.5899,0.1417 1.7757,0.6902 0.4952,0.2291 1.1843,0.3495 1.7991,0.3946 3.119,0.2271 4.7256,-0.1517 4.9856,-4.1128 0.1086,-5.3926 -0.6988,-3.9155 -3.0308,-6.0242 -0.6307,-0.5703 -0.94,-1.0236 -1.6005,-1.5185 l -5.0666,-4.2976 c -0.9428,-0.9403 -0.057,-0.7702 -1.2841,-1.6121 -1.4743,-1.0111 -0.4929,-0.5785 -2.598,-2.1869 -0.2525,-0.193 -0.481,-0.4317 -0.7418,-0.6826 l -0.7979,-0.9326 c -0.0128,-0.0207 -0.4519,-0.8583 -0.4748,-0.9088 -1.3054,-2.8604 -1.1081,-2.3006 -2.829,-5.1083 -1.5925,-2.5982 -0.5462,-1.5012 -0.9771,-3.5657 -0.2041,-0.9762 -0.4331,-0.8969 -0.4561,-2.4335 -0.0612,-4.1046 0.1908,-8.396 0.038,-12.4917 -0.074,-1.9877 1.0811,-5.8989 1.7274,-7.5637 l 0.8606,-2.0361 c 0.896,-2.4438 1.1208,-1.9273 2.0633,-4.1517 0.7526,-1.7762 1.304,-2.3697 1.6294,-4.6394 0.6347,-4.4297 0.9213,-2.6306 1.5043,-4.7262 0.2146,-0.7711 0.1939,-4.8663 0.1812,-5.9216 -0.0706,-5.8958 0.0955,-5.7983 -1.5245,-11.0361 -0.9065,-2.9305 -0.8991,-2.9373 -2.5869,-5.3113 l -1.8624,-2.4948 c -0.676,-0.7676 -0.5683,-1.0845 -1.201,-1.9069 -0.5862,-0.7619 -0.9417,-0.7577 -1.6033,-1.5185 -1.1024,-1.2679 -3.177,-3.5436 -4.7545,-4.5952 -0.7929,-0.5284 -1.311,-0.7231 -1.9264,-1.1909 -1.2028,-0.9144 -1.3791,-0.7324 -3.0243,-1.7895 m -7.8194,-1.3561 c -1.9525,-0.2965 -3.3488,-0.7117 -3.776,-0.7613 -3.113,-0.362 -8.8501,-0.0117 -12.246,-0.0128 -2.0472,-6e-4 -4.2338,0.0802 -6.2558,0.0323 -1.5463,-0.0366 -0.9428,-0.4547 -2.6076,-0.5145 l -15.6154,0.0491 c -0.1789,0.3517 -0.472,0.4532 -0.8898,0.4677 -0.3904,0.0133 -0.8901,-0.0488 -1.5081,-0.0544 m -5.1018,0.7336 c -0.7463,0.3013 -0.5746,0.4586 -1.2407,0.625 -0.1973,0.049 -0.4677,0.0992 -0.8572,0.1539 -3.4447,0.4839 -4.2568,1.8493 -5.8527,3.047 -1.7115,1.2844 -2.846,3.1235 -3.8928,4.9632 -0.5204,0.9144 0.4649,-0.7044 -0.1826,0.2979 l -1.798,4.9221 c -0.1703,0.9048 -0.0306,0.4382 -0.3308,1.1089 -0.5113,1.1423 -0.1743,1.2203 -0.4518,2.4055 -0.6588,2.815 -0.5372,8.4036 -0.4388,11.3411 l 0.7877,6.0979 c 0.8459,2.3357 0.1695,1.7198 0.271,4.18 0.0298,0.7234 0.2841,1.722 0.2832,2.4548 -8e-4,1.1304 -0.2718,1.1239 -0.0025,2.4817 0.4648,2.3431 2.751,5.8221 4.6159,7.1101 0.75,0.5179 1.0131,0.8629 1.7022,1.2042 0.775,0.3835 1.2308,0.6415 1.8859,0.9955 0.2466,0.1335 1.5681,0.7705 1.9834,0.8246 l 2.48,-0.3937 c 1.3229,-4.7044 -2.4259,-1.9109 -0.3753,-8.4127 1.1608,-0.1114 4.4028,0.5375 5.3535,0.8986 1.224,0.4652 3.7443,0.8059 5.237,0.76 2.0699,-0.0638 3.8265,0.244 5.7535,0.2746 1.9284,0.0304 3.7976,-0.2361 5.7702,-0.2942 2.1918,-0.0646 3.6077,0.0125 5.7481,0.0629 2.3672,0.0556 3.1975,-0.5873 5.5364,-0.4515 l 5.0408,0.9054 c 0.3285,0.0275 0.6004,-0.009 0.9193,0.0552 l 3.3157,1.7178 2.7215,3.5224 c 0.2103,0.413 0.9536,4.3237 0.9814,5.0275 0.0759,1.9242 0.0436,4.0861 0.0238,6.0239 -0.0182,1.7785 -0.7472,3.0988 -1.3102,4.7293 -1.0046,2.9087 -2.4982,4.3946 -3.6275,7.1697 -0.1616,0.3968 -0.3226,0.627 -0.4484,0.9813 -1.1175,3.1488 -1.4001,7.344 -0.2285,10.3896 -1.2175,1.0902 -1.0843,0.8308 -2.5676,1.461 -2.3726,1.008 -2.1453,0.4697 -3.149,0.9541 -0.3901,0.1882 -0.847,0.58 -1.37,0.752 -0.7183,0.2362 -0.773,0.005 -1.4624,0.4967 -0.9618,0.686 -0.8926,2.0041 -0.7472,3.2964 2.7323,2.2031 3.3332,1.7079 7.431,1.675 2.6855,-0.0216 5.7682,-0.5049 7.6456,0.9966 1.8125,1.4497 3.4223,1.7708 5.0397,1.8752"
         style="fill:none;stroke:#0000ff;stroke-width:0.21600001;stroke-linecap:butt;stroke-linejoin:miter;stroke-miterlimit:22.92558479;stroke-dasharray:none;stroke-opacity:1"
         id="path15107"
         inkscape:connector-curvature="0" /><path
         d="m 68.1676,848.533 1.7251,-8.6164 7.7825,1.5585 -1.7251,8.6161"
         style="fill:none;stroke:#0000ff;stroke-width:0.21600001;stroke-linecap:butt;stroke-linejoin:miter;stroke-miterlimit:22.92558479;stroke-dasharray:none;stroke-opacity:1"
         id="path15109"
         inkscape:connector-curvature="0" /><path
         d="m 65.937,749.9585 -2.1708,14.006 7.8432,1.2158 2.171,-14.006"
         style="fill:none;stroke:#0000ff;stroke-width:0.21600001;stroke-linecap:butt;stroke-linejoin:miter;stroke-miterlimit:22.92558479;stroke-dasharray:none;stroke-opacity:1"
         id="path15111"
         inkscape:connector-curvature="0" /><path
         d="m 16.719,750.2204 1.675,14.0741 7.8815,-0.938 -1.675,-14.074"
         style="fill:none;stroke:#0000ff;stroke-width:0.21600001;stroke-linecap:butt;stroke-linejoin:miter;stroke-miterlimit:22.92558479;stroke-dasharray:none;stroke-opacity:1"
         id="path15113"
         inkscape:connector-curvature="0" /></g><g
       id="g15115"><path
         d="m 138.6247,770.0882 c -0.6441,0.072 -1.181,0.7639 -2.4619,1.3263 -1.2076,0.5301 -0.7991,0.5392 -2.6105,1.226 -2.912,1.1041 -7.3363,1.957 -11.2799,2.0392 -1.6075,0.0338 -3.5889,0.021 -5.1576,-0.0717 -0.3844,-0.0229 -1.9225,-0.1496 -2.154,-0.2491 -0.6072,-0.2608 -0.6021,-2.8262 -0.5571,-3.2772 0.1781,-1.7764 1.5668,-3.2992 2.9648,-4.7182 0.4575,-0.4644 3.5201,-2.6669 4.3957,-2.9696 l 8.8546,-2.3698 c 0.7707,-0.1462 1.6537,-0.2387 2.3641,-0.4297 0.432,-0.1162 0.1717,-0.0451 0.3886,-0.1366 0.7872,0.0944 -0.002,0.0173 1.6007,-0.125 l 3.5014,-0.3714 c 0.2769,-0.0397 1.8252,-0.0978 3.6144,-0.144 m 17.6885,0.0527 c 1.4471,0.0746 2.952,0.1761 3.6567,0.2708 0.2755,0.0371 0.3305,0.0342 0.6106,0.0575 1.5894,0.131 6.6591,1.0681 8.0903,1.4519 1.6884,0.4527 1.4534,0.2968 3.509,0.9522 0.7028,0.2239 0.9933,0.3707 1.6169,0.566 2.9384,0.9204 4.432,2.5444 5.0324,2.8055 0.1165,0.2018 0.4062,0.4399 0.6281,0.6347 0.6183,0.5428 0.9564,1.1256 1.4074,1.7274 l 0.7342,1.3011 c 0.648,1.0148 0.7597,3.5892 0.1313,4.4631 -0.1747,0.243 -0.4119,0.2892 -1.0336,0.3405 -2.4443,0.201 -5.8132,0.3804 -8.2247,0.1482 l -2.7054,-0.3271 c -4.2641,-0.5882 -5.6959,-1.1474 -8.6672,-2.4029 -1.2566,-0.5309 -2.5251,-1.5188 -3.5249,-1.7141"
         style="fill:none;stroke:#0000ff;stroke-width:0.21600001;stroke-linecap:butt;stroke-linejoin:miter;stroke-miterlimit:22.92558479;stroke-dasharray:none;stroke-opacity:1"
         id="path15117"
         inkscape:connector-curvature="0" /><path
         d="m 154.1458,759.136 c 0.917,0.0204 1.6818,0.1233 3.4772,0.4413 0.7926,0.1406 1.4868,0.0119 2.0948,0.2707 m 1.3419,10.3468 0.2231,0.5105 c 0.3941,1.6359 -0.3064,-0.7183 0.0924,0.4773 0.2682,0.804 0.0134,0.0919 0.3209,0.6327 l 3.8036,5.6798 c 0.0164,0.0224 0.0598,0.0797 0.0773,0.1012 l 0.3564,0.3665 c 0.5354,0.7081 0.9935,1.8102 1.8856,2.3029 1.0099,0.5579 0.3515,0.8427 2.9865,2.3539 l 3.4782,2.2669 c 0.6919,0.2024 0.699,0.0549 1.2877,0.5624 l 2.0741,1.127 c 1.122,0.6803 0.0848,0.0329 0.9675,0.3365 l 1.7612,0.7599 c 1.2512,0.7971 1.6486,0.7682 2.4792,1.395 0.6916,0.5218 1.2719,1.0519 1.9819,1.5993 l 5.4187,4.6596 c 0.2197,0.2103 0.3235,0.2718 0.5106,0.4623 0.0357,0.0363 0.0853,0.0882 0.1196,0.1253 l 3.4064,3.0674 c 0.038,0.032 0.0941,0.0759 0.1321,0.1077 l 3.9064,3.0325 c 0.3708,0.3501 0.5831,0.3835 0.682,0.9524 l -0.0382,1.5205 c -1.0727,3.1111 -7.3242,-0.4487 -9.0193,-3.6723 -0.3748,-0.7129 -0.485,-1.1386 -1.2714,-1.3098 -0.7489,-0.1633 -0.8801,0.3208 -1.1432,0.7835 -0.0343,0.0603 -0.121,0.2415 -0.1454,0.3024 -0.0162,0.04 -0.0411,0.1074 -0.0539,0.1474 l -0.068,0.2923 c -0.1669,1.0448 0.182,1.5996 -0.9348,1.4507 -0.0397,-0.005 -0.1098,-0.0286 -0.1494,-0.0354 -0.0403,-0.007 -0.1106,-0.0283 -0.1508,-0.036 -1.2033,-0.2248 -1.4222,-0.3149 -1.8661,-1.588 -0.003,-0.009 -0.2375,-0.5822 -0.2713,-0.667 l -0.3628,-1.1321 c -0.4876,-1.1455 -0.2667,-2.0279 -1.184,-3.0952 l -0.6988,-0.7585 c -0.03,-0.032 -0.0779,-0.089 -0.1071,-0.1191 -0.5763,-0.5961 -1.389,-0.9192 -2.0478,-1.2455 l -1.7872,-0.9176 c -0.0272,-0.0125 -0.0904,-0.0422 -0.1168,-0.0547 -0.0266,-0.0128 -0.0893,-0.0456 -0.1157,-0.0587 l -4.4991,-2.0117 -0.523,1.349 1.527,1.6891 c 0.001,0.002 0.3218,0.2858 0.3419,0.3042 0.049,0.0448 0.1993,0.182 0.2497,0.2299 0.2614,0.2497 0.3016,0.3127 0.601,0.6077 l 1.7824,2.1119 c 0.0204,0.0119 0.087,0.0362 0.1091,0.0479 0.1625,0.0856 0.3005,0.0978 0.6236,0.3526 l 4.6591,4.7109 c 0.4368,0.5105 0.5167,0.8989 1.0139,1.406 l 5.6954,2.2524 c 1.1486,0.284 2.7434,0.773 3.7868,1.4655 l 5.7243,4.161 c 0.6211,0.3696 0.7546,0.8311 1.108,1.1531 1.0948,0.9969 0.8717,1.0417 1.6697,2.0001 1.0349,1.243 0.4969,0.1735 0.7452,1.2864 l 2.2033,5.9885 c 0.6069,1.3399 0.9825,0.648 0.9944,2.9041 -0.3591,1.7061 -0.8776,1.9034 -2.8355,1.8569 l -0.7086,-0.9995 c -0.6412,-0.5261 -1.0919,-1.584 -1.5937,-2.3164 -0.0164,-0.0238 -0.0575,-0.0783 -0.0725,-0.1015 l -0.8861,-1.931 c -0.009,-0.0295 -0.0207,-0.1023 -0.0304,-0.1289 l -1.4754,-2.4863 c -0.506,-0.7019 -0.6826,-1.8315 -1.9533,-1.6654 -2.1581,0.2818 -2.3508,6.0132 -5.2317,2.6847 -0.2979,-0.3441 -0.1009,-0.1335 -0.4028,-0.5417 -1.095,-1.4816 -0.5388,-2.0908 0.1525,-2.9738 0.6438,-0.8226 1.198,-2.1192 1.1829,-2.965 l -3.5909,-1.3964 c -0.6735,-0.2628 -0.345,-0.0283 -0.9763,-0.3093 -0.7282,-0.324 -1.5222,-0.708 -2.3924,-0.5964 -1.2753,0.1633 -0.9788,1.3233 -0.3736,2.6592 0.01,0.0218 0.04,0.0814 0.0488,0.1026 0.009,0.0216 0.0334,0.0842 0.0416,0.106 0.1247,0.3385 0.0828,0.324 0.1386,0.489 0.1333,0.3926 -0.0805,-0.0496 0.2254,0.5222 l 6.2144,8.0319 c 0.0346,0.0355 0.123,0.1304 0.1548,0.1642 0.0144,0.0153 0.0606,0.0635 0.0748,0.079 l 2.014,2.5045 c 0.0306,0.0391 0.0729,0.0955 0.1023,0.1357 0.0298,0.0403 0.0698,0.0987 0.0987,0.1401 0.7897,1.1279 1.368,2.389 1.6977,3.6122 0.3435,1.275 0.5998,0.3653 0.5093,2.4905 -0.0748,1.76 0.2702,3.8523 -0.3115,5.4261 -0.7069,1.9131 -2.4863,1.2393 -2.7524,1.0315 -1.0834,-0.845 -0.6032,-2.2646 -0.8116,-3.4305 -0.9751,-5.4615 -2.2326,-1.1991 -3.1297,0.007 -0.7189,0.966 -0.3609,0.453 -0.6245,1.5276 -0.2259,0.9198 -0.3356,0.6174 -0.5536,1.4935 -0.2636,1.0585 -0.6072,2.9404 -0.6846,4.5301 -0.1207,2.4863 -0.4033,1.5511 -1.7881,2.8139 -3.8758,-2.0823 -1.6798,-7.4106 -1.631,-8.0591 l 2.2629,-6.2643 c 0.5071,-0.8935 1.0063,-2.3077 0.7523,-3.2046 -0.7364,-2.6022 -2.1424,-1.847 -3.0932,-3.4106 -0.4084,-0.6716 -1.703,-0.7951 -2.4687,-0.671 l -1.1069,0.8379 c -1.0701,1.4497 -1.4224,0.9539 -2.268,3.5377 -0.8841,2.7017 0.6046,5.9465 -0.2696,8.8361 -2.9256,-0.3988 -0.9657,0.6384 -3.0713,-1.1165 l -1.1951,-1.5033 c -0.015,-0.0255 -0.0558,-0.0858 -0.0709,-0.1116 l -0.3359,-0.7339 c -0.011,-0.0357 -0.032,-0.1055 -0.0416,-0.1429 -0.2174,-0.8371 -0.0564,-0.5814 -0.1265,-1.1188 -0.1876,-1.4406 -0.015,0.5748 -0.3172,-0.7229 -0.0255,-1.2299 -0.1638,-3.8729 0.0494,-4.966 0.6335,-3.2459 1.5432,-3.3358 3.4667,-5.6375 l 2.8299,-5.3408 c 0.2917,-0.786 0.4107,-2.9528 0.1754,-3.8517 l -0.8804,-1.7186 c -0.0275,-0.0414 -0.1134,-0.1506 -0.142,-0.1911 -0.4394,-0.6211 -1.5092,-2.7842 -3.1964,-2.1118 -0.2548,0.8654 0.0374,0.4059 -0.0759,1.0165 -0.3717,2.0013 -2.6215,3.5847 -4.0275,4.9683 -1.044,1.0275 -1.8221,2.8465 -2.031,3.827 l -0.1418,0.5253 c -0.0334,1.1489 -0.0739,1.4037 -0.6378,2.1379 -2.6183,0.1122 -3.283,-0.464 -3.3176,-3.0447 -0.0227,-1.6985 0.0913,-3.4801 0.8305,-4.936 0.4933,-0.9711 0.5077,-1.3858 1.069,-2.2501 0.4223,-0.6509 0.7696,-1.4017 1.3246,-2.0427 0.3373,-0.39 0.5627,-0.5584 0.7756,-0.8855 l 2.1274,-2.4525 c 1.1231,-1.2189 2.5078,-1.8893 1.9766,-3.6315 -0.2458,-0.805 -0.8212,-1.1358 -1.3615,-1.8388 l -2.5725,-2.5076 c -0.6244,-0.61 -0.9961,-0.9768 -1.6959,-1.6667 -2.4035,-2.3704 -1.298,-2.3661 -3.9555,-1.3289 l 1.205,2.0401 c 0.7024,1.334 1.5063,3.2913 1.8224,4.8058 0.5505,2.6391 0.3901,2.6343 -0.6281,3.9008 -4.129,0.1117 -3.5524,-2.736 -5.52,-3.3463 -1.2631,0.733 -1.775,3.9852 -2.7002,5.504 l -0.2886,0.5032 c -0.004,0.008 -0.1358,0.3404 -0.1772,0.4535 -0.2001,0.5465 -0.6877,1.2739 -1.214,1.9602 l -2.2669,-0.0468 c -0.0726,-0.8742 -0.0678,-5.7257 0.184,-6.7598 l 0.2962,-2.7672 c 0.2293,-1.2636 0.4765,0.7606 0.5451,-1.1058 l 0.847,-3.7899 c 0.008,-0.0363 0.0215,-0.1034 0.0286,-0.1397 0.265,-1.3436 0.7886,-2.8908 1.5497,-3.8427 l 1.8944,-3.9926 c 0.0717,-0.7296 -0.0133,-1.6914 -0.5275,-2.0304 l -0.4717,-0.2492 c -0.8379,-0.4099 -1.2371,-1.1174 -2.1549,-1.5556 -3.5816,-1.7099 -6.4469,-0.3136 -7.7567,-1.0528 -1.0914,0.7565 0.163,0.1947 -0.5256,0.5595 l -0.7611,0.1607 c -0.14,0.0448 -0.6528,0.3357 -0.7013,0.3788 l -0.432,0.5836 c -1.3717,2.0228 -2.8335,2.2669 -1.332,4.917 l 1.2895,2.6478 c 0.174,0.3739 0.091,0.1199 0.2177,0.2268 0.1247,0.1049 0.0754,-0.4119 0.5403,0.5791 0.108,0.2302 0.1854,0.5423 0.3033,0.9131 0.2534,0.7962 0.6755,1.5616 0.7563,2.0613 l 0.7293,3.8143 c 1.313,7.3474 0.8669,2.2125 1.0205,10.9006 l -2.0922,0.0239 c -0.3226,-0.4734 0.1805,0.0345 -0.2373,-0.4425 -0.4201,-0.4797 -0.3141,-0.2611 -0.4102,-0.334 -0.97,-0.7378 -1.7679,-3.3976 -2.3218,-4.5697 -0.9842,-2.082 -0.3841,-2.6339 -1.8307,-3.2204 -0.6545,0.422 -0.9754,1.0876 -1.4711,1.6529 -1.3366,1.5244 -1.7076,1.7265 -4.2191,1.6364 -0.1403,-1.0063 -0.4181,-2.2141 -0.1466,-3.361 l 1.0188,-3.8926 c 0.1587,-0.3903 0.4788,-0.7619 0.716,-1.0919 1.5857,-2.2034 0.7025,-4.3106 -1.5959,-2.3627 -0.3421,0.29 -0.0221,-0.0362 -0.3501,0.4921 l -5.4918,5.7016 c -0.032,0.0375 -0.0791,0.0905 -0.1111,0.1279 -1.0845,1.2673 -1.3986,1.5845 -0.3847,3.0455 l 5.436,6.5676 2.1229,4.8492 c 0.1003,0.5296 0.2197,2.7162 0.1088,3.6735 -0.0992,0.8563 0.019,0.2761 -0.2219,0.82 -0.2137,0.4822 0.0572,-0.0303 -0.2506,0.423 -0.2392,0.3523 -0.4921,0.682 -0.7532,0.9776 l -2.258,0.1114 c -0.1931,-0.7027 -0.3198,-0.9646 -0.4561,-1.6548 l -0.9618,-3.2783 c -0.3229,-0.8788 0.0388,-0.4516 -0.6421,-1.0381 l -1.3113,-1.4451 c -0.9502,-0.8818 -2.7567,-2.2365 -2.8224,-3.5742 -0.0165,-0.3339 -0.027,-0.4393 -0.078,-0.5524 l -0.1885,-0.2937 c -0.0334,-0.0459 -0.1406,-0.203 -0.1851,-0.2506 -0.5017,-0.5366 0.3433,-0.1497 -0.7075,-0.4731 -0.792,-0.2438 -1.4596,0.4453 -1.9599,0.9785 -0.2574,0.2739 -0.3047,0.3691 -0.5114,0.6965 -0.0581,0.0918 -0.4306,0.7305 -0.4515,0.7722 -0.2098,0.4155 -0.1948,0.494 -0.2807,0.7183 l -0.2196,0.4787 c -0.0162,0.0357 -0.055,0.0961 -0.0715,0.135 -0.8399,1.9771 0.1182,4.5717 0.7813,6.1554 0.0924,0.2205 -0.055,0.0652 0.3461,0.5842 l 3.1563,4.1108 c 0.019,0.0187 0.074,0.0621 0.0927,0.0794 l 0.6917,1.0066 c 0.1596,0.3123 0.3073,0.5139 0.4402,0.7466 1.0905,1.9094 1.4032,6.6328 0.4856,8.873 -0.2971,0.7251 -0.7064,1.9012 -1.3295,2.5251 -0.0864,0.0865 -0.2851,0.2631 -0.3758,0.3413 l -1.0486,0.6378 c -0.6298,0.1712 -1.3651,0.0944 -2.0333,0.0819 -0.341,-1.0003 -0.6315,-0.4067 -0.5108,-1.8674 0.0785,-0.9491 0.3864,-0.9173 0.3892,-1.8873 0.004,-1.2085 0.269,-2.5631 0.1284,-3.5771 -0.2545,-1.8394 -1.2064,-4.1193 -2.9557,-5.0644 -0.0257,-0.0141 -0.0884,-0.0422 -0.1156,-0.0558 l -0.2565,-0.123 c -0.0397,-0.0182 -0.1041,-0.0522 -0.1466,-0.0703 -1.5284,-0.6429 -2.194,0.3359 -3.3304,1.0941 -2.6413,1.7629 -2.7454,2.676 -2.0668,4.7756 0.4199,1.2994 1.1126,2.2053 1.7524,3.5473 l 0.3733,1.5573 c 0.1868,0.5488 0.2075,0.3495 0.3303,0.832 l 0.3379,2.5452 c 0.3092,2.9449 1.1474,2.6263 -0.1344,5.6897 l -0.1344,0.2676 c -0.006,0.01 -0.4895,0.5159 -0.5011,0.5233 -3.1357,1.9681 -2.9767,-6.9656 -3.9929,-8.7058 -0.2041,-0.3495 -0.398,-0.451 -0.4408,-0.5182 -0.5167,-0.8146 -0.6026,-2.2804 -1.4981,-2.9863 -0.0349,-0.0275 -0.8722,-1.1293 -1.5239,0.5925 -0.4643,1.2265 -0.3634,2.7496 -0.4158,4.1785 -0.7784,0.4796 -0.6781,1.4026 -2.1773,1.0503 -1.9588,-0.4604 -1.3014,-3.6868 -1.2323,-4.9964 0.0482,-0.9108 -0.1893,-1.4553 -0.1406,-2.7819 0.0431,-1.1687 0.5505,-3.0464 1.1033,-3.5286 1.218,-1.0624 0.9368,-1.4649 1.7461,-2.0418 0.2858,-0.2038 0.5429,-1.2809 1.387,-1.9287 0.3949,-0.3033 0.0201,-0.0626 0.3555,-0.2143 1.523,-0.6888 1.542,-1.3838 2.5699,-2.6733 l 2.6937,-4.1428 c 0.0159,-0.0247 0.0559,-0.0825 0.0726,-0.1078 l 0.4099,-0.6196 c 0.4127,-0.7776 1.4451,-2.7165 1.3484,-3.6034 -0.1598,-1.463 -1.4975,-0.8756 -2.4219,-0.574 -1.6591,0.5414 -3.9753,1.0732 -5.4606,2.1138 0.1533,2.6858 2.8865,2.9562 1.2206,6.4655 l -0.1659,0.3688 c -0.5845,1.1415 -1.9017,0.8895 -2.5234,-0.0105 l -0.5179,-0.6741 c -0.9093,-0.93 -0.7225,-1.205 -1.5505,-2.2969 -0.6965,-0.919 -0.4303,-0.4986 -1.7515,-0.6831 -0.7439,2.3916 -2.0503,3.1634 -2.0356,3.7848 0.008,0.3614 -0.0318,0.1496 0.1661,0.3804 l -1.4723,2.1603 c -0.0805,0.1377 -0.324,0.695 -0.4629,1.0788 -0.0369,0.1015 -0.1661,0.4918 -0.1908,0.5406 l -1.2761,1.5165 c -0.0182,0.0216 -0.057,0.0791 -0.0754,0.099 l -0.169,0.1661 c -0.0414,0.0297 -0.4487,0.193 -0.5074,0.2072 -0.9745,0.2327 -1.4292,-0.007 -2.5055,-0.1664 -0.0851,-1.0199 -0.491,-1.9746 -0.0168,-3.0249 0.336,-0.7438 0.7637,-0.888 1.2875,-1.7688 l 1.1662,-3.1705 c 0.205,-0.862 -0.0462,-0.8306 0.2262,-1.4709 l 1.4168,-2.5529 c 0.7968,-1.3541 2.6773,-3.1765 3.9158,-4.3475 1.2682,-1.1991 4.5776,-2.899 6.0893,-3.3996 0.7149,-0.2367 0.5851,-0.3977 1.3527,-0.4816 l 1.1878,-0.229 c 1.4105,-0.6724 2.7941,-0.9071 4.1487,-1.6118 0.025,-0.0131 0.0873,-0.0417 0.112,-0.0556 0.0252,-0.0139 0.0868,-0.0456 0.112,-0.0609 0.0266,-0.0159 0.0867,-0.053 0.1136,-0.0706 0.029,-0.019 0.0879,-0.0612 0.1174,-0.0822 l 1.3912,-1.2302 c 1.3343,-1.4752 2.3497,-2.9529 3.9694,-4.2052 l 0.4552,-0.3804 c 0.0151,-0.0173 0.0519,-0.0749 0.0641,-0.0919 l 0.6163,-0.7656 c 0.0317,-0.0304 0.0876,-0.0811 0.1204,-0.1134 l 0.5922,-0.6276 c 0.1641,-0.1817 0.2999,-0.3379 0.4584,-0.5071 l 1.1843,-1.2033 c 0.4926,-0.4618 0.8365,-0.6509 1.2651,-1.156 l 0.6375,-0.8756 c 0.9564,-1.0528 0.6707,-1.3847 0.6707,-1.3822 2e-4,0.0198 -0.1182,-0.9768 -0.9667,-0.714 l -1.0474,0.4237 c -0.8367,0.2209 -1.7991,0.9573 -2.6382,1.3901 l -0.6029,0.3643 c -0.0349,0.0249 -0.0896,0.0751 -0.1222,0.0992 -0.6446,0.4751 -0.8589,0.3181 -1.7328,0.9026 -1.3892,0.9294 -3.2406,1.8646 -3.5983,3.6833 l -0.2273,1.1733 c -0.3439,1.2897 0.0541,1.9289 -1.0916,2.9477 -0.6449,0.5735 -0.4108,0.5582 -1.3649,0.5548 -1.8281,-0.006 -1.2612,-0.1049 -1.3142,-2.3205 l -1.4411,-0.4464 -0.9763,1.4224 c -0.5201,1.1083 -0.6131,0.7302 -1.4819,1.5562 l -0.1675,0.1769 c -0.0153,0.0176 -0.0607,0.0694 -0.0749,0.0867 -0.0139,0.0167 -0.0567,0.0706 -0.0691,0.0876 -1.2867,1.7334 0.3208,-0.4615 -1.6917,1.4601 -0.7946,0.7589 0.2117,-0.1048 -0.9868,0.5718 -1.0465,0.591 -0.1927,0.5527 -1.751,0.5834 -1.5794,0.0311 -3.3017,0.261 -3.2972,-1.7201 0.004,-1.7016 0.805,-1.6387 1.7949,-2.3264 l 3.8259,-3.1609 c 0.2704,-0.2914 0.3827,-0.4249 0.7024,-0.7509 l 11.2213,-9.235 c 0.0218,-0.013 0.0813,-0.0485 0.1043,-0.0612 0.0453,-0.0253 0.303,-0.148 0.3566,-0.1755 l 3.4101,-1.8303 c 0.354,-0.2356 0.316,-0.2376 0.4617,-0.3393 2.3363,-1.6291 1.0304,-0.6432 2.7797,-1.4607 0.5045,-0.2359 0.47,-0.3586 0.8952,-0.7728 l 2.3703,-1.5916 c 1.2824,-0.7013 1.0176,-0.4819 1.6316,-1.372 0.2863,-0.4147 -0.0626,-0.0269 0.3215,-0.3965 l 0.6899,-0.5072 c 0.0405,-0.0303 0.097,-0.0728 0.1369,-0.1037 1.0967,-0.8481 1.3847,-1.9542 2.1351,-3.0288 l 1.6642,-1.8037 c 0.3282,-0.3946 0.2812,-0.3895 0.5879,-0.8663 0.8799,-1.3677 1.3972,-2.713 1.961,-4.2298 m 3.3925,-10.2929 0.2016,-0.0476 c 0.8305,-0.2265 1.76,-0.0604 2.6977,-0.1803 0.4175,-0.0533 0.8799,-0.1627 1.3666,-0.2676"
         style="fill:none;stroke:#0000ff;stroke-width:0.21600001;stroke-linecap:butt;stroke-linejoin:miter;stroke-miterlimit:22.92558479;stroke-dasharray:none;stroke-opacity:1"
         id="path15119"
         inkscape:connector-curvature="0" /><path
         d="m 146.2263,759.3721 0,8.8132 7.653,0 0,-9.0241"
         style="fill:none;stroke:#0000ff;stroke-width:0.21600001;stroke-linecap:butt;stroke-linejoin:miter;stroke-miterlimit:22.92558479;stroke-dasharray:none;stroke-opacity:1"
         id="path15121"
         inkscape:connector-curvature="0" /><path
         d="m 153.8793,759.1612 0.3821,-0.0221"
         style="fill:none;stroke:#0000ff;stroke-width:0.21600001;stroke-linecap:butt;stroke-linejoin:miter;stroke-miterlimit:22.92558479;stroke-dasharray:none;stroke-opacity:1"
         id="path15123"
         inkscape:connector-curvature="0" /></g></g></svg>