<?xml version="1.0" encoding="UTF-8" standalone="no"?>
<svg
   xmlns:dc="http://purl.org/dc/elements/1.1/"
   xmlns:cc="http://creativecommons.org/ns#"
   xmlns:rdf="http://www.w3.org/1999/02/22-rdf-syntax-ns#"
   xmlns:svg="http://www.w3.org/2000/svg"
   xmlns="http://www.w3.org/2000/svg"
   xmlns:sodipodi="http://sodipodi.sourceforge.net/DTD/sodipodi-0.dtd"
   xmlns:inkscape="http://www.inkscape.org/namespaces/inkscape"
   width="570"
   height="570"
   id="svg2"
   version="1.1"
   inkscape:version="0.91 r13725"
   sodipodi:docname="sand-dollar-single-vector.svg">
  <metadata
     id="metadata14">
    <rdf:RDF>
      <cc:Work
         rdf:about="">
        <dc:format>image/svg+xml</dc:format>
        <dc:type
           rdf:resource="http://purl.org/dc/dcmitype/StillImage" />
        <dc:title></dc:title>
      </cc:Work>
    </rdf:RDF>
  </metadata>
  <defs
     id="defs12" />
  <sodipodi:namedview
     pagecolor="#ffffff"
     bordercolor="#666666"
     borderopacity="1"
     objecttolerance="10"
     gridtolerance="10"
     guidetolerance="10"
     inkscape:pageopacity="0"
     inkscape:pageshadow="2"
     inkscape:window-width="1336"
     inkscape:window-height="989"
     id="namedview10"
     showgrid="false"
     inkscape:zoom="1.0161354"
     inkscape:cx="341.23349"
     inkscape:cy="286.20763"
     inkscape:window-x="54"
     inkscape:window-y="2"
     inkscape:window-maximized="0"
     inkscape:current-layer="svg2" />
  <path
     style="fill:#ffffff; stroke:none;"
     d="M0 0L0 570L570 570L570 0L0 0z"
     id="path4" />
  <path
     style="fill:none;stroke:#000000;stroke-opacity:1"
     d="M220 24.4252C179.694 29.912 147.693 53.5909 118 79.9498C107.168 89.5657 94.8454 98.7141 86.865 111C74.0114 130.788 69.4609 154.72 59.6914 176C48.5546 200.258 33.2577 222.25 28.4244 249C26.0291 262.257 25.8295 275.639 27.1705 289C28.0576 297.837 30.3548 305.999 29.9606 315C29.3109 329.838 24.6614 344.275 24.0394 359C23.6265 368.773 27.5797 377.572 29.3881 387C32.332 402.348 32.5827 418.009 40.3125 432C50.6665 450.741 70.7867 461.812 85.9606 476.17C99.5337 489.013 108.624 507.244 125 517.07C133.834 522.371 144.572 523.106 154 527.012C161.99 530.322 169.648 534.189 178 536.573C211.415 546.108 246.565 546 281 546C309.832 546 338.426 545.938 367 541.728C385.773 538.963 401.456 532.047 419 525.425C428.407 521.875 438.732 520.101 447 514.073C458.69 505.549 467.523 492.662 477.17 482C493.586 463.857 519.016 450.912 530.677 429C536.279 418.472 537.137 406.537 539.081 395C540.929 384.036 544.472 373.158 544.961 362C545.612 347.115 541.576 332.72 540.17 318C538.257 297.983 545.183 278.108 542.714 258C538.697 225.296 520.478 200.224 507.306 171C498.354 151.141 494.758 126.361 481.32 109C474.332 99.9712 465.207 92.7949 457 84.9606C429.057 58.2866 392.647 29.1554 353 24.2863C341.293 22.8485 329.572 25.2896 318 26.7153C305.661 28.2355 293.438 29.144 281 28.9962C260.747 28.7553 240.306 21.6609 220 24.4252z"
     id="path6" />
  <path
     style="fill:#ffffff;stroke:#000000;stroke-opacity:1"
     d="M76.0586 217.576C68.9029 219.736 74.942 226.165 79.0008 227.867C90.0143 232.484 104.214 235.569 116 237.41C120.153 238.058 126.868 239.196 130.836 237.397C133.691 236.102 133.233 233.27 131.548 231.143C129.057 227.999 123.584 224.657 119.985 222.918C110.363 218.269 98.4196 218.241 88 217.985C84.1337 217.891 79.8527 216.431 76.0586 217.576M498 218C489.493 217.824 481.549 216.608 473 217.718C467.571 218.423 462.315 219.268 457 220.63C450.892 222.195 443.921 224.173 439.148 228.529C436.605 230.851 434.697 235.325 438.318 237.682C442.703 240.536 450.257 238.172 455 237.41C465.162 235.778 475.299 233.842 485 230.305C491.284 228.013 496.605 224.911 498 218M282.04 351.654C275.238 353.861 273.592 363.799 273.005 370C271.316 387.839 272.645 407.163 274.086 425C274.495 430.07 275.755 446.794 283.961 445.029C290.456 443.632 292.729 431.377 293.739 426C297.41 406.47 297.069 387.704 295.965 368C295.519 360.062 292.694 348.195 282.04 351.654M391 427C390.241 430.916 388.976 434.982 389.329 439C390.257 449.578 397.952 458.544 402.9 467.464C407.53 475.811 412.191 484.65 423 485C422.998 469 417.788 453.134 408.56 440C404.251 433.867 398.723 428.027 391 427M147 486C163.712 484.277 173.706 462.032 178.329 448C179.922 443.165 183.597 433.657 178.682 429.607C172.901 424.844 164.951 433.876 161.927 438.001C157.847 443.567 156.016 449.637 153.694 456C151.88 460.974 148.761 465.904 147.533 471C146.385 475.765 147 481.13 147 486z"
     id="path8" />
</svg>
