<?xml version="1.0" encoding="UTF-8" standalone="no"?>
<!-- Created with Inkscape (http://www.inkscape.org/) -->

<svg
   xmlns:dc="http://purl.org/dc/elements/1.1/"
   xmlns:cc="http://creativecommons.org/ns#"
   xmlns:rdf="http://www.w3.org/1999/02/22-rdf-syntax-ns#"
   xmlns:svg="http://www.w3.org/2000/svg"
   xmlns="http://www.w3.org/2000/svg"
   xmlns:sodipodi="http://sodipodi.sourceforge.net/DTD/sodipodi-0.dtd"
   xmlns:inkscape="http://www.inkscape.org/namespaces/inkscape"
   id="svg15714"
   version="1.1"
   inkscape:version="0.91 r13725"
   xml:space="preserve"
   width="630"
   height="450"
   viewBox="0 0 630 450"
   sodipodi:docname="TIE_Fighter.svg"><metadata
     id="metadata15720"><rdf:RDF><cc:Work
         rdf:about=""><dc:format>image/svg+xml</dc:format><dc:type
           rdf:resource="http://purl.org/dc/dcmitype/StillImage" /><dc:title></dc:title></cc:Work></rdf:RDF></metadata><defs
     id="defs15718" /><sodipodi:namedview
     pagecolor="#ffffff"
     bordercolor="#666666"
     borderopacity="1"
     objecttolerance="10"
     gridtolerance="10"
     guidetolerance="10"
     inkscape:pageopacity="0"
     inkscape:pageshadow="2"
     inkscape:window-width="1679"
     inkscape:window-height="1005"
     id="namedview15716"
     showgrid="false"
     inkscape:zoom="0.65555556"
     inkscape:cx="595.47325"
     inkscape:cy="9.9915239"
     inkscape:window-x="58"
     inkscape:window-y="5"
     inkscape:window-maximized="0"
     inkscape:current-layer="g15722" /><g
     id="g15722"
     inkscape:groupmode="layer"
     inkscape:label="TIE_Fighter"
     transform="matrix(1.25,0,0,-1.25,0,450)"><path
       d="m 308.1694,194.0732 c 0,0 0.5329,46.8952 0.5329,46.8952 0,0 13.9178,8.0357 13.9178,8.0357 0,0 61.5798,-34.7236 61.5798,-34.7236 0,0 -76.0305,-20.2073 -76.0305,-20.2073 z"
       style="fill:none;stroke:#0000ff;stroke-width:0.21600001;stroke-linecap:butt;stroke-linejoin:bevel;stroke-miterlimit:2.61312604;stroke-dasharray:none;stroke-opacity:1"
       id="path15724"
       inkscape:connector-curvature="0" /><path
       d="m 226.1177,214.2805 c 0,0 76.0306,-20.2073 76.0306,-20.2073 0,0 -0.5329,46.8952 -0.5329,46.8952 0,0 -13.9179,8.0357 -13.9179,8.0357 0,0 -61.5798,-34.7236 -61.5798,-34.7236 z"
       style="fill:none;stroke:#0000ff;stroke-width:0.21600001;stroke-linecap:butt;stroke-linejoin:bevel;stroke-miterlimit:2.61312604;stroke-dasharray:none;stroke-opacity:1"
       id="path15726"
       inkscape:connector-curvature="0" /><path
       d="m 221.4768,308.2731 c 0,0 0.0751,-90.8759 0.0751,-90.8759 0,0 62.9748,38.0015 62.9748,38.0015 0,0 0.017,15.2425 0.017,15.2425 0,0 -63.0669,37.6319 -63.0669,37.6319 z"
       style="fill:none;stroke:#0000ff;stroke-width:0.21600001;stroke-linecap:butt;stroke-linejoin:bevel;stroke-miterlimit:2.61312604;stroke-dasharray:none;stroke-opacity:1"
       id="path15728"
       inkscape:connector-curvature="0" /><path
       d="m 302.1483,331.35 c 0,0 -0.5329,-46.8953 -0.5329,-46.8953 0,0 -13.9179,-8.0354 -13.9179,-8.0354 0,0 -61.5798,34.7236 -61.5798,34.7236 0,0 76.0306,20.2071 76.0306,20.2071 z"
       style="fill:none;stroke:#0000ff;stroke-width:0.21600001;stroke-linecap:butt;stroke-linejoin:bevel;stroke-miterlimit:2.61312604;stroke-dasharray:none;stroke-opacity:1"
       id="path15730"
       inkscape:connector-curvature="0" /><path
       d="m 384.1999,311.1429 c 0,0 -76.0305,20.2071 -76.0305,20.2071 0,0 0.5329,-46.8953 0.5329,-46.8953 0,0 13.9178,-8.0354 13.9178,-8.0354 0,0 61.5798,34.7236 61.5798,34.7236 z"
       style="fill:none;stroke:#0000ff;stroke-width:0.21600001;stroke-linecap:butt;stroke-linejoin:bevel;stroke-miterlimit:2.61312604;stroke-dasharray:none;stroke-opacity:1"
       id="path15732"
       inkscape:connector-curvature="0" /><path
       d="m 388.766,217.3972 c 0,0 -62.9748,38.0015 -62.9748,38.0015 0,0 -0.0173,15.2425 -0.0173,15.2425 0,0 63.0669,37.6319 63.0669,37.6319 0,0 -0.0748,-90.8759 -0.0748,-90.8759 z"
       style="fill:none;stroke:#0000ff;stroke-width:0.21600001;stroke-linecap:butt;stroke-linejoin:bevel;stroke-miterlimit:2.61312604;stroke-dasharray:none;stroke-opacity:1"
       id="path15734"
       inkscape:connector-curvature="0" /><path
       d="m 309.6845,271.6982 c 0,-7.6362 0,-10.3637 0,-18 0,0 -9,0 -9,0 0,7.6363 0,10.3638 0,18 0,0 9,0 9,0 z"
       style="fill:none;stroke:#000000;stroke-width:0.21600001;stroke-linecap:butt;stroke-linejoin:bevel;stroke-miterlimit:2.61312604;stroke-dasharray:none;stroke-opacity:1"
       id="path15736"
       inkscape:connector-curvature="0" /><path
       d="m 305.1845,189.1565 -87.3882,22.8804 0,50.6979 m 0,1.4998 0,49.125 87.3882,22.8804 87.3881,-22.8804 0,-101.3227 -87.3881,-22.8804"
       style="fill:none;stroke:#000000;stroke-width:0.21600001;stroke-linecap:butt;stroke-linejoin:miter;stroke-miterlimit:2.61312604;stroke-dasharray:none;stroke-opacity:1"
       id="path15738"
       inkscape:connector-curvature="0" /><path
       d="m 100.2824,132.4621 c -2.0843,3.64 -3.2757,7.8574 -3.2757,12.3529 0,4.4994 1.1936,8.7199 3.2811,12.3621"
       style="fill:none;stroke:#0000ff;stroke-width:0.21600001;stroke-linecap:butt;stroke-linejoin:miter;stroke-miterlimit:2.61312604;stroke-dasharray:none;stroke-opacity:1"
       id="path15740"
       inkscape:connector-curvature="0" /><path
       d="m 143.5195,157.1751 c 2.0869,-3.6416 3.28,-7.8616 3.28,-12.3601 0,-4.4944 -1.1908,-8.7112 -3.2743,-12.3506"
       style="fill:none;stroke:#0000ff;stroke-width:0.21600001;stroke-linecap:butt;stroke-linejoin:miter;stroke-miterlimit:2.61312604;stroke-dasharray:none;stroke-opacity:1"
       id="path15742"
       inkscape:connector-curvature="0" /><path
       d="m 121.8651,151.378 c 0,0 2.8514,-1.6242 2.8514,-1.6242 0,0 2.8511,-1.6243 2.8511,-1.6243 0,0 0.019,-3.2817 0.019,-3.2817 0,0 0.0192,-3.2813 0.0192,-3.2813 0,0 -2.8324,-1.6575 -2.8324,-1.6575 0,0 -2.8323,-1.6568 -2.8323,-1.6568 0,0 -2.8514,1.6242 -2.8514,1.6242 0,0 -2.8514,1.624 -2.8514,1.624 0,0 -0.019,3.2817 -0.019,3.2817 0,0 -0.019,3.2816 -0.019,3.2816 0,0 2.8321,1.6572 2.8321,1.6572 0,0 2.8327,1.6571 2.8327,1.6571 z"
       style="fill:none;stroke:#0000ff;stroke-width:0.21600001;stroke-linecap:butt;stroke-linejoin:bevel;stroke-miterlimit:2.61312604;stroke-dasharray:none;stroke-opacity:1"
       id="path15744"
       inkscape:connector-curvature="0" /><path
       d="m 121.9031,160.5643 c 8.6981,0 15.7493,-7.0512 15.7493,-15.7493 0,-8.6981 -7.0512,-15.7493 -15.7493,-15.7493 -8.6981,0 -15.7493,7.0512 -15.7493,15.7493 0,8.6981 7.0512,15.7493 15.7493,15.7493 z"
       style="fill:none;stroke:#0000ff;stroke-width:0.21600001;stroke-linecap:butt;stroke-linejoin:miter;stroke-miterlimit:2.61312604;stroke-dasharray:none;stroke-opacity:1"
       id="path15746"
       inkscape:connector-curvature="0" /><path
       d="m 121.9031,156.109 c 6.2376,0 11.2941,-5.0564 11.2941,-11.294 0,-6.2377 -5.0565,-11.2941 -11.2941,-11.2941 -6.2377,0 -11.2941,5.0564 -11.2941,11.2941 0,6.2376 5.0564,11.294 11.2941,11.294 z"
       style="fill:none;stroke:#0000ff;stroke-width:0.21600001;stroke-linecap:butt;stroke-linejoin:miter;stroke-miterlimit:2.61312604;stroke-dasharray:none;stroke-opacity:1"
       id="path15748"
       inkscape:connector-curvature="0" /><path
       d="m 115.7593,159.321 1.6982,-4.1003"
       style="fill:none;stroke:#0000ff;stroke-width:0.21600001;stroke-linecap:butt;stroke-linejoin:miter;stroke-miterlimit:2.61312604;stroke-dasharray:none;stroke-opacity:1"
       id="path15750"
       inkscape:connector-curvature="0" /><path
       d="m 128.0477,159.3207 -1.6985,-4.1003"
       style="fill:none;stroke:#0000ff;stroke-width:0.21600001;stroke-linecap:butt;stroke-linejoin:miter;stroke-miterlimit:2.61312604;stroke-dasharray:none;stroke-opacity:1"
       id="path15752"
       inkscape:connector-curvature="0" /><path
       d="m 132.4522,148.8577 4.161,1.5957"
       style="fill:none;stroke:#0000ff;stroke-width:0.21600001;stroke-linecap:butt;stroke-linejoin:miter;stroke-miterlimit:2.61312604;stroke-dasharray:none;stroke-opacity:1"
       id="path15754"
       inkscape:connector-curvature="0" /><path
       d="m 132.2209,140.2146 4.1182,-1.7056"
       style="fill:none;stroke:#0000ff;stroke-width:0.21600001;stroke-linecap:butt;stroke-linejoin:miter;stroke-miterlimit:2.61312604;stroke-dasharray:none;stroke-opacity:1"
       id="path15756"
       inkscape:connector-curvature="0" /><path
       d="m 126.1106,134.3307 1.6616,-4.1351"
       style="fill:none;stroke:#0000ff;stroke-width:0.21600001;stroke-linecap:butt;stroke-linejoin:miter;stroke-miterlimit:2.61312604;stroke-dasharray:none;stroke-opacity:1"
       id="path15758"
       inkscape:connector-curvature="0" /><path
       d="m 117.6894,134.3134 -1.6985,-4.1003"
       style="fill:none;stroke:#0000ff;stroke-width:0.21600001;stroke-linecap:butt;stroke-linejoin:miter;stroke-miterlimit:2.61312604;stroke-dasharray:none;stroke-opacity:1"
       id="path15760"
       inkscape:connector-curvature="0" /><path
       d="m 107.4674,138.5087 4.1181,1.7059"
       style="fill:none;stroke:#0000ff;stroke-width:0.21600001;stroke-linecap:butt;stroke-linejoin:miter;stroke-miterlimit:2.61312604;stroke-dasharray:none;stroke-opacity:1"
       id="path15762"
       inkscape:connector-curvature="0" /><path
       d="m 111.3542,148.858 -4.1181,1.7059"
       style="fill:none;stroke:#0000ff;stroke-width:0.21600001;stroke-linecap:butt;stroke-linejoin:miter;stroke-miterlimit:2.61312604;stroke-dasharray:none;stroke-opacity:1"
       id="path15764"
       inkscape:connector-curvature="0" /><path
       d="m 110.6042,155.787 -6.4681,6.4681"
       style="fill:none;stroke:#0000ff;stroke-width:0.21600001;stroke-linecap:butt;stroke-linejoin:miter;stroke-miterlimit:2.61312604;stroke-dasharray:none;stroke-opacity:1"
       id="path15766"
       inkscape:connector-curvature="0" /><path
       d="m 139.6704,162.2551 -6.4681,-6.4681"
       style="fill:none;stroke:#0000ff;stroke-width:0.21600001;stroke-linecap:butt;stroke-linejoin:miter;stroke-miterlimit:2.61312604;stroke-dasharray:none;stroke-opacity:1"
       id="path15768"
       inkscape:connector-curvature="0" /><path
       d="m 139.3432,127.048 -6.4683,6.4683"
       style="fill:none;stroke:#0000ff;stroke-width:0.21600001;stroke-linecap:butt;stroke-linejoin:miter;stroke-miterlimit:2.61312604;stroke-dasharray:none;stroke-opacity:1"
       id="path15770"
       inkscape:connector-curvature="0" /><path
       d="m 110.9316,133.5163 -6.4684,-6.4683"
       style="fill:none;stroke:#0000ff;stroke-width:0.21600001;stroke-linecap:butt;stroke-linejoin:miter;stroke-miterlimit:2.61312604;stroke-dasharray:none;stroke-opacity:1"
       id="path15772"
       inkscape:connector-curvature="0" /><path
       d="m 163.986,150.4627 0,-11.2955"
       style="fill:none;stroke:#0000ff;stroke-width:0.21600001;stroke-linecap:butt;stroke-linejoin:miter;stroke-miterlimit:2.61312604;stroke-dasharray:none;stroke-opacity:1"
       id="path15774"
       inkscape:connector-curvature="0" /><path
       d="m 169.0798,150.4919 0,-11.3539"
       style="fill:none;stroke:#0000ff;stroke-width:0.21600001;stroke-linecap:butt;stroke-linejoin:miter;stroke-miterlimit:2.61312604;stroke-dasharray:none;stroke-opacity:1"
       id="path15776"
       inkscape:connector-curvature="0" /><path
       d="m 173.4194,151.3295 0,-13.0291"
       style="fill:none;stroke:#0000ff;stroke-width:0.21600001;stroke-linecap:butt;stroke-linejoin:miter;stroke-miterlimit:2.61312604;stroke-dasharray:none;stroke-opacity:1"
       id="path15778"
       inkscape:connector-curvature="0" /><path
       d="m 145.1979,153.6202 14.4108,-7.1478 0,-1.6574 0,-1.6575 -14.4108,-7.1478"
       style="fill:none;stroke:#0000ff;stroke-width:0.21600001;stroke-linecap:butt;stroke-linejoin:miter;stroke-miterlimit:2.61312604;stroke-dasharray:none;stroke-opacity:1"
       id="path15780"
       inkscape:connector-curvature="0" /><path
       d="m 79.8202,150.4627 0,-11.2955"
       style="fill:none;stroke:#0000ff;stroke-width:0.21600001;stroke-linecap:butt;stroke-linejoin:miter;stroke-miterlimit:2.61312604;stroke-dasharray:none;stroke-opacity:1"
       id="path15782"
       inkscape:connector-curvature="0" /><path
       d="m 74.7264,150.4919 0,-11.3539"
       style="fill:none;stroke:#0000ff;stroke-width:0.21600001;stroke-linecap:butt;stroke-linejoin:miter;stroke-miterlimit:2.61312604;stroke-dasharray:none;stroke-opacity:1"
       id="path15784"
       inkscape:connector-curvature="0" /><path
       d="m 70.3868,151.3295 0,-13.0291"
       style="fill:none;stroke:#0000ff;stroke-width:0.21600001;stroke-linecap:butt;stroke-linejoin:miter;stroke-miterlimit:2.61312604;stroke-dasharray:none;stroke-opacity:1"
       id="path15786"
       inkscape:connector-curvature="0" /><path
       d="m 98.6083,153.6202 -14.4108,-7.1478 0,-1.6574 0,-1.6575 14.4108,-7.1478"
       style="fill:none;stroke:#0000ff;stroke-width:0.21600001;stroke-linecap:butt;stroke-linejoin:miter;stroke-miterlimit:2.61312604;stroke-dasharray:none;stroke-opacity:1"
       id="path15788"
       inkscape:connector-curvature="0" /><path
       d="m 121.8421,180.2055 c 4.2775,0.025 7.765,-3.4223 7.7896,-7.6997 0.007,-1.2782 -0.3106,-2.6133 -0.9328,-3.7333 6.3221,-1.7898 11.622,-6.0148 14.8206,-11.5974 0.004,-0.007 0.008,-0.0138 0.0119,-0.0206 l 20.4472,-5.3796 0.007,-1.3122 5.0938,0.0292 -0.005,0.8124 4.3444,0.0252 -0.004,0.6874 3.4061,0.0199 0.0159,-2.7218 27,0 0,-9 -27,0 -0.0159,-2.7219 -3.4061,0.0199 0.004,0.6874 -4.3444,0.0252 0.005,0.8124 -5.0938,0.0292 -0.007,-1.3121 -20.4472,-5.3796 c -0.002,-0.004 -0.004,-0.007 -0.006,-0.0111 -4.2905,-7.4954 -12.3664,-12.5458 -21.6221,-12.5458 -9.2546,0 -17.3299,5.0493 -21.6207,12.5435 -0.003,0.005 -0.005,0.009 -0.008,0.0134 l -20.4471,5.3796 -0.0074,1.3121 -5.0938,-0.0292 0.0048,-0.8124 -4.3444,-0.0252 0.0043,-0.6874 -3.4062,-0.0199 -0.0158,2.7219 -27,0 0,3.5458 m 0,1.6135 0,3.8407 27,0 0.0158,2.7218 3.4062,-0.0199 -0.0043,-0.6874 4.3444,-0.0252 -0.0048,-0.8124 5.0938,-0.0292 0.0074,1.3122 20.4471,5.3796 c 0.004,0.008 0.009,0.015 0.0131,0.0226 3.1912,5.5676 8.4713,9.7847 14.7716,11.5818 0.007,0.002 0.0136,0.004 0.0204,0.006 -0.591,1.0857 -0.9298,2.3289 -0.9374,3.6516 -0.025,4.2775 3.4225,7.7647 7.6997,7.7893"
       style="fill:none;stroke:#000000;stroke-width:0.21600001;stroke-linecap:butt;stroke-linejoin:bevel;stroke-miterlimit:2.61312604;stroke-dasharray:none;stroke-opacity:1"
       id="path15790"
       inkscape:connector-curvature="0" /><path
       d="m 121.8711,175.2109 c 1.5188,0.009 2.7569,-1.215 2.7657,-2.734 0.009,-1.5189 -1.2152,-2.7567 -2.7337,-2.7655 -1.5188,-0.009 -2.7573,1.2149 -2.7658,2.7337 -0.009,1.5188 1.215,2.757 2.7338,2.7658 z"
       style="fill:none;stroke:#000000;stroke-width:0.21600001;stroke-linecap:butt;stroke-linejoin:bevel;stroke-miterlimit:2.61312604;stroke-dasharray:none;stroke-opacity:1"
       id="path15792"
       inkscape:connector-curvature="0" /><path
       d="m 121.892,94.5323 c 0,0 -3.6439,-1.5182 -3.6439,-1.5182 0,0 -1.5021,-3.6499 -1.5021,-3.6499 0,0 1.518,-3.6437 1.518,-3.6437 0,0 3.6499,-1.5023 3.6499,-1.5023 0,0 3.6436,1.5182 3.6436,1.5182 0,0 1.5024,3.6499 1.5024,3.6499 0,0 -1.5183,3.6437 -1.5183,3.6437 0,0 -3.6496,1.5023 -3.6496,1.5023 z"
       style="fill:none;stroke:#000000;stroke-width:0.21600001;stroke-linecap:butt;stroke-linejoin:bevel;stroke-miterlimit:2.61312604;stroke-dasharray:none;stroke-opacity:1"
       id="path15794"
       inkscape:connector-curvature="0" /><path
       d="m 123.4998,106.4367 c 0,0 0.0185,-8.5272 0.0185,-8.5272 0,0 3.2462,-1.3362 3.2462,-1.3362 0,0 6.0157,6.0417 6.0157,6.0417 -2.6462,2.177 -5.8674,3.5056 -9.2804,3.8217 z"
       style="fill:none;stroke:#000000;stroke-width:0.21600001;stroke-linecap:butt;stroke-linejoin:bevel;stroke-miterlimit:2.61312604;stroke-dasharray:none;stroke-opacity:1"
       id="path15796"
       inkscape:connector-curvature="0" /><path
       d="m 135.0958,100.3093 c 0,0 -6.016,-6.0417 -6.016,-6.0417 0,0 1.3502,-3.24 1.3502,-3.24 0,0 8.5274,0.0181 8.5274,0.0181 -0.3308,3.4115 -1.6732,6.6268 -3.8616,9.2636 z"
       style="fill:none;stroke:#000000;stroke-width:0.21600001;stroke-linecap:butt;stroke-linejoin:bevel;stroke-miterlimit:2.61312604;stroke-dasharray:none;stroke-opacity:1"
       id="path15798"
       inkscape:connector-curvature="0" /><path
       d="m 138.9643,87.7782 c 0,0 -8.5269,-0.0184 -8.5269,-0.0184 0,0 -1.3366,-3.246 -1.3366,-3.246 0,0 6.0415,-6.0157 6.0415,-6.0157 2.1773,2.6465 3.5059,5.8669 3.822,9.2801 z"
       style="fill:none;stroke:#000000;stroke-width:0.21600001;stroke-linecap:butt;stroke-linejoin:bevel;stroke-miterlimit:2.61312604;stroke-dasharray:none;stroke-opacity:1"
       id="path15800"
       inkscape:connector-curvature="0" /><path
       d="m 132.8369,76.1825 c 0,0 -6.0418,6.0157 -6.0418,6.0157 0,0 -3.24,-1.3501 -3.24,-1.3501 0,0 0.0182,-8.5272 0.0182,-8.5272 3.4115,0.3302 6.6268,1.673 9.2636,3.8616 z"
       style="fill:none;stroke:#000000;stroke-width:0.21600001;stroke-linecap:butt;stroke-linejoin:bevel;stroke-miterlimit:2.61312604;stroke-dasharray:none;stroke-opacity:1"
       id="path15802"
       inkscape:connector-curvature="0" /><path
       d="m 120.3058,72.3138 c 0,0 -0.0185,8.5269 -0.0185,8.5269 0,0 -3.2459,1.3362 -3.2459,1.3362 0,0 -6.0157,-6.0414 -6.0157,-6.0414 2.6461,-2.1773 5.8669,-3.5059 9.2801,-3.8217 z"
       style="fill:none;stroke:#000000;stroke-width:0.21600001;stroke-linecap:butt;stroke-linejoin:bevel;stroke-miterlimit:2.61312604;stroke-dasharray:none;stroke-opacity:1"
       id="path15804"
       inkscape:connector-curvature="0" /><path
       d="m 108.7098,78.4409 c 0,0 6.016,6.0415 6.016,6.0415 0,0 -1.3502,3.2408 -1.3502,3.2408 0,0 -8.5274,-0.0184 -8.5274,-0.0184 0.3308,-3.4118 1.673,-6.6266 3.8616,-9.2639 z"
       style="fill:none;stroke:#000000;stroke-width:0.21600001;stroke-linecap:butt;stroke-linejoin:bevel;stroke-miterlimit:2.61312604;stroke-dasharray:none;stroke-opacity:1"
       id="path15806"
       inkscape:connector-curvature="0" /><path
       d="m 104.8414,90.9723 c 0,0 8.5271,0.0181 8.5271,0.0181 0,0 1.336,3.2465 1.336,3.2465 0,0 -6.0415,6.0154 -6.0415,6.0154 -2.1773,-2.6464 -3.5059,-5.8674 -3.8216,-9.28 z"
       style="fill:none;stroke:#000000;stroke-width:0.21600001;stroke-linecap:butt;stroke-linejoin:bevel;stroke-miterlimit:2.61312604;stroke-dasharray:none;stroke-opacity:1"
       id="path15808"
       inkscape:connector-curvature="0" /><path
       d="m 110.9687,102.5677 c 0,0 6.0412,-6.0154 6.0412,-6.0154 0,0 3.2406,1.3504 3.2406,1.3504 0,0 -0.0182,8.5272 -0.0182,8.5272 -3.4117,-0.3308 -6.6268,-1.6736 -9.2636,-3.8622 z"
       style="fill:none;stroke:#000000;stroke-width:0.21600001;stroke-linecap:butt;stroke-linejoin:bevel;stroke-miterlimit:2.61312604;stroke-dasharray:none;stroke-opacity:1"
       id="path15810"
       inkscape:connector-curvature="0" /><path
       d="m 121.8606,108.9782 c 10.8263,0.0236 19.622,-8.7344 19.6455,-19.5607 0.0232,-10.8264 -8.7344,-19.6223 -19.5613,-19.6455 -10.8261,-0.0233 -19.622,8.7346 -19.645,19.561 -0.0235,10.8264 8.7344,19.6223 19.5608,19.6452 z"
       style="fill:none;stroke:#0000ff;stroke-width:0.21600001;stroke-linecap:butt;stroke-linejoin:bevel;stroke-miterlimit:2.61312604;stroke-dasharray:none;stroke-opacity:1"
       id="path15812"
       inkscape:connector-curvature="0" /><path
       d="m 127.6274,66.5144 c -0.4825,0.2398 -0.8144,0.7373 -0.8156,1.3124 -0.002,0.811 0.6543,1.4701 1.4656,1.4721 0.8109,0.0017 1.4697,-0.6548 1.4717,-1.4658 0.001,-0.5497 -0.2999,-1.0299 -0.7466,-1.2821"
       style="fill:none;stroke:#0000ff;stroke-width:0.21600001;stroke-linecap:butt;stroke-linejoin:bevel;stroke-miterlimit:2.61312604;stroke-dasharray:none;stroke-opacity:1"
       id="path15814"
       inkscape:connector-curvature="0" /><path
       d="m 100.2824,77.0196 c -2.0843,3.64 -3.2757,7.8573 -3.2757,12.3528 0,4.4994 1.1936,8.7199 3.2811,12.3622"
       style="fill:none;stroke:#0000ff;stroke-width:0.21600001;stroke-linecap:butt;stroke-linejoin:miter;stroke-miterlimit:2.61312604;stroke-dasharray:none;stroke-opacity:1"
       id="path15816"
       inkscape:connector-curvature="0" /><path
       d="m 143.5195,101.7326 c 2.0869,-3.6417 3.28,-7.8616 3.28,-12.3602 0,-4.4943 -1.1908,-8.7111 -3.2743,-12.3505"
       style="fill:none;stroke:#0000ff;stroke-width:0.21600001;stroke-linecap:butt;stroke-linejoin:miter;stroke-miterlimit:2.61312604;stroke-dasharray:none;stroke-opacity:1"
       id="path15818"
       inkscape:connector-curvature="0" /><path
       d="m 163.986,95.0202 0,-11.2955"
       style="fill:none;stroke:#0000ff;stroke-width:0.21600001;stroke-linecap:butt;stroke-linejoin:miter;stroke-miterlimit:2.61312604;stroke-dasharray:none;stroke-opacity:1"
       id="path15820"
       inkscape:connector-curvature="0" /><path
       d="m 169.0798,95.0494 0,-11.3539"
       style="fill:none;stroke:#0000ff;stroke-width:0.21600001;stroke-linecap:butt;stroke-linejoin:miter;stroke-miterlimit:2.61312604;stroke-dasharray:none;stroke-opacity:1"
       id="path15822"
       inkscape:connector-curvature="0" /><path
       d="m 173.4194,95.887 0,-13.0292"
       style="fill:none;stroke:#0000ff;stroke-width:0.21600001;stroke-linecap:butt;stroke-linejoin:miter;stroke-miterlimit:2.61312604;stroke-dasharray:none;stroke-opacity:1"
       id="path15824"
       inkscape:connector-curvature="0" /><path
       d="m 145.1979,98.1777 14.4108,-7.1479 0,-1.6574 0,-1.6574 -14.4108,-7.1479"
       style="fill:none;stroke:#0000ff;stroke-width:0.21600001;stroke-linecap:butt;stroke-linejoin:miter;stroke-miterlimit:2.61312604;stroke-dasharray:none;stroke-opacity:1"
       id="path15826"
       inkscape:connector-curvature="0" /><path
       d="m 79.8202,95.0202 0,-11.2955"
       style="fill:none;stroke:#0000ff;stroke-width:0.21600001;stroke-linecap:butt;stroke-linejoin:miter;stroke-miterlimit:2.61312604;stroke-dasharray:none;stroke-opacity:1"
       id="path15828"
       inkscape:connector-curvature="0" /><path
       d="m 74.7264,95.0494 0,-11.3539"
       style="fill:none;stroke:#0000ff;stroke-width:0.21600001;stroke-linecap:butt;stroke-linejoin:miter;stroke-miterlimit:2.61312604;stroke-dasharray:none;stroke-opacity:1"
       id="path15830"
       inkscape:connector-curvature="0" /><path
       d="m 70.3868,95.887 0,-13.0292"
       style="fill:none;stroke:#0000ff;stroke-width:0.21600001;stroke-linecap:butt;stroke-linejoin:miter;stroke-miterlimit:2.61312604;stroke-dasharray:none;stroke-opacity:1"
       id="path15832"
       inkscape:connector-curvature="0" /><path
       d="m 98.6083,98.1777 -14.4108,-7.1479 0,-1.6574 0,-1.6574 14.4108,-7.1479"
       style="fill:none;stroke:#0000ff;stroke-width:0.21600001;stroke-linecap:butt;stroke-linejoin:miter;stroke-miterlimit:2.61312604;stroke-dasharray:none;stroke-opacity:1"
       id="path15834"
       inkscape:connector-curvature="0" /><path
       d="m 176.8371,84.8724 -0.0159,-2.7218 -3.4061,0.0198 0.004,0.6874 -4.3444,0.0253 0.005,0.8124 -5.0938,0.0292 -0.007,-1.3122 -20.4472,-5.3796 c -0.002,-0.0037 -0.004,-0.0074 -0.006,-0.011 -4.2905,-7.4954 -12.3664,-12.5459 -21.6221,-12.5459 -9.2546,0 -17.3299,5.0494 -21.6207,12.5436 -0.003,0.0045 -0.005,0.0088 -0.008,0.0133 l -20.4471,5.3796 -0.0074,1.3122 -5.0938,-0.0292 0.0048,-0.8124 -4.3444,-0.0253 0.0043,-0.6874 -3.4062,-0.0198 -0.0158,2.7218 -27,0 0,3.1133 m 0,1.6135 0,4.2732 27,0 0.0158,2.7218 3.4062,-0.0198 -0.0043,-0.6874 4.3444,-0.0252 -0.0048,-0.8124 5.0938,-0.0292 0.0074,1.3121 20.4471,5.3796 c 0.004,0.008 0.009,0.015 0.0131,0.0227 4.4776,7.812 12.7431,12.5399 21.6357,12.5399 8.8761,0 17.1255,-4.7395 21.596,-12.5419 0.004,-0.007 0.008,-0.0139 0.0119,-0.0207 l 20.4472,-5.3796 0.007,-1.3121 5.0938,0.0292 -0.005,0.8124 4.3444,0.0252 -0.004,0.6874 3.4061,0.0198 0.0159,-2.7218 27,0 0,-9 -27,0"
       style="fill:none;stroke:#000000;stroke-width:0.21600001;stroke-linecap:butt;stroke-linejoin:bevel;stroke-miterlimit:2.61312604;stroke-dasharray:none;stroke-opacity:1"
       id="path15836"
       inkscape:connector-curvature="0" /><path
       d="m 107.8033,102.9949 -3.6323,3.632"
       style="fill:none;stroke:#0000ff;stroke-width:0.21600001;stroke-linecap:butt;stroke-linejoin:miter;stroke-miterlimit:2.61312604;stroke-dasharray:none;stroke-opacity:1"
       id="path15838"
       inkscape:connector-curvature="0" /><path
       d="m 139.7052,106.6269 -3.668,-3.668"
       style="fill:none;stroke:#0000ff;stroke-width:0.21600001;stroke-linecap:butt;stroke-linejoin:miter;stroke-miterlimit:2.61312604;stroke-dasharray:none;stroke-opacity:1"
       id="path15840"
       inkscape:connector-curvature="0" /><path
       d="m 139.3781,71.4197 -3.8557,3.856"
       style="fill:none;stroke:#0000ff;stroke-width:0.21600001;stroke-linecap:butt;stroke-linejoin:miter;stroke-miterlimit:2.61312604;stroke-dasharray:none;stroke-opacity:1"
       id="path15842"
       inkscape:connector-curvature="0" /><path
       d="m 108.3195,75.2411 -3.8214,-3.8214"
       style="fill:none;stroke:#0000ff;stroke-width:0.21600001;stroke-linecap:butt;stroke-linejoin:miter;stroke-miterlimit:2.61312604;stroke-dasharray:none;stroke-opacity:1"
       id="path15844"
       inkscape:connector-curvature="0" /><path
       d="m 116.1788,66.5144 c 0.4825,0.2398 0.8144,0.7373 0.8155,1.3124 0.002,0.811 -0.6542,1.4701 -1.4655,1.4721 -0.811,0.0017 -1.4697,-0.6548 -1.4717,-1.4658 -0.001,-0.5497 0.2999,-1.0299 0.7466,-1.2821"
       style="fill:none;stroke:#0000ff;stroke-width:0.21600001;stroke-linecap:butt;stroke-linejoin:bevel;stroke-miterlimit:2.61312604;stroke-dasharray:none;stroke-opacity:1"
       id="path15846"
       inkscape:connector-curvature="0" /><path
       d="m 127.633,331.3233 c 0,0 0.533,-46.8952 0.533,-46.8952 0,0 13.9178,-8.0357 13.9178,-8.0357 0,0 61.5798,34.7236 61.5798,34.7236 0,0 -76.0306,20.2073 -76.0306,20.2073 z"
       style="fill:none;stroke:#0000ff;stroke-width:0.21600001;stroke-linecap:butt;stroke-linejoin:bevel;stroke-miterlimit:2.61312604;stroke-dasharray:none;stroke-opacity:1"
       id="path15848"
       inkscape:connector-curvature="0" /><path
       d="m 45.5814,311.116 c 0,0 76.0306,20.2073 76.0306,20.2073 0,0 -0.5329,-46.8952 -0.5329,-46.8952 0,0 -13.9179,-8.0357 -13.9179,-8.0357 0,0 -61.5798,34.7236 -61.5798,34.7236 z"
       style="fill:none;stroke:#0000ff;stroke-width:0.21600001;stroke-linecap:butt;stroke-linejoin:bevel;stroke-miterlimit:2.61312604;stroke-dasharray:none;stroke-opacity:1"
       id="path15850"
       inkscape:connector-curvature="0" /><path
       d="m 40.9405,217.1234 c 0,0 0.0751,90.8759 0.0751,90.8759 0,0 62.9748,-38.0016 62.9748,-38.0016 0,0 0.017,-15.2424 0.017,-15.2424 0,0 -63.0669,-37.6319 -63.0669,-37.6319 z"
       style="fill:none;stroke:#0000ff;stroke-width:0.21600001;stroke-linecap:butt;stroke-linejoin:bevel;stroke-miterlimit:2.61312604;stroke-dasharray:none;stroke-opacity:1"
       id="path15852"
       inkscape:connector-curvature="0" /><path
       d="m 121.612,194.0465 c 0,0 -0.5329,46.8953 -0.5329,46.8953 0,0 -13.9179,8.0353 -13.9179,8.0353 0,0 -61.5798,-34.7235 -61.5798,-34.7235 0,0 76.0306,-20.2071 76.0306,-20.2071 z"
       style="fill:none;stroke:#0000ff;stroke-width:0.21600001;stroke-linecap:butt;stroke-linejoin:bevel;stroke-miterlimit:2.61312604;stroke-dasharray:none;stroke-opacity:1"
       id="path15854"
       inkscape:connector-curvature="0" /><path
       d="m 203.6636,214.2536 c 0,0 -76.0306,-20.2071 -76.0306,-20.2071 0,0 0.533,46.8953 0.533,46.8953 0,0 13.9178,8.0353 13.9178,8.0353 0,0 61.5798,-34.7235 61.5798,-34.7235 z"
       style="fill:none;stroke:#0000ff;stroke-width:0.21600001;stroke-linecap:butt;stroke-linejoin:bevel;stroke-miterlimit:2.61312604;stroke-dasharray:none;stroke-opacity:1"
       id="path15856"
       inkscape:connector-curvature="0" /><path
       d="m 208.2297,307.9993 c 0,0 -62.9748,-38.0016 -62.9748,-38.0016 0,0 -0.0173,-15.2424 -0.0173,-15.2424 0,0 63.0669,-37.6319 63.0669,-37.6319 0,0 -0.0748,90.8759 -0.0748,90.8759 z"
       style="fill:none;stroke:#0000ff;stroke-width:0.21600001;stroke-linecap:butt;stroke-linejoin:bevel;stroke-miterlimit:2.61312604;stroke-dasharray:none;stroke-opacity:1"
       id="path15858"
       inkscape:connector-curvature="0" /><path
       d="m 129.1482,253.6982 c 0,7.6363 0,10.3638 0,18 0,0 -9,0 -9,0 0,-7.6362 0,-10.3637 0,-18 0,0 9,0 9,0 z"
       style="fill:none;stroke:#000000;stroke-width:0.21600001;stroke-linecap:butt;stroke-linejoin:bevel;stroke-miterlimit:2.61312604;stroke-dasharray:none;stroke-opacity:1"
       id="path15860"
       inkscape:connector-curvature="0" /><path
       d="m 124.6482,189.1565 87.3881,22.8804 0,101.3227 -87.3881,22.8804 -87.3882,-22.8804 0,-50.3099 m 0,-1.6163 0,-49.3965 87.3882,-22.8804"
       style="fill:none;stroke:#000000;stroke-width:0.21600001;stroke-linecap:butt;stroke-linejoin:miter;stroke-miterlimit:2.61312604;stroke-dasharray:none;stroke-opacity:1"
       id="path15862"
       inkscape:connector-curvature="0" /><path
       d="m 452.1988,320.3527 c -7.6362,0 -10.3637,0 -18,0 0,0 0,-9 0,-9 7.6363,0 10.3638,0 18,0 0,0 0,9 0,9 z"
       style="fill:none;stroke:#000000;stroke-width:0.21600001;stroke-linecap:butt;stroke-linejoin:bevel;stroke-miterlimit:2.61312604;stroke-dasharray:none;stroke-opacity:1"
       id="path15864"
       inkscape:connector-curvature="0" /><path
       d="m 431.4283,295.4653 -11.7706,20.3874 11.7706,20.3873 11.7388,0 m 1.44,0 10.3623,0 11.7706,-20.3873 -11.7706,-20.3874 -23.5411,0"
       style="fill:none;stroke:#000000;stroke-width:0.21600001;stroke-linecap:butt;stroke-linejoin:miter;stroke-miterlimit:2.61312604;stroke-dasharray:none;stroke-opacity:1"
       id="path15866"
       inkscape:connector-curvature="0" /><path
       d="m 423.5454,201.3463 c -7.6363,0 -10.3638,0 -18,0 0,0 0,-9 0,-9 7.6362,0 10.3637,0 18,0 0,0 0,9 0,9 z"
       style="fill:none;stroke:#000000;stroke-width:0.21600001;stroke-linecap:butt;stroke-linejoin:bevel;stroke-miterlimit:2.61312604;stroke-dasharray:none;stroke-opacity:1"
       id="path15868"
       inkscape:connector-curvature="0" /><path
       d="m 423.5335,181.2781 -17.9762,0 -8.9884,15.5682 8.9884,15.5682 8.3596,0 m 1.44,0 8.1766,0 8.9884,-15.5682 -8.9884,-15.5682"
       style="fill:none;stroke:#000000;stroke-width:0.21600001;stroke-linecap:butt;stroke-linejoin:miter;stroke-miterlimit:2.61312604;stroke-dasharray:none;stroke-opacity:1"
       id="path15870"
       inkscape:connector-curvature="0" /><path
       d="m 40.4991,342 423.002,0 c 4.9485,0 8.9989,-4.0501 8.9989,-9.0006 l 0,-305.9988 C 472.5,22.0501 468.4496,18 463.5011,18 L 40.4991,18 C 35.5507,18 31.5,22.0501 31.5,27.0006 l 0,305.9988 c 0,4.9505 4.0507,9.0006 8.9991,9.0006 z"
       style="fill:none;stroke:#000000;stroke-width:0.21600001;stroke-linecap:butt;stroke-linejoin:miter;stroke-miterlimit:2.61312604;stroke-dasharray:none;stroke-opacity:1"
       id="path16544"
       inkscape:connector-curvature="0" /><path
       d="m 452.1988,273.818 c -7.6362,0 -10.3637,0 -18,0 0,0 0,-9 0,-9 7.6363,0 10.3638,0 18,0 0,0 0,9 0,9 z"
       style="fill:none;stroke:#000000;stroke-width:0.21600001;stroke-linecap:butt;stroke-linejoin:bevel;stroke-miterlimit:2.61312604;stroke-dasharray:none;stroke-opacity:1"
       id="path16546"
       inkscape:connector-curvature="0" /><path
       d="m 431.4283,248.9306 -11.7706,20.3874 11.7706,20.3873 23.5411,0 11.7706,-20.3873 -6.0202,-10.4275 m -0.7455,-1.2912 -5.0049,-8.6687 -23.5411,0"
       style="fill:none;stroke:#000000;stroke-width:0.21600001;stroke-linecap:butt;stroke-linejoin:miter;stroke-miterlimit:2.61312604;stroke-dasharray:none;stroke-opacity:1"
       id="path16548"
       inkscape:connector-curvature="0" /><path
       d="m 423.5454,238.2426 c -7.6363,0 -10.3638,0 -18,0 0,0 0,-9 0,-9 7.6362,0 10.3637,0 18,0 0,0 0,9 0,9 z"
       style="fill:none;stroke:#000000;stroke-width:0.21600001;stroke-linecap:butt;stroke-linejoin:bevel;stroke-miterlimit:2.61312604;stroke-dasharray:none;stroke-opacity:1"
       id="path16550"
       inkscape:connector-curvature="0" /><path
       d="m 432.5219,233.7426 -8.9884,-15.5681 -17.9762,0 -8.9884,15.5681 8.9884,15.5682 7.9846,0 m 1.44,0 8.5516,0 8.9884,-15.5682"
       style="fill:none;stroke:#000000;stroke-width:0.21600001;stroke-linecap:butt;stroke-linejoin:miter;stroke-miterlimit:2.61312604;stroke-dasharray:none;stroke-opacity:1"
       id="path16552"
       inkscape:connector-curvature="0" /></g></svg>