  0
SECTION
  2
HEADER
  9
$ACADVER
  1
AC1014
  9
$HANDSEED
  5
FFFF
  9
$MEASUREMENT
 70
     1
  0
ENDSEC
  0
SECTION
  2
TABLES
  0
TABLE
  2
VPORT
  5
8
330
0
100
AcDbSymbolTable
 70
     4
  0
VPORT
  5
2E
330
8
100
AcDbSymbolTableRecord
100
AcDbViewportTableRecord
  2
*ACTIVE
 70
     0
 10
0.0
 20
0.0
 11
1.0
 21
1.0
 12
210.0
 22
148.5
 13
0.0
 23
0.0
 14
10.0
 24
10.0
 15
10.0
 25
10.0
 16
0.0
 26
0.0
 36
1.0
 17
0.0
 27
0.0
 37
0.0
 40
341.0
 41
1.24
 42
50.0
 43
0.0
 44
0.0
 50
0.0
 51
0.0
 71
     0
 72
   100
 73
     1
 74
     3
 75
     0
 76
     0
 77
     0
 78
     0
  0
ENDTAB
  0
TABLE
  2
LTYPE
  5
5
330
0
100
AcDbSymbolTable
 70
     1
  0
LTYPE
  5
14
330
5
100
AcDbSymbolTableRecord
100
AcDbLinetypeTableRecord
  2
BYBLOCK
 70
     0
  3

 72
    65
 73
     0
 40
0.0
  0
LTYPE
  5
15
330
5
100
AcDbSymbolTableRecord
100
AcDbLinetypeTableRecord
  2
BYLAYER
 70
     0
  3

 72
    65
 73
     0
 40
0.0
  0
LTYPE
  5
16
330
5
100
AcDbSymbolTableRecord
100
AcDbLinetypeTableRecord
  2
CONTINUOUS
 70
     0
  3
Solid line
 72
    65
 73
     0
 40
0.0
  0
ENDTAB
  0
TABLE
  2
LAYER
  5
2
100
AcDbSymbolTable
 70
1
  0
LAYER
  5
50
100
AcDbSymbolTableRecord
100
AcDbLayerTableRecord
  2
0
 70
0
  6
CONTINUOUS
  0
ENDTAB
  0
TABLE
  2
STYLE
  5
3
330
0
100
AcDbSymbolTable
 70
     1
  0
STYLE
  5
11
330
3
100
AcDbSymbolTableRecord
100
AcDbTextStyleTableRecord
  2
STANDARD
 70
     0
 40
0.0
 41
1.0
 50
0.0
 71
     0
 42
2.5
  3
txt
  4

  0
ENDTAB
  0
TABLE
  2
VIEW
  5
6
330
0
100
AcDbSymbolTable
 70
     0
  0
ENDTAB
  0
TABLE
  2
UCS
  5
7
330
0
100
AcDbSymbolTable
 70
     0
  0
ENDTAB
  0
TABLE
  2
APPID
  5
9
330
0
100
AcDbSymbolTable
 70
     2
  0
APPID
  5
12
330
9
100
AcDbSymbolTableRecord
100
AcDbRegAppTableRecord
  2
ACAD
 70
     0
  0
ENDTAB
  0
TABLE
  2
DIMSTYLE
  5
A
330
0
100
AcDbSymbolTable
 70
     1
  0
DIMSTYLE
105
27
330
A
100
AcDbSymbolTableRecord
100
AcDbDimStyleTableRecord
  2
ISO-25
 70
     0
  3

  4

  5

  6

  7

 40
1.0
 41
2.5
 42
0.625
 43
3.75
 44
1.25
 45
0.0
 46
0.0
 47
0.0
 48
0.0
140
2.5
141
2.5
142
0.0
143
0.03937007874016
144
1.0
145
0.0
146
1.0
147
0.625
 71
     0
 72
     0
 73
     0
 74
     0
 75
     0
 76
     0
 77
     1
 78
     8
170
     0
171
     3
172
     1
173
     0
174
     0
175
     0
176
     0
177
     0
178
     0
270
     2
271
     2
272
     2
273
     2
274
     3
340
11
275
     0
280
     0
281
     0
282
     0
283
     0
284
     8
285
     0
286
     0
287
     3
288
     0
  0
ENDTAB
  0
TABLE
  2
BLOCK_RECORD
  5
1
330
0
100
AcDbSymbolTable
 70
     1
  0
BLOCK_RECORD
  5
1F
330
1
100
AcDbSymbolTableRecord
100
AcDbBlockTableRecord
  2
*MODEL_SPACE
  0
BLOCK_RECORD
  5
1B
330
1
100
AcDbSymbolTableRecord
100
AcDbBlockTableRecord
  2
*PAPER_SPACE
  0
ENDTAB
  0
ENDSEC
  0
SECTION
  2
BLOCKS
  0
BLOCK
  5
20
330
1F
100
AcDbEntity
  8
0
100
AcDbBlockBegin
  2
*MODEL_SPACE
 70
     0
 10
0.0
 20
0.0
 30
0.0
  3
*MODEL_SPACE
  1

  0
ENDBLK
  5
21
330
1F
100
AcDbEntity
  8
0
100
AcDbBlockEnd
  0
BLOCK
  5
1C
330
1B
100
AcDbEntity
 67
     1
  8
0
100
AcDbBlockBegin
  2
*PAPER_SPACE
  1

  0
ENDBLK
  5
1D
330
1B
100
AcDbEntity
 67
     1
  8
0
100
AcDbBlockEnd
  0
ENDSEC
  0
SECTION
  2
ENTITIES
  0
LWPOLYLINE
  5
100
100
AcDbEntity
  8
0
 62
5
100
AcDbPolyline
 90
877
 70
0
 10
53.125514
 20
208.386481
 30
0.0
 10
53.293874
 20
208.431580
 30
0.0
 10
53.451856
 20
208.505280
 30
0.0
 10
53.594646
 20
208.605279
 30
0.0
 10
53.717904
 20
208.728481
 30
0.0
 10
53.817884
 20
208.871279
 30
0.0
 10
53.891544
 20
209.029279
 30
0.0
 10
53.936674
 20
209.197681
 30
0.0
 10
53.951858
 20
209.371281
 30
0.0
 10
54.504155
 20
216.735179
 30
0.0
 10
67.298014
 20
209.933880
 30
0.0
 10
67.456016
 20
209.860180
 30
0.0
 10
67.624415
 20
209.815079
 30
0.0
 10
67.798016
 20
209.799867
 30
0.0
 10
67.971616
 20
209.815093
 30
0.0
 10
68.140016
 20
209.860180
 30
0.0
 10
68.298015
 20
209.933880
 30
0.0
 10
68.440814
 20
210.033781
 30
0.0
 10
68.564015
 20
210.157081
 30
0.0
 10
68.664015
 20
210.299880
 30
0.0
 10
68.737714
 20
210.457879
 30
0.0
 10
68.782816
 20
210.626180
 30
0.0
 10
68.798028
 20
210.799879
 30
0.0
 10
68.782802
 20
210.973479
 30
0.0
 10
68.737714
 20
211.141879
 30
0.0
 10
68.664015
 20
211.299881
 30
0.0
 10
68.564015
 20
211.442680
 30
0.0
 10
68.440814
 20
211.565881
 30
0.0
 10
68.298015
 20
211.665881
 30
0.0
 10
54.758604
 20
220.127679
 30
0.0
 10
55.230324
 20
226.417481
 30
0.0
 10
62.349315
 20
222.790979
 30
0.0
 10
62.507314
 20
222.717279
 30
0.0
 10
62.675615
 20
222.672180
 30
0.0
 10
62.849314
 20
222.656969
 30
0.0
 10
63.022915
 20
222.672192
 30
0.0
 10
63.191314
 20
222.717279
 30
0.0
 10
63.349316
 20
222.790979
 30
0.0
 10
63.492115
 20
222.890979
 30
0.0
 10
63.615316
 20
223.014180
 30
0.0
 10
63.715316
 20
223.156979
 30
0.0
 10
63.789015
 20
223.314981
 30
0.0
 10
63.834114
 20
223.483380
 30
0.0
 10
63.849326
 20
223.656981
 30
0.0
 10
63.834103
 20
223.830680
 30
0.0
 10
63.789015
 20
223.998980
 30
0.0
 10
63.715316
 20
224.156980
 30
0.0
 10
63.615316
 20
224.299781
 30
0.0
 10
63.492115
 20
224.423079
 30
0.0
 10
63.349316
 20
224.522980
 30
0.0
 10
55.471994
 20
229.639581
 30
0.0
 10
55.970116
 20
236.281280
 30
0.0
 10
57.558556
 20
235.574480
 30
0.0
 10
57.726924
 20
235.529381
 30
0.0
 10
57.900584
 20
235.514169
 30
0.0
 10
58.074224
 20
235.529392
 30
0.0
 10
58.242595
 20
235.574480
 30
0.0
 10
58.400586
 20
235.648081
 30
0.0
 10
58.543354
 20
235.748081
 30
0.0
 10
58.666626
 20
235.871381
 30
0.0
 10
58.766594
 20
236.014179
 30
0.0
 10
58.840266
 20
236.172080
 30
0.0
 10
58.885384
 20
236.340479
 30
0.0
 10
58.900596
 20
236.514181
 30
0.0
 10
58.885373
 20
236.687779
 30
0.0
 10
58.840266
 20
236.856181
 30
0.0
 10
58.766594
 20
237.014180
 30
0.0
 10
58.666626
 20
237.156979
 30
0.0
 10
58.543354
 20
237.280180
 30
0.0
 10
56.174186
 20
239.002281
 30
0.0
 10
56.491996
 20
243.239610
 30
0.0
 10
60.320535
 20
241.396169
 30
0.0
 10
60.627314
 20
238.483381
 30
0.0
 10
60.672416
 20
238.314979
 30
0.0
 10
60.746115
 20
238.156980
 30
0.0
 10
60.846115
 20
238.014181
 30
0.0
 10
60.969316
 20
237.890980
 30
0.0
 10
61.112115
 20
237.790980
 30
0.0
 10
61.270114
 20
237.717281
 30
0.0
 10
61.438516
 20
237.672179
 30
0.0
 10
61.612114
 20
237.656967
 30
0.0
 10
61.785816
 20
237.672193
 30
0.0
 10
61.954114
 20
237.717281
 30
0.0
 10
62.112116
 20
237.790980
 30
0.0
 10
62.254915
 20
237.890980
 30
0.0
 10
62.378215
 20
238.014181
 30
0.0
 10
62.478116
 20
238.156980
 30
0.0
 10
62.551815
 20
238.314979
 30
0.0
 10
62.596914
 20
238.483381
 30
0.0
 10
62.779015
 20
240.212390
 30
0.0
 10
68.779915
 20
237.322979
 30
0.0
 10
69.272415
 20
227.942680
 30
0.0
 10
69.287627
 20
227.769080
 30
0.0
 10
69.332715
 20
227.600681
 30
0.0
 10
69.406316
 20
227.442679
 30
0.0
 10
69.506315
 20
227.299981
 30
0.0
 10
69.629615
 20
227.176681
 30
0.0
 10
69.772414
 20
227.076679
 30
0.0
 10
69.930315
 20
227.003081
 30
0.0
 10
70.098714
 20
226.957880
 30
0.0
 10
70.272416
 20
226.942668
 30
0.0
 10
70.446014
 20
226.957891
 30
0.0
 10
70.614416
 20
227.003081
 30
0.0
 10
70.772415
 20
227.076679
 30
0.0
 10
70.915214
 20
227.176681
 30
0.0
 10
71.038415
 20
227.299981
 30
0.0
 10
71.138415
 20
227.442679
 30
0.0
 10
71.212115
 20
227.600681
 30
0.0
 10
71.257214
 20
227.769080
 30
0.0
 10
71.272425
 20
227.942680
 30
0.0
 10
71.691215
 20
235.921179
 30
0.0
 10
77.374214
 20
233.184879
 30
0.0
 10
77.932616
 20
217.228481
 30
0.0
 10
77.947828
 20
217.054781
 30
0.0
 10
77.992915
 20
216.886379
 30
0.0
 10
78.066615
 20
216.728380
 30
0.0
 10
78.166615
 20
216.585680
 30
0.0
 10
78.289816
 20
216.462380
 30
0.0
 10
78.432615
 20
216.362380
 30
0.0
 10
78.590614
 20
216.288779
 30
0.0
 10
78.759016
 20
216.243680
 30
0.0
 10
78.932614
 20
216.228384
 30
0.0
 10
79.106316
 20
216.243677
 30
0.0
 10
79.274616
 20
216.288779
 30
0.0
 10
79.432616
 20
216.362380
 30
0.0
 10
79.575414
 20
216.462380
 30
0.0
 10
79.698715
 20
216.585680
 30
0.0
 10
79.798714
 20
216.728479
 30
0.0
 10
79.872315
 20
216.886379
 30
0.0
 10
79.917414
 20
217.054781
 30
0.0
 10
79.932626
 20
217.228481
 30
0.0
 10
80.439415
 20
231.708879
 30
0.0
 10
87.092914
 20
228.505279
 30
0.0
 10
87.250916
 20
228.431580
 30
0.0
 10
87.419214
 20
228.386480
 30
0.0
 10
87.592916
 20
228.371269
 30
0.0
 10
87.766514
 20
228.386492
 30
0.0
 10
87.934916
 20
228.431580
 30
0.0
 10
88.092915
 20
228.505279
 30
0.0
 10
88.235714
 20
228.605279
 30
0.0
 10
88.358915
 20
228.728480
 30
0.0
 10
88.458915
 20
228.871279
 30
0.0
 10
88.532614
 20
229.029281
 30
0.0
 10
88.577716
 20
229.197680
 30
0.0
 10
88.592900
 20
229.371281
 30
0.0
 10
88.577730
 20
229.544881
 30
0.0
 10
88.532614
 20
229.713281
 30
0.0
 10
88.458915
 20
229.871280
 30
0.0
 10
88.358915
 20
230.014079
 30
0.0
 10
88.235714
 20
230.137379
 30
0.0
 10
88.092915
 20
230.237280
 30
0.0
 10
81.991714
 20
234.397580
 30
0.0
 10
94.278814
 20
242.076691
 30
0.0
 10
94.421514
 20
242.176671
 30
0.0
 10
94.544814
 20
242.299929
 30
0.0
 10
94.644814
 20
242.442711
 30
0.0
 10
94.718516
 20
242.600699
 30
0.0
 10
94.763615
 20
242.769061
 30
0.0
 10
94.778827
 20
242.942721
 30
0.0
 10
94.763604
 20
243.116369
 30
0.0
 10
94.718516
 20
243.284729
 30
0.0
 10
94.644814
 20
243.442720
 30
0.0
 10
94.544814
 20
243.585499
 30
0.0
 10
94.421514
 20
243.708760
 30
0.0
 10
94.278814
 20
243.808731
 30
0.0
 10
94.120815
 20
243.882400
 30
0.0
 10
93.952416
 20
243.927510
 30
0.0
 10
93.778815
 20
243.942722
 30
0.0
 10
93.605116
 20
243.927535
 30
0.0
 10
93.436714
 20
243.882419
 30
0.0
 10
93.278816
 20
243.808731
 30
0.0
 10
79.180916
 20
236.314179
 30
0.0
 10
73.969716
 20
239.867571
 30
0.0
 10
80.669816
 20
244.219551
 30
0.0
 10
80.812615
 20
244.319519
 30
0.0
 10
80.935816
 20
244.442780
 30
0.0
 10
81.035816
 20
244.585570
 30
0.0
 10
81.109515
 20
244.743550
 30
0.0
 10
81.154614
 20
244.911910
 30
0.0
 10
81.169826
 20
245.085569
 30
0.0
 10
81.154603
 20
245.259221
 30
0.0
 10
81.109515
 20
245.427580
 30
0.0
 10
81.035816
 20
245.585571
 30
0.0
 10
80.935816
 20
245.728350
 30
0.0
 10
80.812615
 20
245.851611
 30
0.0
 10
80.669816
 20
245.951599
 30
0.0
 10
80.511814
 20
246.025259
 30
0.0
 10
80.343415
 20
246.070381
 30
0.0
 10
80.169814
 20
246.085565
 30
0.0
 10
79.996115
 20
246.070387
 30
0.0
 10
79.827814
 20
246.025259
 30
0.0
 10
79.669815
 20
245.951599
 30
0.0
 10
71.300015
 20
241.687950
 30
0.0
 10
65.797314
 20
245.440159
 30
0.0
 10
67.203616
 20
246.462390
 30
0.0
 10
67.326916
 20
246.585640
 30
0.0
 10
67.426815
 20
246.728430
 30
0.0
 10
67.500514
 20
246.886401
 30
0.0
 10
67.545616
 20
247.054781
 30
0.0
 10
67.560828
 20
247.228429
 30
0.0
 10
67.545602
 20
247.402069
 30
0.0
 10
67.500514
 20
247.570451
 30
0.0
 10
67.426815
 20
247.728431
 30
0.0
 10
67.326916
 20
247.871199
 30
0.0
 10
67.203616
 20
247.994479
 30
0.0
 10
67.060815
 20
248.094459
 30
0.0
 10
66.902815
 20
248.168119
 30
0.0
 10
66.734515
 20
248.213229
 30
0.0
 10
66.560816
 20
248.228441
 30
0.0
 10
66.387215
 20
248.213246
 30
0.0
 10
66.218816
 20
248.168111
 30
0.0
 10
63.542816
 20
246.977401
 30
0.0
 10
60.032124
 20
249.371280
 30
0.0
 10
63.542816
 20
251.765160
 30
0.0
 10
66.218816
 20
250.574450
 30
0.0
 10
66.387215
 20
250.529320
 30
0.0
 10
66.560816
 20
250.514136
 30
0.0
 10
66.734515
 20
250.529343
 30
0.0
 10
66.902815
 20
250.574439
 30
0.0
 10
67.060815
 20
250.648099
 30
0.0
 10
67.203616
 20
250.748079
 30
0.0
 10
67.326916
 20
250.871359
 30
0.0
 10
67.426815
 20
251.014130
 30
0.0
 10
67.500514
 20
251.172109
 30
0.0
 10
67.545616
 20
251.340489
 30
0.0
 10
67.560828
 20
251.514129
 30
0.0
 10
67.545602
 20
251.687780
 30
0.0
 10
67.500514
 20
251.856159
 30
0.0
 10
67.426815
 20
252.014131
 30
0.0
 10
67.326916
 20
252.156921
 30
0.0
 10
67.203616
 20
252.280170
 30
0.0
 10
65.797314
 20
253.302399
 30
0.0
 10
71.300015
 20
257.054611
 30
0.0
 10
79.669815
 20
252.790961
 30
0.0
 10
79.827814
 20
252.717301
 30
0.0
 10
79.996115
 20
252.672180
 30
0.0
 10
80.169814
 20
252.656996
 30
0.0
 10
80.343415
 20
252.672174
 30
0.0
 10
80.511814
 20
252.717301
 30
0.0
 10
80.669816
 20
252.790961
 30
0.0
 10
80.812615
 20
252.890950
 30
0.0
 10
80.935816
 20
253.014210
 30
0.0
 10
81.035816
 20
253.156989
 30
0.0
 10
81.109515
 20
253.314980
 30
0.0
 10
81.154614
 20
253.483340
 30
0.0
 10
81.169826
 20
253.656991
 30
0.0
 10
81.154603
 20
253.830651
 30
0.0
 10
81.109515
 20
253.999011
 30
0.0
 10
81.035816
 20
254.156990
 30
0.0
 10
80.935816
 20
254.299781
 30
0.0
 10
80.812615
 20
254.423041
 30
0.0
 10
80.669816
 20
254.523010
 30
0.0
 10
73.969716
 20
258.874992
 30
0.0
 10
79.180916
 20
262.428382
 30
0.0
 10
93.278816
 20
254.933830
 30
0.0
 10
93.436714
 20
254.860141
 30
0.0
 10
93.605116
 20
254.815039
 30
0.0
 10
93.778815
 20
254.799828
 30
0.0
 10
93.952416
 20
254.815051
 30
0.0
 10
94.120815
 20
254.860161
 30
0.0
 10
94.278814
 20
254.933830
 30
0.0
 10
94.421514
 20
255.033801
 30
0.0
 10
94.544814
 20
255.157059
 30
0.0
 10
94.644814
 20
255.299841
 30
0.0
 10
94.718516
 20
255.457829
 30
0.0
 10
94.763615
 20
255.626191
 30
0.0
 10
94.778827
 20
255.799840
 30
0.0
 10
94.763604
 20
255.973499
 30
0.0
 10
94.718516
 20
256.141859
 30
0.0
 10
94.644814
 20
256.299850
 30
0.0
 10
94.544814
 20
256.442629
 30
0.0
 10
94.421514
 20
256.565890
 30
0.0
 10
94.278814
 20
256.665870
 30
0.0
 10
81.991714
 20
264.344981
 30
0.0
 10
88.092915
 20
268.505281
 30
0.0
 10
88.235714
 20
268.605182
 30
0.0
 10
88.358915
 20
268.728482
 30
0.0
 10
88.458915
 20
268.871281
 30
0.0
 10
88.532614
 20
269.029281
 30
0.0
 10
88.577716
 20
269.197681
 30
0.0
 10
88.592900
 20
269.371281
 30
0.0
 10
88.577730
 20
269.544881
 30
0.0
 10
88.532614
 20
269.713281
 30
0.0
 10
88.458915
 20
269.871281
 30
0.0
 10
88.358915
 20
270.014081
 30
0.0
 10
88.235714
 20
270.137281
 30
0.0
 10
88.092915
 20
270.237281
 30
0.0
 10
87.934916
 20
270.310981
 30
0.0
 10
87.766514
 20
270.356081
 30
0.0
 10
87.592916
 20
270.371282
 30
0.0
 10
87.419214
 20
270.356081
 30
0.0
 10
87.250916
 20
270.310981
 30
0.0
 10
87.092914
 20
270.237281
 30
0.0
 10
80.439415
 20
267.033681
 30
0.0
 10
79.932615
 20
281.514081
 30
0.0
 10
79.917403
 20
281.687781
 30
0.0
 10
79.872315
 20
281.856181
 30
0.0
 10
79.798714
 20
282.014081
 30
0.0
 10
79.698715
 20
282.156881
 30
0.0
 10
79.575414
 20
282.280181
 30
0.0
 10
79.432616
 20
282.380181
 30
0.0
 10
79.274616
 20
282.453781
 30
0.0
 10
79.106316
 20
282.498881
 30
0.0
 10
78.932614
 20
282.514180
 30
0.0
 10
78.759016
 20
282.498882
 30
0.0
 10
78.590614
 20
282.453781
 30
0.0
 10
78.432615
 20
282.380181
 30
0.0
 10
78.289816
 20
282.280181
 30
0.0
 10
78.166615
 20
282.156881
 30
0.0
 10
78.066615
 20
282.014181
 30
0.0
 10
77.992915
 20
281.856181
 30
0.0
 10
77.947816
 20
281.687781
 30
0.0
 10
77.932605
 20
281.514081
 30
0.0
 10
77.374214
 20
265.557681
 30
0.0
 10
71.691215
 20
262.821382
 30
0.0
 10
71.272414
 20
270.799881
 30
0.0
 10
71.257202
 20
270.973481
 30
0.0
 10
71.212115
 20
271.141881
 30
0.0
 10
71.138415
 20
271.299881
 30
0.0
 10
71.038415
 20
271.442581
 30
0.0
 10
70.915214
 20
271.565881
 30
0.0
 10
70.772415
 20
271.665881
 30
0.0
 10
70.614416
 20
271.739481
 30
0.0
 10
70.446014
 20
271.784681
 30
0.0
 10
70.272416
 20
271.799882
 30
0.0
 10
70.098714
 20
271.784681
 30
0.0
 10
69.930315
 20
271.739481
 30
0.0
 10
69.772414
 20
271.665881
 30
0.0
 10
69.629615
 20
271.565881
 30
0.0
 10
69.506315
 20
271.442581
 30
0.0
 10
69.406316
 20
271.299881
 30
0.0
 10
69.332715
 20
271.141881
 30
0.0
 10
69.287616
 20
270.973481
 30
0.0
 10
69.272404
 20
270.799881
 30
0.0
 10
68.779915
 20
261.419581
 30
0.0
 10
62.779015
 20
258.530170
 30
0.0
 10
62.596914
 20
260.259182
 30
0.0
 10
62.551815
 20
260.427581
 30
0.0
 10
62.478116
 20
260.585581
 30
0.0
 10
62.378215
 20
260.728382
 30
0.0
 10
62.254915
 20
260.851581
 30
0.0
 10
62.112116
 20
260.951581
 30
0.0
 10
61.954114
 20
261.025280
 30
0.0
 10
61.785816
 20
261.070382
 30
0.0
 10
61.612114
 20
261.085594
 30
0.0
 10
61.438516
 20
261.070368
 30
0.0
 10
61.270114
 20
261.025280
 30
0.0
 10
61.112115
 20
260.951581
 30
0.0
 10
60.969316
 20
260.851581
 30
0.0
 10
60.846115
 20
260.728382
 30
0.0
 10
60.746115
 20
260.585581
 30
0.0
 10
60.672416
 20
260.427581
 30
0.0
 10
60.627314
 20
260.259182
 30
0.0
 10
60.320535
 20
257.346389
 30
0.0
 10
56.491996
 20
255.502950
 30
0.0
 10
56.174205
 20
259.740280
 30
0.0
 10
58.543376
 20
261.462380
 30
0.0
 10
58.666634
 20
261.585582
 30
0.0
 10
58.766614
 20
261.728380
 30
0.0
 10
58.840285
 20
261.886382
 30
0.0
 10
58.885404
 20
262.054782
 30
0.0
 10
58.900588
 20
262.228382
 30
0.0
 10
58.885413
 20
262.402081
 30
0.0
 10
58.840285
 20
262.570481
 30
0.0
 10
58.766614
 20
262.728381
 30
0.0
 10
58.666634
 20
262.871180
 30
0.0
 10
58.543376
 20
262.994480
 30
0.0
 10
58.400594
 20
263.094480
 30
0.0
 10
58.242606
 20
263.168081
 30
0.0
 10
58.074244
 20
263.213182
 30
0.0
 10
57.900595
 20
263.228394
 30
0.0
 10
57.726936
 20
263.213168
 30
0.0
 10
57.558576
 20
263.168081
 30
0.0
 10
55.970136
 20
262.461280
 30
0.0
 10
55.472005
 20
269.102981
 30
0.0
 10
63.349316
 20
274.219581
 30
0.0
 10
63.492115
 20
274.319481
 30
0.0
 10
63.615316
 20
274.442781
 30
0.0
 10
63.715316
 20
274.585581
 30
0.0
 10
63.789015
 20
274.743581
 30
0.0
 10
63.834114
 20
274.911881
 30
0.0
 10
63.849326
 20
275.085581
 30
0.0
 10
63.834103
 20
275.259181
 30
0.0
 10
63.789015
 20
275.427581
 30
0.0
 10
63.715316
 20
275.585581
 30
0.0
 10
63.615316
 20
275.728381
 30
0.0
 10
63.492115
 20
275.851581
 30
0.0
 10
63.349316
 20
275.951581
 30
0.0
 10
63.191314
 20
276.025281
 30
0.0
 10
63.022915
 20
276.070381
 30
0.0
 10
62.849314
 20
276.085582
 30
0.0
 10
62.675615
 20
276.070381
 30
0.0
 10
62.507314
 20
276.025281
 30
0.0
 10
62.349315
 20
275.951581
 30
0.0
 10
55.230344
 20
272.325081
 30
0.0
 10
54.758615
 20
278.614881
 30
0.0
 10
68.298015
 20
287.076681
 30
0.0
 10
68.440814
 20
287.176681
 30
0.0
 10
68.564114
 20
287.299881
 30
0.0
 10
68.664015
 20
287.442681
 30
0.0
 10
68.737714
 20
287.600681
 30
0.0
 10
68.782816
 20
287.769081
 30
0.0
 10
68.798028
 20
287.942681
 30
0.0
 10
68.782802
 20
288.116381
 30
0.0
 10
68.737714
 20
288.284681
 30
0.0
 10
68.664015
 20
288.442681
 30
0.0
 10
68.564114
 20
288.585481
 30
0.0
 10
68.440814
 20
288.708781
 30
0.0
 10
68.298015
 20
288.808681
 30
0.0
 10
68.140016
 20
288.882381
 30
0.0
 10
67.971715
 20
288.927481
 30
0.0
 10
67.798016
 20
288.942681
 30
0.0
 10
67.624415
 20
288.927480
 30
0.0
 10
67.456016
 20
288.882381
 30
0.0
 10
67.298014
 20
288.808681
 30
0.0
 10
58.941524
 20
284.366381
 30
0.0
 10
58.930122
 20
284.547281
 30
0.0
 10
58.859555
 20
284.917381
 30
0.0
 10
58.743125
 20
285.275681
 30
0.0
 10
58.582715
 20
285.616481
 30
0.0
 10
58.380856
 20
285.934581
 30
0.0
 10
58.140716
 20
286.224881
 30
0.0
 10
57.866066
 20
286.482781
 30
0.0
 10
57.561274
 20
286.704281
 30
0.0
 10
57.231136
 20
286.885781
 30
0.0
 10
56.880856
 20
287.024481
 30
0.0
 10
56.515934
 20
287.118081
 30
0.0
 10
56.142176
 20
287.165381
 30
0.0
 10
55.765435
 20
287.165381
 30
0.0
 10
55.391674
 20
287.118081
 30
0.0
 10
55.026755
 20
287.024481
 30
0.0
 10
54.676475
 20
286.885781
 30
0.0
 10
54.346334
 20
286.704281
 30
0.0
 10
54.161955
 20
286.570281
 30
0.0
 10
53.951886
 20
289.371281
 30
0.0
 10
53.936674
 20
289.544881
 30
0.0
 10
53.891564
 20
289.713281
 30
0.0
 10
53.817895
 20
289.871281
 30
0.0
 10
53.717924
 20
290.014081
 30
0.0
 10
53.594655
 20
290.137281
 30
0.0
 10
53.451864
 20
290.237281
 30
0.0
 10
53.293896
 20
290.310981
 30
0.0
 10
53.125525
 20
290.356081
 30
0.0
 10
52.951885
 20
290.371282
 30
0.0
 10
52.951885
 20
236.037979
 30
0.0
 10
47.755745
 20
236.037979
 30
0.0
 10
47.755745
 20
290.371281
 30
0.0
 10
47.582105
 20
290.356081
 30
0.0
 10
47.413734
 20
290.310981
 30
0.0
 10
47.255766
 20
290.237281
 30
0.0
 10
47.112976
 20
290.137281
 30
0.0
 10
46.989704
 20
290.014081
 30
0.0
 10
46.889735
 20
289.871281
 30
0.0
 10
46.816064
 20
289.713281
 30
0.0
 10
46.770945
 20
289.544881
 30
0.0
 10
46.755733
 20
289.371281
 30
0.0
 10
46.203455
 20
282.007381
 30
0.0
 10
33.409616
 20
288.808681
 30
0.0
 10
33.251614
 20
288.882381
 30
0.0
 10
33.083215
 20
288.927481
 30
0.0
 10
32.909614
 20
288.942681
 30
0.0
 10
32.735915
 20
288.927480
 30
0.0
 10
32.567615
 20
288.882381
 30
0.0
 10
32.409615
 20
288.808681
 30
0.0
 10
32.266814
 20
288.708781
 30
0.0
 10
32.143514
 20
288.585481
 30
0.0
 10
32.043616
 20
288.442681
 30
0.0
 10
31.969916
 20
288.284681
 30
0.0
 10
31.924814
 20
288.116381
 30
0.0
 10
31.909602
 20
287.942681
 30
0.0
 10
31.924825
 20
287.769081
 30
0.0
 10
31.969916
 20
287.600681
 30
0.0
 10
32.043616
 20
287.442681
 30
0.0
 10
32.143514
 20
287.299881
 30
0.0
 10
32.266814
 20
287.176681
 30
0.0
 10
32.409615
 20
287.076681
 30
0.0
 10
45.949015
 20
278.614881
 30
0.0
 10
45.477286
 20
272.325081
 30
0.0
 10
38.358315
 20
275.951581
 30
0.0
 10
38.200316
 20
276.025281
 30
0.0
 10
38.032015
 20
276.070381
 30
0.0
 10
37.858316
 20
276.085582
 30
0.0
 10
37.684716
 20
276.070381
 30
0.0
 10
37.516314
 20
276.025281
 30
0.0
 10
37.358314
 20
275.951581
 30
0.0
 10
37.215516
 20
275.851581
 30
0.0
 10
37.092314
 20
275.728381
 30
0.0
 10
36.992314
 20
275.585581
 30
0.0
 10
36.918615
 20
275.427581
 30
0.0
 10
36.873516
 20
275.259181
 30
0.0
 10
36.858304
 20
275.085581
 30
0.0
 10
36.873527
 20
274.911881
 30
0.0
 10
36.918615
 20
274.743581
 30
0.0
 10
36.992314
 20
274.585581
 30
0.0
 10
37.092314
 20
274.442781
 30
0.0
 10
37.215516
 20
274.319481
 30
0.0
 10
37.358314
 20
274.219581
 30
0.0
 10
45.235625
 20
269.102981
 30
0.0
 10
44.737494
 20
262.461280
 30
0.0
 10
43.149054
 20
263.168081
 30
0.0
 10
42.980695
 20
263.213182
 30
0.0
 10
42.807035
 20
263.228394
 30
0.0
 10
42.633386
 20
263.213168
 30
0.0
 10
42.465024
 20
263.168081
 30
0.0
 10
42.307036
 20
263.094480
 30
0.0
 10
42.164254
 20
262.994480
 30
0.0
 10
42.040996
 20
262.871180
 30
0.0
 10
41.941016
 20
262.728381
 30
0.0
 10
41.867345
 20
262.570481
 30
0.0
 10
41.822226
 20
262.402081
 30
0.0
 10
41.807043
 20
262.228382
 30
0.0
 10
41.822218
 20
262.054782
 30
0.0
 10
41.867345
 20
261.886382
 30
0.0
 10
41.941016
 20
261.728380
 30
0.0
 10
42.040996
 20
261.585582
 30
0.0
 10
42.164254
 20
261.462380
 30
0.0
 10
44.533425
 20
259.740280
 30
0.0
 10
44.215634
 20
255.502950
 30
0.0
 10
40.387095
 20
257.346389
 30
0.0
 10
40.080314
 20
260.259182
 30
0.0
 10
40.035215
 20
260.427581
 30
0.0
 10
39.961515
 20
260.585581
 30
0.0
 10
39.861515
 20
260.728382
 30
0.0
 10
39.738314
 20
260.851581
 30
0.0
 10
39.595515
 20
260.951581
 30
0.0
 10
39.437516
 20
261.025280
 30
0.0
 10
39.269114
 20
261.070382
 30
0.0
 10
39.095516
 20
261.085594
 30
0.0
 10
38.921814
 20
261.070368
 30
0.0
 10
38.753514
 20
261.025280
 30
0.0
 10
38.595514
 20
260.951581
 30
0.0
 10
38.452716
 20
260.851581
 30
0.0
 10
38.329416
 20
260.728382
 30
0.0
 10
38.229515
 20
260.585581
 30
0.0
 10
38.155815
 20
260.427581
 30
0.0
 10
38.110716
 20
260.259182
 30
0.0
 10
37.928615
 20
258.530170
 30
0.0
 10
31.927715
 20
261.419581
 30
0.0
 10
31.435215
 20
270.799881
 30
0.0
 10
31.420003
 20
270.973481
 30
0.0
 10
31.374915
 20
271.141881
 30
0.0
 10
31.301315
 20
271.299881
 30
0.0
 10
31.201315
 20
271.442581
 30
0.0
 10
31.078015
 20
271.565881
 30
0.0
 10
30.935216
 20
271.665881
 30
0.0
 10
30.777315
 20
271.739481
 30
0.0
 10
30.608916
 20
271.784681
 30
0.0
 10
30.435217
 20
271.799882
 30
0.0
 10
30.261616
 20
271.784681
 30
0.0
 10
30.093217
 20
271.739481
 30
0.0
 10
29.935215
 20
271.665881
 30
0.0
 10
29.792416
 20
271.565881
 30
0.0
 10
29.669215
 20
271.442581
 30
0.0
 10
29.569215
 20
271.299881
 30
0.0
 10
29.495516
 20
271.141881
 30
0.0
 10
29.450417
 20
270.973481
 30
0.0
 10
29.435205
 20
270.799881
 30
0.0
 10
29.016415
 20
262.821382
 30
0.0
 10
23.333416
 20
265.557681
 30
0.0
 10
22.775016
 20
281.514081
 30
0.0
 10
22.759816
 20
281.687781
 30
0.0
 10
22.714716
 20
281.856181
 30
0.0
 10
22.641016
 20
282.014181
 30
0.0
 10
22.541016
 20
282.156881
 30
0.0
 10
22.417816
 20
282.280181
 30
0.0
 10
22.275016
 20
282.380181
 30
0.0
 10
22.117016
 20
282.453781
 30
0.0
 10
21.948616
 20
282.498881
 30
0.0
 10
21.775016
 20
282.514180
 30
0.0
 10
21.601316
 20
282.498882
 30
0.0
 10
21.433016
 20
282.453781
 30
0.0
 10
21.275016
 20
282.380181
 30
0.0
 10
21.132216
 20
282.280181
 30
0.0
 10
21.008916
 20
282.156881
 30
0.0
 10
20.908916
 20
282.014081
 30
0.0
 10
20.835316
 20
281.856181
 30
0.0
 10
20.790216
 20
281.687781
 30
0.0
 10
20.775016
 20
281.514081
 30
0.0
 10
20.268216
 20
267.033681
 30
0.0
 10
13.614716
 20
270.237281
 30
0.0
 10
13.456716
 20
270.310981
 30
0.0
 10
13.288416
 20
270.356081
 30
0.0
 10
13.114716
 20
270.371282
 30
0.0
 10
12.941116
 20
270.356081
 30
0.0
 10
12.772716
 20
270.310981
 30
0.0
 10
12.614716
 20
270.237281
 30
0.0
 10
12.471916
 20
270.137281
 30
0.0
 10
12.348716
 20
270.014081
 30
0.0
 10
12.248716
 20
269.871281
 30
0.0
 10
12.175016
 20
269.713281
 30
0.0
 10
12.129916
 20
269.544881
 30
0.0
 10
12.114716
 20
269.371281
 30
0.0
 10
12.129917
 20
269.197681
 30
0.0
 10
12.175016
 20
269.029281
 30
0.0
 10
12.248716
 20
268.871281
 30
0.0
 10
12.348716
 20
268.728482
 30
0.0
 10
12.471916
 20
268.605182
 30
0.0
 10
12.614716
 20
268.505281
 30
0.0
 10
18.715916
 20
264.344981
 30
0.0
 10
6.428816
 20
256.665870
 30
0.0
 10
6.286116
 20
256.565890
 30
0.0
 10
6.162816
 20
256.442629
 30
0.0
 10
6.062816
 20
256.299850
 30
0.0
 10
5.989116
 20
256.141859
 30
0.0
 10
5.944016
 20
255.973499
 30
0.0
 10
5.928816
 20
255.799840
 30
0.0
 10
5.944017
 20
255.626191
 30
0.0
 10
5.989116
 20
255.457829
 30
0.0
 10
6.062816
 20
255.299841
 30
0.0
 10
6.162816
 20
255.157059
 30
0.0
 10
6.286116
 20
255.033801
 30
0.0
 10
6.428816
 20
254.933830
 30
0.0
 10
6.586816
 20
254.860161
 30
0.0
 10
6.755216
 20
254.815051
 30
0.0
 10
6.928816
 20
254.799839
 30
0.0
 10
7.102516
 20
254.815051
 30
0.0
 10
7.270916
 20
254.860141
 30
0.0
 10
7.428816
 20
254.933830
 30
0.0
 10
21.526716
 20
262.428382
 30
0.0
 10
26.737916
 20
258.874992
 30
0.0
 10
20.037816
 20
254.523010
 30
0.0
 10
19.895016
 20
254.423041
 30
0.0
 10
19.771816
 20
254.299781
 30
0.0
 10
19.671816
 20
254.156990
 30
0.0
 10
19.598116
 20
253.999011
 30
0.0
 10
19.553016
 20
253.830651
 30
0.0
 10
19.537816
 20
253.656991
 30
0.0
 10
19.553017
 20
253.483340
 30
0.0
 10
19.598116
 20
253.314980
 30
0.0
 10
19.671816
 20
253.156989
 30
0.0
 10
19.771816
 20
253.014210
 30
0.0
 10
19.895016
 20
252.890950
 30
0.0
 10
20.037816
 20
252.790961
 30
0.0
 10
20.195816
 20
252.717301
 30
0.0
 10
20.364216
 20
252.672180
 30
0.0
 10
20.537816
 20
252.656996
 30
0.0
 10
20.711516
 20
252.672174
 30
0.0
 10
20.879816
 20
252.717301
 30
0.0
 10
21.037816
 20
252.790961
 30
0.0
 10
29.407618
 20
257.054611
 30
0.0
 10
34.910316
 20
253.302399
 30
0.0
 10
33.504014
 20
252.280170
 30
0.0
 10
33.380714
 20
252.156921
 30
0.0
 10
33.280816
 20
252.014131
 30
0.0
 10
33.207116
 20
251.856159
 30
0.0
 10
33.162014
 20
251.687780
 30
0.0
 10
33.146802
 20
251.514129
 30
0.0
 10
33.162026
 20
251.340489
 30
0.0
 10
33.207116
 20
251.172109
 30
0.0
 10
33.280816
 20
251.014130
 30
0.0
 10
33.380714
 20
250.871359
 30
0.0
 10
33.504014
 20
250.748079
 30
0.0
 10
33.646816
 20
250.648099
 30
0.0
 10
33.804815
 20
250.574439
 30
0.0
 10
33.973115
 20
250.529331
 30
0.0
 10
34.146815
 20
250.514119
 30
0.0
 10
34.320415
 20
250.529314
 30
0.0
 10
34.488814
 20
250.574450
 30
0.0
 10
37.164814
 20
251.765160
 30
0.0
 10
40.675506
 20
249.371280
 30
0.0
 10
37.164814
 20
246.977401
 30
0.0
 10
34.488814
 20
248.168111
 30
0.0
 10
34.320415
 20
248.213241
 30
0.0
 10
34.146815
 20
248.228424
 30
0.0
 10
33.973115
 20
248.213218
 30
0.0
 10
33.804815
 20
248.168119
 30
0.0
 10
33.646816
 20
248.094459
 30
0.0
 10
33.504014
 20
247.994479
 30
0.0
 10
33.380714
 20
247.871199
 30
0.0
 10
33.280816
 20
247.728431
 30
0.0
 10
33.207116
 20
247.570451
 30
0.0
 10
33.162014
 20
247.402069
 30
0.0
 10
33.146802
 20
247.228429
 30
0.0
 10
33.162026
 20
247.054781
 30
0.0
 10
33.207116
 20
246.886401
 30
0.0
 10
33.280816
 20
246.728430
 30
0.0
 10
33.380714
 20
246.585640
 30
0.0
 10
33.504014
 20
246.462390
 30
0.0
 10
34.910316
 20
245.440159
 30
0.0
 10
29.407618
 20
241.687950
 30
0.0
 10
21.037816
 20
245.951599
 30
0.0
 10
20.879816
 20
246.025259
 30
0.0
 10
20.711516
 20
246.070381
 30
0.0
 10
20.537816
 20
246.085565
 30
0.0
 10
20.364216
 20
246.070387
 30
0.0
 10
20.195816
 20
246.025259
 30
0.0
 10
20.037816
 20
245.951599
 30
0.0
 10
19.895016
 20
245.851611
 30
0.0
 10
19.771816
 20
245.728350
 30
0.0
 10
19.671816
 20
245.585571
 30
0.0
 10
19.598116
 20
245.427580
 30
0.0
 10
19.553016
 20
245.259221
 30
0.0
 10
19.537816
 20
245.085569
 30
0.0
 10
19.553017
 20
244.911910
 30
0.0
 10
19.598116
 20
244.743550
 30
0.0
 10
19.671816
 20
244.585570
 30
0.0
 10
19.771816
 20
244.442780
 30
0.0
 10
19.895016
 20
244.319519
 30
0.0
 10
20.037816
 20
244.219551
 30
0.0
 10
26.737916
 20
239.867571
 30
0.0
 10
21.526716
 20
236.314179
 30
0.0
 10
7.428816
 20
243.808731
 30
0.0
 10
7.270916
 20
243.882419
 30
0.0
 10
7.102516
 20
243.927521
 30
0.0
 10
6.928816
 20
243.942705
 30
0.0
 10
6.755216
 20
243.927507
 30
0.0
 10
6.586816
 20
243.882400
 30
0.0
 10
6.428816
 20
243.808731
 30
0.0
 10
6.286116
 20
243.708760
 30
0.0
 10
6.162816
 20
243.585499
 30
0.0
 10
6.062816
 20
243.442720
 30
0.0
 10
5.989116
 20
243.284729
 30
0.0
 10
5.944016
 20
243.116369
 30
0.0
 10
5.928816
 20
242.942721
 30
0.0
 10
5.944017
 20
242.769061
 30
0.0
 10
5.989116
 20
242.600699
 30
0.0
 10
6.062816
 20
242.442711
 30
0.0
 10
6.162816
 20
242.299929
 30
0.0
 10
6.286116
 20
242.176671
 30
0.0
 10
6.428816
 20
242.076691
 30
0.0
 10
18.715916
 20
234.397580
 30
0.0
 10
12.614716
 20
230.237280
 30
0.0
 10
12.471916
 20
230.137379
 30
0.0
 10
12.348716
 20
230.014079
 30
0.0
 10
12.248716
 20
229.871280
 30
0.0
 10
12.175016
 20
229.713281
 30
0.0
 10
12.129916
 20
229.544881
 30
0.0
 10
12.114716
 20
229.371281
 30
0.0
 10
12.129917
 20
229.197680
 30
0.0
 10
12.175016
 20
229.029281
 30
0.0
 10
12.248716
 20
228.871279
 30
0.0
 10
12.348716
 20
228.728480
 30
0.0
 10
12.471916
 20
228.605279
 30
0.0
 10
12.614716
 20
228.505279
 30
0.0
 10
12.772716
 20
228.431580
 30
0.0
 10
12.941116
 20
228.386480
 30
0.0
 10
13.114716
 20
228.371269
 30
0.0
 10
13.288416
 20
228.386492
 30
0.0
 10
13.456716
 20
228.431580
 30
0.0
 10
13.614716
 20
228.505279
 30
0.0
 10
20.268216
 20
231.708879
 30
0.0
 10
20.775016
 20
217.228481
 30
0.0
 10
20.790217
 20
217.054781
 30
0.0
 10
20.835316
 20
216.886379
 30
0.0
 10
20.908916
 20
216.728479
 30
0.0
 10
21.008916
 20
216.585680
 30
0.0
 10
21.132216
 20
216.462380
 30
0.0
 10
21.275016
 20
216.362380
 30
0.0
 10
21.433016
 20
216.288779
 30
0.0
 10
21.601316
 20
216.243680
 30
0.0
 10
21.775016
 20
216.228384
 30
0.0
 10
21.948616
 20
216.243677
 30
0.0
 10
22.117016
 20
216.288779
 30
0.0
 10
22.275016
 20
216.362380
 30
0.0
 10
22.417816
 20
216.462380
 30
0.0
 10
22.541016
 20
216.585680
 30
0.0
 10
22.641016
 20
216.728380
 30
0.0
 10
22.714716
 20
216.886379
 30
0.0
 10
22.759816
 20
217.054781
 30
0.0
 10
22.775017
 20
217.228481
 30
0.0
 10
23.333416
 20
233.184879
 30
0.0
 10
29.016415
 20
235.921179
 30
0.0
 10
29.435216
 20
227.942680
 30
0.0
 10
29.450428
 20
227.769080
 30
0.0
 10
29.495516
 20
227.600681
 30
0.0
 10
29.569215
 20
227.442679
 30
0.0
 10
29.669215
 20
227.299981
 30
0.0
 10
29.792416
 20
227.176681
 30
0.0
 10
29.935215
 20
227.076679
 30
0.0
 10
30.093217
 20
227.003081
 30
0.0
 10
30.261616
 20
226.957880
 30
0.0
 10
30.435217
 20
226.942668
 30
0.0
 10
30.608916
 20
226.957891
 30
0.0
 10
30.777315
 20
227.003081
 30
0.0
 10
30.935216
 20
227.076679
 30
0.0
 10
31.078015
 20
227.176681
 30
0.0
 10
31.201315
 20
227.299981
 30
0.0
 10
31.301315
 20
227.442679
 30
0.0
 10
31.374915
 20
227.600681
 30
0.0
 10
31.420014
 20
227.769080
 30
0.0
 10
31.435226
 20
227.942680
 30
0.0
 10
31.927715
 20
237.322979
 30
0.0
 10
37.928615
 20
240.212390
 30
0.0
 10
38.110716
 20
238.483381
 30
0.0
 10
38.155815
 20
238.314979
 30
0.0
 10
38.229515
 20
238.156980
 30
0.0
 10
38.329416
 20
238.014181
 30
0.0
 10
38.452716
 20
237.890980
 30
0.0
 10
38.595514
 20
237.790980
 30
0.0
 10
38.753514
 20
237.717281
 30
0.0
 10
38.921814
 20
237.672179
 30
0.0
 10
39.095516
 20
237.656967
 30
0.0
 10
39.269114
 20
237.672193
 30
0.0
 10
39.437516
 20
237.717281
 30
0.0
 10
39.595515
 20
237.790980
 30
0.0
 10
39.738314
 20
237.890980
 30
0.0
 10
39.861515
 20
238.014181
 30
0.0
 10
39.961515
 20
238.156980
 30
0.0
 10
40.035215
 20
238.314979
 30
0.0
 10
40.080314
 20
238.483381
 30
0.0
 10
40.387095
 20
241.396169
 30
0.0
 10
44.215634
 20
243.239610
 30
0.0
 10
44.533445
 20
239.002281
 30
0.0
 10
42.164274
 20
237.280180
 30
0.0
 10
42.041005
 20
237.156979
 30
0.0
 10
41.941036
 20
237.014180
 30
0.0
 10
41.867365
 20
236.856181
 30
0.0
 10
41.822246
 20
236.687779
 30
0.0
 10
41.807034
 20
236.514181
 30
0.0
 10
41.822257
 20
236.340479
 30
0.0
 10
41.867365
 20
236.172080
 30
0.0
 10
41.941036
 20
236.014179
 30
0.0
 10
42.041005
 20
235.871381
 30
0.0
 10
42.164274
 20
235.748081
 30
0.0
 10
42.307044
 20
235.648081
 30
0.0
 10
42.465035
 20
235.574480
 30
0.0
 10
42.633406
 20
235.529381
 30
0.0
 10
42.807046
 20
235.514169
 30
0.0
 10
42.980706
 20
235.529392
 30
0.0
 10
43.149074
 20
235.574480
 30
0.0
 10
44.737514
 20
236.281280
 30
0.0
 10
45.235636
 20
229.639581
 30
0.0
 10
37.358314
 20
224.522980
 30
0.0
 10
37.215516
 20
224.423079
 30
0.0
 10
37.092314
 20
224.299781
 30
0.0
 10
36.992314
 20
224.156980
 30
0.0
 10
36.918615
 20
223.998980
 30
0.0
 10
36.873516
 20
223.830680
 30
0.0
 10
36.858304
 20
223.656981
 30
0.0
 10
36.873527
 20
223.483380
 30
0.0
 10
36.918615
 20
223.314981
 30
0.0
 10
36.992314
 20
223.156979
 30
0.0
 10
37.092314
 20
223.014180
 30
0.0
 10
37.215516
 20
222.890979
 30
0.0
 10
37.358314
 20
222.790979
 30
0.0
 10
37.516314
 20
222.717279
 30
0.0
 10
37.684716
 20
222.672180
 30
0.0
 10
37.858316
 20
222.656969
 30
0.0
 10
38.032015
 20
222.672192
 30
0.0
 10
38.200316
 20
222.717279
 30
0.0
 10
38.358315
 20
222.790979
 30
0.0
 10
45.477306
 20
226.417481
 30
0.0
 10
45.949026
 20
220.127679
 30
0.0
 10
32.409615
 20
211.665881
 30
0.0
 10
32.266814
 20
211.565881
 30
0.0
 10
32.143615
 20
211.442680
 30
0.0
 10
32.043616
 20
211.299881
 30
0.0
 10
31.969916
 20
211.141879
 30
0.0
 10
31.924814
 20
210.973479
 30
0.0
 10
31.909602
 20
210.799879
 30
0.0
 10
31.924825
 20
210.626180
 30
0.0
 10
31.969916
 20
210.457879
 30
0.0
 10
32.043616
 20
210.299880
 30
0.0
 10
32.143615
 20
210.157081
 30
0.0
 10
32.266814
 20
210.033781
 30
0.0
 10
32.409615
 20
209.933880
 30
0.0
 10
32.567615
 20
209.860180
 30
0.0
 10
32.736014
 20
209.815079
 30
0.0
 10
32.909614
 20
209.799867
 30
0.0
 10
33.083215
 20
209.815093
 30
0.0
 10
33.251614
 20
209.860180
 30
0.0
 10
33.409616
 20
209.933880
 30
0.0
 10
46.203475
 20
216.735179
 30
0.0
 10
46.755764
 20
209.371281
 30
0.0
 10
46.770948
 20
209.197681
 30
0.0
 10
46.816086
 20
209.029279
 30
0.0
 10
46.889746
 20
208.871279
 30
0.0
 10
46.989726
 20
208.728481
 30
0.0
 10
47.112984
 20
208.605279
 30
0.0
 10
47.255774
 20
208.505280
 30
0.0
 10
47.413754
 20
208.431580
 30
0.0
 10
47.582116
 20
208.386481
 30
0.0
 10
47.755745
 20
208.371269
 30
0.0
 10
47.755745
 20
209.371281
 30
0.0
 10
52.951885
 20
209.371281
 30
0.0
 10
52.951885
 20
208.371280
 30
0.0
 10
53.125514
 20
208.386492
 30
0.0
  0
LWPOLYLINE
  5
101
100
AcDbEntity
  8
0
 62
7
100
AcDbPolyline
 90
51
 70
0
 10
55.891015
 20
283.173281
 30
0.0
 10
55.766425
 20
283.188981
 30
0.0
 10
55.644804
 20
283.220181
 30
0.0
 10
55.528035
 20
283.266481
 30
0.0
 10
55.417994
 20
283.326981
 30
0.0
 10
55.316385
 20
283.400781
 30
0.0
 10
55.224844
 20
283.486681
 30
0.0
 10
55.144805
 20
283.583481
 30
0.0
 10
55.077504
 20
283.689481
 30
0.0
 10
55.024045
 20
283.803181
 30
0.0
 10
54.985226
 20
283.922581
 30
0.0
 10
54.961688
 20
284.045981
 30
0.0
 10
54.953792
 20
284.171281
 30
0.0
 10
54.961708
 20
284.296581
 30
0.0
 10
54.985231
 20
284.419981
 30
0.0
 10
55.024045
 20
284.539381
 30
0.0
 10
55.077504
 20
284.652981
 30
0.0
 10
55.144805
 20
284.759081
 30
0.0
 10
55.224844
 20
284.855781
 30
0.0
 10
55.316385
 20
284.941781
 30
0.0
 10
55.417994
 20
285.015581
 30
0.0
 10
55.528035
 20
285.076081
 30
0.0
 10
55.644804
 20
285.122281
 30
0.0
 10
55.766425
 20
285.153581
 30
0.0
 10
55.891015
 20
285.169281
 30
0.0
 10
56.016596
 20
285.169281
 30
0.0
 10
56.141185
 20
285.153581
 30
0.0
 10
56.262815
 20
285.122281
 30
0.0
 10
56.379576
 20
285.076081
 30
0.0
 10
56.489614
 20
285.015581
 30
0.0
 10
56.591225
 20
284.941781
 30
0.0
 10
56.682764
 20
284.855781
 30
0.0
 10
56.762814
 20
284.759081
 30
0.0
 10
56.830104
 20
284.652981
 30
0.0
 10
56.883565
 20
284.539381
 30
0.0
 10
56.922385
 20
284.419981
 30
0.0
 10
56.945922
 20
284.296581
 30
0.0
 10
56.953816
 20
284.171281
 30
0.0
 10
56.945903
 20
284.045981
 30
0.0
 10
56.922376
 20
283.922581
 30
0.0
 10
56.883565
 20
283.803181
 30
0.0
 10
56.830104
 20
283.689481
 30
0.0
 10
56.762814
 20
283.583481
 30
0.0
 10
56.682764
 20
283.486681
 30
0.0
 10
56.591225
 20
283.400781
 30
0.0
 10
56.489614
 20
283.326981
 30
0.0
 10
56.379576
 20
283.266481
 30
0.0
 10
56.262815
 20
283.220181
 30
0.0
 10
56.141185
 20
283.188981
 30
0.0
 10
56.016596
 20
283.173281
 30
0.0
 10
55.891015
 20
283.173281
 30
0.0
  0
LWPOLYLINE
  5
102
100
AcDbEntity
  8
0
 62
5
100
AcDbPolyline
 90
859
 70
0
 10
53.309085
 20
118.069319
 30
0.0
 10
53.477084
 20
118.114418
 30
0.0
 10
53.635086
 20
118.188118
 30
0.0
 10
53.778085
 20
118.288117
 30
0.0
 10
53.901086
 20
118.411319
 30
0.0
 10
54.001086
 20
118.554118
 30
0.0
 10
54.075084
 20
118.712120
 30
0.0
 10
54.120085
 20
118.880519
 30
0.0
 10
54.135071
 20
119.054119
 30
0.0
 10
54.687086
 20
126.418020
 30
0.0
 10
67.481086
 20
119.616718
 30
0.0
 10
67.639085
 20
119.543019
 30
0.0
 10
67.808086
 20
119.497919
 30
0.0
 10
67.981085
 20
119.482708
 30
0.0
 10
68.155086
 20
119.497931
 30
0.0
 10
68.323085
 20
119.543019
 30
0.0
 10
68.481084
 20
119.616718
 30
0.0
 10
68.624086
 20
119.716619
 30
0.0
 10
68.747084
 20
119.839919
 30
0.0
 10
68.847084
 20
119.982718
 30
0.0
 10
68.921085
 20
120.140717
 30
0.0
 10
68.966086
 20
120.309018
 30
0.0
 10
68.981072
 20
120.482717
 30
0.0
 10
68.966100
 20
120.656317
 30
0.0
 10
68.921085
 20
120.824719
 30
0.0
 10
68.847084
 20
120.982719
 30
0.0
 10
68.747084
 20
121.125518
 30
0.0
 10
68.624086
 20
121.248719
 30
0.0
 10
68.481084
 20
121.348719
 30
0.0
 10
54.942085
 20
129.810517
 30
0.0
 10
55.414085
 20
136.100319
 30
0.0
 10
62.532085
 20
132.473817
 30
0.0
 10
62.690084
 20
132.400118
 30
0.0
 10
62.859085
 20
132.355018
 30
0.0
 10
63.032084
 20
132.339807
 30
0.0
 10
63.206085
 20
132.355030
 30
0.0
 10
63.374084
 20
132.400118
 30
0.0
 10
63.532086
 20
132.473817
 30
0.0
 10
63.675085
 20
132.573820
 30
0.0
 10
63.799085
 20
132.697018
 30
0.0
 10
63.899085
 20
132.839817
 30
0.0
 10
63.972084
 20
132.997819
 30
0.0
 10
64.017085
 20
133.166218
 30
0.0
 10
64.032099
 20
133.339819
 30
0.0
 10
64.017071
 20
133.513518
 30
0.0
 10
63.972084
 20
133.681818
 30
0.0
 10
63.899085
 20
133.839818
 30
0.0
 10
63.799085
 20
133.982619
 30
0.0
 10
63.675085
 20
134.105919
 30
0.0
 10
63.532086
 20
134.205818
 30
0.0
 10
55.655086
 20
139.322419
 30
0.0
 10
56.153084
 20
145.964118
 30
0.0
 10
57.742085
 20
145.257318
 30
0.0
 10
57.910084
 20
145.212219
 30
0.0
 10
58.084085
 20
145.197007
 30
0.0
 10
58.257084
 20
145.212230
 30
0.0
 10
58.426085
 20
145.257318
 30
0.0
 10
58.584084
 20
145.330919
 30
0.0
 10
58.727086
 20
145.430919
 30
0.0
 10
58.850084
 20
145.554219
 30
0.0
 10
58.950084
 20
145.697018
 30
0.0
 10
59.023083
 20
145.854918
 30
0.0
 10
59.069086
 20
146.023317
 30
0.0
 10
59.084072
 20
146.197019
 30
0.0
 10
59.069100
 20
146.370617
 30
0.0
 10
59.023083
 20
146.539019
 30
0.0
 10
58.950084
 20
146.697018
 30
0.0
 10
58.850084
 20
146.839817
 30
0.0
 10
58.727086
 20
146.963018
 30
0.0
 10
56.357085
 20
148.685119
 30
0.0
 10
56.675085
 20
152.922448
 30
0.0
 10
60.504084
 20
151.079009
 30
0.0
 10
60.811085
 20
148.166219
 30
0.0
 10
60.856086
 20
147.997817
 30
0.0
 10
60.929085
 20
147.839818
 30
0.0
 10
61.029085
 20
147.697019
 30
0.0
 10
61.153085
 20
147.573818
 30
0.0
 10
61.295085
 20
147.473818
 30
0.0
 10
61.453085
 20
147.400119
 30
0.0
 10
61.622085
 20
147.355019
 30
0.0
 10
61.795084
 20
147.339808
 30
0.0
 10
61.969086
 20
147.355031
 30
0.0
 10
62.137084
 20
147.400119
 30
0.0
 10
62.295086
 20
147.473818
 30
0.0
 10
62.438085
 20
147.573818
 30
0.0
 10
62.561086
 20
147.697019
 30
0.0
 10
62.661086
 20
147.839818
 30
0.0
 10
62.735085
 20
147.997817
 30
0.0
 10
62.780085
 20
148.166219
 30
0.0
 10
62.962084
 20
149.895228
 30
0.0
 10
68.963086
 20
147.005817
 30
0.0
 10
69.456086
 20
137.625518
 30
0.0
 10
69.471072
 20
137.451918
 30
0.0
 10
69.516086
 20
137.283519
 30
0.0
 10
69.590085
 20
137.125519
 30
0.0
 10
69.690084
 20
136.982819
 30
0.0
 10
69.813085
 20
136.859519
 30
0.0
 10
69.956085
 20
136.759520
 30
0.0
 10
70.114084
 20
136.685919
 30
0.0
 10
70.282085
 20
136.640718
 30
0.0
 10
70.456084
 20
136.625506
 30
0.0
 10
70.629086
 20
136.640729
 30
0.0
 10
70.798086
 20
136.685919
 30
0.0
 10
70.956085
 20
136.759520
 30
0.0
 10
71.098085
 20
136.859519
 30
0.0
 10
71.222085
 20
136.982819
 30
0.0
 10
71.322085
 20
137.125519
 30
0.0
 10
71.395085
 20
137.283519
 30
0.0
 10
71.440085
 20
137.451918
 30
0.0
 10
71.456087
 20
137.625518
 30
0.0
 10
71.874084
 20
145.604020
 30
0.0
 10
77.557085
 20
142.867717
 30
0.0
 10
78.116086
 20
126.911319
 30
0.0
 10
78.131072
 20
126.737619
 30
0.0
 10
78.176086
 20
126.569217
 30
0.0
 10
78.250085
 20
126.411218
 30
0.0
 10
78.350085
 20
126.268518
 30
0.0
 10
78.473086
 20
126.145218
 30
0.0
 10
78.616085
 20
126.045218
 30
0.0
 10
78.774084
 20
125.971617
 30
0.0
 10
78.942085
 20
125.926518
 30
0.0
 10
79.116084
 20
125.911222
 30
0.0
 10
79.289086
 20
125.926515
 30
0.0
 10
79.458086
 20
125.971617
 30
0.0
 10
79.616086
 20
126.045218
 30
0.0
 10
79.759085
 20
126.145218
 30
0.0
 10
79.882086
 20
126.268518
 30
0.0
 10
79.982085
 20
126.411320
 30
0.0
 10
80.056084
 20
126.569217
 30
0.0
 10
80.101084
 20
126.737619
 30
0.0
 10
80.116099
 20
126.911319
 30
0.0
 10
80.623085
 20
141.391718
 30
0.0
 10
87.276085
 20
138.188117
 30
0.0
 10
87.434084
 20
138.114418
 30
0.0
 10
87.602085
 20
138.069319
 30
0.0
 10
87.776084
 20
138.054107
 30
0.0
 10
87.950085
 20
138.069330
 30
0.0
 10
88.118084
 20
138.114418
 30
0.0
 10
88.276086
 20
138.188117
 30
0.0
 10
88.419085
 20
138.288117
 30
0.0
 10
88.542086
 20
138.411318
 30
0.0
 10
88.642086
 20
138.554117
 30
0.0
 10
88.716084
 20
138.712119
 30
0.0
 10
88.761085
 20
138.880518
 30
0.0
 10
88.776071
 20
139.054119
 30
0.0
 10
88.761099
 20
139.227719
 30
0.0
 10
88.716084
 20
139.396119
 30
0.0
 10
88.642086
 20
139.554118
 30
0.0
 10
88.542086
 20
139.696919
 30
0.0
 10
88.419085
 20
139.820220
 30
0.0
 10
88.276086
 20
139.920118
 30
0.0
 10
82.175085
 20
144.080418
 30
0.0
 10
94.462084
 20
151.759529
 30
0.0
 10
94.605086
 20
151.859509
 30
0.0
 10
94.728084
 20
151.982770
 30
0.0
 10
94.828083
 20
152.125549
 30
0.0
 10
94.902085
 20
152.283540
 30
0.0
 10
94.947085
 20
152.451899
 30
0.0
 10
94.962099
 20
152.625559
 30
0.0
 10
94.947071
 20
152.799207
 30
0.0
 10
94.902085
 20
152.967567
 30
0.0
 10
94.828083
 20
153.125558
 30
0.0
 10
94.728084
 20
153.268337
 30
0.0
 10
94.605086
 20
153.391598
 30
0.0
 10
94.462084
 20
153.491569
 30
0.0
 10
94.304084
 20
153.565238
 30
0.0
 10
94.136086
 20
153.610348
 30
0.0
 10
93.962085
 20
153.625560
 30
0.0
 10
93.788086
 20
153.610345
 30
0.0
 10
93.620085
 20
153.565257
 30
0.0
 10
93.462086
 20
153.491569
 30
0.0
 10
79.364084
 20
145.997017
 30
0.0
 10
74.153085
 20
149.550409
 30
0.0
 10
80.853085
 20
153.902389
 30
0.0
 10
80.996084
 20
154.002358
 30
0.0
 10
81.119085
 20
154.125618
 30
0.0
 10
81.219085
 20
154.268408
 30
0.0
 10
81.293084
 20
154.426388
 30
0.0
 10
81.338084
 20
154.594748
 30
0.0
 10
81.353098
 20
154.768407
 30
0.0
 10
81.338070
 20
154.942059
 30
0.0
 10
81.293084
 20
155.110418
 30
0.0
 10
81.219085
 20
155.268409
 30
0.0
 10
81.119085
 20
155.411188
 30
0.0
 10
80.996084
 20
155.534449
 30
0.0
 10
80.853085
 20
155.634437
 30
0.0
 10
80.695086
 20
155.708097
 30
0.0
 10
80.527085
 20
155.753219
 30
0.0
 10
80.353083
 20
155.768403
 30
0.0
 10
80.179085
 20
155.753225
 30
0.0
 10
80.011084
 20
155.708097
 30
0.0
 10
79.853084
 20
155.634437
 30
0.0
 10
71.483085
 20
151.370788
 30
0.0
 10
65.980084
 20
155.122997
 30
0.0
 10
67.387086
 20
156.145229
 30
0.0
 10
67.510084
 20
156.268478
 30
0.0
 10
67.610084
 20
156.411268
 30
0.0
 10
67.684086
 20
156.569239
 30
0.0
 10
67.729086
 20
156.737619
 30
0.0
 10
67.744072
 20
156.911267
 30
0.0
 10
67.729100
 20
157.084907
 30
0.0
 10
67.684086
 20
157.253289
 30
0.0
 10
67.610084
 20
157.411269
 30
0.0
 10
67.510084
 20
157.554040
 30
0.0
 10
67.387086
 20
157.677317
 30
0.0
 10
67.244084
 20
157.777297
 30
0.0
 10
67.086085
 20
157.850957
 30
0.0
 10
66.918084
 20
157.896067
 30
0.0
 10
66.744085
 20
157.911279
 30
0.0
 10
66.570084
 20
157.896084
 30
0.0
 10
66.402085
 20
157.850949
 30
0.0
 10
63.726085
 20
156.660239
 30
0.0
 10
60.215086
 20
159.054118
 30
0.0
 10
63.726085
 20
161.447998
 30
0.0
 10
66.402085
 20
160.257288
 30
0.0
 10
66.570084
 20
160.212158
 30
0.0
 10
66.744085
 20
160.196974
 30
0.0
 10
66.918084
 20
160.212181
 30
0.0
 10
67.086085
 20
160.257280
 30
0.0
 10
67.244084
 20
160.330940
 30
0.0
 10
67.387086
 20
160.430917
 30
0.0
 10
67.510084
 20
160.554197
 30
0.0
 10
67.610084
 20
160.696968
 30
0.0
 10
67.684086
 20
160.854947
 30
0.0
 10
67.729086
 20
161.023330
 30
0.0
 10
67.744072
 20
161.196970
 30
0.0
 10
67.729100
 20
161.370618
 30
0.0
 10
67.684086
 20
161.538998
 30
0.0
 10
67.610084
 20
161.696969
 30
0.0
 10
67.510084
 20
161.839759
 30
0.0
 10
67.387086
 20
161.963008
 30
0.0
 10
65.980084
 20
162.985240
 30
0.0
 10
71.483085
 20
166.737449
 30
0.0
 10
79.853084
 20
162.473799
 30
0.0
 10
80.011084
 20
162.400139
 30
0.0
 10
80.179085
 20
162.355018
 30
0.0
 10
80.353083
 20
162.339834
 30
0.0
 10
80.527085
 20
162.355012
 30
0.0
 10
80.695086
 20
162.400139
 30
0.0
 10
80.853085
 20
162.473799
 30
0.0
 10
80.996084
 20
162.573788
 30
0.0
 10
81.119085
 20
162.697048
 30
0.0
 10
81.219085
 20
162.839827
 30
0.0
 10
81.293084
 20
162.997818
 30
0.0
 10
81.338084
 20
163.166178
 30
0.0
 10
81.353098
 20
163.339829
 30
0.0
 10
81.338070
 20
163.513489
 30
0.0
 10
81.293084
 20
163.681849
 30
0.0
 10
81.219085
 20
163.839828
 30
0.0
 10
81.119085
 20
163.982619
 30
0.0
 10
80.996084
 20
164.105879
 30
0.0
 10
80.853085
 20
164.205848
 30
0.0
 10
74.153085
 20
168.557828
 30
0.0
 10
79.364084
 20
172.111217
 30
0.0
 10
93.462086
 20
164.616668
 30
0.0
 10
93.620085
 20
164.542979
 30
0.0
 10
93.788086
 20
164.497877
 30
0.0
 10
93.962085
 20
164.482666
 30
0.0
 10
94.136086
 20
164.497889
 30
0.0
 10
94.304084
 20
164.542999
 30
0.0
 10
94.462084
 20
164.616668
 30
0.0
 10
94.605086
 20
164.716639
 30
0.0
 10
94.728084
 20
164.839900
 30
0.0
 10
94.828083
 20
164.982679
 30
0.0
 10
94.902085
 20
165.140670
 30
0.0
 10
94.947085
 20
165.309029
 30
0.0
 10
94.962099
 20
165.482678
 30
0.0
 10
94.947071
 20
165.656338
 30
0.0
 10
94.902085
 20
165.824697
 30
0.0
 10
94.828083
 20
165.982688
 30
0.0
 10
94.728084
 20
166.125467
 30
0.0
 10
94.605086
 20
166.248728
 30
0.0
 10
94.462084
 20
166.348708
 30
0.0
 10
82.175085
 20
174.027819
 30
0.0
 10
88.276086
 20
178.188119
 30
0.0
 10
88.419085
 20
178.288017
 30
0.0
 10
88.542086
 20
178.411317
 30
0.0
 10
88.642086
 20
178.554119
 30
0.0
 10
88.716084
 20
178.712118
 30
0.0
 10
88.761085
 20
178.880517
 30
0.0
 10
88.776071
 20
179.054118
 30
0.0
 10
88.761099
 20
179.227718
 30
0.0
 10
88.716084
 20
179.396118
 30
0.0
 10
88.642086
 20
179.554120
 30
0.0
 10
88.542086
 20
179.696918
 30
0.0
 10
88.419085
 20
179.820117
 30
0.0
 10
88.276086
 20
179.920120
 30
0.0
 10
88.118084
 20
179.993819
 30
0.0
 10
87.950085
 20
180.038918
 30
0.0
 10
87.776084
 20
180.054130
 30
0.0
 10
87.602085
 20
180.038907
 30
0.0
 10
87.434084
 20
179.993819
 30
0.0
 10
87.276085
 20
179.920120
 30
0.0
 10
80.623085
 20
176.716519
 30
0.0
 10
80.116085
 20
191.196918
 30
0.0
 10
80.101070
 20
191.370617
 30
0.0
 10
80.056084
 20
191.539019
 30
0.0
 10
79.982085
 20
191.696917
 30
0.0
 10
79.882086
 20
191.839719
 30
0.0
 10
79.759085
 20
191.963019
 30
0.0
 10
79.616086
 20
192.063019
 30
0.0
 10
79.458086
 20
192.136619
 30
0.0
 10
79.289086
 20
192.181718
 30
0.0
 10
79.116084
 20
192.197015
 30
0.0
 10
78.942085
 20
192.181721
 30
0.0
 10
78.774084
 20
192.136619
 30
0.0
 10
78.616085
 20
192.063019
 30
0.0
 10
78.473086
 20
191.963019
 30
0.0
 10
78.350085
 20
191.839719
 30
0.0
 10
78.250085
 20
191.697019
 30
0.0
 10
78.176086
 20
191.539019
 30
0.0
 10
78.131086
 20
191.370617
 30
0.0
 10
78.116100
 20
191.196918
 30
0.0
 10
77.557085
 20
175.240520
 30
0.0
 10
71.874084
 20
172.504217
 30
0.0
 10
71.456084
 20
180.482718
 30
0.0
 10
71.440082
 20
180.656319
 30
0.0
 10
71.395085
 20
180.824718
 30
0.0
 10
71.322085
 20
180.982717
 30
0.0
 10
71.222085
 20
181.125417
 30
0.0
 10
71.098085
 20
181.248717
 30
0.0
 10
70.956085
 20
181.348717
 30
0.0
 10
70.798086
 20
181.422318
 30
0.0
 10
70.629086
 20
181.467519
 30
0.0
 10
70.456084
 20
181.482730
 30
0.0
 10
70.282085
 20
181.467507
 30
0.0
 10
70.114084
 20
181.422318
 30
0.0
 10
69.956085
 20
181.348717
 30
0.0
 10
69.813085
 20
181.248717
 30
0.0
 10
69.690084
 20
181.125417
 30
0.0
 10
69.590085
 20
180.982717
 30
0.0
 10
69.516086
 20
180.824718
 30
0.0
 10
69.471086
 20
180.656319
 30
0.0
 10
69.456100
 20
180.482718
 30
0.0
 10
68.963086
 20
171.102419
 30
0.0
 10
62.962084
 20
168.213008
 30
0.0
 10
62.780085
 20
169.942017
 30
0.0
 10
62.735085
 20
170.110419
 30
0.0
 10
62.661086
 20
170.268419
 30
0.0
 10
62.561086
 20
170.411218
 30
0.0
 10
62.438085
 20
170.534419
 30
0.0
 10
62.295086
 20
170.634419
 30
0.0
 10
62.137084
 20
170.708118
 30
0.0
 10
61.969086
 20
170.753217
 30
0.0
 10
61.795084
 20
170.768429
 30
0.0
 10
61.622085
 20
170.753206
 30
0.0
 10
61.453085
 20
170.708118
 30
0.0
 10
61.295085
 20
170.634419
 30
0.0
 10
61.153085
 20
170.534419
 30
0.0
 10
61.029085
 20
170.411218
 30
0.0
 10
60.929085
 20
170.268419
 30
0.0
 10
60.856086
 20
170.110419
 30
0.0
 10
60.811085
 20
169.942017
 30
0.0
 10
60.504084
 20
167.029227
 30
0.0
 10
56.675085
 20
165.185788
 30
0.0
 10
56.357085
 20
169.423118
 30
0.0
 10
58.727086
 20
171.145218
 30
0.0
 10
58.850084
 20
171.268420
 30
0.0
 10
58.950084
 20
171.411218
 30
0.0
 10
59.023083
 20
171.569218
 30
0.0
 10
59.069086
 20
171.737620
 30
0.0
 10
59.084072
 20
171.911217
 30
0.0
 10
59.069100
 20
172.084919
 30
0.0
 10
59.023083
 20
172.253319
 30
0.0
 10
58.950084
 20
172.411219
 30
0.0
 10
58.850084
 20
172.554018
 30
0.0
 10
58.727086
 20
172.677318
 30
0.0
 10
58.584084
 20
172.777318
 30
0.0
 10
58.426085
 20
172.850919
 30
0.0
 10
58.257084
 20
172.896018
 30
0.0
 10
58.084085
 20
172.911229
 30
0.0
 10
57.910084
 20
172.896006
 30
0.0
 10
57.742085
 20
172.850919
 30
0.0
 10
56.153084
 20
172.144118
 30
0.0
 10
55.655086
 20
178.785818
 30
0.0
 10
63.532086
 20
183.902419
 30
0.0
 10
63.675085
 20
184.002317
 30
0.0
 10
63.799085
 20
184.125617
 30
0.0
 10
63.899085
 20
184.268419
 30
0.0
 10
63.972084
 20
184.426418
 30
0.0
 10
64.017085
 20
184.594719
 30
0.0
 10
64.032099
 20
184.768418
 30
0.0
 10
64.017071
 20
184.942018
 30
0.0
 10
63.972084
 20
185.110418
 30
0.0
 10
63.899085
 20
185.268417
 30
0.0
 10
63.799085
 20
185.411219
 30
0.0
 10
63.675085
 20
185.534417
 30
0.0
 10
63.532086
 20
185.634420
 30
0.0
 10
63.375086
 20
185.708119
 30
0.0
 10
63.206085
 20
185.753218
 30
0.0
 10
63.032084
 20
185.768430
 30
0.0
 10
62.859085
 20
185.753207
 30
0.0
 10
62.690084
 20
185.708119
 30
0.0
 10
62.532085
 20
185.634420
 30
0.0
 10
55.414085
 20
182.007918
 30
0.0
 10
54.942085
 20
188.297717
 30
0.0
 10
68.481084
 20
196.759518
 30
0.0
 10
68.624086
 20
196.859518
 30
0.0
 10
68.747084
 20
196.982719
 30
0.0
 10
68.847084
 20
197.125518
 30
0.0
 10
68.921085
 20
197.283517
 30
0.0
 10
68.966086
 20
197.451919
 30
0.0
 10
68.981072
 20
197.625517
 30
0.0
 10
68.966100
 20
197.799219
 30
0.0
 10
68.921085
 20
197.967519
 30
0.0
 10
68.847084
 20
198.125519
 30
0.0
 10
68.747084
 20
198.268318
 30
0.0
 10
68.624086
 20
198.391618
 30
0.0
 10
68.481084
 20
198.491519
 30
0.0
 10
68.323085
 20
198.565218
 30
0.0
 10
68.155086
 20
198.610317
 30
0.0
 10
67.981085
 20
198.625529
 30
0.0
 10
67.808086
 20
198.610306
 30
0.0
 10
67.639085
 20
198.565218
 30
0.0
 10
67.481086
 20
198.491519
 30
0.0
 10
54.687086
 20
191.690217
 30
0.0
 10
54.135085
 20
199.054117
 30
0.0
 10
54.120099
 20
199.227718
 30
0.0
 10
54.075084
 20
199.396117
 30
0.0
 10
54.001086
 20
199.554119
 30
0.0
 10
53.901086
 20
199.696918
 30
0.0
 10
53.778085
 20
199.820119
 30
0.0
 10
53.635086
 20
199.920119
 30
0.0
 10
53.477084
 20
199.993819
 30
0.0
 10
53.309085
 20
200.038918
 30
0.0
 10
53.135084
 20
200.054129
 30
0.0
 10
53.135084
 20
172.387419
 30
0.0
 10
47.939085
 20
172.387419
 30
0.0
 10
47.939085
 20
200.054118
 30
0.0
 10
47.765084
 20
200.038906
 30
0.0
 10
47.597085
 20
199.993819
 30
0.0
 10
47.439086
 20
199.920119
 30
0.0
 10
47.296084
 20
199.820119
 30
0.0
 10
47.173086
 20
199.696918
 30
0.0
 10
47.073086
 20
199.554119
 30
0.0
 10
46.999085
 20
199.396117
 30
0.0
 10
46.954084
 20
199.227718
 30
0.0
 10
46.939098
 20
199.054117
 30
0.0
 10
46.387086
 20
191.690217
 30
0.0
 10
33.593086
 20
198.491519
 30
0.0
 10
33.435084
 20
198.565218
 30
0.0
 10
33.266084
 20
198.610317
 30
0.0
 10
33.093084
 20
198.625529
 30
0.0
 10
32.919086
 20
198.610306
 30
0.0
 10
32.751085
 20
198.565218
 30
0.0
 10
32.593085
 20
198.491519
 30
0.0
 10
32.450086
 20
198.391618
 30
0.0
 10
32.327085
 20
198.268318
 30
0.0
 10
32.227085
 20
198.125519
 30
0.0
 10
32.153084
 20
197.967519
 30
0.0
 10
32.108084
 20
197.799219
 30
0.0
 10
32.093069
 20
197.625517
 30
0.0
 10
32.108098
 20
197.451919
 30
0.0
 10
32.153084
 20
197.283517
 30
0.0
 10
32.227085
 20
197.125518
 30
0.0
 10
32.327085
 20
196.982719
 30
0.0
 10
32.450086
 20
196.859518
 30
0.0
 10
32.593085
 20
196.759518
 30
0.0
 10
46.132084
 20
188.297717
 30
0.0
 10
45.660084
 20
182.007918
 30
0.0
 10
38.542084
 20
185.634420
 30
0.0
 10
38.384085
 20
185.708119
 30
0.0
 10
38.215085
 20
185.753218
 30
0.0
 10
38.042085
 20
185.768430
 30
0.0
 10
37.868084
 20
185.753207
 30
0.0
 10
37.699084
 20
185.708119
 30
0.0
 10
37.542086
 20
185.634420
 30
0.0
 10
37.399084
 20
185.534417
 30
0.0
 10
37.275084
 20
185.411219
 30
0.0
 10
37.175084
 20
185.268417
 30
0.0
 10
37.102085
 20
185.110418
 30
0.0
 10
37.057084
 20
184.942018
 30
0.0
 10
37.042070
 20
184.768418
 30
0.0
 10
37.057099
 20
184.594719
 30
0.0
 10
37.102085
 20
184.426418
 30
0.0
 10
37.175084
 20
184.268419
 30
0.0
 10
37.275084
 20
184.125617
 30
0.0
 10
37.399084
 20
184.002317
 30
0.0
 10
37.542086
 20
183.902419
 30
0.0
 10
45.419086
 20
178.785818
 30
0.0
 10
44.921085
 20
172.144118
 30
0.0
 10
43.332084
 20
172.850919
 30
0.0
 10
43.164085
 20
172.896018
 30
0.0
 10
42.990084
 20
172.911229
 30
0.0
 10
42.817085
 20
172.896006
 30
0.0
 10
42.648084
 20
172.850919
 30
0.0
 10
42.490085
 20
172.777318
 30
0.0
 10
42.347086
 20
172.677318
 30
0.0
 10
42.224085
 20
172.554018
 30
0.0
 10
42.124085
 20
172.411219
 30
0.0
 10
42.051086
 20
172.253319
 30
0.0
 10
42.005083
 20
172.084919
 30
0.0
 10
41.990097
 20
171.911217
 30
0.0
 10
42.005072
 20
171.737620
 30
0.0
 10
42.051086
 20
171.569218
 30
0.0
 10
42.124085
 20
171.411218
 30
0.0
 10
42.224085
 20
171.268420
 30
0.0
 10
42.347086
 20
171.145218
 30
0.0
 10
44.717084
 20
169.423118
 30
0.0
 10
44.399084
 20
165.185788
 30
0.0
 10
40.570085
 20
167.029227
 30
0.0
 10
40.263084
 20
169.942017
 30
0.0
 10
40.218083
 20
170.110419
 30
0.0
 10
40.145084
 20
170.268419
 30
0.0
 10
40.045084
 20
170.411218
 30
0.0
 10
39.921084
 20
170.534419
 30
0.0
 10
39.779084
 20
170.634419
 30
0.0
 10
39.621085
 20
170.708118
 30
0.0
 10
39.452084
 20
170.753217
 30
0.0
 10
39.279085
 20
170.768429
 30
0.0
 10
39.105084
 20
170.753206
 30
0.0
 10
38.937085
 20
170.708118
 30
0.0
 10
38.779086
 20
170.634419
 30
0.0
 10
38.636084
 20
170.534419
 30
0.0
 10
38.513086
 20
170.411218
 30
0.0
 10
38.413086
 20
170.268419
 30
0.0
 10
38.339085
 20
170.110419
 30
0.0
 10
38.294084
 20
169.942017
 30
0.0
 10
38.112085
 20
168.213008
 30
0.0
 10
32.111084
 20
171.102419
 30
0.0
 10
31.618084
 20
180.482718
 30
0.0
 10
31.603069
 20
180.656319
 30
0.0
 10
31.558086
 20
180.824718
 30
0.0
 10
31.484085
 20
180.982717
 30
0.0
 10
31.384085
 20
181.125417
 30
0.0
 10
31.261084
 20
181.248717
 30
0.0
 10
31.118085
 20
181.348717
 30
0.0
 10
30.960085
 20
181.422318
 30
0.0
 10
30.792084
 20
181.467519
 30
0.0
 10
30.618086
 20
181.482730
 30
0.0
 10
30.445083
 20
181.467507
 30
0.0
 10
30.276086
 20
181.422318
 30
0.0
 10
30.118084
 20
181.348717
 30
0.0
 10
29.976084
 20
181.248717
 30
0.0
 10
29.852084
 20
181.125417
 30
0.0
 10
29.752084
 20
180.982717
 30
0.0
 10
29.679084
 20
180.824718
 30
0.0
 10
29.634084
 20
180.656319
 30
0.0
 10
29.618082
 20
180.482718
 30
0.0
 10
29.200086
 20
172.504217
 30
0.0
 10
23.517085
 20
175.240520
 30
0.0
 10
22.958085
 20
191.196918
 30
0.0
 10
22.943085
 20
191.370617
 30
0.0
 10
22.898085
 20
191.539019
 30
0.0
 10
22.824085
 20
191.697019
 30
0.0
 10
22.724085
 20
191.839719
 30
0.0
 10
22.601085
 20
191.963019
 30
0.0
 10
22.458085
 20
192.063019
 30
0.0
 10
22.300085
 20
192.136619
 30
0.0
 10
22.132085
 20
192.181718
 30
0.0
 10
21.958085
 20
192.197015
 30
0.0
 10
21.785085
 20
192.181721
 30
0.0
 10
21.616085
 20
192.136619
 30
0.0
 10
21.458085
 20
192.063019
 30
0.0
 10
21.315085
 20
191.963019
 30
0.0
 10
21.192085
 20
191.839719
 30
0.0
 10
21.092085
 20
191.696917
 30
0.0
 10
21.018085
 20
191.539019
 30
0.0
 10
20.973085
 20
191.370617
 30
0.0
 10
20.958085
 20
191.196918
 30
0.0
 10
20.451085
 20
176.716519
 30
0.0
 10
13.798085
 20
179.920120
 30
0.0
 10
13.640085
 20
179.993819
 30
0.0
 10
13.472085
 20
180.038918
 30
0.0
 10
13.298085
 20
180.054130
 30
0.0
 10
13.124085
 20
180.038907
 30
0.0
 10
12.956085
 20
179.993819
 30
0.0
 10
12.798085
 20
179.920120
 30
0.0
 10
12.655085
 20
179.820117
 30
0.0
 10
12.532085
 20
179.696918
 30
0.0
 10
12.432085
 20
179.554120
 30
0.0
 10
12.358085
 20
179.396118
 30
0.0
 10
12.313085
 20
179.227718
 30
0.0
 10
12.298085
 20
179.054118
 30
0.0
 10
12.313085
 20
178.880517
 30
0.0
 10
12.358085
 20
178.712118
 30
0.0
 10
12.432085
 20
178.554119
 30
0.0
 10
12.532085
 20
178.411317
 30
0.0
 10
12.655085
 20
178.288017
 30
0.0
 10
12.798085
 20
178.188119
 30
0.0
 10
18.899085
 20
174.027819
 30
0.0
 10
6.612085
 20
166.348708
 30
0.0
 10
6.469085
 20
166.248728
 30
0.0
 10
6.346085
 20
166.125467
 30
0.0
 10
6.246085
 20
165.982688
 30
0.0
 10
6.172085
 20
165.824697
 30
0.0
 10
6.127085
 20
165.656338
 30
0.0
 10
6.112085
 20
165.482678
 30
0.0
 10
6.127085
 20
165.309029
 30
0.0
 10
6.172085
 20
165.140670
 30
0.0
 10
6.246085
 20
164.982679
 30
0.0
 10
6.346085
 20
164.839900
 30
0.0
 10
6.469085
 20
164.716639
 30
0.0
 10
6.612085
 20
164.616668
 30
0.0
 10
6.770085
 20
164.542999
 30
0.0
 10
6.938085
 20
164.497889
 30
0.0
 10
7.112085
 20
164.482677
 30
0.0
 10
7.286085
 20
164.497889
 30
0.0
 10
7.454085
 20
164.542979
 30
0.0
 10
7.612085
 20
164.616668
 30
0.0
 10
21.710085
 20
172.111217
 30
0.0
 10
26.921085
 20
168.557828
 30
0.0
 10
20.221085
 20
164.205848
 30
0.0
 10
20.078085
 20
164.105879
 30
0.0
 10
19.955085
 20
163.982619
 30
0.0
 10
19.855085
 20
163.839828
 30
0.0
 10
19.781085
 20
163.681849
 30
0.0
 10
19.736085
 20
163.513489
 30
0.0
 10
19.721085
 20
163.339829
 30
0.0
 10
19.736085
 20
163.166178
 30
0.0
 10
19.781085
 20
162.997818
 30
0.0
 10
19.855085
 20
162.839827
 30
0.0
 10
19.955085
 20
162.697048
 30
0.0
 10
20.078085
 20
162.573788
 30
0.0
 10
20.221085
 20
162.473799
 30
0.0
 10
20.379085
 20
162.400139
 30
0.0
 10
20.547085
 20
162.355018
 30
0.0
 10
20.721085
 20
162.339834
 30
0.0
 10
20.895085
 20
162.355012
 30
0.0
 10
21.063085
 20
162.400139
 30
0.0
 10
21.221085
 20
162.473799
 30
0.0
 10
29.591085
 20
166.737449
 30
0.0
 10
35.094085
 20
162.985240
 30
0.0
 10
33.687086
 20
161.963008
 30
0.0
 10
33.564085
 20
161.839759
 30
0.0
 10
33.464085
 20
161.696969
 30
0.0
 10
33.390084
 20
161.538998
 30
0.0
 10
33.345086
 20
161.370618
 30
0.0
 10
33.330072
 20
161.196970
 30
0.0
 10
33.345100
 20
161.023330
 30
0.0
 10
33.390084
 20
160.854947
 30
0.0
 10
33.464085
 20
160.696968
 30
0.0
 10
33.564085
 20
160.554197
 30
0.0
 10
33.687086
 20
160.430917
 30
0.0
 10
33.830085
 20
160.330940
 30
0.0
 10
33.988084
 20
160.257280
 30
0.0
 10
34.156086
 20
160.212169
 30
0.0
 10
34.330084
 20
160.196957
 30
0.0
 10
34.504085
 20
160.212152
 30
0.0
 10
34.672084
 20
160.257288
 30
0.0
 10
37.348084
 20
161.447998
 30
0.0
 10
40.859083
 20
159.054118
 30
0.0
 10
37.348084
 20
156.660239
 30
0.0
 10
34.672084
 20
157.850949
 30
0.0
 10
34.504085
 20
157.896079
 30
0.0
 10
34.330084
 20
157.911262
 30
0.0
 10
34.156086
 20
157.896056
 30
0.0
 10
33.988084
 20
157.850957
 30
0.0
 10
33.830085
 20
157.777297
 30
0.0
 10
33.687086
 20
157.677317
 30
0.0
 10
33.564085
 20
157.554040
 30
0.0
 10
33.464085
 20
157.411269
 30
0.0
 10
33.390084
 20
157.253289
 30
0.0
 10
33.345086
 20
157.084907
 30
0.0
 10
33.330072
 20
156.911267
 30
0.0
 10
33.345100
 20
156.737619
 30
0.0
 10
33.390084
 20
156.569239
 30
0.0
 10
33.464085
 20
156.411268
 30
0.0
 10
33.564085
 20
156.268478
 30
0.0
 10
33.687086
 20
156.145229
 30
0.0
 10
35.094085
 20
155.122997
 30
0.0
 10
29.591085
 20
151.370788
 30
0.0
 10
21.221085
 20
155.634437
 30
0.0
 10
21.063085
 20
155.708097
 30
0.0
 10
20.895085
 20
155.753219
 30
0.0
 10
20.721085
 20
155.768403
 30
0.0
 10
20.547085
 20
155.753225
 30
0.0
 10
20.379085
 20
155.708097
 30
0.0
 10
20.221085
 20
155.634437
 30
0.0
 10
20.078085
 20
155.534449
 30
0.0
 10
19.955085
 20
155.411188
 30
0.0
 10
19.855085
 20
155.268409
 30
0.0
 10
19.781085
 20
155.110418
 30
0.0
 10
19.736085
 20
154.942059
 30
0.0
 10
19.721085
 20
154.768407
 30
0.0
 10
19.736085
 20
154.594748
 30
0.0
 10
19.781085
 20
154.426388
 30
0.0
 10
19.855085
 20
154.268408
 30
0.0
 10
19.955085
 20
154.125618
 30
0.0
 10
20.078085
 20
154.002358
 30
0.0
 10
20.221085
 20
153.902389
 30
0.0
 10
26.921085
 20
149.550409
 30
0.0
 10
21.710085
 20
145.997017
 30
0.0
 10
7.612085
 20
153.491569
 30
0.0
 10
7.454085
 20
153.565257
 30
0.0
 10
7.286085
 20
153.610359
 30
0.0
 10
7.112085
 20
153.625557
 30
0.0
 10
6.938085
 20
153.610345
 30
0.0
 10
6.770085
 20
153.565238
 30
0.0
 10
6.612085
 20
153.491569
 30
0.0
 10
6.469085
 20
153.391598
 30
0.0
 10
6.346085
 20
153.268337
 30
0.0
 10
6.246085
 20
153.125558
 30
0.0
 10
6.172085
 20
152.967567
 30
0.0
 10
6.127085
 20
152.799207
 30
0.0
 10
6.112085
 20
152.625559
 30
0.0
 10
6.127085
 20
152.451899
 30
0.0
 10
6.172085
 20
152.283540
 30
0.0
 10
6.246085
 20
152.125549
 30
0.0
 10
6.346085
 20
151.982770
 30
0.0
 10
6.469085
 20
151.859509
 30
0.0
 10
6.612085
 20
151.759529
 30
0.0
 10
18.899085
 20
144.080418
 30
0.0
 10
12.798085
 20
139.920118
 30
0.0
 10
12.655085
 20
139.820220
 30
0.0
 10
12.532085
 20
139.696919
 30
0.0
 10
12.432085
 20
139.554118
 30
0.0
 10
12.358085
 20
139.396119
 30
0.0
 10
12.313085
 20
139.227719
 30
0.0
 10
12.298085
 20
139.054119
 30
0.0
 10
12.313085
 20
138.880518
 30
0.0
 10
12.358085
 20
138.712119
 30
0.0
 10
12.432085
 20
138.554117
 30
0.0
 10
12.532085
 20
138.411318
 30
0.0
 10
12.655085
 20
138.288117
 30
0.0
 10
12.798085
 20
138.188117
 30
0.0
 10
12.956085
 20
138.114418
 30
0.0
 10
13.124085
 20
138.069319
 30
0.0
 10
13.298085
 20
138.054107
 30
0.0
 10
13.472085
 20
138.069330
 30
0.0
 10
13.640085
 20
138.114418
 30
0.0
 10
13.798085
 20
138.188117
 30
0.0
 10
20.451085
 20
141.391718
 30
0.0
 10
20.958085
 20
126.911319
 30
0.0
 10
20.973085
 20
126.737619
 30
0.0
 10
21.018085
 20
126.569217
 30
0.0
 10
21.092085
 20
126.411320
 30
0.0
 10
21.192085
 20
126.268518
 30
0.0
 10
21.315085
 20
126.145218
 30
0.0
 10
21.458085
 20
126.045218
 30
0.0
 10
21.616085
 20
125.971617
 30
0.0
 10
21.785085
 20
125.926518
 30
0.0
 10
21.958085
 20
125.911222
 30
0.0
 10
22.132085
 20
125.926515
 30
0.0
 10
22.300085
 20
125.971617
 30
0.0
 10
22.458085
 20
126.045218
 30
0.0
 10
22.601085
 20
126.145218
 30
0.0
 10
22.724085
 20
126.268518
 30
0.0
 10
22.824085
 20
126.411218
 30
0.0
 10
22.898085
 20
126.569217
 30
0.0
 10
22.943085
 20
126.737619
 30
0.0
 10
22.958085
 20
126.911319
 30
0.0
 10
23.517085
 20
142.867717
 30
0.0
 10
29.200086
 20
145.604020
 30
0.0
 10
29.618085
 20
137.625518
 30
0.0
 10
29.634087
 20
137.451918
 30
0.0
 10
29.679084
 20
137.283519
 30
0.0
 10
29.752084
 20
137.125519
 30
0.0
 10
29.852084
 20
136.982819
 30
0.0
 10
29.976084
 20
136.859519
 30
0.0
 10
30.118084
 20
136.759520
 30
0.0
 10
30.276086
 20
136.685919
 30
0.0
 10
30.445083
 20
136.640718
 30
0.0
 10
30.618086
 20
136.625506
 30
0.0
 10
30.792084
 20
136.640729
 30
0.0
 10
30.960085
 20
136.685919
 30
0.0
 10
31.118085
 20
136.759520
 30
0.0
 10
31.261084
 20
136.859519
 30
0.0
 10
31.384085
 20
136.982819
 30
0.0
 10
31.484085
 20
137.125519
 30
0.0
 10
31.558086
 20
137.283519
 30
0.0
 10
31.603084
 20
137.451918
 30
0.0
 10
31.618098
 20
137.625518
 30
0.0
 10
32.111084
 20
147.005817
 30
0.0
 10
38.112085
 20
149.895228
 30
0.0
 10
38.294084
 20
148.166219
 30
0.0
 10
38.339085
 20
147.997817
 30
0.0
 10
38.413086
 20
147.839818
 30
0.0
 10
38.513086
 20
147.697019
 30
0.0
 10
38.636084
 20
147.573818
 30
0.0
 10
38.779086
 20
147.473818
 30
0.0
 10
38.937085
 20
147.400119
 30
0.0
 10
39.105084
 20
147.355019
 30
0.0
 10
39.279085
 20
147.339808
 30
0.0
 10
39.452084
 20
147.355031
 30
0.0
 10
39.621085
 20
147.400119
 30
0.0
 10
39.779084
 20
147.473818
 30
0.0
 10
39.921084
 20
147.573818
 30
0.0
 10
40.045084
 20
147.697019
 30
0.0
 10
40.145084
 20
147.839818
 30
0.0
 10
40.218083
 20
147.997817
 30
0.0
 10
40.263084
 20
148.166219
 30
0.0
 10
40.570085
 20
151.079009
 30
0.0
 10
44.399084
 20
152.922448
 30
0.0
 10
44.717084
 20
148.685119
 30
0.0
 10
42.347086
 20
146.963018
 30
0.0
 10
42.224085
 20
146.839817
 30
0.0
 10
42.124085
 20
146.697018
 30
0.0
 10
42.051086
 20
146.539019
 30
0.0
 10
42.005083
 20
146.370617
 30
0.0
 10
41.990097
 20
146.197019
 30
0.0
 10
42.005072
 20
146.023317
 30
0.0
 10
42.051086
 20
145.854918
 30
0.0
 10
42.124085
 20
145.697018
 30
0.0
 10
42.224085
 20
145.554219
 30
0.0
 10
42.347086
 20
145.430919
 30
0.0
 10
42.490085
 20
145.330919
 30
0.0
 10
42.648084
 20
145.257318
 30
0.0
 10
42.817085
 20
145.212219
 30
0.0
 10
42.990084
 20
145.197007
 30
0.0
 10
43.164085
 20
145.212230
 30
0.0
 10
43.332084
 20
145.257318
 30
0.0
 10
44.921085
 20
145.964118
 30
0.0
 10
45.419086
 20
139.322419
 30
0.0
 10
37.542086
 20
134.205818
 30
0.0
 10
37.399084
 20
134.105919
 30
0.0
 10
37.275084
 20
133.982619
 30
0.0
 10
37.175084
 20
133.839818
 30
0.0
 10
37.102085
 20
133.681818
 30
0.0
 10
37.057084
 20
133.513518
 30
0.0
 10
37.042070
 20
133.339819
 30
0.0
 10
37.057099
 20
133.166218
 30
0.0
 10
37.102085
 20
132.997819
 30
0.0
 10
37.175084
 20
132.839817
 30
0.0
 10
37.275084
 20
132.697018
 30
0.0
 10
37.399084
 20
132.573820
 30
0.0
 10
37.542086
 20
132.473817
 30
0.0
 10
37.700085
 20
132.400118
 30
0.0
 10
37.868084
 20
132.355018
 30
0.0
 10
38.042085
 20
132.339807
 30
0.0
 10
38.215085
 20
132.355030
 30
0.0
 10
38.384085
 20
132.400118
 30
0.0
 10
38.542084
 20
132.473817
 30
0.0
 10
45.660084
 20
136.100319
 30
0.0
 10
46.132084
 20
129.810517
 30
0.0
 10
32.593085
 20
121.348719
 30
0.0
 10
32.450086
 20
121.248719
 30
0.0
 10
32.327085
 20
121.125518
 30
0.0
 10
32.227085
 20
120.982719
 30
0.0
 10
32.153084
 20
120.824719
 30
0.0
 10
32.108084
 20
120.656317
 30
0.0
 10
32.093069
 20
120.482717
 30
0.0
 10
32.108098
 20
120.309018
 30
0.0
 10
32.153084
 20
120.140717
 30
0.0
 10
32.227085
 20
119.982718
 30
0.0
 10
32.327085
 20
119.839919
 30
0.0
 10
32.450086
 20
119.716619
 30
0.0
 10
32.593085
 20
119.616718
 30
0.0
 10
32.751085
 20
119.543019
 30
0.0
 10
32.919086
 20
119.497919
 30
0.0
 10
33.093084
 20
119.482708
 30
0.0
 10
33.266084
 20
119.497931
 30
0.0
 10
33.435084
 20
119.543019
 30
0.0
 10
33.593086
 20
119.616718
 30
0.0
 10
46.387086
 20
126.418020
 30
0.0
 10
46.939084
 20
119.054119
 30
0.0
 10
46.954070
 20
118.880519
 30
0.0
 10
46.999085
 20
118.712120
 30
0.0
 10
47.073086
 20
118.554118
 30
0.0
 10
47.173086
 20
118.411319
 30
0.0
 10
47.296084
 20
118.288117
 30
0.0
 10
47.439086
 20
118.188118
 30
0.0
 10
47.597085
 20
118.114418
 30
0.0
 10
47.765084
 20
118.069319
 30
0.0
 10
47.939085
 20
118.054107
 30
0.0
 10
47.939085
 20
145.720817
 30
0.0
 10
53.135084
 20
145.720817
 30
0.0
 10
53.135084
 20
118.054119
 30
0.0
 10
53.309085
 20
118.069330
 30
0.0
  0
SPLINE
  5
103
100
AcDbEntity
  8
0
 62
7
100
AcDbSpline
 70
8
 71
3
 72
8
 73
4
 74
0
 40
0
 40
0
 40
0
 40
0
 40
1
 40
1
 40
1
 40
1
 10
57.446485
 20
250.638770
 30
0.0
 10
57.501735
 20
250.860023
 30
0.0
 10
57.578606
 20
251.158204
 30
0.0
 10
57.677099
 20
251.533312
 30
0.0
  0
SPLINE
  5
104
100
AcDbEntity
  8
0
 62
7
100
AcDbSpline
 70
8
 71
3
 72
8
 73
4
 74
0
 40
0
 40
0
 40
0
 40
0
 40
1
 40
1
 40
1
 40
1
 10
57.677099
 20
251.533312
 30
0.0
 10
57.776096
 20
251.910304
 30
0.0
 10
57.836044
 20
252.150980
 30
0.0
 10
57.856945
 20
252.255339
 30
0.0
  0
SPLINE
  5
105
100
AcDbEntity
  8
0
 62
7
100
AcDbSpline
 70
8
 71
3
 72
8
 73
4
 74
0
 40
0
 40
0
 40
0
 40
0
 40
1
 40
1
 40
1
 40
1
 10
57.856945
 20
252.255339
 30
0.0
 10
57.897603
 20
252.452256
 30
0.0
 10
57.914769
 20
252.608558
 30
0.0
 10
57.908443
 20
252.724246
 30
0.0
  0
SPLINE
  5
106
100
AcDbEntity
  8
0
 62
7
100
AcDbSpline
 70
8
 71
3
 72
8
 73
4
 74
0
 40
0
 40
0
 40
0
 40
0
 40
1
 40
1
 40
1
 40
1
 10
57.908443
 20
252.724246
 30
0.0
 10
57.902621
 20
252.841817
 30
0.0
 10
57.874561
 20
252.944163
 30
0.0
 10
57.824262
 20
253.031283
 30
0.0
  0
SPLINE
  5
107
100
AcDbEntity
  8
0
 62
7
100
AcDbSpline
 70
8
 71
3
 72
8
 73
4
 74
0
 40
0
 40
0
 40
0
 40
0
 40
1
 40
1
 40
1
 40
1
 10
57.824262
 20
253.031283
 30
0.0
 10
57.742269
 20
253.173299
 30
0.0
 10
57.625311
 20
253.260122
 30
0.0
 10
57.473387
 20
253.291751
 30
0.0
  0
SPLINE
  5
108
100
AcDbEntity
  8
0
 62
7
100
AcDbSpline
 70
8
 71
3
 72
8
 73
4
 74
0
 40
0
 40
0
 40
0
 40
0
 40
1
 40
1
 40
1
 40
1
 10
57.473387
 20
253.291751
 30
0.0
 10
57.322657
 20
253.324069
 30
0.0
 10
57.167333
 20
253.294064
 30
0.0
 10
57.007415
 20
253.201735
 30
0.0
  0
SPLINE
  5
109
100
AcDbEntity
  8
0
 62
7
100
AcDbSpline
 70
8
 71
3
 72
8
 73
4
 74
0
 40
0
 40
0
 40
0
 40
0
 40
1
 40
1
 40
1
 40
1
 10
57.007415
 20
253.201735
 30
0.0
 10
56.894040
 20
253.136278
 30
0.0
 10
56.785471
 20
253.047341
 30
0.0
 10
56.681706
 20
252.934922
 30
0.0
  0
SPLINE
  5
10a
100
AcDbEntity
  8
0
 62
7
100
AcDbSpline
 70
8
 71
3
 72
8
 73
4
 74
0
 40
0
 40
0
 40
0
 40
0
 40
1
 40
1
 40
1
 40
1
 10
56.681706
 20
252.934922
 30
0.0
 10
56.579135
 20
252.823192
 30
0.0
 10
56.479327
 20
252.686006
 30
0.0
 10
56.382283
 20
252.523363
 30
0.0
  0
LWPOLYLINE
  5
10b
100
AcDbEntity
  8
0
 62
5
100
AcDbPolyline
 90
859
 70
0
 10
52.488688
 20
28.247688
 30
0.0
 10
52.656689
 20
28.292788
 30
0.0
 10
52.814688
 20
28.366487
 30
0.0
 10
52.957688
 20
28.466490
 30
0.0
 10
53.080689
 20
28.589688
 30
0.0
 10
53.180688
 20
28.732487
 30
0.0
 10
53.254687
 20
28.890489
 30
0.0
 10
53.299687
 20
29.058888
 30
0.0
 10
53.314673
 20
29.232489
 30
0.0
 10
53.866689
 20
36.596389
 30
0.0
 10
66.660689
 20
29.795088
 30
0.0
 10
66.818688
 20
29.721388
 30
0.0
 10
66.987688
 20
29.676289
 30
0.0
 10
67.160688
 20
29.661077
 30
0.0
 10
67.334689
 20
29.676300
 30
0.0
 10
67.502687
 20
29.721388
 30
0.0
 10
67.660689
 20
29.795088
 30
0.0
 10
67.803689
 20
29.894989
 30
0.0
 10
67.926689
 20
30.018289
 30
0.0
 10
68.026689
 20
30.161087
 30
0.0
 10
68.100688
 20
30.319090
 30
0.0
 10
68.145688
 20
30.487387
 30
0.0
 10
68.160702
 20
30.661089
 30
0.0
 10
68.145674
 20
30.834687
 30
0.0
 10
68.100688
 20
31.003089
 30
0.0
 10
68.026689
 20
31.161088
 30
0.0
 10
67.926689
 20
31.303887
 30
0.0
 10
67.803689
 20
31.427088
 30
0.0
 10
67.660689
 20
31.527088
 30
0.0
 10
54.121688
 20
39.988889
 30
0.0
 10
54.593688
 20
46.278688
 30
0.0
 10
61.711688
 20
42.652189
 30
0.0
 10
61.869687
 20
42.578487
 30
0.0
 10
62.038687
 20
42.533388
 30
0.0
 10
62.211689
 20
42.518176
 30
0.0
 10
62.385688
 20
42.533399
 30
0.0
 10
62.553689
 20
42.578487
 30
0.0
 10
62.711688
 20
42.652189
 30
0.0
 10
62.854688
 20
42.752189
 30
0.0
 10
62.978688
 20
42.875388
 30
0.0
 10
63.078687
 20
43.018189
 30
0.0
 10
63.151687
 20
43.176189
 30
0.0
 10
63.196687
 20
43.344588
 30
0.0
 10
63.211702
 20
43.518188
 30
0.0
 10
63.196673
 20
43.691888
 30
0.0
 10
63.151687
 20
43.860188
 30
0.0
 10
63.078687
 20
44.018187
 30
0.0
 10
62.978688
 20
44.160989
 30
0.0
 10
62.854688
 20
44.284289
 30
0.0
 10
62.711688
 20
44.384187
 30
0.0
 10
54.834688
 20
49.500789
 30
0.0
 10
55.332689
 20
56.142488
 30
0.0
 10
56.921688
 20
55.435688
 30
0.0
 10
57.089689
 20
55.390588
 30
0.0
 10
57.263688
 20
55.375377
 30
0.0
 10
57.436687
 20
55.390600
 30
0.0
 10
57.605687
 20
55.435688
 30
0.0
 10
57.763689
 20
55.509288
 30
0.0
 10
57.906689
 20
55.609288
 30
0.0
 10
58.029687
 20
55.732588
 30
0.0
 10
58.129689
 20
55.875387
 30
0.0
 10
58.202689
 20
56.033288
 30
0.0
 10
58.248688
 20
56.201690
 30
0.0
 10
58.263674
 20
56.375389
 30
0.0
 10
58.248702
 20
56.548989
 30
0.0
 10
58.202689
 20
56.717389
 30
0.0
 10
58.129689
 20
56.875388
 30
0.0
 10
58.029687
 20
57.018189
 30
0.0
 10
57.906689
 20
57.141388
 30
0.0
 10
55.536688
 20
58.863488
 30
0.0
 10
55.854687
 20
63.100818
 30
0.0
 10
59.683687
 20
61.257379
 30
0.0
 10
59.990688
 20
58.344589
 30
0.0
 10
60.035688
 20
58.176190
 30
0.0
 10
60.108688
 20
58.018187
 30
0.0
 10
60.208688
 20
57.875389
 30
0.0
 10
60.332688
 20
57.752187
 30
0.0
 10
60.474688
 20
57.652188
 30
0.0
 10
60.632687
 20
57.578488
 30
0.0
 10
60.801687
 20
57.533389
 30
0.0
 10
60.974687
 20
57.518177
 30
0.0
 10
61.148688
 20
57.533400
 30
0.0
 10
61.316689
 20
57.578488
 30
0.0
 10
61.474689
 20
57.652188
 30
0.0
 10
61.617688
 20
57.752187
 30
0.0
 10
61.740689
 20
57.875389
 30
0.0
 10
61.840689
 20
58.018187
 30
0.0
 10
61.914687
 20
58.176190
 30
0.0
 10
61.959688
 20
58.344589
 30
0.0
 10
62.141687
 20
60.073598
 30
0.0
 10
68.142688
 20
57.184190
 30
0.0
 10
68.635688
 20
47.803888
 30
0.0
 10
68.650674
 20
47.630287
 30
0.0
 10
68.695689
 20
47.461888
 30
0.0
 10
68.769687
 20
47.303889
 30
0.0
 10
68.869687
 20
47.161189
 30
0.0
 10
68.992688
 20
47.037889
 30
0.0
 10
69.135687
 20
46.937889
 30
0.0
 10
69.293689
 20
46.864288
 30
0.0
 10
69.461688
 20
46.819088
 30
0.0
 10
69.635689
 20
46.803876
 30
0.0
 10
69.808688
 20
46.819099
 30
0.0
 10
69.977689
 20
46.864288
 30
0.0
 10
70.135688
 20
46.937889
 30
0.0
 10
70.277688
 20
47.037889
 30
0.0
 10
70.401688
 20
47.161189
 30
0.0
 10
70.501688
 20
47.303889
 30
0.0
 10
70.574687
 20
47.461888
 30
0.0
 10
70.619688
 20
47.630287
 30
0.0
 10
70.635690
 20
47.803888
 30
0.0
 10
71.053689
 20
55.782389
 30
0.0
 10
76.736688
 20
53.046089
 30
0.0
 10
77.295688
 20
37.089688
 30
0.0
 10
77.310674
 20
36.915989
 30
0.0
 10
77.355689
 20
36.747590
 30
0.0
 10
77.429687
 20
36.589588
 30
0.0
 10
77.529687
 20
36.446887
 30
0.0
 10
77.652688
 20
36.323587
 30
0.0
 10
77.795687
 20
36.223588
 30
0.0
 10
77.953689
 20
36.149990
 30
0.0
 10
78.121688
 20
36.104888
 30
0.0
 10
78.295689
 20
36.089591
 30
0.0
 10
78.468688
 20
36.104885
 30
0.0
 10
78.637689
 20
36.149990
 30
0.0
 10
78.795688
 20
36.223588
 30
0.0
 10
78.938687
 20
36.323587
 30
0.0
 10
79.061688
 20
36.446887
 30
0.0
 10
79.161688
 20
36.589689
 30
0.0
 10
79.235689
 20
36.747590
 30
0.0
 10
79.280687
 20
36.915989
 30
0.0
 10
79.295701
 20
37.089688
 30
0.0
 10
79.802688
 20
51.570087
 30
0.0
 10
86.455687
 20
48.366489
 30
0.0
 10
86.613687
 20
48.292787
 30
0.0
 10
86.781688
 20
48.247688
 30
0.0
 10
86.955689
 20
48.232476
 30
0.0
 10
87.129688
 20
48.247699
 30
0.0
 10
87.297689
 20
48.292787
 30
0.0
 10
87.455688
 20
48.366489
 30
0.0
 10
87.598687
 20
48.466489
 30
0.0
 10
87.721688
 20
48.589688
 30
0.0
 10
87.821688
 20
48.732489
 30
0.0
 10
87.895687
 20
48.890489
 30
0.0
 10
87.940687
 20
49.058888
 30
0.0
 10
87.955673
 20
49.232488
 30
0.0
 10
87.940701
 20
49.406089
 30
0.0
 10
87.895687
 20
49.574488
 30
0.0
 10
87.821688
 20
49.732487
 30
0.0
 10
87.721688
 20
49.875289
 30
0.0
 10
87.598687
 20
49.998589
 30
0.0
 10
87.455688
 20
50.098487
 30
0.0
 10
81.354687
 20
54.258787
 30
0.0
 10
93.641689
 20
61.937899
 30
0.0
 10
93.784688
 20
62.037879
 30
0.0
 10
93.907689
 20
62.161139
 30
0.0
 10
94.007689
 20
62.303918
 30
0.0
 10
94.081687
 20
62.461909
 30
0.0
 10
94.126688
 20
62.630269
 30
0.0
 10
94.141674
 20
62.803928
 30
0.0
 10
94.126702
 20
62.977577
 30
0.0
 10
94.081687
 20
63.145939
 30
0.0
 10
94.007689
 20
63.303927
 30
0.0
 10
93.907689
 20
63.446709
 30
0.0
 10
93.784688
 20
63.569967
 30
0.0
 10
93.641689
 20
63.669939
 30
0.0
 10
93.483687
 20
63.743607
 30
0.0
 10
93.315688
 20
63.788717
 30
0.0
 10
93.141687
 20
63.803929
 30
0.0
 10
92.967689
 20
63.788717
 30
0.0
 10
92.799687
 20
63.743630
 30
0.0
 10
92.641688
 20
63.669939
 30
0.0
 10
78.543689
 20
56.175389
 30
0.0
 10
73.332687
 20
59.728779
 30
0.0
 10
80.032688
 20
64.080758
 30
0.0
 10
80.175687
 20
64.180727
 30
0.0
 10
80.298688
 20
64.303988
 30
0.0
 10
80.398688
 20
64.446778
 30
0.0
 10
80.472689
 20
64.604757
 30
0.0
 10
80.517687
 20
64.773117
 30
0.0
 10
80.532701
 20
64.946780
 30
0.0
 10
80.517673
 20
65.120428
 30
0.0
 10
80.472689
 20
65.288788
 30
0.0
 10
80.398688
 20
65.446779
 30
0.0
 10
80.298688
 20
65.589558
 30
0.0
 10
80.175687
 20
65.712818
 30
0.0
 10
80.032688
 20
65.812810
 30
0.0
 10
79.874689
 20
65.886470
 30
0.0
 10
79.706687
 20
65.931588
 30
0.0
 10
79.532689
 20
65.946772
 30
0.0
 10
79.358688
 20
65.931594
 30
0.0
 10
79.190689
 20
65.886470
 30
0.0
 10
79.032687
 20
65.812810
 30
0.0
 10
70.662687
 20
61.549157
 30
0.0
 10
65.159687
 20
65.301369
 30
0.0
 10
66.566689
 20
66.323598
 30
0.0
 10
66.689687
 20
66.446847
 30
0.0
 10
66.789689
 20
66.589638
 30
0.0
 10
66.863688
 20
66.747609
 30
0.0
 10
66.908688
 20
66.915988
 30
0.0
 10
66.923703
 20
67.089639
 30
0.0
 10
66.908674
 20
67.263279
 30
0.0
 10
66.863688
 20
67.431659
 30
0.0
 10
66.789689
 20
67.589638
 30
0.0
 10
66.689687
 20
67.732409
 30
0.0
 10
66.566689
 20
67.855689
 30
0.0
 10
66.423687
 20
67.955669
 30
0.0
 10
66.265687
 20
68.029329
 30
0.0
 10
66.097689
 20
68.074440
 30
0.0
 10
65.923688
 20
68.089652
 30
0.0
 10
65.749689
 20
68.074454
 30
0.0
 10
65.581688
 20
68.029318
 30
0.0
 10
62.905688
 20
66.838608
 30
0.0
 10
59.394688
 20
69.232488
 30
0.0
 10
62.905688
 20
71.626367
 30
0.0
 10
65.581688
 20
70.435658
 30
0.0
 10
65.749689
 20
70.390527
 30
0.0
 10
65.923688
 20
70.375344
 30
0.0
 10
66.097689
 20
70.390550
 30
0.0
 10
66.265687
 20
70.435649
 30
0.0
 10
66.423687
 20
70.509309
 30
0.0
 10
66.566689
 20
70.609289
 30
0.0
 10
66.689687
 20
70.732569
 30
0.0
 10
66.789689
 20
70.875337
 30
0.0
 10
66.863688
 20
71.033320
 30
0.0
 10
66.908688
 20
71.201699
 30
0.0
 10
66.923703
 20
71.375339
 30
0.0
 10
66.908674
 20
71.548988
 30
0.0
 10
66.863688
 20
71.717367
 30
0.0
 10
66.789689
 20
71.875338
 30
0.0
 10
66.689687
 20
72.018128
 30
0.0
 10
66.566689
 20
72.141378
 30
0.0
 10
65.159687
 20
73.163609
 30
0.0
 10
70.662687
 20
76.915818
 30
0.0
 10
79.032687
 20
72.652169
 30
0.0
 10
79.190689
 20
72.578509
 30
0.0
 10
79.358688
 20
72.533387
 30
0.0
 10
79.532689
 20
72.518204
 30
0.0
 10
79.706687
 20
72.533382
 30
0.0
 10
79.874689
 20
72.578509
 30
0.0
 10
80.032688
 20
72.652169
 30
0.0
 10
80.175687
 20
72.752157
 30
0.0
 10
80.298688
 20
72.875418
 30
0.0
 10
80.398688
 20
73.018197
 30
0.0
 10
80.472689
 20
73.176188
 30
0.0
 10
80.517687
 20
73.344547
 30
0.0
 10
80.532701
 20
73.518199
 30
0.0
 10
80.517673
 20
73.691859
 30
0.0
 10
80.472689
 20
73.860218
 30
0.0
 10
80.398688
 20
74.018198
 30
0.0
 10
80.298688
 20
74.160988
 30
0.0
 10
80.175687
 20
74.284249
 30
0.0
 10
80.032688
 20
74.384217
 30
0.0
 10
73.332687
 20
78.736197
 30
0.0
 10
78.543689
 20
82.289589
 30
0.0
 10
92.641688
 20
74.795037
 30
0.0
 10
92.799687
 20
74.721349
 30
0.0
 10
92.967689
 20
74.676250
 30
0.0
 10
93.141687
 20
74.661038
 30
0.0
 10
93.315688
 20
74.676261
 30
0.0
 10
93.483687
 20
74.721369
 30
0.0
 10
93.641689
 20
74.795037
 30
0.0
 10
93.784688
 20
74.895009
 30
0.0
 10
93.907689
 20
75.018269
 30
0.0
 10
94.007689
 20
75.161048
 30
0.0
 10
94.081687
 20
75.319039
 30
0.0
 10
94.126688
 20
75.487399
 30
0.0
 10
94.141674
 20
75.661047
 30
0.0
 10
94.126702
 20
75.834707
 30
0.0
 10
94.081687
 20
76.003069
 30
0.0
 10
94.007689
 20
76.161057
 30
0.0
 10
93.907689
 20
76.303839
 30
0.0
 10
93.784688
 20
76.427097
 30
0.0
 10
93.641689
 20
76.527077
 30
0.0
 10
81.354687
 20
84.206189
 30
0.0
 10
87.455688
 20
88.366488
 30
0.0
 10
87.598687
 20
88.466389
 30
0.0
 10
87.721688
 20
88.589690
 30
0.0
 10
87.821688
 20
88.732488
 30
0.0
 10
87.895687
 20
88.890488
 30
0.0
 10
87.940687
 20
89.058890
 30
0.0
 10
87.955673
 20
89.232487
 30
0.0
 10
87.940701
 20
89.406088
 30
0.0
 10
87.895687
 20
89.574487
 30
0.0
 10
87.821688
 20
89.732489
 30
0.0
 10
87.721688
 20
89.875288
 30
0.0
 10
87.598687
 20
89.998489
 30
0.0
 10
87.455688
 20
90.098489
 30
0.0
 10
87.297689
 20
90.172189
 30
0.0
 10
87.129688
 20
90.217288
 30
0.0
 10
86.955689
 20
90.232499
 30
0.0
 10
86.781688
 20
90.217276
 30
0.0
 10
86.613687
 20
90.172189
 30
0.0
 10
86.455687
 20
90.098489
 30
0.0
 10
79.802688
 20
86.894889
 30
0.0
 10
79.295687
 20
101.375288
 30
0.0
 10
79.280673
 20
101.548990
 30
0.0
 10
79.235689
 20
101.717389
 30
0.0
 10
79.161688
 20
101.875289
 30
0.0
 10
79.061688
 20
102.018088
 30
0.0
 10
78.938687
 20
102.141388
 30
0.0
 10
78.795688
 20
102.241388
 30
0.0
 10
78.637689
 20
102.314989
 30
0.0
 10
78.468688
 20
102.360088
 30
0.0
 10
78.295689
 20
102.375384
 30
0.0
 10
78.121688
 20
102.360091
 30
0.0
 10
77.953689
 20
102.314989
 30
0.0
 10
77.795687
 20
102.241388
 30
0.0
 10
77.652688
 20
102.141388
 30
0.0
 10
77.529687
 20
102.018088
 30
0.0
 10
77.429687
 20
101.875388
 30
0.0
 10
77.355689
 20
101.717389
 30
0.0
 10
77.310688
 20
101.548990
 30
0.0
 10
77.295702
 20
101.375288
 30
0.0
 10
76.736688
 20
85.418889
 30
0.0
 10
71.053689
 20
82.682589
 30
0.0
 10
70.635687
 20
90.661088
 30
0.0
 10
70.619685
 20
90.834688
 30
0.0
 10
70.574687
 20
91.003087
 30
0.0
 10
70.501688
 20
91.161090
 30
0.0
 10
70.401688
 20
91.303790
 30
0.0
 10
70.277688
 20
91.427090
 30
0.0
 10
70.135688
 20
91.527089
 30
0.0
 10
69.977689
 20
91.600687
 30
0.0
 10
69.808688
 20
91.645888
 30
0.0
 10
69.635689
 20
91.661100
 30
0.0
 10
69.461688
 20
91.645877
 30
0.0
 10
69.293689
 20
91.600687
 30
0.0
 10
69.135687
 20
91.527089
 30
0.0
 10
68.992688
 20
91.427090
 30
0.0
 10
68.869687
 20
91.303790
 30
0.0
 10
68.769687
 20
91.161090
 30
0.0
 10
68.695689
 20
91.003087
 30
0.0
 10
68.650688
 20
90.834688
 30
0.0
 10
68.635702
 20
90.661088
 30
0.0
 10
68.142688
 20
81.280789
 30
0.0
 10
62.141687
 20
78.391378
 30
0.0
 10
61.959688
 20
80.120390
 30
0.0
 10
61.914687
 20
80.288789
 30
0.0
 10
61.840689
 20
80.446788
 30
0.0
 10
61.740689
 20
80.589587
 30
0.0
 10
61.617688
 20
80.712788
 30
0.0
 10
61.474689
 20
80.812788
 30
0.0
 10
61.316689
 20
80.886488
 30
0.0
 10
61.148688
 20
80.931590
 30
0.0
 10
60.974687
 20
80.946801
 30
0.0
 10
60.801687
 20
80.931575
 30
0.0
 10
60.632687
 20
80.886488
 30
0.0
 10
60.474688
 20
80.812788
 30
0.0
 10
60.332688
 20
80.712788
 30
0.0
 10
60.208688
 20
80.589587
 30
0.0
 10
60.108688
 20
80.446788
 30
0.0
 10
60.035688
 20
80.288789
 30
0.0
 10
59.990688
 20
80.120390
 30
0.0
 10
59.683687
 20
77.207600
 30
0.0
 10
55.854687
 20
75.364158
 30
0.0
 10
55.536688
 20
79.601487
 30
0.0
 10
57.906689
 20
81.323588
 30
0.0
 10
58.029687
 20
81.446789
 30
0.0
 10
58.129689
 20
81.589588
 30
0.0
 10
58.202689
 20
81.747587
 30
0.0
 10
58.248688
 20
81.915989
 30
0.0
 10
58.263674
 20
82.089590
 30
0.0
 10
58.248702
 20
82.263289
 30
0.0
 10
58.202689
 20
82.431688
 30
0.0
 10
58.129689
 20
82.589589
 30
0.0
 10
58.029687
 20
82.732387
 30
0.0
 10
57.906689
 20
82.855688
 30
0.0
 10
57.763689
 20
82.955687
 30
0.0
 10
57.605687
 20
83.029288
 30
0.0
 10
57.436687
 20
83.074387
 30
0.0
 10
57.263688
 20
83.089599
 30
0.0
 10
57.089689
 20
83.074376
 30
0.0
 10
56.921688
 20
83.029288
 30
0.0
 10
55.332689
 20
82.322488
 30
0.0
 10
54.834688
 20
88.964187
 30
0.0
 10
62.711688
 20
94.080789
 30
0.0
 10
62.854688
 20
94.180690
 30
0.0
 10
62.978688
 20
94.303990
 30
0.0
 10
63.078687
 20
94.446788
 30
0.0
 10
63.151687
 20
94.604788
 30
0.0
 10
63.196687
 20
94.773088
 30
0.0
 10
63.211702
 20
94.946787
 30
0.0
 10
63.196673
 20
95.120388
 30
0.0
 10
63.151687
 20
95.288787
 30
0.0
 10
63.078687
 20
95.446789
 30
0.0
 10
62.978688
 20
95.589588
 30
0.0
 10
62.854688
 20
95.712789
 30
0.0
 10
62.711688
 20
95.812789
 30
0.0
 10
62.554688
 20
95.886489
 30
0.0
 10
62.385688
 20
95.931588
 30
0.0
 10
62.211689
 20
95.946800
 30
0.0
 10
62.038687
 20
95.931576
 30
0.0
 10
61.869687
 20
95.886489
 30
0.0
 10
61.711688
 20
95.812789
 30
0.0
 10
54.593688
 20
92.186287
 30
0.0
 10
54.121688
 20
98.476089
 30
0.0
 10
67.660689
 20
106.937888
 30
0.0
 10
67.803689
 20
107.037887
 30
0.0
 10
67.926689
 20
107.161089
 30
0.0
 10
68.026689
 20
107.303887
 30
0.0
 10
68.100688
 20
107.461890
 30
0.0
 10
68.145688
 20
107.630289
 30
0.0
 10
68.160702
 20
107.803889
 30
0.0
 10
68.145674
 20
107.977589
 30
0.0
 10
68.100688
 20
108.145889
 30
0.0
 10
68.026689
 20
108.303888
 30
0.0
 10
67.926689
 20
108.446687
 30
0.0
 10
67.803689
 20
108.569987
 30
0.0
 10
67.660689
 20
108.669888
 30
0.0
 10
67.502687
 20
108.743588
 30
0.0
 10
67.334689
 20
108.788690
 30
0.0
 10
67.160688
 20
108.803901
 30
0.0
 10
66.987688
 20
108.788675
 30
0.0
 10
66.818688
 20
108.743588
 30
0.0
 10
66.660689
 20
108.669888
 30
0.0
 10
53.866689
 20
101.868589
 30
0.0
 10
53.314687
 20
109.232490
 30
0.0
 10
53.299701
 20
109.406087
 30
0.0
 10
53.254687
 20
109.574489
 30
0.0
 10
53.180688
 20
109.732489
 30
0.0
 10
53.080689
 20
109.875287
 30
0.0
 10
52.957688
 20
109.998489
 30
0.0
 10
52.814688
 20
110.098489
 30
0.0
 10
52.656689
 20
110.172188
 30
0.0
 10
52.488688
 20
110.217287
 30
0.0
 10
52.314687
 20
110.232499
 30
0.0
 10
52.314687
 20
109.232490
 30
0.0
 10
47.118688
 20
109.232490
 30
0.0
 10
47.118688
 20
110.232488
 30
0.0
 10
46.944689
 20
110.217276
 30
0.0
 10
46.776688
 20
110.172188
 30
0.0
 10
46.618689
 20
110.098489
 30
0.0
 10
46.475687
 20
109.998489
 30
0.0
 10
46.352689
 20
109.875287
 30
0.0
 10
46.252689
 20
109.732489
 30
0.0
 10
46.178687
 20
109.574489
 30
0.0
 10
46.133687
 20
109.406087
 30
0.0
 10
46.118701
 20
109.232490
 30
0.0
 10
45.566688
 20
101.868589
 30
0.0
 10
32.772689
 20
108.669888
 30
0.0
 10
32.614689
 20
108.743588
 30
0.0
 10
32.445689
 20
108.788690
 30
0.0
 10
32.272687
 20
108.803901
 30
0.0
 10
32.098688
 20
108.788675
 30
0.0
 10
31.930687
 20
108.743588
 30
0.0
 10
31.772688
 20
108.669888
 30
0.0
 10
31.629689
 20
108.569987
 30
0.0
 10
31.506688
 20
108.446687
 30
0.0
 10
31.406688
 20
108.303888
 30
0.0
 10
31.332689
 20
108.145889
 30
0.0
 10
31.287689
 20
107.977589
 30
0.0
 10
31.272675
 20
107.803889
 30
0.0
 10
31.287703
 20
107.630289
 30
0.0
 10
31.332689
 20
107.461890
 30
0.0
 10
31.406688
 20
107.303887
 30
0.0
 10
31.506688
 20
107.161089
 30
0.0
 10
31.629689
 20
107.037887
 30
0.0
 10
31.772688
 20
106.937888
 30
0.0
 10
45.311689
 20
98.476089
 30
0.0
 10
44.839687
 20
92.186287
 30
0.0
 10
37.721687
 20
95.812789
 30
0.0
 10
37.563687
 20
95.886489
 30
0.0
 10
37.394687
 20
95.931588
 30
0.0
 10
37.221688
 20
95.946800
 30
0.0
 10
37.047689
 20
95.931576
 30
0.0
 10
36.878689
 20
95.886489
 30
0.0
 10
36.721689
 20
95.812789
 30
0.0
 10
36.578687
 20
95.712789
 30
0.0
 10
36.454687
 20
95.589588
 30
0.0
 10
36.354687
 20
95.446789
 30
0.0
 10
36.281687
 20
95.288787
 30
0.0
 10
36.236687
 20
95.120388
 30
0.0
 10
36.221701
 20
94.946787
 30
0.0
 10
36.236673
 20
94.773088
 30
0.0
 10
36.281687
 20
94.604788
 30
0.0
 10
36.354687
 20
94.446788
 30
0.0
 10
36.454687
 20
94.303990
 30
0.0
 10
36.578687
 20
94.180690
 30
0.0
 10
36.721689
 20
94.080789
 30
0.0
 10
44.598689
 20
88.964187
 30
0.0
 10
44.100688
 20
82.322488
 30
0.0
 10
42.511689
 20
83.029288
 30
0.0
 10
42.343688
 20
83.074387
 30
0.0
 10
42.169687
 20
83.089599
 30
0.0
 10
41.996687
 20
83.074376
 30
0.0
 10
41.827687
 20
83.029288
 30
0.0
 10
41.669688
 20
82.955687
 30
0.0
 10
41.526689
 20
82.855688
 30
0.0
 10
41.403688
 20
82.732387
 30
0.0
 10
41.303688
 20
82.589589
 30
0.0
 10
41.230688
 20
82.431688
 30
0.0
 10
41.184689
 20
82.263289
 30
0.0
 10
41.169703
 20
82.089590
 30
0.0
 10
41.184675
 20
81.915989
 30
0.0
 10
41.230688
 20
81.747587
 30
0.0
 10
41.303688
 20
81.589588
 30
0.0
 10
41.403688
 20
81.446789
 30
0.0
 10
41.526689
 20
81.323588
 30
0.0
 10
43.896689
 20
79.601487
 30
0.0
 10
43.578687
 20
75.364158
 30
0.0
 10
39.749688
 20
77.207600
 30
0.0
 10
39.442689
 20
80.120390
 30
0.0
 10
39.397689
 20
80.288789
 30
0.0
 10
39.324689
 20
80.446788
 30
0.0
 10
39.224689
 20
80.589587
 30
0.0
 10
39.100689
 20
80.712788
 30
0.0
 10
38.958689
 20
80.812788
 30
0.0
 10
38.800687
 20
80.886488
 30
0.0
 10
38.631687
 20
80.931590
 30
0.0
 10
38.458688
 20
80.946801
 30
0.0
 10
38.284689
 20
80.931575
 30
0.0
 10
38.116688
 20
80.886488
 30
0.0
 10
37.958689
 20
80.812788
 30
0.0
 10
37.815689
 20
80.712788
 30
0.0
 10
37.692688
 20
80.589587
 30
0.0
 10
37.592689
 20
80.446788
 30
0.0
 10
37.518687
 20
80.288789
 30
0.0
 10
37.473687
 20
80.120390
 30
0.0
 10
37.291687
 20
78.391378
 30
0.0
 10
31.290689
 20
81.280789
 30
0.0
 10
30.797689
 20
90.661088
 30
0.0
 10
30.782703
 20
90.834688
 30
0.0
 10
30.737689
 20
91.003087
 30
0.0
 10
30.663687
 20
91.161090
 30
0.0
 10
30.563687
 20
91.303790
 30
0.0
 10
30.440689
 20
91.427090
 30
0.0
 10
30.297687
 20
91.527089
 30
0.0
 10
30.139688
 20
91.600687
 30
0.0
 10
29.971687
 20
91.645888
 30
0.0
 10
29.797688
 20
91.661100
 30
0.0
 10
29.624689
 20
91.645877
 30
0.0
 10
29.455689
 20
91.600687
 30
0.0
 10
29.297689
 20
91.527089
 30
0.0
 10
29.155689
 20
91.427090
 30
0.0
 10
29.031689
 20
91.303790
 30
0.0
 10
28.931689
 20
91.161090
 30
0.0
 10
28.858687
 20
91.003087
 30
0.0
 10
28.813689
 20
90.834688
 30
0.0
 10
28.797687
 20
90.661088
 30
0.0
 10
28.379688
 20
82.682589
 30
0.0
 10
22.696687
 20
85.418889
 30
0.0
 10
22.137687
 20
101.375288
 30
0.0
 10
22.122687
 20
101.548990
 30
0.0
 10
22.077687
 20
101.717389
 30
0.0
 10
22.003687
 20
101.875388
 30
0.0
 10
21.903687
 20
102.018088
 30
0.0
 10
21.780687
 20
102.141388
 30
0.0
 10
21.637687
 20
102.241388
 30
0.0
 10
21.479687
 20
102.314989
 30
0.0
 10
21.311687
 20
102.360088
 30
0.0
 10
21.137687
 20
102.375384
 30
0.0
 10
20.964687
 20
102.360091
 30
0.0
 10
20.795687
 20
102.314989
 30
0.0
 10
20.637687
 20
102.241388
 30
0.0
 10
20.494687
 20
102.141388
 30
0.0
 10
20.371687
 20
102.018088
 30
0.0
 10
20.271687
 20
101.875289
 30
0.0
 10
20.197687
 20
101.717389
 30
0.0
 10
20.152687
 20
101.548990
 30
0.0
 10
20.137687
 20
101.375288
 30
0.0
 10
19.630687
 20
86.894889
 30
0.0
 10
12.977687
 20
90.098489
 30
0.0
 10
12.819687
 20
90.172189
 30
0.0
 10
12.651687
 20
90.217288
 30
0.0
 10
12.477687
 20
90.232499
 30
0.0
 10
12.303687
 20
90.217276
 30
0.0
 10
12.135687
 20
90.172189
 30
0.0
 10
11.977687
 20
90.098489
 30
0.0
 10
11.834687
 20
89.998489
 30
0.0
 10
11.711687
 20
89.875288
 30
0.0
 10
11.611687
 20
89.732489
 30
0.0
 10
11.537687
 20
89.574487
 30
0.0
 10
11.492687
 20
89.406088
 30
0.0
 10
11.477687
 20
89.232487
 30
0.0
 10
11.492687
 20
89.058890
 30
0.0
 10
11.537687
 20
88.890488
 30
0.0
 10
11.611687
 20
88.732488
 30
0.0
 10
11.711687
 20
88.589690
 30
0.0
 10
11.834687
 20
88.466389
 30
0.0
 10
11.977687
 20
88.366488
 30
0.0
 10
18.078687
 20
84.206189
 30
0.0
 10
5.791687
 20
76.527077
 30
0.0
 10
5.648687
 20
76.427097
 30
0.0
 10
5.525687
 20
76.303839
 30
0.0
 10
5.425687
 20
76.161057
 30
0.0
 10
5.351687
 20
76.003069
 30
0.0
 10
5.306687
 20
75.834707
 30
0.0
 10
5.291687
 20
75.661047
 30
0.0
 10
5.306687
 20
75.487399
 30
0.0
 10
5.351687
 20
75.319039
 30
0.0
 10
5.425687
 20
75.161048
 30
0.0
 10
5.525687
 20
75.018269
 30
0.0
 10
5.648687
 20
74.895009
 30
0.0
 10
5.791687
 20
74.795037
 30
0.0
 10
5.949687
 20
74.721369
 30
0.0
 10
6.117687
 20
74.676258
 30
0.0
 10
6.291687
 20
74.661046
 30
0.0
 10
6.465687
 20
74.676261
 30
0.0
 10
6.633687
 20
74.721349
 30
0.0
 10
6.791687
 20
74.795037
 30
0.0
 10
20.889687
 20
82.289589
 30
0.0
 10
26.100686
 20
78.736197
 30
0.0
 10
19.400687
 20
74.384217
 30
0.0
 10
19.257687
 20
74.284249
 30
0.0
 10
19.134687
 20
74.160988
 30
0.0
 10
19.034687
 20
74.018198
 30
0.0
 10
18.960687
 20
73.860218
 30
0.0
 10
18.915687
 20
73.691859
 30
0.0
 10
18.900687
 20
73.518199
 30
0.0
 10
18.915687
 20
73.344547
 30
0.0
 10
18.960687
 20
73.176188
 30
0.0
 10
19.034687
 20
73.018197
 30
0.0
 10
19.134687
 20
72.875418
 30
0.0
 10
19.257687
 20
72.752157
 30
0.0
 10
19.400687
 20
72.652169
 30
0.0
 10
19.558687
 20
72.578509
 30
0.0
 10
19.726687
 20
72.533387
 30
0.0
 10
19.900687
 20
72.518204
 30
0.0
 10
20.074687
 20
72.533382
 30
0.0
 10
20.242687
 20
72.578509
 30
0.0
 10
20.400687
 20
72.652169
 30
0.0
 10
28.770687
 20
76.915818
 30
0.0
 10
34.273688
 20
73.163609
 30
0.0
 10
32.866688
 20
72.141378
 30
0.0
 10
32.743688
 20
72.018128
 30
0.0
 10
32.643688
 20
71.875338
 30
0.0
 10
32.569689
 20
71.717367
 30
0.0
 10
32.524689
 20
71.548988
 30
0.0
 10
32.509674
 20
71.375339
 30
0.0
 10
32.524703
 20
71.201699
 30
0.0
 10
32.569689
 20
71.033320
 30
0.0
 10
32.643688
 20
70.875337
 30
0.0
 10
32.743688
 20
70.732569
 30
0.0
 10
32.866688
 20
70.609289
 30
0.0
 10
33.009688
 20
70.509309
 30
0.0
 10
33.167687
 20
70.435649
 30
0.0
 10
33.335688
 20
70.390539
 30
0.0
 10
33.509689
 20
70.375327
 30
0.0
 10
33.683688
 20
70.390522
 30
0.0
 10
33.851689
 20
70.435658
 30
0.0
 10
36.527689
 20
71.626367
 30
0.0
 10
40.038689
 20
69.232488
 30
0.0
 10
36.527689
 20
66.838608
 30
0.0
 10
33.851689
 20
68.029318
 30
0.0
 10
33.683688
 20
68.074448
 30
0.0
 10
33.509689
 20
68.089632
 30
0.0
 10
33.335688
 20
68.074426
 30
0.0
 10
33.167687
 20
68.029329
 30
0.0
 10
33.009688
 20
67.955669
 30
0.0
 10
32.866688
 20
67.855689
 30
0.0
 10
32.743688
 20
67.732409
 30
0.0
 10
32.643688
 20
67.589638
 30
0.0
 10
32.569689
 20
67.431659
 30
0.0
 10
32.524689
 20
67.263279
 30
0.0
 10
32.509674
 20
67.089639
 30
0.0
 10
32.524703
 20
66.915988
 30
0.0
 10
32.569689
 20
66.747609
 30
0.0
 10
32.643688
 20
66.589638
 30
0.0
 10
32.743688
 20
66.446847
 30
0.0
 10
32.866688
 20
66.323598
 30
0.0
 10
34.273688
 20
65.301369
 30
0.0
 10
28.770687
 20
61.549157
 30
0.0
 10
20.400687
 20
65.812810
 30
0.0
 10
20.242687
 20
65.886470
 30
0.0
 10
20.074687
 20
65.931588
 30
0.0
 10
19.900687
 20
65.946772
 30
0.0
 10
19.726687
 20
65.931594
 30
0.0
 10
19.558687
 20
65.886470
 30
0.0
 10
19.400687
 20
65.812810
 30
0.0
 10
19.257687
 20
65.712818
 30
0.0
 10
19.134687
 20
65.589558
 30
0.0
 10
19.034687
 20
65.446779
 30
0.0
 10
18.960687
 20
65.288788
 30
0.0
 10
18.915687
 20
65.120428
 30
0.0
 10
18.900687
 20
64.946780
 30
0.0
 10
18.915687
 20
64.773117
 30
0.0
 10
18.960687
 20
64.604757
 30
0.0
 10
19.034687
 20
64.446778
 30
0.0
 10
19.134687
 20
64.303988
 30
0.0
 10
19.257687
 20
64.180727
 30
0.0
 10
19.400687
 20
64.080758
 30
0.0
 10
26.100686
 20
59.728779
 30
0.0
 10
20.889687
 20
56.175389
 30
0.0
 10
6.791687
 20
63.669939
 30
0.0
 10
6.633687
 20
63.743630
 30
0.0
 10
6.465687
 20
63.788729
 30
0.0
 10
6.291687
 20
63.803941
 30
0.0
 10
6.117687
 20
63.788717
 30
0.0
 10
5.949687
 20
63.743607
 30
0.0
 10
5.791687
 20
63.669939
 30
0.0
 10
5.648687
 20
63.569967
 30
0.0
 10
5.525687
 20
63.446709
 30
0.0
 10
5.425687
 20
63.303927
 30
0.0
 10
5.351687
 20
63.145939
 30
0.0
 10
5.306687
 20
62.977577
 30
0.0
 10
5.291687
 20
62.803928
 30
0.0
 10
5.306687
 20
62.630269
 30
0.0
 10
5.351687
 20
62.461909
 30
0.0
 10
5.425687
 20
62.303918
 30
0.0
 10
5.525687
 20
62.161139
 30
0.0
 10
5.648687
 20
62.037879
 30
0.0
 10
5.791687
 20
61.937899
 30
0.0
 10
18.078687
 20
54.258787
 30
0.0
 10
11.977687
 20
50.098487
 30
0.0
 10
11.834687
 20
49.998589
 30
0.0
 10
11.711687
 20
49.875289
 30
0.0
 10
11.611687
 20
49.732487
 30
0.0
 10
11.537687
 20
49.574488
 30
0.0
 10
11.492687
 20
49.406089
 30
0.0
 10
11.477687
 20
49.232488
 30
0.0
 10
11.492687
 20
49.058888
 30
0.0
 10
11.537687
 20
48.890489
 30
0.0
 10
11.611687
 20
48.732489
 30
0.0
 10
11.711687
 20
48.589688
 30
0.0
 10
11.834687
 20
48.466489
 30
0.0
 10
11.977687
 20
48.366489
 30
0.0
 10
12.135687
 20
48.292787
 30
0.0
 10
12.303687
 20
48.247688
 30
0.0
 10
12.477687
 20
48.232476
 30
0.0
 10
12.651687
 20
48.247699
 30
0.0
 10
12.819687
 20
48.292787
 30
0.0
 10
12.977687
 20
48.366489
 30
0.0
 10
19.630687
 20
51.570087
 30
0.0
 10
20.137687
 20
37.089688
 30
0.0
 10
20.152687
 20
36.915989
 30
0.0
 10
20.197687
 20
36.747590
 30
0.0
 10
20.271687
 20
36.589689
 30
0.0
 10
20.371687
 20
36.446887
 30
0.0
 10
20.494687
 20
36.323587
 30
0.0
 10
20.637687
 20
36.223588
 30
0.0
 10
20.795687
 20
36.149990
 30
0.0
 10
20.964687
 20
36.104888
 30
0.0
 10
21.137687
 20
36.089591
 30
0.0
 10
21.311687
 20
36.104885
 30
0.0
 10
21.479687
 20
36.149990
 30
0.0
 10
21.637687
 20
36.223588
 30
0.0
 10
21.780687
 20
36.323587
 30
0.0
 10
21.903687
 20
36.446887
 30
0.0
 10
22.003687
 20
36.589588
 30
0.0
 10
22.077687
 20
36.747590
 30
0.0
 10
22.122687
 20
36.915989
 30
0.0
 10
22.137687
 20
37.089688
 30
0.0
 10
22.696687
 20
53.046089
 30
0.0
 10
28.379688
 20
55.782389
 30
0.0
 10
28.797687
 20
47.803888
 30
0.0
 10
28.813689
 20
47.630287
 30
0.0
 10
28.858687
 20
47.461888
 30
0.0
 10
28.931689
 20
47.303889
 30
0.0
 10
29.031689
 20
47.161189
 30
0.0
 10
29.155689
 20
47.037889
 30
0.0
 10
29.297689
 20
46.937889
 30
0.0
 10
29.455689
 20
46.864288
 30
0.0
 10
29.624689
 20
46.819088
 30
0.0
 10
29.797688
 20
46.803876
 30
0.0
 10
29.971687
 20
46.819099
 30
0.0
 10
30.139688
 20
46.864288
 30
0.0
 10
30.297687
 20
46.937889
 30
0.0
 10
30.440689
 20
47.037889
 30
0.0
 10
30.563687
 20
47.161189
 30
0.0
 10
30.663687
 20
47.303889
 30
0.0
 10
30.737689
 20
47.461888
 30
0.0
 10
30.782689
 20
47.630287
 30
0.0
 10
30.797675
 20
47.803888
 30
0.0
 10
31.290689
 20
57.184190
 30
0.0
 10
37.291687
 20
60.073598
 30
0.0
 10
37.473687
 20
58.344589
 30
0.0
 10
37.518687
 20
58.176190
 30
0.0
 10
37.592689
 20
58.018187
 30
0.0
 10
37.692688
 20
57.875389
 30
0.0
 10
37.815689
 20
57.752187
 30
0.0
 10
37.958689
 20
57.652188
 30
0.0
 10
38.116688
 20
57.578488
 30
0.0
 10
38.284689
 20
57.533389
 30
0.0
 10
38.458688
 20
57.518177
 30
0.0
 10
38.631687
 20
57.533400
 30
0.0
 10
38.800687
 20
57.578488
 30
0.0
 10
38.958689
 20
57.652188
 30
0.0
 10
39.100689
 20
57.752187
 30
0.0
 10
39.224689
 20
57.875389
 30
0.0
 10
39.324689
 20
58.018187
 30
0.0
 10
39.397689
 20
58.176190
 30
0.0
 10
39.442689
 20
58.344589
 30
0.0
 10
39.749688
 20
61.257379
 30
0.0
 10
43.578687
 20
63.100818
 30
0.0
 10
43.896689
 20
58.863488
 30
0.0
 10
41.526689
 20
57.141388
 30
0.0
 10
41.403688
 20
57.018189
 30
0.0
 10
41.303688
 20
56.875388
 30
0.0
 10
41.230688
 20
56.717389
 30
0.0
 10
41.184689
 20
56.548989
 30
0.0
 10
41.169703
 20
56.375389
 30
0.0
 10
41.184675
 20
56.201690
 30
0.0
 10
41.230688
 20
56.033288
 30
0.0
 10
41.303688
 20
55.875387
 30
0.0
 10
41.403688
 20
55.732588
 30
0.0
 10
41.526689
 20
55.609288
 30
0.0
 10
41.669688
 20
55.509288
 30
0.0
 10
41.827687
 20
55.435688
 30
0.0
 10
41.996687
 20
55.390588
 30
0.0
 10
42.169687
 20
55.375377
 30
0.0
 10
42.343688
 20
55.390600
 30
0.0
 10
42.511689
 20
55.435688
 30
0.0
 10
44.100688
 20
56.142488
 30
0.0
 10
44.598689
 20
49.500789
 30
0.0
 10
36.721689
 20
44.384187
 30
0.0
 10
36.578687
 20
44.284289
 30
0.0
 10
36.454687
 20
44.160989
 30
0.0
 10
36.354687
 20
44.018187
 30
0.0
 10
36.281687
 20
43.860188
 30
0.0
 10
36.236687
 20
43.691888
 30
0.0
 10
36.221701
 20
43.518188
 30
0.0
 10
36.236673
 20
43.344588
 30
0.0
 10
36.281687
 20
43.176189
 30
0.0
 10
36.354687
 20
43.018189
 30
0.0
 10
36.454687
 20
42.875388
 30
0.0
 10
36.578687
 20
42.752189
 30
0.0
 10
36.721689
 20
42.652189
 30
0.0
 10
36.879688
 20
42.578487
 30
0.0
 10
37.047689
 20
42.533388
 30
0.0
 10
37.221688
 20
42.518176
 30
0.0
 10
37.394687
 20
42.533399
 30
0.0
 10
37.563687
 20
42.578487
 30
0.0
 10
37.721687
 20
42.652189
 30
0.0
 10
44.839687
 20
46.278688
 30
0.0
 10
45.311689
 20
39.988889
 30
0.0
 10
31.772688
 20
31.527088
 30
0.0
 10
31.629689
 20
31.427088
 30
0.0
 10
31.506688
 20
31.303887
 30
0.0
 10
31.406688
 20
31.161088
 30
0.0
 10
31.332689
 20
31.003089
 30
0.0
 10
31.287689
 20
30.834687
 30
0.0
 10
31.272675
 20
30.661089
 30
0.0
 10
31.287703
 20
30.487387
 30
0.0
 10
31.332689
 20
30.319090
 30
0.0
 10
31.406688
 20
30.161087
 30
0.0
 10
31.506688
 20
30.018289
 30
0.0
 10
31.629689
 20
29.894989
 30
0.0
 10
31.772688
 20
29.795088
 30
0.0
 10
31.930687
 20
29.721388
 30
0.0
 10
32.098688
 20
29.676289
 30
0.0
 10
32.272687
 20
29.661077
 30
0.0
 10
32.445689
 20
29.676300
 30
0.0
 10
32.614689
 20
29.721388
 30
0.0
 10
32.772689
 20
29.795088
 30
0.0
 10
45.566688
 20
36.596389
 30
0.0
 10
46.118687
 20
29.232489
 30
0.0
 10
46.133673
 20
29.058888
 30
0.0
 10
46.178687
 20
28.890489
 30
0.0
 10
46.252689
 20
28.732487
 30
0.0
 10
46.352689
 20
28.589688
 30
0.0
 10
46.475687
 20
28.466490
 30
0.0
 10
46.618689
 20
28.366487
 30
0.0
 10
46.776688
 20
28.292788
 30
0.0
 10
46.944689
 20
28.247688
 30
0.0
 10
47.118688
 20
28.232477
 30
0.0
 10
47.118688
 20
82.565789
 30
0.0
 10
52.314687
 20
82.565789
 30
0.0
 10
52.314687
 20
28.232488
 30
0.0
 10
52.488688
 20
28.247700
 30
0.0
  0
SPLINE
  5
10c
100
AcDbEntity
  8
0
 62
7
100
AcDbSpline
 70
8
 71
3
 72
8
 73
4
 74
0
 40
0
 40
0
 40
0
 40
0
 40
1
 40
1
 40
1
 40
1
 10
56.171441
 20
252.888551
 30
0.0
 10
56.283277
 20
253.031088
 30
0.0
 10
56.393833
 20
253.153792
 30
0.0
 10
56.503109
 20
253.256664
 30
0.0
  0
SPLINE
  5
10d
100
AcDbEntity
  8
0
 62
7
100
AcDbSpline
 70
8
 71
3
 72
8
 73
4
 74
0
 40
0
 40
0
 40
0
 40
0
 40
1
 40
1
 40
1
 40
1
 10
56.503109
 20
253.256664
 30
0.0
 10
56.612386
 20
253.359535
 30
0.0
 10
56.719535
 20
253.441287
 30
0.0
 10
56.824556
 20
253.501920
 30
0.0
  0
SPLINE
  5
10e
100
AcDbEntity
  8
0
 62
7
100
AcDbSpline
 70
8
 71
3
 72
8
 73
4
 74
0
 40
0
 40
0
 40
0
 40
0
 40
1
 40
1
 40
1
 40
1
 10
56.824556
 20
253.501920
 30
0.0
 10
57.101428
 20
253.661773
 30
0.0
 10
57.362173
 20
253.720023
 30
0.0
 10
57.606791
 20
253.676671
 30
0.0
  0
SPLINE
  5
10f
100
AcDbEntity
  8
0
 62
7
100
AcDbSpline
 70
8
 71
3
 72
8
 73
4
 74
0
 40
0
 40
0
 40
0
 40
0
 40
1
 40
1
 40
1
 40
1
 10
57.606791
 20
253.676671
 30
0.0
 10
57.851408
 20
253.633319
 30
0.0
 10
58.040551
 20
253.495883
 30
0.0
 10
58.174220
 20
253.264361
 30
0.0
  0
SPLINE
  5
110
100
AcDbEntity
  8
0
 62
7
100
AcDbSpline
 70
8
 71
3
 72
8
 73
4
 74
0
 40
0
 40
0
 40
0
 40
0
 40
1
 40
1
 40
1
 40
1
 10
58.174220
 20
253.264361
 30
0.0
 10
58.237610
 20
253.154567
 30
0.0
 10
58.277015
 20
253.038085
 30
0.0
 10
58.292435
 20
252.914917
 30
0.0
  0
SPLINE
  5
111
100
AcDbEntity
  8
0
 62
7
100
AcDbSpline
 70
8
 71
3
 72
8
 73
4
 74
0
 40
0
 40
0
 40
0
 40
0
 40
1
 40
1
 40
1
 40
1
 10
58.292435
 20
252.914917
 30
0.0
 10
58.308358
 20
252.793629
 30
0.0
 10
58.300604
 20
252.634803
 30
0.0
 10
58.269174
 20
252.438441
 30
0.0
  0
SPLINE
  5
112
100
AcDbEntity
  8
0
 62
7
100
AcDbSpline
 70
8
 71
3
 72
8
 73
4
 74
0
 40
0
 40
0
 40
0
 40
0
 40
1
 40
1
 40
1
 40
1
 10
58.269174
 20
252.438441
 30
0.0
 10
58.259319
 20
252.386607
 30
0.0
 10
58.222320
 20
252.231582
 30
0.0
 10
58.158177
 20
251.973368
 30
0.0
  0
SPLINE
  5
113
100
AcDbEntity
  8
0
 62
7
100
AcDbSpline
 70
8
 71
3
 72
8
 73
4
 74
0
 40
0
 40
0
 40
0
 40
0
 40
1
 40
1
 40
1
 40
1
 10
58.158177
 20
251.973368
 30
0.0
 10
58.093343
 20
251.716349
 30
0.0
 10
58.001113
 20
251.355198
 30
0.0
 10
57.881485
 20
250.889917
 30
0.0
  0
LWPOLYLINE
  5
114
100
AcDbEntity
  8
0
 62
7
100
AcDbPolyline
 90
7
 70
1
 10
57.881485
 20
250.889917
 30
0.0
 10
59.143523
 20
251.618555
 30
0.0
 10
59.319223
 20
251.314234
 30
0.0
 10
57.622185
 20
250.334448
 30
0.0
 10
57.446485
 20
250.638770
 30
0.0
 10
57.881485
 20
250.889917
 30
0.0
 10
57.881485
 20
250.889917
 30
0.0
  0
SPLINE
  5
115
100
AcDbEntity
  8
0
 62
7
100
AcDbSpline
 70
8
 71
3
 72
8
 73
4
 74
0
 40
0
 40
0
 40
0
 40
0
 40
1
 40
1
 40
1
 40
1
 10
59.447759
 20
254.634536
 30
0.0
 10
59.261586
 20
254.527049
 30
0.0
 10
59.174414
 20
254.354196
 30
0.0
 10
59.186244
 20
254.115978
 30
0.0
  0
SPLINE
  5
116
100
AcDbEntity
  8
0
 62
7
100
AcDbSpline
 70
8
 71
3
 72
8
 73
4
 74
0
 40
0
 40
0
 40
0
 40
0
 40
1
 40
1
 40
1
 40
1
 10
59.186244
 20
254.115978
 30
0.0
 10
59.198578
 20
253.879641
 30
0.0
 10
59.310853
 20
253.577686
 30
0.0
 10
59.523071
 20
253.210114
 30
0.0
  0
SPLINE
  5
117
100
AcDbEntity
  8
0
 62
7
100
AcDbSpline
 70
8
 71
3
 72
8
 73
4
 74
0
 40
0
 40
0
 40
0
 40
0
 40
1
 40
1
 40
1
 40
1
 10
59.523071
 20
253.210114
 30
0.0
 10
59.734600
 20
252.843736
 30
0.0
 10
59.939962
 20
252.595526
 30
0.0
 10
60.139157
 20
252.465483
 30
0.0
  0
SPLINE
  5
118
100
AcDbEntity
  8
0
 62
7
100
AcDbSpline
 70
8
 71
3
 72
8
 73
4
 74
0
 40
0
 40
0
 40
0
 40
0
 40
1
 40
1
 40
1
 40
1
 10
60.139157
 20
252.465483
 30
0.0
 10
60.338857
 20
252.337322
 30
0.0
 10
60.531793
 20
252.326985
 30
0.0
 10
60.717967
 20
252.434472
 30
0.0
  0
SPLINE
  5
119
100
AcDbEntity
  8
0
 62
7
100
AcDbSpline
 70
8
 71
3
 72
8
 73
4
 74
0
 40
0
 40
0
 40
0
 40
0
 40
1
 40
1
 40
1
 40
1
 10
60.717967
 20
252.434472
 30
0.0
 10
60.905334
 20
252.542649
 30
0.0
 10
60.992850
 20
252.714906
 30
0.0
 10
60.980515
 20
252.951242
 30
0.0
  0
SPLINE
  5
11a
100
AcDbEntity
  8
0
 62
7
100
AcDbSpline
 70
8
 71
3
 72
8
 73
4
 74
0
 40
0
 40
0
 40
0
 40
0
 40
1
 40
1
 40
1
 40
1
 10
60.980515
 20
252.951242
 30
0.0
 10
60.968687
 20
253.189461
 30
0.0
 10
60.857009
 20
253.491759
 30
0.0
 10
60.645480
 20
253.858137
 30
0.0
  0
SPLINE
  5
11b
100
AcDbEntity
  8
0
 62
7
100
AcDbSpline
 70
8
 71
3
 72
8
 73
4
 74
0
 40
0
 40
0
 40
0
 40
0
 40
1
 40
1
 40
1
 40
1
 10
60.645480
 20
253.858137
 30
0.0
 10
60.433262
 20
254.225710
 30
0.0
 10
60.227303
 20
254.473576
 30
0.0
 10
60.027601
 20
254.601736
 30
0.0
  0
SPLINE
  5
11c
100
AcDbEntity
  8
0
 62
7
100
AcDbSpline
 70
8
 71
3
 72
8
 73
4
 74
0
 40
0
 40
0
 40
0
 40
0
 40
1
 40
1
 40
1
 40
1
 10
60.027601
 20
254.601736
 30
0.0
 10
59.828407
 20
254.731780
 30
0.0
 10
59.635127
 20
254.742713
 30
0.0
 10
59.447759
 20
254.634536
 30
0.0
  0
LWPOLYLINE
  5
11d
100
AcDbEntity
  8
0
 62
7
100
AcDbPolyline
 90
4
 70
1
 10
56.382283
 20
252.523363
 30
0.0
 10
56.171441
 20
252.888551
 30
0.0
 10
56.382283
 20
252.523363
 30
0.0
 10
56.382283
 20
252.523363
 30
0.0
  0
SPLINE
  5
11e
100
AcDbEntity
  8
0
 62
7
100
AcDbSpline
 70
8
 71
3
 72
8
 73
4
 74
0
 40
0
 40
0
 40
0
 40
0
 40
1
 40
1
 40
1
 40
1
 10
59.282395
 20
254.920955
 30
0.0
 10
59.581943
 20
255.093899
 30
0.0
 10
59.879040
 20
255.107101
 30
0.0
 10
60.173686
 20
254.960562
 30
0.0
  0
SPLINE
  5
11f
100
AcDbEntity
  8
0
 62
7
100
AcDbSpline
 70
8
 71
3
 72
8
 73
4
 74
0
 40
0
 40
0
 40
0
 40
0
 40
1
 40
1
 40
1
 40
1
 10
60.173686
 20
254.960562
 30
0.0
 10
60.468836
 20
254.815906
 30
0.0
 10
60.746635
 20
254.518022
 30
0.0
 10
61.007085
 20
254.066910
 30
0.0
  0
SPLINE
  5
120
100
AcDbEntity
  8
0
 62
7
100
AcDbSpline
 70
8
 71
3
 72
8
 73
4
 74
0
 40
0
 40
0
 40
0
 40
0
 40
1
 40
1
 40
1
 40
1
 10
61.007085
 20
254.066910
 30
0.0
 10
61.266845
 20
253.616992
 30
0.0
 10
61.385920
 20
253.227468
 30
0.0
 10
61.364311
 20
252.898339
 30
0.0
  0
SPLINE
  5
121
100
AcDbEntity
  8
0
 62
7
100
AcDbSpline
 70
8
 71
3
 72
8
 73
4
 74
0
 40
0
 40
0
 40
0
 40
0
 40
1
 40
1
 40
1
 40
1
 10
61.364311
 20
252.898339
 30
0.0
 10
61.343205
 20
252.571093
 30
0.0
 10
61.182878
 20
252.320998
 30
0.0
 10
60.883330
 20
252.148054
 30
0.0
  0
SPLINE
  5
122
100
AcDbEntity
  8
0
 62
7
100
AcDbSpline
 70
8
 71
3
 72
8
 73
4
 74
0
 40
0
 40
0
 40
0
 40
0
 40
1
 40
1
 40
1
 40
1
 10
60.883330
 20
252.148054
 30
0.0
 10
60.583783
 20
251.975110
 30
0.0
 10
60.286434
 20
251.960966
 30
0.0
 10
59.991285
 20
252.105622
 30
0.0
  0
SPLINE
  5
123
100
AcDbEntity
  8
0
 62
7
100
AcDbSpline
 70
8
 71
3
 72
8
 73
4
 74
0
 40
0
 40
0
 40
0
 40
0
 40
1
 40
1
 40
1
 40
1
 10
59.991285
 20
252.105622
 30
0.0
 10
59.696640
 20
252.252162
 30
0.0
 10
59.419438
 20
252.550391
 30
0.0
 10
59.159678
 20
253.000309
 30
0.0
  0
SPLINE
  5
124
100
AcDbEntity
  8
0
 62
7
100
AcDbSpline
 70
8
 71
3
 72
8
 73
4
 74
0
 40
0
 40
0
 40
0
 40
0
 40
1
 40
1
 40
1
 40
1
 10
59.159678
 20
253.000309
 30
0.0
 10
58.899228
 20
253.451421
 30
0.0
 10
58.779555
 20
253.840600
 30
0.0
 10
58.800660
 20
254.167845
 30
0.0
  0
SPLINE
  5
125
100
AcDbEntity
  8
0
 62
7
100
AcDbSpline
 70
8
 71
3
 72
8
 73
4
 74
0
 40
0
 40
0
 40
0
 40
0
 40
1
 40
1
 40
1
 40
1
 10
58.800660
 20
254.167845
 30
0.0
 10
58.822269
 20
254.496974
 30
0.0
 10
58.982848
 20
254.748011
 30
0.0
 10
59.282395
 20
254.920955
 30
0.0
  0
LWPOLYLINE
  5
126
100
AcDbEntity
  8
0
 62
7
100
AcDbPolyline
 90
4
 70
1
 10
57.881485
 20
250.889917
 30
0.0
 10
57.881485
 20
250.889917
 30
0.0
 10
57.881485
 20
250.889917
 30
0.0
 10
57.881485
 20
250.889917
 30
0.0
  0
LWPOLYLINE
  5
127
100
AcDbEntity
  8
0
 62
7
100
AcDbPolyline
 90
4
 70
1
 10
59.447759
 20
254.634536
 30
0.0
 10
59.447759
 20
254.634536
 30
0.0
 10
59.447759
 20
254.634536
 30
0.0
 10
59.447759
 20
254.634536
 30
0.0
  0
SPLINE
  5
128
100
AcDbEntity
  8
0
 62
7
100
AcDbSpline
 70
8
 71
3
 72
8
 73
4
 74
0
 40
0
 40
0
 40
0
 40
0
 40
1
 40
1
 40
1
 40
1
 10
64.789232
 20
256.164608
 30
0.0
 10
64.617380
 20
256.065389
 30
0.0
 10
64.508454
 20
255.941239
 30
0.0
 10
64.462455
 20
255.792159
 30
0.0
  0
SPLINE
  5
129
100
AcDbEntity
  8
0
 62
7
100
AcDbSpline
 70
8
 71
3
 72
8
 73
4
 74
0
 40
0
 40
0
 40
0
 40
0
 40
1
 40
1
 40
1
 40
1
 10
64.462455
 20
255.792159
 30
0.0
 10
64.417649
 20
255.643765
 30
0.0
 10
64.441755
 20
255.489012
 30
0.0
 10
64.534772
 20
255.327901
 30
0.0
  0
SPLINE
  5
12a
100
AcDbEntity
  8
0
 62
7
100
AcDbSpline
 70
8
 71
3
 72
8
 73
4
 74
0
 40
0
 40
0
 40
0
 40
0
 40
1
 40
1
 40
1
 40
1
 10
64.534772
 20
255.327901
 30
0.0
 10
64.627790
 20
255.166790
 30
0.0
 10
64.749756
 20
255.068538
 30
0.0
 10
64.900671
 20
255.033146
 30
0.0
  0
SPLINE
  5
12b
100
AcDbEntity
  8
0
 62
7
100
AcDbSpline
 70
8
 71
3
 72
8
 73
4
 74
0
 40
0
 40
0
 40
0
 40
0
 40
1
 40
1
 40
1
 40
1
 10
64.900671
 20
255.033146
 30
0.0
 10
65.052779
 20
254.998440
 30
0.0
 10
65.214760
 20
255.030697
 30
0.0
 10
65.386612
 20
255.129916
 30
0.0
  0
SPLINE
  5
12c
100
AcDbEntity
  8
0
 62
7
100
AcDbSpline
 70
8
 71
3
 72
8
 73
4
 74
0
 40
0
 40
0
 40
0
 40
0
 40
1
 40
1
 40
1
 40
1
 10
65.386612
 20
255.129916
 30
0.0
 10
65.558463
 20
255.229134
 30
0.0
 10
65.667387
 20
255.353284
 30
0.0
 10
65.713386
 20
255.502367
 30
0.0
  0
SPLINE
  5
12d
100
AcDbEntity
  8
0
 62
7
100
AcDbSpline
 70
8
 71
3
 72
8
 73
4
 74
0
 40
0
 40
0
 40
0
 40
0
 40
1
 40
1
 40
1
 40
1
 10
65.713386
 20
255.502367
 30
0.0
 10
65.758696
 20
255.652642
 30
0.0
 10
65.735187
 20
255.807738
 30
0.0
 10
65.642859
 20
255.967655
 30
0.0
  0
SPLINE
  5
12e
100
AcDbEntity
  8
0
 62
7
100
AcDbSpline
 70
8
 71
3
 72
8
 73
4
 74
0
 40
0
 40
0
 40
0
 40
0
 40
1
 40
1
 40
1
 40
1
 10
65.642859
 20
255.967655
 30
0.0
 10
65.549841
 20
256.128766
 30
0.0
 10
65.427278
 20
256.226675
 30
0.0
 10
65.275170
 20
256.261380
 30
0.0
  0
SPLINE
  5
12f
100
AcDbEntity
  8
0
 62
7
100
AcDbSpline
 70
8
 71
3
 72
8
 73
4
 74
0
 40
0
 40
0
 40
0
 40
0
 40
1
 40
1
 40
1
 40
1
 10
65.275170
 20
256.261380
 30
0.0
 10
65.124257
 20
256.296773
 30
0.0
 10
64.962277
 20
256.264516
 30
0.0
 10
64.789232
 20
256.164608
 30
0.0
  0
LWPOLYLINE
  5
130
100
AcDbEntity
  8
0
 62
7
100
AcDbPolyline
 90
4
 70
1
 10
59.282395
 20
254.920955
 30
0.0
 10
59.282395
 20
254.920955
 30
0.0
 10
59.282395
 20
254.920955
 30
0.0
 10
59.282395
 20
254.920955
 30
0.0
  0
SPLINE
  5
131
100
AcDbEntity
  8
0
 62
7
100
AcDbSpline
 70
8
 71
3
 72
8
 73
4
 74
0
 40
0
 40
0
 40
0
 40
0
 40
1
 40
1
 40
1
 40
1
 10
64.338742
 20
256.109784
 30
0.0
 10
64.161549
 20
256.058402
 30
0.0
 10
63.998732
 20
256.060668
 30
0.0
 10
63.850292
 20
256.116584
 30
0.0
  0
SPLINE
  5
132
100
AcDbEntity
  8
0
 62
7
100
AcDbSpline
 70
8
 71
3
 72
8
 73
4
 74
0
 40
0
 40
0
 40
0
 40
0
 40
1
 40
1
 40
1
 40
1
 10
63.850292
 20
256.116584
 30
0.0
 10
63.703042
 20
256.173189
 30
0.0
 10
63.585319
 20
256.277870
 30
0.0
 10
63.497125
 20
256.430627
 30
0.0
  0
SPLINE
  5
133
100
AcDbEntity
  8
0
 62
7
100
AcDbSpline
 70
8
 71
3
 72
8
 73
4
 74
0
 40
0
 40
0
 40
0
 40
0
 40
1
 40
1
 40
1
 40
1
 10
63.497125
 20
256.430627
 30
0.0
 10
63.373790
 20
256.644249
 30
0.0
 10
63.352076
 20
256.856870
 30
0.0
 10
63.431984
 20
257.068490
 30
0.0
  0
SPLINE
  5
134
100
AcDbEntity
  8
0
 62
7
100
AcDbSpline
 70
8
 71
3
 72
8
 73
4
 74
0
 40
0
 40
0
 40
0
 40
0
 40
1
 40
1
 40
1
 40
1
 10
63.431984
 20
257.068490
 30
0.0
 10
63.513083
 20
257.280800
 30
0.0
 10
63.686102
 20
257.463436
 30
0.0
 10
63.951041
 20
257.616399
 30
0.0
  0
SPLINE
  5
135
100
AcDbEntity
  8
0
 62
7
100
AcDbSpline
 70
8
 71
3
 72
8
 73
4
 74
0
 40
0
 40
0
 40
0
 40
0
 40
1
 40
1
 40
1
 40
1
 10
63.951041
 20
257.616399
 30
0.0
 10
64.217172
 20
257.770050
 30
0.0
 10
64.461849
 20
257.828570
 30
0.0
 10
64.685070
 20
257.791960
 30
0.0
  0
SPLINE
  5
136
100
AcDbEntity
  8
0
 62
7
100
AcDbSpline
 70
8
 71
3
 72
8
 73
4
 74
0
 40
0
 40
0
 40
0
 40
0
 40
1
 40
1
 40
1
 40
1
 10
64.685070
 20
257.791960
 30
0.0
 10
64.908291
 20
257.755351
 30
0.0
 10
65.081570
 20
257.630236
 30
0.0
 10
65.204905
 20
257.416614
 30
0.0
  0
SPLINE
  5
137
100
AcDbEntity
  8
0
 62
7
100
AcDbSpline
 70
8
 71
3
 72
8
 73
4
 74
0
 40
0
 40
0
 40
0
 40
0
 40
1
 40
1
 40
1
 40
1
 10
65.204905
 20
257.416614
 30
0.0
 10
65.293099
 20
257.263857
 30
0.0
 10
65.324298
 20
257.109222
 30
0.0
 10
65.298501
 20
256.952708
 30
0.0
  0
SPLINE
  5
138
100
AcDbEntity
  8
0
 62
7
100
AcDbSpline
 70
8
 71
3
 72
8
 73
4
 74
0
 40
0
 40
0
 40
0
 40
0
 40
1
 40
1
 40
1
 40
1
 10
65.298501
 20
256.952708
 30
0.0
 10
65.273898
 20
256.796886
 30
0.0
 10
65.195645
 20
256.655438
 30
0.0
 10
65.063743
 20
256.528364
 30
0.0
  0
SPLINE
  5
139
100
AcDbEntity
  8
0
 62
7
100
AcDbSpline
 70
8
 71
3
 72
8
 73
4
 74
0
 40
0
 40
0
 40
0
 40
0
 40
1
 40
1
 40
1
 40
1
 10
65.063743
 20
256.528364
 30
0.0
 10
65.261409
 20
256.588385
 30
0.0
 10
65.442681
 20
256.587227
 30
0.0
 10
65.607561
 20
256.524889
 30
0.0
  0
SPLINE
  5
13a
100
AcDbEntity
  8
0
 62
7
100
AcDbSpline
 70
8
 71
3
 72
8
 73
4
 74
0
 40
0
 40
0
 40
0
 40
0
 40
1
 40
1
 40
1
 40
1
 10
65.607561
 20
256.524889
 30
0.0
 10
65.773634
 20
256.463242
 30
0.0
 10
65.905935
 20
256.347089
 30
0.0
 10
66.004466
 20
256.176429
 30
0.0
  0
SPLINE
  5
13b
100
AcDbEntity
  8
0
 62
7
100
AcDbSpline
 70
8
 71
3
 72
8
 73
4
 74
0
 40
0
 40
0
 40
0
 40
0
 40
1
 40
1
 40
1
 40
1
 10
66.004466
 20
256.176429
 30
0.0
 10
66.153982
 20
255.917459
 30
0.0
 10
66.189341
 20
255.672935
 30
0.0
 10
66.110541
 20
255.442858
 30
0.0
  0
SPLINE
  5
13c
100
AcDbEntity
  8
0
 62
7
100
AcDbSpline
 70
8
 71
3
 72
8
 73
4
 74
0
 40
0
 40
0
 40
0
 40
0
 40
1
 40
1
 40
1
 40
1
 10
66.110541
 20
255.442858
 30
0.0
 10
66.032938
 20
255.213472
 30
0.0
 10
65.846749
 20
255.013685
 30
0.0
 10
65.551976
 20
254.843498
 30
0.0
  0
SPLINE
  5
13d
100
AcDbEntity
  8
0
 62
7
100
AcDbSpline
 70
8
 71
3
 72
8
 73
4
 74
0
 40
0
 40
0
 40
0
 40
0
 40
1
 40
1
 40
1
 40
1
 10
65.551976
 20
254.843498
 30
0.0
 10
65.257201
 20
254.673309
 30
0.0
 10
64.990488
 20
254.611613
 30
0.0
 10
64.751838
 20
254.658410
 30
0.0
  0
SPLINE
  5
13e
100
AcDbEntity
  8
0
 62
7
100
AcDbSpline
 70
8
 71
3
 72
8
 73
4
 74
0
 40
0
 40
0
 40
0
 40
0
 40
1
 40
1
 40
1
 40
1
 10
64.751838
 20
254.658410
 30
0.0
 10
64.514382
 20
254.705897
 30
0.0
 10
64.320895
 20
254.859125
 30
0.0
 10
64.171379
 20
255.118096
 30
0.0
  0
SPLINE
  5
13f
100
AcDbEntity
  8
0
 62
7
100
AcDbSpline
 70
8
 71
3
 72
8
 73
4
 74
0
 40
0
 40
0
 40
0
 40
0
 40
1
 40
1
 40
1
 40
1
 10
64.171379
 20
255.118096
 30
0.0
 10
64.072848
 20
255.288755
 30
0.0
 10
64.038407
 20
255.461408
 30
0.0
 10
64.068054
 20
255.636054
 30
0.0
  0
SPLINE
  5
140
100
AcDbEntity
  8
0
 62
7
100
AcDbSpline
 70
8
 71
3
 72
8
 73
4
 74
0
 40
0
 40
0
 40
0
 40
0
 40
1
 40
1
 40
1
 40
1
 10
64.068054
 20
255.636054
 30
0.0
 10
64.097701
 20
255.810702
 30
0.0
 10
64.187931
 20
255.968613
 30
0.0
 10
64.338742
 20
256.109784
 30
0.0
  0
LWPOLYLINE
  5
141
100
AcDbEntity
  8
0
 62
7
100
AcDbPolyline
 90
15
 70
1
 10
62.301302
 20
253.441700
 30
0.0
 10
62.892042
 20
253.782764
 30
0.0
 10
61.714854
 20
255.821714
 30
0.0
 10
61.146614
 20
255.321790
 30
0.0
 10
60.956444
 20
255.651173
 30
0.0
 10
61.521103
 20
256.149030
 30
0.0
 10
61.882710
 20
256.357804
 30
0.0
 10
63.250068
 20
253.989470
 30
0.0
 10
63.840809
 20
254.330534
 30
0.0
 10
64.016509
 20
254.026213
 30
0.0
 10
62.477002
 20
253.137378
 30
0.0
 10
62.301302
 20
253.441700
 30
0.0
 10
62.301302
 20
253.441700
 30
0.0
 10
62.301302
 20
253.441700
 30
0.0
 10
62.301302
 20
253.441700
 30
0.0
  0
SPLINE
  5
142
100
AcDbEntity
  8
0
 62
7
100
AcDbSpline
 70
8
 71
3
 72
8
 73
4
 74
0
 40
0
 40
0
 40
0
 40
0
 40
1
 40
1
 40
1
 40
1
 10
63.876577
 20
256.604354
 30
0.0
 10
63.956504
 20
256.465918
 30
0.0
 10
64.061822
 20
256.382718
 30
0.0
 10
64.192534
 20
256.354756
 30
0.0
  0
SPLINE
  5
143
100
AcDbEntity
  8
0
 62
7
100
AcDbSpline
 70
8
 71
3
 72
8
 73
4
 74
0
 40
0
 40
0
 40
0
 40
0
 40
1
 40
1
 40
1
 40
1
 10
64.192534
 20
256.354756
 30
0.0
 10
64.324440
 20
256.327482
 30
0.0
 10
64.468563
 20
256.358976
 30
0.0
 10
64.624901
 20
256.449238
 30
0.0
  0
SPLINE
  5
144
100
AcDbEntity
  8
0
 62
7
100
AcDbSpline
 70
8
 71
3
 72
8
 73
4
 74
0
 40
0
 40
0
 40
0
 40
0
 40
1
 40
1
 40
1
 40
1
 10
64.624901
 20
256.449238
 30
0.0
 10
64.780044
 20
256.538810
 30
0.0
 10
64.878782
 20
256.647531
 30
0.0
 10
64.921115
 20
256.775403
 30
0.0
  0
SPLINE
  5
145
100
AcDbEntity
  8
0
 62
7
100
AcDbSpline
 70
8
 71
3
 72
8
 73
4
 74
0
 40
0
 40
0
 40
0
 40
0
 40
1
 40
1
 40
1
 40
1
 10
64.921115
 20
256.775403
 30
0.0
 10
64.964641
 20
256.903961
 30
0.0
 10
64.946442
 20
257.037459
 30
0.0
 10
64.866515
 20
257.175895
 30
0.0
  0
SPLINE
  5
146
100
AcDbEntity
  8
0
 62
7
100
AcDbSpline
 70
8
 71
3
 72
8
 73
4
 74
0
 40
0
 40
0
 40
0
 40
0
 40
1
 40
1
 40
1
 40
1
 10
64.866515
 20
257.175895
 30
0.0
 10
64.786589
 20
257.314332
 30
0.0
 10
64.680077
 20
257.396842
 30
0.0
 10
64.546978
 20
257.423426
 30
0.0
  0
SPLINE
  5
147
100
AcDbEntity
  8
0
 62
7
100
AcDbSpline
 70
8
 71
3
 72
8
 73
4
 74
0
 40
0
 40
0
 40
0
 40
0
 40
1
 40
1
 40
1
 40
1
 10
64.546978
 20
257.423426
 30
0.0
 10
64.415072
 20
257.450700
 30
0.0
 10
64.271547
 20
257.419552
 30
0.0
 10
64.116405
 20
257.329980
 30
0.0
  0
SPLINE
  5
148
100
AcDbEntity
  8
0
 62
7
100
AcDbSpline
 70
8
 71
3
 72
8
 73
4
 74
0
 40
0
 40
0
 40
0
 40
0
 40
1
 40
1
 40
1
 40
1
 10
64.116405
 20
257.329980
 30
0.0
 10
63.960066
 20
257.239718
 30
0.0
 10
63.860730
 20
257.130651
 30
0.0
 10
63.818397
 20
257.002779
 30
0.0
  0
SPLINE
  5
149
100
AcDbEntity
  8
0
 62
7
100
AcDbSpline
 70
8
 71
3
 72
8
 73
4
 74
0
 40
0
 40
0
 40
0
 40
0
 40
1
 40
1
 40
1
 40
1
 10
63.818397
 20
257.002779
 30
0.0
 10
63.777258
 20
256.875599
 30
0.0
 10
63.796651
 20
256.742791
 30
0.0
 10
63.876577
 20
256.604354
 30
0.0
  0
LWPOLYLINE
  5
14a
100
AcDbEntity
  8
0
 62
7
100
AcDbPolyline
 90
4
 70
1
 10
64.789232
 20
256.164608
 30
0.0
 10
64.789232
 20
256.164608
 30
0.0
 10
64.789232
 20
256.164608
 30
0.0
 10
64.789232
 20
256.164608
 30
0.0
  0
LWPOLYLINE
  5
14b
100
AcDbEntity
  8
0
 62
7
100
AcDbPolyline
 90
4
 70
1
 10
64.338742
 20
256.109784
 30
0.0
 10
64.338742
 20
256.109784
 30
0.0
 10
64.338742
 20
256.109784
 30
0.0
 10
64.338742
 20
256.109784
 30
0.0
  0
SPLINE
  5
14c
100
AcDbEntity
  8
0
 62
7
100
AcDbSpline
 70
8
 71
3
 72
8
 73
4
 74
0
 40
0
 40
0
 40
0
 40
0
 40
1
 40
1
 40
1
 40
1
 10
57.947276
 20
246.917619
 30
0.0
 10
57.814807
 20
246.994100
 30
0.0
 10
57.680112
 20
247.002648
 30
0.0
 10
57.543193
 20
246.943263
 30
0.0
  0
SPLINE
  5
14d
100
AcDbEntity
  8
0
 62
7
100
AcDbSpline
 70
8
 71
3
 72
8
 73
4
 74
0
 40
0
 40
0
 40
0
 40
0
 40
1
 40
1
 40
1
 40
1
 10
57.543193
 20
246.943263
 30
0.0
 10
57.406790
 20
246.884772
 30
0.0
 10
57.286653
 20
246.765573
 30
0.0
 10
57.182784
 20
246.585665
 30
0.0
  0
SPLINE
  5
14e
100
AcDbEntity
  8
0
 62
7
100
AcDbSpline
 70
8
 71
3
 72
8
 73
4
 74
0
 40
0
 40
0
 40
0
 40
0
 40
1
 40
1
 40
1
 40
1
 10
57.182784
 20
246.585665
 30
0.0
 10
57.078914
 20
246.405758
 30
0.0
 10
57.035046
 20
246.241929
 30
0.0
 10
57.051181
 20
246.094177
 30
0.0
  0
SPLINE
  5
14f
100
AcDbEntity
  8
0
 62
7
100
AcDbSpline
 70
8
 71
3
 72
8
 73
4
 74
0
 40
0
 40
0
 40
0
 40
0
 40
1
 40
1
 40
1
 40
1
 10
57.051181
 20
246.094177
 30
0.0
 10
57.068729
 20
245.946803
 30
0.0
 10
57.144186
 20
245.834616
 30
0.0
 10
57.277550
 20
245.757619
 30
0.0
  0
SPLINE
  5
150
100
AcDbEntity
  8
0
 62
7
100
AcDbSpline
 70
8
 71
3
 72
8
 73
4
 74
0
 40
0
 40
0
 40
0
 40
0
 40
1
 40
1
 40
1
 40
1
 10
57.277550
 20
245.757619
 30
0.0
 10
57.409123
 20
245.681655
 30
0.0
 10
57.543370
 20
245.673365
 30
0.0
 10
57.680292
 20
245.732750
 30
0.0
  0
SPLINE
  5
151
100
AcDbEntity
  8
0
 62
7
100
AcDbSpline
 70
8
 71
3
 72
8
 73
4
 74
0
 40
0
 40
0
 40
0
 40
0
 40
1
 40
1
 40
1
 40
1
 10
57.680292
 20
245.732750
 30
0.0
 10
57.817211
 20
245.792136
 30
0.0
 10
57.937348
 20
245.911335
 30
0.0
 10
58.040700
 20
246.090347
 30
0.0
  0
SPLINE
  5
152
100
AcDbEntity
  8
0
 62
7
100
AcDbSpline
 70
8
 71
3
 72
8
 73
4
 74
0
 40
0
 40
0
 40
0
 40
0
 40
1
 40
1
 40
1
 40
1
 10
58.040700
 20
246.090347
 30
0.0
 10
58.143537
 20
246.268465
 30
0.0
 10
58.186439
 20
246.431658
 30
0.0
 10
58.169409
 20
246.579926
 30
0.0
  0
SPLINE
  5
153
100
AcDbEntity
  8
0
 62
7
100
AcDbSpline
 70
8
 71
3
 72
8
 73
4
 74
0
 40
0
 40
0
 40
0
 40
0
 40
1
 40
1
 40
1
 40
1
 10
58.169409
 20
246.579926
 30
0.0
 10
58.152894
 20
246.729091
 30
0.0
 10
58.078850
 20
246.841655
 30
0.0
 10
57.947276
 20
246.917619
 30
0.0
  0
LWPOLYLINE
  5
154
100
AcDbEntity
  8
0
 62
7
100
AcDbPolyline
 90
4
 70
1
 10
63.876577
 20
256.604354
 30
0.0
 10
63.876577
 20
256.604354
 30
0.0
 10
63.876577
 20
256.604354
 30
0.0
 10
63.876577
 20
256.604354
 30
0.0
  0
SPLINE
  5
155
100
AcDbEntity
  8
0
 62
7
100
AcDbSpline
 70
8
 71
3
 72
8
 73
4
 74
0
 40
0
 40
0
 40
0
 40
0
 40
1
 40
1
 40
1
 40
1
 10
58.068199
 20
247.127064
 30
0.0
 10
58.283014
 20
247.003040
 30
0.0
 10
58.411426
 20
246.835815
 30
0.0
 10
58.453433
 20
246.625389
 30
0.0
  0
SPLINE
  5
156
100
AcDbEntity
  8
0
 62
7
100
AcDbSpline
 70
8
 71
3
 72
8
 73
4
 74
0
 40
0
 40
0
 40
0
 40
0
 40
1
 40
1
 40
1
 40
1
 10
58.453433
 20
246.625389
 30
0.0
 10
58.495441
 20
246.414963
 30
0.0
 10
58.445131
 20
246.186232
 30
0.0
 10
58.302504
 20
245.939195
 30
0.0
  0
SPLINE
  5
157
100
AcDbEntity
  8
0
 62
7
100
AcDbSpline
 70
8
 71
3
 72
8
 73
4
 74
0
 40
0
 40
0
 40
0
 40
0
 40
1
 40
1
 40
1
 40
1
 10
58.302504
 20
245.939195
 30
0.0
 10
58.160394
 20
245.693052
 30
0.0
 10
57.987462
 20
245.535117
 30
0.0
 10
57.783707
 20
245.465389
 30
0.0
  0
SPLINE
  5
158
100
AcDbEntity
  8
0
 62
7
100
AcDbSpline
 70
8
 71
3
 72
8
 73
4
 74
0
 40
0
 40
0
 40
0
 40
0
 40
1
 40
1
 40
1
 40
1
 10
57.783707
 20
245.465389
 30
0.0
 10
57.580469
 20
245.396556
 30
0.0
 10
57.371442
 20
245.424151
 30
0.0
 10
57.156627
 20
245.548174
 30
0.0
  0
SPLINE
  5
159
100
AcDbEntity
  8
0
 62
7
100
AcDbSpline
 70
8
 71
3
 72
8
 73
4
 74
0
 40
0
 40
0
 40
0
 40
0
 40
1
 40
1
 40
1
 40
1
 10
57.156627
 20
245.548174
 30
0.0
 10
56.940917
 20
245.672714
 30
0.0
 10
56.812058
 20
245.840198
 30
0.0
 10
56.770049
 20
246.050625
 30
0.0
  0
SPLINE
  5
15a
100
AcDbEntity
  8
0
 62
7
100
AcDbSpline
 70
8
 71
3
 72
8
 73
4
 74
0
 40
0
 40
0
 40
0
 40
0
 40
1
 40
1
 40
1
 40
1
 10
56.770049
 20
246.050625
 30
0.0
 10
56.729452
 20
246.261429
 30
0.0
 10
56.780209
 20
246.489903
 30
0.0
 10
56.922319
 20
246.736045
 30
0.0
  0
SPLINE
  5
15b
100
AcDbEntity
  8
0
 62
7
100
AcDbSpline
 70
8
 71
3
 72
8
 73
4
 74
0
 40
0
 40
0
 40
0
 40
0
 40
1
 40
1
 40
1
 40
1
 10
56.922319
 20
246.736045
 30
0.0
 10
57.064946
 20
246.983082
 30
0.0
 10
57.237432
 20
247.141275
 30
0.0
 10
57.439775
 20
247.210625
 30
0.0
  0
SPLINE
  5
15c
100
AcDbEntity
  8
0
 62
7
100
AcDbSpline
 70
8
 71
3
 72
8
 73
4
 74
0
 40
0
 40
0
 40
0
 40
0
 40
1
 40
1
 40
1
 40
1
 10
57.439775
 20
247.210625
 30
0.0
 10
57.643015
 20
247.279458
 30
0.0
 10
57.852490
 20
247.251604
 30
0.0
 10
58.068199
 20
247.127064
 30
0.0
  0
LWPOLYLINE
  5
15d
100
AcDbEntity
  8
0
 62
7
100
AcDbPolyline
 90
10
 70
1
 10
56.279547
 20
248.779126
 30
0.0
 10
56.550751
 20
248.622546
 30
0.0
 10
55.525232
 20
246.846295
 30
0.0
 10
56.501297
 20
246.282764
 30
0.0
 10
56.369522
 20
246.054523
 30
0.0
 10
55.122253
 20
246.774634
 30
0.0
 10
56.279547
 20
248.779126
 30
0.0
 10
56.279547
 20
248.779126
 30
0.0
 10
56.279547
 20
248.779126
 30
0.0
 10
56.279547
 20
248.779126
 30
0.0
  0
LWPOLYLINE
  5
15e
100
AcDbEntity
  8
0
 62
7
100
AcDbPolyline
 90
4
 70
1
 10
57.947276
 20
246.917619
 30
0.0
 10
57.947276
 20
246.917619
 30
0.0
 10
57.947276
 20
246.917619
 30
0.0
 10
57.947276
 20
246.917619
 30
0.0
  0
LWPOLYLINE
  5
15f
100
AcDbEntity
  8
0
 62
7
100
AcDbPolyline
 90
4
 70
1
 10
58.068199
 20
247.127064
 30
0.0
 10
58.068199
 20
247.127064
 30
0.0
 10
58.068199
 20
247.127064
 30
0.0
 10
58.068199
 20
247.127064
 30
0.0
  0
SPLINE
  5
160
100
AcDbEntity
  8
0
 62
7
100
AcDbSpline
 70
8
 71
3
 72
8
 73
4
 74
0
 40
0
 40
0
 40
0
 40
0
 40
1
 40
1
 40
1
 40
1
 10
60.457600
 20
244.617974
 30
0.0
 10
60.370153
 20
244.441713
 30
0.0
 10
60.346241
 20
244.282473
 30
0.0
 10
60.385863
 20
244.140255
 30
0.0
  0
SPLINE
  5
161
100
AcDbEntity
  8
0
 62
7
100
AcDbSpline
 70
8
 71
3
 72
8
 73
4
 74
0
 40
0
 40
0
 40
0
 40
0
 40
1
 40
1
 40
1
 40
1
 10
60.385863
 20
244.140255
 30
0.0
 10
60.426896
 20
243.998417
 30
0.0
 10
60.529310
 20
243.880214
 30
0.0
 10
60.693107
 20
243.785646
 30
0.0
  0
SPLINE
  5
162
100
AcDbEntity
  8
0
 62
7
100
AcDbSpline
 70
8
 71
3
 72
8
 73
4
 74
0
 40
0
 40
0
 40
0
 40
0
 40
1
 40
1
 40
1
 40
1
 10
60.693107
 20
243.785646
 30
0.0
 10
60.787982
 20
243.730869
 30
0.0
 10
60.886444
 20
243.689537
 30
0.0
 10
60.988493
 20
243.661648
 30
0.0
  0
SPLINE
  5
163
100
AcDbEntity
  8
0
 62
7
100
AcDbSpline
 70
8
 71
3
 72
8
 73
4
 74
0
 40
0
 40
0
 40
0
 40
0
 40
1
 40
1
 40
1
 40
1
 10
60.988493
 20
243.661648
 30
0.0
 10
61.091434
 20
243.633244
 30
0.0
 10
61.200198
 20
243.616992
 30
0.0
 10
61.314786
 20
243.612892
 30
0.0
  0
LWPOLYLINE
  5
164
100
AcDbEntity
  8
0
 62
7
100
AcDbPolyline
 90
11
 70
1
 10
58.970973
 20
246.557514
 30
0.0
 10
59.232779
 20
246.406360
 30
0.0
 10
58.974050
 20
244.873021
 30
0.0
 10
60.172595
 20
245.863757
 30
0.0
 10
60.434399
 20
245.712604
 30
0.0
 10
59.002346
 20
244.534462
 30
0.0
 10
58.666698
 20
244.728248
 30
0.0
 10
58.970973
 20
246.557514
 30
0.0
 10
58.970973
 20
246.557514
 30
0.0
 10
58.970973
 20
246.557514
 30
0.0
 10
58.970973
 20
246.557514
 30
0.0
  0
SPLINE
  5
165
100
AcDbEntity
  8
0
 62
7
100
AcDbSpline
 70
8
 71
3
 72
8
 73
4
 74
0
 40
0
 40
0
 40
0
 40
0
 40
1
 40
1
 40
1
 40
1
 10
61.179910
 20
243.379281
 30
0.0
 10
61.069596
 20
243.392848
 30
0.0
 10
60.962210
 20
243.416657
 30
0.0
 10
60.857755
 20
243.450710
 30
0.0
  0
SPLINE
  5
166
100
AcDbEntity
  8
0
 62
7
100
AcDbSpline
 70
8
 71
3
 72
8
 73
4
 74
0
 40
0
 40
0
 40
0
 40
0
 40
1
 40
1
 40
1
 40
1
 10
60.857755
 20
243.450710
 30
0.0
 10
60.753300
 20
243.484762
 30
0.0
 10
60.653186
 20
243.529435
 30
0.0
 10
60.557414
 20
243.584729
 30
0.0
  0
SPLINE
  5
167
100
AcDbEntity
  8
0
 62
7
100
AcDbSpline
 70
8
 71
3
 72
8
 73
4
 74
0
 40
0
 40
0
 40
0
 40
0
 40
1
 40
1
 40
1
 40
1
 10
60.557414
 20
243.584729
 30
0.0
 10
60.317537
 20
243.723222
 30
0.0
 10
60.167644
 20
243.902849
 30
0.0
 10
60.107736
 20
244.123610
 30
0.0
  0
SPLINE
  5
168
100
AcDbEntity
  8
0
 62
7
100
AcDbSpline
 70
8
 71
3
 72
8
 73
4
 74
0
 40
0
 40
0
 40
0
 40
0
 40
1
 40
1
 40
1
 40
1
 10
60.107736
 20
244.123610
 30
0.0
 10
60.048721
 20
244.343855
 30
0.0
 10
60.087942
 20
244.573022
 30
0.0
 10
60.225402
 20
244.811108
 30
0.0
  0
SPLINE
  5
169
100
AcDbEntity
  8
0
 62
7
100
AcDbSpline
 70
8
 71
3
 72
8
 73
4
 74
0
 40
0
 40
0
 40
0
 40
0
 40
1
 40
1
 40
1
 40
1
 10
60.225402
 20
244.811108
 30
0.0
 10
60.367512
 20
245.057250
 30
0.0
 10
60.546401
 20
245.214133
 30
0.0
 10
60.762070
 20
245.281757
 30
0.0
  0
SPLINE
  5
16a
100
AcDbEntity
  8
0
 62
7
100
AcDbSpline
 70
8
 71
3
 72
8
 73
4
 74
0
 40
0
 40
0
 40
0
 40
0
 40
1
 40
1
 40
1
 40
1
 10
60.762070
 20
245.281757
 30
0.0
 10
60.979150
 20
245.349759
 30
0.0
 10
61.200468
 20
245.318648
 30
0.0
 10
61.426024
 20
245.188423
 30
0.0
  0
SPLINE
  5
16b
100
AcDbEntity
  8
0
 62
7
100
AcDbSpline
 70
8
 71
3
 72
8
 73
4
 74
0
 40
0
 40
0
 40
0
 40
0
 40
1
 40
1
 40
1
 40
1
 10
61.426024
 20
245.188423
 30
0.0
 10
61.628309
 20
245.071634
 30
0.0
 10
61.750353
 20
244.914052
 30
0.0
 10
61.792158
 20
244.715677
 30
0.0
  0
SPLINE
  5
16c
100
AcDbEntity
  8
0
 62
7
100
AcDbSpline
 70
8
 71
3
 72
8
 73
4
 74
0
 40
0
 40
0
 40
0
 40
0
 40
1
 40
1
 40
1
 40
1
 10
61.792158
 20
244.715677
 30
0.0
 10
61.835376
 20
244.517680
 30
0.0
 10
61.792389
 20
244.306798
 30
0.0
 10
61.663198
 20
244.083033
 30
0.0
  0
LWPOLYLINE
  5
16d
100
AcDbEntity
  8
0
 62
7
100
AcDbPolyline
 90
5
 70
1
 10
61.663198
 20
244.083033
 30
0.0
 10
61.593435
 20
243.962200
 30
0.0
 10
60.457600
 20
244.617974
 30
0.0
 10
61.663198
 20
244.083033
 30
0.0
 10
61.663198
 20
244.083033
 30
0.0
  0
SPLINE
  5
16e
100
AcDbEntity
  8
0
 62
7
100
AcDbSpline
 70
8
 71
3
 72
8
 73
4
 74
0
 40
0
 40
0
 40
0
 40
0
 40
1
 40
1
 40
1
 40
1
 10
61.458019
 20
244.298160
 30
0.0
 10
61.534259
 20
244.434349
 30
0.0
 10
61.558488
 20
244.564166
 30
0.0
 10
61.530709
 20
244.687612
 30
0.0
  0
SPLINE
  5
16f
100
AcDbEntity
  8
0
 62
7
100
AcDbSpline
 70
8
 71
3
 72
8
 73
4
 74
0
 40
0
 40
0
 40
0
 40
0
 40
1
 40
1
 40
1
 40
1
 10
61.530709
 20
244.687612
 30
0.0
 10
61.503823
 20
244.810542
 30
0.0
 10
61.429515
 20
244.907148
 30
0.0
 10
61.307787
 20
244.977427
 30
0.0
  0
SPLINE
  5
170
100
AcDbEntity
  8
0
 62
7
100
AcDbSpline
 70
8
 71
3
 72
8
 73
4
 74
0
 40
0
 40
0
 40
0
 40
0
 40
1
 40
1
 40
1
 40
1
 10
61.307787
 20
244.977427
 30
0.0
 10
61.169947
 20
245.057009
 30
0.0
 10
61.036928
 20
245.081895
 30
0.0
 10
60.908729
 20
245.052083
 30
0.0
  0
SPLINE
  5
171
100
AcDbEntity
  8
0
 62
7
100
AcDbSpline
 70
8
 71
3
 72
8
 73
4
 74
0
 40
0
 40
0
 40
0
 40
0
 40
1
 40
1
 40
1
 40
1
 10
60.908729
 20
245.052083
 30
0.0
 10
60.781425
 20
245.021755
 30
0.0
 10
60.670683
 20
244.939498
 30
0.0
 10
60.576502
 20
244.805314
 30
0.0
  0
LWPOLYLINE
  5
172
100
AcDbEntity
  8
0
 62
7
100
AcDbPolyline
 90
4
 70
1
 10
61.314786
 20
243.612892
 30
0.0
 10
61.179910
 20
243.379281
 30
0.0
 10
61.314786
 20
243.612892
 30
0.0
 10
61.314786
 20
243.612892
 30
0.0
  0
LWPOLYLINE
  5
173
100
AcDbEntity
  8
0
 62
7
100
AcDbPolyline
 90
4
 70
1
 10
61.663198
 20
244.083033
 30
0.0
 10
61.663198
 20
244.083033
 30
0.0
 10
61.663198
 20
244.083033
 30
0.0
 10
61.663198
 20
244.083033
 30
0.0
  0
LWPOLYLINE
  5
174
100
AcDbEntity
  8
0
 62
7
100
AcDbPolyline
 90
5
 70
1
 10
60.576502
 20
244.805314
 30
0.0
 10
61.458020
 20
244.298161
 30
0.0
 10
61.458019
 20
244.298160
 30
0.0
 10
60.576502
 20
244.805314
 30
0.0
 10
60.576502
 20
244.805314
 30
0.0
  0
SPLINE
  5
175
100
AcDbEntity
  8
0
 62
7
100
AcDbSpline
 70
8
 71
3
 72
8
 73
4
 74
0
 40
0
 40
0
 40
0
 40
0
 40
1
 40
1
 40
1
 40
1
 10
63.706853
 20
242.004486
 30
0.0
 10
63.567326
 20
241.762819
 30
0.0
 10
63.419945
 20
241.614000
 30
0.0
 10
63.264709
 20
241.558029
 30
0.0
  0
SPLINE
  5
176
100
AcDbEntity
  8
0
 62
7
100
AcDbSpline
 70
8
 71
3
 72
8
 73
4
 74
0
 40
0
 40
0
 40
0
 40
0
 40
1
 40
1
 40
1
 40
1
 10
63.264709
 20
241.558029
 30
0.0
 10
63.110367
 20
241.501542
 30
0.0
 10
62.931606
 20
241.531951
 30
0.0
 10
62.728429
 20
241.649256
 30
0.0
  0
LWPOLYLINE
  5
177
100
AcDbEntity
  8
0
 62
7
100
AcDbPolyline
 90
10
 70
1
 10
61.853541
 20
243.343015
 30
0.0
 10
62.136829
 20
243.179459
 30
0.0
 10
62.003503
 20
242.948533
 30
0.0
 10
61.535271
 20
242.646027
 30
0.0
 10
61.362076
 20
242.746021
 30
0.0
 10
61.720216
 20
243.112089
 30
0.0
 10
61.853541
 20
243.343015
 30
0.0
 10
61.853541
 20
243.343015
 30
0.0
 10
61.853541
 20
243.343015
 30
0.0
 10
61.853541
 20
243.343015
 30
0.0
  0
SPLINE
  5
178
100
AcDbEntity
  8
0
 62
7
100
AcDbSpline
 70
8
 71
3
 72
8
 73
4
 74
0
 40
0
 40
0
 40
0
 40
0
 40
1
 40
1
 40
1
 40
1
 10
62.841406
 20
241.888349
 30
0.0
 10
62.961344
 20
241.819103
 30
0.0
 10
63.065306
 20
241.803834
 30
0.0
 10
63.153293
 20
241.842541
 30
0.0
  0
SPLINE
  5
179
100
AcDbEntity
  8
0
 62
7
100
AcDbSpline
 70
8
 71
3
 72
8
 73
4
 74
0
 40
0
 40
0
 40
0
 40
0
 40
1
 40
1
 40
1
 40
1
 10
63.153293
 20
241.842541
 30
0.0
 10
63.241278
 20
241.881249
 30
0.0
 10
63.335396
 20
241.987424
 30
0.0
 10
63.435649
 20
242.161066
 30
0.0
  0
LWPOLYLINE
  5
17a
100
AcDbEntity
  8
0
 62
7
100
AcDbPolyline
 90
5
 70
1
 10
64.512327
 20
244.025928
 30
0.0
 10
64.783531
 20
243.869348
 30
0.0
 10
63.706853
 20
242.004486
 30
0.0
 10
64.512327
 20
244.025928
 30
0.0
 10
64.512327
 20
244.025928
 30
0.0
  0
SPLINE
  5
17b
100
AcDbEntity
  8
0
 62
7
100
AcDbSpline
 70
8
 71
3
 72
8
 73
4
 74
0
 40
0
 40
0
 40
0
 40
0
 40
1
 40
1
 40
1
 40
1
 10
65.506075
 20
242.553545
 30
0.0
 10
65.373605
 20
242.630026
 30
0.0
 10
65.238911
 20
242.638574
 30
0.0
 10
65.101991
 20
242.579188
 30
0.0
  0
SPLINE
  5
17c
100
AcDbEntity
  8
0
 62
7
100
AcDbSpline
 70
8
 71
3
 72
8
 73
4
 74
0
 40
0
 40
0
 40
0
 40
0
 40
1
 40
1
 40
1
 40
1
 10
65.101991
 20
242.579188
 30
0.0
 10
64.965588
 20
242.520698
 30
0.0
 10
64.845452
 20
242.401499
 30
0.0
 10
64.741582
 20
242.221591
 30
0.0
  0
SPLINE
  5
17d
100
AcDbEntity
  8
0
 62
7
100
AcDbSpline
 70
8
 71
3
 72
8
 73
4
 74
0
 40
0
 40
0
 40
0
 40
0
 40
1
 40
1
 40
1
 40
1
 10
64.741582
 20
242.221591
 30
0.0
 10
64.637712
 20
242.041684
 30
0.0
 10
64.593845
 20
241.877854
 30
0.0
 10
64.609981
 20
241.730102
 30
0.0
  0
SPLINE
  5
17e
100
AcDbEntity
  8
0
 62
7
100
AcDbSpline
 70
8
 71
3
 72
8
 73
4
 74
0
 40
0
 40
0
 40
0
 40
0
 40
1
 40
1
 40
1
 40
1
 10
64.609981
 20
241.730102
 30
0.0
 10
64.627528
 20
241.582728
 30
0.0
 10
64.702984
 20
241.470542
 30
0.0
 10
64.836348
 20
241.393545
 30
0.0
  0
SPLINE
  5
17f
100
AcDbEntity
  8
0
 62
7
100
AcDbSpline
 70
8
 71
3
 72
8
 73
4
 74
0
 40
0
 40
0
 40
0
 40
0
 40
1
 40
1
 40
1
 40
1
 10
64.836348
 20
241.393545
 30
0.0
 10
64.967923
 20
241.317580
 30
0.0
 10
65.102170
 20
241.309290
 30
0.0
 10
65.239090
 20
241.368676
 30
0.0
  0
SPLINE
  5
180
100
AcDbEntity
  8
0
 62
7
100
AcDbSpline
 70
8
 71
3
 72
8
 73
4
 74
0
 40
0
 40
0
 40
0
 40
0
 40
1
 40
1
 40
1
 40
1
 10
65.239090
 20
241.368676
 30
0.0
 10
65.376009
 20
241.428061
 30
0.0
 10
65.496146
 20
241.547260
 30
0.0
 10
65.599499
 20
241.726273
 30
0.0
  0
SPLINE
  5
181
100
AcDbEntity
  8
0
 62
7
100
AcDbSpline
 70
8
 71
3
 72
8
 73
4
 74
0
 40
0
 40
0
 40
0
 40
0
 40
1
 40
1
 40
1
 40
1
 10
65.599499
 20
241.726273
 30
0.0
 10
65.702335
 20
241.904390
 30
0.0
 10
65.745238
 20
242.067583
 30
0.0
 10
65.728207
 20
242.215852
 30
0.0
  0
SPLINE
  5
182
100
AcDbEntity
  8
0
 62
7
100
AcDbSpline
 70
8
 71
3
 72
8
 73
4
 74
0
 40
0
 40
0
 40
0
 40
0
 40
1
 40
1
 40
1
 40
1
 10
65.728207
 20
242.215852
 30
0.0
 10
65.711694
 20
242.365016
 30
0.0
 10
65.637649
 20
242.477580
 30
0.0
 10
65.506075
 20
242.553545
 30
0.0
  0
LWPOLYLINE
  5
183
100
AcDbEntity
  8
0
 62
7
100
AcDbPolyline
 90
6
 70
1
 10
62.728429
 20
241.649256
 30
0.0
 10
62.625047
 20
241.708943
 30
0.0
 10
62.756822
 20
241.937184
 30
0.0
 10
62.841406
 20
241.888349
 30
0.0
 10
62.728429
 20
241.649256
 30
0.0
 10
62.728429
 20
241.649256
 30
0.0
  0
SPLINE
  5
184
100
AcDbEntity
  8
0
 62
7
100
AcDbSpline
 70
8
 71
3
 72
8
 73
4
 74
0
 40
0
 40
0
 40
0
 40
0
 40
1
 40
1
 40
1
 40
1
 10
65.626997
 20
242.762990
 30
0.0
 10
65.841812
 20
242.638966
 30
0.0
 10
65.970224
 20
242.471741
 30
0.0
 10
66.012231
 20
242.261315
 30
0.0
  0
SPLINE
  5
185
100
AcDbEntity
  8
0
 62
7
100
AcDbSpline
 70
8
 71
3
 72
8
 73
4
 74
0
 40
0
 40
0
 40
0
 40
0
 40
1
 40
1
 40
1
 40
1
 10
66.012231
 20
242.261315
 30
0.0
 10
66.054241
 20
242.050888
 30
0.0
 10
66.003932
 20
241.822156
 30
0.0
 10
65.861305
 20
241.575119
 30
0.0
  0
SPLINE
  5
186
100
AcDbEntity
  8
0
 62
7
100
AcDbSpline
 70
8
 71
3
 72
8
 73
4
 74
0
 40
0
 40
0
 40
0
 40
0
 40
1
 40
1
 40
1
 40
1
 10
65.861305
 20
241.575119
 30
0.0
 10
65.719195
 20
241.328977
 30
0.0
 10
65.546261
 20
241.171042
 30
0.0
 10
65.342505
 20
241.101315
 30
0.0
  0
SPLINE
  5
187
100
AcDbEntity
  8
0
 62
7
100
AcDbSpline
 70
8
 71
3
 72
8
 73
4
 74
0
 40
0
 40
0
 40
0
 40
0
 40
1
 40
1
 40
1
 40
1
 10
65.342505
 20
241.101315
 30
0.0
 10
65.139267
 20
241.032481
 30
0.0
 10
64.930240
 20
241.060077
 30
0.0
 10
64.715425
 20
241.184100
 30
0.0
  0
SPLINE
  5
188
100
AcDbEntity
  8
0
 62
7
100
AcDbSpline
 70
8
 71
3
 72
8
 73
4
 74
0
 40
0
 40
0
 40
0
 40
0
 40
1
 40
1
 40
1
 40
1
 10
64.715425
 20
241.184100
 30
0.0
 10
64.499716
 20
241.308640
 30
0.0
 10
64.370857
 20
241.476123
 30
0.0
 10
64.328849
 20
241.686549
 30
0.0
  0
SPLINE
  5
189
100
AcDbEntity
  8
0
 62
7
100
AcDbSpline
 70
8
 71
3
 72
8
 73
4
 74
0
 40
0
 40
0
 40
0
 40
0
 40
1
 40
1
 40
1
 40
1
 10
64.328849
 20
241.686549
 30
0.0
 10
64.288253
 20
241.897354
 30
0.0
 10
64.339010
 20
242.125827
 30
0.0
 10
64.481120
 20
242.371969
 30
0.0
  0
SPLINE
  5
18a
100
AcDbEntity
  8
0
 62
7
100
AcDbSpline
 70
8
 71
3
 72
8
 73
4
 74
0
 40
0
 40
0
 40
0
 40
0
 40
1
 40
1
 40
1
 40
1
 10
64.481120
 20
242.371969
 30
0.0
 10
64.623747
 20
242.619006
 30
0.0
 10
64.796232
 20
242.777200
 30
0.0
 10
64.998576
 20
242.846550
 30
0.0
  0
SPLINE
  5
18b
100
AcDbEntity
  8
0
 62
7
100
AcDbSpline
 70
8
 71
3
 72
8
 73
4
 74
0
 40
0
 40
0
 40
0
 40
0
 40
1
 40
1
 40
1
 40
1
 10
64.998576
 20
242.846550
 30
0.0
 10
65.201814
 20
242.915383
 30
0.0
 10
65.411288
 20
242.887530
 30
0.0
 10
65.626997
 20
242.762990
 30
0.0
  0
LWPOLYLINE
  5
18c
100
AcDbEntity
  8
0
 62
7
100
AcDbPolyline
 90
5
 70
1
 10
63.435649
 20
242.161066
 30
0.0
 10
64.512327
 20
244.025928
 30
0.0
 10
64.512327
 20
244.025928
 30
0.0
 10
63.435649
 20
242.161066
 30
0.0
 10
63.435649
 20
242.161066
 30
0.0
  0
LWPOLYLINE
  5
18d
100
AcDbEntity
  8
0
 62
7
100
AcDbPolyline
 90
4
 70
1
 10
65.506075
 20
242.553545
 30
0.0
 10
65.506075
 20
242.553545
 30
0.0
 10
65.506075
 20
242.553545
 30
0.0
 10
65.506075
 20
242.553545
 30
0.0
  0
SPLINE
  5
18e
100
AcDbEntity
  8
0
 62
7
100
AcDbSpline
 70
8
 71
3
 72
8
 73
4
 74
0
 40
0
 40
0
 40
0
 40
0
 40
1
 40
1
 40
1
 40
1
 10
67.358410
 20
240.909469
 30
0.0
 10
67.440576
 20
241.051784
 30
0.0
 10
67.474324
 20
241.174315
 30
0.0
 10
67.459656
 20
241.277064
 30
0.0
  0
SPLINE
  5
18f
100
AcDbEntity
  8
0
 62
7
100
AcDbSpline
 70
8
 71
3
 72
8
 73
4
 74
0
 40
0
 40
0
 40
0
 40
0
 40
1
 40
1
 40
1
 40
1
 10
67.459656
 20
241.277064
 30
0.0
 10
67.444986
 20
241.379814
 30
0.0
 10
67.382157
 20
241.463228
 30
0.0
 10
67.271170
 20
241.527306
 30
0.0
  0
SPLINE
  5
190
100
AcDbEntity
  8
0
 62
7
100
AcDbSpline
 70
8
 71
3
 72
8
 73
4
 74
0
 40
0
 40
0
 40
0
 40
0
 40
1
 40
1
 40
1
 40
1
 10
67.271170
 20
241.527306
 30
0.0
 10
67.137806
 20
241.604304
 30
0.0
 10
67.008090
 20
241.622508
 30
0.0
 10
66.882022
 20
241.581919
 30
0.0
  0
SPLINE
  5
191
100
AcDbEntity
  8
0
 62
7
100
AcDbSpline
 70
8
 71
3
 72
8
 73
4
 74
0
 40
0
 40
0
 40
0
 40
0
 40
1
 40
1
 40
1
 40
1
 10
66.882022
 20
241.581919
 30
0.0
 10
66.755953
 20
241.541330
 30
0.0
 10
66.650544
 20
241.447641
 30
0.0
 10
66.565794
 20
241.300851
 30
0.0
  0
LWPOLYLINE
  5
192
100
AcDbEntity
  8
0
 62
7
100
AcDbPolyline
 90
4
 70
1
 10
65.626997
 20
242.762990
 30
0.0
 10
65.626997
 20
242.762990
 30
0.0
 10
65.626997
 20
242.762990
 30
0.0
 10
65.626997
 20
242.762990
 30
0.0
  0
SPLINE
  5
193
100
AcDbEntity
  8
0
 62
7
100
AcDbSpline
 70
8
 71
3
 72
8
 73
4
 74
0
 40
0
 40
0
 40
0
 40
0
 40
1
 40
1
 40
1
 40
1
 10
66.808415
 20
241.721083
 30
0.0
 10
66.919683
 20
241.777377
 30
0.0
 10
67.028066
 20
241.804905
 30
0.0
 10
67.133564
 20
241.803667
 30
0.0
  0
SPLINE
  5
194
100
AcDbEntity
  8
0
 62
7
100
AcDbSpline
 70
8
 71
3
 72
8
 73
4
 74
0
 40
0
 40
0
 40
0
 40
0
 40
1
 40
1
 40
1
 40
1
 10
67.133564
 20
241.803667
 30
0.0
 10
67.239959
 20
241.801910
 30
0.0
 10
67.345517
 20
241.770802
 30
0.0
 10
67.450240
 20
241.710340
 30
0.0
  0
SPLINE
  5
195
100
AcDbEntity
  8
0
 62
7
100
AcDbSpline
 70
8
 71
3
 72
8
 73
4
 74
0
 40
0
 40
0
 40
0
 40
0
 40
1
 40
1
 40
1
 40
1
 10
67.450240
 20
241.710340
 30
0.0
 10
67.622987
 20
241.610605
 30
0.0
 10
67.722659
 20
241.481454
 30
0.0
 10
67.749258
 20
241.322887
 30
0.0
  0
SPLINE
  5
196
100
AcDbEntity
  8
0
 62
7
100
AcDbSpline
 70
8
 71
3
 72
8
 73
4
 74
0
 40
0
 40
0
 40
0
 40
0
 40
1
 40
1
 40
1
 40
1
 10
67.749258
 20
241.322887
 30
0.0
 10
67.776376
 20
241.165214
 30
0.0
 10
67.729990
 20
240.982551
 30
0.0
 10
67.610100
 20
240.774896
 30
0.0
  0
LWPOLYLINE
  5
197
100
AcDbEntity
  8
0
 62
7
100
AcDbPolyline
 90
6
 70
1
 10
67.610100
 20
240.774896
 30
0.0
 10
67.086101
 20
239.867303
 30
0.0
 10
66.839062
 20
240.009931
 30
0.0
 10
67.358410
 20
240.909469
 30
0.0
 10
67.610100
 20
240.774896
 30
0.0
 10
67.610100
 20
240.774896
 30
0.0
  0
LWPOLYLINE
  5
198
100
AcDbEntity
  8
0
 62
7
100
AcDbPolyline
 90
8
 70
1
 10
66.565794
 20
241.300851
 30
0.0
 10
66.075127
 20
240.450990
 30
0.0
 10
65.826748
 20
240.594391
 30
0.0
 10
67.032876
 20
242.683466
 30
0.0
 10
67.281255
 20
242.540064
 30
0.0
 10
66.808415
 20
241.721083
 30
0.0
 10
66.565794
 20
241.300851
 30
0.0
 10
66.565794
 20
241.300851
 30
0.0
  0
SPLINE
  5
199
100
AcDbEntity
  8
0
 62
7
100
AcDbSpline
 70
8
 71
3
 72
8
 73
4
 74
0
 40
0
 40
0
 40
0
 40
0
 40
1
 40
1
 40
1
 40
1
 10
69.103783
 20
239.901777
 30
0.0
 10
69.185949
 20
240.044092
 30
0.0
 10
69.219696
 20
240.166625
 30
0.0
 10
69.205026
 20
240.269374
 30
0.0
  0
SPLINE
  5
19a
100
AcDbEntity
  8
0
 62
7
100
AcDbSpline
 70
8
 71
3
 72
8
 73
4
 74
0
 40
0
 40
0
 40
0
 40
0
 40
1
 40
1
 40
1
 40
1
 10
69.205026
 20
240.269374
 30
0.0
 10
69.190356
 20
240.372124
 30
0.0
 10
69.127527
 20
240.455538
 30
0.0
 10
69.016540
 20
240.519616
 30
0.0
  0
SPLINE
  5
19b
100
AcDbEntity
  8
0
 62
7
100
AcDbSpline
 70
8
 71
3
 72
8
 73
4
 74
0
 40
0
 40
0
 40
0
 40
0
 40
1
 40
1
 40
1
 40
1
 10
69.016540
 20
240.519616
 30
0.0
 10
68.883176
 20
240.596614
 30
0.0
 10
68.753460
 20
240.614818
 30
0.0
 10
68.627393
 20
240.574229
 30
0.0
  0
SPLINE
  5
19c
100
AcDbEntity
  8
0
 62
7
100
AcDbSpline
 70
8
 71
3
 72
8
 73
4
 74
0
 40
0
 40
0
 40
0
 40
0
 40
1
 40
1
 40
1
 40
1
 10
68.627393
 20
240.574229
 30
0.0
 10
68.501325
 20
240.533640
 30
0.0
 10
68.395916
 20
240.439950
 30
0.0
 10
68.311167
 20
240.293160
 30
0.0
  0
LWPOLYLINE
  5
19d
100
AcDbEntity
  8
0
 62
7
100
AcDbPolyline
 90
4
 70
1
 10
67.610100
 20
240.774896
 30
0.0
 10
67.610100
 20
240.774896
 30
0.0
 10
67.610100
 20
240.774896
 30
0.0
 10
67.610100
 20
240.774896
 30
0.0
  0
SPLINE
  5
19e
100
AcDbEntity
  8
0
 62
7
100
AcDbSpline
 70
8
 71
3
 72
8
 73
4
 74
0
 40
0
 40
0
 40
0
 40
0
 40
1
 40
1
 40
1
 40
1
 10
68.553788
 20
240.713391
 30
0.0
 10
68.665055
 20
240.769686
 30
0.0
 10
68.773438
 20
240.797214
 30
0.0
 10
68.878937
 20
240.795975
 30
0.0
  0
SPLINE
  5
19f
100
AcDbEntity
  8
0
 62
7
100
AcDbSpline
 70
8
 71
3
 72
8
 73
4
 74
0
 40
0
 40
0
 40
0
 40
0
 40
1
 40
1
 40
1
 40
1
 10
68.878937
 20
240.795975
 30
0.0
 10
68.985330
 20
240.794220
 30
0.0
 10
69.090888
 20
240.763112
 30
0.0
 10
69.195610
 20
240.702650
 30
0.0
  0
SPLINE
  5
1a0
100
AcDbEntity
  8
0
 62
7
100
AcDbSpline
 70
8
 71
3
 72
8
 73
4
 74
0
 40
0
 40
0
 40
0
 40
0
 40
1
 40
1
 40
1
 40
1
 10
69.195610
 20
240.702650
 30
0.0
 10
69.368357
 20
240.602915
 30
0.0
 10
69.468030
 20
240.473763
 30
0.0
 10
69.494631
 20
240.315195
 30
0.0
  0
SPLINE
  5
1a1
100
AcDbEntity
  8
0
 62
7
100
AcDbSpline
 70
8
 71
3
 72
8
 73
4
 74
0
 40
0
 40
0
 40
0
 40
0
 40
1
 40
1
 40
1
 40
1
 10
69.494631
 20
240.315195
 30
0.0
 10
69.521747
 20
240.157524
 30
0.0
 10
69.475360
 20
239.974861
 30
0.0
 10
69.355470
 20
239.767206
 30
0.0
  0
LWPOLYLINE
  5
1a2
100
AcDbEntity
  8
0
 62
7
100
AcDbPolyline
 90
6
 70
1
 10
69.355470
 20
239.767206
 30
0.0
 10
68.831471
 20
238.859613
 30
0.0
 10
68.584435
 20
239.002240
 30
0.0
 10
69.103783
 20
239.901777
 30
0.0
 10
69.355470
 20
239.767206
 30
0.0
 10
69.355470
 20
239.767206
 30
0.0
  0
SPLINE
  5
1a3
100
AcDbEntity
  8
0
 62
7
100
AcDbSpline
 70
8
 71
3
 72
8
 73
4
 74
0
 40
0
 40
0
 40
0
 40
0
 40
1
 40
1
 40
1
 40
1
 10
71.234191
 20
238.909872
 30
0.0
 10
71.110884
 20
238.884397
 30
0.0
 10
71.009057
 20
238.846520
 30
0.0
 10
70.928711
 20
238.796241
 30
0.0
  0
SPLINE
  5
1a4
100
AcDbEntity
  8
0
 62
7
100
AcDbSpline
 70
8
 71
3
 72
8
 73
4
 74
0
 40
0
 40
0
 40
0
 40
0
 40
1
 40
1
 40
1
 40
1
 10
70.928711
 20
238.796241
 30
0.0
 10
70.849778
 20
238.746340
 30
0.0
 10
70.787573
 20
238.682007
 30
0.0
 10
70.742098
 20
238.603241
 30
0.0
  0
SPLINE
  5
1a5
100
AcDbEntity
  8
0
 62
7
100
AcDbSpline
 70
8
 71
3
 72
8
 73
4
 74
0
 40
0
 40
0
 40
0
 40
0
 40
1
 40
1
 40
1
 40
1
 10
70.742098
 20
238.603241
 30
0.0
 10
70.666650
 20
238.472562
 30
0.0
 10
70.651301
 20
238.336424
 30
0.0
 10
70.696051
 20
238.194826
 30
0.0
  0
SPLINE
  5
1a6
100
AcDbEntity
  8
0
 62
7
100
AcDbSpline
 70
8
 71
3
 72
8
 73
4
 74
0
 40
0
 40
0
 40
0
 40
0
 40
1
 40
1
 40
1
 40
1
 10
70.696051
 20
238.194826
 30
0.0
 10
70.740802
 20
238.053228
 30
0.0
 10
70.834782
 20
237.941088
 30
0.0
 10
70.977991
 20
237.858406
 30
0.0
  0
SPLINE
  5
1a7
100
AcDbEntity
  8
0
 62
7
100
AcDbSpline
 70
8
 71
3
 72
8
 73
4
 74
0
 40
0
 40
0
 40
0
 40
0
 40
1
 40
1
 40
1
 40
1
 10
70.977991
 20
237.858406
 30
0.0
 10
71.063024
 20
237.809312
 30
0.0
 10
71.150694
 20
237.777194
 30
0.0
 10
71.241004
 20
237.762049
 30
0.0
  0
SPLINE
  5
1a8
100
AcDbEntity
  8
0
 62
7
100
AcDbSpline
 70
8
 71
3
 72
8
 73
4
 74
0
 40
0
 40
0
 40
0
 40
0
 40
1
 40
1
 40
1
 40
1
 10
71.241004
 20
237.762049
 30
0.0
 10
71.331830
 20
237.747800
 30
0.0
 10
71.426449
 20
237.750456
 30
0.0
 10
71.524862
 20
237.770016
 30
0.0
  0
LWPOLYLINE
  5
1a9
100
AcDbEntity
  8
0
 62
7
100
AcDbPolyline
 90
8
 70
1
 10
68.311167
 20
240.293160
 30
0.0
 10
67.820499
 20
239.443298
 30
0.0
 10
67.572119
 20
239.586701
 30
0.0
 10
68.440283
 20
241.090405
 30
0.0
 10
68.688663
 20
240.947002
 30
0.0
 10
68.553788
 20
240.713391
 30
0.0
 10
68.311167
 20
240.293160
 30
0.0
 10
68.311167
 20
240.293160
 30
0.0
  0
LWPOLYLINE
  5
1aa
100
AcDbEntity
  8
0
 62
7
100
AcDbPolyline
 90
4
 70
1
 10
69.355470
 20
239.767206
 30
0.0
 10
69.355470
 20
239.767206
 30
0.0
 10
69.355470
 20
239.767206
 30
0.0
 10
69.355470
 20
239.767206
 30
0.0
  0
SPLINE
  5
1ab
100
AcDbEntity
  8
0
 62
7
100
AcDbSpline
 70
8
 71
3
 72
8
 73
4
 74
0
 40
0
 40
0
 40
0
 40
0
 40
1
 40
1
 40
1
 40
1
 10
71.789276
 20
237.859023
 30
0.0
 10
71.888075
 20
237.908195
 30
0.0
 10
71.978341
 20
237.969455
 30
0.0
 10
72.060072
 20
238.042803
 30
0.0
  0
SPLINE
  5
1ac
100
AcDbEntity
  8
0
 62
7
100
AcDbSpline
 70
8
 71
3
 72
8
 73
4
 74
0
 40
0
 40
0
 40
0
 40
0
 40
1
 40
1
 40
1
 40
1
 10
72.060072
 20
238.042803
 30
0.0
 10
72.142318
 20
238.117046
 30
0.0
 10
72.215582
 20
238.203636
 30
0.0
 10
72.279864
 20
238.302572
 30
0.0
  0
LWPOLYLINE
  5
1ad
100
AcDbEntity
  8
0
 62
7
100
AcDbPolyline
 90
5
 70
1
 10
71.524862
 20
237.770016
 30
0.0
 10
71.234191
 20
238.909872
 30
0.0
 10
71.234191
 20
238.909872
 30
0.0
 10
71.524862
 20
237.770016
 30
0.0
 10
71.524862
 20
237.770016
 30
0.0
  0
SPLINE
  5
1ae
100
AcDbEntity
  8
0
 62
7
100
AcDbSpline
 70
8
 71
3
 72
8
 73
4
 74
0
 40
0
 40
0
 40
0
 40
0
 40
1
 40
1
 40
1
 40
1
 10
72.529587
 20
238.158395
 30
0.0
 10
72.450636
 20
238.046446
 30
0.0
 10
72.354556
 20
237.946177
 30
0.0
 10
72.241348
 20
237.857587
 30
0.0
  0
SPLINE
  5
1af
100
AcDbEntity
  8
0
 62
7
100
AcDbSpline
 70
8
 71
3
 72
8
 73
4
 74
0
 40
0
 40
0
 40
0
 40
0
 40
1
 40
1
 40
1
 40
1
 10
72.241348
 20
237.857587
 30
0.0
 10
72.128141
 20
237.768996
 30
0.0
 10
71.997362
 20
237.692341
 30
0.0
 10
71.849009
 20
237.627622
 30
0.0
  0
LWPOLYLINE
  5
1b0
100
AcDbEntity
  8
0
 62
7
100
AcDbPolyline
 90
4
 70
1
 10
71.510314
 20
238.950946
 30
0.0
 10
71.789276
 20
237.859023
 30
0.0
 10
71.510314
 20
238.950946
 30
0.0
 10
71.510314
 20
238.950946
 30
0.0
  0
SPLINE
  5
1b1
100
AcDbEntity
  8
0
 62
7
100
AcDbSpline
 70
8
 71
3
 72
8
 73
4
 74
0
 40
0
 40
0
 40
0
 40
0
 40
1
 40
1
 40
1
 40
1
 10
71.586298
 20
237.532262
 30
0.0
 10
71.447219
 20
237.506345
 30
0.0
 10
71.315292
 20
237.503151
 30
0.0
 10
71.190518
 20
237.522679
 30
0.0
  0
SPLINE
  5
1b2
100
AcDbEntity
  8
0
 62
7
100
AcDbSpline
 70
8
 71
3
 72
8
 73
4
 74
0
 40
0
 40
0
 40
0
 40
0
 40
1
 40
1
 40
1
 40
1
 10
71.190518
 20
237.522679
 30
0.0
 10
71.066260
 20
237.543102
 30
0.0
 10
70.945505
 20
237.587162
 30
0.0
 10
70.828252
 20
237.654858
 30
0.0
  0
SPLINE
  5
1b3
100
AcDbEntity
  8
0
 62
7
100
AcDbSpline
 70
8
 71
3
 72
8
 73
4
 74
0
 40
0
 40
0
 40
0
 40
0
 40
1
 40
1
 40
1
 40
1
 10
70.828252
 20
237.654858
 30
0.0
 10
70.612543
 20
237.779398
 30
0.0
 10
70.471614
 20
237.942512
 30
0.0
 10
70.405465
 20
238.144201
 30
0.0
  0
SPLINE
  5
1b4
100
AcDbEntity
  8
0
 62
7
100
AcDbSpline
 70
8
 71
3
 72
8
 73
4
 74
0
 40
0
 40
0
 40
0
 40
0
 40
1
 40
1
 40
1
 40
1
 10
70.405465
 20
238.144201
 30
0.0
 10
70.339835
 20
238.346784
 30
0.0
 10
70.362572
 20
238.544295
 30
0.0
 10
70.473676
 20
238.736733
 30
0.0
  0
SPLINE
  5
1b5
100
AcDbEntity
  8
0
 62
7
100
AcDbSpline
 70
8
 71
3
 72
8
 73
4
 74
0
 40
0
 40
0
 40
0
 40
0
 40
1
 40
1
 40
1
 40
1
 10
70.473676
 20
238.736733
 30
0.0
 10
70.539822
 20
238.851301
 30
0.0
 10
70.631818
 20
238.941397
 30
0.0
 10
70.749664
 20
239.007021
 30
0.0
  0
SPLINE
  5
1b6
100
AcDbEntity
  8
0
 62
7
100
AcDbSpline
 70
8
 71
3
 72
8
 73
4
 74
0
 40
0
 40
0
 40
0
 40
0
 40
1
 40
1
 40
1
 40
1
 10
70.749664
 20
239.007021
 30
0.0
 10
70.868028
 20
239.073540
 30
0.0
 10
71.012758
 20
239.116482
 30
0.0
 10
71.183855
 20
239.135847
 30
0.0
  0
SPLINE
  5
1b7
100
AcDbEntity
  8
0
 62
7
100
AcDbSpline
 70
8
 71
3
 72
8
 73
4
 74
0
 40
0
 40
0
 40
0
 40
0
 40
1
 40
1
 40
1
 40
1
 10
71.183855
 20
239.135847
 30
0.0
 10
71.173449
 20
239.217041
 30
0.0
 10
71.173077
 20
239.291844
 30
0.0
 10
71.182739
 20
239.360257
 30
0.0
  0
SPLINE
  5
1b8
100
AcDbEntity
  8
0
 62
7
100
AcDbSpline
 70
8
 71
3
 72
8
 73
4
 74
0
 40
0
 40
0
 40
0
 40
0
 40
1
 40
1
 40
1
 40
1
 10
71.182739
 20
239.360257
 30
0.0
 10
71.192919
 20
239.429565
 30
0.0
 10
71.213512
 20
239.491071
 30
0.0
 10
71.244517
 20
239.544775
 30
0.0
  0
SPLINE
  5
1b9
100
AcDbEntity
  8
0
 62
7
100
AcDbSpline
 70
8
 71
3
 72
8
 73
4
 74
0
 40
0
 40
0
 40
0
 40
0
 40
1
 40
1
 40
1
 40
1
 10
71.244517
 20
239.544775
 30
0.0
 10
71.328233
 20
239.689775
 30
0.0
 10
71.445089
 20
239.777452
 30
0.0
 10
71.595086
 20
239.807806
 30
0.0
  0
SPLINE
  5
1ba
100
AcDbEntity
  8
0
 62
7
100
AcDbSpline
 70
8
 71
3
 72
8
 73
4
 74
0
 40
0
 40
0
 40
0
 40
0
 40
1
 40
1
 40
1
 40
1
 10
71.595086
 20
239.807806
 30
0.0
 10
71.745597
 20
239.839057
 30
0.0
 10
71.903198
 20
239.807140
 30
0.0
 10
72.067889
 20
239.712055
 30
0.0
  0
SPLINE
  5
1bb
100
AcDbEntity
  8
0
 62
7
100
AcDbSpline
 70
8
 71
3
 72
8
 73
4
 74
0
 40
0
 40
0
 40
0
 40
0
 40
1
 40
1
 40
1
 40
1
 10
72.067889
 20
239.712055
 30
0.0
 10
72.142179
 20
239.669164
 30
0.0
 10
72.211370
 20
239.618475
 30
0.0
 10
72.275463
 20
239.559989
 30
0.0
  0
SPLINE
  5
1bc
100
AcDbEntity
  8
0
 62
7
100
AcDbSpline
 70
8
 71
3
 72
8
 73
4
 74
0
 40
0
 40
0
 40
0
 40
0
 40
1
 40
1
 40
1
 40
1
 10
72.275463
 20
239.559989
 30
0.0
 10
72.340451
 20
239.500986
 30
0.0
 10
72.401684
 20
239.433411
 30
0.0
 10
72.459161
 20
239.357265
 30
0.0
  0
LWPOLYLINE
  5
1bd
100
AcDbEntity
  8
0
 62
7
100
AcDbPolyline
 90
4
 70
1
 10
72.279864
 20
238.302572
 30
0.0
 10
72.529587
 20
238.158395
 30
0.0
 10
72.279864
 20
238.302572
 30
0.0
 10
72.279864
 20
238.302572
 30
0.0
  0
SPLINE
  5
1be
100
AcDbEntity
  8
0
 62
7
100
AcDbSpline
 70
8
 71
3
 72
8
 73
4
 74
0
 40
0
 40
0
 40
0
 40
0
 40
1
 40
1
 40
1
 40
1
 10
72.318084
 20
239.112913
 30
0.0
 10
72.264502
 20
239.199939
 30
0.0
 10
72.208558
 20
239.274604
 30
0.0
 10
72.150250
 20
239.336910
 30
0.0
  0
SPLINE
  5
1bf
100
AcDbEntity
  8
0
 62
7
100
AcDbSpline
 70
8
 71
3
 72
8
 73
4
 74
0
 40
0
 40
0
 40
0
 40
0
 40
1
 40
1
 40
1
 40
1
 10
72.150250
 20
239.336910
 30
0.0
 10
72.092460
 20
239.400111
 30
0.0
 10
72.033132
 20
239.449282
 30
0.0
 10
71.972267
 20
239.484422
 30
0.0
  0
SPLINE
  5
1c0
100
AcDbEntity
  8
0
 62
7
100
AcDbSpline
 70
8
 71
3
 72
8
 73
4
 74
0
 40
0
 40
0
 40
0
 40
0
 40
1
 40
1
 40
1
 40
1
 10
71.972267
 20
239.484422
 30
0.0
 10
71.878285
 20
239.538682
 30
0.0
 10
71.787288
 20
239.557804
 30
0.0
 10
71.699275
 20
239.541787
 30
0.0
  0
SPLINE
  5
1c1
100
AcDbEntity
  8
0
 62
7
100
AcDbSpline
 70
8
 71
3
 72
8
 73
4
 74
0
 40
0
 40
0
 40
0
 40
0
 40
1
 40
1
 40
1
 40
1
 10
71.699275
 20
239.541787
 30
0.0
 10
71.612675
 20
239.526148
 30
0.0
 10
71.546637
 20
239.478945
 30
0.0
 10
71.501162
 20
239.400180
 30
0.0
  0
SPLINE
  5
1c2
100
AcDbEntity
  8
0
 62
7
100
AcDbSpline
 70
8
 71
3
 72
8
 73
4
 74
0
 40
0
 40
0
 40
0
 40
0
 40
1
 40
1
 40
1
 40
1
 10
71.501162
 20
239.400180
 30
0.0
 10
71.474807
 20
239.354532
 30
0.0
 10
71.461172
 20
239.300943
 30
0.0
 10
71.460257
 20
239.239414
 30
0.0
  0
SPLINE
  5
1c3
100
AcDbEntity
  8
0
 62
7
100
AcDbSpline
 70
8
 71
3
 72
8
 73
4
 74
0
 40
0
 40
0
 40
0
 40
0
 40
1
 40
1
 40
1
 40
1
 10
71.460257
 20
239.239414
 30
0.0
 10
71.460753
 20
239.178263
 30
0.0
 10
71.477439
 20
239.082107
 30
0.0
 10
71.510314
 20
238.950946
 30
0.0
  0
LWPOLYLINE
  5
1c4
100
AcDbEntity
  8
0
 62
7
100
AcDbPolyline
 90
6
 70
1
 10
71.849009
 20
237.627622
 30
0.0
 10
72.002675
 20
237.028718
 30
0.0
 10
71.664344
 20
237.224054
 30
0.0
 10
71.586298
 20
237.532262
 30
0.0
 10
71.849009
 20
237.627622
 30
0.0
 10
71.849009
 20
237.627622
 30
0.0
  0
LWPOLYLINE
  5
1c5
100
AcDbEntity
  8
0
 62
7
100
AcDbPolyline
 90
4
 70
1
 10
72.459161
 20
239.357265
 30
0.0
 10
72.318084
 20
239.112913
 30
0.0
 10
72.459161
 20
239.357265
 30
0.0
 10
72.459161
 20
239.357265
 30
0.0
  0
SPLINE
  5
1c6
100
AcDbEntity
  8
0
 62
7
100
AcDbSpline
 70
8
 71
3
 72
8
 73
4
 74
0
 40
0
 40
0
 40
0
 40
0
 40
1
 40
1
 40
1
 40
1
 10
76.827287
 20
235.863289
 30
0.0
 10
76.953125
 20
235.938620
 30
0.0
 10
77.074252
 20
235.977885
 30
0.0
 10
77.190666
 20
235.981085
 30
0.0
  0
SPLINE
  5
1c7
100
AcDbEntity
  8
0
 62
7
100
AcDbSpline
 70
8
 71
3
 72
8
 73
4
 74
0
 40
0
 40
0
 40
0
 40
0
 40
1
 40
1
 40
1
 40
1
 10
77.190666
 20
235.981085
 30
0.0
 10
77.307082
 20
235.984284
 30
0.0
 10
77.423469
 20
235.952293
 30
0.0
 10
77.539827
 20
235.885114
 30
0.0
  0
SPLINE
  5
1c8
100
AcDbEntity
  8
0
 62
7
100
AcDbSpline
 70
8
 71
3
 72
8
 73
4
 74
0
 40
0
 40
0
 40
0
 40
0
 40
1
 40
1
 40
1
 40
1
 10
77.539827
 20
235.885114
 30
0.0
 10
77.696462
 20
235.794681
 30
0.0
 10
77.785514
 20
235.669871
 30
0.0
 10
77.806983
 20
235.510686
 30
0.0
  0
SPLINE
  5
1c9
100
AcDbEntity
  8
0
 62
7
100
AcDbSpline
 70
8
 71
3
 72
8
 73
4
 74
0
 40
0
 40
0
 40
0
 40
0
 40
1
 40
1
 40
1
 40
1
 10
77.806983
 20
235.510686
 30
0.0
 10
77.828969
 20
235.352396
 30
0.0
 10
77.781567
 20
235.172109
 30
0.0
 10
77.664778
 20
234.969825
 30
0.0
  0
LWPOLYLINE
  5
1ca
100
AcDbEntity
  8
0
 62
7
100
AcDbPolyline
 90
4
 70
1
 10
71.510314
 20
238.950946
 30
0.0
 10
71.510314
 20
238.950946
 30
0.0
 10
71.510314
 20
238.950946
 30
0.0
 10
71.510314
 20
238.950946
 30
0.0
  0
SPLINE
  5
1cb
100
AcDbEntity
  8
0
 62
7
100
AcDbSpline
 70
8
 71
3
 72
8
 73
4
 74
0
 40
0
 40
0
 40
0
 40
0
 40
1
 40
1
 40
1
 40
1
 10
77.411749
 20
235.105171
 30
0.0
 10
77.494948
 20
235.249276
 30
0.0
 10
77.531192
 20
235.370963
 30
0.0
 10
77.520481
 20
235.470234
 30
0.0
  0
SPLINE
  5
1cc
100
AcDbEntity
  8
0
 62
7
100
AcDbSpline
 70
8
 71
3
 72
8
 73
4
 74
0
 40
0
 40
0
 40
0
 40
0
 40
1
 40
1
 40
1
 40
1
 10
77.520481
 20
235.470234
 30
0.0
 10
77.509771
 20
235.569504
 30
0.0
 10
77.452054
 20
235.649370
 30
0.0
 10
77.347332
 20
235.709832
 30
0.0
  0
SPLINE
  5
1cd
100
AcDbEntity
  8
0
 62
7
100
AcDbSpline
 70
8
 71
3
 72
8
 73
4
 74
0
 40
0
 40
0
 40
0
 40
0
 40
1
 40
1
 40
1
 40
1
 10
77.347332
 20
235.709832
 30
0.0
 10
77.219337
 20
235.783730
 30
0.0
 10
77.093648
 20
235.799609
 30
0.0
 10
76.970266
 20
235.757469
 30
0.0
  0
SPLINE
  5
1ce
100
AcDbEntity
  8
0
 62
7
100
AcDbSpline
 70
8
 71
3
 72
8
 73
4
 74
0
 40
0
 40
0
 40
0
 40
0
 40
1
 40
1
 40
1
 40
1
 10
76.970266
 20
235.757469
 30
0.0
 10
76.846883
 20
235.715329
 30
0.0
 10
76.742817
 20
235.620864
 30
0.0
 10
76.658068
 20
235.474074
 30
0.0
  0
LWPOLYLINE
  5
1cf
100
AcDbEntity
  8
0
 62
7
100
AcDbPolyline
 90
16
 70
1
 10
74.388443
 20
238.323950
 30
0.0
 10
75.655849
 20
237.592212
 30
0.0
 10
75.524074
 20
237.363971
 30
0.0
 10
74.527872
 20
237.939129
 30
0.0
 10
74.185257
 20
237.345703
 30
0.0
 10
75.139841
 20
236.794574
 30
0.0
 10
75.008066
 20
236.566333
 30
0.0
 10
74.053482
 20
237.117462
 30
0.0
 10
73.634128
 20
236.391119
 30
0.0
 10
74.654498
 20
235.802008
 30
0.0
 10
74.522723
 20
235.573768
 30
0.0
 10
73.231149
 20
236.319458
 30
0.0
 10
74.388443
 20
238.323950
 30
0.0
 10
74.388443
 20
238.323950
 30
0.0
 10
74.388443
 20
238.323950
 30
0.0
 10
74.388443
 20
238.323950
 30
0.0
  0
SPLINE
  5
1d0
100
AcDbEntity
  8
0
 62
7
100
AcDbSpline
 70
8
 71
3
 72
8
 73
4
 74
0
 40
0
 40
0
 40
0
 40
0
 40
1
 40
1
 40
1
 40
1
 10
76.438368
 20
235.667153
 30
0.0
 10
76.522084
 20
235.812153
 30
0.0
 10
76.558328
 20
235.933841
 30
0.0
 10
76.547100
 20
236.032216
 30
0.0
  0
SPLINE
  5
1d1
100
AcDbEntity
  8
0
 62
7
100
AcDbSpline
 70
8
 71
3
 72
8
 73
4
 74
0
 40
0
 40
0
 40
0
 40
0
 40
1
 40
1
 40
1
 40
1
 10
76.547100
 20
236.032216
 30
0.0
 10
76.536389
 20
236.131486
 30
0.0
 10
76.477777
 20
236.211869
 30
0.0
 10
76.371264
 20
236.273364
 30
0.0
  0
SPLINE
  5
1d2
100
AcDbEntity
  8
0
 62
7
100
AcDbSpline
 70
8
 71
3
 72
8
 73
4
 74
0
 40
0
 40
0
 40
0
 40
0
 40
1
 40
1
 40
1
 40
1
 10
76.371264
 20
236.273364
 30
0.0
 10
76.245062
 20
236.346228
 30
0.0
 10
76.120011
 20
236.361142
 30
0.0
 10
75.996112
 20
236.318107
 30
0.0
  0
SPLINE
  5
1d3
100
AcDbEntity
  8
0
 62
7
100
AcDbSpline
 70
8
 71
3
 72
8
 73
4
 74
0
 40
0
 40
0
 40
0
 40
0
 40
1
 40
1
 40
1
 40
1
 10
75.996112
 20
236.318107
 30
0.0
 10
75.872728
 20
236.275968
 30
0.0
 10
75.768919
 20
236.181951
 30
0.0
 10
75.684687
 20
236.036056
 30
0.0
  0
LWPOLYLINE
  5
1d4
100
AcDbEntity
  8
0
 62
7
100
AcDbPolyline
 90
6
 70
1
 10
77.664778
 20
234.969825
 30
0.0
 10
77.140779
 20
234.062232
 30
0.0
 10
76.892401
 20
234.205633
 30
0.0
 10
77.411749
 20
235.105171
 30
0.0
 10
77.664778
 20
234.969825
 30
0.0
 10
77.664778
 20
234.969825
 30
0.0
  0
SPLINE
  5
1d5
100
AcDbEntity
  8
0
 62
7
100
AcDbSpline
 70
8
 71
3
 72
8
 73
4
 74
0
 40
0
 40
0
 40
0
 40
0
 40
1
 40
1
 40
1
 40
1
 10
75.927308
 20
236.456288
 30
0.0
 10
76.036923
 20
236.515923
 30
0.0
 10
76.143775
 20
236.544932
 30
0.0
 10
76.247862
 20
236.543315
 30
0.0
  0
SPLINE
  5
1d6
100
AcDbEntity
  8
0
 62
7
100
AcDbSpline
 70
8
 71
3
 72
8
 73
4
 74
0
 40
0
 40
0
 40
0
 40
0
 40
1
 40
1
 40
1
 40
1
 10
76.247862
 20
236.543315
 30
0.0
 10
76.351949
 20
236.541697
 30
0.0
 10
76.458144
 20
236.509624
 30
0.0
 10
76.566446
 20
236.447096
 30
0.0
  0
SPLINE
  5
1d7
100
AcDbEntity
  8
0
 62
7
100
AcDbSpline
 70
8
 71
3
 72
8
 73
4
 74
0
 40
0
 40
0
 40
0
 40
0
 40
1
 40
1
 40
1
 40
1
 10
76.566446
 20
236.447096
 30
0.0
 10
76.675644
 20
236.384051
 30
0.0
 10
76.752264
 20
236.302818
 30
0.0
 10
76.796305
 20
236.203399
 30
0.0
  0
SPLINE
  5
1d8
100
AcDbEntity
  8
0
 62
7
100
AcDbSpline
 70
8
 71
3
 72
8
 73
4
 74
0
 40
0
 40
0
 40
0
 40
0
 40
1
 40
1
 40
1
 40
1
 10
76.796305
 20
236.203399
 30
0.0
 10
76.841240
 20
236.103464
 30
0.0
 10
76.851568
 20
235.990094
 30
0.0
 10
76.827287
 20
235.863289
 30
0.0
  0
LWPOLYLINE
  5
1d9
100
AcDbEntity
  8
0
 62
7
100
AcDbPolyline
 90
6
 70
1
 10
76.658068
 20
235.474074
 30
0.0
 10
76.167400
 20
234.624213
 30
0.0
 10
75.919020
 20
234.767616
 30
0.0
 10
76.438368
 20
235.667153
 30
0.0
 10
76.658068
 20
235.474074
 30
0.0
 10
76.658068
 20
235.474074
 30
0.0
  0
LWPOLYLINE
  5
1da
100
AcDbEntity
  8
0
 62
7
100
AcDbPolyline
 90
8
 70
1
 10
75.684687
 20
236.036056
 30
0.0
 10
75.194019
 20
235.186195
 30
0.0
 10
74.945641
 20
235.329596
 30
0.0
 10
75.813805
 20
236.833300
 30
0.0
 10
76.062183
 20
236.689899
 30
0.0
 10
75.927308
 20
236.456288
 30
0.0
 10
75.684687
 20
236.036056
 30
0.0
 10
75.684687
 20
236.036056
 30
0.0
  0
LWPOLYLINE
  5
1db
100
AcDbEntity
  8
0
 62
7
100
AcDbPolyline
 90
4
 70
1
 10
76.827287
 20
235.863289
 30
0.0
 10
76.827287
 20
235.863289
 30
0.0
 10
76.827287
 20
235.863289
 30
0.0
 10
76.827287
 20
235.863289
 30
0.0
  0
LWPOLYLINE
  5
1dc
100
AcDbEntity
  8
0
 62
7
100
AcDbPolyline
 90
8
 70
1
 10
78.497647
 20
235.283783
 30
0.0
 10
78.744686
 20
235.141155
 30
0.0
 10
77.876522
 20
233.637451
 30
0.0
 10
77.629483
 20
233.780079
 30
0.0
 10
78.497647
 20
235.283783
 30
0.0
 10
78.497647
 20
235.283783
 30
0.0
 10
78.497647
 20
235.283783
 30
0.0
 10
78.497647
 20
235.283783
 30
0.0
  0
SPLINE
  5
1dd
100
AcDbEntity
  8
0
 62
7
100
AcDbSpline
 70
8
 71
3
 72
8
 73
4
 74
0
 40
0
 40
0
 40
0
 40
0
 40
1
 40
1
 40
1
 40
1
 10
79.699702
 20
232.398665
 30
0.0
 10
79.526536
 20
232.259959
 30
0.0
 10
79.391073
 20
232.182428
 30
0.0
 10
79.293315
 20
232.166070
 30
0.0
  0
SPLINE
  5
1de
100
AcDbEntity
  8
0
 62
7
100
AcDbSpline
 70
8
 71
3
 72
8
 73
4
 74
0
 40
0
 40
0
 40
0
 40
0
 40
1
 40
1
 40
1
 40
1
 10
79.293315
 20
232.166070
 30
0.0
 10
79.195558
 20
232.149711
 30
0.0
 10
79.091186
 20
232.173572
 30
0.0
 10
78.980197
 20
232.237651
 30
0.0
  0
LWPOLYLINE
  5
1df
100
AcDbEntity
  8
0
 62
7
100
AcDbPolyline
 90
8
 70
1
 10
78.835611
 20
235.869154
 30
0.0
 10
79.082650
 20
235.726526
 30
0.0
 10
78.902041
 20
235.413702
 30
0.0
 10
78.655002
 20
235.556330
 30
0.0
 10
78.835611
 20
235.869154
 30
0.0
 10
78.835611
 20
235.869154
 30
0.0
 10
78.835611
 20
235.869154
 30
0.0
 10
78.835611
 20
235.869154
 30
0.0
  0
SPLINE
  5
1e0
100
AcDbEntity
  8
0
 62
7
100
AcDbSpline
 70
8
 71
3
 72
8
 73
4
 74
0
 40
0
 40
0
 40
0
 40
0
 40
1
 40
1
 40
1
 40
1
 10
79.047209
 20
232.474641
 30
0.0
 10
79.115234
 20
232.435367
 30
0.0
 10
79.177344
 20
232.420989
 30
0.0
 10
79.233539
 20
232.431507
 30
0.0
  0
SPLINE
  5
1e1
100
AcDbEntity
  8
0
 62
7
100
AcDbSpline
 70
8
 71
3
 72
8
 73
4
 74
0
 40
0
 40
0
 40
0
 40
0
 40
1
 40
1
 40
1
 40
1
 10
79.233539
 20
232.431507
 30
0.0
 10
79.289737
 20
232.442025
 30
0.0
 10
79.375283
 20
232.494075
 30
0.0
 10
79.490177
 20
232.587659
 30
0.0
  0
LWPOLYLINE
  5
1e2
100
AcDbEntity
  8
0
 62
7
100
AcDbPolyline
 90
8
 70
1
 10
79.598204
 20
235.428870
 30
0.0
 10
79.845241
 20
235.286244
 30
0.0
 10
78.639113
 20
233.197169
 30
0.0
 10
78.392077
 20
233.339795
 30
0.0
 10
79.598204
 20
235.428870
 30
0.0
 10
79.598204
 20
235.428870
 30
0.0
 10
79.598204
 20
235.428870
 30
0.0
 10
79.598204
 20
235.428870
 30
0.0
  0
LWPOLYLINE
  5
1e3
100
AcDbEntity
  8
0
 62
7
100
AcDbPolyline
 90
6
 70
1
 10
78.980197
 20
232.237651
 30
0.0
 10
78.782837
 20
232.351597
 30
0.0
 10
78.902209
 20
232.558356
 30
0.0
 10
79.047209
 20
232.474641
 30
0.0
 10
78.980197
 20
232.237651
 30
0.0
 10
78.980197
 20
232.237651
 30
0.0
  0
LWPOLYLINE
  5
1e4
100
AcDbEntity
  8
0
 62
7
100
AcDbPolyline
 90
11
 70
1
 10
79.490177
 20
232.587659
 30
0.0
 10
79.599594
 20
232.674857
 30
0.0
 10
79.845611
 20
234.505536
 30
0.0
 10
80.107418
 20
234.354382
 30
0.0
 10
79.898295
 20
232.906970
 30
0.0
 10
81.047232
 20
233.811780
 30
0.0
 10
81.309038
 20
233.660626
 30
0.0
 10
79.699702
 20
232.398665
 30
0.0
 10
79.699702
 20
232.398665
 30
0.0
 10
79.490177
 20
232.587659
 30
0.0
 10
79.490177
 20
232.587659
 30
0.0
  0
ENDSEC
  0
SECTION
  2
OBJECTS
  0
DICTIONARY
  5
C
330
0
100
AcDbDictionary
  3
ACAD_GROUP
350
D
  3
ACAD_MLINESTYLE
350
17
  0
DICTIONARY
  5
D
330
C
100
AcDbDictionary
  0
DICTIONARY
  5
1A
330
C
100
AcDbDictionary
  0
DICTIONARY
  5
17
330
C
100
AcDbDictionary
  3
STANDARD
350
18
  0
DICTIONARY
  5
19
330
C
100
AcDbDictionary
  0
ENDSEC
  0
EOF
