<?xml version="1.0" encoding="utf-8"?>
<!DOCTYPE svg PUBLIC "-//W3C//DTD SVG 1.0//EN" "http://www.w3.org/TR/2001/REC-SVG-20010904/DTD/svg10.dtd" [
<!ENTITY ns_svg "http://www.w3.org/2000/svg">
]>
<svg xmlns="&ns_svg;" width="384" height="480" overflow="visible">
    <g id="Layer_1">
        <rect x="0" y="0" rx="0" ry="0" width="384" height="480" fill="none" stroke="#000000"/>
        <polyline fill="none" stroke="#000000" stroke-width="1" points="  0,96 34.1792,96 34.1792,96 35.6003,95.7886 36.8984,95.1726 37.9609,94.2055 38.6959,92.971 39.0397,91.5759 38.9625,90.1412 38.471,88.7912 37.6078,87.6426 37.6078,87.6426 36.054,85.5752 35.1693,83.1451 35.0304,80.5626 35.6492,78.0516 36.9722,75.8294 38.8847,74.0886 41.2212,72.9798 43.7792,72.5993 46.3372,72.9798 48.6737,74.0886 50.5862,75.8294 51.9092,78.0516 52.528,80.5626 52.3891,83.1451 51.5044,85.5752 49.9506,87.6426 49.9506,87.6426 49.0874,88.7912 48.596,90.1412 48.5188,91.5759 48.8625,92.971 49.5975,94.2055 50.66,95.1726 51.9581,95.7886 53.3792,96 53.3792,96 96,96 "/>
        <polyline fill="none" stroke="#000000" stroke-width="1" points="  96,96 137.454,96 137.454,96 138.911,96.2184 140.24,96.8544 141.325,97.8522 142.069,99.1239 142.407,100.558 142.31,102.028 141.787,103.406 140.883,104.569 140.883,104.569 139.255,106.663 138.312,109.142 138.138,111.788 138.748,114.37 140.087,116.659 142.039,118.455 144.431,119.6 147.054,119.993 149.677,119.6 152.069,118.455 154.021,116.659 155.36,114.37 155.97,111.788 155.796,109.142 154.853,106.663 153.225,104.569 153.225,104.569 152.321,103.406 151.798,102.028 151.701,100.558 152.039,99.1239 152.783,97.8522 153.868,96.8544 155.197,96.2184 156.654,96 156.654,96 192,96 "/>
        <polyline fill="none" stroke="#000000" stroke-width="1" points="  192,96 229.944,96 229.944,96 231.678,95.7277 233.246,94.937 234.496,93.704 235.309,92.1472 235.605,90.4164 235.357,88.678 234.588,87.0993 233.372,85.8322 233.372,85.8322 231.184,83.5513 229.8,80.7097 229.353,77.5807 229.886,74.4652 231.348,71.663 233.599,69.4435 236.421,68.0203 239.544,67.5301 242.666,68.0203 245.488,69.4435 247.739,71.663 249.201,74.4652 249.734,77.5807 249.287,80.7097 247.903,83.5513 245.715,85.8322 245.715,85.8322 244.499,87.0993 243.73,88.678 243.482,90.4164 243.778,92.1472 244.591,93.704 245.841,94.937 247.409,95.7277 249.144,96 249.144,96 288,96 "/>
        <polyline fill="none" stroke="#000000" stroke-width="1" points="  288,96 325.806,96 325.806,96 327.485,95.7385 329.005,94.979 330.222,93.7932 331.021,92.2934 331.326,90.6218 331.108,88.9366 330.388,87.3974 329.235,86.1499 329.235,86.1499 327.158,83.9045 325.862,81.1339 325.47,78.1006 326.019,75.0917 327.457,72.3922 329.648,70.2577 332.384,68.8904 335.406,68.4198 338.428,68.8904 341.164,70.2577 343.355,72.3922 344.793,75.0917 345.342,78.1006 344.95,81.1339 343.654,83.9045 341.578,86.1499 341.578,86.1499 340.424,87.3974 339.704,88.9366 339.486,90.6218 339.791,92.2934 340.59,93.7932 341.807,94.979 343.327,95.7385 345.006,96 345.006,96 384,96 "/>
        <polyline fill="none" stroke="#000000" stroke-width="1" points="  0,192 36.7208,192 36.7208,192 38.4236,192.266 39.9641,193.039 41.1953,194.245 42,195.769 42.3013,197.466 42.0705,199.174 41.3296,200.73 40.1494,201.986 40.1494,201.986 38.0249,204.247 36.6914,207.048 36.276,210.122 36.8183,213.177 38.2666,215.92 40.4828,218.091 43.2557,219.482 46.3208,219.961 49.3859,219.482 52.1587,218.091 54.375,215.92 55.8233,213.177 56.3656,210.122 55.9502,207.048 54.6167,204.247 52.4922,201.986 52.4922,201.986 51.312,200.73 50.5711,199.174 50.3403,197.466 50.6416,195.769 51.4462,194.245 52.6775,193.039 54.218,192.266 55.9208,192 55.9208,192 96,192 "/>
        <polyline fill="none" stroke="#000000" stroke-width="1" points="  96,192 126.495,192 126.495,192 127.941,191.784 129.26,191.154 130.337,190.167 131.078,188.907 131.418,187.486 131.328,186.027 130.815,184.659 129.924,183.501 129.924,183.501 128.32,181.415 127.397,178.952 127.234,176.327 127.847,173.768 129.181,171.501 131.12,169.723 133.494,168.59 136.095,168.201 138.697,168.59 141.071,169.723 143.01,171.501 144.344,173.768 144.956,176.327 144.794,178.952 143.87,181.415 142.267,183.501 142.267,183.501 141.376,184.659 140.863,186.027 140.773,187.486 141.113,188.907 141.854,190.167 142.931,191.154 144.25,191.784 145.695,192 145.695,192 192,192 "/>
        <polyline fill="none" stroke="#000000" stroke-width="1" points="  192,192 236.442,192 236.442,192 238.087,192.255 239.578,192.996 240.775,194.153 241.566,195.618 241.876,197.254 241.677,198.907 240.987,200.422 239.871,201.657 239.871,201.657 237.862,203.881 236.619,206.608 236.261,209.583 236.819,212.527 238.242,215.165 240.397,217.248 243.081,218.581 246.042,219.04 249.004,218.581 251.687,217.248 253.842,215.165 255.265,212.527 255.824,209.583 255.465,206.608 254.223,203.881 252.214,201.657 252.214,201.657 251.097,200.422 250.407,198.907 250.208,197.254 250.518,195.618 251.309,194.153 252.506,192.996 253.997,192.255 255.642,192 255.642,192 288,192 "/>
        <polyline fill="none" stroke="#000000" stroke-width="1" points="  288,192 331.78,192 331.78,192 333.539,191.723 335.128,190.919 336.393,189.665 337.211,188.084 337.503,186.327 337.242,184.566 336.451,182.97 335.209,181.695 335.209,181.695 332.973,179.399 331.55,176.527 331.08,173.356 331.606,170.195 333.079,167.348 335.355,165.091 338.214,163.644 341.38,163.145 344.547,163.644 347.406,165.091 349.682,167.348 351.155,170.195 351.681,173.356 351.211,176.527 349.788,179.399 347.552,181.695 347.552,181.695 346.31,182.97 345.519,184.566 345.258,186.327 345.55,188.084 346.368,189.665 347.633,190.919 349.222,191.723 350.98,192 350.98,192 384,192 "/>
        <polyline fill="none" stroke="#000000" stroke-width="1" points="  0,288 30.2022,288 30.2022,288 31.6969,287.774 33.0583,287.117 34.1651,286.088 34.9186,284.777 35.2517,283.303 35.1345,281.796 34.5777,280.391 33.6308,279.212 33.6308,279.212 31.9263,277.091 30.924,274.562 30.7131,271.849 31.3126,269.195 32.6689,266.836 34.6612,264.983 37.1118,263.801 39.8022,263.394 42.4926,263.801 44.9432,264.983 46.9355,266.836 48.2918,269.195 48.8912,271.849 48.6804,274.562 47.6781,277.091 45.9736,279.212 45.9736,279.212 45.0267,280.391 44.4699,281.796 44.3527,283.303 44.6858,284.777 45.4393,286.088 46.5461,287.117 47.9075,287.774 49.4022,288 49.4022,288 96,288 "/>
        <polyline fill="none" stroke="#000000" stroke-width="1" points="  96,288 135.196,288 135.196,288 136.894,287.735 138.431,286.965 139.659,285.763 140.463,284.243 140.765,282.551 140.537,280.848 139.8,279.295 138.625,278.041 138.625,278.041 136.51,275.783 135.184,272.988 134.773,269.922 135.317,266.876 136.763,264.141 138.974,261.978 141.74,260.591 144.796,260.114 147.853,260.591 150.618,261.978 152.83,264.141 154.276,266.876 154.82,269.922 154.409,272.988 153.083,275.783 150.968,278.041 150.968,278.041 149.793,279.295 149.056,280.848 148.828,282.551 149.13,284.243 149.933,285.763 151.162,286.965 152.698,287.735 154.396,288 154.396,288 192,288 "/>
        <polyline fill="none" stroke="#000000" stroke-width="1" points="  192,288 222.651,288 222.651,288 224.202,287.763 225.612,287.075 226.753,285.998 227.52,284.629 227.845,283.094 227.697,281.532 227.09,280.085 226.079,278.885 226.079,278.885 224.26,276.724 223.168,274.12 222.901,271.308 223.486,268.545 224.867,266.081 226.921,264.142 229.459,262.903 232.251,262.477 235.043,262.903 237.581,264.142 239.634,266.081 241.016,268.545 241.6,271.308 241.334,274.12 240.241,276.724 238.422,278.885 238.422,278.885 237.411,280.085 236.805,281.532 236.657,283.094 236.981,284.629 237.749,285.998 238.89,287.075 240.3,287.763 241.851,288 241.851,288 288,288 "/>
        <polyline fill="none" stroke="#000000" stroke-width="1" points="  288,288 317.364,288 317.364,288 318.782,288.211 320.078,288.825 321.139,289.79 321.873,291.022 322.217,292.414 322.142,293.845 321.653,295.193 320.793,296.341 320.793,296.341 319.245,298.406 318.365,300.832 318.228,303.41 318.848,305.915 320.17,308.132 322.079,309.869 324.411,310.975 326.964,311.354 329.517,310.975 331.849,309.869 333.759,308.132 335.08,305.915 335.7,303.41 335.564,300.832 334.683,298.406 333.136,296.341 333.136,296.341 332.276,295.193 331.787,293.845 331.711,292.414 332.055,291.022 332.789,289.79 333.85,288.825 335.146,288.211 336.564,288 336.564,288 384,288 "/>
        <polyline fill="none" stroke="#000000" stroke-width="1" points="  0,384 44.841,384 44.841,384 46.608,384.279 48.2036,385.087 49.473,386.348 50.293,387.937 50.5842,389.702 50.3182,391.471 49.5209,393.073 48.2696,394.351 48.2696,394.351 46.0173,396.652 44.5821,399.534 44.1034,402.718 44.6275,405.895 46.1035,408.757 48.3884,411.025 51.2604,412.481 54.441,412.983 57.6216,412.481 60.4936,411.025 62.7785,408.757 64.2546,405.895 64.7787,402.718 64.2999,399.534 62.8648,396.652 60.6124,394.351 60.6124,394.351 59.3612,393.073 58.5639,391.471 58.2979,389.702 58.589,387.937 59.4091,386.348 60.6785,385.087 62.274,384.279 64.041,384 64.041,384 96,384 "/>
        <polyline fill="none" stroke="#000000" stroke-width="1" points="  96,384 137.272,384 137.272,384 138.772,383.773 140.138,383.114 141.248,382.08 142.003,380.764 142.335,379.284 142.215,377.771 141.653,376.362 140.701,375.182 140.701,375.182 138.985,373.057 137.975,370.521 137.759,367.799 138.357,365.134 139.716,362.766 141.713,360.905 144.172,359.717 146.872,359.309 149.572,359.717 152.031,360.905 154.028,362.766 155.387,365.134 155.985,367.799 155.769,370.521 154.759,373.057 153.043,375.182 153.043,375.182 152.091,376.362 151.529,377.771 151.409,379.284 151.741,380.764 152.496,382.08 153.606,383.114 154.972,383.773 156.472,384 156.472,384 192,384 "/>
        <polyline fill="none" stroke="#000000" stroke-width="1" points="  192,384 223.141,384 223.141,384 224.662,384.231 226.045,384.902 227.168,385.954 227.928,387.291 228.257,388.794 228.126,390.326 227.546,391.751 226.569,392.939 226.569,392.939 224.812,395.078 223.768,397.643 223.532,400.401 224.124,403.106 225.492,405.513 227.513,407.406 230.004,408.614 232.741,409.03 235.478,408.614 237.969,407.406 239.99,405.513 241.358,403.106 241.95,400.401 241.714,397.643 240.67,395.078 238.912,392.939 238.912,392.939 237.936,391.751 237.356,390.326 237.225,388.794 237.554,387.291 238.314,385.954 239.436,384.902 240.82,384.231 242.341,384 242.341,384 288,384 "/>
        <polyline fill="none" stroke="#000000" stroke-width="1" points="  288,384 318.472,384 318.472,384 320.158,384.263 321.684,385.026 322.905,386.218 323.705,387.725 324.009,389.404 323.788,391.095 323.062,392.64 321.9,393.889 321.9,393.889 319.81,396.139 318.503,398.919 318.105,401.964 318.652,404.986 320.093,407.698 322.291,409.843 325.037,411.217 328.072,411.69 331.106,411.217 333.853,409.843 336.051,407.698 337.492,404.986 338.039,401.964 337.64,398.919 336.334,396.139 334.243,393.889 334.243,393.889 333.082,392.64 332.356,391.095 332.134,389.404 332.438,387.725 333.239,386.218 334.46,385.026 335.986,384.263 337.672,384 337.672,384 384,384 "/>
        <polyline fill="none" stroke="#000000" stroke-width="1" points="  96,0 96,30.4716 96,30.4716 95.7773,31.9508 95.129,33.299 94.1125,34.3965 92.818,35.1461 91.3602,35.4815 89.8682,35.3727 88.4744,34.8296 87.3022,33.9001 87.3022,33.9001 85.1923,32.2272 82.6834,31.2495 79.9979,31.0537 77.3737,31.6573 75.0436,33.0067 73.2139,34.9822 72.047,37.4089 71.6461,40.0716 72.047,42.7342 73.2139,45.1609 75.0436,47.1364 77.3737,48.4858 79.9979,49.0894 82.6834,48.8936 85.1923,47.916 87.3022,46.243 87.3022,46.243 88.4744,45.3136 89.8682,44.7704 91.3602,44.6617 92.818,44.997 94.1125,45.7466 95.129,46.8442 95.7773,48.1923 96,49.6716 96,49.6716 96,96 "/>
        <polyline fill="none" stroke="#000000" stroke-width="1" points="  192,0 192,39.3999 192,39.3999 192.267,41.1093 193.044,42.6553 194.255,43.8904 195.786,44.6966 197.49,44.9969 199.204,44.7626 200.765,44.016 202.023,42.8285 202.023,42.8285 204.288,40.691 207.097,39.3472 210.183,38.9253 213.25,39.4658 216.005,40.9169 218.186,43.1402 219.584,45.9231 220.065,48.9999 219.584,52.0767 218.186,54.8597 216.005,57.0829 213.25,58.534 210.183,59.0745 207.097,58.6527 204.288,57.3088 202.023,55.1713 202.023,55.1713 200.765,53.9838 199.204,53.2373 197.49,53.0029 195.786,53.3032 194.255,54.1094 193.044,55.3445 192.267,56.8906 192,58.5999 192,58.5999 192,96 "/>
        <polyline fill="none" stroke="#000000" stroke-width="1" points="  288,0 288,39.9429 288,39.9429 287.772,41.4508 287.108,42.8236 286.067,43.9383 284.743,44.6951 283.254,45.0262 281.734,44.9019 280.319,44.3333 279.135,43.3715 279.135,43.3715 277.005,41.6401 274.458,40.6167 271.722,40.3929 269.042,40.9889 266.659,42.3511 264.786,44.3576 263.59,46.8287 263.179,49.5429 263.59,52.2571 264.786,54.7281 266.659,56.7346 269.042,58.0969 271.722,58.6928 274.458,58.4691 277.005,57.4457 279.135,55.7143 279.135,55.7143 280.319,54.7524 281.734,54.1839 283.254,54.0596 284.743,54.3907 286.067,55.1475 287.108,56.2622 287.772,57.635 288,59.1429 288,59.1429 288,96 "/>
        <polyline fill="none" stroke="#000000" stroke-width="1" points="  96,96 96,133.585 96,133.585 96.2134,135.016 96.8349,136.323 97.8106,137.392 99.0555,138.129 100.461,138.472 101.906,138.389 103.264,137.889 104.416,137.014 104.416,137.014 106.491,135.439 108.935,134.539 111.536,134.39 114.066,135.006 116.307,136.334 118.063,138.257 119.182,140.609 119.566,143.185 119.182,145.761 118.063,148.113 116.307,150.037 114.066,151.364 111.536,151.981 108.935,151.832 106.491,150.931 104.416,149.357 104.416,149.357 103.264,148.482 101.906,147.982 100.461,147.899 99.0555,148.241 97.8106,148.979 96.8349,150.047 96.2134,151.354 96,152.785 96,152.785 96,192 "/>
        <polyline fill="none" stroke="#000000" stroke-width="1" points="  192,96 192,126.931 192,126.931 192.206,128.322 192.805,129.595 193.747,130.639 194.951,131.367 196.314,131.715 197.72,131.654 199.047,131.189 200.183,130.359 200.183,130.359 202.379,128.789 204.952,127.971 207.652,127.986 210.215,128.831 212.394,130.425 213.976,132.612 214.808,135.181 214.808,137.88 213.976,140.449 212.394,142.636 210.215,144.23 207.652,145.075 204.952,145.09 202.379,144.272 200.183,142.702 200.183,142.702 199.047,141.873 197.72,141.407 196.314,141.346 194.951,141.694 193.747,142.422 192.805,143.466 192.206,144.739 192,146.131 192,146.131 192,192 "/>
        <polyline fill="none" stroke="#000000" stroke-width="1" points="  288,96 288,126.355 288,126.355 287.74,128.027 286.984,129.541 285.804,130.754 284.312,131.551 282.648,131.857 280.969,131.643 279.435,130.929 278.19,129.783 278.19,129.783 275.949,127.721 273.187,126.436 270.166,126.051 267.17,126.602 264.484,128.037 262.36,130.22 260.999,132.945 260.531,135.955 260.999,138.964 262.36,141.69 264.484,143.873 267.17,145.308 270.166,145.859 273.187,145.474 275.949,144.189 278.19,142.126 278.19,142.126 279.435,140.98 280.969,140.267 282.648,140.053 284.312,140.359 285.804,141.156 286.984,142.369 287.74,143.883 288,145.555 288,145.555 288,192 "/>
        <polyline fill="none" stroke="#000000" stroke-width="1" points="  96,192 96,225.593 96,225.593 95.7327,227.302 94.9563,228.848 93.745,230.083 92.2145,230.889 90.5109,231.189 88.797,230.955 87.2364,230.209 85.9782,229.021 85.9782,229.021 83.7136,226.884 80.9045,225.541 77.8195,225.119 74.753,225.66 71.9981,227.111 69.8177,229.334 68.4202,232.116 67.9391,235.193 68.4202,238.269 69.8177,241.052 71.9981,243.275 74.753,244.726 77.8195,245.266 80.9045,244.845 83.7136,243.501 85.9782,241.364 85.9782,241.364 87.2364,240.177 88.797,239.431 90.5109,239.196 92.2145,239.497 93.745,240.303 94.9563,241.538 95.7327,243.084 96,244.793 96,244.793 96,288 "/>
        <polyline fill="none" stroke="#000000" stroke-width="1" points="  192,192 192,231.784 192,231.784 192.273,233.522 193.066,235.093 194.301,236.345 195.862,237.158 197.596,237.454 199.338,237.204 200.919,236.432 202.187,235.213 202.187,235.213 204.47,233.018 207.316,231.628 210.451,231.178 213.573,231.711 216.381,233.174 218.606,235.428 220.032,238.256 220.524,241.384 220.032,244.513 218.606,247.34 216.381,249.594 213.573,251.058 210.451,251.59 207.316,251.14 204.47,249.75 202.187,247.556 202.187,247.556 200.919,246.336 199.338,245.564 197.596,245.314 195.862,245.61 194.301,246.423 193.066,247.675 192.273,249.246 192,250.984 192,250.984 192,288 "/>
        <polyline fill="none" stroke="#000000" stroke-width="1" points="  288,192 288,239.422 288,239.422 288.26,241.092 289.014,242.604 290.193,243.816 291.684,244.613 293.346,244.919 295.023,244.706 296.556,243.994 297.8,242.85 297.8,242.85 300.04,240.791 302.799,239.509 305.817,239.126 308.81,239.677 311.493,241.112 313.614,243.293 314.973,246.015 315.44,249.022 314.973,252.028 313.614,254.751 311.493,256.932 308.81,258.366 305.817,258.917 302.799,258.534 300.04,257.252 297.8,255.193 297.8,255.193 296.556,254.049 295.023,253.337 293.346,253.124 291.684,253.43 290.193,254.227 289.014,255.439 288.26,256.951 288,258.622 288,258.622 288,288 "/>
        <polyline fill="none" stroke="#000000" stroke-width="1" points="  96,288 96,320.494 96,320.494 96.2726,322.23 97.064,323.799 98.2982,325.05 99.8563,325.863 101.589,326.159 103.328,325.91 104.908,325.139 106.175,323.922 106.175,323.922 108.457,321.732 111.3,320.345 114.432,319.897 117.55,320.43 120.354,321.893 122.576,324.145 124,326.969 124.491,330.094 124,333.219 122.576,336.043 120.354,338.295 117.55,339.758 114.432,340.29 111.3,339.842 108.457,338.456 106.175,336.265 106.175,336.265 104.908,335.048 103.328,334.278 101.589,334.029 99.8563,334.325 98.2982,335.138 97.064,336.389 96.2726,337.958 96,339.694 96,339.694 96,384 "/>
        <polyline fill="none" stroke="#000000" stroke-width="1" points="  192,288 192,330.425 192,330.425 192.249,332.041 192.974,333.508 194.107,334.688 195.543,335.471 197.148,335.786 198.774,335.602 200.268,334.938 201.493,333.853 201.493,333.853 203.698,331.902 206.388,330.705 209.314,330.375 212.203,330.941 214.787,332.352 216.827,334.475 218.131,337.115 218.58,340.025 218.131,342.935 216.827,345.574 214.787,347.698 212.203,349.109 209.314,349.675 206.388,349.344 203.698,348.148 201.493,346.196 201.493,346.196 200.268,345.112 198.774,344.447 197.148,344.264 195.543,344.578 194.107,345.362 192.974,346.542 192.249,348.008 192,349.625 192,349.625 192,384 "/>
        <polyline fill="none" stroke="#000000" stroke-width="1" points="  288,288 288,318.453 288,318.453 288.26,320.125 289.015,321.638 290.195,322.851 291.687,323.648 293.35,323.954 295.028,323.74 296.562,323.027 297.807,321.882 297.807,321.882 300.047,319.82 302.808,318.537 305.829,318.152 308.823,318.703 311.509,320.138 313.631,322.32 314.991,325.045 315.459,328.053 314.991,331.062 313.631,333.786 311.509,335.969 308.823,337.403 305.829,337.954 302.808,337.57 300.047,336.286 297.807,334.225 297.807,334.225 296.562,333.079 295.028,332.366 293.35,332.153 291.687,332.459 290.195,333.256 289.015,334.468 288.26,335.982 288,337.653 288,337.653 288,384 "/>
        <polyline fill="none" stroke="#000000" stroke-width="1" points="  96,384 96,427.1 96,427.1 95.765,428.642 95.0815,430.045 94.0113,431.18 92.6515,431.946 91.1255,432.272 89.5717,432.129 88.131,431.529 86.9341,430.528 86.9341,430.528 84.7796,428.726 82.1863,427.647 79.3894,427.39 76.6427,427.976 74.1951,429.354 72.2687,431.398 71.0383,433.923 70.6154,436.7 71.0383,439.476 72.2687,442.001 74.1951,444.045 76.6427,445.423 79.3894,446.01 82.1863,445.752 84.7796,444.673 86.9341,442.871 86.9341,442.871 88.131,441.87 89.5717,441.271 91.1255,441.127 92.6515,441.453 94.0113,442.219 95.0815,443.354 95.765,444.757 96,446.3 96,446.3 96,480 "/>
        <polyline fill="none" stroke="#000000" stroke-width="1" points="  192,384 192,420.715 192,420.715 191.77,422.234 191.099,423.617 190.048,424.738 188.713,425.498 187.212,425.827 185.68,425.697 184.257,425.118 183.069,424.143 183.069,424.143 180.931,422.389 178.368,421.347 175.612,421.112 172.91,421.705 170.506,423.072 168.615,425.091 167.408,427.58 166.993,430.315 167.408,433.05 168.615,435.538 170.506,437.557 172.91,438.925 175.612,439.517 178.368,439.282 180.931,438.241 183.069,436.486 183.069,436.486 184.257,435.511 185.68,434.933 187.212,434.802 188.713,435.131 190.048,435.891 191.099,437.013 191.77,438.395 192,439.915 192,439.915 192,480 "/>
        <polyline fill="none" stroke="#000000" stroke-width="1" points="  288,384 288,425.548 288,425.548 287.771,427.061 287.103,428.439 286.058,429.557 284.728,430.315 283.234,430.645 281.708,430.518 280.289,429.944 279.103,428.976 279.103,428.976 276.969,427.234 274.415,426.201 271.669,425.972 268.979,426.567 266.585,427.932 264.704,429.944 263.502,432.424 263.09,435.148 263.502,437.872 264.704,440.351 266.585,442.364 268.979,443.729 271.669,444.323 274.415,444.094 276.969,443.062 279.103,441.319 279.103,441.319 280.289,440.351 281.708,439.778 283.234,439.65 284.728,439.981 286.058,440.739 287.103,441.857 287.771,443.234 288,444.748 288,444.748 288,480 "/>
    </g>
</svg>
