<?xml version="1.0" encoding="utf-8"?>
<!DOCTYPE svg PUBLIC "-//W3C//DTD SVG 1.0//EN" "http://www.w3.org/TR/2001/REC-SVG-20010904/DTD/svg10.dtd" [
<!ENTITY ns_svg "http://www.w3.org/2000/svg">
]>
<svg xmlns="&ns_svg;" width="960" height="672" overflow="visible">
    <g id="Layer_1">
        <rect x="0" y="0" rx="0" ry="0" width="960" height="672" fill="none" stroke="#000000"/>
        <polyline fill="none" stroke="#000000" stroke-width="1" points="  0,96 46.0736,96 46.0736,96 47.6518,96.2419 49.0852,96.9453 50.2421,98.0457 51.0163,99.4421 51.3368,101.006 51.1742,102.595 50.5433,104.061 49.5022,105.272 49.5022,105.272 47.6281,107.451 46.4925,110.091 46.1998,112.95 46.7767,115.765 48.1704,118.279 50.2528,120.26 52.8328,121.526 55.6736,121.961 58.5144,121.526 61.0944,120.26 63.1768,118.279 64.5705,115.765 65.1474,112.95 64.8547,110.091 63.7191,107.451 61.845,105.272 61.845,105.272 60.8039,104.061 60.173,102.595 60.0104,101.006 60.3309,99.4421 61.1051,98.0457 62.262,96.9453 63.6954,96.2419 65.2736,96 65.2736,96 96,96 "/>
        <polyline fill="none" stroke="#000000" stroke-width="1" points="  96,96 134.019,96 134.019,96 135.792,95.7203 137.393,94.9083 138.666,93.6428 139.487,92.047 139.777,90.2757 139.508,88.5012 138.705,86.8957 137.448,85.6154 137.448,85.6154 135.183,83.3107 133.739,80.4209 133.254,77.2267 133.777,74.0384 135.255,71.1659 137.547,68.8881 140.428,67.4265 143.619,66.923 146.81,67.4265 149.692,68.8881 151.983,71.1659 153.461,74.0384 153.984,77.2267 153.499,80.4209 152.055,83.3107 149.79,85.6154 149.79,85.6154 148.533,86.8957 147.73,88.5012 147.461,90.2757 147.751,92.047 148.573,93.6428 149.845,94.9083 151.446,95.7203 153.219,96 153.219,96 192,96 "/>
        <polyline fill="none" stroke="#000000" stroke-width="1" points="  192,96 224.216,96 224.216,96 225.693,96.2222 227.039,96.8693 228.135,97.8838 228.884,99.176 229.22,100.631 229.112,102.121 228.571,103.513 227.644,104.685 227.644,104.685 225.976,106.793 225.002,109.299 224.809,111.98 225.413,114.6 226.761,116.926 228.734,118.752 231.157,119.917 233.816,120.317 236.474,119.917 238.898,118.752 240.871,116.926 242.219,114.6 242.823,111.98 242.63,109.299 241.656,106.793 239.987,104.685 239.987,104.685 239.06,103.513 238.519,102.121 238.412,100.631 238.747,99.176 239.497,97.8838 240.593,96.8693 241.939,96.2222 243.416,96 243.416,96 288,96 "/>
        <polyline fill="none" stroke="#000000" stroke-width="1" points="  288,96 331.193,96 331.193,96 332.79,95.7543 334.241,95.04 335.409,93.923 336.188,92.5065 336.506,90.9214 336.332,89.3142 335.684,87.8332 334.621,86.6154 334.621,86.6154 332.708,84.4233 331.541,81.7576 331.229,78.8646 331.8,76.0114 333.203,73.4618 335.306,71.4512 337.917,70.1654 340.793,69.7232 343.669,70.1654 346.279,71.4512 348.382,73.4618 349.785,76.0114 350.356,78.8646 350.044,81.7576 348.878,84.4233 346.964,86.6154 346.964,86.6154 345.901,87.8332 345.253,89.3142 345.079,90.9214 345.397,92.5065 346.176,93.923 347.345,95.04 348.795,95.7543 350.393,96 350.393,96 384,96 "/>
        <polyline fill="none" stroke="#000000" stroke-width="1" points="  384,96 428.629,96 428.629,96 430.305,96.2609 431.822,97.0188 433.038,98.202 433.836,99.6986 434.141,101.367 433.925,103.049 433.208,104.586 432.058,105.833 432.058,105.833 429.987,108.076 428.696,110.843 428.307,113.871 428.857,116.874 430.294,119.568 432.481,121.698 435.212,123.062 438.229,123.532 441.246,123.062 443.977,121.698 446.165,119.568 447.601,116.874 448.151,113.871 447.762,110.843 446.471,108.076 444.401,105.833 444.401,105.833 443.25,104.586 442.533,103.049 442.317,101.367 442.622,99.6986 443.421,98.202 444.636,97.0188 446.153,96.2609 447.829,96 447.829,96 480,96 "/>
        <polyline fill="none" stroke="#000000" stroke-width="1" points="  480,96 514.577,96 514.577,96 516.337,95.7228 517.926,94.9179 519.192,93.6634 520.01,92.0806 520.302,90.3229 520.04,88.5605 519.249,86.9641 518.005,85.6881 518.005,85.6881 515.766,83.3914 514.342,80.5177 513.87,77.3454 514.396,74.1815 515.869,71.3326 518.147,69.0744 521.008,67.6257 524.177,67.1267 527.345,67.6257 530.206,69.0744 532.484,71.3326 533.957,74.1815 534.483,77.3454 534.011,80.5177 532.587,83.3914 530.348,85.6881 530.348,85.6881 529.104,86.9641 528.313,88.5605 528.051,90.3229 528.343,92.0806 529.161,93.6634 530.427,94.9179 532.016,95.7228 533.777,96 533.777,96 576,96 "/>
        <polyline fill="none" stroke="#000000" stroke-width="1" points="  576,96 623.626,96 623.626,96 625.256,96.252 626.734,96.9845 627.922,98.1292 628.709,99.5792 629.022,101.199 628.831,102.838 628.154,104.342 627.054,105.572 627.054,105.572 625.075,107.786 623.856,110.494 623.512,113.444 624.075,116.36 625.491,118.969 627.63,121.03 630.291,122.348 633.226,122.802 636.16,122.348 638.821,121.03 640.96,118.969 642.376,116.36 642.939,113.444 642.595,110.494 641.376,107.786 639.397,105.572 639.397,105.572 638.297,104.342 637.62,102.838 637.429,101.199 637.742,99.5792 638.529,98.1292 639.717,96.9845 641.195,96.252 642.826,96 642.826,96 672,96 "/>
        <polyline fill="none" stroke="#000000" stroke-width="1" points="  672,96 714.979,96 714.979,96 716.425,96.2163 717.745,96.8461 718.822,97.8344 719.564,99.0947 719.904,100.517 719.813,101.976 719.3,103.345 718.408,104.504 718.408,104.504 716.803,106.59 715.878,109.054 715.715,111.681 716.327,114.24 717.662,116.509 719.601,118.288 721.976,119.421 724.579,119.811 727.182,119.421 729.557,118.288 731.497,116.509 732.831,114.24 733.444,111.681 733.28,109.054 732.356,106.59 730.751,104.504 730.751,104.504 729.859,103.345 729.345,101.976 729.255,100.517 729.595,99.0947 730.336,97.8344 731.414,96.8461 732.733,96.2163 734.179,96 734.179,96 768,96 "/>
        <polyline fill="none" stroke="#000000" stroke-width="1" points="  768,96 800.692,96 800.692,96 802.363,96.26 803.877,97.0153 805.089,98.1946 805.886,99.6864 806.192,101.35 805.979,103.028 805.266,104.561 804.12,105.806 804.12,105.806 802.059,108.047 800.776,110.807 800.391,113.828 800.942,116.822 802.377,119.507 804.559,121.63 807.284,122.989 810.292,123.457 813.3,122.989 816.024,121.63 818.207,119.507 819.641,116.822 820.192,113.828 819.808,110.807 818.525,108.047 816.463,105.806 816.463,105.806 815.318,104.561 814.605,103.028 814.392,101.35 814.698,99.6864 815.495,98.1946 816.707,97.0153 818.221,96.26 819.892,96 819.892,96 864,96 "/>
        <polyline fill="none" stroke="#000000" stroke-width="1" points="  864,96 909.427,96 909.427,96 911.032,95.7531 912.487,95.0353 913.659,93.913 914.44,92.4901 914.757,90.8984 914.58,89.2851 913.926,87.7997 912.856,86.5795 912.856,86.5795 910.93,84.3833 909.753,81.7095 909.435,78.8056 910.005,75.9404 911.41,73.3793 913.52,71.3592 916.14,70.0671 919.027,69.6227 921.915,70.0671 924.535,71.3592 926.645,73.3793 928.05,75.9404 928.62,78.8056 928.302,81.7095 927.125,84.3833 925.199,86.5795 925.199,86.5795 924.129,87.7997 923.475,89.2851 923.298,90.8984 923.615,92.4901 924.396,93.913 925.568,95.0353 927.023,95.7531 928.627,96 928.627,96 960,96 "/>
        <polyline fill="none" stroke="#000000" stroke-width="1" points="  0,192 41.9719,192 41.9719,192 43.7314,192.277 45.3205,193.082 46.5855,194.336 47.4037,195.918 47.696,197.675 47.4342,199.437 46.6435,201.033 45.4005,202.308 45.4005,202.308 43.163,204.605 41.7398,207.478 41.2684,210.649 41.7946,213.812 43.2675,216.659 45.5444,218.917 48.4048,220.365 51.5719,220.863 54.739,220.365 57.5994,218.917 59.8763,216.659 61.3491,213.812 61.8754,210.649 61.404,207.478 59.9807,204.605 57.7433,202.308 57.7433,202.308 56.5003,201.033 55.7096,199.437 55.4477,197.675 55.7401,195.918 56.5583,194.336 57.8233,193.082 59.4124,192.277 61.1719,192 61.1719,192 96,192 "/>
        <polyline fill="none" stroke="#000000" stroke-width="1" points="  96,192 136.541,192 136.541,192 138.312,191.721 139.911,190.91 141.183,189.646 142.004,188.052 142.294,186.283 142.026,184.51 141.225,182.906 139.97,181.626 139.97,181.626 137.709,179.323 136.268,176.435 135.785,173.244 136.308,170.06 137.786,167.191 140.075,164.916 142.953,163.456 146.141,162.953 149.329,163.456 152.207,164.916 154.496,167.191 155.974,170.06 156.497,173.244 156.014,176.435 154.573,179.323 152.313,181.626 152.313,181.626 151.057,182.906 150.256,184.51 149.988,186.283 150.278,188.052 151.099,189.646 152.371,190.91 153.97,191.721 155.741,192 155.741,192 192,192 "/>
        <polyline fill="none" stroke="#000000" stroke-width="1" points="  192,192 224.171,192 224.171,192 225.883,192.268 227.43,193.045 228.667,194.259 229.473,195.791 229.773,197.497 229.538,199.213 228.79,200.775 227.6,202.034 227.6,202.034 225.458,204.301 224.112,207.112 223.688,210.201 224.228,213.272 225.68,216.031 227.905,218.215 230.691,219.614 233.771,220.096 236.852,219.614 239.638,218.215 241.863,216.031 243.315,213.272 243.855,210.201 243.431,207.112 242.084,204.301 239.943,202.034 239.943,202.034 238.753,200.775 238.005,199.213 237.769,197.497 238.069,195.791 238.876,194.259 240.112,193.045 241.66,192.268 243.371,192 243.371,192 288,192 "/>
        <polyline fill="none" stroke="#000000" stroke-width="1" points="  288,192 330.465,192 330.465,192 332.15,191.738 333.674,190.975 334.894,189.785 335.694,188.28 335.999,186.602 335.778,184.912 335.054,183.369 333.894,182.12 333.894,182.12 331.807,179.871 330.502,177.093 330.105,174.051 330.653,171.032 332.093,168.323 334.289,166.18 337.034,164.808 340.065,164.335 343.097,164.808 345.841,166.18 348.038,168.323 349.478,171.032 350.025,174.051 349.628,177.093 348.324,179.871 346.237,182.12 346.237,182.12 345.077,183.369 344.353,184.912 344.132,186.602 344.436,188.28 345.236,189.785 346.457,190.975 347.981,191.738 349.665,192 349.665,192 384,192 "/>
        <polyline fill="none" stroke="#000000" stroke-width="1" points="  384,192 413.511,192 413.511,192 415.249,192.273 416.819,193.065 418.071,194.3 418.884,195.86 419.18,197.593 418.93,199.334 418.159,200.915 416.94,202.183 416.94,202.183 414.747,204.465 413.358,207.31 412.909,210.444 413.441,213.564 414.905,216.372 417.158,218.595 419.984,220.021 423.111,220.512 426.239,220.021 429.065,218.595 431.318,216.372 432.782,213.564 433.314,210.444 432.865,207.31 431.476,204.465 429.283,202.183 429.283,202.183 428.064,200.915 427.293,199.334 427.043,197.593 427.339,195.86 428.152,194.3 429.404,193.065 430.974,192.273 432.711,192 432.711,192 480,192 "/>
        <polyline fill="none" stroke="#000000" stroke-width="1" points="  480,192 513.617,192 513.617,192 515.123,192.228 516.493,192.891 517.607,193.929 518.363,195.251 518.694,196.737 518.571,198.255 518.005,199.668 517.046,200.851 517.046,200.851 515.319,202.979 514.299,205.524 514.078,208.255 514.674,210.931 516.036,213.309 518.04,215.179 520.507,216.373 523.217,216.783 525.927,216.373 528.394,215.179 530.398,213.309 531.76,210.931 532.356,208.255 532.135,205.524 531.115,202.979 529.389,200.851 529.389,200.851 528.429,199.668 527.863,198.255 527.74,196.737 528.071,195.251 528.827,193.929 529.941,192.891 531.312,192.228 532.817,192 532.817,192 576,192 "/>
        <polyline fill="none" stroke="#000000" stroke-width="1" points="  576,192 616.173,192 616.173,192 617.914,191.727 619.487,190.933 620.741,189.694 621.555,188.132 621.85,186.395 621.598,184.651 620.824,183.068 619.602,181.798 619.602,181.798 617.402,179.514 616.009,176.665 615.556,173.526 616.087,170.399 617.552,167.586 619.809,165.357 622.64,163.928 625.773,163.436 628.907,163.928 631.738,165.357 633.995,167.586 635.459,170.399 635.991,173.526 635.538,176.665 634.145,179.514 631.945,181.798 631.945,181.798 630.723,183.068 629.948,184.651 629.697,186.395 629.992,188.132 630.806,189.694 632.06,190.933 633.633,191.727 635.373,192 635.373,192 672,192 "/>
        <polyline fill="none" stroke="#000000" stroke-width="1" points="  672,192 705.371,192 705.371,192 706.984,191.751 708.447,191.029 709.625,189.899 710.408,188.467 710.723,186.865 710.541,185.244 709.88,183.752 708.8,182.528 708.8,182.528 706.856,180.326 705.665,177.641 705.338,174.721 705.905,171.839 707.314,169.261 709.434,167.228 712.068,165.927 714.971,165.479 717.875,165.927 720.508,167.228 722.628,169.261 724.037,171.839 724.604,174.721 724.278,177.641 723.087,180.326 721.143,182.528 721.143,182.528 720.063,183.752 719.401,185.244 719.219,186.865 719.535,188.467 720.317,189.899 721.495,191.029 722.958,191.751 724.571,192 724.571,192 768,192 "/>
        <polyline fill="none" stroke="#000000" stroke-width="1" points="  768,192 810.442,192 810.442,192 812.201,192.277 813.791,193.082 815.056,194.336 815.874,195.918 816.167,197.676 815.905,199.438 815.114,201.034 813.87,202.31 813.87,202.31 811.632,204.606 810.209,207.48 809.737,210.651 810.263,213.815 811.736,216.663 814.013,218.92 816.874,220.369 820.042,220.868 823.209,220.369 826.07,218.92 828.347,216.663 829.82,213.815 830.346,210.651 829.875,207.48 828.451,204.606 826.213,202.31 826.213,202.31 824.97,201.034 824.179,199.438 823.917,197.676 824.209,195.918 825.028,194.336 826.293,193.082 827.882,192.277 829.642,192 829.642,192 864,192 "/>
        <polyline fill="none" stroke="#000000" stroke-width="1" points="  864,192 902.417,192 902.417,192 903.937,191.769 905.32,191.098 906.442,190.047 907.202,188.71 907.532,187.209 907.401,185.677 906.821,184.252 905.845,183.064 905.845,183.064 904.089,180.925 903.046,178.362 902.81,175.604 903.403,172.901 904.771,170.495 906.79,168.603 909.28,167.395 912.017,166.98 914.753,167.395 917.243,168.603 919.263,170.495 920.631,172.901 921.223,175.604 920.988,178.362 919.945,180.925 918.188,183.064 918.188,183.064 917.212,184.252 916.633,185.677 916.502,187.209 916.831,188.71 917.591,190.047 918.713,191.098 920.097,191.769 921.617,192 921.617,192 960,192 "/>
        <polyline fill="none" stroke="#000000" stroke-width="1" points="  0,288 47.8863,288 47.8863,288 49.287,287.793 50.5675,287.188 51.6178,286.238 52.3476,285.025 52.6943,283.652 52.6281,282.237 52.1548,280.902 51.3148,279.762 51.3148,279.762 49.7245,277.559 48.8918,274.972 48.898,272.255 49.7424,269.672 51.3427,267.475 53.5427,265.88 56.1275,265.041 58.845,265.041 61.4299,265.88 63.6298,267.475 65.2301,269.672 66.0746,272.255 66.0807,274.972 65.248,277.559 63.6577,279.762 63.6577,279.762 62.8178,280.902 62.3444,282.237 62.2782,283.652 62.6249,285.025 63.3547,286.238 64.405,287.188 65.6855,287.793 67.0863,288 67.0863,288 96,288 "/>
        <polyline fill="none" stroke="#000000" stroke-width="1" points="  96,288 128.863,288 128.863,288 130.473,287.752 131.933,287.031 133.109,285.904 133.891,284.475 134.207,282.877 134.027,281.258 133.368,279.768 132.291,278.546 132.291,278.546 130.353,276.346 129.167,273.664 128.844,270.75 129.412,267.874 130.819,265.302 132.936,263.272 135.565,261.975 138.463,261.528 141.361,261.975 143.99,263.272 146.106,265.302 147.514,267.874 148.082,270.75 147.758,273.664 146.572,276.346 144.634,278.546 144.634,278.546 143.558,279.768 142.899,281.258 142.719,282.877 143.035,284.475 143.817,285.904 144.992,287.031 146.453,287.752 148.063,288 148.063,288 192,288 "/>
        <polyline fill="none" stroke="#000000" stroke-width="1" points="  192,288 226.164,288 226.164,288 227.911,288.275 229.49,289.073 230.748,290.316 231.563,291.886 231.857,293.63 231.602,295.381 230.822,296.968 229.592,298.24 229.592,298.24 227.379,300.528 225.975,303.386 225.516,306.537 226.045,309.676 227.513,312.502 229.777,314.74 232.618,316.176 235.764,316.671 238.909,316.176 241.751,314.74 244.015,312.502 245.482,309.676 246.012,306.537 245.553,303.386 244.148,300.528 241.935,298.24 241.935,298.24 240.706,296.968 239.925,295.381 239.67,293.63 239.965,291.886 240.78,290.316 242.038,289.073 243.616,288.275 245.364,288 245.364,288 288,288 "/>
        <polyline fill="none" stroke="#000000" stroke-width="1" points="  288,288 319.348,288 319.348,288 320.746,288.207 322.024,288.81 323.072,289.757 323.801,290.968 324.148,292.338 324.084,293.749 323.613,295.082 322.776,296.22 322.776,296.22 321.193,298.421 320.365,301.004 320.374,303.716 321.218,306.292 322.816,308.483 325.012,310.074 327.592,310.91 330.304,310.91 332.883,310.074 335.079,308.483 336.678,306.292 337.522,303.716 337.531,301.004 336.703,298.421 335.119,296.22 335.119,296.22 334.283,295.082 333.812,293.749 333.747,292.338 334.095,290.968 334.824,289.757 335.872,288.81 337.15,288.207 338.548,288 338.548,288 384,288 "/>
        <polyline fill="none" stroke="#000000" stroke-width="1" points="  384,288 415.001,288 415.001,288 416.436,288.214 417.746,288.838 418.817,289.817 419.555,291.065 419.897,292.475 419.812,293.924 419.309,295.284 418.43,296.438 418.43,296.438 416.848,298.516 415.941,300.965 415.788,303.572 416.404,306.11 417.733,308.358 419.66,310.12 422.018,311.242 424.601,311.628 427.184,311.242 429.542,310.12 431.469,308.358 432.799,306.11 433.414,303.572 433.262,300.965 432.355,298.516 430.773,296.438 430.773,296.438 429.894,295.284 429.39,293.924 429.305,292.475 429.647,291.065 430.385,289.817 431.456,288.838 432.766,288.214 434.201,288 434.201,288 480,288 "/>
        <polyline fill="none" stroke="#000000" stroke-width="1" points="  480,288 527.861,288 527.861,288 529.498,288.253 530.982,288.989 532.174,290.139 532.963,291.596 533.274,293.223 533.079,294.867 532.397,296.377 531.29,297.609 531.29,297.609 529.298,299.827 528.069,302.543 527.719,305.504 528.28,308.432 529.699,311.054 531.844,313.124 534.515,314.449 537.461,314.905 540.408,314.449 543.078,313.124 545.224,311.054 546.643,308.432 547.204,305.504 546.854,302.543 545.625,299.827 543.633,297.609 543.633,297.609 542.526,296.377 541.843,294.867 541.649,293.223 541.96,291.596 542.749,290.139 543.941,288.989 545.425,288.253 547.061,288 547.061,288 576,288 "/>
        <polyline fill="none" stroke="#000000" stroke-width="1" points="  576,288 622.43,288 622.43,288 624.163,287.728 625.728,286.939 626.977,285.708 627.789,284.154 628.085,282.426 627.838,280.69 627.072,279.113 625.859,277.847 625.859,277.847 623.676,275.568 622.296,272.73 621.852,269.605 622.386,266.495 623.847,263.697 626.095,261.482 628.913,260.061 632.03,259.572 635.148,260.061 637.966,261.482 640.214,263.697 641.675,266.495 642.209,269.605 641.765,272.73 640.385,275.568 638.202,277.847 638.202,277.847 636.989,279.113 636.223,280.69 635.976,282.426 636.272,284.154 637.084,285.708 638.333,286.939 639.898,287.728 641.63,288 641.63,288 672,288 "/>
        <polyline fill="none" stroke="#000000" stroke-width="1" points="  672,288 711.407,288 711.407,288 713.143,288.272 714.711,289.064 715.962,290.297 716.774,291.855 717.071,293.586 716.822,295.325 716.052,296.904 714.836,298.172 714.836,298.172 712.646,300.453 711.261,303.296 710.813,306.426 711.347,309.543 712.809,312.346 715.06,314.567 717.883,315.991 721.007,316.481 724.131,315.991 726.954,314.567 729.206,312.346 730.668,309.543 731.201,306.426 730.754,303.296 729.368,300.453 727.179,298.172 727.179,298.172 725.962,296.904 725.193,295.325 724.944,293.586 725.24,291.855 726.053,290.297 727.303,289.064 728.872,288.272 730.607,288 730.607,288 768,288 "/>
        <polyline fill="none" stroke="#000000" stroke-width="1" points="  768,288 810.528,288 810.528,288 812.084,287.762 813.499,287.071 814.643,285.989 815.412,284.615 815.736,283.074 815.585,281.507 814.973,280.056 813.956,278.854 813.956,278.854 812.126,276.689 811.025,274.078 810.754,271.257 811.337,268.483 812.721,266.01 814.78,264.062 817.326,262.818 820.128,262.39 822.93,262.818 825.476,264.062 827.535,266.01 828.919,268.483 829.502,271.257 829.23,274.078 828.129,276.689 826.299,278.854 826.299,278.854 825.282,280.056 824.671,281.507 824.52,283.074 824.844,284.615 825.613,285.989 826.757,287.071 828.171,287.762 829.728,288 829.728,288 864,288 "/>
        <polyline fill="none" stroke="#000000" stroke-width="1" points="  864,288 900.49,288 900.49,288 902.16,287.74 903.673,286.985 904.885,285.806 905.682,284.315 905.988,282.653 905.775,280.975 905.063,279.442 903.918,278.198 903.918,278.198 901.858,275.958 900.576,273.198 900.192,270.179 900.743,267.186 902.178,264.502 904.359,262.38 907.082,261.021 910.09,260.553 913.097,261.021 915.82,262.38 918.002,264.502 919.436,267.186 919.987,270.179 919.604,273.198 918.321,275.958 916.261,278.198 916.261,278.198 915.117,279.442 914.404,280.975 914.191,282.653 914.497,284.315 915.294,285.806 916.506,286.985 918.019,287.74 919.69,288 919.69,288 960,288 "/>
        <polyline fill="none" stroke="#000000" stroke-width="1" points="  0,384 38.1811,384 38.1811,384 39.8517,384.26 41.3645,385.015 42.5765,386.193 43.3733,387.685 43.6796,389.347 43.4665,391.024 42.7541,392.558 41.6097,393.802 41.6097,393.802 39.5498,396.042 38.2674,398.802 37.8838,401.821 38.4352,404.814 39.8695,407.498 42.0511,409.619 44.7741,410.978 47.7811,411.446 50.7882,410.978 53.5111,409.619 55.6928,407.498 57.1271,404.814 57.6785,401.821 57.2948,398.802 56.0125,396.042 53.9526,393.802 53.9526,393.802 52.8082,392.558 52.0957,391.024 51.8826,389.347 52.1889,387.685 52.9858,386.193 54.1978,385.015 55.7106,384.26 57.3811,384 57.3811,384 96,384 "/>
        <polyline fill="none" stroke="#000000" stroke-width="1" points="  96,384 127.667,384 127.667,384 129.38,383.732 130.929,382.954 132.166,381.74 132.972,380.205 133.272,378.498 133.036,376.781 132.287,375.218 131.096,373.959 131.096,373.959 128.952,371.692 127.603,368.879 127.178,365.788 127.718,362.715 129.17,359.953 131.397,357.768 134.185,356.367 137.267,355.884 140.35,356.367 143.138,357.768 145.364,359.953 146.817,362.715 147.356,365.788 146.931,368.879 145.582,371.692 143.439,373.959 143.439,373.959 142.248,375.218 141.498,376.781 141.262,378.498 141.562,380.205 142.369,381.74 143.606,382.954 145.155,383.732 146.867,384 146.867,384 192,384 "/>
        <polyline fill="none" stroke="#000000" stroke-width="1" points="  192,384 231.836,384 231.836,384 233.573,384.273 235.144,385.065 236.396,386.301 237.209,387.861 237.505,389.595 237.255,391.336 236.483,392.917 235.264,394.185 235.264,394.185 233.07,396.468 231.681,399.313 231.231,402.447 231.764,405.568 233.227,408.376 235.481,410.6 238.308,412.027 241.436,412.518 244.564,412.027 247.391,410.6 249.644,408.376 251.108,405.568 251.64,402.447 251.19,399.313 249.801,396.468 247.607,394.185 247.607,394.185 246.388,392.917 245.617,391.336 245.367,389.595 245.662,387.861 246.476,386.301 247.728,385.065 249.298,384.273 251.036,384 251.036,384 288,384 "/>
        <polyline fill="none" stroke="#000000" stroke-width="1" points="  288,384 326.659,384 326.659,384 328.077,384.211 329.372,384.825 330.433,385.789 331.167,387.02 331.511,388.411 331.436,389.843 330.947,391.19 330.088,392.337 330.088,392.337 328.541,394.402 327.662,396.828 327.526,399.404 328.146,401.909 329.467,404.124 331.376,405.86 333.707,406.965 336.259,407.345 338.811,406.965 341.142,405.86 343.051,404.124 344.373,401.909 344.992,399.404 344.857,396.828 343.977,394.402 342.431,392.337 342.431,392.337 341.571,391.19 341.083,389.843 341.008,388.411 341.352,387.02 342.086,385.789 343.146,384.825 344.442,384.211 345.859,384 345.859,384 384,384 "/>
        <polyline fill="none" stroke="#000000" stroke-width="1" points="  384,384 416.201,384 416.201,384 417.669,384.221 419.008,384.863 420.099,385.87 420.846,387.153 421.183,388.599 421.08,390.081 420.546,391.466 419.629,392.634 419.629,392.634 417.978,394.736 417.018,397.23 416.833,399.897 417.44,402.5 418.784,404.81 420.748,406.623 423.158,407.779 425.801,408.176 428.444,407.779 430.853,406.623 432.817,404.81 434.162,402.5 434.768,399.897 434.583,397.23 433.623,394.736 431.972,392.634 431.972,392.634 431.055,391.466 430.521,390.081 430.419,388.599 430.756,387.153 431.502,385.87 432.593,384.863 433.932,384.221 435.401,384 435.401,384 480,384 "/>
        <polyline fill="none" stroke="#000000" stroke-width="1" points="  480,384 526.466,384 526.466,384 528.136,383.74 529.648,382.986 530.859,381.808 531.656,380.318 531.962,378.656 531.75,376.98 531.038,375.448 529.895,374.204 529.895,374.204 527.837,371.964 526.556,369.206 526.174,366.189 526.725,363.198 528.159,360.516 530.34,358.395 533.061,357.038 536.066,356.57 539.072,357.038 541.793,358.395 543.974,360.516 545.407,363.198 545.959,366.189 545.577,369.206 544.296,371.964 542.238,374.204 542.238,374.204 541.095,375.448 540.383,376.98 540.17,378.656 540.477,380.318 541.273,381.808 542.485,382.986 543.997,383.74 545.666,384 545.666,384 576,384 "/>
        <polyline fill="none" stroke="#000000" stroke-width="1" points="  576,384 612.819,384 612.819,384 614.545,384.271 616.106,385.057 617.351,386.283 618.161,387.831 618.459,389.553 618.215,391.283 617.454,392.856 616.247,394.12 616.247,394.12 614.076,396.395 612.705,399.226 612.267,402.341 612.803,405.44 614.261,408.227 616.502,410.433 619.312,411.848 622.419,412.335 625.526,411.848 628.335,410.433 630.577,408.227 632.035,405.44 632.571,402.341 632.132,399.226 630.762,396.395 628.59,394.12 628.59,394.12 627.384,392.856 626.623,391.283 626.379,389.553 626.676,387.831 627.487,386.283 628.732,385.057 630.293,384.271 632.019,384 632.019,384 672,384 "/>
        <polyline fill="none" stroke="#000000" stroke-width="1" points="  672,384 702.02,384 702.02,384 703.685,383.741 705.192,382.99 706.4,381.817 707.195,380.332 707.502,378.677 707.293,377.006 706.586,375.477 705.449,374.235 705.449,374.235 703.402,371.999 702.13,369.248 701.753,366.24 702.306,363.26 703.737,360.588 705.912,358.476 708.625,357.124 711.62,356.658 714.616,357.124 717.329,358.476 719.503,360.588 720.935,363.26 721.488,366.24 721.111,369.248 719.839,371.999 717.792,374.235 717.792,374.235 716.655,375.477 715.948,377.006 715.738,378.677 716.046,380.332 716.841,381.817 718.049,382.99 719.556,383.741 721.22,384 721.22,384 768,384 "/>
        <polyline fill="none" stroke="#000000" stroke-width="1" points="  768,384 799.084,384 799.084,384 800.608,383.769 801.995,383.095 803.12,382.041 803.88,380.7 804.209,379.194 804.076,377.658 803.493,376.231 802.513,375.041 802.513,375.041 800.748,372.9 799.699,370.331 799.459,367.566 800.051,364.855 801.42,362.442 803.444,360.544 805.941,359.332 808.684,358.915 811.428,359.332 813.924,360.544 815.948,362.442 817.317,364.855 817.909,367.566 817.669,370.331 816.62,372.9 814.856,375.041 814.856,375.041 813.875,376.231 813.292,377.658 813.159,379.194 813.488,380.7 814.249,382.041 815.373,383.095 816.76,383.769 818.284,384 818.284,384 864,384 "/>
        <polyline fill="none" stroke="#000000" stroke-width="1" points="  864,384 896.64,384 896.64,384 898.319,383.738 899.84,382.979 901.057,381.792 901.856,380.292 902.161,378.62 901.943,376.934 901.223,375.394 900.068,374.147 900.068,374.147 897.99,371.901 896.694,369.129 896.301,366.095 896.85,363.085 898.288,360.385 900.48,358.249 903.217,356.881 906.24,356.411 909.263,356.881 912,358.249 914.191,360.385 915.629,363.085 916.178,366.095 915.786,369.129 914.489,371.901 912.411,374.147 912.411,374.147 911.257,375.394 910.537,376.934 910.319,378.62 910.623,380.292 911.422,381.792 912.64,382.979 914.16,383.738 915.84,384 915.84,384 960,384 "/>
        <polyline fill="none" stroke="#000000" stroke-width="1" points="  0,480 34.0459,480 34.0459,480 35.4951,480.217 36.8173,480.848 37.8967,481.839 38.6387,483.103 38.9785,484.528 38.8861,485.99 38.3697,487.362 37.4745,488.522 37.4745,488.522 35.8632,490.61 34.9337,493.078 34.7674,495.71 35.3789,498.276 36.7146,500.55 38.6576,502.334 41.0375,503.471 43.6459,503.861 46.2544,503.471 48.6343,502.334 50.5773,500.55 51.913,498.276 52.5245,495.71 52.3582,493.078 51.4287,490.61 49.8174,488.522 49.8174,488.522 48.9222,487.362 48.4058,485.99 48.3134,484.528 48.6532,483.103 49.3952,481.839 50.4746,480.848 51.7968,480.217 53.2459,480 53.2459,480 96,480 "/>
        <polyline fill="none" stroke="#000000" stroke-width="1" points="  96,480 128.264,480 128.264,480 129.772,480.228 131.144,480.892 132.259,481.933 133.016,483.257 133.347,484.745 133.223,486.265 132.654,487.68 131.692,488.864 131.692,488.864 129.961,490.994 128.938,493.541 128.715,496.277 129.311,498.956 130.673,501.339 132.679,503.212 135.15,504.408 137.864,504.818 140.578,504.408 143.049,503.212 145.055,501.339 146.417,498.956 147.013,496.277 146.79,493.541 145.766,490.994 144.035,488.864 144.035,488.864 143.074,487.68 142.505,486.265 142.381,484.745 142.712,483.257 143.469,481.933 144.583,480.892 145.956,480.228 147.464,480 147.464,480 192,480 "/>
        <polyline fill="none" stroke="#000000" stroke-width="1" points="  192,480 233.346,480 233.346,480 234.931,480.243 236.37,480.95 237.531,482.057 238.307,483.46 238.627,485.032 238.46,486.627 237.823,488.098 236.775,489.311 236.775,489.311 234.887,491.495 233.74,494.144 233.441,497.015 234.016,499.844 235.412,502.37 237.502,504.361 240.093,505.634 242.946,506.072 245.799,505.634 248.39,504.361 250.48,502.37 251.876,499.844 252.451,497.015 252.152,494.144 251.005,491.495 249.117,489.311 249.117,489.311 248.069,488.098 247.432,486.627 247.265,485.032 247.585,483.46 248.361,482.057 249.522,480.95 250.961,480.243 252.546,480 252.546,480 288,480 "/>
        <polyline fill="none" stroke="#000000" stroke-width="1" points="  288,480 334.711,480 334.711,480 336.469,479.723 338.057,478.919 339.321,477.667 340.139,476.086 340.431,474.331 340.17,472.57 339.381,470.975 338.139,469.7 338.139,469.7 335.905,467.405 334.484,464.533 334.014,461.365 334.541,458.205 336.013,455.36 338.288,453.105 341.146,451.658 344.311,451.16 347.475,451.658 350.333,453.105 352.609,455.36 354.081,458.205 354.607,461.365 354.138,464.533 352.717,467.405 350.482,469.7 350.482,469.7 349.241,470.975 348.451,472.57 348.19,474.331 348.483,476.086 349.301,477.667 350.565,478.919 352.153,479.723 353.911,480 353.911,480 384,480 "/>
        <polyline fill="none" stroke="#000000" stroke-width="1" points="  384,480 424.297,480 424.297,480 425.841,479.765 427.244,479.081 428.38,478.01 429.145,476.65 429.471,475.124 429.328,473.569 428.728,472.128 427.726,470.931 427.726,470.931 425.923,468.776 424.843,466.182 424.585,463.384 425.172,460.636 426.55,458.188 428.594,456.261 431.12,455.03 433.897,454.607 436.675,455.03 439.201,456.261 441.245,458.188 442.623,460.636 443.21,463.384 442.952,466.182 441.872,468.776 440.069,470.931 440.069,470.931 439.067,472.128 438.467,473.569 438.324,475.124 438.65,476.65 439.415,478.01 440.551,479.081 441.954,479.765 443.497,480 443.497,480 480,480 "/>
        <polyline fill="none" stroke="#000000" stroke-width="1" points="  480,480 524.504,480 524.504,480 526.254,480.275 527.834,481.074 529.093,482.319 529.909,483.891 530.203,485.637 529.946,487.389 529.165,488.978 527.933,490.25 527.933,490.25 525.716,492.54 524.309,495.4 523.848,498.554 524.377,501.697 525.845,504.526 528.111,506.768 530.956,508.206 534.104,508.701 537.253,508.206 540.098,506.768 542.364,504.526 543.832,501.697 544.361,498.554 543.9,495.4 542.493,492.54 540.276,490.25 540.276,490.25 539.044,488.978 538.262,487.389 538.006,485.637 538.3,483.891 539.116,482.319 540.375,481.074 541.955,480.275 543.704,480 543.704,480 576,480 "/>
        <polyline fill="none" stroke="#000000" stroke-width="1" points="  576,480 622.262,480 622.262,480 623.714,480.217 625.039,480.851 626.12,481.844 626.863,483.11 627.202,484.539 627.108,486.004 626.589,487.377 625.691,488.539 625.691,488.539 624.074,490.629 623.139,493.101 622.97,495.738 623.581,498.31 624.918,500.589 626.864,502.377 629.249,503.517 631.862,503.908 634.476,503.517 636.86,502.377 638.806,500.589 640.143,498.31 640.754,495.738 640.585,493.101 639.651,490.629 638.034,488.539 638.034,488.539 637.135,487.377 636.616,486.004 636.522,484.539 636.862,483.11 637.604,481.844 638.686,480.851 640.01,480.217 641.462,480 641.462,480 672,480 "/>
        <polyline fill="none" stroke="#000000" stroke-width="1" points="  672,480 705.566,480 705.566,480 706.955,479.795 708.226,479.196 709.27,478.256 709.997,477.054 710.345,475.693 710.285,474.289 709.822,472.963 708.994,471.828 708.994,471.828 707.428,469.633 706.614,467.064 706.63,464.368 707.476,461.808 709.068,459.633 711.253,458.054 713.818,457.224 716.514,457.224 719.079,458.054 721.263,459.633 722.856,461.808 723.701,464.368 723.718,467.064 722.903,469.633 721.337,471.828 721.337,471.828 720.51,472.963 720.046,474.289 719.986,475.693 720.335,477.054 721.062,478.256 722.105,479.196 723.376,479.795 724.766,480 724.766,480 768,480 "/>
        <polyline fill="none" stroke="#000000" stroke-width="1" points="  768,480 807.711,480 807.711,480 809.245,479.767 810.64,479.088 811.77,478.025 812.533,476.675 812.86,475.158 812.722,473.613 812.13,472.179 811.139,470.985 811.139,470.985 809.355,468.837 808.29,466.255 808.041,463.473 808.63,460.744 810.004,458.312 812.039,456.399 814.55,455.178 817.311,454.758 820.072,455.178 822.583,456.399 824.617,458.312 825.991,460.744 826.58,463.473 826.331,466.255 825.266,468.837 823.482,470.985 823.482,470.985 822.491,472.179 821.899,473.613 821.761,475.158 822.088,476.675 822.851,478.025 823.982,479.088 825.377,479.767 826.911,480 826.911,480 864,480 "/>
        <polyline fill="none" stroke="#000000" stroke-width="1" points="  864,480 903.069,480 903.069,480 904.47,479.792 905.751,479.187 906.802,478.237 907.532,477.022 907.879,475.649 907.812,474.233 907.338,472.898 906.497,471.758 906.497,471.758 904.905,469.554 904.071,466.966 904.077,464.247 904.921,461.662 906.522,459.464 908.723,457.868 911.309,457.029 914.028,457.029 916.614,457.868 918.815,459.464 920.416,461.662 921.261,464.247 921.266,466.966 920.432,469.554 918.84,471.758 918.84,471.758 917.999,472.898 917.525,474.233 917.459,475.649 917.805,477.022 918.535,478.237 919.586,479.187 920.867,479.792 922.269,480 922.269,480 960,480 "/>
        <polyline fill="none" stroke="#000000" stroke-width="1" points="  0,576 42.1886,576 42.1886,576 43.7249,575.766 45.1223,575.086 46.2541,574.021 47.0179,572.668 47.3448,571.149 47.205,569.601 46.6112,568.165 45.6172,566.97 45.6172,566.97 43.8279,564.82 42.7591,562.235 42.5075,559.449 43.0958,556.715 44.4708,554.279 46.5081,552.362 49.0232,551.138 51.7886,550.717 54.554,551.138 57.0692,552.362 59.1064,554.279 60.4814,556.715 61.0697,559.449 60.8181,562.235 59.7493,564.82 57.96,566.97 57.96,566.97 56.966,568.165 56.3722,569.601 56.2324,571.149 56.5593,572.668 57.3232,574.021 58.455,575.086 59.8523,575.766 61.3886,576 61.3886,576 96,576 "/>
        <polyline fill="none" stroke="#000000" stroke-width="1" points="  96,576 142.452,576 142.452,576 144.12,576.259 145.63,577.012 146.84,578.188 147.636,579.676 147.943,581.335 147.731,583.009 147.022,584.54 145.881,585.784 145.881,585.784 143.827,588.022 142.55,590.777 142.17,593.791 142.722,596.777 144.155,599.456 146.333,601.572 149.051,602.928 152.052,603.394 155.053,602.928 157.771,601.572 159.95,599.456 161.383,596.777 161.935,593.791 161.554,590.777 160.277,588.022 158.224,585.784 158.224,585.784 157.083,584.54 156.373,583.009 156.162,581.335 156.469,579.676 157.265,578.188 158.475,577.012 159.985,576.259 161.652,576 161.652,576 192,576 "/>
        <polyline fill="none" stroke="#000000" stroke-width="1" points="  192,576 224.852,576 224.852,576 226.352,576.227 227.717,576.886 228.827,577.92 229.582,579.235 229.914,580.715 229.794,582.226 229.233,583.635 228.281,584.815 228.281,584.815 226.567,586.939 225.557,589.475 225.342,592.196 225.94,594.86 227.298,597.227 229.296,599.088 231.753,600.275 234.452,600.683 237.151,600.275 239.609,599.088 241.607,597.227 242.965,594.86 243.563,592.196 243.348,589.475 242.338,586.939 240.624,584.815 240.624,584.815 239.672,583.635 239.11,582.226 238.991,580.715 239.323,579.235 240.078,577.92 241.187,576.886 242.553,576.227 244.052,576 244.052,576 288,576 "/>
        <polyline fill="none" stroke="#000000" stroke-width="1" points="  288,576 317.551,576 317.551,576 319.167,575.751 320.633,575.026 321.813,573.894 322.596,572.459 322.911,570.854 322.728,569.229 322.063,567.735 320.98,566.51 320.98,566.51 319.029,564.306 317.834,561.616 317.504,558.692 318.07,555.803 319.481,553.22 321.604,551.182 324.242,549.877 327.151,549.429 330.06,549.877 332.699,551.182 334.822,553.22 336.232,555.803 336.799,558.692 336.469,561.616 335.273,564.306 333.323,566.51 333.323,566.51 332.239,567.735 331.575,569.229 331.391,570.854 331.706,572.459 332.49,573.894 333.669,575.026 335.135,575.751 336.751,576 336.751,576 384,576 "/>
        <polyline fill="none" stroke="#000000" stroke-width="1" points="  384,576 415.499,576 415.499,576 417.218,576.269 418.773,577.051 420.014,578.271 420.823,579.813 421.121,581.527 420.882,583.251 420.126,584.819 418.928,586.081 418.928,586.081 416.77,588.352 415.41,591.174 414.978,594.277 415.516,597.363 416.972,600.137 419.206,602.333 422.004,603.741 425.099,604.225 428.194,603.741 430.992,602.333 433.226,600.137 434.682,597.363 435.219,594.277 434.788,591.174 433.428,588.352 431.27,586.081 431.27,586.081 430.072,584.819 429.316,583.251 429.076,581.527 429.375,579.813 430.184,578.271 431.425,577.051 432.98,576.269 434.699,576 434.699,576 480,576 "/>
        <polyline fill="none" stroke="#000000" stroke-width="1" points="  480,576 511.129,576 511.129,576 512.826,576.265 514.361,577.035 515.589,578.235 516.392,579.754 516.694,581.444 516.467,583.146 515.731,584.698 514.558,585.952 514.558,585.952 512.445,588.209 511.121,591.003 510.711,594.067 511.255,597.11 512.701,599.842 514.911,602.004 517.675,603.389 520.729,603.866 523.783,603.389 526.547,602.004 528.757,599.842 530.203,597.11 530.747,594.067 530.337,591.003 529.013,588.209 526.9,585.952 526.9,585.952 525.727,584.698 524.991,583.146 524.764,581.444 525.066,579.754 525.869,578.235 527.097,577.035 528.632,576.265 530.329,576 530.329,576 576,576 "/>
        <polyline fill="none" stroke="#000000" stroke-width="1" points="  576,576 606.167,576 606.167,576 607.841,575.74 609.356,574.983 610.57,573.802 611.367,572.307 611.673,570.642 611.458,568.961 610.743,567.426 609.595,566.18 609.595,566.18 607.529,563.938 606.242,561.175 605.856,558.151 606.406,555.152 607.842,552.462 610.027,550.336 612.754,548.974 615.767,548.505 618.779,548.974 621.507,550.336 623.692,552.462 625.128,555.152 625.678,558.151 625.292,561.175 624.004,563.938 621.938,566.18 621.938,566.18 620.791,567.426 620.075,568.961 619.861,570.642 620.166,572.307 620.964,573.802 622.178,574.983 623.693,575.74 625.367,576 625.367,576 672,576 "/>
        <polyline fill="none" stroke="#000000" stroke-width="1" points="  672,576 703.457,576 703.457,576 704.901,575.784 706.219,575.155 707.296,574.169 708.037,572.91 708.377,571.49 708.287,570.033 707.775,568.665 706.886,567.507 706.886,567.507 705.284,565.423 704.363,562.961 704.201,560.337 704.814,557.781 706.148,555.516 708.085,553.74 710.457,552.608 713.057,552.22 715.657,552.608 718.029,553.74 719.967,555.516 721.3,557.781 721.913,560.337 721.751,562.961 720.83,565.423 719.229,567.507 719.229,567.507 718.339,568.665 717.827,570.033 717.737,571.49 718.078,572.91 718.818,574.169 719.895,575.155 721.213,575.784 722.657,576 722.657,576 768,576 "/>
        <polyline fill="none" stroke="#000000" stroke-width="1" points="  768,576 812.319,576 812.319,576 813.851,576.233 815.244,576.911 816.373,577.972 817.136,579.32 817.464,580.835 817.326,582.378 816.737,583.811 815.748,585.004 815.748,585.004 813.967,587.151 812.906,589.73 812.658,592.508 813.248,595.234 814.621,597.662 816.653,599.572 819.162,600.792 821.919,601.211 824.676,600.792 827.185,599.572 829.217,597.662 830.59,595.234 831.18,592.508 830.932,589.73 829.871,587.151 828.09,585.004 828.09,585.004 827.101,583.811 826.512,582.378 826.374,580.835 826.702,579.32 827.464,577.972 828.594,576.911 829.987,576.233 831.519,576 831.519,576 864,576 "/>
        <polyline fill="none" stroke="#000000" stroke-width="1" points="  864,576 908.734,576 908.734,576 910.333,575.754 911.785,575.039 912.955,573.92 913.734,572.502 914.051,570.915 913.877,569.306 913.227,567.824 912.162,566.605 912.162,566.605 910.245,564.412 909.076,561.744 908.762,558.848 909.333,555.991 910.736,553.438 912.841,551.425 915.455,550.137 918.334,549.694 921.213,550.137 923.826,551.425 925.931,553.438 927.335,555.991 927.906,558.848 927.592,561.744 926.422,564.412 924.505,566.605 924.505,566.605 923.44,567.824 922.79,569.306 922.616,570.915 922.933,572.502 923.713,573.92 924.882,575.039 926.334,575.754 927.934,576 927.934,576 960,576 "/>
        <polyline fill="none" stroke="#000000" stroke-width="1" points="  96,0 96,37.9671 96,37.9671 96.2163,39.4135 96.8463,40.7333 97.8348,41.811 99.0954,42.5523 100.518,42.8925 101.977,42.8016 103.346,42.2877 104.505,41.3957 104.505,41.3957 106.591,39.7901 109.056,38.8651 111.683,38.7015 114.243,39.3138 116.512,40.6482 118.292,42.5881 119.426,44.9637 119.815,47.5671 119.426,50.1706 118.292,52.5462 116.512,54.4861 114.243,55.8205 111.683,56.4327 109.056,56.2692 106.591,55.3441 104.505,53.7386 104.505,53.7386 103.346,52.8466 101.977,52.3327 100.518,52.2418 99.0954,52.5819 97.8348,53.3233 96.8463,54.401 96.2163,55.7208 96,57.1671 96,57.1671 96,96 "/>
        <polyline fill="none" stroke="#000000" stroke-width="1" points="  192,0 192,47.5455 192,47.5455 191.765,49.0895 191.08,50.4934 190.009,51.6299 188.648,52.3956 187.12,52.7213 185.565,52.5773 184.123,51.9767 182.926,50.974 182.926,50.974 180.77,49.1692 178.175,48.0881 175.376,47.8289 172.626,48.4152 170.176,49.7936 168.247,51.8392 167.016,54.3662 166.592,57.1455 167.016,59.9247 168.247,62.4518 170.176,64.4974 172.626,65.8758 175.376,66.462 178.175,66.2028 180.77,65.1218 182.926,63.3169 182.926,63.3169 184.123,62.3142 185.565,61.7136 187.12,61.5696 188.648,61.8953 190.009,62.6611 191.08,63.7975 191.765,65.2014 192,66.7455 192,66.7455 192,96 "/>
        <polyline fill="none" stroke="#000000" stroke-width="1" points="  288,0 288,39.1384 288,39.1384 287.749,40.7641 287.019,42.2384 285.878,43.4237 284.433,44.2096 282.818,44.5228 281.184,44.3342 279.683,43.6614 278.455,42.5669 278.455,42.5669 276.244,40.597 273.542,39.3858 270.6,39.0463 267.693,39.6102 265.092,41.0248 263.039,43.1584 261.725,45.812 261.273,48.7384 261.725,51.6647 263.039,54.3184 265.092,56.4519 267.693,57.8665 270.6,58.4304 273.542,58.0909 276.244,56.8797 278.455,54.9098 278.455,54.9098 279.683,53.8154 281.184,53.1425 282.818,52.9539 284.433,53.2671 285.878,54.053 287.019,55.2384 287.749,56.7126 288,58.3384 288,58.3384 288,96 "/>
        <polyline fill="none" stroke="#000000" stroke-width="1" points="  384,0 384,33.639 384,33.639 383.748,35.2696 383.015,36.7481 381.87,37.9364 380.42,38.7235 378.8,39.036 377.161,38.8447 375.656,38.1675 374.426,37.0675 374.426,37.0675 372.212,35.0877 369.504,33.8687 366.554,33.5244 363.638,34.0869 361.027,35.5037 358.966,37.6425 357.648,40.3037 357.194,43.239 357.648,46.1742 358.966,48.8354 361.027,50.9743 363.638,52.3911 366.554,52.9535 369.504,52.6092 372.212,51.3903 374.426,49.4104 374.426,49.4104 375.656,48.3105 377.161,47.6333 378.8,47.442 380.42,47.7545 381.87,48.5416 383.015,49.7298 383.748,51.2083 384,52.839 384,52.839 384,96 "/>
        <polyline fill="none" stroke="#000000" stroke-width="1" points="  480,0 480,45.3321 480,45.3321 480.21,46.7435 480.82,48.0333 481.779,49.0899 483.004,49.8225 484.388,50.1676 485.813,50.0957 487.156,49.6128 488.301,48.7607 488.301,48.7607 490.361,47.2268 492.778,46.3576 495.343,46.2281 497.835,46.8494 500.039,48.1679 501.765,50.07 502.864,52.3914 503.242,54.9321 502.864,57.4727 501.765,59.7942 500.039,61.6962 497.835,63.0148 495.343,63.6361 492.778,63.5066 490.361,62.6374 488.301,61.1035 488.301,61.1035 487.156,60.2514 485.813,59.7685 484.388,59.6965 483.004,60.0417 481.779,60.7742 480.82,61.8309 480.21,63.1206 480,64.5321 480,64.5321 480,96 "/>
        <polyline fill="none" stroke="#000000" stroke-width="1" points="  576,0 576,29.2652 576,29.2652 575.782,30.7198 575.148,32.0467 574.152,33.1293 572.883,33.8728 571.452,34.2117 569.984,34.1164 568.609,33.5952 567.446,32.6938 567.446,32.6938 565.354,31.0714 562.879,30.1332 560.237,29.9616 557.661,30.5717 555.376,31.9098 553.585,33.8587 552.442,36.247 552.05,38.8652 552.442,41.4835 553.585,43.8718 555.376,45.8206 557.661,47.1588 560.237,47.7689 562.879,47.5973 565.354,46.6591 567.446,45.0367 567.446,45.0367 568.609,44.1353 569.984,43.6141 571.452,43.5188 572.883,43.8577 574.152,44.6011 575.148,45.6838 575.782,47.0107 576,48.4652 576,48.4652 576,96 "/>
        <polyline fill="none" stroke="#000000" stroke-width="1" points="  672,0 672,35.275 672,35.275 671.765,36.8174 671.082,38.22 670.012,39.3554 668.652,40.1208 667.126,40.4468 665.572,40.3036 664.132,39.7045 662.935,38.7035 662.935,38.7035 660.781,36.9019 658.188,35.8234 655.391,35.5657 652.644,36.1524 650.197,37.5301 648.271,39.574 647.041,42.0986 646.618,44.875 647.041,47.6514 648.271,50.176 650.197,52.2198 652.644,53.5976 655.391,54.1842 658.188,53.9266 660.781,52.848 662.935,51.0464 662.935,51.0464 664.132,50.0455 665.572,49.4463 667.126,49.3032 668.652,49.6291 670.012,50.3945 671.082,51.53 671.765,52.9325 672,54.475 672,54.475 672,96 "/>
        <polyline fill="none" stroke="#000000" stroke-width="1" points="  768,0 768,31.7149 768,31.7149 767.775,33.206 767.12,34.5644 766.094,35.669 764.787,36.4217 763.316,36.7552 761.813,36.64 760.41,36.0864 759.233,35.1435 759.233,35.1435 757.115,33.4463 754.59,32.4497 751.883,32.2423 749.236,32.8427 746.884,34.1974 745.036,36.1858 743.858,38.6309 743.453,41.3149 743.858,43.9989 745.036,46.444 746.884,48.4324 749.236,49.7871 751.883,50.3875 754.59,50.1801 757.115,49.1835 759.233,47.4863 759.233,47.4863 760.41,46.5434 761.813,45.9898 763.316,45.8746 764.787,46.2081 766.094,46.9608 767.12,48.0654 767.775,49.4238 768,50.9149 768,50.9149 768,96 "/>
        <polyline fill="none" stroke="#000000" stroke-width="1" points="  864,0 864,30.1281 864,30.1281 863.733,31.8351 862.958,33.3792 861.748,34.6129 860.22,35.4185 858.519,35.7191 856.807,35.4861 855.248,34.7416 853.99,33.5567 853.99,33.5567 851.727,31.4239 848.92,30.0838 845.839,29.6643 842.777,30.2055 840.025,31.6556 837.848,33.8763 836.453,36.6556 835.972,39.7281 836.453,42.8007 837.848,45.58 840.025,47.8007 842.777,49.2508 845.839,49.7919 848.92,49.3724 851.727,48.0323 853.99,45.8996 853.99,45.8996 855.248,44.7147 856.807,43.9702 858.519,43.7371 860.22,44.0378 861.748,44.8434 862.958,46.0771 863.733,47.6211 864,49.3281 864,49.3281 864,96 "/>
        <polyline fill="none" stroke="#000000" stroke-width="1" points="  96,96 96,128.252 96,128.252 95.7698,129.77 95.0998,131.152 94.0502,132.273 92.7155,133.032 91.2157,133.362 89.6856,133.232 88.2628,132.654 87.0753,131.68 87.0753,131.68 84.9378,129.928 82.3768,128.888 79.6227,128.654 76.923,129.247 74.5205,130.614 72.6314,132.632 71.4254,135.119 71.0109,137.852 71.4254,140.585 72.6314,143.072 74.5205,145.09 76.923,146.456 79.6227,147.05 82.3768,146.816 84.9378,145.776 87.0753,144.023 87.0753,144.023 88.2628,143.05 89.6856,142.472 91.2157,142.342 92.7155,142.672 94.0502,143.431 95.0998,144.552 95.7698,145.934 96,147.452 96,147.452 96,192 "/>
        <polyline fill="none" stroke="#000000" stroke-width="1" points="  192,96 192,132.684 192,132.684 192.237,134.24 192.928,135.654 194.009,136.797 195.382,137.566 196.922,137.889 198.489,137.739 199.939,137.128 201.141,136.113 201.141,136.113 203.304,134.285 205.915,133.185 208.734,132.915 211.506,133.498 213.977,134.881 215.923,136.939 217.167,139.484 217.594,142.284 217.167,145.084 215.923,147.629 213.977,149.687 211.506,151.071 208.734,151.654 205.915,151.383 203.304,150.284 201.141,148.456 201.141,148.456 199.939,147.44 198.489,146.829 196.922,146.679 195.382,147.003 194.009,147.771 192.928,148.915 192.237,150.329 192,151.884 192,151.884 192,192 "/>
        <polyline fill="none" stroke="#000000" stroke-width="1" points="  288,96 288,125.12 288,125.12 288.244,126.711 288.955,128.156 290.066,129.32 291.476,130.098 293.054,130.416 294.655,130.247 296.131,129.604 297.347,128.549 297.347,128.549 299.534,126.648 302.191,125.492 305.073,125.187 307.913,125.76 310.451,127.159 312.451,129.256 313.73,131.856 314.17,134.72 313.73,137.584 312.451,140.184 310.451,142.281 307.913,143.68 305.073,144.253 302.191,143.948 299.534,142.792 297.347,140.891 297.347,140.891 296.131,139.836 294.655,139.193 293.054,139.024 291.476,139.342 290.066,140.12 288.955,141.284 288.244,142.729 288,144.32 288,144.32 288,192 "/>
        <polyline fill="none" stroke="#000000" stroke-width="1" points="  384,96 384,138.588 384,138.588 383.763,140.14 383.074,141.551 381.996,142.693 380.626,143.461 379.089,143.785 377.526,143.637 376.078,143.029 374.877,142.016 374.877,142.016 372.716,140.195 370.11,139.1 367.296,138.833 364.53,139.417 362.064,140.799 360.123,142.853 358.882,145.393 358.456,148.188 358.882,150.982 360.123,153.522 362.064,155.577 364.53,156.959 367.296,157.543 370.11,157.276 372.716,156.181 374.877,154.359 374.877,154.359 376.078,153.347 377.526,152.739 379.089,152.591 380.626,152.915 381.996,153.683 383.074,154.824 383.763,156.235 384,157.788 384,157.788 384,192 "/>
        <polyline fill="none" stroke="#000000" stroke-width="1" points="  480,96 480,127.172 480,127.172 480.24,128.741 480.939,130.167 482.032,131.319 483.419,132.091 484.974,132.413 486.554,132.255 488.015,131.632 489.222,130.6 489.222,130.6 491.395,128.744 494.024,127.622 496.868,127.338 499.667,127.917 502.164,129.307 504.132,131.38 505.389,133.947 505.822,136.772 505.389,139.597 504.132,142.164 502.164,144.237 499.667,145.627 496.868,146.206 494.024,145.922 491.395,144.8 489.222,142.943 489.222,142.943 488.015,141.912 486.554,141.289 484.974,141.131 483.419,141.452 482.032,142.225 480.939,143.376 480.24,144.802 480,146.372 480,146.372 480,192 "/>
        <polyline fill="none" stroke="#000000" stroke-width="1" points="  576,96 576,137.006 576,137.006 576.253,138.643 576.99,140.128 578.141,141.321 579.599,142.11 581.227,142.421 582.873,142.226 584.382,141.542 585.615,140.434 585.615,140.434 587.834,138.44 590.551,137.209 593.514,136.858 596.444,137.418 599.068,138.838 601.14,140.985 602.466,143.657 602.922,146.606 602.466,149.554 601.14,152.226 599.068,154.373 596.444,155.793 593.514,156.353 590.551,156.002 587.834,154.771 585.615,152.777 585.615,152.777 584.382,151.669 582.873,150.985 581.227,150.79 579.599,151.102 578.141,151.89 576.99,153.083 576.253,154.568 576,156.206 576,156.206 576,192 "/>
        <polyline fill="none" stroke="#000000" stroke-width="1" points="  672,96 672,134.46 672,134.46 671.732,136.172 670.954,137.72 669.74,138.957 668.206,139.764 666.499,140.064 664.783,139.828 663.22,139.079 661.961,137.888 661.961,137.888 659.694,135.745 656.881,134.397 653.791,133.972 650.718,134.512 647.957,135.964 645.772,138.19 644.372,140.978 643.89,144.06 644.372,147.142 645.772,149.929 647.957,152.155 650.718,153.608 653.791,154.147 656.881,153.723 659.694,152.374 661.961,150.231 661.961,150.231 663.22,149.04 664.783,148.291 666.499,148.055 668.206,148.355 669.74,149.162 670.954,150.399 671.732,151.947 672,153.66 672,153.66 672,192 "/>
        <polyline fill="none" stroke="#000000" stroke-width="1" points="  768,96 768,125.643 768,125.643 768.275,127.391 769.073,128.97 770.317,130.228 771.887,131.043 773.631,131.338 775.382,131.082 776.97,130.302 778.241,129.072 778.241,129.072 780.531,126.858 783.389,125.453 786.54,124.994 789.68,125.523 792.506,126.991 794.745,129.255 796.182,132.097 796.676,135.243 796.182,138.389 794.745,141.231 792.506,143.496 789.68,144.963 786.54,145.493 783.389,145.033 780.531,143.629 778.241,141.415 778.241,141.415 776.97,140.185 775.382,139.404 773.631,139.149 771.887,139.443 770.317,140.259 769.073,141.517 768.275,143.096 768,144.843 768,144.843 768,192 "/>
        <polyline fill="none" stroke="#000000" stroke-width="1" points="  864,96 864,128.644 864,128.644 864.207,130.041 864.809,131.317 865.755,132.365 866.964,133.094 868.332,133.441 869.742,133.377 871.073,132.908 872.211,132.073 872.211,132.073 874.411,130.492 876.991,129.667 879.7,129.677 882.274,130.522 884.462,132.119 886.051,134.313 886.886,136.89 886.886,139.599 886.051,142.176 884.462,144.37 882.274,145.967 879.7,146.812 876.991,146.822 874.411,145.997 872.211,144.416 872.211,144.416 871.073,143.581 869.742,143.112 868.332,143.048 866.964,143.395 865.755,144.124 864.809,145.171 864.207,146.448 864,147.844 864,147.844 864,192 "/>
        <polyline fill="none" stroke="#000000" stroke-width="1" points="  96,192 96,237.682 96,237.682 96.2339,239.219 96.9145,240.617 97.9802,241.75 99.3344,242.514 100.855,242.84 102.403,242.7 103.84,242.106 105.035,241.111 105.035,241.111 107.186,239.319 109.772,238.249 112.559,237.997 115.296,238.585 117.733,239.96 119.651,241.998 120.877,244.515 121.298,247.282 120.877,250.049 119.651,252.566 117.733,254.604 115.296,255.979 112.559,256.567 109.772,256.315 107.186,255.244 105.035,253.453 105.035,253.453 103.84,252.458 102.403,251.864 100.855,251.723 99.3344,252.05 97.9802,252.814 96.9145,253.947 96.2339,255.345 96,256.882 96,256.882 96,288 "/>
        <polyline fill="none" stroke="#000000" stroke-width="1" points="  192,192 192,239.472 192,239.472 191.781,240.933 191.143,242.265 190.142,243.351 188.866,244.096 187.428,244.434 185.954,244.336 184.574,243.809 183.409,242.9 183.409,242.9 181.312,241.265 178.828,240.316 176.175,240.138 173.586,240.747 171.29,242.088 169.489,244.044 168.34,246.442 167.945,249.072 168.34,251.701 169.489,254.1 171.29,256.055 173.586,257.396 176.175,258.005 178.828,257.827 181.312,256.879 183.409,255.243 183.409,255.243 184.574,254.334 185.954,253.807 187.428,253.709 188.866,254.047 190.142,254.792 191.143,255.878 191.781,257.211 192,258.672 192,258.672 192,288 "/>
        <polyline fill="none" stroke="#000000" stroke-width="1" points="  288,192 288,229.539 288,229.539 287.787,230.971 287.165,232.278 286.189,233.347 284.944,234.084 283.538,234.426 282.093,234.344 280.735,233.843 279.582,232.968 279.582,232.968 277.507,231.393 275.063,230.492 272.462,230.343 269.93,230.959 267.689,232.286 265.932,234.21 264.813,236.563 264.429,239.139 264.813,241.716 265.932,244.068 267.689,245.992 269.93,247.32 272.462,247.936 275.063,247.787 277.507,246.886 279.582,245.311 279.582,245.311 280.735,244.436 282.093,243.935 283.538,243.852 284.944,244.195 286.189,244.932 287.165,246.001 287.787,247.308 288,248.739 288,248.739 288,288 "/>
        <polyline fill="none" stroke="#000000" stroke-width="1" points="  384,192 384,225.993 384,225.993 384.241,227.566 384.941,228.994 386.036,230.148 387.427,230.92 388.985,231.242 390.568,231.082 392.03,230.457 393.238,229.422 393.238,229.422 395.413,227.56 398.046,226.433 400.895,226.146 403.699,226.725 406.202,228.116 408.174,230.192 409.434,232.763 409.867,235.593 409.434,238.424 408.174,240.995 406.202,243.071 403.699,244.462 400.895,245.041 398.046,244.754 395.413,243.627 393.238,241.765 393.238,241.765 392.03,240.73 390.568,240.104 388.985,239.945 387.427,240.266 386.036,241.039 384.941,242.193 384.241,243.621 384,245.193 384,245.193 384,288 "/>
        <polyline fill="none" stroke="#000000" stroke-width="1" points="  480,192 480,233.351 480,233.351 480.233,234.883 480.911,236.277 481.972,237.406 483.321,238.169 484.836,238.496 486.379,238.359 487.812,237.769 489.005,236.779 489.005,236.779 491.153,234.999 493.732,233.936 496.51,233.689 499.237,234.278 501.665,235.652 503.576,237.684 504.796,240.193 505.215,242.951 504.796,245.709 503.576,248.217 501.665,250.25 499.237,251.623 496.51,252.212 493.732,251.965 491.153,250.903 489.005,249.122 489.005,249.122 487.812,248.133 486.379,247.543 484.836,247.405 483.321,247.733 481.972,248.496 480.911,249.625 480.233,251.019 480,252.551 480,252.551 480,288 "/>
        <polyline fill="none" stroke="#000000" stroke-width="1" points="  576,192 576,235.551 576,235.551 576.258,237.212 577.008,238.718 578.179,239.924 579.661,240.719 581.315,241.027 582.983,240.819 584.51,240.114 585.752,238.979 585.752,238.979 587.986,236.937 590.734,235.669 593.738,235.294 596.714,235.848 599.382,237.278 601.49,239.45 602.84,242.16 603.304,245.151 602.84,248.142 601.49,250.851 599.382,253.023 596.714,254.454 593.738,255.008 590.734,254.633 587.986,253.364 585.752,251.322 585.752,251.322 584.51,250.188 582.983,249.483 581.315,249.275 579.661,249.582 578.179,250.377 577.008,251.584 576.258,253.089 576,254.751 576,254.751 576,288 "/>
        <polyline fill="none" stroke="#000000" stroke-width="1" points="  672,192 672,222.071 672,222.071 671.751,223.684 671.028,225.148 669.898,226.326 668.465,227.109 666.863,227.424 665.241,227.242 663.748,226.58 662.525,225.499 662.525,225.499 660.322,223.554 657.636,222.362 654.715,222.035 651.832,222.602 649.253,224.011 647.218,226.131 645.916,228.766 645.469,231.671 645.916,234.575 647.218,237.21 649.253,239.33 651.832,240.74 654.715,241.307 657.636,240.979 660.322,239.788 662.525,237.842 662.525,237.842 663.748,236.761 665.241,236.099 666.863,235.917 668.465,236.232 669.898,237.015 671.028,238.193 671.751,239.657 672,241.271 672,241.271 672,288 "/>
        <polyline fill="none" stroke="#000000" stroke-width="1" points="  768,192 768,222.574 768,222.574 768.23,224.093 768.901,225.475 769.951,226.597 771.286,227.356 772.787,227.686 774.317,227.555 775.741,226.977 776.928,226.003 776.928,226.003 779.066,224.249 781.628,223.208 784.383,222.974 787.084,223.567 789.488,224.934 791.378,226.952 792.585,229.44 792.999,232.174 792.585,234.908 791.378,237.396 789.488,239.415 787.084,240.782 784.383,241.375 781.628,241.14 779.066,240.099 776.928,238.346 776.928,238.346 775.741,237.371 774.317,236.793 772.787,236.663 771.286,236.992 769.951,237.752 768.901,238.873 768.23,240.255 768,241.774 768,241.774 768,288 "/>
        <polyline fill="none" stroke="#000000" stroke-width="1" points="  864,192 864,236.924 864,236.924 864.21,238.34 864.823,239.633 865.786,240.692 867.014,241.426 868.403,241.77 869.833,241.696 871.178,241.21 872.325,240.353 872.325,240.353 874.388,238.81 876.81,237.935 879.383,237.801 881.883,238.421 884.095,239.742 885.827,241.648 886.93,243.976 887.309,246.524 886.93,249.072 885.827,251.4 884.095,253.306 881.883,254.627 879.383,255.247 876.81,255.114 874.388,254.238 872.325,252.696 872.325,252.696 871.178,251.839 869.833,251.352 868.403,251.278 867.014,251.623 865.786,252.356 864.823,253.415 864.21,254.709 864,256.124 864,256.124 864,288 "/>
        <polyline fill="none" stroke="#000000" stroke-width="1" points="  96,288 96,335.495 96,335.495 96.2278,337.001 96.8908,338.371 97.9296,339.485 99.2512,340.241 100.737,340.572 102.255,340.449 103.669,339.883 104.851,338.924 104.851,338.924 106.98,337.197 109.524,336.177 112.256,335.956 114.931,336.552 117.31,337.913 119.18,339.917 120.373,342.385 120.783,345.095 120.373,347.805 119.18,350.273 117.31,352.277 114.931,353.638 112.256,354.234 109.524,354.013 106.98,352.993 104.851,351.266 104.851,351.266 103.669,350.307 102.255,349.741 100.737,349.618 99.2512,349.949 97.9296,350.705 96.8908,351.819 96.2278,353.189 96,354.695 96,354.695 96,384 "/>
        <polyline fill="none" stroke="#000000" stroke-width="1" points="  192,288 192,331.41 192,331.41 192.215,332.848 192.84,334.161 193.822,335.234 195.075,335.974 196.488,336.315 197.94,336.228 199.303,335.721 200.459,334.838 200.459,334.838 202.539,333.249 204.993,332.336 207.606,332.181 210.151,332.795 212.406,334.126 214.173,336.057 215.299,338.421 215.686,341.01 215.299,343.599 214.173,345.962 212.406,347.894 210.151,349.225 207.606,349.839 204.993,349.683 202.539,348.771 200.459,347.181 200.459,347.181 199.303,346.298 197.94,345.791 196.488,345.705 195.075,346.046 193.822,346.785 192.84,347.858 192.215,349.171 192,350.61 192,350.61 192,384 "/>
        <polyline fill="none" stroke="#000000" stroke-width="1" points="  288,288 288,324.793 288,324.793 287.74,326.467 286.983,327.982 285.802,329.196 284.308,329.994 282.642,330.299 280.962,330.085 279.426,329.37 278.181,328.222 278.181,328.222 275.939,326.156 273.175,324.869 270.151,324.482 267.152,325.033 264.463,326.468 262.337,328.653 260.975,331.381 260.506,334.393 260.975,337.406 262.337,340.133 264.463,342.318 267.152,343.754 270.151,344.304 273.175,343.918 275.939,342.631 278.181,340.565 278.181,340.565 279.426,339.417 280.962,338.702 282.642,338.487 284.308,338.793 285.802,339.591 286.983,340.804 287.74,342.32 288,343.993 288,343.993 288,384 "/>
        <polyline fill="none" stroke="#000000" stroke-width="1" points="  384,288 384,335.089 384,335.089 383.729,336.816 382.943,338.378 381.716,339.623 380.167,340.434 378.444,340.731 376.713,340.487 375.14,339.725 373.875,338.518 373.875,338.518 371.599,336.345 368.767,334.973 365.651,334.533 362.55,335.069 359.762,336.527 357.554,338.77 356.138,341.58 355.651,344.689 356.138,347.798 357.554,350.609 359.762,352.851 362.55,354.31 365.651,354.845 368.767,354.406 371.599,353.034 373.875,350.861 373.875,350.861 375.14,349.653 376.713,348.891 378.444,348.647 380.167,348.944 381.716,349.755 382.943,351.001 383.729,352.562 384,354.289 384,354.289 384,384 "/>
        <polyline fill="none" stroke="#000000" stroke-width="1" points="  480,288 480,318.502 480,318.502 479.743,320.158 478.996,321.658 477.83,322.862 476.354,323.655 474.707,323.964 473.044,323.758 471.521,323.059 470.282,321.931 470.282,321.931 468.051,319.9 465.31,318.641 462.317,318.272 459.352,318.828 456.695,320.255 454.596,322.421 453.251,325.122 452.789,328.102 453.251,331.083 454.596,333.783 456.695,335.949 459.352,337.377 462.317,337.933 465.31,337.563 468.051,336.304 470.282,334.274 470.282,334.274 471.521,333.146 473.044,332.446 474.707,332.241 476.354,332.55 477.83,333.343 478.996,334.546 479.743,336.046 480,337.702 480,337.702 480,384 "/>
        <polyline fill="none" stroke="#000000" stroke-width="1" points="  576,288 576,328.691 576,328.691 575.74,330.364 574.983,331.88 573.801,333.094 572.307,333.891 570.641,334.197 568.961,333.982 567.425,333.267 566.18,332.119 566.18,332.119 563.938,330.053 561.174,328.765 558.149,328.378 555.15,328.929 552.46,330.365 550.334,332.55 548.972,335.278 548.503,338.291 548.972,341.303 550.334,344.031 552.46,346.216 555.15,347.652 558.149,348.203 561.174,347.816 563.938,346.528 566.18,344.462 566.18,344.462 567.425,343.314 568.961,342.599 570.641,342.384 572.307,342.69 573.801,343.487 574.983,344.701 575.74,346.217 576,347.891 576,347.891 576,384 "/>
        <polyline fill="none" stroke="#000000" stroke-width="1" points="  672,288 672,334.852 672,334.852 672.236,336.401 672.923,337.809 673.999,338.949 675.365,339.716 676.898,340.041 678.458,339.894 679.903,339.289 681.102,338.281 681.102,338.281 683.261,336.466 685.863,335.377 688.671,335.113 691.43,335.698 693.889,337.079 695.825,339.13 697.062,341.664 697.487,344.452 697.062,347.24 695.825,349.775 693.889,351.826 691.43,353.206 688.671,353.791 685.863,353.527 683.261,352.439 681.102,350.624 681.102,350.624 679.903,349.616 678.458,349.011 676.898,348.864 675.365,349.189 673.999,349.956 672.923,351.095 672.236,352.503 672,354.052 672,354.052 672,384 "/>
        <polyline fill="none" stroke="#000000" stroke-width="1" points="  768,288 768,322.214 768,322.214 768.209,323.622 768.818,324.909 769.774,325.963 770.994,326.695 772.375,327.04 773.797,326.97 775.137,326.491 776.28,325.642 776.28,325.642 778.338,324.116 780.75,323.252 783.309,323.126 785.794,323.748 787.992,325.065 789.713,326.963 790.809,329.279 791.185,331.814 790.809,334.348 789.713,336.664 787.992,338.563 785.794,339.88 783.309,340.502 780.75,340.376 778.338,339.512 776.28,337.985 776.28,337.985 775.137,337.137 773.797,336.657 772.375,336.587 770.994,336.933 769.774,337.664 768.818,338.719 768.209,340.006 768,341.414 768,341.414 768,384 "/>
        <polyline fill="none" stroke="#000000" stroke-width="1" points="  864,288 864,331.192 864,331.192 864.277,332.949 865.08,334.537 866.333,335.801 867.913,336.618 869.668,336.911 871.428,336.65 873.023,335.861 874.298,334.62 874.298,334.62 876.593,332.387 879.463,330.966 882.632,330.497 885.791,331.024 888.635,332.496 890.889,334.77 892.336,337.628 892.834,340.792 892.336,343.955 890.889,346.813 888.635,349.088 885.791,350.56 882.632,351.087 879.463,350.617 876.593,349.197 874.298,346.963 874.298,346.963 873.023,345.722 871.428,344.933 869.668,344.672 867.913,344.965 866.333,345.783 865.08,347.047 864.277,348.634 864,350.392 864,350.392 864,384 "/>
        <polyline fill="none" stroke="#000000" stroke-width="1" points="  96,384 96,421.957 96,421.957 95.7719,423.465 95.1079,424.837 94.0677,425.951 92.7442,426.708 91.2561,427.039 89.7367,426.915 88.322,426.347 87.1387,425.386 87.1387,425.386 85.0089,423.656 82.4624,422.633 79.7274,422.41 77.0488,423.006 74.6666,424.368 72.7941,426.374 71.599,428.844 71.1884,431.557 71.599,434.271 72.7941,436.741 74.6666,438.747 77.0488,440.109 79.7274,440.705 82.4624,440.482 85.0089,439.459 87.1387,437.729 87.1387,437.729 88.322,436.768 89.7367,436.2 91.2561,436.076 92.7442,436.407 94.0677,437.163 95.1079,438.278 95.7719,439.65 96,441.157 96,441.157 96,480 "/>
        <polyline fill="none" stroke="#000000" stroke-width="1" points="  192,384 192,417.2 192,417.2 192.267,418.905 193.041,420.448 194.249,421.681 195.776,422.486 197.476,422.787 199.187,422.555 200.745,421.812 202.002,420.628 202.002,420.628 204.264,418.498 207.069,417.16 210.148,416.742 213.208,417.284 215.956,418.733 218.132,420.952 219.526,423.73 220.005,426.8 219.526,429.87 218.132,432.647 215.956,434.866 213.208,436.316 210.148,436.857 207.069,436.439 204.264,435.101 202.002,432.971 202.002,432.971 200.745,431.788 199.187,431.044 197.476,430.812 195.776,431.113 194.249,431.918 193.041,433.151 192.267,434.694 192,436.4 192,436.4 192,480 "/>
        <polyline fill="none" stroke="#000000" stroke-width="1" points="  288,384 288,415.465 288,415.465 287.734,417.169 286.961,418.71 285.754,419.941 284.229,420.746 282.532,421.047 280.823,420.816 279.266,420.075 278.01,418.894 278.01,418.894 275.749,416.768 272.947,415.433 269.872,415.017 266.816,415.56 264.072,417.008 261.9,419.225 260.508,421.999 260.029,425.065 260.508,428.131 261.9,430.905 264.072,433.122 266.816,434.571 269.872,435.113 272.947,434.697 275.749,433.362 278.01,431.237 278.01,431.237 279.266,430.056 280.823,429.314 282.532,429.083 284.229,429.384 285.754,430.189 286.961,431.421 287.734,432.962 288,434.665 288,434.665 288,480 "/>
        <polyline fill="none" stroke="#000000" stroke-width="1" points="  384,384 384,428.727 384,428.727 384.241,430.302 384.943,431.732 386.04,432.887 387.433,433.661 388.994,433.982 390.579,433.821 392.044,433.193 393.253,432.156 393.253,432.156 395.429,430.288 398.065,429.158 400.918,428.868 403.728,429.446 406.235,430.838 408.211,432.917 409.473,435.492 409.908,438.327 409.473,441.162 408.211,443.737 406.235,445.816 403.728,447.208 400.918,447.786 398.065,447.496 395.429,446.366 393.253,444.498 393.253,444.498 392.044,443.461 390.579,442.833 388.994,442.672 387.433,442.993 386.04,443.767 384.943,444.922 384.241,446.352 384,447.927 384,447.927 384,480 "/>
        <polyline fill="none" stroke="#000000" stroke-width="1" points="  480,384 480,418.81 480,418.81 479.747,420.444 479.013,421.925 477.865,423.115 476.412,423.903 474.788,424.215 473.146,424.022 471.639,423.342 470.407,422.238 470.407,422.238 468.191,420.252 465.479,419.028 462.523,418.68 459.6,419.242 456.984,420.66 454.918,422.802 453.596,425.469 453.141,428.41 453.596,431.351 454.918,434.017 456.984,436.16 459.6,437.578 462.523,438.14 465.479,437.792 468.191,436.568 470.407,434.581 470.407,434.581 471.639,433.478 473.146,432.798 474.788,432.604 476.412,432.916 477.865,433.704 479.013,434.895 479.747,436.376 480,438.01 480,438.01 480,480 "/>
        <polyline fill="none" stroke="#000000" stroke-width="1" points="  576,384 576,415.974 576,415.974 575.795,417.363 575.197,418.633 574.257,419.676 573.056,420.403 571.696,420.751 570.294,420.692 568.968,420.229 567.833,419.403 567.833,419.403 565.64,417.839 563.071,417.026 560.377,417.043 557.82,417.889 555.646,419.48 554.068,421.664 553.239,424.227 553.239,426.921 554.068,429.484 555.646,431.668 557.82,433.26 560.377,434.105 563.071,434.122 565.64,433.31 567.833,431.746 567.833,431.746 568.968,430.919 570.294,430.457 571.696,430.397 573.056,430.746 574.257,431.472 575.197,432.515 575.795,433.785 576,435.174 576,435.174 576,480 "/>
        <polyline fill="none" stroke="#000000" stroke-width="1" points="  672,384 672,417.763 672,417.763 672.214,419.196 672.836,420.504 673.814,421.574 675.06,422.312 676.468,422.654 677.915,422.57 679.274,422.068 680.427,421.191 680.427,421.191 682.503,419.613 684.95,418.709 687.553,418.559 690.088,419.174 692.332,420.503 694.091,422.428 695.212,424.783 695.596,427.363 695.212,429.942 694.091,432.297 692.332,434.222 690.088,435.551 687.553,436.167 684.95,436.016 682.503,435.112 680.427,433.534 680.427,433.534 679.274,432.657 677.915,432.155 676.468,432.072 675.06,432.414 673.814,433.152 672.836,434.221 672.214,435.53 672,436.963 672,436.963 672,480 "/>
        <polyline fill="none" stroke="#000000" stroke-width="1" points="  768,384 768,414.942 768,414.942 767.784,416.387 767.155,417.706 766.167,418.782 764.908,419.523 763.488,419.864 762.029,419.774 760.661,419.261 759.503,418.371 759.503,418.371 757.418,416.768 754.956,415.845 752.331,415.683 749.774,416.296 747.507,417.63 745.73,419.568 744.597,421.941 744.209,424.542 744.597,427.143 745.73,429.516 747.507,431.455 749.774,432.788 752.331,433.401 754.956,433.239 757.418,432.316 759.503,430.714 759.503,430.714 760.661,429.823 762.029,429.311 763.488,429.221 764.908,429.561 766.167,430.302 767.155,431.379 767.784,432.697 768,434.142 768,434.142 768,480 "/>
        <polyline fill="none" stroke="#000000" stroke-width="1" points="  864,384 864,426.436 864,426.436 864.231,427.959 864.903,429.344 865.957,430.467 867.296,431.228 868.8,431.557 870.334,431.425 871.76,430.843 872.949,429.865 872.949,429.865 875.09,428.104 877.656,427.057 880.418,426.819 883.126,427.411 885.536,428.78 887.432,430.802 888.642,433.296 889.058,436.036 888.642,438.777 887.432,441.27 885.536,443.293 883.126,444.661 880.418,445.253 877.656,445.015 875.09,443.969 872.949,442.208 872.949,442.208 871.76,441.229 870.334,440.648 868.8,440.516 867.296,440.844 865.957,441.605 864.903,442.728 864.231,444.114 864,445.636 864,445.636 864,480 "/>
        <polyline fill="none" stroke="#000000" stroke-width="1" points="  96,480 96,527.347 96,527.347 95.7813,528.806 95.1445,530.136 94.1456,531.221 92.8724,531.966 91.4369,532.304 89.9653,532.207 88.5869,531.682 87.4231,530.776 87.4231,530.776 85.3281,529.145 82.8471,528.201 80.1981,528.025 77.6142,528.634 75.3224,529.974 73.5244,531.927 72.3782,534.322 71.9846,536.947 72.3782,539.573 73.5244,541.967 75.3224,543.92 77.6142,545.26 80.1981,545.869 82.8471,545.694 85.3281,544.749 87.4231,543.119 87.4231,543.119 88.5869,542.213 89.9653,541.688 91.4369,541.591 92.8724,541.929 94.1456,542.673 95.1445,543.758 95.7813,545.089 96,546.547 96,546.547 96,576 "/>
        <polyline fill="none" stroke="#000000" stroke-width="1" points="  192,480 192,525.52 192,525.52 191.745,527.167 191.003,528.659 189.845,529.856 188.379,530.647 186.742,530.957 185.087,530.758 183.571,530.066 182.336,528.949 182.336,528.949 180.111,526.937 177.382,525.693 174.405,525.333 171.458,525.891 168.819,527.315 166.734,529.471 165.399,532.156 164.94,535.12 165.399,538.084 166.734,540.77 168.819,542.926 171.458,544.349 174.405,544.907 177.382,544.547 180.111,543.303 182.336,541.292 182.336,541.292 183.571,540.174 185.087,539.483 186.742,539.283 188.379,539.593 189.845,540.384 191.003,541.582 191.745,543.074 192,544.72 192,544.72 192,576 "/>
        <polyline fill="none" stroke="#000000" stroke-width="1" points="  288,480 288,519.243 288,519.243 288.275,520.99 289.072,522.568 290.316,523.826 291.886,524.641 293.63,524.936 295.38,524.681 296.967,523.901 298.239,522.671 298.239,522.671 300.528,520.458 303.385,519.054 306.536,518.595 309.675,519.125 312.5,520.592 314.739,522.856 316.175,525.697 316.669,528.843 316.175,531.988 314.739,534.829 312.5,537.093 309.675,538.561 306.536,539.09 303.385,538.631 300.528,537.227 298.239,535.014 298.239,535.014 296.967,533.784 295.38,533.004 293.63,532.749 291.886,533.044 290.316,533.859 289.072,535.117 288.275,536.695 288,538.443 288,538.443 288,576 "/>
        <polyline fill="none" stroke="#000000" stroke-width="1" points="  384,480 384,518.306 384,518.306 384.249,519.922 384.974,521.388 386.106,522.567 387.541,523.351 389.146,523.666 390.77,523.482 392.264,522.818 393.489,521.735 393.489,521.735 395.693,519.785 398.382,518.589 401.307,518.259 404.195,518.826 406.778,520.236 408.816,522.359 410.12,524.998 410.569,527.906 410.12,530.815 408.816,533.453 406.778,535.576 404.195,536.987 401.307,537.553 398.382,537.223 395.693,536.028 393.489,534.078 393.489,534.078 392.264,532.994 390.77,532.33 389.146,532.147 387.541,532.462 386.106,533.245 384.974,534.425 384.249,535.89 384,537.506 384,537.506 384,576 "/>
        <polyline fill="none" stroke="#000000" stroke-width="1" points="  480,480 480,516.296 480,516.296 480.213,517.726 480.834,519.033 481.81,520.101 483.054,520.838 484.459,521.181 485.903,521.098 487.26,520.598 488.413,519.724 488.413,519.724 490.487,518.151 492.93,517.251 495.53,517.103 498.059,517.72 500.299,519.047 502.054,520.97 503.172,523.321 503.556,525.896 503.172,528.471 502.054,530.822 500.299,532.745 498.059,534.072 495.53,534.688 492.93,534.54 490.487,533.64 488.413,532.067 488.413,532.067 487.26,531.193 485.903,530.693 484.459,530.611 483.054,530.953 481.81,531.691 480.834,532.759 480.213,534.065 480,535.496 480,535.496 480,576 "/>
        <polyline fill="none" stroke="#000000" stroke-width="1" points="  576,480 576,520.358 576,520.358 576.21,521.771 576.822,523.063 577.782,524.12 579.009,524.853 580.395,525.198 581.822,525.125 583.166,524.641 584.312,523.786 584.312,523.786 586.373,522.249 588.793,521.376 591.361,521.245 593.857,521.866 596.065,523.185 597.794,525.089 598.895,527.414 599.273,529.958 598.895,532.502 597.794,534.826 596.065,536.731 593.857,538.05 591.361,538.671 588.793,538.539 586.373,537.667 584.312,536.129 584.312,536.129 583.166,535.275 581.822,534.79 580.395,534.717 579.009,535.062 577.782,535.795 576.822,536.853 576.21,538.145 576,539.558 576,539.558 576,576 "/>
        <polyline fill="none" stroke="#000000" stroke-width="1" points="  672,480 672,514.798 672,514.798 672.272,516.533 673.063,518.101 674.296,519.351 675.853,520.163 677.583,520.46 679.322,520.211 680.9,519.443 682.168,518.227 682.168,518.227 684.448,516.039 687.29,514.655 690.419,514.208 693.534,514.741 696.336,516.203 698.556,518.454 699.979,521.276 700.469,524.398 699.979,527.521 698.556,530.343 696.336,532.593 693.534,534.055 690.419,534.589 687.29,534.142 684.448,532.758 682.168,530.57 682.168,530.57 680.9,529.354 679.322,528.585 677.583,528.337 675.853,528.633 674.296,529.446 673.063,530.696 672.272,532.264 672,533.998 672,533.998 672,576 "/>
        <polyline fill="none" stroke="#000000" stroke-width="1" points="  768,480 768,525.355 768,525.355 768.247,526.96 768.965,528.416 770.088,529.588 771.511,530.369 773.104,530.685 774.717,530.508 776.203,529.854 777.424,528.784 777.424,528.784 779.62,526.856 782.295,525.679 785.2,525.36 788.066,525.93 790.628,527.335 792.649,529.446 793.941,532.067 794.386,534.955 793.941,537.843 792.649,540.464 790.628,542.575 788.066,543.98 785.2,544.55 782.295,544.231 779.62,543.054 777.424,541.126 777.424,541.126 776.203,540.056 774.717,539.402 773.104,539.224 771.511,539.541 770.088,540.322 768.965,541.494 768.247,542.95 768,544.555 768,544.555 768,576 "/>
        <polyline fill="none" stroke="#000000" stroke-width="1" points="  864,480 864,509.611 864,509.611 863.793,511.007 863.191,512.284 862.245,513.331 861.037,514.06 859.669,514.407 858.259,514.344 856.928,513.874 855.79,513.04 855.79,513.04 853.59,511.46 851.01,510.635 848.302,510.645 845.729,511.49 843.541,513.087 841.953,515.281 841.118,517.857 841.118,520.565 841.953,523.142 843.541,525.336 845.729,526.933 848.302,527.777 851.01,527.788 853.59,526.963 855.79,525.383 855.79,525.383 856.928,524.548 858.259,524.079 859.669,524.015 861.037,524.363 862.245,525.091 863.191,526.139 863.793,527.415 864,528.811 864,528.811 864,576 "/>
        <polyline fill="none" stroke="#000000" stroke-width="1" points="  96,576 96,613.575 96,613.575 95.7658,615.113 95.0846,616.512 94.0178,617.646 92.6623,618.41 91.1408,618.736 89.591,618.595 88.1533,618 86.9579,617.003 86.9579,617.003 84.8063,615.21 82.2185,614.138 79.4289,613.884 76.6901,614.472 74.2501,615.848 72.3301,617.887 71.1038,620.406 70.6823,623.175 71.1038,625.944 72.3301,628.463 74.2501,630.502 76.6901,631.878 79.4289,632.466 82.2185,632.212 84.8063,631.14 86.9579,629.346 86.9579,629.346 88.1533,628.35 89.591,627.754 91.1408,627.613 92.6623,627.94 94.0178,628.704 95.0846,629.837 95.7658,631.236 96,632.775 96,632.775 96,672 "/>
        <polyline fill="none" stroke="#000000" stroke-width="1" points="  192,576 192,606.371 192,606.371 191.765,607.912 191.083,609.313 190.014,610.448 188.656,611.213 187.132,611.539 185.58,611.397 184.141,610.799 182.945,609.8 182.945,609.8 180.791,608.002 178.201,606.926 175.407,606.67 172.664,607.257 170.219,608.634 168.296,610.676 167.067,613.198 166.645,615.971 167.067,618.745 168.296,621.267 170.219,623.309 172.664,624.686 175.407,625.273 178.201,625.017 180.791,623.941 182.945,622.143 182.945,622.143 184.141,621.144 185.58,620.546 187.132,620.404 188.656,620.73 190.014,621.495 191.083,622.63 191.765,624.031 192,625.571 192,625.571 192,672 "/>
        <polyline fill="none" stroke="#000000" stroke-width="1" points="  288,576 288,621.297 288,621.297 287.74,622.969 286.984,624.483 285.805,625.695 284.312,626.492 282.648,626.799 280.97,626.585 279.436,625.871 278.191,624.725 278.191,624.725 275.95,622.663 273.188,621.379 270.167,620.994 267.172,621.545 264.486,622.98 262.362,625.163 261.002,627.888 260.534,630.897 261.002,633.906 262.362,636.631 264.486,638.814 267.172,640.249 270.167,640.8 273.188,640.415 275.95,639.131 278.191,637.068 278.191,637.068 279.436,635.922 280.97,635.209 282.648,634.995 284.312,635.301 285.805,636.098 286.984,637.311 287.74,638.825 288,640.497 288,640.497 288,672 "/>
        <polyline fill="none" stroke="#000000" stroke-width="1" points="  384,576 384,623.027 384,623.027 383.721,624.797 382.911,626.395 381.648,627.666 380.055,628.487 378.287,628.777 376.516,628.51 374.912,627.71 373.633,626.456 373.633,626.456 371.33,624.198 368.445,622.758 365.256,622.277 362.073,622.8 359.207,624.277 356.934,626.565 355.475,629.441 354.973,632.627 355.475,635.813 356.934,638.689 359.207,640.977 362.073,642.454 365.256,642.978 368.445,642.496 371.33,641.056 373.633,638.799 373.633,638.799 374.912,637.544 376.516,636.744 378.287,636.477 380.055,636.768 381.648,637.588 382.911,638.859 383.721,640.457 384,642.227 384,642.227 384,672 "/>
        <polyline fill="none" stroke="#000000" stroke-width="1" points="  480,576 480,613.416 480,613.416 480.205,614.805 480.804,616.076 481.744,617.119 482.946,617.846 484.307,618.195 485.71,618.134 487.036,617.671 488.171,616.844 488.171,616.844 490.366,615.278 492.935,614.464 495.631,614.481 498.19,615.326 500.365,616.918 501.944,619.103 502.774,621.668 502.774,624.363 501.944,626.928 500.365,629.113 498.19,630.705 495.631,631.55 492.935,631.567 490.366,630.753 488.171,629.187 488.171,629.187 487.036,628.36 485.71,627.897 484.307,627.836 482.946,628.185 481.744,628.912 480.804,629.955 480.205,631.226 480,632.616 480,632.616 480,672 "/>
        <polyline fill="none" stroke="#000000" stroke-width="1" points="  576,576 576,623.448 576,623.448 575.757,625.033 575.05,626.472 573.944,627.633 572.54,628.408 570.969,628.728 569.374,628.562 567.902,627.925 566.689,626.876 566.689,626.876 564.506,624.989 561.857,623.842 558.986,623.543 556.158,624.118 553.632,625.515 551.641,627.604 550.368,630.195 549.931,633.048 550.368,635.9 551.641,638.491 553.632,640.581 556.158,641.977 558.986,642.552 561.857,642.253 564.506,641.107 566.689,639.219 566.689,639.219 567.902,638.17 569.374,637.534 570.969,637.367 572.54,637.687 573.944,638.463 575.05,639.624 575.757,641.063 576,642.648 576,642.648 576,672 "/>
        <polyline fill="none" stroke="#000000" stroke-width="1" points="  672,576 672,607.909 672,607.909 671.748,609.54 671.015,611.018 669.871,612.206 668.42,612.994 666.8,613.306 665.162,613.115 663.657,612.438 662.427,611.338 662.427,611.338 660.213,609.358 657.505,608.14 654.555,607.795 651.639,608.358 649.029,609.775 646.968,611.913 645.65,614.574 645.196,617.509 645.65,620.444 646.968,623.105 649.029,625.244 651.639,626.661 654.555,627.223 657.505,626.879 660.213,625.66 662.427,623.681 662.427,623.681 663.657,622.581 665.162,621.904 666.8,621.713 668.42,622.025 669.871,622.812 671.015,624 671.748,625.479 672,627.109 672,627.109 672,672 "/>
        <polyline fill="none" stroke="#000000" stroke-width="1" points="  768,576 768,617.737 768,617.737 768.235,619.28 768.919,620.683 769.989,621.818 771.348,622.584 772.874,622.91 774.428,622.766 775.869,622.167 777.066,621.166 777.066,621.166 779.22,619.364 781.814,618.285 784.61,618.028 787.357,618.614 789.805,619.992 791.731,622.036 792.961,624.561 793.384,627.337 792.961,630.114 791.731,632.639 789.805,634.683 787.357,636.061 784.61,636.647 781.814,636.39 779.22,635.311 777.066,633.509 777.066,633.509 775.869,632.508 774.428,631.908 772.874,631.765 771.348,632.091 769.989,632.857 768.919,633.992 768.235,635.395 768,636.937 768,636.937 768,672 "/>
        <polyline fill="none" stroke="#000000" stroke-width="1" points="  864,576 864,611.897 864,611.897 864.236,613.445 864.922,614.852 865.997,615.991 867.362,616.758 868.894,617.083 870.452,616.937 871.897,616.333 873.096,615.326 873.096,615.326 875.254,613.513 877.854,612.426 880.66,612.164 883.417,612.749 885.874,614.129 887.808,616.178 889.044,618.711 889.469,621.497 889.044,624.283 887.808,626.816 885.874,628.866 883.417,630.246 880.66,630.831 877.854,630.568 875.254,629.481 873.096,627.669 873.096,627.669 871.897,626.662 870.452,626.058 868.894,625.912 867.362,626.237 865.997,627.004 864.922,628.142 864.236,629.55 864,631.097 864,631.097 864,672 "/>
    </g>
</svg>
