<?xml version="1.0" encoding="utf-8"?>
<!DOCTYPE svg PUBLIC "-//W3C//DTD SVG 1.0//EN" "http://www.w3.org/TR/2001/REC-SVG-20010904/DTD/svg10.dtd" [
<!ENTITY ns_svg "http://www.w3.org/2000/svg">
]>
<svg xmlns="&ns_svg;" width="288" height="576" overflow="visible">
    <g id="Layer_1">
        <rect x="0" y="0" rx="0" ry="0" width="288" height="576" fill="none" stroke="#000000"/>
        <polyline fill="none" stroke="#000000" stroke-width="1" points="  0,96 41.2357,96 41.2357,96 42.8225,96.2435 44.2632,96.9517 45.4252,98.0594 46.2015,99.4646 46.5208,101.038 46.3535,102.634 45.715,104.107 44.6643,105.321 44.6643,105.321 42.7729,107.506 41.6237,110.157 41.3226,113.031 41.8971,115.863 43.2946,118.392 45.3862,120.386 47.9795,121.661 50.8357,122.099 53.6919,121.661 56.2852,120.386 58.3768,118.392 59.7742,115.863 60.3488,113.031 60.0477,110.157 58.8985,107.506 57.0071,105.321 57.0071,105.321 55.9563,104.107 55.3179,102.634 55.1506,101.038 55.4698,99.4646 56.2462,98.0594 57.4082,96.9517 58.8489,96.2435 60.4357,96 60.4357,96 96,96 "/>
        <polyline fill="none" stroke="#000000" stroke-width="1" points="  96,96 143.641,96 143.641,96 145.206,96.2393 146.628,96.9352 147.776,98.0241 148.547,99.4066 148.87,100.956 148.715,102.532 148.096,103.988 147.07,105.194 147.07,105.194 145.223,107.364 144.109,109.986 143.829,112.821 144.41,115.611 145.798,118.099 147.866,120.06 150.425,121.312 153.241,121.743 156.058,121.312 158.617,120.06 160.685,118.099 162.072,115.611 162.653,112.821 162.373,109.986 161.259,107.364 159.413,105.194 159.413,105.194 158.387,103.988 157.768,102.532 157.612,100.956 157.935,99.4066 158.706,98.0241 159.855,96.9352 161.276,96.2393 162.841,96 162.841,96 192,96 "/>
        <polyline fill="none" stroke="#000000" stroke-width="1" points="  192,96 228.27,96 228.27,96 229.897,96.2513 231.372,96.9817 232.558,98.1232 233.344,99.5693 233.657,101.185 233.468,102.82 232.794,104.322 231.699,105.551 231.699,105.551 229.727,107.762 228.514,110.465 228.174,113.408 228.737,116.317 230.152,118.92 232.287,120.974 234.942,122.289 237.87,122.741 240.798,122.289 243.453,120.974 245.588,118.92 247.003,116.317 247.566,113.408 247.226,110.465 246.013,107.762 244.041,105.551 244.041,105.551 242.946,104.322 242.272,102.82 242.083,101.185 242.396,99.5693 243.183,98.1232 244.368,96.9817 245.843,96.2513 247.47,96 247.47,96 288,96 "/>
        <polyline fill="none" stroke="#000000" stroke-width="1" points="  0,192 44.9358,192 44.9358,192 46.4676,191.767 47.861,191.09 48.99,190.029 49.7528,188.68 50.0803,187.166 49.943,185.622 49.3532,184.189 48.3644,182.997 48.3644,182.997 46.5844,180.85 45.5228,178.271 45.2756,175.493 45.8652,172.767 47.2381,170.339 49.2705,168.43 51.7786,167.21 54.5358,166.791 57.293,167.21 59.8011,168.43 61.8334,170.339 63.2064,172.767 63.7959,175.493 63.5488,178.271 62.4872,180.85 60.7072,182.997 60.7072,182.997 59.7183,184.189 59.1286,185.622 58.9913,187.166 59.3188,188.68 60.0815,190.029 61.2106,191.09 62.604,191.767 64.1358,192 64.1358,192 96,192 "/>
        <polyline fill="none" stroke="#000000" stroke-width="1" points="  96,192 135.441,192 135.441,192 137.215,191.72 138.815,190.908 140.088,189.643 140.91,188.046 141.2,186.275 140.931,184.5 140.128,182.895 138.87,181.614 138.87,181.614 136.605,179.309 135.161,176.419 134.676,173.225 135.198,170.036 136.677,167.163 138.968,164.885 141.85,163.423 145.041,162.92 148.233,163.423 151.115,164.885 153.406,167.163 154.885,170.036 155.407,173.225 154.922,176.419 153.477,179.309 151.213,181.614 151.213,181.614 149.955,182.895 149.152,184.5 148.883,186.275 149.173,188.046 149.994,189.643 151.267,190.908 152.868,191.72 154.641,192 154.641,192 192,192 "/>
        <polyline fill="none" stroke="#000000" stroke-width="1" points="  192,192 223.759,192 223.759,192 225.36,192.246 226.812,192.962 227.982,194.081 228.762,195.5 229.079,197.088 228.904,198.698 228.254,200.18 227.188,201.399 227.188,201.399 225.269,203.593 224.098,206.262 223.784,209.159 224.355,212.018 225.758,214.572 227.864,216.586 230.479,217.875 233.359,218.318 236.24,217.875 238.854,216.586 240.96,214.572 242.364,212.018 242.935,209.159 242.62,206.262 241.449,203.593 239.531,201.399 239.531,201.399 238.465,200.18 237.814,198.698 237.64,197.088 237.957,195.5 238.736,194.081 239.907,192.962 241.359,192.246 242.959,192 242.959,192 288,192 "/>
        <polyline fill="none" stroke="#000000" stroke-width="1" points="  0,288 29.5946,288 29.5946,288 31.3051,288.268 32.8522,289.045 34.088,290.257 34.8945,291.789 35.1946,293.495 34.9596,295.21 34.2119,296.771 33.0231,298.03 33.0231,298.03 30.8833,300.296 29.5375,303.107 29.1145,306.194 29.6546,309.263 31.1063,312.021 33.3308,314.204 36.1156,315.603 39.1946,316.084 42.2735,315.603 45.0583,314.204 47.2828,312.021 48.7345,309.263 49.2746,306.194 48.8516,303.107 47.5059,300.296 45.366,298.03 45.366,298.03 44.1772,296.771 43.4295,295.21 43.1945,293.495 43.4946,291.789 44.3011,290.257 45.5369,289.045 47.084,288.268 48.7946,288 48.7946,288 96,288 "/>
        <polyline fill="none" stroke="#000000" stroke-width="1" points="  96,288 141.965,288 141.965,288 143.695,288.271 145.258,289.059 146.505,290.287 147.316,291.839 147.613,293.564 147.368,295.297 146.604,296.872 145.394,298.137 145.394,298.137 143.217,300.415 141.841,303.25 141.399,306.369 141.934,309.475 143.394,312.267 145.639,314.478 148.453,315.896 151.565,316.384 154.678,315.896 157.492,314.478 159.737,312.267 161.197,309.475 161.732,306.369 161.29,303.25 159.914,300.415 157.737,298.137 157.737,298.137 156.527,296.872 155.763,295.297 155.518,293.564 155.815,291.839 156.626,290.287 157.873,289.059 159.436,288.271 161.165,288 161.165,288 192,288 "/>
        <polyline fill="none" stroke="#000000" stroke-width="1" points="  192,288 237.319,288 237.319,288 238.931,288.248 240.393,288.971 241.57,290.1 242.353,291.531 242.668,293.131 242.487,294.752 241.826,296.243 240.747,297.466 240.747,297.466 238.805,299.668 237.616,302.352 237.29,305.269 237.858,308.15 239.266,310.725 241.385,312.758 244.017,314.058 246.919,314.505 249.82,314.058 252.453,312.758 254.571,310.725 255.98,308.15 256.547,305.269 256.222,302.352 255.032,299.668 253.09,297.466 253.09,297.466 252.011,296.243 251.351,294.752 251.169,293.131 251.485,291.531 252.267,290.1 253.444,288.971 254.907,288.248 256.519,288 256.519,288 288,288 "/>
        <polyline fill="none" stroke="#000000" stroke-width="1" points="  0,384 45.8788,384 45.8788,384 47.3162,383.785 48.6282,383.16 49.7005,382.18 50.4396,380.928 50.781,379.516 50.695,378.065 50.1891,376.703 49.3074,375.547 49.3074,375.547 47.7203,373.468 46.8096,371.016 46.6549,368.404 47.2695,365.862 48.5998,363.609 50.53,361.844 52.8916,360.719 55.4788,360.333 58.066,360.719 60.4277,361.844 62.3578,363.609 63.6882,365.862 64.3028,368.404 64.148,371.016 63.2374,373.468 61.6502,375.547 61.6502,375.547 60.7685,376.703 60.2626,378.065 60.1766,379.516 60.5181,380.928 61.2572,382.18 62.3295,383.16 63.6415,383.785 65.0788,384 65.0788,384 96,384 "/>
        <polyline fill="none" stroke="#000000" stroke-width="1" points="  96,384 139.571,384 139.571,384 141.143,384.241 142.571,384.941 143.724,386.036 144.496,387.426 144.818,388.983 144.659,390.566 144.033,392.028 142.999,393.236 142.999,393.236 141.138,395.411 140.012,398.042 139.725,400.891 140.304,403.694 141.695,406.196 143.771,408.167 146.341,409.427 149.171,409.86 152,409.427 154.571,408.167 156.646,406.196 158.037,403.694 158.616,400.891 158.329,398.042 157.203,395.411 155.342,393.236 155.342,393.236 154.308,392.028 153.682,390.566 153.523,388.983 153.845,387.426 154.617,386.036 155.771,384.941 157.199,384.241 158.771,384 158.771,384 192,384 "/>
        <polyline fill="none" stroke="#000000" stroke-width="1" points="  192,384 230.034,384 230.034,384 231.634,383.754 233.086,383.038 234.256,381.919 235.035,380.501 235.353,378.913 235.178,377.304 234.528,375.821 233.462,374.603 233.462,374.603 231.544,372.409 230.374,369.741 230.06,366.844 230.631,363.986 232.034,361.433 234.14,359.419 236.754,358.131 239.634,357.688 242.514,358.131 245.128,359.419 247.233,361.433 248.637,363.986 249.208,366.844 248.893,369.741 247.723,372.409 245.805,374.603 245.805,374.603 244.74,375.821 244.089,377.304 243.915,378.913 244.232,380.501 245.012,381.919 246.182,383.038 247.634,383.754 249.234,384 249.234,384 288,384 "/>
        <polyline fill="none" stroke="#000000" stroke-width="1" points="  0,480 31.403,480 31.403,480 32.8368,479.786 34.1458,479.163 35.216,478.185 35.9542,476.938 36.2961,475.529 36.212,474.082 35.7093,472.722 34.8316,471.568 34.8316,471.568 33.2518,469.491 32.3468,467.044 32.1955,464.439 32.811,461.903 34.1397,459.657 36.066,457.897 38.4222,456.776 41.003,456.391 43.5839,456.776 45.94,457.897 47.8663,459.657 49.1951,461.903 49.8106,464.439 49.6593,467.044 48.7543,469.491 47.1745,471.568 47.1745,471.568 46.2968,472.722 45.794,474.082 45.7099,475.529 46.0519,476.938 46.7901,478.185 47.8602,479.163 49.1692,479.786 50.603,480 50.603,480 96,480 "/>
        <polyline fill="none" stroke="#000000" stroke-width="1" points="  96,480 134.727,480 134.727,480 136.124,480.207 137.4,480.809 138.448,481.755 139.177,482.964 139.524,484.333 139.46,485.743 138.991,487.074 138.156,488.213 138.156,488.213 136.575,490.413 135.749,492.993 135.759,495.702 136.604,498.276 138.201,500.465 140.395,502.054 142.972,502.889 145.682,502.889 148.259,502.054 150.453,500.465 152.05,498.276 152.895,495.702 152.905,492.993 152.08,490.413 150.498,488.213 150.498,488.213 149.663,487.074 149.194,485.743 149.13,484.333 149.477,482.964 150.206,481.755 151.254,480.809 152.531,480.207 153.927,480 153.927,480 192,480 "/>
        <polyline fill="none" stroke="#000000" stroke-width="1" points="  192,480 230.886,480 230.886,480 232.563,480.261 234.081,481.019 235.296,482.203 236.095,483.701 236.4,485.37 236.184,487.053 235.466,488.591 234.314,489.838 234.314,489.838 232.242,492.082 230.95,494.849 230.56,497.879 231.11,500.884 232.547,503.579 234.735,505.71 237.468,507.075 240.486,507.545 243.504,507.075 246.237,505.71 248.425,503.579 249.862,500.884 250.412,497.879 250.022,494.849 248.73,492.082 246.657,489.838 246.657,489.838 245.506,488.591 244.788,487.053 244.572,485.37 244.877,483.701 245.675,482.203 246.891,481.019 248.409,480.261 250.086,480 250.086,480 288,480 "/>
        <polyline fill="none" stroke="#000000" stroke-width="1" points="  96,0 96,31.7323 96,31.7323 96.2366,33.2835 96.9249,34.6935 98.0024,35.8341 99.3709,36.6017 100.906,36.9263 102.468,36.7784 103.915,36.1716 105.115,35.1609 105.115,35.1609 107.276,33.3417 109.88,32.2494 112.692,31.9832 115.455,32.5676 117.918,33.9491 119.858,36.0023 121.097,38.5404 121.522,41.3323 121.097,44.1243 119.858,46.6624 117.918,48.7156 115.455,50.0971 112.692,50.6815 109.88,50.4153 107.276,49.323 105.115,47.5038 105.115,47.5038 103.915,46.4931 102.468,45.8863 100.906,45.7384 99.3709,46.063 98.0024,46.8306 96.9249,47.9712 96.2366,49.3812 96,50.9323 96,50.9323 96,96 "/>
        <polyline fill="none" stroke="#000000" stroke-width="1" points="  192,0 192,38.601 192,38.601 192.265,40.296 193.033,41.8297 194.232,43.0563 195.749,43.859 197.437,44.1615 199.138,43.935 200.688,43.2011 201.941,42.0295 201.941,42.0295 204.197,39.9208 206.988,38.5997 210.049,38.192 213.089,38.7365 215.818,40.1815 217.976,42.3893 219.36,45.15 219.836,48.201 219.36,51.2519 217.976,54.0127 215.818,56.2205 213.089,57.6654 210.049,58.2099 206.988,57.8023 204.197,56.4812 201.941,54.3724 201.941,54.3724 200.688,53.2009 199.138,52.4669 197.437,52.2404 195.749,52.543 194.232,53.3457 193.033,54.5723 192.265,56.106 192,57.801 192,57.801 192,96 "/>
        <polyline fill="none" stroke="#000000" stroke-width="1" points="  96,96 96,129.326 96,129.326 96.2065,130.722 96.8085,131.998 97.7542,133.046 98.9627,133.774 100.33,134.122 101.74,134.058 103.071,133.589 104.209,132.755 104.209,132.755 106.408,131.175 108.988,130.35 111.696,130.361 114.269,131.206 116.456,132.803 118.044,134.996 118.879,137.572 118.879,140.28 118.044,142.856 116.456,145.05 114.269,146.646 111.696,147.491 108.988,147.502 106.408,146.677 104.209,145.098 104.209,145.098 103.071,144.263 101.74,143.794 100.33,143.731 98.9627,144.078 97.7542,144.807 96.8085,145.854 96.2065,147.13 96,148.526 96,148.526 96,192 "/>
        <polyline fill="none" stroke="#000000" stroke-width="1" points="  192,96 192,134.505 192,134.505 191.729,136.235 190.94,137.799 189.711,139.046 188.159,139.857 186.433,140.154 184.699,139.909 183.124,139.144 181.859,137.933 181.859,137.933 179.581,135.754 176.745,134.378 173.624,133.935 170.517,134.47 167.723,135.93 165.511,138.175 164.092,140.991 163.604,144.105 164.092,147.219 165.511,150.034 167.723,152.279 170.517,153.74 173.624,154.274 176.745,153.832 179.581,152.455 181.859,150.276 181.859,150.276 183.124,149.066 184.699,148.301 186.433,148.055 188.159,148.352 189.711,149.163 190.94,150.411 191.729,151.975 192,153.705 192,153.705 192,192 "/>
        <polyline fill="none" stroke="#000000" stroke-width="1" points="  96,192 96,228.789 96,228.789 95.7783,230.263 95.133,231.606 94.121,232.701 92.8318,233.449 91.3797,233.785 89.8929,233.679 88.503,233.141 87.3329,232.217 87.3329,232.217 85.2268,230.555 82.725,229.586 80.0487,229.395 77.4348,230 75.1144,231.347 73.2928,233.317 72.1311,235.735 71.7321,238.389 72.1311,241.042 73.2928,243.46 75.1144,245.43 77.4348,246.777 80.0487,247.382 82.725,247.192 85.2268,246.222 87.3329,244.56 87.3329,244.56 88.503,243.637 89.8929,243.098 91.3797,242.992 92.8318,243.328 94.121,244.077 95.133,245.171 95.7783,246.515 96,247.989 96,247.989 96,288 "/>
        <polyline fill="none" stroke="#000000" stroke-width="1" points="  192,192 192,224.285 192,224.285 191.731,226.004 190.948,227.56 189.728,228.801 188.186,229.61 186.471,229.908 184.747,229.668 183.178,228.912 181.916,227.713 181.916,227.713 179.645,225.554 176.822,224.194 173.718,223.761 170.631,224.299 167.856,225.755 165.659,227.989 164.251,230.789 163.766,233.885 164.251,236.98 165.659,239.78 167.856,242.014 170.631,243.47 173.718,244.008 176.822,243.575 179.645,242.215 181.916,240.056 181.916,240.056 183.178,238.857 184.747,238.101 186.471,237.861 188.186,238.159 189.728,238.968 190.948,240.209 191.731,241.765 192,243.485 192,243.485 192,288 "/>
        <polyline fill="none" stroke="#000000" stroke-width="1" points="  96,288 96,334.016 96,334.016 96.2786,335.783 97.0874,337.379 98.3479,338.649 99.9379,339.469 101.703,339.76 103.472,339.494 105.074,338.696 106.352,337.445 106.352,337.445 108.653,335.192 111.536,333.757 114.72,333.278 117.897,333.802 120.759,335.278 123.028,337.563 124.484,340.435 124.985,343.616 124.484,346.797 123.028,349.669 120.759,351.955 117.897,353.431 114.72,353.955 111.536,353.476 108.653,352.04 106.352,349.788 106.352,349.788 105.074,348.536 103.472,347.739 101.703,347.473 99.9379,347.764 98.3479,348.584 97.0874,349.853 96.2786,351.449 96,353.216 96,353.216 96,384 "/>
        <polyline fill="none" stroke="#000000" stroke-width="1" points="  192,288 192,316.876 192,316.876 192.211,318.294 192.825,319.59 193.79,320.651 195.022,321.385 196.414,321.729 197.846,321.653 199.194,321.164 200.341,320.304 200.341,320.304 202.407,318.756 204.833,317.876 207.411,317.739 209.917,318.359 212.134,319.681 213.87,321.59 214.976,323.923 215.356,326.476 214.976,329.029 213.87,331.361 212.134,333.271 209.917,334.592 207.411,335.212 204.833,335.076 202.407,334.195 200.341,332.647 200.341,332.647 199.194,331.787 197.846,331.298 196.414,331.222 195.022,331.566 193.79,332.301 192.825,333.362 192.211,334.657 192,336.076 192,336.076 192,384 "/>
        <polyline fill="none" stroke="#000000" stroke-width="1" points="  96,384 96,430.272 96,430.272 96.2129,431.7 96.833,433.005 97.8065,434.072 99.0488,434.809 100.452,435.151 101.894,435.07 103.25,434.572 104.401,433.7 104.401,433.7 106.474,432.131 108.915,431.234 111.511,431.088 114.036,431.705 116.272,433.031 118.025,434.952 119.141,437.3 119.524,439.872 119.141,442.443 118.025,444.791 116.272,446.712 114.036,448.038 111.511,448.655 108.915,448.509 106.474,447.612 104.401,446.043 104.401,446.043 103.25,445.171 101.894,444.673 100.452,444.592 99.0488,444.935 97.8065,445.671 96.833,446.738 96.2129,448.043 96,449.472 96,449.472 96,480 "/>
        <polyline fill="none" stroke="#000000" stroke-width="1" points="  192,384 192,430.797 192,430.797 191.735,432.494 190.965,434.03 189.764,435.258 188.245,436.062 186.554,436.364 184.851,436.136 183.299,435.4 182.045,434.226 182.045,434.226 179.788,432.112 176.994,430.787 173.929,430.377 170.885,430.921 168.151,432.367 165.989,434.577 164.603,437.342 164.126,440.397 164.603,443.452 165.989,446.217 168.151,448.427 170.885,449.873 173.929,450.417 176.994,450.007 179.788,448.682 182.045,446.569 182.045,446.569 183.299,445.394 184.851,444.658 186.554,444.43 188.245,444.733 189.764,445.536 190.965,446.764 191.735,448.3 192,449.997 192,449.997 192,480 "/>
        <polyline fill="none" stroke="#000000" stroke-width="1" points="  96,480 96,508.837 96,508.837 96.2715,510.568 97.0601,512.133 98.2898,513.38 99.8426,514.192 101.569,514.489 103.304,514.243 104.88,513.477 106.146,512.266 106.146,512.266 108.424,510.085 111.261,508.707 114.383,508.264 117.491,508.799 120.286,510.259 122.5,512.505 123.919,515.322 124.408,518.437 123.919,521.553 122.5,524.369 120.286,526.615 117.491,528.076 114.383,528.61 111.261,528.167 108.424,526.789 106.146,524.609 106.146,524.609 104.88,523.397 103.304,522.632 101.569,522.386 99.8426,522.682 98.2898,523.494 97.0601,524.742 96.2715,526.306 96,528.037 96,528.037 96,576 "/>
        <polyline fill="none" stroke="#000000" stroke-width="1" points="  192,480 192,520.344 192,520.344 192.274,522.09 193.071,523.667 194.314,524.924 195.882,525.739 197.624,526.033 199.373,525.779 200.959,525 202.23,523.773 202.23,523.773 204.518,521.563 207.373,520.161 210.521,519.703 213.658,520.234 216.48,521.7 218.716,523.963 220.151,526.802 220.645,529.944 220.151,533.086 218.716,535.925 216.48,538.188 213.658,539.655 210.521,540.185 207.373,539.727 204.518,538.325 202.23,536.115 202.23,536.115 200.959,534.888 199.373,534.109 197.624,533.855 195.882,534.149 194.314,534.964 193.071,536.221 192.274,537.798 192,539.544 192,539.544 192,576 "/>
    </g>
</svg>
