<?xml version="1.0" encoding="utf-8"?>
<!DOCTYPE svg PUBLIC "-//W3C//DTD SVG 1.0//EN" "http://www.w3.org/TR/2001/REC-SVG-20010904/DTD/svg10.dtd" [
<!ENTITY ns_svg "http://www.w3.org/2000/svg">
]>
<svg xmlns="&ns_svg;" width="576" height="288" overflow="visible">
    <g id="Layer_1">
        <rect x="0" y="0" rx="0" ry="0" width="576" height="288" fill="none" stroke="#000000"/>
        <polyline fill="none" stroke="#000000" stroke-width="1" points="  0,96 46.3942,96 46.3942,96 47.9573,96.2389 49.3777,96.934 50.5256,98.0216 51.2961,99.4025 51.6189,100.95 51.4645,102.524 50.847,103.98 49.8228,105.185 49.8228,105.185 47.9792,107.353 46.8677,109.974 46.5897,112.806 47.1708,115.593 48.5577,118.078 50.6239,120.036 53.1805,121.287 55.9942,121.717 58.8078,121.287 61.3645,120.036 63.4307,118.078 64.8176,115.593 65.3986,112.806 65.1207,109.974 64.0092,107.353 62.1656,105.185 62.1656,105.185 61.1414,103.98 60.5239,102.524 60.3695,100.95 60.6923,99.4025 61.4628,98.0216 62.6107,96.934 64.031,96.2389 65.5942,96 65.5942,96 96,96 "/>
        <polyline fill="none" stroke="#000000" stroke-width="1" points="  96,96 124.803,96 124.803,96 126.317,95.7705 127.696,95.1025 128.815,94.0561 129.573,92.7251 129.903,91.2292 129.775,89.7027 129.201,88.2827 128.231,87.0966 128.231,87.0966 126.486,84.9616 125.452,82.4055 125.222,79.6577 125.816,76.9651 127.181,74.5695 129.195,72.6859 131.676,71.4835 134.403,71.0704 137.129,71.4835 139.61,72.6859 141.624,74.5695 142.989,76.9651 143.584,79.6577 143.353,82.4055 142.319,84.9616 140.574,87.0966 140.574,87.0966 139.605,88.2827 139.03,89.7027 138.902,91.2292 139.232,92.7251 139.991,94.0561 141.11,95.1025 142.488,95.7705 144.003,96 144.003,96 192,96 "/>
        <polyline fill="none" stroke="#000000" stroke-width="1" points="  192,96 231.784,96 231.784,96 233.462,96.2613 234.982,97.0206 236.198,98.206 236.997,99.7051 237.302,101.376 237.085,103.061 236.365,104.6 235.212,105.847 235.212,105.847 233.137,108.092 231.842,110.862 231.451,113.894 232,116.902 233.437,119.601 235.627,121.734 238.363,123.101 241.384,123.571 244.405,123.101 247.14,121.734 249.33,119.601 250.768,116.902 251.317,113.894 250.926,110.862 249.631,108.092 247.555,105.847 247.555,105.847 246.402,104.6 245.683,103.061 245.465,101.376 245.77,99.7051 246.569,98.206 247.786,97.0206 249.305,96.2613 250.984,96 250.984,96 288,96 "/>
        <polyline fill="none" stroke="#000000" stroke-width="1" points="  288,96 331.912,96 331.912,96 333.656,96.274 335.231,97.0697 336.487,98.3103 337.301,99.8762 337.596,101.616 337.343,103.363 336.566,104.948 335.341,106.218 335.341,106.218 333.135,108.505 331.737,111.358 331.281,114.502 331.812,117.635 333.278,120.453 335.538,122.686 338.374,124.118 341.512,124.612 344.651,124.118 347.487,122.686 349.747,120.453 351.213,117.635 351.743,114.502 351.288,111.358 349.889,108.505 347.684,106.218 347.684,106.218 346.458,104.948 345.681,103.363 345.428,101.616 345.723,99.8762 346.537,98.3103 347.793,97.0697 349.368,96.274 351.112,96 351.112,96 384,96 "/>
        <polyline fill="none" stroke="#000000" stroke-width="1" points="  384,96 427.944,96 427.944,96 429.429,95.7761 430.783,95.1244 431.884,94.1026 432.635,92.8017 432.969,91.3372 432.857,89.8391 432.309,88.4407 431.372,87.2661 431.372,87.2661 429.687,85.1518 428.699,82.6345 428.497,79.9381 429.099,77.3019 430.451,74.9603 432.434,73.1211 434.87,71.948 437.544,71.545 440.218,71.948 442.654,73.1211 444.636,74.9603 445.988,77.3019 446.59,79.9381 446.388,82.6345 445.401,85.1518 443.715,87.2661 443.715,87.2661 442.779,88.4407 442.23,89.8391 442.118,91.3372 442.452,92.8017 443.204,94.1026 444.305,95.1244 445.658,95.7761 447.144,96 447.144,96 480,96 "/>
        <polyline fill="none" stroke="#000000" stroke-width="1" points="  480,96 521.09,96 521.09,96 522.644,96.2373 524.057,96.9274 525.2,98.0077 525.968,99.3796 526.292,100.918 526.143,102.484 525.533,103.933 524.518,105.135 524.518,105.135 522.692,107.297 521.595,109.906 521.325,112.724 521.909,115.493 523.292,117.963 525.349,119.907 527.892,121.15 530.69,121.577 533.488,121.15 536.031,119.907 538.088,117.963 539.471,115.493 540.054,112.724 539.785,109.906 538.687,107.297 536.861,105.135 536.861,105.135 535.847,103.933 535.237,102.484 535.087,100.918 535.411,99.3796 536.18,98.0077 537.322,96.9274 538.735,96.2373 540.29,96 540.29,96 576,96 "/>
        <polyline fill="none" stroke="#000000" stroke-width="1" points="  0,192 29.4464,192 29.4464,192 30.8449,192.207 32.1234,192.81 33.1723,193.758 33.9015,194.969 34.2485,196.34 34.1836,197.752 33.7123,199.085 32.8749,200.224 32.8749,200.224 31.2896,202.426 30.4606,205.009 30.4689,207.722 31.3135,210.301 32.9122,212.493 35.1091,214.085 37.6898,214.921 40.4029,214.921 42.9837,214.085 45.1805,212.493 46.7792,210.301 47.6239,207.722 47.6321,205.009 46.8031,202.426 45.2178,200.224 45.2178,200.224 44.3805,199.085 43.9091,197.752 43.8442,196.34 44.1912,194.969 44.9205,193.758 45.9693,192.81 47.2479,192.207 48.6464,192 48.6464,192 96,192 "/>
        <polyline fill="none" stroke="#000000" stroke-width="1" points="  96,192 129.624,192 129.624,192 131.022,191.793 132.3,191.19 133.349,190.243 134.078,189.032 134.425,187.663 134.36,186.251 133.889,184.919 133.053,183.78 133.053,183.78 131.469,181.579 130.642,178.997 130.65,176.285 131.495,173.709 133.093,171.518 135.289,169.927 137.869,169.091 140.58,169.091 143.16,169.927 145.356,171.518 146.954,173.709 147.798,176.285 147.807,178.997 146.98,181.579 145.396,183.78 145.396,183.78 144.559,184.919 144.089,186.251 144.024,187.663 144.371,189.032 145.1,190.243 146.149,191.19 147.427,191.793 148.824,192 148.824,192 192,192 "/>
        <polyline fill="none" stroke="#000000" stroke-width="1" points="  192,192 224.801,192 224.801,192 226.289,192.224 227.645,192.878 228.748,193.902 229.499,195.205 229.833,196.672 229.72,198.173 229.169,199.573 228.229,200.749 228.229,200.749 226.539,202.865 225.547,205.386 225.342,208.087 225.944,210.728 227.297,213.075 229.282,214.918 231.722,216.094 234.401,216.498 237.079,216.094 239.52,214.918 241.505,213.075 242.858,210.728 243.459,208.087 243.255,205.386 242.263,202.865 240.572,200.749 240.572,200.749 239.633,199.573 239.082,198.173 238.968,196.672 239.302,195.205 240.054,193.902 241.157,192.878 242.513,192.224 244.001,192 244.001,192 288,192 "/>
        <polyline fill="none" stroke="#000000" stroke-width="1" points="  288,192 327.606,192 327.606,192 329.252,191.745 330.744,191.004 331.941,189.846 332.732,188.38 333.042,186.743 332.843,185.089 332.152,183.573 331.035,182.338 331.035,182.338 329.024,180.114 327.78,177.385 327.421,174.409 327.979,171.463 329.402,168.824 331.558,166.739 334.243,165.405 337.206,164.946 340.169,165.405 342.854,166.739 345.01,168.824 346.433,171.463 346.991,174.409 346.632,177.385 345.388,180.114 343.377,182.338 343.377,182.338 342.26,183.573 341.569,185.089 341.37,186.743 341.68,188.38 342.471,189.846 343.668,191.004 345.16,191.745 346.806,192 346.806,192 384,192 "/>
        <polyline fill="none" stroke="#000000" stroke-width="1" points="  384,192 426.085,192 426.085,192 427.56,191.778 428.904,191.133 429.999,190.12 430.747,188.83 431.083,187.378 430.977,185.89 430.438,184.5 429.514,183.33 429.514,183.33 427.85,181.223 426.88,178.721 426.689,176.043 427.294,173.428 428.641,171.107 430.612,169.285 433.031,168.122 435.685,167.723 438.339,168.122 440.759,169.285 442.729,171.107 444.076,173.428 444.681,176.043 444.49,178.721 443.52,181.223 441.857,183.33 441.857,183.33 440.933,184.5 440.394,185.89 440.287,187.378 440.623,188.83 441.372,190.12 442.467,191.133 443.811,191.778 445.285,192 445.285,192 480,192 "/>
        <polyline fill="none" stroke="#000000" stroke-width="1" points="  480,192 523.209,192 523.209,192 524.893,191.738 526.418,190.975 527.638,189.785 528.438,188.28 528.742,186.603 528.522,184.912 527.797,183.369 526.638,182.12 526.638,182.12 524.551,179.871 523.247,177.094 522.85,174.052 523.397,171.033 524.837,168.324 527.034,166.181 529.778,164.809 532.809,164.336 535.841,164.809 538.585,166.181 540.781,168.324 542.221,171.033 542.769,174.052 542.372,177.094 541.068,179.871 538.981,182.12 538.981,182.12 537.821,183.369 537.097,184.912 536.876,186.603 537.18,188.28 537.98,189.785 539.201,190.975 540.725,191.738 542.409,192 542.409,192 576,192 "/>
        <polyline fill="none" stroke="#000000" stroke-width="1" points="  96,0 96,31.3674 96,31.3674 95.7561,32.9561 95.0468,34.3985 93.9374,35.5617 92.5302,36.3386 90.9548,36.6575 89.3563,36.4891 87.8819,35.8489 86.6675,34.7959 86.6675,34.7959 84.4815,32.9006 81.8275,31.7483 78.9502,31.4452 76.1144,32.0192 73.5815,33.4175 71.5847,35.5113 70.3079,38.1076 69.8689,40.9674 70.3079,43.8271 71.5847,46.4235 73.5815,48.5172 76.1144,49.9155 78.9502,50.4896 81.8275,50.1865 84.4815,49.0342 86.6675,47.1388 86.6675,47.1388 87.8819,46.0858 89.3563,45.4456 90.9548,45.2773 92.5302,45.5962 93.9374,46.373 95.0468,47.5362 95.7561,48.9786 96,50.5674 96,50.5674 96,96 "/>
        <polyline fill="none" stroke="#000000" stroke-width="1" points="  192,0 192,38.3427 192,38.3427 192.218,39.7958 192.851,41.1214 193.846,42.2032 195.113,42.9462 196.543,43.2854 198.009,43.1909 199.383,42.6709 200.545,41.7712 200.545,41.7712 202.636,40.1518 205.11,39.2159 207.749,39.0458 210.322,39.6562 212.604,40.9937 214.393,42.941 215.534,45.3271 215.926,47.9427 215.534,50.5583 214.393,52.9443 212.604,54.8916 210.322,56.2291 207.749,56.8396 205.11,56.6694 202.636,55.7335 200.545,54.1141 200.545,54.1141 199.383,53.2144 198.009,52.6945 196.543,52.5999 195.113,52.9391 193.846,53.6822 192.851,54.764 192.218,56.0896 192,57.5427 192,57.5427 192,96 "/>
        <polyline fill="none" stroke="#000000" stroke-width="1" points="  288,0 288,47.6178 288,47.6178 287.752,49.2258 287.032,50.6848 285.907,51.8595 284.48,52.6411 282.884,52.957 281.267,52.7781 279.778,52.121 278.557,51.0464 278.557,51.0464 276.358,49.1122 273.679,47.9292 270.768,47.6072 267.895,48.1759 265.327,49.5828 263.3,51.6972 262.004,54.3234 261.559,57.2178 262.004,60.1122 263.3,62.7384 265.327,64.8529 267.895,66.2597 270.768,66.8284 273.679,66.5064 276.358,65.3235 278.557,63.3892 278.557,63.3892 279.778,62.3147 281.267,61.6575 282.884,61.4786 284.48,61.7946 285.907,62.5761 287.032,63.7508 287.752,65.2098 288,66.8178 288,66.8178 288,96 "/>
        <polyline fill="none" stroke="#000000" stroke-width="1" points="  384,0 384,29.0171 384,29.0171 384.262,30.6982 385.023,32.2201 386.21,33.4384 387.712,34.2377 389.386,34.5424 391.073,34.3235 392.614,33.6018 393.862,32.4457 393.862,32.4457 396.109,30.3647 398.882,29.0656 401.919,28.6717 404.932,29.2201 407.636,30.6589 409.773,32.8519 411.143,35.5912 411.614,38.6171 411.143,41.6431 409.773,44.3824 407.636,46.5753 404.932,48.0142 401.919,48.5626 398.882,48.1687 396.109,46.8696 393.862,44.7886 393.862,44.7886 392.614,43.6324 391.073,42.9107 389.386,42.6919 387.712,42.9965 386.21,43.7959 385.023,45.0142 384.262,46.536 384,48.2171 384,48.2171 384,96 "/>
        <polyline fill="none" stroke="#000000" stroke-width="1" points="  480,0 480,44.614 480,44.614 479.787,46.0441 479.166,47.3498 478.191,48.4177 476.947,49.155 475.543,49.4975 474.099,49.4154 472.742,48.916 471.59,48.0426 471.59,48.0426 469.516,46.4705 467.074,45.5715 464.475,45.4239 461.947,46.0404 459.708,47.3674 457.954,49.2896 456.836,51.6399 456.452,54.214 456.836,56.7881 457.954,59.1384 459.708,61.0607 461.947,62.3877 464.475,63.0042 467.074,62.8565 469.516,61.9576 471.59,60.3855 471.59,60.3855 472.742,59.5121 474.099,59.0126 475.543,58.9306 476.947,59.2731 478.191,60.0103 479.166,61.0783 479.787,62.384 480,63.814 480,63.814 480,96 "/>
        <polyline fill="none" stroke="#000000" stroke-width="1" points="  96,96 96,131.822 96,131.822 96.2383,133.382 96.9315,134.8 98.0164,135.945 99.3939,136.715 100.938,137.038 102.509,136.886 103.962,136.271 105.166,135.251 105.166,135.251 107.332,133.414 109.948,132.307 112.775,132.033 115.555,132.615 118.035,134 119.988,136.063 121.235,138.614 121.664,141.422 121.235,144.23 119.988,146.782 118.035,148.844 115.555,150.23 112.775,150.812 109.948,150.537 107.332,149.431 105.166,147.594 105.166,147.594 103.962,146.573 102.509,145.958 100.938,145.806 99.3939,146.129 98.0164,146.899 96.9315,148.045 96.2383,149.462 96,151.022 96,151.022 96,192 "/>
        <polyline fill="none" stroke="#000000" stroke-width="1" points="  192,96 192,134.921 192,134.921 191.75,136.542 191.023,138.011 189.886,139.194 188.446,139.979 186.836,140.293 185.207,140.107 183.709,139.438 182.483,138.349 182.483,138.349 180.276,136.389 177.58,135.186 174.647,134.851 171.75,135.417 169.157,136.829 167.112,138.957 165.803,141.603 165.353,144.521 165.803,147.438 167.112,150.084 169.157,152.212 171.75,153.625 174.647,154.19 177.58,153.855 180.276,152.652 182.483,150.692 182.483,150.692 183.709,149.603 185.207,148.935 186.836,148.749 188.446,149.063 189.886,149.848 191.023,151.03 191.75,152.5 192,154.121 192,154.121 192,192 "/>
        <polyline fill="none" stroke="#000000" stroke-width="1" points="  288,96 288,134.859 288,134.859 287.755,136.455 287.042,137.903 285.926,139.071 284.512,139.849 282.929,140.167 281.324,139.995 279.845,139.348 278.628,138.288 278.628,138.288 276.437,136.378 273.774,135.215 270.884,134.905 268.035,135.477 265.49,136.879 263.482,138.98 262.199,141.587 261.757,144.459 262.199,147.331 263.482,149.938 265.49,152.04 268.035,153.441 270.884,154.013 273.774,153.703 276.437,152.54 278.628,150.631 278.628,150.631 279.845,149.57 281.324,148.923 282.929,148.751 284.512,149.069 285.926,149.848 287.042,151.015 287.755,152.463 288,154.059 288,154.059 288,192 "/>
        <polyline fill="none" stroke="#000000" stroke-width="1" points="  384,96 384,128.468 384,128.468 383.723,130.229 382.917,131.82 381.661,133.086 380.077,133.904 378.318,134.196 376.555,133.933 374.958,133.141 373.681,131.896 373.681,131.896 371.384,129.655 368.508,128.229 365.334,127.756 362.168,128.281 359.317,129.755 357.057,132.034 355.607,134.897 355.107,138.068 355.607,141.238 357.057,144.101 359.317,146.38 362.168,147.854 365.334,148.379 368.508,147.906 371.384,146.48 373.681,144.239 373.681,144.239 374.958,142.994 376.555,142.202 378.318,141.939 380.077,142.231 381.661,143.049 382.917,144.315 383.723,145.906 384,147.668 384,147.668 384,192 "/>
        <polyline fill="none" stroke="#000000" stroke-width="1" points="  480,96 480,130.652 480,130.652 480.267,132.357 481.041,133.899 482.249,135.132 483.775,135.937 485.475,136.238 487.185,136.006 488.743,135.263 490,134.08 490,134.08 492.262,131.951 495.066,130.614 498.144,130.196 501.203,130.737 503.951,132.187 506.126,134.406 507.519,137.182 507.999,140.252 507.519,143.321 506.126,146.097 503.951,148.316 501.203,149.766 498.144,150.307 495.066,149.889 492.262,148.552 490,146.423 490,146.423 488.743,145.24 487.185,144.497 485.475,144.265 483.775,144.566 482.249,145.371 481.041,146.604 480.267,148.146 480,149.852 480,149.852 480,192 "/>
        <polyline fill="none" stroke="#000000" stroke-width="1" points="  96,192 96,235.731 96,235.731 95.7407,237.398 94.9874,238.909 93.8111,240.119 92.3229,240.915 90.6632,241.222 88.9887,241.01 87.4575,240.3 86.2141,239.159 86.2141,239.159 83.9759,237.105 81.2197,235.827 78.2057,235.446 75.2182,235.998 72.5395,237.431 70.4221,239.61 69.0661,242.329 68.5994,245.331 69.0661,248.333 70.4221,251.051 72.5395,253.23 75.2182,254.663 78.2057,255.215 81.2197,254.834 83.9759,253.556 86.2141,251.502 86.2141,251.502 87.4575,250.361 88.9887,249.651 90.6632,249.439 92.3229,249.746 93.8111,250.542 94.9874,251.753 95.7407,253.263 96,254.931 96,254.931 96,288 "/>
        <polyline fill="none" stroke="#000000" stroke-width="1" points="  192,192 192,227.008 192,227.008 192.211,228.425 192.824,229.719 193.787,230.779 195.017,231.512 196.407,231.857 197.837,231.782 199.183,231.295 200.33,230.437 200.33,230.437 202.394,228.893 204.818,228.015 207.392,227.881 209.894,228.501 212.107,229.822 213.841,231.729 214.945,234.059 215.324,236.608 214.945,239.158 213.841,241.487 212.107,243.395 209.894,244.716 207.392,245.336 204.818,245.201 202.394,244.324 200.33,242.78 200.33,242.78 199.183,241.922 197.837,241.435 196.407,241.36 195.017,241.704 193.787,242.438 192.824,243.498 192.211,244.792 192,246.208 192,246.208 192,288 "/>
        <polyline fill="none" stroke="#000000" stroke-width="1" points="  288,192 288,239.664 288,239.664 287.773,241.166 287.112,242.534 286.076,243.645 284.757,244.401 283.275,244.733 281.76,244.611 280.349,244.048 279.168,243.092 279.168,243.092 277.042,241.372 274.502,240.358 271.776,240.14 269.107,240.737 266.734,242.097 264.87,244.097 263.68,246.56 263.271,249.264 263.68,251.968 264.87,254.43 266.734,256.431 269.107,257.79 271.776,258.388 274.502,258.169 277.042,257.155 279.168,255.435 279.168,255.435 280.349,254.48 281.76,253.916 283.275,253.795 284.757,254.127 286.076,254.882 287.112,255.993 287.773,257.361 288,258.864 288,258.864 288,288 "/>
        <polyline fill="none" stroke="#000000" stroke-width="1" points="  384,192 384,221.206 384,221.206 384.263,222.895 385.029,224.424 386.223,225.647 387.733,226.448 389.415,226.751 391.11,226.528 392.657,225.799 393.908,224.634 393.908,224.634 396.16,222.537 398.943,221.226 401.994,220.824 405.022,221.37 407.74,222.812 409.89,225.014 411.268,227.765 411.742,230.806 411.268,233.846 409.89,236.598 407.74,238.799 405.022,240.242 401.994,240.788 398.943,240.386 396.16,239.074 393.908,236.977 393.908,236.977 392.657,235.812 391.11,235.083 389.415,234.86 387.733,235.164 386.223,235.965 385.029,237.188 384.263,238.717 384,240.406 384,240.406 384,288 "/>
        <polyline fill="none" stroke="#000000" stroke-width="1" points="  480,192 480,236.828 480,236.828 479.778,238.304 479.132,239.649 478.118,240.744 476.827,241.493 475.373,241.829 473.885,241.722 472.493,241.182 471.323,240.256 471.323,240.256 469.215,238.59 466.711,237.618 464.032,237.426 461.414,238.031 459.09,239.378 457.266,241.35 456.103,243.771 455.703,246.428 456.103,249.084 457.266,251.505 459.09,253.477 461.414,254.825 464.032,255.429 466.711,255.237 469.215,254.265 471.323,252.599 471.323,252.599 472.493,251.674 473.885,251.134 475.373,251.027 476.827,251.363 478.118,252.111 479.132,253.207 479.778,254.552 480,256.028 480,256.028 480,288 "/>
    </g>
</svg>
