<?xml version="1.0" encoding="utf-8"?>
<!DOCTYPE svg PUBLIC "-//W3C//DTD SVG 1.0//EN" "http://www.w3.org/TR/2001/REC-SVG-20010904/DTD/svg10.dtd" [
<!ENTITY ns_svg "http://www.w3.org/2000/svg">
]>
<svg xmlns="&ns_svg;" width="288" height="288" overflow="visible">
    <g id="Layer_1">
        <rect x="0" y="0" rx="0" ry="0" width="288" height="288" fill="none" stroke="#000000"/>
        <polyline fill="none" stroke="#000000" stroke-width="1" points="  0,36 8.69724,36 8.69724,36 9.19815,35.9216 9.65111,35.6938 10.0128,35.3384 10.2485,34.8895 10.3357,34.39 10.266,33.8878 10.0462,33.431 9.69724,33.0631 9.69724,33.0631 9.06911,32.4011 8.67343,31.5787 8.54807,30.6747 8.70504,29.7757 9.12932,28.9677 9.78027,28.328 10.5956,27.918 11.4972,27.7768 12.3989,27.918 13.2142,28.328 13.8652,28.9677 14.2894,29.7757 14.4464,30.6747 14.3211,31.5787 13.9254,32.4011 13.2972,33.0631 13.2972,33.0631 12.9483,33.431 12.7285,33.8878 12.6588,34.39 12.746,34.8895 12.9817,35.3384 13.3434,35.6938 13.7963,35.9216 14.2972,36 14.2972,36 28,36 "/>
        <polyline fill="none" stroke="#000000" stroke-width="1" points="  28,36 41.6831,36 41.6831,36 42.1795,35.9231 42.6294,35.6997 42.9906,35.3507 43.2292,34.9087 43.3231,34.4153 43.2632,33.9166 43.0553,33.4593 42.7189,33.0864 42.7189,33.0864 42.1132,32.4151 41.739,31.5921 41.6313,30.6944 41.8002,29.8063 42.2298,29.0108 42.88,28.3825 43.6897,27.9803 44.5831,27.842 45.4766,27.9803 46.2863,28.3825 46.9365,29.0108 47.3661,29.8063 47.535,30.6944 47.4273,31.5921 47.0531,32.4151 46.4474,33.0864 46.4474,33.0864 46.111,33.4593 45.9031,33.9166 45.8432,34.4153 45.937,34.9087 46.1757,35.3507 46.5369,35.6997 46.9868,35.9231 47.4831,36 47.4831,36 57,36 "/>
        <polyline fill="none" stroke="#000000" stroke-width="1" points="  57,36 70.3143,36 70.3143,36 70.8263,35.9201 71.2896,35.6879 71.6601,35.3256 71.9026,34.8676 71.994,34.3575 71.9256,33.8438 71.7039,33.3754 71.35,32.9969 71.35,32.9969 70.713,32.3155 70.3139,31.4723 70.1907,30.5477 70.3552,29.6295 70.7917,28.8051 71.4587,28.153 72.2926,27.7351 73.2143,27.5912 74.1359,27.7351 74.9699,28.153 75.6368,28.8051 76.0733,29.6295 76.2378,30.5477 76.1147,31.4723 75.7156,32.3155 75.0786,32.9969 75.0786,32.9969 74.7247,33.3754 74.5029,33.8438 74.4345,34.3575 74.5259,34.8676 74.7684,35.3256 75.1389,35.6879 75.6022,35.9201 76.1143,36 76.1143,36 86,36 "/>
        <polyline fill="none" stroke="#000000" stroke-width="1" points="  86,36 97.4197,36 97.4197,36 97.8648,35.9331 98.2706,35.7382 98.6011,35.4326 98.8271,35.0433 98.9286,34.6048 98.8967,34.1557 98.7342,33.736 98.4554,33.3826 98.4554,33.3826 97.9535,32.7465 97.6609,31.9909 97.6035,31.1826 97.7863,30.3933 98.1931,29.6926 98.788,29.1425 99.5184,28.7917 100.32,28.6712 101.121,28.7917 101.851,29.1425 102.446,29.6926 102.853,30.3933 103.036,31.1826 102.978,31.9909 102.686,32.7465 102.184,33.3826 102.184,33.3826 101.905,33.736 101.743,34.1557 101.711,34.6048 101.812,35.0433 102.038,35.4326 102.369,35.7382 102.775,35.9331 103.22,36 103.22,36 115,36 "/>
        <polyline fill="none" stroke="#000000" stroke-width="1" points="  115,36 124.033,36 124.033,36 124.482,36.0675 124.89,36.264 125.222,36.5722 125.449,36.9645 125.55,37.4062 125.517,37.8581 125.351,38.2801 125.069,38.6347 125.069,38.6347 124.561,39.273 124.264,40.0325 124.204,40.846 124.386,41.6411 124.794,42.3473 125.392,42.9019 126.127,43.2557 126.933,43.3772 127.74,43.2557 128.475,42.9019 129.073,42.3473 129.481,41.6411 129.663,40.846 129.603,40.0325 129.306,39.273 128.798,38.6347 128.798,38.6347 128.516,38.2801 128.35,37.8581 128.317,37.4062 128.418,36.9645 128.645,36.5722 128.977,36.264 129.385,36.0675 129.833,36 129.833,36 144,36 "/>
        <polyline fill="none" stroke="#000000" stroke-width="1" points="  144,36 152.606,36 152.606,36 153.071,36.0713 153.492,36.2786 153.832,36.6027 154.058,37.0139 154.151,37.4742 154.102,37.9411 153.914,38.3717 153.606,38.7262 153.606,38.7262 153.052,39.3642 152.715,40.1392 152.626,40.9797 152.793,41.8082 153.201,42.5483 153.813,43.1318 154.571,43.5049 155.406,43.6332 156.242,43.5049 157,43.1318 157.612,42.5483 158.02,41.8082 158.187,40.9797 158.098,40.1392 157.761,39.3642 157.206,38.7262 157.206,38.7262 156.899,38.3717 156.711,37.9411 156.662,37.4742 156.755,37.0139 156.981,36.6027 157.321,36.2786 157.742,36.0713 158.206,36 158.206,36 172,36 "/>
        <polyline fill="none" stroke="#000000" stroke-width="1" points="  172,36 185.983,36 185.983,36 186.45,35.9288 186.875,35.7217 187.219,35.3974 187.45,34.9855 187.548,34.5233 187.504,34.0528 187.322,33.6167 187.019,33.2547 187.019,33.2547 186.472,32.6031 186.144,31.8182 186.065,30.9713 186.242,30.1394 186.659,29.3979 187.278,28.8142 188.042,28.4414 188.883,28.3132 189.724,28.4414 190.488,28.8142 191.107,29.3979 191.524,30.1394 191.701,30.9713 191.622,31.8182 191.294,32.6031 190.747,33.2547 190.747,33.2547 190.444,33.6167 190.262,34.0528 190.218,34.5233 190.316,34.9855 190.547,35.3974 190.891,35.7217 191.316,35.9288 191.783,36 191.783,36 201,36 "/>
        <polyline fill="none" stroke="#000000" stroke-width="1" points="  201,36 212.264,36 212.264,36 212.72,36.0691 213.136,36.2704 213.473,36.5856 213.702,36.9866 213.802,37.4374 213.764,37.8976 213.591,38.3258 213.299,38.6837 213.299,38.6837 212.774,39.328 212.464,40.0988 212.395,40.9271 212.575,41.7385 212.987,42.4603 213.594,43.0278 214.342,43.39 215.164,43.5145 215.986,43.39 216.734,43.0278 217.341,42.4603 217.753,41.7385 217.933,40.9271 217.864,40.0988 217.553,39.328 217.028,38.6837 217.028,38.6837 216.736,38.3258 216.564,37.8976 216.526,37.4374 216.625,36.9866 216.854,36.5856 217.192,36.2704 217.607,36.0691 218.064,36 218.064,36 230,36 "/>
        <polyline fill="none" stroke="#000000" stroke-width="1" points="  230,36 239.493,36 239.493,36 240.011,35.9189 240.48,35.6832 240.854,35.3156 241.098,34.8513 241.188,34.3345 241.117,33.8149 240.889,33.3421 240.529,32.9613 240.529,32.9613 239.879,32.276 239.47,31.4249 239.341,30.4895 239.504,29.5594 239.943,28.7236 240.616,28.0619 241.46,27.6378 242.393,27.4917 243.326,27.6378 244.169,28.0619 244.843,28.7236 245.282,29.5594 245.445,30.4895 245.316,31.4249 244.907,32.276 244.257,32.9613 244.257,32.9613 243.896,33.3421 243.669,33.8149 243.597,34.3345 243.688,34.8513 243.932,35.3156 244.306,35.6832 244.775,35.9189 245.293,36 245.293,36 259,36 "/>
        <polyline fill="none" stroke="#000000" stroke-width="1" points="  259,36 268.414,36 268.414,36 268.942,35.917 269.419,35.676 269.799,35.3004 270.045,34.8262 270.134,34.2994 270.057,33.7707 269.821,33.2911 269.45,32.907 269.45,32.907 268.781,32.2156 268.357,31.3525 268.218,30.4008 268.378,29.4524 268.822,28.599 269.506,27.9228 270.364,27.489 271.314,27.3396 272.264,27.489 273.122,27.9228 273.806,28.599 274.25,29.4524 274.41,30.4008 274.271,31.3525 273.847,32.2156 273.178,32.907 273.178,32.907 272.807,33.2911 272.571,33.7707 272.494,34.2994 272.583,34.8262 272.829,35.3004 273.209,35.676 273.686,35.917 274.214,36 274.214,36 288,36 "/>
        <polyline fill="none" stroke="#000000" stroke-width="1" points="  0,72 9.33316,72 9.33316,72 9.7561,71.9367 10.142,71.7523 10.457,71.4631 10.6735,71.0943 10.7725,70.6783 10.7454,70.2515 10.5946,69.8513 10.3332,69.5129 10.3332,69.5129 9.86263,68.9037 9.59108,68.1834 9.54231,67.4152 9.7206,66.6663 10.1103,66.0025 10.6773,65.4818 11.3719,65.15 12.1332,65.0361 12.8945,65.15 13.589,65.4818 14.156,66.0025 14.5457,66.6663 14.724,67.4152 14.6752,68.1834 14.4037,68.9037 13.9332,69.5129 13.9332,69.5129 13.6718,69.8513 13.5209,70.2515 13.4938,70.6783 13.5928,71.0943 13.8094,71.4631 14.1243,71.7523 14.5102,71.9367 14.9332,72 14.9332,72 28,72 "/>
        <polyline fill="none" stroke="#000000" stroke-width="1" points="  28,72 40.6686,72 40.6686,72 41.0917,71.9373 41.4784,71.7547 41.7956,71.4679 42.0161,71.1014 42.1208,70.6867 42.1009,70.2595 41.9579,69.8564 41.7043,69.512 41.7043,69.512 41.2241,68.8464 40.9726,68.0651 40.9746,67.2443 41.2297,66.4642 41.713,65.8009 42.3775,65.3191 43.1582,65.0658 43.979,65.0658 44.7597,65.3191 45.4241,65.8009 45.9075,66.4642 46.1626,67.2443 46.1645,68.0651 45.9131,68.8464 45.4329,69.512 45.4329,69.512 45.1792,69.8564 45.0363,70.2595 45.0164,70.6867 45.1211,71.1014 45.3415,71.4679 45.6588,71.7547 46.0455,71.9373 46.4686,72 46.4686,72 57,72 "/>
        <polyline fill="none" stroke="#000000" stroke-width="1" points="  57,72 70.1441,72 70.1441,72 70.6079,71.9295 71.0296,71.7242 71.3713,71.4029 71.602,70.9944 71.7008,70.5359 71.6587,70.0687 71.4797,69.6352 71.1799,69.2745 71.1799,69.2745 70.6401,68.6252 70.3179,67.8448 70.2422,67.0039 70.42,66.1785 70.8352,65.4434 71.4502,64.8649 72.2094,64.4955 73.0441,64.3685 73.8789,64.4955 74.6381,64.8649 75.2531,65.4434 75.6683,66.1785 75.8461,67.0039 75.7704,67.8448 75.4482,68.6252 74.9084,69.2745 74.9084,69.2745 74.6086,69.6352 74.4295,70.0687 74.3875,70.5359 74.4863,70.9944 74.717,71.4029 75.0586,71.7242 75.4804,71.9295 75.9441,72 75.9441,72 86,72 "/>
        <polyline fill="none" stroke="#000000" stroke-width="1" points="  86,72 99.4648,72 99.4648,72 99.9554,72.0758 100.4,72.2959 100.758,72.6401 100.995,73.0761 101.09,73.5634 101.033,74.0565 100.831,74.5096 100.501,74.8804 100.501,74.8804 99.9065,75.5479 99.5415,76.3634 99.4395,77.2511 99.61,78.1282 100.037,78.913 100.681,79.5324 101.482,79.9288 102.365,80.0651 103.248,79.9288 104.049,79.5324 104.693,78.913 105.12,78.1282 105.29,77.2511 105.188,76.3634 104.823,75.5479 104.229,74.8804 104.229,74.8804 103.899,74.5096 103.696,74.0565 103.64,73.5634 103.734,73.0761 103.972,72.6401 104.329,72.2959 104.774,72.0758 105.265,72 105.265,72 115,72 "/>
        <polyline fill="none" stroke="#000000" stroke-width="1" points="  115,72 128.926,72 128.926,72 129.352,72.0633 129.742,72.2477 130.061,72.5373 130.282,72.9071 130.386,73.3253 130.365,73.7557 130.219,74.1613 129.962,74.507 129.962,74.507 129.498,75.1293 129.236,75.8593 129.197,76.6341 129.385,77.3868 129.783,78.0525 130.357,78.5738 131.058,78.9057 131.826,79.0196 132.593,78.9057 133.294,78.5738 133.869,78.0525 134.267,77.3868 134.455,76.6341 134.416,75.8593 134.153,75.1293 133.69,74.507 133.69,74.507 133.433,74.1613 133.287,73.7557 133.265,73.3253 133.37,72.9071 133.591,72.5373 133.91,72.2477 134.3,72.0633 134.726,72 134.726,72 144,72 "/>
        <polyline fill="none" stroke="#000000" stroke-width="1" points="  144,72 157.69,72 157.69,72 158.134,72.0673 158.537,72.2631 158.865,72.5698 159.086,72.9598 159.182,73.398 159.144,73.8449 158.975,74.2604 158.69,74.607 158.69,74.607 158.178,75.2309 157.873,75.9788 157.804,76.7833 157.977,77.572 158.376,78.274 158.966,78.8261 159.692,79.1785 160.49,79.2996 161.289,79.1785 162.015,78.8261 162.604,78.274 163.003,77.572 163.176,76.7833 163.107,75.9788 162.803,75.2309 162.29,74.607 162.29,74.607 162.006,74.2604 161.836,73.8449 161.798,73.398 161.894,72.9598 162.116,72.5698 162.443,72.2631 162.847,72.0673 163.29,72 163.29,72 172,72 "/>
        <polyline fill="none" stroke="#000000" stroke-width="1" points="  172,72 185.003,72 185.003,72 185.478,72.0727 185.91,72.2843 186.258,72.6152 186.492,73.0352 186.589,73.5059 186.541,73.984 186.352,74.4258 186.039,74.7908 186.039,74.7908 185.476,75.4478 185.136,76.2431 185.049,77.1037 185.224,77.9509 185.644,78.7069 186.272,79.3026 187.048,79.6834 187.903,79.8143 188.758,79.6834 189.535,79.3026 190.162,78.7069 190.582,77.9509 190.757,77.1037 190.671,76.2431 190.33,75.4478 189.768,74.7908 189.768,74.7908 189.455,74.4258 189.266,73.984 189.218,73.5059 189.315,73.0352 189.548,72.6152 189.897,72.2843 190.328,72.0727 190.803,72 190.803,72 201,72 "/>
        <polyline fill="none" stroke="#000000" stroke-width="1" points="  201,72 209.743,72 209.743,72 210.178,71.935 210.576,71.7455 210.9,71.4482 211.124,71.0689 211.227,70.6409 211.2,70.2015 211.046,69.7891 210.779,69.4396 210.779,69.4396 210.297,68.8106 210.02,68.0682 209.972,67.2772 210.157,66.5068 210.56,65.8242 211.144,65.289 211.859,64.948 212.643,64.8309 213.427,64.948 214.142,65.289 214.726,65.8242 215.129,66.5068 215.314,67.2772 215.266,68.0682 214.989,68.8106 214.507,69.4396 214.507,69.4396 214.24,69.7891 214.086,70.2015 214.059,70.6409 214.162,71.0689 214.386,71.4482 214.71,71.7455 215.108,71.935 215.543,72 215.543,72 230,72 "/>
        <polyline fill="none" stroke="#000000" stroke-width="1" points="  230,72 241.929,72 241.929,72 242.36,72.0643 242.755,72.2518 243.077,72.546 243.3,72.9215 243.403,73.3455 243.379,73.7813 243.228,74.191 242.964,74.539 242.964,74.539 242.49,75.1653 242.219,75.9028 242.175,76.6872 242.361,77.4506 242.762,78.1264 243.342,78.656 244.052,78.9934 244.829,79.1092 245.606,78.9934 246.315,78.656 246.896,78.1264 247.297,77.4506 247.483,76.6872 247.439,75.9028 247.167,75.1653 246.693,74.539 246.693,74.539 246.429,74.191 246.279,73.7813 246.254,73.3455 246.358,72.9215 246.58,72.546 246.903,72.2518 247.297,72.0643 247.729,72 247.729,72 259,72 "/>
        <polyline fill="none" stroke="#000000" stroke-width="1" points="  259,72 268.477,72 268.477,72 268.922,72.0669 269.328,72.2618 269.658,72.5674 269.884,72.9566 269.986,73.3952 269.954,73.8441 269.791,74.2639 269.512,74.6173 269.512,74.6173 269.011,75.2534 268.718,76.009 268.661,76.8171 268.843,77.6065 269.25,78.3071 269.845,78.8572 270.576,79.2079 271.377,79.3284 272.178,79.2079 272.908,78.8572 273.503,78.3071 273.91,77.6065 274.093,76.8171 274.035,76.009 273.743,75.2534 273.241,74.6173 273.241,74.6173 272.962,74.2639 272.8,73.8441 272.768,73.3952 272.869,72.9566 273.095,72.5674 273.426,72.2618 273.832,72.0669 274.277,72 274.277,72 288,72 "/>
        <polyline fill="none" stroke="#000000" stroke-width="1" points="  0,108 10.1877,108 10.1877,108 10.6333,108.068 11.0387,108.265 11.3673,108.573 11.5895,108.965 11.6852,109.406 11.6458,109.855 11.4748,110.272 11.1877,110.619 11.1877,110.619 10.6709,111.245 10.3632,111.995 10.2922,112.803 10.4645,113.596 10.8644,114.302 11.4559,114.857 12.1856,115.212 12.9877,115.334 13.7898,115.212 14.5195,114.857 15.111,114.302 15.511,113.596 15.6832,112.803 15.6123,111.995 15.3045,111.245 14.7877,110.619 14.7877,110.619 14.5006,110.272 14.3296,109.855 14.2902,109.406 14.3859,108.965 14.6081,108.573 14.9367,108.265 15.3421,108.068 15.7877,108 15.7877,108 28,108 "/>
        <polyline fill="none" stroke="#000000" stroke-width="1" points="  28,108 38.9299,108 38.9299,108 39.3555,108.063 39.7445,108.247 40.0633,108.536 40.2844,108.905 40.3888,109.323 40.3674,109.753 40.2222,110.158 39.9656,110.503 39.9656,110.503 39.5037,111.125 39.2423,111.854 39.2038,112.628 39.3917,113.379 39.7897,114.044 40.3635,114.564 41.0637,114.895 41.8299,115.009 42.5961,114.895 43.2962,114.564 43.87,114.044 44.268,113.379 44.4559,112.628 44.4175,111.854 44.156,111.125 43.6942,110.503 43.6942,110.503 43.4375,110.158 43.2923,109.753 43.271,109.323 43.3753,108.905 43.5964,108.536 43.9152,108.247 44.3042,108.063 44.7299,108 44.7299,108 57,108 "/>
        <polyline fill="none" stroke="#000000" stroke-width="1" points="  57,108 70.69,108 70.69,108 71.1828,107.924 71.6297,107.702 71.9888,107.356 72.2266,106.918 72.321,106.428 72.263,105.933 72.0582,105.478 71.7257,105.107 71.7257,105.107 71.1271,104.438 70.7584,103.619 70.6542,102.727 70.824,101.846 71.2521,101.057 71.8985,100.434 72.7028,100.035 73.59,99.8983 74.4771,100.035 75.2814,100.434 75.9278,101.057 76.3559,101.846 76.5257,102.727 76.4215,103.619 76.0528,104.438 75.4543,105.107 75.4543,105.107 75.1217,105.478 74.9169,105.933 74.859,106.428 74.9533,106.918 75.1912,107.356 75.5503,107.702 75.9971,107.924 76.49,108 76.49,108 86,108 "/>
        <polyline fill="none" stroke="#000000" stroke-width="1" points="  86,108 94.8992,108 94.8992,108 95.3993,107.922 95.8523,107.697 96.2157,107.345 96.4553,106.899 96.5486,106.402 96.4867,105.899 96.2755,105.439 95.9349,105.065 95.9349,105.065 95.3218,104.391 94.9416,103.564 94.8303,102.659 94.9981,101.764 95.4294,100.962 96.0835,100.328 96.899,99.9219 97.7992,99.7822 98.6993,99.9219 99.5148,100.328 100.169,100.962 100.6,101.764 100.768,102.659 100.657,103.564 100.277,104.391 99.6635,105.065 99.6635,105.065 99.3228,105.439 99.1117,105.899 99.0498,106.402 99.143,106.899 99.3826,107.345 99.746,107.697 100.199,107.922 100.699,108 100.699,108 115,108 "/>
        <polyline fill="none" stroke="#000000" stroke-width="1" points="  115,108 128.174,108 128.174,108 128.641,107.929 129.067,107.721 129.411,107.396 129.643,106.984 129.741,106.521 129.697,106.049 129.514,105.613 129.209,105.25 129.209,105.25 128.661,104.598 128.332,103.812 128.253,102.964 128.429,102.131 128.846,101.388 129.466,100.803 130.231,100.43 131.074,100.301 131.916,100.43 132.681,100.803 133.301,101.388 133.718,102.131 133.895,102.964 133.815,103.812 133.486,104.598 132.938,105.25 132.938,105.25 132.633,105.613 132.451,106.049 132.406,106.521 132.505,106.984 132.736,107.396 133.08,107.721 133.506,107.929 133.974,108 133.974,108 144,108 "/>
        <polyline fill="none" stroke="#000000" stroke-width="1" points="  144,108 156.757,108 156.757,108 157.174,107.938 157.555,107.757 157.867,107.472 158.082,107.109 158.182,106.699 158.158,106.278 158.012,105.882 157.757,105.545 157.757,105.545 157.298,104.94 157.035,104.227 156.992,103.469 157.171,102.731 157.559,102.077 158.12,101.565 158.806,101.239 159.557,101.127 160.308,101.239 160.994,101.565 161.555,102.077 161.942,102.731 162.122,103.469 162.079,104.227 161.816,104.94 161.357,105.545 161.357,105.545 161.102,105.882 160.956,106.278 160.932,106.699 161.032,107.109 161.247,107.472 161.558,107.757 161.94,107.938 162.357,108 162.357,108 172,108 "/>
        <polyline fill="none" stroke="#000000" stroke-width="1" points="  172,108 184.717,108 184.717,108 185.247,107.917 185.725,107.674 186.107,107.297 186.353,106.82 186.442,106.291 186.364,105.76 186.126,105.279 185.752,104.894 185.752,104.894 185.079,104.201 184.652,103.335 184.511,102.38 184.67,101.427 185.114,100.57 185.801,99.8901 186.662,99.4541 187.617,99.3039 188.571,99.4541 189.432,99.8901 190.119,100.57 190.563,101.427 190.722,102.38 190.581,103.335 190.154,104.201 189.481,104.894 189.481,104.894 189.107,105.279 188.869,105.76 188.791,106.291 188.88,106.82 189.126,107.297 189.508,107.674 189.986,107.917 190.517,108 190.517,108 201,108 "/>
        <polyline fill="none" stroke="#000000" stroke-width="1" points="  201,108 209.942,108 209.942,108 210.445,107.922 210.9,107.695 211.265,107.341 211.505,106.893 211.598,106.393 211.534,105.889 211.321,105.427 210.978,105.052 210.978,105.052 210.36,104.377 209.976,103.546 209.863,102.638 210.03,101.738 210.462,100.931 211.119,100.294 211.938,99.8856 212.842,99.7451 213.747,99.8856 214.566,100.294 215.222,100.931 215.655,101.738 215.822,102.638 215.708,103.546 215.324,104.377 214.707,105.052 214.707,105.052 214.363,105.427 214.15,105.889 214.087,106.393 214.18,106.893 214.42,107.341 214.785,107.695 215.24,107.922 215.742,108 215.742,108 230,108 "/>
        <polyline fill="none" stroke="#000000" stroke-width="1" points="  230,108 238.898,108 238.898,108 239.349,108.068 239.759,108.266 240.093,108.576 240.32,108.971 240.421,109.415 240.386,109.869 240.219,110.293 239.934,110.649 239.934,110.649 239.421,111.289 239.12,112.052 239.057,112.869 239.239,113.669 239.648,114.38 240.249,114.938 240.987,115.294 241.798,115.417 242.609,115.294 243.348,114.938 243.949,114.38 244.358,113.669 244.539,112.869 244.477,112.052 244.176,111.289 243.663,110.649 243.663,110.649 243.378,110.293 243.21,109.869 243.176,109.415 243.276,108.971 243.504,108.576 243.837,108.266 244.248,108.068 244.698,108 244.698,108 259,108 "/>
        <polyline fill="none" stroke="#000000" stroke-width="1" points="  259,108 268.941,108 268.941,108 269.441,108.078 269.894,108.303 270.257,108.655 270.496,109.101 270.59,109.598 270.528,110.1 270.317,110.56 269.976,110.934 269.976,110.934 269.364,111.608 268.984,112.435 268.873,113.339 269.04,114.234 269.472,115.036 270.126,115.67 270.941,116.076 271.841,116.215 272.741,116.076 273.556,115.67 274.21,115.036 274.641,114.234 274.809,113.339 274.698,112.435 274.318,111.608 273.705,110.934 273.705,110.934 273.365,110.56 273.153,110.1 273.092,109.598 273.185,109.101 273.425,108.655 273.788,108.303 274.241,108.078 274.741,108 274.741,108 288,108 "/>
        <polyline fill="none" stroke="#000000" stroke-width="1" points="  0,144 11.8283,144 11.8283,144 12.3281,143.922 12.7801,143.695 13.1411,143.34 13.3766,142.892 13.464,142.394 13.3949,141.893 13.176,141.437 12.8283,141.069 12.8283,141.069 12.2023,140.408 11.8084,139.587 11.6841,138.685 11.8414,137.788 12.2652,136.982 12.915,136.344 13.7286,135.935 14.6283,135.794 15.528,135.935 16.3416,136.344 16.9914,136.982 17.4152,137.788 17.5725,138.685 17.4482,139.587 17.0542,140.408 16.4283,141.069 16.4283,141.069 16.0805,141.437 15.8617,141.893 15.7926,142.394 15.88,142.892 16.1155,143.34 16.4765,143.695 16.9285,143.922 17.4283,144 17.4283,144 28,144 "/>
        <polyline fill="none" stroke="#000000" stroke-width="1" points="  28,144 36.8512,144 36.8512,144 37.3092,143.931 37.7261,143.729 38.0644,143.412 38.2936,143.009 38.3933,142.557 38.3543,142.095 38.1804,141.666 37.8869,141.307 37.8869,141.307 37.3588,140.662 37.0456,139.889 36.9755,139.058 37.1549,138.244 37.5675,137.519 38.1764,136.95 38.9268,136.586 39.7512,136.461 40.5757,136.586 41.3261,136.95 41.9349,137.519 42.3476,138.244 42.5269,139.058 42.4568,139.889 42.1437,140.662 41.6155,141.307 41.6155,141.307 41.3221,141.666 41.1481,142.095 41.1092,142.557 41.2088,143.009 41.438,143.412 41.7763,143.729 42.1932,143.931 42.6512,144 42.6512,144 57,144 "/>
        <polyline fill="none" stroke="#000000" stroke-width="1" points="  57,144 70.2454,144 70.2454,144 70.7153,144.072 71.1423,144.28 71.4876,144.607 71.7198,145.022 71.8177,145.487 71.7723,145.96 71.5879,146.398 71.2811,146.761 71.2811,146.761 70.729,147.414 70.397,148.203 70.3154,149.054 70.4916,149.891 70.9095,150.638 71.5311,151.226 72.2997,151.601 73.1454,151.73 73.9911,151.601 74.7598,151.226 75.3814,150.638 75.7993,149.891 75.9754,149.054 75.8938,148.203 75.5618,147.414 75.0097,146.761 75.0097,146.761 74.703,146.398 74.5185,145.96 74.4732,145.487 74.5711,145.022 74.8032,144.607 75.1486,144.28 75.5756,144.072 76.0454,144 76.0454,144 86,144 "/>
        <polyline fill="none" stroke="#000000" stroke-width="1" points="  86,144 99.3363,144 99.3363,144 99.8544,143.919 100.323,143.683 100.697,143.316 100.941,142.852 101.032,142.335 100.96,141.816 100.733,141.343 100.372,140.962 100.372,140.962 99.7228,140.277 99.3141,139.426 99.185,138.491 99.3477,137.561 99.7869,136.725 100.46,136.064 101.304,135.64 102.236,135.494 103.169,135.64 104.012,136.064 104.686,136.725 105.125,137.561 105.288,138.491 105.159,139.426 104.75,140.277 104.101,140.962 104.101,140.962 103.74,141.343 103.513,141.816 103.441,142.335 103.532,142.852 103.776,143.316 104.15,143.683 104.618,143.919 105.136,144 105.136,144 115,144 "/>
        <polyline fill="none" stroke="#000000" stroke-width="1" points="  115,144 124.31,144 124.31,144 124.783,144.072 125.212,144.283 125.559,144.612 125.792,145.03 125.89,145.498 125.843,145.974 125.656,146.414 125.345,146.779 125.345,146.779 124.787,147.434 124.45,148.227 124.366,149.084 124.541,149.927 124.96,150.679 125.585,151.271 126.358,151.65 127.21,151.78 128.061,151.65 128.834,151.271 129.459,150.679 129.878,149.927 130.054,149.084 129.969,148.227 129.632,147.434 129.074,146.779 129.074,146.779 128.764,146.414 128.577,145.974 128.53,145.498 128.627,145.03 128.86,144.612 129.207,144.283 129.637,144.072 130.11,144 130.11,144 144,144 "/>
        <polyline fill="none" stroke="#000000" stroke-width="1" points="  144,144 152.687,144 152.687,144 153.183,144.077 153.631,144.302 153.989,144.652 154.223,145.096 154.311,145.589 154.245,146.086 154.03,146.539 153.687,146.904 153.687,146.904 153.071,147.563 152.684,148.378 152.564,149.272 152.723,150.16 153.145,150.958 153.79,151.589 154.596,151.993 155.487,152.132 156.379,151.993 157.185,151.589 157.83,150.958 158.252,150.16 158.411,149.272 158.291,148.378 157.904,147.563 157.287,146.904 157.287,146.904 156.945,146.539 156.73,146.086 156.663,145.589 156.752,145.096 156.986,144.652 157.344,144.302 157.792,144.077 158.287,144 158.287,144 172,144 "/>
        <polyline fill="none" stroke="#000000" stroke-width="1" points="  172,144 183.267,144 183.267,144 183.745,143.927 184.178,143.714 184.529,143.38 184.763,142.958 184.859,142.484 184.81,142.003 184.618,141.559 184.303,141.193 184.303,141.193 183.734,140.534 183.39,139.736 183.3,138.87 183.474,138.018 183.896,137.256 184.526,136.657 185.307,136.273 186.167,136.141 187.027,136.273 187.808,136.657 188.438,137.256 188.859,138.018 189.033,138.87 188.944,139.736 188.599,140.534 188.031,141.193 188.031,141.193 187.715,141.559 187.524,142.003 187.474,142.484 187.571,142.958 187.805,143.38 188.155,143.714 188.589,143.927 189.067,144 189.067,144 201,144 "/>
        <polyline fill="none" stroke="#000000" stroke-width="1" points="  201,144 213.411,144 213.411,144 213.924,143.92 214.389,143.687 214.761,143.323 215.003,142.863 215.095,142.352 215.025,141.836 214.802,141.367 214.446,140.988 214.446,140.988 213.806,140.305 213.405,139.46 213.28,138.532 213.444,137.611 213.881,136.784 214.55,136.129 215.386,135.71 216.311,135.565 217.235,135.71 218.072,136.129 218.741,136.784 219.178,137.611 219.342,138.532 219.217,139.46 218.815,140.305 218.175,140.988 218.175,140.988 217.819,141.367 217.596,141.836 217.527,142.352 217.618,142.863 217.861,143.323 218.232,143.687 218.697,143.92 219.211,144 219.211,144 230,144 "/>
        <polyline fill="none" stroke="#000000" stroke-width="1" points="  230,144 242.709,144 242.709,144 243.142,144.065 243.538,144.253 243.861,144.548 244.084,144.925 244.187,145.351 244.162,145.788 244.01,146.198 243.745,146.547 243.745,146.547 243.268,147.174 242.994,147.914 242.949,148.7 243.135,149.466 243.536,150.145 244.118,150.676 244.829,151.015 245.609,151.131 246.389,151.015 247.1,150.676 247.682,150.145 248.084,149.466 248.27,148.7 248.224,147.914 247.951,147.174 247.473,146.547 247.473,146.547 247.208,146.198 247.056,145.788 247.031,145.351 247.134,144.925 247.357,144.548 247.681,144.253 248.076,144.065 248.509,144 248.509,144 259,144 "/>
        <polyline fill="none" stroke="#000000" stroke-width="1" points="  259,144 270.379,144 270.379,144 270.894,143.919 271.361,143.685 271.733,143.32 271.977,142.858 272.068,142.344 271.997,141.827 271.772,141.356 271.414,140.976 271.414,140.976 270.77,140.292 270.365,139.445 270.238,138.514 270.402,137.589 270.84,136.758 271.511,136.1 272.35,135.678 273.279,135.533 274.207,135.678 275.046,136.1 275.717,136.758 276.155,137.589 276.319,138.514 276.192,139.445 275.787,140.292 275.143,140.976 275.143,140.976 274.785,141.356 274.56,141.827 274.49,142.344 274.58,142.858 274.824,143.32 275.196,143.685 275.663,143.919 276.179,144 276.179,144 288,144 "/>
        <polyline fill="none" stroke="#000000" stroke-width="1" points="  0,180 13.1252,180 13.1252,180 13.5496,179.936 13.9368,179.751 14.2528,179.461 14.4697,179.09 14.5685,178.673 14.5405,178.244 14.3883,177.843 14.1252,177.504 14.1252,177.504 13.6515,176.894 13.3775,176.171 13.3272,175.4 13.5051,174.648 13.8955,173.982 14.4641,173.459 15.1611,173.125 15.9252,173.011 16.6892,173.125 17.3862,173.459 17.9548,173.982 18.3453,174.648 18.5231,175.4 18.4729,176.171 18.1988,176.894 17.7252,177.504 17.7252,177.504 17.462,177.843 17.3098,178.244 17.2818,178.673 17.3807,179.09 17.5976,179.461 17.9135,179.751 18.3007,179.936 18.7252,180 18.7252,180 28,180 "/>
        <polyline fill="none" stroke="#000000" stroke-width="1" points="  28,180 39.1368,180 39.1368,180 39.6093,179.928 40.0387,179.718 40.3856,179.389 40.6185,178.971 40.7159,178.503 40.6691,178.028 40.4823,177.588 40.1725,177.223 40.1725,177.223 39.6149,176.568 39.2786,175.776 39.1943,174.92 39.3697,174.077 39.7888,173.326 40.4133,172.734 41.1862,172.356 42.0368,172.226 42.8873,172.356 43.6602,172.734 44.2847,173.326 44.7038,174.077 44.8792,174.92 44.795,175.776 44.4586,176.568 43.901,177.223 43.901,177.223 43.5913,177.588 43.4044,178.028 43.3576,178.503 43.4551,178.971 43.6879,179.389 44.0349,179.718 44.4642,179.928 44.9368,180 44.9368,180 57,180 "/>
        <polyline fill="none" stroke="#000000" stroke-width="1" points="  57,180 70.9686,180 70.9686,180 71.4246,179.931 71.8398,179.73 72.1768,179.415 72.4056,179.015 72.5055,178.564 72.4677,178.105 72.2954,177.677 72.0043,177.319 72.0043,177.319 71.4802,176.675 71.1702,175.905 71.1021,175.078 71.282,174.267 71.6938,173.546 72.3005,172.98 73.0477,172.618 73.8686,172.494 74.6894,172.618 75.4367,172.98 76.0434,173.546 76.4551,174.267 76.635,175.078 76.5669,175.905 76.2569,176.675 75.7329,177.319 75.7329,177.319 75.4417,177.677 75.2695,178.105 75.2317,178.564 75.3316,179.015 75.5604,179.415 75.8974,179.73 76.3126,179.931 76.7686,180 76.7686,180 86,180 "/>
        <polyline fill="none" stroke="#000000" stroke-width="1" points="  86,180 97.4517,180 97.4517,180 97.8941,179.934 98.2975,179.74 98.6263,179.437 98.8516,179.051 98.9536,178.615 98.9232,178.169 98.7631,177.751 98.4874,177.399 98.4874,177.399 97.9912,176.765 97.7031,176.013 97.6483,175.209 97.8319,174.426 98.2374,173.73 98.8294,173.184 99.5554,172.836 100.352,172.717 101.148,172.836 101.874,173.184 102.466,173.73 102.872,174.426 103.055,175.209 103,176.013 102.712,176.765 102.216,177.399 102.216,177.399 101.94,177.751 101.78,178.169 101.75,178.615 101.852,179.051 102.077,179.437 102.406,179.74 102.809,179.934 103.252,180 103.252,180 115,180 "/>
        <polyline fill="none" stroke="#000000" stroke-width="1" points="  115,180 124.111,180 124.111,180 124.639,180.083 125.116,180.324 125.496,180.7 125.742,181.174 125.831,181.701 125.754,182.23 125.518,182.71 125.147,183.094 125.147,183.094 124.478,183.786 124.053,184.649 123.914,185.601 124.074,186.55 124.518,187.404 125.202,188.08 126.06,188.514 127.011,188.664 127.961,188.514 128.82,188.08 129.504,187.404 129.947,186.55 130.107,185.601 129.968,184.649 129.544,183.786 128.875,183.094 128.875,183.094 128.503,182.71 128.268,182.23 128.191,181.701 128.279,181.174 128.526,180.7 128.906,180.324 129.383,180.083 129.911,180 129.911,180 144,180 "/>
        <polyline fill="none" stroke="#000000" stroke-width="1" points="  144,180 156.721,180 156.721,180 157.225,180.079 157.681,180.309 158.045,180.667 158.281,181.119 158.368,181.622 158.297,182.127 158.074,182.586 157.721,182.955 157.721,182.955 157.087,183.62 156.686,184.446 156.557,185.356 156.713,186.261 157.139,187.075 157.793,187.72 158.614,188.133 159.521,188.275 160.429,188.133 161.249,187.72 161.904,187.075 162.329,186.261 162.485,185.356 162.357,184.446 161.956,183.62 161.321,182.955 161.321,182.955 160.969,182.586 160.746,182.127 160.675,181.622 160.761,181.119 160.998,180.667 161.361,180.309 161.817,180.079 162.321,180 162.321,180 172,180 "/>
        <polyline fill="none" stroke="#000000" stroke-width="1" points="  172,180 181.758,180 181.758,180 182.193,180.065 182.59,180.254 182.915,180.552 183.138,180.931 183.241,181.359 183.215,181.798 183.061,182.21 182.793,182.56 182.793,182.56 182.312,183.189 182.035,183.931 181.987,184.721 182.173,185.492 182.575,186.174 183.159,186.709 183.874,187.05 184.658,187.167 185.441,187.05 186.156,186.709 186.74,186.174 187.143,185.492 187.328,184.721 187.28,183.931 187.004,183.189 186.522,182.56 186.522,182.56 186.254,182.21 186.101,181.798 186.074,181.359 186.177,180.931 186.401,180.552 186.725,180.254 187.122,180.065 187.558,180 187.558,180 201,180 "/>
        <polyline fill="none" stroke="#000000" stroke-width="1" points="  201,180 214.486,180 214.486,180 214.938,179.932 215.349,179.733 215.684,179.422 215.911,179.026 216.012,178.581 215.976,178.125 215.808,177.701 215.522,177.345 215.522,177.345 215.007,176.704 214.704,175.94 214.64,175.12 214.821,174.318 215.231,173.605 215.833,173.045 216.573,172.688 217.386,172.565 218.199,172.688 218.94,173.045 219.541,173.605 219.951,174.318 220.132,175.12 220.069,175.94 219.766,176.704 219.25,177.345 219.25,177.345 218.964,177.701 218.796,178.125 218.761,178.581 218.861,179.026 219.089,179.422 219.423,179.733 219.835,179.932 220.286,180 220.286,180 230,180 "/>
        <polyline fill="none" stroke="#000000" stroke-width="1" points="  230,180 241.263,180 241.263,180 241.73,179.929 242.155,179.722 242.499,179.398 242.73,178.986 242.828,178.524 242.785,178.054 242.603,177.618 242.299,177.256 242.299,177.256 241.753,176.604 241.425,175.819 241.347,174.973 241.523,174.141 241.94,173.4 242.559,172.817 243.323,172.444 244.163,172.316 245.004,172.444 245.768,172.817 246.387,173.4 246.803,174.141 246.98,174.973 246.901,175.819 246.574,176.604 246.028,177.256 246.028,177.256 245.724,177.618 245.542,178.054 245.498,178.524 245.597,178.986 245.828,179.398 246.172,179.722 246.596,179.929 247.063,180 247.063,180 259,180 "/>
        <polyline fill="none" stroke="#000000" stroke-width="1" points="  259,180 273.136,180 273.136,180 273.67,179.916 274.154,179.671 274.538,179.289 274.786,178.807 274.873,178.273 274.792,177.738 274.551,177.253 274.171,176.866 274.171,176.866 273.488,176.171 273.053,175.298 272.907,174.334 273.065,173.373 273.512,172.506 274.203,171.819 275.073,171.378 276.036,171.226 276.998,171.378 277.868,171.819 278.559,172.506 279.006,173.373 279.164,174.334 279.018,175.298 278.583,176.171 277.9,176.866 277.9,176.866 277.52,177.253 277.279,177.738 277.198,178.273 277.285,178.807 277.533,179.289 277.918,179.671 278.401,179.916 278.936,180 278.936,180 288,180 "/>
        <polyline fill="none" stroke="#000000" stroke-width="1" points="  0,216 11.6385,216 11.6385,216 12.0954,215.93 12.5106,215.727 12.846,215.409 13.0709,215.005 13.1649,214.552 13.1194,214.092 12.9384,213.667 12.6385,213.315 12.6385,213.315 12.0988,212.682 11.773,211.917 11.6909,211.089 11.8601,210.274 12.2651,209.547 12.8688,208.975 13.6161,208.609 14.4385,208.483 15.261,208.609 16.0082,208.975 16.6119,209.547 17.0169,210.274 17.1861,211.089 17.104,211.917 16.7782,212.682 16.2385,213.315 16.2385,213.315 15.9387,213.667 15.7577,214.092 15.7121,214.552 15.8061,215.005 16.0311,215.409 16.3665,215.727 16.7816,215.93 17.2385,216 17.2385,216 28,216 "/>
        <polyline fill="none" stroke="#000000" stroke-width="1" points="  28,216 37.5588,216 37.5588,216 38.094,215.916 38.5773,215.67 38.9616,215.288 39.2096,214.807 39.2974,214.272 39.2162,213.736 38.9741,213.252 38.5945,212.865 38.5945,212.865 37.9112,212.169 37.4754,211.296 37.3293,210.332 37.4872,209.37 37.9337,208.502 38.6255,207.815 39.4954,207.374 40.4588,207.222 41.4222,207.374 42.292,207.815 42.9838,208.502 43.4303,209.37 43.5882,210.332 43.4422,211.296 43.0063,212.169 42.3231,212.865 42.3231,212.865 41.9435,213.252 41.7013,213.736 41.6202,214.272 41.7079,214.807 41.956,215.288 42.3403,215.67 42.8235,215.916 43.3588,216 43.3588,216 57,216 "/>
        <polyline fill="none" stroke="#000000" stroke-width="1" points="  57,216 69.0265,216 69.0265,216 69.529,215.922 69.9841,215.695 70.3489,215.341 70.5891,214.893 70.682,214.393 70.6188,213.888 70.4055,213.427 70.0622,213.051 70.0622,213.051 69.4443,212.376 69.0604,211.545 68.9467,210.637 69.1138,209.737 69.5462,208.93 70.2029,208.293 71.0221,207.885 71.9265,207.744 72.831,207.885 73.6501,208.293 74.3069,208.93 74.7392,209.737 74.9063,210.637 74.7926,211.545 74.4087,212.376 73.7908,213.051 73.7908,213.051 73.4475,213.427 73.2342,213.888 73.171,214.393 73.2639,214.893 73.5041,215.341 73.8689,215.695 74.324,215.922 74.8265,216 74.8265,216 86,216 "/>
        <polyline fill="none" stroke="#000000" stroke-width="1" points="  86,216 99.7864,216 99.7864,216 100.226,215.934 100.628,215.742 100.955,215.441 101.18,215.057 101.282,214.624 101.253,214.18 101.095,213.764 100.822,213.413 100.822,213.413 100.331,212.78 100.046,212.032 99.9941,211.233 100.178,210.453 100.583,209.762 101.172,209.22 101.894,208.874 102.686,208.756 103.478,208.874 104.201,209.22 104.79,209.762 105.195,210.453 105.379,211.233 105.326,212.032 105.042,212.78 104.551,213.413 104.551,213.413 104.278,213.764 104.12,214.18 104.091,214.624 104.193,215.057 104.418,215.441 104.745,215.742 105.146,215.934 105.586,216 105.586,216 115,216 "/>
        <polyline fill="none" stroke="#000000" stroke-width="1" points="  115,216 124.646,216 124.646,216 125.175,215.917 125.652,215.675 126.033,215.298 126.28,214.823 126.368,214.295 126.291,213.765 126.054,213.285 125.681,212.9 125.681,212.9 125.01,212.208 124.584,211.343 124.444,210.39 124.604,209.439 125.048,208.583 125.733,207.905 126.593,207.47 127.546,207.321 128.498,207.47 129.358,207.905 130.043,208.583 130.487,209.439 130.647,210.39 130.507,211.343 130.081,212.208 129.41,212.9 129.41,212.9 129.037,213.285 128.8,213.765 128.723,214.295 128.811,214.823 129.058,215.298 129.439,215.675 129.917,215.917 130.446,216 130.446,216 144,216 "/>
        <polyline fill="none" stroke="#000000" stroke-width="1" points="  144,216 157.417,216 157.417,216 157.861,215.933 158.265,215.737 158.593,215.43 158.814,215.039 158.91,214.601 158.872,214.154 158.702,213.738 158.417,213.391 158.417,213.391 157.904,212.767 157.599,212.019 157.53,211.214 157.703,210.425 158.102,209.722 158.692,209.17 159.419,208.817 160.217,208.696 161.016,208.817 161.743,209.17 162.333,209.722 162.732,210.425 162.905,211.214 162.835,212.019 162.531,212.767 162.017,213.391 162.017,213.391 161.732,213.738 161.563,214.154 161.524,214.601 161.62,215.039 161.842,215.43 162.17,215.737 162.574,215.933 163.017,216 163.017,216 172,216 "/>
        <polyline fill="none" stroke="#000000" stroke-width="1" points="  172,216 183.754,216 183.754,216 184.242,216.075 184.684,216.294 185.04,216.635 185.276,217.068 185.371,217.552 185.316,218.042 185.116,218.493 184.79,218.863 184.79,218.863 184.202,219.528 183.842,220.34 183.743,221.223 183.914,222.094 184.34,222.873 184.98,223.488 185.776,223.881 186.654,224.016 187.532,223.881 188.328,223.488 188.968,222.873 189.394,222.094 189.565,221.223 189.466,220.34 189.106,219.528 188.518,218.863 188.518,218.863 188.192,218.493 187.992,218.042 187.937,217.552 188.032,217.068 188.268,216.635 188.624,216.294 189.066,216.075 189.554,216 189.554,216 201,216 "/>
        <polyline fill="none" stroke="#000000" stroke-width="1" points="  201,216 215.384,216 215.384,216 215.859,215.927 216.291,215.715 216.64,215.384 216.874,214.963 216.971,214.492 216.922,214.013 216.733,213.571 216.42,213.206 216.42,213.206 215.856,212.548 215.515,211.752 215.427,210.891 215.602,210.043 216.022,209.285 216.65,208.689 217.428,208.308 218.284,208.176 219.14,208.308 219.917,208.689 220.545,209.285 220.966,210.043 221.14,210.891 221.053,211.752 220.712,212.548 220.148,213.206 220.148,213.206 219.835,213.571 219.645,214.013 219.597,214.492 219.694,214.963 219.927,215.384 220.276,215.715 220.708,215.927 221.184,216 221.184,216 230,216 "/>
        <polyline fill="none" stroke="#000000" stroke-width="1" points="  230,216 243.57,216 243.57,216 244.09,216.082 244.561,216.318 244.936,216.688 245.181,217.155 245.271,217.674 245.198,218.196 244.969,218.67 244.605,219.052 244.605,219.052 243.951,219.738 243.539,220.592 243.407,221.532 243.569,222.466 244.01,223.306 244.686,223.971 245.533,224.398 246.47,224.545 247.407,224.398 248.254,223.971 248.93,223.306 249.37,222.466 249.532,221.532 249.401,220.592 248.988,219.738 248.334,219.052 248.334,219.052 247.971,218.67 247.741,218.196 247.668,217.674 247.758,217.155 248.003,216.688 248.379,216.318 248.849,216.082 249.37,216 249.37,216 259,216 "/>
        <polyline fill="none" stroke="#000000" stroke-width="1" points="  259,216 268.355,216 268.355,216 268.807,215.932 269.219,215.733 269.553,215.422 269.781,215.026 269.882,214.58 269.846,214.124 269.678,213.699 269.391,213.343 269.391,213.343 268.875,212.702 268.572,211.938 268.508,211.117 268.689,210.315 269.099,209.602 269.701,209.041 270.442,208.684 271.255,208.561 272.069,208.684 272.81,209.041 273.412,209.602 273.822,210.315 274.003,211.117 273.939,211.938 273.635,212.702 273.12,213.343 273.12,213.343 272.833,213.699 272.665,214.124 272.629,214.58 272.73,215.026 272.957,215.422 273.292,215.733 273.703,215.932 274.155,216 274.155,216 288,216 "/>
        <polyline fill="none" stroke="#000000" stroke-width="1" points="  0,252 11.2047,252 11.2047,252 11.7,252.077 12.1481,252.302 12.5064,252.653 12.7408,253.096 12.8289,253.589 12.7623,254.086 12.5474,254.539 12.2047,254.905 12.2047,254.905 11.5878,255.563 11.201,256.379 11.0811,257.273 11.2397,258.161 11.6615,258.959 12.3065,259.59 13.1131,259.995 14.0047,260.134 14.8962,259.995 15.7029,259.59 16.3478,258.959 16.7697,258.161 16.9282,257.273 16.8084,256.379 16.4216,255.563 15.8047,254.905 15.8047,254.905 15.4619,254.539 15.2471,254.086 15.1805,253.589 15.2686,253.096 15.5029,252.653 15.8612,252.302 16.3094,252.077 16.8047,252 16.8047,252 28,252 "/>
        <polyline fill="none" stroke="#000000" stroke-width="1" points="  28,252 38.1957,252 38.1957,252 38.7071,252.08 39.1699,252.312 39.5401,252.673 39.7824,253.131 39.8739,253.64 39.8058,254.153 39.5846,254.621 39.2314,255 39.2314,255 38.5956,255.681 38.1974,256.523 38.0749,257.447 38.2395,258.364 38.6758,259.187 39.3421,259.838 40.1751,260.256 41.0957,260.399 42.0163,260.256 42.8493,259.838 43.5156,259.187 43.9518,258.364 44.1165,257.447 43.9939,256.523 43.5958,255.681 42.96,255 42.96,255 42.6067,254.621 42.3855,254.153 42.3175,253.64 42.4089,253.131 42.6513,252.673 43.0215,252.312 43.4843,252.08 43.9957,252 43.9957,252 57,252 "/>
        <polyline fill="none" stroke="#000000" stroke-width="1" points="  57,252 66.7679,252 66.7679,252 67.2548,252.075 67.6966,252.293 68.0521,252.634 68.2885,253.066 68.3838,253.55 68.3291,254.039 68.1296,254.49 67.8037,254.859 67.8037,254.859 67.2171,255.524 66.8579,256.335 66.7595,257.216 66.931,258.086 67.3565,258.864 67.9964,259.478 68.7915,259.871 69.6679,260.006 70.5444,259.871 71.3395,259.478 71.9794,258.864 72.4049,258.086 72.5764,257.216 72.478,256.335 72.1188,255.524 71.5322,254.859 71.5322,254.859 71.2063,254.49 71.0068,254.039 70.9521,253.55 71.0474,253.066 71.2838,252.634 71.6393,252.293 72.081,252.075 72.5679,252 72.5679,252 86,252 "/>
        <polyline fill="none" stroke="#000000" stroke-width="1" points="  86,252 94.7094,252 94.7094,252 95.2387,252.083 95.7169,252.325 96.0977,252.702 96.3443,253.178 96.433,253.706 96.3551,254.236 96.1182,254.717 95.7451,255.101 95.7451,255.101 95.0736,255.794 94.6472,256.659 94.507,257.613 94.6666,258.564 95.1105,259.42 95.796,260.099 96.6567,260.534 97.6094,260.684 98.5621,260.534 99.4228,260.099 100.108,259.42 100.552,258.564 100.712,257.613 100.572,256.659 100.145,255.794 99.4737,255.101 99.4737,255.101 99.1006,254.717 98.8637,254.236 98.7858,253.706 98.8745,253.178 99.1211,252.702 99.5019,252.325 99.9801,252.083 100.509,252 100.509,252 115,252 "/>
        <polyline fill="none" stroke="#000000" stroke-width="1" points="  115,252 124.507,252 124.507,252 124.983,251.927 125.415,251.715 125.763,251.384 125.997,250.963 126.094,250.492 126.046,250.013 125.856,249.571 125.543,249.206 125.543,249.206 124.979,248.549 124.638,247.753 124.551,246.891 124.725,246.043 125.146,245.286 125.774,244.689 126.551,244.308 127.407,244.177 128.263,244.308 129.041,244.689 129.668,245.286 130.089,246.043 130.264,246.891 130.176,247.753 129.835,248.549 129.271,249.206 129.271,249.206 128.958,249.571 128.769,250.013 128.72,250.492 128.817,250.963 129.051,251.384 129.4,251.715 129.832,251.927 130.307,252 130.307,252 144,252 "/>
        <polyline fill="none" stroke="#000000" stroke-width="1" points="  144,252 155.216,252 155.216,252 155.697,251.925 156.133,251.708 156.483,251.369 156.714,250.94 156.805,250.462 156.746,249.978 156.543,249.535 156.216,249.174 156.216,249.174 155.626,248.524 155.261,247.727 155.155,246.856 155.318,245.994 155.733,245.222 156.364,244.612 157.149,244.222 158.016,244.087 158.882,244.222 159.668,244.612 160.298,245.222 160.713,245.994 160.876,246.856 160.77,247.727 160.405,248.524 159.816,249.174 159.816,249.174 159.488,249.535 159.285,249.978 159.226,250.462 159.317,250.94 159.548,251.369 159.898,251.708 160.334,251.925 160.816,252 160.816,252 172,252 "/>
        <polyline fill="none" stroke="#000000" stroke-width="1" points="  172,252 185.694,252 185.694,252 186.22,252.083 186.695,252.322 187.073,252.696 187.319,253.168 187.408,253.693 187.333,254.219 187.099,254.697 186.73,255.081 186.73,255.081 186.066,255.771 185.645,256.631 185.508,257.579 185.669,258.524 186.111,259.373 186.793,260.046 187.648,260.478 188.594,260.626 189.54,260.478 190.395,260.046 191.077,259.373 191.519,258.524 191.68,257.579 191.543,256.631 191.123,255.771 190.458,255.081 190.458,255.081 190.089,254.697 189.856,254.219 189.78,253.693 189.869,253.168 190.115,252.696 190.493,252.322 190.968,252.083 191.494,252 191.494,252 201,252 "/>
        <polyline fill="none" stroke="#000000" stroke-width="1" points="  201,252 213.124,252 213.124,252 213.636,251.92 214.1,251.688 214.47,251.325 214.713,250.867 214.804,250.357 214.736,249.843 214.514,249.375 214.16,248.996 214.16,248.996 213.522,248.315 213.123,247.471 213,246.546 213.164,245.628 213.601,244.803 214.268,244.151 215.102,243.733 216.024,243.589 216.946,243.733 217.78,244.151 218.447,244.803 218.884,245.628 219.048,246.546 218.925,247.471 218.526,248.315 217.888,248.996 217.888,248.996 217.534,249.375 217.312,249.843 217.244,250.357 217.335,250.867 217.578,251.325 217.948,251.688 218.412,251.92 218.924,252 218.924,252 230,252 "/>
        <polyline fill="none" stroke="#000000" stroke-width="1" points="  230,252 240.489,252 240.489,252 240.937,251.932 241.346,251.736 241.679,251.427 241.906,251.035 242.007,250.592 241.973,250.14 241.807,249.718 241.525,249.363 241.525,249.363 241.016,248.725 240.718,247.965 240.657,247.15 240.839,246.355 241.248,245.648 241.846,245.092 242.582,244.738 243.389,244.617 244.196,244.738 244.932,245.092 245.53,245.648 245.939,246.355 246.121,247.15 246.06,247.965 245.762,248.725 245.253,249.363 245.253,249.363 244.971,249.718 244.805,250.14 244.771,250.592 244.872,251.035 245.099,251.427 245.432,251.736 245.841,251.932 246.289,252 246.289,252 259,252 "/>
        <polyline fill="none" stroke="#000000" stroke-width="1" points="  259,252 268.142,252 268.142,252 268.596,252.069 269.009,252.268 269.345,252.581 269.573,252.98 269.673,253.427 269.636,253.885 269.466,254.311 269.177,254.668 269.177,254.668 268.658,255.31 268.351,256.078 268.285,256.901 268.466,257.707 268.877,258.424 269.481,258.988 270.225,259.347 271.042,259.471 271.859,259.347 272.602,258.988 273.207,258.424 273.618,257.707 273.798,256.901 273.732,256.078 273.426,255.31 272.906,254.668 272.906,254.668 272.617,254.311 272.447,253.885 272.41,253.427 272.511,252.98 272.739,252.581 273.075,252.268 273.488,252.069 273.942,252 273.942,252 288,252 "/>
        <polyline fill="none" stroke="#000000" stroke-width="1" points="  28,0 28,13.7714 28,13.7714 27.9147,14.3356 27.6663,14.8493 27.2771,15.2666 26.7819,15.5501 26.225,15.6744 25.6562,15.6285 25.1265,15.4164 24.6832,15.0571 24.6832,15.0571 23.8853,14.4105 22.9317,14.0287 21.908,13.9461 20.9056,14.1699 20.0142,14.6802 19.3137,15.4312 18.8666,16.3559 18.713,17.3714 18.8666,18.387 19.3137,19.3116 20.0142,20.0627 20.9056,20.573 21.908,20.7968 22.9317,20.7141 23.8853,20.3324 24.6832,19.6857 24.6832,19.6857 25.1265,19.3265 25.6562,19.1144 26.225,19.0684 26.7819,19.1928 27.2771,19.4763 27.6663,19.8935 27.9147,20.4072 28,20.9714 28,20.9714 28,36 "/>
        <polyline fill="none" stroke="#000000" stroke-width="1" points="  57,0 57,17.488 57,17.488 56.9157,18.0466 56.6705,18.5555 56.286,18.9694 55.7965,19.2515 55.2456,19.3767 54.6824,19.3338 54.1568,19.1267 53.7157,18.7737 53.7157,18.7737 52.9217,18.1384 51.9756,17.7656 50.9617,17.6884 49.9701,17.9137 49.0891,18.4214 48.397,19.1665 47.9555,20.0825 47.8039,21.088 47.9555,22.0935 48.397,23.0095 49.0891,23.7546 49.9701,24.2623 50.9617,24.4876 51.9756,24.4104 52.9217,24.0376 53.7157,23.4023 53.7157,23.4023 54.1568,23.0493 54.6824,22.8422 55.2456,22.7993 55.7965,22.9245 56.286,23.2066 56.6705,23.6205 56.9157,24.1294 57,24.688 57,24.688 57,36 "/>
        <polyline fill="none" stroke="#000000" stroke-width="1" points="  86,0 86,13.4719 86,13.4719 86.0838,14.0284 86.3279,14.5354 86.7106,14.948 87.1978,15.2296 87.7463,15.355 88.3075,15.3133 88.8315,15.1081 89.2718,14.7576 89.2718,14.7576 90.0642,14.1267 91.0074,13.7573 92.0175,13.6822 93.0049,13.9081 93.8819,14.4149 94.5707,15.1576 95.01,16.0703 95.1609,17.0719 95.01,18.0735 94.5707,18.9862 93.8819,19.7289 93.0049,20.2357 92.0175,20.4616 91.0074,20.3865 90.0642,20.0171 89.2718,19.3862 89.2718,19.3862 88.8315,19.0357 88.3075,18.8305 87.7463,18.7888 87.1978,18.9142 86.7106,19.1958 86.3279,19.6084 86.0838,20.1155 86,20.6719 86,20.6719 86,36 "/>
        <polyline fill="none" stroke="#000000" stroke-width="1" points="  115,0 115,17.7684 115,17.7684 114.895,18.4318 114.592,19.0308 114.118,19.5073 113.521,19.815 112.859,19.924 112.195,19.8239 111.594,19.5242 111.114,19.0541 111.114,19.0541 110.251,18.2079 109.169,17.6685 107.973,17.4882 106.781,17.6845 105.706,18.2384 104.854,19.096 104.307,20.1743 104.119,21.3684 104.307,22.5625 104.854,23.6407 105.706,24.4984 106.781,25.0523 107.973,25.2486 109.169,25.0683 110.251,24.5288 111.114,23.6827 111.114,23.6827 111.594,23.2126 112.195,22.9129 112.859,22.8127 113.521,22.9218 114.118,23.2295 114.592,23.706 114.895,24.305 115,24.9684 115,24.9684 115,36 "/>
        <polyline fill="none" stroke="#000000" stroke-width="1" points="  144,0 144,14.8899 144,14.8899 143.908,15.4891 143.64,16.033 143.221,16.4712 142.69,16.7634 142.095,16.8824 141.493,16.8174 140.937,16.5743 140.481,16.1756 140.481,16.1756 139.659,15.458 138.659,15.0204 137.574,14.9034 136.504,15.1177 135.548,15.6436 134.794,16.4324 134.312,17.4114 134.146,18.4899 134.312,19.5685 134.794,20.5474 135.548,21.3362 136.504,21.8621 137.574,22.0764 138.659,21.9594 139.659,21.5219 140.481,20.8042 140.481,20.8042 140.937,20.4055 141.493,20.1624 142.095,20.0974 142.69,20.2165 143.221,20.5086 143.64,20.9469 143.908,21.4907 144,22.0899 144,22.0899 144,36 "/>
        <polyline fill="none" stroke="#000000" stroke-width="1" points="  172,0 172,13.6114 172,13.6114 172.099,14.2467 172.387,14.8215 172.837,15.2813 173.405,15.5822 174.038,15.6957 174.675,15.611 175.256,15.336 175.726,14.8971 175.726,14.8971 176.572,14.107 177.618,13.6121 178.765,13.4596 179.904,13.6639 180.927,14.2056 181.736,15.0332 182.255,16.0679 182.433,17.2114 182.255,18.3549 181.736,19.3896 180.927,20.2172 179.904,20.7589 178.765,20.9632 177.618,20.8106 176.572,20.3158 175.726,19.5257 175.726,19.5257 175.256,19.0867 174.675,18.8118 174.038,18.7271 173.405,18.8406 172.837,19.1415 172.387,19.6013 172.099,20.1761 172,20.8114 172,20.8114 172,36 "/>
        <polyline fill="none" stroke="#000000" stroke-width="1" points="  201,0 201,11.4569 201,11.4569 201.086,12.026 201.337,12.5439 201.731,12.9641 202.231,13.2488 202.793,13.3724 203.367,13.3238 203.9,13.1074 204.345,12.7426 204.345,12.7426 205.147,12.0859 206.107,11.6964 207.139,11.6089 208.151,11.8314 209.051,12.3439 209.759,13.1003 210.211,14.0325 210.367,15.0569 210.211,16.0812 209.759,17.0135 209.051,17.7699 208.151,18.2824 207.139,18.5049 206.107,18.4174 205.147,18.0278 204.345,17.3712 204.345,17.3712 203.9,17.0064 203.367,16.7899 202.793,16.7413 202.231,16.865 201.731,17.1497 201.337,17.5699 201.086,18.0878 201,18.6569 201,18.6569 201,36 "/>
        <polyline fill="none" stroke="#000000" stroke-width="1" points="  230,0 230,15.715 230,15.715 230.095,16.3296 230.372,16.8867 230.804,17.3342 231.351,17.6301 231.962,17.7468 232.579,17.6734 233.146,17.4167 233.608,17.0007 233.608,17.0007 234.44,16.2519 235.46,15.7898 236.572,15.6576 237.672,15.8676 238.656,16.4003 239.434,17.2058 239.932,18.2086 240.103,19.315 239.932,20.4213 239.434,21.4242 238.656,22.2296 237.672,22.7623 236.572,22.9723 235.46,22.8401 234.44,22.378 233.608,21.6292 233.608,21.6292 233.146,21.2133 232.579,20.9565 231.962,20.8831 231.351,20.9998 230.804,21.2957 230.372,21.7432 230.095,22.3003 230,22.915 230,22.915 230,36 "/>
        <polyline fill="none" stroke="#000000" stroke-width="1" points="  259,0 259,11.4183 259,11.4183 259.094,12.0296 259.369,12.5838 259.798,13.0292 260.342,13.3243 260.949,13.4415 261.563,13.3699 262.127,13.1162 262.589,12.704 262.589,12.704 263.419,11.9621 264.434,11.5054 265.54,11.3766 266.633,11.5876 267.611,12.1188 268.384,12.9205 268.878,13.9181 269.048,15.0183 268.878,16.1186 268.384,17.1161 267.611,17.9179 266.633,18.4491 265.54,18.6601 264.434,18.5312 263.419,18.0745 262.589,17.3326 262.589,17.3326 262.127,16.9204 261.563,16.6667 260.949,16.5951 260.342,16.7124 259.798,17.0075 259.369,17.4529 259.094,18.0071 259,18.6183 259,18.6183 259,36 "/>
        <polyline fill="none" stroke="#000000" stroke-width="1" points="  28,36 28,53.6233 28,53.6233 27.8963,54.2822 27.5951,54.8774 27.1255,55.3512 26.5332,55.6578 25.8752,55.7676 25.2153,55.6699 24.6174,55.3741 24.1393,54.909 24.1393,54.909 23.2788,54.0717 22.2025,53.5393 21.0148,53.3635 19.8305,53.561 18.7642,54.113 17.9191,54.9659 17.3769,56.0372 17.1902,57.2233 17.3769,58.4093 17.9191,59.4806 18.7642,60.3335 19.8305,60.8855 21.0148,61.083 22.2025,60.9072 23.2788,60.3748 24.1393,59.5375 24.1393,59.5375 24.6174,59.0724 25.2153,58.7766 25.8752,58.6789 26.5332,58.7887 27.1255,59.0953 27.5951,59.5692 27.8963,60.1643 28,60.8233 28,60.8233 28,72 "/>
        <polyline fill="none" stroke="#000000" stroke-width="1" points="  57,36 57,50.2952 57,50.2952 57.0935,50.9012 57.3652,51.4509 57.7899,51.8933 58.3281,52.1871 58.9298,52.3051 59.5392,52.2364 60.0995,51.9873 60.5587,51.5809 60.5587,51.5809 61.3853,50.8495 62.3939,50.401 63.4907,50.2773 64.5738,50.4897 65.5426,51.0186 66.3071,51.8148 66.7961,52.8043 66.9644,53.8952 66.7961,54.9861 66.3071,55.9756 65.5426,56.7717 64.5738,57.3006 63.4907,57.5131 62.3939,57.3893 61.3853,56.9409 60.5587,56.2095 60.5587,56.2095 60.0995,55.8031 59.5392,55.554 58.9298,55.4852 58.3281,55.6033 57.7899,55.8971 57.3652,56.3394 57.0935,56.8891 57,57.4952 57,57.4952 57,72 "/>
        <polyline fill="none" stroke="#000000" stroke-width="1" points="  86,36 86,46.9696 86,46.9696 86.0844,47.529 86.3301,48.0386 86.7153,48.453 87.2056,48.7353 87.7573,48.8603 88.3214,48.817 88.8476,48.6092 89.289,48.2553 89.289,48.2553 90.0836,47.6183 91.0307,47.2442 92.0461,47.1662 93.0393,47.3913 93.9218,47.8994 94.6151,48.6454 95.0574,49.5626 95.2093,50.5696 95.0574,51.5765 94.6151,52.4938 93.9218,53.2397 93.0393,53.7479 92.0461,53.9729 91.0307,53.895 90.0836,53.5208 89.289,52.8839 89.289,52.8839 88.8476,52.53 88.3214,52.3222 87.7573,52.2788 87.2056,52.4039 86.7153,52.6862 86.3301,53.1006 86.0844,53.6102 86,54.1696 86,54.1696 86,72 "/>
        <polyline fill="none" stroke="#000000" stroke-width="1" points="  115,36 115,47.2752 115,47.2752 114.897,47.9283 114.599,48.5186 114.135,48.9889 113.548,49.2942 112.896,49.4049 112.242,49.3103 111.648,49.0197 111.172,48.5609 111.172,48.5609 110.315,47.7351 109.246,47.2119 108.068,47.0418 106.895,47.241 105.839,47.7904 105.003,48.6371 104.467,49.6995 104.282,50.8752 104.467,52.0509 105.003,53.1132 105.839,53.96 106.895,54.5094 108.068,54.7086 109.246,54.5385 110.315,54.0153 111.172,53.1895 111.172,53.1895 111.648,52.7307 112.242,52.44 112.896,52.3455 113.548,52.4562 114.135,52.7614 114.599,53.2318 114.897,53.822 115,54.4752 115,54.4752 115,72 "/>
        <polyline fill="none" stroke="#000000" stroke-width="1" points="  144,36 144,50.5928 144,50.5928 143.906,51.2025 143.632,51.7554 143.204,52.1999 142.662,52.4946 142.057,52.6121 141.444,52.5413 140.881,52.2889 140.42,51.8785 140.42,51.8785 139.591,51.1396 138.578,50.6854 137.475,50.558 136.384,50.7694 135.409,51.2999 134.639,52.1001 134.146,53.0953 133.977,54.1928 134.146,55.2902 134.639,56.2854 135.409,57.0856 136.384,57.6161 137.475,57.8275 138.578,57.7002 139.591,57.2459 140.42,56.507 140.42,56.507 140.881,56.0966 141.444,55.8442 142.057,55.7735 142.662,55.8909 143.204,56.1856 143.632,56.6302 143.906,57.183 144,57.7928 144,57.7928 144,72 "/>
        <polyline fill="none" stroke="#000000" stroke-width="1" points="  172,36 172,49.9471 172,49.9471 171.898,50.5973 171.602,51.1849 171.14,51.6534 170.556,51.958 169.908,52.0691 169.256,51.9763 168.664,51.6883 168.189,51.2329 168.189,51.2329 167.334,50.4131 166.269,49.8947 165.097,49.7275 163.929,49.9276 162.879,50.4758 162.047,51.3192 161.514,52.3769 161.33,53.5471 161.514,54.7173 162.047,55.775 162.879,56.6185 163.929,57.1666 165.097,57.3667 166.269,57.1995 167.334,56.6812 168.189,55.8614 168.189,55.8614 168.664,55.406 169.256,55.118 169.908,55.0251 170.556,55.1363 171.14,55.4408 171.602,55.9094 171.898,56.497 172,57.1471 172,57.1471 172,72 "/>
        <polyline fill="none" stroke="#000000" stroke-width="1" points="  201,36 201,53.0451 201,53.0451 201.097,53.6692 201.379,54.2344 201.819,54.6875 202.375,54.9857 202.996,55.101 203.623,55.0224 204.196,54.7573 204.662,54.3308 204.662,54.3308 205.501,53.563 206.533,53.0859 207.661,52.9444 208.778,53.1518 209.78,53.6886 210.572,54.5042 211.08,55.5217 211.254,56.6451 211.08,57.7684 210.572,58.7859 209.78,59.6015 208.778,60.1383 207.661,60.3457 206.533,60.2042 205.501,59.7271 204.662,58.9593 204.662,58.9593 204.196,58.5328 203.623,58.2678 202.996,58.1891 202.375,58.3044 201.819,58.6026 201.379,59.0557 201.097,59.621 201,60.2451 201,60.2451 201,72 "/>
        <polyline fill="none" stroke="#000000" stroke-width="1" points="  230,36 230,48.5201 230,48.5201 229.907,49.1214 229.638,49.6669 229.218,50.1064 228.685,50.3991 228.088,50.5178 227.483,50.4517 226.926,50.2068 226.469,49.8058 226.469,49.8058 225.645,49.0841 224.643,48.6433 223.555,48.5242 222.481,48.738 221.521,49.2648 220.764,50.0558 220.279,51.0379 220.113,52.1201 220.279,53.2023 220.764,54.1844 221.521,54.9754 222.481,55.5022 223.555,55.716 224.643,55.597 225.645,55.1562 226.469,54.4344 226.469,54.4344 226.926,54.0334 227.483,53.7885 228.088,53.7224 228.685,53.8412 229.218,54.1338 229.638,54.5733 229.907,55.1189 230,55.7201 230,55.7201 230,72 "/>
        <polyline fill="none" stroke="#000000" stroke-width="1" points="  259,36 259,51.8044 259,51.8044 258.906,52.4126 258.633,52.9642 258.207,53.4078 257.666,53.7021 257.062,53.8198 256.451,53.7499 255.889,53.4989 255.429,53.0901 255.429,53.0901 254.601,52.3543 253.589,51.9024 252.489,51.7766 251.402,51.9884 250.429,52.5183 249.661,53.3168 249.17,54.3096 249.001,55.4044 249.17,56.4991 249.661,57.492 250.429,58.2905 251.402,58.8203 252.489,59.0322 253.589,58.9063 254.601,58.4545 255.429,57.7187 255.429,57.7187 255.889,57.3099 256.451,57.0589 257.062,56.9889 257.666,57.1066 258.207,57.401 258.633,57.8446 258.906,58.3962 259,59.0044 259,59.0044 259,72 "/>
        <polyline fill="none" stroke="#000000" stroke-width="1" points="  28,72 28,89.0974 28,89.0974 28.0791,89.6296 28.3097,90.1157 28.6718,90.5137 29.134,90.7892 29.6564,90.9182 30.1937,90.8896 30.6994,90.706 31.1298,90.3831 31.1298,90.3831 31.9045,89.8019 32.8149,89.4713 33.782,89.4199 34.7222,89.6521 35.5542,90.1479 36.2059,90.8644 36.621,91.7394 36.7634,92.6974 36.621,93.6553 36.2059,94.5304 35.5542,95.2468 34.7222,95.7426 33.782,95.9749 32.8149,95.9234 31.9045,95.5928 31.1298,95.0117 31.1298,95.0117 30.6994,94.6888 30.1937,94.5051 29.6564,94.4766 29.134,94.6056 28.6718,94.881 28.3097,95.279 28.0791,95.7652 28,96.2974 28,96.2974 28,108 "/>
        <polyline fill="none" stroke="#000000" stroke-width="1" points="  57,72 57,88.9248 57,88.9248 56.9154,89.4851 56.6692,89.9955 56.2832,90.4105 55.792,90.693 55.2393,90.8179 54.6743,90.7741 54.1474,90.5654 53.7057,90.2105 53.7057,90.2105 52.9104,89.5717 51.9621,89.1961 50.9451,89.1172 49.9502,89.3421 49.066,89.8506 48.3713,90.5975 47.9281,91.5162 47.7758,92.5248 47.9281,93.5334 48.3713,94.4521 49.066,95.199 49.9502,95.7075 50.9451,95.9324 51.9621,95.8535 52.9104,95.4779 53.7057,94.8391 53.7057,94.8391 54.1474,94.4842 54.6743,94.2755 55.2393,94.2317 55.792,94.3566 56.2832,94.6392 56.6692,95.0541 56.9154,95.5645 57,96.1248 57,96.1248 57,108 "/>
        <polyline fill="none" stroke="#000000" stroke-width="1" points="  86,72 86,84.3176 86,84.3176 86.0875,84.8928 86.342,85.416 86.7405,85.8399 87.247,86.1261 87.8158,86.2488 88.3952,86.1969 88.9331,85.975 89.3807,85.6033 89.3807,85.6033 90.1863,84.9343 91.1545,84.535 92.1975,84.4415 93.2212,84.6624 94.133,85.1776 94.8503,85.9406 95.3085,86.8823 95.4659,87.9176 95.3085,88.953 94.8503,89.8947 94.133,90.6576 93.2212,91.1728 92.1975,91.3937 91.1545,91.3003 90.1863,90.901 89.3807,90.2319 89.3807,90.2319 88.9331,89.8602 88.3952,89.6384 87.8158,89.5865 87.247,89.7092 86.7405,89.9954 86.342,90.4193 86.0875,90.9424 86,91.5176 86,91.5176 86,108 "/>
        <polyline fill="none" stroke="#000000" stroke-width="1" points="  115,72 115,89.5709 115,89.5709 115.077,90.0913 115.301,90.5673 115.653,90.9582 116.103,91.2307 116.613,91.3614 117.138,91.3392 117.635,91.166 118.061,90.8566 118.061,90.8566 118.883,90.2708 119.845,89.9665 120.855,89.9733 121.814,90.2904 122.628,90.8871 123.219,91.7055 123.53,92.6661 123.53,93.6757 123.219,94.6363 122.628,95.4547 121.814,96.0514 120.855,96.3685 119.845,96.3752 118.883,96.0709 118.061,95.4852 118.061,95.4852 117.635,95.1757 117.138,95.0025 116.613,94.9804 116.103,95.1111 115.653,95.3835 115.301,95.7744 115.077,96.2504 115,96.7709 115,96.7709 115,108 "/>
        <polyline fill="none" stroke="#000000" stroke-width="1" points="  144,72 144,87.7518 144,87.7518 143.922,88.28 143.693,88.7627 143.335,89.1584 142.876,89.4328 142.358,89.5624 141.825,89.536 141.322,89.3558 140.894,89.0375 140.894,89.0375 140.122,88.4645 139.217,88.1403 138.257,88.0927 137.324,88.326 136.5,88.82 135.854,89.5321 135.443,90.401 135.302,91.3518 135.443,92.3026 135.854,93.1715 136.5,93.8836 137.324,94.3776 138.257,94.6109 139.217,94.5633 140.122,94.2391 140.894,93.6661 140.894,93.6661 141.322,93.3477 141.825,93.1676 142.358,93.1412 142.876,93.2708 143.335,93.5452 143.693,93.9408 143.922,94.4236 144,94.9518 144,94.9518 144,108 "/>
        <polyline fill="none" stroke="#000000" stroke-width="1" points="  172,72 172,85.1807 172,85.1807 172.083,85.7343 172.326,86.2388 172.706,86.6496 173.19,86.9305 173.736,87.0564 174.294,87.0163 174.816,86.8136 175.255,86.4665 175.255,86.4665 176.045,85.8415 176.984,85.4768 177.989,85.4046 178.971,85.6312 179.843,86.1367 180.527,86.8762 180.963,87.7844 181.113,88.7807 180.963,89.7771 180.527,90.6852 179.843,91.4248 178.971,91.9302 177.989,92.1569 176.984,92.0847 176.045,91.7199 175.255,91.095 175.255,91.095 174.816,90.7478 174.294,90.5452 173.736,90.5051 173.19,90.631 172.706,90.9118 172.326,91.3227 172.083,91.8272 172,92.3807 172,92.3807 172,108 "/>
        <polyline fill="none" stroke="#000000" stroke-width="1" points="  201,72 201,83.5451 201,83.5451 201.105,84.2095 201.409,84.8094 201.883,85.2865 202.481,85.5944 203.145,85.7033 203.81,85.6026 204.412,85.302 204.892,84.8308 204.892,84.8308 205.756,83.9826 206.839,83.4416 208.036,83.2602 209.231,83.4563 210.307,84.0106 211.161,84.8693 211.708,85.9491 211.897,87.1451 211.708,88.341 211.161,89.4208 210.307,90.2796 209.231,90.8339 208.036,91.0299 206.839,90.8486 205.756,90.3076 204.892,89.4594 204.892,89.4594 204.412,88.9881 203.81,88.6876 203.145,88.5868 202.481,88.6957 201.883,89.0037 201.409,89.4808 201.105,90.0807 201,90.7451 201,90.7451 201,108 "/>
        <polyline fill="none" stroke="#000000" stroke-width="1" points="  230,72 230,84.7687 230,84.7687 229.92,85.3052 229.687,85.7951 229.321,86.1957 228.855,86.4722 228.328,86.6006 227.786,86.5697 227.277,86.3822 226.845,86.0544 226.845,86.0544 226.067,85.4643 225.151,85.1268 224.176,85.0711 223.227,85.3022 222.387,85.8 221.729,86.5211 221.309,87.4029 221.165,88.3687 221.309,89.3344 221.729,90.2162 222.387,90.9373 223.227,91.4351 224.176,91.6662 225.151,91.6106 226.067,91.273 226.845,90.6829 226.845,90.6829 227.277,90.3551 227.786,90.1676 228.328,90.1367 228.855,90.2651 229.321,90.5416 229.687,90.9422 229.92,91.4321 230,91.9687 230,91.9687 230,108 "/>
        <polyline fill="none" stroke="#000000" stroke-width="1" points="  259,72 259,89.5073 259,89.5073 259.078,90.0338 259.305,90.5151 259.663,90.9097 260.119,91.1837 260.635,91.3135 261.167,91.288 261.668,91.1094 262.097,90.793 262.097,90.793 262.924,90.1939 263.896,89.8795 264.917,89.8807 265.889,90.1972 266.715,90.7982 267.315,91.6249 267.63,92.5965 267.63,93.618 267.315,94.5896 266.715,95.4163 265.889,96.0173 264.917,96.3338 263.896,96.335 262.924,96.0206 262.097,95.4215 262.097,95.4215 261.668,95.1051 261.167,94.9265 260.635,94.901 260.119,95.0308 259.663,95.3048 259.305,95.6994 259.078,96.1807 259,96.7073 259,96.7073 259,108 "/>
        <polyline fill="none" stroke="#000000" stroke-width="1" points="  28,108 28,119.55 28,119.55 28.0827,120.1 28.3235,120.602 28.701,121.011 29.1822,121.292 29.7243,121.418 30.2796,121.379 30.7992,121.179 31.2371,120.836 31.2371,120.836 32.0252,120.217 32.9604,119.857 33.96,119.788 34.9359,120.015 35.8019,120.519 36.4815,121.256 36.9149,122.159 37.0637,123.15 36.9149,124.141 36.4815,125.044 35.8019,125.781 34.9359,126.285 33.96,126.512 32.9604,126.443 32.0252,126.083 31.2371,125.464 31.2371,125.464 30.7992,125.121 30.2796,124.921 29.7243,124.882 29.1822,125.008 28.701,125.289 28.3235,125.698 28.0827,126.199 28,126.75 28,126.75 28,144 "/>
        <polyline fill="none" stroke="#000000" stroke-width="1" points="  57,108 57,125.544 57,125.544 56.9216,126.072 56.6933,126.554 56.3347,126.95 55.8766,127.224 55.3587,127.354 54.8254,127.328 54.3227,127.148 53.894,126.829 53.894,126.829 53.1223,126.256 52.2175,125.932 51.2576,125.885 50.3252,126.118 49.5008,126.612 48.8552,127.324 48.4442,128.193 48.3032,129.144 48.4442,130.094 48.8552,130.963 49.5008,131.675 50.3252,132.169 51.2576,132.402 52.2175,132.355 53.1223,132.031 53.894,131.458 53.894,131.458 54.3227,131.14 54.8254,130.96 55.3587,130.933 55.8766,131.063 56.3347,131.337 56.6933,131.733 56.9216,132.215 57,132.744 57,132.744 57,144 "/>
        <polyline fill="none" stroke="#000000" stroke-width="1" points="  86,108 86,119.572 86,119.572 85.896,120.232 85.5942,120.828 85.1237,121.303 84.5301,121.61 83.8709,121.719 83.2099,121.621 82.6112,121.324 82.1327,120.858 82.1327,120.858 81.2714,120.018 80.1937,119.484 79.004,119.307 77.8174,119.504 76.749,120.056 75.9021,120.91 75.3587,121.984 75.1716,123.172 75.3587,124.36 75.9021,125.433 76.749,126.287 77.8174,126.84 79.004,127.037 80.1937,126.86 81.2714,126.326 82.1327,125.486 82.1327,125.486 82.6112,125.02 83.2099,124.723 83.8709,124.625 84.5301,124.734 85.1237,125.041 85.5942,125.516 85.896,126.112 86,126.772 86,126.772 86,144 "/>
        <polyline fill="none" stroke="#000000" stroke-width="1" points="  115,108 115,120.532 115,120.532 115.079,121.063 115.309,121.549 115.67,121.946 116.132,122.221 116.653,122.351 117.19,122.323 117.695,122.14 118.125,121.818 118.125,121.818 118.899,121.238 119.808,120.909 120.774,120.858 121.712,121.091 122.543,121.586 123.193,122.302 123.607,123.176 123.749,124.132 123.607,125.088 123.193,125.962 122.543,126.678 121.712,127.173 120.774,127.406 119.808,127.355 118.899,127.026 118.125,126.446 118.125,126.446 117.695,126.124 117.19,125.941 116.653,125.913 116.132,126.043 115.67,126.318 115.309,126.715 115.079,127.201 115,127.732 115,127.732 115,144 "/>
        <polyline fill="none" stroke="#000000" stroke-width="1" points="  144,108 144,125.664 144,125.664 144.078,126.192 144.307,126.674 144.665,127.07 145.123,127.344 145.641,127.474 146.174,127.447 146.676,127.267 147.105,126.949 147.105,126.949 147.876,126.377 148.781,126.053 149.741,126.006 150.673,126.239 151.497,126.733 152.142,127.445 152.553,128.313 152.694,129.264 152.553,130.214 152.142,131.083 151.497,131.794 150.673,132.288 149.741,132.522 148.781,132.474 147.876,132.15 147.105,131.578 147.105,131.578 146.676,131.26 146.174,131.08 145.641,131.054 145.123,131.183 144.665,131.458 144.307,131.853 144.078,132.336 144,132.864 144,132.864 144,144 "/>
        <polyline fill="none" stroke="#000000" stroke-width="1" points="  172,108 172,122.596 172,122.596 171.919,123.14 171.682,123.636 171.31,124.041 170.836,124.32 170.301,124.447 169.752,124.412 169.237,124.218 168.802,123.882 168.802,123.882 168.019,123.277 167.093,122.928 166.105,122.865 165.143,123.095 164.289,123.596 163.62,124.325 163.193,125.218 163.047,126.196 163.193,127.175 163.62,128.068 164.289,128.797 165.143,129.298 166.105,129.527 167.093,129.465 168.019,129.116 168.802,128.511 168.802,128.511 169.237,128.175 169.752,127.981 170.301,127.946 170.836,128.073 171.31,128.352 171.682,128.757 171.919,129.253 172,129.796 172,129.796 172,144 "/>
        <polyline fill="none" stroke="#000000" stroke-width="1" points="  201,108 201,119.339 201,119.339 200.898,119.988 200.602,120.575 200.141,121.043 199.559,121.347 198.911,121.459 198.26,121.366 197.669,121.079 197.195,120.625 197.195,120.625 196.34,119.807 195.276,119.29 194.105,119.124 192.939,119.324 191.891,119.872 191.06,120.714 190.528,121.77 190.345,122.939 190.528,124.108 191.06,125.164 191.891,126.006 192.939,126.554 194.105,126.754 195.276,126.588 196.34,126.071 197.195,125.253 197.195,125.253 197.669,124.799 198.26,124.512 198.911,124.419 199.559,124.531 200.141,124.835 200.602,125.303 200.898,125.89 201,126.539 201,126.539 201,144 "/>
        <polyline fill="none" stroke="#000000" stroke-width="1" points="  230,108 230,120.06 230,120.06 229.91,120.647 229.649,121.18 229.241,121.611 228.723,121.9 228.142,122.021 227.551,121.963 227.005,121.731 226.553,121.346 226.553,121.346 225.739,120.654 224.756,120.236 223.693,120.131 222.647,120.349 221.714,120.87 220.979,121.645 220.509,122.604 220.348,123.66 220.509,124.716 220.979,125.676 221.714,126.451 222.647,126.972 223.693,127.189 224.756,127.085 225.739,126.667 226.553,125.975 226.553,125.975 227.005,125.59 227.551,125.358 228.142,125.3 228.723,125.421 229.241,125.71 229.649,126.141 229.91,126.674 230,127.26 230,127.26 230,144 "/>
        <polyline fill="none" stroke="#000000" stroke-width="1" points="  259,108 259,122.889 259,122.889 259.083,123.443 259.326,123.947 259.706,124.358 260.19,124.639 260.735,124.765 261.293,124.724 261.815,124.522 262.254,124.175 262.254,124.175 263.044,123.55 263.983,123.186 264.988,123.114 265.97,123.34 266.841,123.846 267.525,124.585 267.961,125.493 268.111,126.489 267.961,127.485 267.525,128.393 266.841,129.133 265.97,129.638 264.988,129.865 263.983,129.793 263.044,129.428 262.254,128.803 262.254,128.803 261.815,128.456 261.293,128.254 260.735,128.214 260.19,128.34 259.706,128.621 259.326,129.031 259.083,129.536 259,130.089 259,130.089 259,144 "/>
        <polyline fill="none" stroke="#000000" stroke-width="1" points="  28,144 28,156.413 28,156.413 27.9161,156.97 27.6718,157.477 27.2888,157.89 26.8011,158.171 26.2522,158.297 25.6906,158.255 25.1663,158.049 24.7259,157.698 24.7259,157.698 23.9332,157.067 22.9895,156.697 21.9786,156.621 20.9904,156.847 20.1127,157.354 19.4233,158.097 18.9835,159.01 18.8325,160.013 18.9835,161.015 19.4233,161.928 20.1127,162.672 20.9904,163.178 21.9786,163.404 22.9895,163.329 23.9332,162.959 24.7259,162.327 24.7259,162.327 25.1663,161.976 25.6906,161.77 26.2522,161.729 26.8011,161.854 27.2888,162.136 27.6718,162.548 27.9161,163.056 28,163.613 28,163.613 28,180 "/>
        <polyline fill="none" stroke="#000000" stroke-width="1" points="  57,144 57,154.821 57,154.821 57.0948,155.434 57.3705,155.99 57.8012,156.436 58.3468,156.732 58.9561,156.849 59.5723,156.776 60.1377,156.521 60.5996,156.106 60.5996,156.106 61.4309,155.361 62.4487,154.901 63.5578,154.77 64.6546,154.981 65.6366,155.513 66.4119,156.317 66.9081,157.317 67.0788,158.421 66.9081,159.524 66.4119,160.525 65.6366,161.329 64.6546,161.861 63.5578,162.071 62.4487,161.941 61.4309,161.481 60.5996,160.735 60.5996,160.735 60.1377,160.321 59.5723,160.065 58.9561,159.993 58.3468,160.11 57.8012,160.405 57.3705,160.852 57.0948,161.408 57,162.021 57,162.021 57,180 "/>
        <polyline fill="none" stroke="#000000" stroke-width="1" points="  86,144 86,156.782 86,156.782 86.1028,157.436 86.4012,158.027 86.8665,158.498 87.4539,158.803 88.1066,158.914 88.7617,158.819 89.3561,158.527 89.8325,158.068 89.8325,158.068 90.69,157.24 91.76,156.716 92.9393,156.545 94.1141,156.744 95.1713,157.293 96.0089,158.141 96.5461,159.205 96.7311,160.382 96.5461,161.559 96.0089,162.623 95.1713,163.47 94.1141,164.02 92.9393,164.219 91.76,164.048 90.69,163.524 89.8325,162.696 89.8325,162.696 89.3561,162.236 88.7617,161.945 88.1066,161.85 87.4539,161.961 86.8665,162.266 86.4012,162.737 86.1028,163.328 86,163.982 86,163.982 86,180 "/>
        <polyline fill="none" stroke="#000000" stroke-width="1" points="  115,144 115,157.695 115,157.695 115.1,158.336 115.392,158.916 115.846,159.379 116.42,159.682 117.06,159.794 117.703,159.706 118.288,159.426 118.76,158.981 118.76,158.981 119.609,158.179 120.663,157.674 121.821,157.516 122.971,157.719 124.005,158.263 124.823,159.097 125.347,160.141 125.528,161.295 125.347,162.449 124.823,163.493 124.005,164.327 122.971,164.871 121.821,165.074 120.663,164.916 119.609,164.411 118.76,163.609 118.76,163.609 118.288,163.164 117.703,162.884 117.06,162.796 116.42,162.908 115.846,163.21 115.392,163.674 115.1,164.254 115,164.895 115,164.895 115,180 "/>
        <polyline fill="none" stroke="#000000" stroke-width="1" points="  144,144 144,156.898 144,156.898 143.895,157.562 143.591,158.161 143.118,158.637 142.521,158.945 141.858,159.054 141.193,158.954 140.592,158.654 140.112,158.184 140.112,158.184 139.249,157.337 138.166,156.797 136.97,156.616 135.777,156.812 134.702,157.366 133.849,158.224 133.302,159.303 133.114,160.498 133.302,161.692 133.849,162.771 134.702,163.629 135.777,164.183 136.97,164.379 138.166,164.199 139.249,163.659 140.112,162.812 140.112,162.812 140.592,162.342 141.193,162.042 141.858,161.941 142.521,162.05 143.118,162.358 143.591,162.835 143.895,163.434 144,164.098 144,164.098 144,180 "/>
        <polyline fill="none" stroke="#000000" stroke-width="1" points="  172,144 172,155.996 172,155.996 172.091,156.591 172.357,157.132 172.772,157.567 173.299,157.859 173.889,157.978 174.488,157.916 175.04,157.676 175.496,157.282 175.496,157.282 176.315,156.573 177.309,156.142 178.387,156.029 179.449,156.244 180.397,156.768 181.145,157.553 181.623,158.525 181.788,159.596 181.623,160.667 181.145,161.64 180.397,162.424 179.449,162.948 178.387,163.164 177.309,163.051 176.315,162.62 175.496,161.911 175.496,161.911 175.04,161.517 174.488,161.277 173.889,161.214 173.299,161.334 172.772,161.625 172.357,162.061 172.091,162.601 172,163.196 172,163.196 172,180 "/>
        <polyline fill="none" stroke="#000000" stroke-width="1" points="  201,144 201,158.779 201,158.779 201.092,159.379 201.361,159.923 201.78,160.362 202.312,160.654 202.908,160.773 203.511,160.708 204.067,160.464 204.524,160.064 204.524,160.064 205.347,159.345 206.347,158.906 207.434,158.788 208.505,159.003 209.463,159.529 210.218,160.318 210.701,161.299 210.867,162.379 210.701,163.459 210.218,164.439 209.463,165.229 208.505,165.755 207.434,165.969 206.347,165.851 205.347,165.412 204.524,164.693 204.524,164.693 204.067,164.293 203.511,164.05 202.908,163.984 202.312,164.103 201.78,164.395 201.361,164.834 201.092,165.379 201,165.979 201,165.979 201,180 "/>
        <polyline fill="none" stroke="#000000" stroke-width="1" points="  230,144 230,158.561 230,158.561 229.917,159.111 229.677,159.613 229.3,160.021 228.819,160.301 228.278,160.428 227.723,160.39 227.204,160.19 226.766,159.847 226.766,159.847 225.978,159.229 225.044,158.87 224.045,158.802 223.07,159.029 222.205,159.533 221.526,160.269 221.094,161.171 220.945,162.161 221.094,163.151 221.526,164.054 222.205,164.79 223.07,165.293 224.045,165.521 225.044,165.452 225.978,165.093 226.766,164.476 226.766,164.476 227.204,164.132 227.723,163.933 228.278,163.895 228.819,164.021 229.3,164.301 229.677,164.71 229.917,165.211 230,165.761 230,165.761 230,180 "/>
        <polyline fill="none" stroke="#000000" stroke-width="1" points="  259,144 259,157.129 259,157.129 258.919,157.67 258.683,158.164 258.313,158.568 257.842,158.846 257.309,158.974 256.763,158.94 256.25,158.748 255.816,158.415 255.816,158.415 255.034,157.814 254.111,157.469 253.128,157.408 252.169,157.638 251.32,158.138 250.654,158.865 250.23,159.754 250.084,160.729 250.23,161.704 250.654,162.593 251.32,163.319 252.169,163.819 253.128,164.049 254.111,163.989 255.034,163.643 255.816,163.043 255.816,163.043 256.25,162.71 256.763,162.518 257.309,162.484 257.842,162.612 258.313,162.89 258.683,163.293 258.919,163.787 259,164.329 259,164.329 259,180 "/>
        <polyline fill="none" stroke="#000000" stroke-width="1" points="  28,180 28,192.264 28,192.264 28.0907,192.856 28.3546,193.394 28.7674,193.828 29.2911,194.118 29.8778,194.239 30.4736,194.177 31.0237,193.941 31.4777,193.55 31.4777,193.55 32.2949,192.847 33.2851,192.421 34.3575,192.311 35.4135,192.528 36.3563,193.05 37.0993,193.831 37.5743,194.799 37.7376,195.864 37.5743,196.93 37.0993,197.898 36.3563,198.679 35.4135,199.201 34.3575,199.418 33.2851,199.308 32.2949,198.882 31.4777,198.179 31.4777,198.179 31.0237,197.788 30.4736,197.551 29.8778,197.49 29.2911,197.611 28.7674,197.901 28.3546,198.335 28.0907,198.873 28,199.464 28,199.464 28,216 "/>
        <polyline fill="none" stroke="#000000" stroke-width="1" points="  57,180 57,195.06 57,195.06 56.9008,195.695 56.6125,196.271 56.1627,196.731 55.5941,197.032 54.9608,197.145 54.323,197.06 53.7415,196.785 53.2715,196.345 53.2715,196.345 52.4256,195.554 51.3789,195.059 50.2309,194.906 49.091,195.11 48.0674,195.652 47.2578,196.48 46.7389,197.515 46.5603,198.66 46.7389,199.804 47.2578,200.839 48.0674,201.667 49.091,202.209 50.2309,202.413 51.3789,202.26 52.4256,201.765 53.2715,200.974 53.2715,200.974 53.7415,200.534 54.323,200.259 54.9608,200.174 55.5941,200.288 56.1627,200.589 56.6125,201.049 56.9008,201.624 57,202.26 57,202.26 57,216 "/>
        <polyline fill="none" stroke="#000000" stroke-width="1" points="  86,180 86,194.339 86,194.339 85.9007,194.975 85.6123,195.551 85.1621,196.011 84.5932,196.312 83.9595,196.426 83.3214,196.341 82.7396,196.065 82.2695,195.625 82.2695,195.625 81.4234,194.833 80.3762,194.337 79.2276,194.184 78.087,194.388 77.0628,194.93 76.2526,195.759 75.7334,196.795 75.5547,197.939 75.7334,199.084 76.2526,200.12 77.0628,200.949 78.087,201.491 79.2276,201.695 80.3762,201.541 81.4234,201.045 82.2695,200.254 82.2695,200.254 82.7396,199.814 83.3214,199.538 83.9595,199.453 84.5932,199.567 85.1621,199.868 85.6123,200.328 85.9007,200.903 86,201.539 86,201.539 86,216 "/>
        <polyline fill="none" stroke="#000000" stroke-width="1" points="  115,180 115,197.756 115,197.756 115.087,198.33 115.341,198.852 115.738,199.275 116.243,199.56 116.81,199.683 117.388,199.632 117.925,199.412 118.372,199.042 118.372,199.042 119.177,198.376 120.143,197.979 121.184,197.887 122.205,198.108 123.114,198.622 123.829,199.384 124.285,200.323 124.442,201.356 124.285,202.389 123.829,203.328 123.114,204.09 122.205,204.604 121.184,204.825 120.143,204.733 119.177,204.336 118.372,203.67 118.372,203.67 117.925,203.3 117.388,203.08 116.81,203.028 116.243,203.151 115.738,203.437 115.341,203.86 115.087,204.382 115,204.956 115,204.956 115,216 "/>
        <polyline fill="none" stroke="#000000" stroke-width="1" points="  144,180 144,195.47 144,195.47 143.908,196.069 143.64,196.612 143.222,197.05 142.692,197.342 142.098,197.461 141.496,197.396 140.941,197.154 140.484,196.756 140.484,196.756 139.663,196.039 138.664,195.603 137.58,195.486 136.511,195.701 135.556,196.226 134.803,197.015 134.322,197.993 134.156,199.07 134.322,200.147 134.803,201.125 135.556,201.913 136.511,202.439 137.58,202.654 138.664,202.537 139.663,202.101 140.484,201.384 140.484,201.384 140.941,200.986 141.496,200.744 142.098,200.679 142.692,200.798 143.222,201.09 143.64,201.528 143.908,202.071 144,202.67 144,202.67 144,216 "/>
        <polyline fill="none" stroke="#000000" stroke-width="1" points="  172,180 172,194.749 172,194.749 171.9,195.387 171.611,195.963 171.16,196.424 170.59,196.726 169.955,196.839 169.315,196.753 168.733,196.476 168.262,196.035 168.262,196.035 167.415,195.241 166.366,194.743 165.215,194.588 164.072,194.792 163.046,195.334 162.233,196.164 161.713,197.202 161.534,198.349 161.713,199.497 162.233,200.535 163.046,201.364 164.072,201.907 165.215,202.111 166.366,201.956 167.415,201.458 168.262,200.664 168.262,200.664 168.733,200.222 169.315,199.946 169.955,199.86 170.59,199.973 171.16,200.274 171.611,200.735 171.9,201.312 172,201.949 172,201.949 172,216 "/>
        <polyline fill="none" stroke="#000000" stroke-width="1" points="  201,180 201,197.272 201,197.272 201.095,197.886 201.371,198.443 201.803,198.89 202.35,199.186 202.96,199.303 203.577,199.23 204.143,198.973 204.606,198.558 204.606,198.558 205.438,197.81 206.457,197.348 207.568,197.217 208.667,197.427 209.651,197.959 210.427,198.764 210.925,199.766 211.096,200.872 210.925,201.978 210.427,202.98 209.651,203.785 208.667,204.317 207.568,204.527 206.457,204.396 205.438,203.934 204.606,203.186 204.606,203.186 204.143,202.771 203.577,202.514 202.96,202.441 202.35,202.558 201.803,202.854 201.371,203.301 201.095,203.858 201,204.472 201,204.472 201,216 "/>
        <polyline fill="none" stroke="#000000" stroke-width="1" points="  230,180 230,192.726 230,192.726 230.09,193.312 230.35,193.845 230.758,194.275 231.276,194.564 231.856,194.685 232.446,194.627 232.992,194.396 233.444,194.012 233.444,194.012 234.257,193.321 235.24,192.904 236.302,192.8 237.347,193.018 238.278,193.538 239.013,194.313 239.482,195.271 239.643,196.326 239.482,197.381 239.013,198.34 238.278,199.115 237.347,199.635 236.302,199.853 235.24,199.748 234.257,199.332 233.444,198.641 233.444,198.641 232.992,198.257 232.446,198.025 231.856,197.967 231.276,198.088 230.758,198.377 230.35,198.808 230.09,199.34 230,199.926 230,199.926 230,216 "/>
        <polyline fill="none" stroke="#000000" stroke-width="1" points="  259,180 259,191.053 259,191.053 259.097,191.678 259.38,192.245 259.821,192.699 260.38,192.998 261.003,193.113 261.631,193.033 262.206,192.767 262.672,192.338 262.672,192.338 263.512,191.567 264.546,191.087 265.677,190.944 266.798,191.151 267.803,191.689 268.597,192.506 269.106,193.526 269.281,194.653 269.106,195.779 268.597,196.799 267.803,197.617 266.798,198.154 265.677,198.361 264.546,198.218 263.512,197.738 262.672,196.967 262.672,196.967 262.206,196.538 261.631,196.272 261.003,196.192 260.38,196.307 259.821,196.606 259.38,197.06 259.097,197.627 259,198.253 259,198.253 259,216 "/>
        <polyline fill="none" stroke="#000000" stroke-width="1" points="  28,216 28,230.914 28,230.914 28.0895,231.499 28.3497,232.031 28.7569,232.461 29.2739,232.75 29.8536,232.871 30.443,232.813 30.9884,232.583 31.4399,232.199 31.4399,232.199 32.2526,231.509 33.2342,231.094 34.2952,230.99 35.3386,231.209 36.2693,231.728 37.0022,232.502 37.4706,233.46 37.6317,234.514 37.4706,235.567 37.0022,236.525 36.2693,237.299 35.3386,237.819 34.2952,238.037 33.2342,237.933 32.2526,237.518 31.4399,236.828 31.4399,236.828 30.9884,236.445 30.443,236.214 29.8536,236.156 29.2739,236.277 28.7569,236.566 28.3497,236.996 28.0895,237.528 28,238.114 28,238.114 28,252 "/>
        <polyline fill="none" stroke="#000000" stroke-width="1" points="  57,216 57,228.77 57,228.77 56.915,229.332 56.6675,229.845 56.2796,230.261 55.786,230.544 55.2308,230.669 54.6636,230.623 54.1351,230.413 53.6924,230.055 53.6924,230.055 52.8955,229.412 51.9441,229.033 50.9232,228.952 49.9238,229.176 49.0354,229.685 48.3372,230.435 47.8917,231.357 47.7387,232.37 47.8917,233.382 48.3372,234.305 49.0354,235.054 49.9238,235.563 50.9232,235.788 51.9441,235.707 52.8955,235.327 53.6924,234.684 53.6924,234.684 54.1351,234.326 54.6636,234.116 55.2308,234.071 55.786,234.195 56.2796,234.478 56.6675,234.895 56.915,235.407 57,235.97 57,235.97 57,252 "/>
        <polyline fill="none" stroke="#000000" stroke-width="1" points="  86,216 86,233.193 86,233.193 85.9212,233.723 85.6915,234.208 85.3308,234.605 84.8703,234.88 84.3497,235.009 83.814,234.981 83.3095,234.799 82.8797,234.478 82.8797,234.478 82.1062,233.9 81.1981,233.572 80.2338,233.523 79.2967,233.755 78.4678,234.25 77.8185,234.965 77.4051,235.837 77.2632,236.793 77.4051,237.748 77.8185,238.62 78.4678,239.335 79.2967,239.83 80.2338,240.062 81.1981,240.013 82.1062,239.685 82.8797,239.107 82.8797,239.107 83.3095,238.786 83.814,238.604 84.3497,238.576 84.8703,238.705 85.3308,238.98 85.6915,239.377 85.9212,239.862 86,240.393 86,240.393 86,252 "/>
        <polyline fill="none" stroke="#000000" stroke-width="1" points="  115,216 115,229.719 115,229.719 115.082,230.264 115.319,230.76 115.691,231.166 116.166,231.444 116.702,231.572 117.251,231.536 117.766,231.342 118.202,231.005 118.202,231.005 118.985,230.399 119.912,230.048 120.901,229.985 121.865,230.214 122.72,230.716 123.39,231.445 123.818,232.339 123.964,233.319 123.818,234.299 123.39,235.193 122.72,235.923 121.865,236.424 120.901,236.653 119.912,236.59 118.985,236.24 118.202,235.634 118.202,235.634 117.766,235.297 117.251,235.102 116.702,235.067 116.166,235.194 115.691,235.473 115.319,235.878 115.082,236.375 115,236.919 115,236.919 115,252 "/>
        <polyline fill="none" stroke="#000000" stroke-width="1" points="  144,216 144,229.84 144,229.84 144.089,230.421 144.346,230.949 144.75,231.376 145.262,231.663 145.837,231.785 146.422,231.73 146.964,231.503 147.413,231.125 147.413,231.125 148.223,230.445 149.198,230.037 150.251,229.938 151.286,230.157 152.208,230.675 152.934,231.444 153.398,232.394 153.557,233.44 153.398,234.485 152.934,235.436 152.208,236.205 151.286,236.722 150.251,236.942 149.198,236.843 148.223,236.435 147.413,235.754 147.413,235.754 146.964,235.376 146.422,235.149 145.837,235.094 145.262,235.216 144.75,235.504 144.346,235.931 144.089,236.459 144,237.04 144,237.04 144,252 "/>
        <polyline fill="none" stroke="#000000" stroke-width="1" points="  172,216 172,233.1 172,233.1 172.1,233.739 172.39,234.317 172.842,234.779 173.414,235.081 174.051,235.194 174.692,235.107 175.276,234.829 175.747,234.386 175.747,234.386 176.595,233.589 177.646,233.088 178.799,232.932 179.945,233.135 180.975,233.678 181.789,234.51 182.311,235.55 182.491,236.7 182.311,237.85 181.789,238.891 180.975,239.722 179.945,240.265 178.799,240.469 177.646,240.312 176.595,239.812 175.747,239.014 175.747,239.014 175.276,238.571 174.692,238.293 174.051,238.207 173.414,238.32 172.842,238.621 172.39,239.083 172.1,239.661 172,240.3 172,240.3 172,252 "/>
        <polyline fill="none" stroke="#000000" stroke-width="1" points="  201,216 201,230.281 201,230.281 200.901,230.913 200.615,231.486 200.168,231.944 199.602,232.244 198.973,232.358 198.338,232.275 197.759,232.003 197.29,231.567 197.29,231.567 196.446,230.782 195.403,230.292 194.261,230.142 193.127,230.347 192.109,230.887 191.304,231.712 190.789,232.742 190.611,233.881 190.789,235.019 191.304,236.05 192.109,236.874 193.127,237.415 194.261,237.62 195.403,237.47 196.446,236.98 197.29,236.195 197.29,236.195 197.759,235.759 198.338,235.487 198.973,235.404 199.602,235.518 200.168,235.818 200.615,236.276 200.901,236.848 201,237.481 201,237.481 201,252 "/>
        <polyline fill="none" stroke="#000000" stroke-width="1" points="  230,216 230,228.292 230,228.292 229.923,228.815 229.698,229.293 229.344,229.685 228.892,229.958 228.38,230.088 227.852,230.065 227.354,229.89 226.927,229.578 226.927,229.578 226.103,228.988 225.137,228.68 224.124,228.685 223.161,229.002 222.343,229.6 221.749,230.421 221.436,231.386 221.436,232.399 221.749,233.364 222.343,234.185 223.161,234.783 224.124,235.1 225.137,235.105 226.103,234.797 226.927,234.207 226.927,234.207 227.354,233.895 227.852,233.72 228.38,233.697 228.892,233.827 229.344,234.1 229.698,234.492 229.923,234.97 230,235.492 230,235.492 230,252 "/>
        <polyline fill="none" stroke="#000000" stroke-width="1" points="  259,216 259,233.22 259,233.22 259.103,233.877 259.403,234.47 259.871,234.942 260.46,235.248 261.116,235.358 261.773,235.262 262.369,234.968 262.847,234.506 262.847,234.506 263.706,233.674 264.779,233.145 265.962,232.972 267.142,233.17 268.204,233.721 269.045,234.571 269.585,235.639 269.771,236.82 269.585,238.002 269.045,239.069 268.204,239.92 267.142,240.47 265.962,240.669 264.779,240.495 263.706,239.967 262.847,239.134 262.847,239.134 262.369,238.672 261.773,238.378 261.116,238.282 260.46,238.392 259.871,238.698 259.403,239.171 259.103,239.764 259,240.42 259,240.42 259,252 "/>
        <polyline fill="none" stroke="#000000" stroke-width="1" points="  28,252 28,263.909 28,263.909 27.9002,264.548 27.6104,265.125 27.1581,265.587 26.5865,265.889 25.9501,266.002 25.3096,265.915 24.726,265.638 24.255,265.195 24.255,265.195 23.4072,264.398 22.3568,263.898 21.2039,263.742 20.0584,263.946 19.0295,264.489 18.2154,265.32 17.6937,266.36 17.5141,267.509 17.6937,268.659 18.2154,269.699 19.0295,270.53 20.0584,271.073 21.2039,271.276 22.3568,271.12 23.4072,270.62 24.255,269.823 24.255,269.823 24.726,269.381 25.3096,269.103 25.9501,269.016 26.5865,269.129 27.1581,269.431 27.6104,269.893 27.9002,270.471 28,271.109 28,271.109 28,288 "/>
        <polyline fill="none" stroke="#000000" stroke-width="1" points="  57,252 57,269.73 57,269.73 56.9105,270.316 56.6503,270.848 56.243,271.278 55.7259,271.567 55.1461,271.688 54.5566,271.63 54.0112,271.399 53.5597,271.016 53.5597,271.016 52.7469,270.326 51.7652,269.91 50.7041,269.807 49.6605,270.025 48.7297,270.545 47.9966,271.319 47.5281,272.276 47.3671,273.33 47.5281,274.384 47.9966,275.342 48.7297,276.116 49.6605,276.636 50.7041,276.854 51.7652,276.75 52.7469,276.334 53.5597,275.645 53.5597,275.645 54.0112,275.261 54.5566,275.03 55.1461,274.973 55.7259,275.094 56.243,275.383 56.6503,275.813 56.9105,276.345 57,276.93 57,276.93 57,288 "/>
        <polyline fill="none" stroke="#000000" stroke-width="1" points="  86,252 86,269.301 86,269.301 86.0858,269.867 86.3357,270.383 86.7271,270.802 87.2249,271.086 87.7846,271.21 88.3559,271.163 88.8875,270.948 89.3318,270.586 89.3318,270.586 90.1316,269.934 91.0885,269.548 92.1168,269.463 93.1243,269.686 94.0204,270.198 94.7249,270.952 95.1746,271.88 95.3291,272.901 95.1746,273.921 94.7249,274.849 94.0204,275.603 93.1243,276.115 92.1168,276.338 91.0885,276.253 90.1316,275.867 89.3318,275.215 89.3318,275.215 88.8875,274.853 88.3559,274.638 87.7846,274.591 87.2249,274.715 86.7271,274.999 86.3357,275.418 86.0858,275.934 86,276.501 86,276.501 86,288 "/>
        <polyline fill="none" stroke="#000000" stroke-width="1" points="  115,252 115,265.652 115,265.652 115.087,266.223 115.339,266.744 115.735,267.166 116.238,267.451 116.803,267.574 117.38,267.524 117.915,267.305 118.361,266.937 118.361,266.937 119.165,266.275 120.128,265.881 121.166,265.791 122.183,266.013 123.088,266.526 123.801,267.286 124.256,268.222 124.412,269.252 124.256,270.281 123.801,271.218 123.088,271.977 122.183,272.491 121.166,272.712 120.128,272.622 119.165,272.228 118.361,271.566 118.361,271.566 117.915,271.198 117.38,270.979 116.803,270.929 116.238,271.052 115.735,271.338 115.339,271.759 115.087,272.28 115,272.852 115,272.852 115,288 "/>
        <polyline fill="none" stroke="#000000" stroke-width="1" points="  144,252 144,268.829 144,268.829 144.082,269.378 144.323,269.879 144.699,270.287 145.179,270.567 145.72,270.693 146.274,270.655 146.793,270.457 147.23,270.114 147.23,270.114 148.017,269.498 148.951,269.14 149.948,269.072 150.922,269.3 151.785,269.803 152.463,270.538 152.895,271.44 153.044,272.429 152.895,273.417 152.463,274.319 151.785,275.054 150.922,275.557 149.948,275.785 148.951,275.717 148.017,275.359 147.23,274.743 147.23,274.743 146.793,274.4 146.274,274.202 145.72,274.164 145.179,274.29 144.699,274.57 144.323,274.978 144.082,275.479 144,276.029 144,276.029 144,288 "/>
        <polyline fill="none" stroke="#000000" stroke-width="1" points="  172,252 172,269.283 172,269.283 172.086,269.852 172.337,270.369 172.73,270.789 173.23,271.074 173.791,271.197 174.364,271.149 174.897,270.933 175.342,270.569 175.342,270.569 176.143,269.913 177.102,269.525 178.134,269.438 179.145,269.66 180.044,270.173 180.751,270.928 181.203,271.86 181.358,272.883 181.203,273.907 180.751,274.838 180.044,275.594 179.145,276.106 178.134,276.329 177.102,276.242 176.143,275.853 175.342,275.198 175.342,275.198 174.897,274.833 174.364,274.617 173.791,274.569 173.23,274.693 172.73,274.977 172.337,275.397 172.086,275.915 172,276.483 172,276.483 172,288 "/>
        <polyline fill="none" stroke="#000000" stroke-width="1" points="  201,252 201,265.57 201,265.57 200.914,266.137 200.664,266.653 200.273,267.072 199.775,267.356 199.215,267.48 198.643,267.433 198.112,267.218 197.667,266.856 197.667,266.856 196.867,266.204 195.91,265.818 194.882,265.732 193.874,265.956 192.978,266.467 192.273,267.221 191.823,268.15 191.669,269.17 191.823,270.191 192.273,271.12 192.978,271.874 193.874,272.385 194.882,272.608 195.91,272.523 196.867,272.137 197.667,271.485 197.667,271.485 198.112,271.122 198.643,270.908 199.215,270.86 199.775,270.984 200.273,271.269 200.664,271.687 200.914,272.203 201,272.77 201,272.77 201,288 "/>
        <polyline fill="none" stroke="#000000" stroke-width="1" points="  230,252 230,268.033 230,268.033 229.917,268.584 229.676,269.087 229.298,269.496 228.816,269.776 228.273,269.903 227.717,269.864 227.197,269.663 226.759,269.319 226.759,269.319 225.971,268.699 225.035,268.338 224.034,268.268 223.057,268.495 222.19,269 221.509,269.737 221.075,270.641 220.926,271.633 221.075,272.625 221.509,273.53 222.19,274.266 223.057,274.771 224.034,274.998 225.035,274.928 225.971,274.567 226.759,273.947 226.759,273.947 227.197,273.603 227.717,273.402 228.273,273.364 228.816,273.49 229.298,273.77 229.676,274.18 229.917,274.682 230,275.233 230,275.233 230,288 "/>
        <polyline fill="none" stroke="#000000" stroke-width="1" points="  259,252 259,266.234 259,266.234 258.908,266.831 258.642,267.373 258.225,267.809 257.696,268.101 257.105,268.22 256.504,268.157 255.951,267.916 255.495,267.52 255.495,267.52 254.675,266.807 253.678,266.374 252.598,266.259 251.533,266.474 250.581,266.999 249.831,267.785 249.351,268.76 249.186,269.834 249.351,270.908 249.831,271.883 250.581,272.67 251.533,273.194 252.598,273.409 253.678,273.295 254.675,272.861 255.495,272.149 255.495,272.149 255.951,271.753 256.504,271.512 257.105,271.448 257.696,271.568 258.225,271.859 258.642,272.296 258.908,272.838 259,273.434 259,273.434 259,288 "/>
    </g>
</svg>
