<?xml version="1.0" encoding="UTF-8" standalone="no"?>
<!-- Created with Inkscape (http://www.inkscape.org/) -->

<svg
   xmlns:dc="http://purl.org/dc/elements/1.1/"
   xmlns:cc="http://creativecommons.org/ns#"
   xmlns:rdf="http://www.w3.org/1999/02/22-rdf-syntax-ns#"
   xmlns:svg="http://www.w3.org/2000/svg"
   xmlns="http://www.w3.org/2000/svg"
   xmlns:sodipodi="http://sodipodi.sourceforge.net/DTD/sodipodi-0.dtd"
   xmlns:inkscape="http://www.inkscape.org/namespaces/inkscape"
   width="297mm"
   height="210mm"
   id="svg4018"
   version="1.1"
   inkscape:version="0.48.2 r9819"
   sodipodi:docname="Pentominoes.svg">
  <defs
     id="defs4020">
    <symbol
       id="*PAPER_SPACE" />
    <symbol
       id="*MODEL_SPACE" />
    <pattern
       id="Hatch"
       x="0"
       y="0"
       patternUnits="userSpaceOnUse"
       width="8"
       height="8">
      <path
         id="path4037"
         d="M8 4 l-4,4"
         stroke-width="0.25"
         stroke="#000000"
         linecap="square" />
      <path
         id="path4039"
         d="M6 2 l-4,4"
         stroke-width="0.25"
         stroke="#000000"
         linecap="square" />
      <path
         id="path4041"
         d="M4 0 l-4,4"
         stroke-width="0.25"
         stroke="#000000"
         linecap="square" />
    </pattern>
    <marker
       orient="auto"
       id="DistanceX"
       style="overflow:visible"
       refX="0.0"
       refY="0.0">
      <path
         id="path4034"
         d="M 3,-3 L -3,3 M 0,-5 L  0,5"
         style="stroke:#000000; stroke-width:0.5" />
    </marker>
    <symbol
       id="*PAPER_SPACE-6" />
    <symbol
       id="*MODEL_SPACE-1" />
    <pattern
       id="Hatch-2"
       x="0"
       y="0"
       patternUnits="userSpaceOnUse"
       width="8"
       height="8">
      <path
         id="path4213"
         d="M8 4 l-4,4"
         stroke-width="0.25"
         stroke="#000000"
         linecap="square" />
      <path
         id="path4215"
         d="M6 2 l-4,4"
         stroke-width="0.25"
         stroke="#000000"
         linecap="square" />
      <path
         id="path4217"
         d="M4 0 l-4,4"
         stroke-width="0.25"
         stroke="#000000"
         linecap="square" />
    </pattern>
    <marker
       orient="auto"
       id="DistanceX-2"
       style="overflow:visible"
       refX="0.0"
       refY="0.0">
      <path
         id="path4210"
         d="M 3,-3 L -3,3 M 0,-5 L  0,5"
         style="stroke:#000000; stroke-width:0.5" />
    </marker>
    <symbol
       id="*PAPER_SPACE-61" />
    <symbol
       id="*MODEL_SPACE-7" />
    <pattern
       id="Hatch-5"
       x="0"
       y="0"
       patternUnits="userSpaceOnUse"
       width="8"
       height="8">
      <path
         id="path4389"
         d="M8 4 l-4,4"
         stroke-width="0.25"
         stroke="#000000"
         linecap="square" />
      <path
         id="path4391"
         d="M6 2 l-4,4"
         stroke-width="0.25"
         stroke="#000000"
         linecap="square" />
      <path
         id="path4393"
         d="M4 0 l-4,4"
         stroke-width="0.25"
         stroke="#000000"
         linecap="square" />
    </pattern>
    <marker
       orient="auto"
       id="DistanceX-8"
       style="overflow:visible"
       refX="0.0"
       refY="0.0">
      <path
         id="path4386"
         d="M 3,-3 L -3,3 M 0,-5 L  0,5"
         style="stroke:#000000; stroke-width:0.5" />
    </marker>
    <symbol
       id="*PAPER_SPACE-5" />
    <symbol
       id="*MODEL_SPACE-9" />
    <pattern
       id="Hatch-27"
       x="0"
       y="0"
       patternUnits="userSpaceOnUse"
       width="8"
       height="8">
      <path
         id="path4541"
         d="M8 4 l-4,4"
         stroke-width="0.25"
         stroke="#000000"
         linecap="square" />
      <path
         id="path4543"
         d="M6 2 l-4,4"
         stroke-width="0.25"
         stroke="#000000"
         linecap="square" />
      <path
         id="path4545"
         d="M4 0 l-4,4"
         stroke-width="0.25"
         stroke="#000000"
         linecap="square" />
    </pattern>
    <marker
       orient="auto"
       id="DistanceX-89"
       style="overflow:visible"
       refX="0.0"
       refY="0.0">
      <path
         id="path4538"
         d="M 3,-3 L -3,3 M 0,-5 L  0,5"
         style="stroke:#000000; stroke-width:0.5" />
    </marker>
    <symbol
       id="*PAPER_SPACE-3" />
    <symbol
       id="*MODEL_SPACE-12" />
    <pattern
       id="Hatch-3"
       x="0"
       y="0"
       patternUnits="userSpaceOnUse"
       width="8"
       height="8">
      <path
         id="path4705"
         d="M8 4 l-4,4"
         stroke-width="0.25"
         stroke="#000000"
         linecap="square" />
      <path
         id="path4707"
         d="M6 2 l-4,4"
         stroke-width="0.25"
         stroke="#000000"
         linecap="square" />
      <path
         id="path4709"
         d="M4 0 l-4,4"
         stroke-width="0.25"
         stroke="#000000"
         linecap="square" />
    </pattern>
    <marker
       orient="auto"
       id="DistanceX-4"
       style="overflow:visible"
       refX="0.0"
       refY="0.0">
      <path
         id="path4702"
         d="M 3,-3 L -3,3 M 0,-5 L  0,5"
         style="stroke:#000000; stroke-width:0.5" />
    </marker>
    <symbol
       id="*PAPER_SPACE-38" />
    <symbol
       id="*MODEL_SPACE-11" />
    <pattern
       id="Hatch-4"
       x="0"
       y="0"
       patternUnits="userSpaceOnUse"
       width="8"
       height="8">
      <path
         id="path4878"
         d="M8 4 l-4,4"
         stroke-width="0.25"
         stroke="#000000"
         linecap="square" />
      <path
         id="path4880"
         d="M6 2 l-4,4"
         stroke-width="0.25"
         stroke="#000000"
         linecap="square" />
      <path
         id="path4882"
         d="M4 0 l-4,4"
         stroke-width="0.25"
         stroke="#000000"
         linecap="square" />
    </pattern>
    <marker
       orient="auto"
       id="DistanceX-3"
       style="overflow:visible"
       refX="0.0"
       refY="0.0">
      <path
         id="path4875"
         d="M 3,-3 L -3,3 M 0,-5 L  0,5"
         style="stroke:#000000; stroke-width:0.5" />
    </marker>
    <symbol
       id="*PAPER_SPACE-9" />
    <symbol
       id="*MODEL_SPACE-77" />
    <pattern
       id="Hatch-42"
       x="0"
       y="0"
       patternUnits="userSpaceOnUse"
       width="8"
       height="8">
      <path
         id="path5009"
         d="M8 4 l-4,4"
         stroke-width="0.25"
         stroke="#000000"
         linecap="square" />
      <path
         id="path5011"
         d="M6 2 l-4,4"
         stroke-width="0.25"
         stroke="#000000"
         linecap="square" />
      <path
         id="path5013"
         d="M4 0 l-4,4"
         stroke-width="0.25"
         stroke="#000000"
         linecap="square" />
    </pattern>
    <marker
       orient="auto"
       id="DistanceX-7"
       style="overflow:visible"
       refX="0.0"
       refY="0.0">
      <path
         id="path5006"
         d="M 3,-3 L -3,3 M 0,-5 L  0,5"
         style="stroke:#000000; stroke-width:0.5" />
    </marker>
    <symbol
       id="*PAPER_SPACE-65" />
    <symbol
       id="*MODEL_SPACE-8" />
    <pattern
       id="Hatch-9"
       x="0"
       y="0"
       patternUnits="userSpaceOnUse"
       width="8"
       height="8">
      <path
         id="path5191"
         d="M8 4 l-4,4"
         stroke-width="0.25"
         stroke="#000000"
         linecap="square" />
      <path
         id="path5193"
         d="M6 2 l-4,4"
         stroke-width="0.25"
         stroke="#000000"
         linecap="square" />
      <path
         id="path5195"
         d="M4 0 l-4,4"
         stroke-width="0.25"
         stroke="#000000"
         linecap="square" />
    </pattern>
    <marker
       orient="auto"
       id="DistanceX-31"
       style="overflow:visible"
       refX="0.0"
       refY="0.0">
      <path
         id="path5188"
         d="M 3,-3 L -3,3 M 0,-5 L  0,5"
         style="stroke:#000000; stroke-width:0.5" />
    </marker>
    <symbol
       id="*PAPER_SPACE-0" />
    <symbol
       id="*MODEL_SPACE-6" />
    <pattern
       id="Hatch-28"
       x="0"
       y="0"
       patternUnits="userSpaceOnUse"
       width="8"
       height="8">
      <path
         id="path5361"
         d="M8 4 l-4,4"
         stroke-width="0.25"
         stroke="#000000"
         linecap="square" />
      <path
         id="path5363"
         d="M6 2 l-4,4"
         stroke-width="0.25"
         stroke="#000000"
         linecap="square" />
      <path
         id="path5365"
         d="M4 0 l-4,4"
         stroke-width="0.25"
         stroke="#000000"
         linecap="square" />
    </pattern>
    <marker
       orient="auto"
       id="DistanceX-0"
       style="overflow:visible"
       refX="0.0"
       refY="0.0">
      <path
         id="path5358"
         d="M 3,-3 L -3,3 M 0,-5 L  0,5"
         style="stroke:#000000; stroke-width:0.5" />
    </marker>
    <symbol
       id="*PAPER_SPACE-09" />
    <symbol
       id="*MODEL_SPACE-65" />
    <pattern
       id="Hatch-8"
       x="0"
       y="0"
       patternUnits="userSpaceOnUse"
       width="8"
       height="8">
      <path
         id="path5585"
         d="M8 4 l-4,4"
         stroke-width="0.25"
         stroke="#000000"
         linecap="square" />
      <path
         id="path5587"
         d="M6 2 l-4,4"
         stroke-width="0.25"
         stroke="#000000"
         linecap="square" />
      <path
         id="path5589"
         d="M4 0 l-4,4"
         stroke-width="0.25"
         stroke="#000000"
         linecap="square" />
    </pattern>
    <marker
       orient="auto"
       id="DistanceX-24"
       style="overflow:visible"
       refX="0.0"
       refY="0.0">
      <path
         id="path5582"
         d="M 3,-3 L -3,3 M 0,-5 L  0,5"
         style="stroke:#000000; stroke-width:0.5" />
    </marker>
    <symbol
       id="AI9-BLK3">
      <path
         id="path5761"
         d="M -189.089248,1414.318763 -189.089248,1425.918405"
         style="stroke:#000000;fill:none" />
      <path
         id="path5763"
         d="M -189.089248,1414.318763 -177.489592,1414.318763"
         style="stroke:#000000;fill:none" />
      <path
         id="path5765"
         d="M -177.489592,1414.318763 -177.489592,1427.208929"
         style="stroke:#000000;fill:none" />
      <path
         id="path5767"
         d="M -177.489592,1427.208929 -189.089248,1425.918405"
         style="stroke:#000000;fill:none" />
    </symbol>
    <symbol
       id="AI9-BLK2">
      <path
         id="path5752"
         d="M -177.489592,1414.318763 -177.489592,1425.918405"
         style="stroke:#000000;fill:none" />
      <path
         id="path5754"
         d="M -177.489592,1414.318763 -189.089248,1414.318763"
         style="stroke:#000000;fill:none" />
      <path
         id="path5756"
         d="M -189.089248,1414.318763 -189.089248,1427.208929"
         style="stroke:#000000;fill:none" />
      <path
         id="path5758"
         d="M -189.089248,1427.208929 -177.489592,1425.918405"
         style="stroke:#000000;fill:none" />
    </symbol>
    <symbol
       id="AI9-BLK1">
      <path
         id="path5743"
         d="M -189.074177,1414.979089 -189.074177,1426.548603"
         style="stroke:#000000;fill:none" />
      <path
         id="path5745"
         d="M -189.074177,1414.979089 -177.504663,1414.979089"
         style="stroke:#000000;fill:none" />
      <path
         id="path5747"
         d="M -177.504663,1426.548603 -177.504663,1414.979089"
         style="stroke:#000000;fill:none" />
      <path
         id="path5749"
         d="M -177.504663,1426.548603 -189.074177,1426.548603"
         style="stroke:#000000;fill:none" />
    </symbol>
    <symbol
       id="*PAPER_SPACE-8" />
    <symbol
       id="*MODEL_SPACE-13" />
    <pattern
       id="Hatch-6"
       x="0"
       y="0"
       patternUnits="userSpaceOnUse"
       width="8"
       height="8">
      <path
         id="path5734"
         d="M8 4 l-4,4"
         stroke-width="0.25"
         stroke="#000000"
         linecap="square" />
      <path
         id="path5736"
         d="M6 2 l-4,4"
         stroke-width="0.25"
         stroke="#000000"
         linecap="square" />
      <path
         id="path5738"
         d="M4 0 l-4,4"
         stroke-width="0.25"
         stroke="#000000"
         linecap="square" />
    </pattern>
    <marker
       orient="auto"
       id="DistanceX-00"
       style="overflow:visible"
       refX="0.0"
       refY="0.0">
      <path
         id="path5731"
         d="M 3,-3 L -3,3 M 0,-5 L  0,5"
         style="stroke:#000000; stroke-width:0.5" />
    </marker>
    <symbol
       id="*PAPER_SPACE-60" />
    <symbol
       id="*MODEL_SPACE-4" />
    <pattern
       id="Hatch-34"
       x="0"
       y="0"
       patternUnits="userSpaceOnUse"
       width="8"
       height="8">
      <path
         id="path5973"
         d="M8 4 l-4,4"
         stroke-width="0.25"
         stroke="#000000"
         linecap="square" />
      <path
         id="path5975"
         d="M6 2 l-4,4"
         stroke-width="0.25"
         stroke="#000000"
         linecap="square" />
      <path
         id="path5977"
         d="M4 0 l-4,4"
         stroke-width="0.25"
         stroke="#000000"
         linecap="square" />
    </pattern>
    <marker
       orient="auto"
       id="DistanceX-9"
       style="overflow:visible"
       refX="0.0"
       refY="0.0">
      <path
         id="path5970"
         d="M 3,-3 L -3,3 M 0,-5 L  0,5"
         style="stroke:#000000; stroke-width:0.5" />
    </marker>
  </defs>
  <sodipodi:namedview
     inkscape:document-units="mm"
     pagecolor="#ffffff"
     bordercolor="#666666"
     borderopacity="1.0"
     inkscape:pageopacity="0.0"
     inkscape:pageshadow="2"
     inkscape:zoom="0.43415836"
     inkscape:cx="50.129284"
     inkscape:cy="476.50883"
     inkscape:current-layer="layer1"
     id="namedview4022"
     showgrid="false"
     inkscape:window-width="1366"
     inkscape:window-height="716"
     inkscape:window-x="-8"
     inkscape:window-y="-8"
     inkscape:window-maximized="1" />
  <metadata
     id="metadata4024">
    <rdf:RDF>
      <cc:Work
         rdf:about="">
        <dc:format>image/svg+xml</dc:format>
        <dc:type
           rdf:resource="http://purl.org/dc/dcmitype/StillImage" />
        <dc:title />
      </cc:Work>
    </rdf:RDF>
  </metadata>
  <g
     inkscape:label="Layer 1"
     inkscape:groupmode="layer"
     id="layer1">
    <g
       style="stroke:#000000;stroke-width:0;stroke-miterlimit:4;stroke-dasharray:none"
       inkscape:label="0"
       id="g5017"
       transform="matrix(0.28796921,0,0,0.28796921,375.65014,167.13848)" />
    <g
       style="stroke:#000000;stroke-width:0;stroke-miterlimit:4;stroke-dasharray:none"
       inkscape:label="0"
       id="g5199"
       transform="matrix(0.43823013,0,0,0.43823013,1092.3292,-109.07037)" />
    <g
       id="g4096"
       transform="matrix(0.93036137,0,0,0.93036137,540.99809,29.417022)"
       style="stroke:#000000;fill:none;stroke-width:1.07485116;stroke-miterlimit:4;stroke-dasharray:none">
      <g
         id="g4128"
         transform="translate(-579.31666,-12.378561)"
         style="stroke:#000000;fill:none;stroke-width:1.07485116;stroke-miterlimit:4;stroke-dasharray:none">
        <path
           style="fill:none;stroke:#000000;stroke-width:1.07485116;stroke-miterlimit:4;stroke-dasharray:none"
           d="m 99.538886,223.67809 46.656254,0 c 0,0 12.08165,-11.53125 19.6875,-11.53125 l 53.40625,0 c 0,0 -2.95771,4.1875 -8.1875,4.1875 l -38.8125,0 c -5.6449,0 -15.28125,7.34375 -15.28125,7.34375 l 74.84375,0 c 4.28464,0 9.125,-5.262 9.125,-9.125 0,0 0,-86.85715 0,-108.875 0,-6.354754 -9.35417,-11.270822 -14.03125,-12.906242 l 0.96875,-8.375 c 4.35417,1.14583 5.97315,3.4375 13.0625,3.4375 0,-3.28125 0,-6.5625 0,-9.84375 0,-2.48601 -6.97917,-4.35417 -10.46875,-6.53125 l 10.46875,-18.59375 -12.34375,5.6875 0,-17.75 12.34375,5.6875 -10.46875,-18.59375 c 3.69589,-2.1453 10.46875,-3.9007 10.46875,-6.5312 l 0,-9.8438 -13.0625,0 c -2.26697,0 -2.29167,5.25 -3.4375,7.875 -5.41579,-2.6292 -10.6306,-7.875 -16.25,-7.875 l -20.6875,0 c -3.94546,0 -8.52958,2.5765 -11.8125,5.4062 -2.52383,2.1756 -5.46875,5.3753 -5.46875,8.375 0,0 0,33.17617 0,48.75005 0,3.33189 4.05601,7.82705 7.46875,10.375 2.77734,2.07356 6.39519,2.82722 9.8125,3.40625 3.56798,0.60456 10.875,0 10.875,0 0,0 -12.27606,3.6754 -18.3125,2.46875 -5.23448,-1.04634 -11.15233,-8.0625 -13.84375,-8.0625 l -66.718754,0 0,35.343742 21.625004,0 c 0,0 -8.50627,11.99683 -9.40625,19 -0.71049,5.52864 3.375,10.8009 3.375,16.375 0,5.5741 -4.08549,10.84636 -3.375,16.375 0.89998,7.00317 9.40625,18.96875 9.40625,18.96875 l -21.625004,0 z M 184.10139,59.896848 c -0.0739,-2.62846 2.30801,-5.07065 4.9375,-5.0625 2.62733,-0.0805 5.07497,2.29331 5.07497,4.92188 0,2.62856 -2.44764,5.00236 -5.07497,4.92187 -2.53577,0.008 -4.86391,-2.24653 -4.9375,-4.78125 z m 0,-19.65625 c -0.0912,-2.63875 2.29719,-5.10275 4.9375,-5.09375 2.58527,0 4.9375,2.3522 4.9375,4.9375 0,2.58527 -2.35223,4.9375 -4.9375,4.9375 -2.53583,0.008 -4.86414,-2.24647 -4.9375,-4.78125 z m 24.125,27.25 c -0.0474,-1.96116 1.72577,-3.7794 3.6875,-3.78125 1.99187,-0.0991 3.87551,1.69317 3.87551,3.6875 0,1.99433 -1.88364,3.7866 -3.87551,3.6875 -1.8993,-0.002 -3.63693,-1.69512 -3.6875,-3.59375 z m 0,-34.93755 c -0.064,-1.9713 1.71516,-3.8107 3.6875,-3.8124 1.93894,0 3.7031,1.7642 3.7031,3.7031 0,1.9389 -1.76416,3.7031 -3.7031,3.7031 -1.89925,0 -3.63671,-1.6952 -3.6875,-3.5938 z"
           id="path4315"
           inkscape:connector-curvature="0"
           sodipodi:nodetypes="ccscsscsssccccccccccccccssccssscsscccssscccccsccccsccccsccccscc" />
        <path
           style="fill:none;stroke:#000000;stroke-width:1.07485116;stroke-miterlimit:4;stroke-dasharray:none"
           d="m 29.067876,282.45939 c 0,1.78174 2.47889,4.92268 4.40625,4.40625 l 7.625,-4.65625 -4.15625,8.09375 3.90625,3.9375 5.90625,0 2.4375,-7.40625 2.96875,7.40625 6.40625,0 0,-7.40625 5.90625,7.40625 35.28125,0 -8.21875,-14.71875 c 3.56751,0 8.21875,-5.54006 8.21875,-9.375 l 0,-22.5 c 0,-4.44553 -3.64049,-9.375 -8.21875,-9.375 l 8.21875,-14.71875 -16.09375,0 c 6.51387,-11.28236 16.09375,-23.59566 16.09375,-37.53125 l 0,-119.718742 c 0,-19.69605 7.923954,-25.375 13.406254,-25.375 l 20.6875,0 c 5.1027,0 12.76522,6.09822 10.8125,10.8125 -4.14258,10.00108 -32.46875,0 -32.46875,0 l 0,20.1875 c 0,5.68059 11.40655,10 19.40625,10 l 19.40625,0 c 8.92011,0 19.4375,-12.1918 19.4375,-19.40625 l 0,-31.59375 c 0,-8.19865 -10.22688,-19.4063 -19.4375,-19.4063 l -31.9375,0 c -8.92032,0 -12.4786,7.40641 -19.406254,7.4063 -6.92705,-1.1e-4 -7.89285,-7.4063 -19.40625,-7.4063 l -51.1875,0 0,100.218792 8.8125,0 c 5.56701,0 9.68199,-6.6693 11.8125,-11.812497 3.01299,-7.273575 0,-23.624995 0,-23.624995 0,0 8.98907,17.35771 6.875,26.093742 -2.07435,8.5719 -8.86818,19.6875 -17.6875,19.6875 l -9.8125,0 0,91.125 8.8125,0 c 5.56678,0 9.68198,-6.6383 11.8125,-11.78125 3.09153,-7.46275 0,-24.25 0,-24.25 0,0 9.15162,18.06978 6.84375,27.09375 -2.49468,9.75446 -20.53125,22.15625 -20.53125,22.15625 l 4.375,8.3125 -7.84375,-4.875 c -1.84027,0 -3.46875,1.49175 -3.46875,3.5 l 0,49.09375 z m 27.59375,-24.375 c 0,-1.43109 1.16265,-2.59375 2.59375,-2.59375 1.43108,0 2.59375,1.16266 2.59375,2.59375 0,1.43109 -1.16265,2.5625 -2.59375,2.5625 -1.43108,0 -2.59375,-1.13141 -2.59375,-2.5625 z m 10.9375,14.3125 c 0,-1.43109 1.16265,-2.59375 2.59375,-2.59375 1.43108,0 2.59375,1.16266 2.59375,2.59375 0,1.43109 -1.16266,2.59375 -2.59375,2.59375 -1.43109,0 -2.59375,-1.16266 -2.59375,-2.59375 z m 0,-28.65625 c 0,-1.43109 1.16265,-2.59375 2.59375,-2.59375 1.43108,0 2.59375,1.16266 2.59375,2.59375 0,1.43109 -1.16266,2.59375 -2.59375,2.59375 -1.43109,0 -2.59375,-1.16266 -2.59375,-2.59375 z"
           id="path5877"
           inkscape:connector-curvature="0" />
        <path
           style="fill:none;fill-opacity:1;stroke:#000000;stroke-width:1.07485116;stroke-linecap:round;stroke-miterlimit:4;stroke-opacity:1;stroke-dasharray:none;stroke-dashoffset:0"
           d="m 241.68522,365.29269 70.6875,0 0,-9.34375 c 0,-4.70531 -8.34375,-6.52683 -8.34375,-13.25 0,-9.74956 8.34375,-17.0219 8.34375,-24.03125 l 0,-24.0625 70.65625,0 0,-70.6875 -9.3125,0 c -4.26662,0 -8.27225,8.34375 -13.25,8.34375 -8.17041,0 -15.82936,-8.34375 -24.0625,-8.34375 l -24.03125,0 0,-141.343742 -18.15625,0 0,34.843742 -8.34375,-34.843742 -44.1875,0 c 3.09062,11.53435 6.875,24.440262 6.875,37.312492 0,4.58079 -6.875,9.88678 -6.875,13.75 l 0,35.8125 19.625,-19.625 0,9.3125 -19.625,19.65625 0,19.625 19.625,-19.625 0,9.3125 -19.625,19.625 0,19.625 19.625,-19.625 0,9.34375 -19.625,19.625 0,19.625 19.625,-19.625 0,9.3125 -19.625,19.625 0,19.65625 19.625,-19.65625 0,9.34375 -19.625,19.625 0,70.6875 z m 22.40625,-243.75 c 0,-3.1802 2.60104,-5.75 5.78125,-5.75 3.1802,0 5.75,2.5698 5.75,5.75 0,3.1802 -2.5698,5.75 -5.75,5.75 -3.18021,0 -5.78125,-2.5698 -5.78125,-5.75 z"
           id="path5236"
           inkscape:connector-curvature="0" />
        <path
           style="fill:none;stroke:#000000;stroke-width:1.07485116;stroke-miterlimit:4;stroke-dasharray:none"
           d="m 312.75582,507.99938 70.65625,0 0,51.53125 c 0,4.75023 3.61233,10.87379 7.875,14.21875 4.93303,3.871 11.89625,4.90625 18.15625,4.90625 l 11.78125,0 5.375,-37.78125 0,37.78125 14.75,0 c 5.68325,0 12.75,-6.86331 12.75,-12.75 l 0,-108.96875 c 0,-7.96898 -10.22778,-19.625 -19.625,-19.625 l -51.0625,0 c 0,0 -5.42971,3.73901 -6.625,6.625 -1.47092,3.55149 -1.47098,7.97979 0,11.53125 2.27976,5.50411 7.47417,9.68585 12.65625,12.625 5.9794,3.39138 20,5.03125 20,5.03125 0,0 -14.62439,0.77076 -21.125,-2 -5.86128,-2.49826 -11.81425,-6.67656 -14.46875,-12.46875 -2.28339,-4.98241 -2.09738,-11.37398 0,-16.4375 1.72691,-4.16913 9.5625,-9.5625 9.5625,-9.5625 l 0,-96.46875 c 0,-9.4609 -3.26957,-16.01467 -4.90625,-24.03125 1.63668,-0.81802 4.90625,-3.15599 4.90625,-5.09375 l 0,-6.6875 c 0,-2.30129 -2.01706,-4.40625 -4.40625,-4.40625 l -5.84375,0 c -4.03541,0 -3.98713,5.86763 -4.96875,8.8125 0,0 -3.9502,0.38661 -5.875,0 -7.47712,-1.50185 -13.22751,-8.8125 -21.09375,-8.8125 l -28.46875,0 0,42.1875 9.8125,-2.4375 c -3.27079,10.30735 -9.8125,19.57413 -9.8125,30.90625 l 0,70.6875 c 0,10.74613 6.54171,20.59922 9.8125,30.90625 l -9.8125,-2.4375 0,42.21875 z m 124.65625,14.96875 c 0,-2.1862 1.97005,-4.1905 4.15625,-4.1875 2.1862,-0.003 4.1875,2.0013 4.1875,4.1875 0,2.1862 -2.0013,4.15925 -4.1875,4.15625 -2.1862,0.003 -4.15625,-1.97005 -4.15625,-4.15625 z"
           id="path4475"
           inkscape:connector-curvature="0" />
        <path
           style="fill:none;stroke:#000000;stroke-width:1.07485116;stroke-miterlimit:4;stroke-dasharray:none"
           d="m 29.067876,495.75701 c 0,4.65091 22.4249,12.09375 35.375,12.09375 l 17.375,0 c 10.55554,0 20.515324,-4.38922 30.781254,-6.59375 -11.99802,6.92706 -12.781254,27.90667 -12.781254,42.3125 l 0,76.34375 c 0,5.97584 4.781744,7.75534 8.843754,8.84375 -3.95763,0 -8.843754,1.35572 -8.843754,6.625 l 0,14.03125 14.031254,0 c 2.7082,0 6.625,-4.5764 6.625,-8.84375 1.36537,5.09563 4.45902,8.84375 8.84375,8.84375 l 96.3125,0 c 7.89134,0 15.75,-1.43208 15.75,-4.28125 l 0,-66.5 -18.03125,0 c -10.07588,0 -16.71875,2.27722 -16.71875,10.15625 l 0,7.875 c -6.00694,-6.00694 -9.53465,-18.03125 -18,-18.03125 l -29.65625,0 c -4.71135,0 -8.74234,4.94655 -11.4375,8.96875 -2.59731,3.87618 -3.8125,13.46875 -3.8125,13.46875 0,0 -1.24367,-9.76482 0,-14.40625 1.72673,-6.44425 6.75767,-12.78125 12.78125,-12.78125 l 14.09375,0 0,-80.75 -11.625,0 c -4.71135,0 -7.87047,5.76614 -10,9.96875 -5.19415,10.25065 -5.25,34.09375 -5.25,34.09375 0,0 -4.59727,-24.93246 0,-36.03125 2.30513,-5.56507 6.75767,-12.78125 12.78125,-12.78125 l 8.03125,0 c 2.88793,0 6.0625,-2.88646 6.0625,-6.0625 l 0,-40.96875 -12.9375,4.59375 9.65625,-8.84375 -24,0 c -9.31219,0 -16.6875,0.11802 -16.6875,10.46875 -16.27255,-3.49461 -27.962294,-10.46875 -44.812504,-10.46875 l -17.375,0 c -15.33015,0 -35.375,8.94522 -35.375,12.125 l 0,11.125 c 0,4.6163 23.57997,12.125 35.375,12.125 -11.80955,0 -35.375,7.78768 -35.375,12.125 l 0,11.15625 z m 48.15625,-23.28125 c 11.79573,0 23.579974,-3.70609 35.375004,-5.5625 l 0,11.125 c -11.79503,-1.85641 -23.003474,-5.5625 -35.375004,-5.5625 z m 62.250004,-18.34375 c 0,-2.57475 2.3315,-4.90825 4.90625,-4.90625 2.57475,-0.002 4.9375,2.3315 4.9375,4.90625 0,2.57475 -2.36275,4.90825 -4.9375,4.90625 -2.57475,0.002 -4.90625,-2.3315 -4.90625,-4.90625 z"
           id="path5115"
           inkscape:connector-curvature="0" />
        <path
           id="path5637"
           style="fill:none;stroke:#000000;stroke-width:1.07485116;stroke-miterlimit:4;stroke-dasharray:none"
           d="m 188.00501,243.39333 c -9.9e-4,-1.87655 -1.70861,-3.58327 -3.58516,-3.58327 -1.87655,0 -3.58417,1.70672 -3.58516,3.58327 -9.9e-4,1.87782 1.70734,3.58705 3.58516,3.58705 1.87782,0 3.58615,-1.70923 3.58516,-3.58705 z m 16.31414,0 c -9.9e-4,-1.87655 -1.70861,-3.58327 -3.58516,-3.58327 -1.87655,0 -3.58417,1.70672 -3.58516,3.58327 -9.9e-4,1.87782 1.70734,3.58705 3.58516,3.58705 1.87782,0 3.58615,-1.70923 3.58516,-3.58705 z m -19.90026,-19.31186 8.15707,8.15707 8.15708,-8.15707 8.15707,8.15707 32.48815,-8.15707 0,28.62816 -70.77015,10.88026 70.77015,0 0,31.26173 -70.77207,0 -0.002,54.59615 c 0,8.87051 -8.16453,16.17401 -16.17385,16.17401 l -86.045704,0 c -8.66097,0 -21.62422,6.24654 -21.62422,21.62421 0,15.33957 8.28549,22.60713 22.60713,22.60713 4.63352,0 9.82919,-5.19566 9.82919,-9.82918 0,-1.27422 -1.42881,-2.70303 -2.70303,-2.70303 -1.52329,0 -3.10844,6.59055 -8.59054,6.59055 -9.28599,0 -16.17401,-3.86704 -16.17401,-16.17401 0,-11.28904 7.66544,-16.174 18.17401,-16.174 4.58695,0 9.17391,0 13.76086,0 7.88732,0 16.174,7.52474 16.174,16.174 l 0,32.48048 c 0,7.44436 -6.71045,16.174 -16.174,16.174 l -38.42214,0 c -8.24733,0 -16.17401,-9.13582 -16.17401,-16.174 l 0,-109.1923 c 0,-7.88732 8.74617,-16.17401 16.17401,-16.17401 l 54.59519,0 c 4.612924,0 7.279954,-3.08951 7.791354,-4.9981 l 0,-8.52855 c 0,-3.47331 -7.791354,-4.75867 -7.791354,-7.79136 l 0,-30.41481 19.538394,8.15996 -17.18381,-14.21585 11.00409,-11.00408 16.0713,16.0713 -10.88026,-18.04866 21.01757,0 36.85753,8.15707 z"
           inkscape:connector-curvature="0"
           sodipodi:nodetypes="sssssssssscccccccccccccssassssscccccccccccccccccccc" />
        <path
           id="path4805"
           style="fill:none;stroke:#000000;stroke-width:1.07485116;stroke-miterlimit:4;stroke-dasharray:none"
           d="m 413.51638,697.56491 c -0.002,2.05864 1.87037,3.93327 3.92902,3.93327 2.05864,0 3.93124,-1.87463 3.92901,-3.93327 -0.002,-2.05581 -1.8732,-3.92476 -3.92901,-3.92476 -2.05582,0 -3.9268,1.86895 -3.92902,3.92476 z M 241.93279,588.14819 c 0,0 6.64693,14.10279 9.28632,21.4254 3.12581,8.67211 6.42027,17.4292 7.7199,26.55538 1.04002,7.30313 0.58341,14.77673 0,22.13044 -0.63605,8.01723 -3.80432,23.82545 -3.80432,23.82545 0,0 9.38614,-23.49858 9.92144,-32.30194 0.82765,-13.61128 -0.97618,-23.21203 -4.44805,-34.17384 -2.22019,-7.00983 -8.95571,-20.2383 -6.37168,-30.19516 0.74996,-2.88979 5.87752,-6.75829 5.87752,-6.75829 l 20.91845,0 c 0,0 0.5722,34.9667 0.5722,47.0357 0,3.57603 5.17882,-5.81929 5.17882,-9.39533 0,-12.99184 -0.25279,-37.64037 -0.25279,-37.64037 l 15.96234,0 c 6.29209,0 10.16211,3.22477 10.16211,10.16209 l 0,60.56016 70.72226,0 0,-70.72225 31.36113,0 c 0,0 -0.0975,30.54948 0,49.86663 0.0216,4.28215 5.08393,-4.80172 5.08393,-9.08392 0,-16.21813 0,-40.78271 0,-40.78271 l 34.2772,0 0,123.27282 -11.29592,-1.9645 8.1151,8.05467 c -1.05311,5.42152 -4.43359,6.70549 -7.87721,7.87721 l -7.11942,-7.11942 2.91607,11.32374 -9.31798,0 -2.95252,-8.37026 -0.98609,8.37026 -6.4,0 -6.39999,-7.87722 0,7.87722 0,0 -4.9247,0 c 0,0 -3.52038,-16.55083 -5.90695,-16.73956 -6.24921,-0.49419 -14.50304,1.81371 -18.57265,-2.95444 -4.15524,-4.86848 -4.04317,-14.23996 0,-19.20191 4.35389,-5.34328 12.15045,-4.56774 20.25154,-4.17594 5.04706,0.24409 15.10959,1.22151 15.10959,1.22151 0,0 -8.07773,-3.95257 -15.07585,-4.88998 -8.42732,-1.12885 -19.62684,-2.01492 -25.11077,4.48281 -5.58503,6.61752 -5.59668,19.20237 -0.20358,25.97723 4.307,5.4105 13.14223,3.47249 20.254,4.49323 6.5932,0.94631 -9.58769,11.78705 -15.22493,11.78705 l 0,0 -129.56539,0 c -8.60957,0 -11.87913,-3.97425 -11.87913,-11.87818 l 0,-120.07378"
           inkscape:connector-curvature="0"
           sodipodi:nodetypes="ssssscaaacssaccsscccccccssccccccccccccccccsaascsaasccccc" />
        <path
           id="path4950"
           style="fill:none;stroke:#000000;stroke-width:1.07485116;stroke-miterlimit:4;stroke-dasharray:none"
           d="m 290.6303,462.29279 c 2.62233,-0.002 5.0067,-2.38873 5.0067,-5.01106 0,-2.62233 -2.38437,-5.00878 -5.0067,-5.01106 -2.62524,-0.002 -5.01542,2.38582 -5.01542,5.01106 0,2.62524 2.39018,5.01335 5.01542,5.01106 z m -28.27427,116.44709 c -6.92426,0 -19.98474,-12.50189 -19.98474,-19.98666 0,7.48483 -10.44535,19.98666 -19.98857,19.98666 l -50.78158,0 0,-67.16676 c 0,-1.78474 1.96964,-3.6034 3.60339,-3.6034 l 12.12331,0 c 6.29517,0 12.12139,5.43273 12.12139,12.12235 0,-6.48806 5.8371,-12.12235 12.12138,-12.12235 l 45.87082,0 c -5.74804,0 -15.07014,-8.95543 -15.07014,-15.07014 l 0,-38.59378 c 0,-2.75712 3.05754,-7.05755 4.58631,-8.58632 l 23.75324,13.26844 -18.51036,-18.51035 c 1.09235,-1.09267 3.668,-3.278 5.27704,-3.278 l 44.48938,0 c 7.53879,0 11.17455,10.15171 11.17455,17.36522 l 0,53.40493 70.77015,0 0,50.7835 c 0,8.91892 -12.10273,19.98666 -19.98666,19.98666 7.88801,0 19.98666,11.67722 19.98666,19.98665 l 0,50.7835 -67.16676,0 c -2.04426,0 -3.60339,-1.68947 -3.60339,-3.60339 l 0,-12.12331 c 0,-4.55768 8.38393,-12.12139 12.12138,-12.12139 -3.63737,0 -12.12138,-5.91615 -12.12138,-12.12138 l 0,-30.80068 z"
           inkscape:connector-curvature="0"
           sodipodi:nodetypes="sssssccccccccccccccccccccccccccccccc" />
        <path
           style="fill:none;stroke:#000000;stroke-width:1.07485116;stroke-miterlimit:4;stroke-dasharray:none"
           d="m 241.22413,660.85015 c 0,-7.00616 -8.5169,-11.46875 -22.9375,-11.46875 l -80.21875,0 c -18.93948,0 -33.96875,9.6875 -33.96875,9.6875 0,0 -4.312504,-6.78296 -4.312504,-9.6875 l 0,-93.3125 c 0,-15.76267 -9.1875,-21.59375 -9.1875,-21.59375 0,0 9.1875,-7.39244 9.1875,-11.78125 l 0,-14.75 c -7.03981,6.6141 -16.00531,10.18346 -19.03125,7.1875 -3.02594,-2.99596 -15.20005,-7.1875 -19.9375,-7.1875 l -17.03125,0 c -3.61094,0 -9.54255,2.87001 -12.03125,5.34375 l 6.46875,6.78125 -9.15625,-3.28125 0,16.03125 c 12.32718,-0.40056 18.81482,15.06569 20.125,20.15625 l 9.96875,38.78125 -13.40625,-36.34375 c -1.6766,-4.53929 -8.22707,-17.996 -16.6875,-16.6875 l 0,74.96875 c 9.58157,0 18.20252,12.68683 20.125,20.15625 l 9.96875,38.78125 -13.40625,-36.34375 c -2.483,-6.72224 -9.20084,-16.6875 -16.6875,-16.6875 l 0,94.28125 c 0,3.80162 11.87651,6.21875 22.5625,6.21875 l 25.5625,0 c 4.87082,0 16.63812,-5.91291 22.59375,-6.21875 5.955634,-0.30584 17.727044,6.21875 23.218754,6.21875 l 95.28125,0 c 14.39982,0 22.9375,-4.54236 22.9375,-11.4375 l 0,-47.8125 z m -22.875,19.1875 0,7.46875 c 0,4.54882 -8.25781,7.71875 -15.4375,7.71875 0,0 -53.00486,0.28637 -64.84375,0 -11.83889,-0.28637 -20.33873,-7.46264 -22.90625,-11.46875 -2.56752,-4.00611 -9.21875,-20.59375 -9.21875,-20.59375 0,0 13.01678,9.15625 32.125,9.15625 l 64.84375,0 c 6.93224,0 15.4375,3.25231 15.4375,7.71875 z M 71.942876,527.2564 c -3.01662,0.92896 -5.31681,0.5417 -7.53125,0 -1.13744,-2.83142 -1.28502,-5.32786 -0.3125,-8.1875 3.88352,1.20564 6.4752,4.42396 7.84375,8.1875 z"
           id="path7106"
           inkscape:connector-curvature="0" />
        <path
           id="path4102"
           style="fill:none;fill-opacity:1;stroke:#000000;stroke-width:1.07485116;stroke-linecap:round;stroke-miterlimit:4;stroke-opacity:1;stroke-dasharray:none;stroke-dashoffset:0"
           d="m 121.84552,401.58139 c 2.92337,0 5.29322,2.36986 5.29322,5.29322 0,2.92337 -2.36985,5.29323 -5.29322,5.29323 -2.92337,0 -5.29322,-2.36986 -5.29322,-5.29323 0,-2.92336 2.36985,-5.29322 5.29322,-5.29322 z m 100.18894,61.82661 19.24244,-8.84626 0,-5.54188 c -3.37498,-5.84563 -10.54489,-10.23545 -17.69252,-12.15065 l 44.23131,0 c 4.21146,0 19.70461,-7.63741 26.53878,-14.47264 l 0,0 8.84626,14.47264 0,0 8.84626,0 0,0 0,-29.50226 c 0,-1.47753 -1.78234,-2.90298 -3.20932,-2.90298 l -32.17572,-0.0586 c -6.00143,0 -11.79501,-1.94812 -17.69252,-2.92218 5.89751,-0.97374 11.79321,-2.92122 17.69252,-2.92122 l 32.17572,-0.0595 c 1.64329,0.009 3.20932,-1.49802 3.20932,-2.90203 l 0,-29.50226 -8.84626,0 0,0 -8.84626,14.47169 c -7.39106,-7.67177 -21.47232,-14.47169 -26.53878,-14.47169 l -44.23131,0 c 7.26573,-1.94685 14.0917,-5.91479 17.69252,-12.1516 l 0,-5.54092 -19.24244,-8.84626 19.24244,-10.83984 0,-4.25988 -17.93067,-11.43906 17.93067,-8.84626 0,-5.27204 c 0,-1.80217 -5.59134,-3.57422 -8.84626,-3.57422 l -44.2313,0 c -11.36915,0 -17.69348,6.85395 -17.69348,17.69252 l 0,53.07756 -26.53879,0 c -7.34122,0 -12.83538,7.62289 -17.69252,12.48003 -4.49597,-4.49597 -12.53891,-12.48003 -26.538784,-12.48003 l 0,70.77105 8.005044,0 16.15124,-5.21345 c 2.60958,3.43389 2.53697,5.21345 7.86292,5.21345 l 1.96572,-18.32055 3.27942,18.32248 c 8.16142,0 9.18774,-9.68527 12.2121,-14.71657 4.14913,4.90488 7.001,14.71464 12.44738,14.71464 3.38144,0 5.89751,-5.89751 8.84627,-8.84626 l 0,61.92383 c 0,10.82114 6.87127,17.69252 17.69348,17.69252 l 44.2313,0 c 3.52611,0 8.84626,-1.9499 8.84626,-3.5752 l 0,-5.27108 -17.93067,-8.84626 17.93067,-11.43906 0,-4.25988 z"
           inkscape:connector-curvature="0"
           sodipodi:nodetypes="ssssscccccccccccccccccccccccccccccccccsscscccccccccccssccccccc" />
        <path
           id="path5157"
           style="fill:none;fill-opacity:1;stroke:#000000;stroke-width:1.07485116;stroke-linecap:round;stroke-miterlimit:4;stroke-opacity:1;stroke-dasharray:none;stroke-dashoffset:0"
           d="m 405.71451,95.207485 c 3.41871,0 6.19013,2.77142 6.19013,6.190135 0,3.41872 -2.77142,6.19014 -6.19013,6.19014 -3.41872,0 -6.19014,-2.77142 -6.19014,-6.19014 0,-3.418715 2.77142,-6.190135 6.19014,-6.190135 z m 30.01822,270.678035 c 7.57806,0 18.36584,-10.50722 18.36584,-18.36468 l -10e-5,-33.71368 c 0,-8.72102 -9.34176,-18.36659 -18.3667,-18.36659 8.72074,0 18.36584,-10.7948 18.36584,-18.36467 l 8.7e-4,-34.03234 c 0,-10.22695 -8.45694,-18.3666 -18.36671,-18.3666 9.86711,0 18.36584,-10.20167 18.36584,-18.36467 l -10e-5,-33.71368 c 0,-9.29637 -9.62889,-18.36659 -18.36669,-18.36659 9.29609,0 18.36583,-11.07429 18.36583,-18.36467 l -6e-5,-27.02777 -35.38186,9.69199 7.36065,-35.381795 -24.37682,0 c -8.43301,0 -18.36563,9.34043 -18.36563,18.364665 l 0,69.41606 c 0,10.15886 10.2202,18.36467 18.36555,18.36467 -7.85003,0 -18.36655,9.07023 -18.36655,18.3666 l 4e-5,33.71367 c 0,10.74794 9.35725,18.36468 18.36556,18.36468 -9.05024,0 -18.36656,8.1927 -18.36656,18.36659 l 0.001,34.03233 c 0,10.74794 10.22021,18.36468 18.36556,18.36468 -8.14571,0 -18.36656,8.48001 -18.36656,18.36659 l 4e-5,33.71368 c 0,10.46996 8.77572,18.36467 18.36563,18.36467 -6.12122,12.00637 -12.24245,24.01273 -18.36367,36.0191 l 52.39896,0 c 7.8653,0 18.36564,-11.37896 18.36564,-18.36467 l 0.002,-34.35098 c 0,-9.5795 -11.08381,-18.36659 -18.36684,-18.36659 z"
           inkscape:connector-curvature="0"
           sodipodi:nodetypes="ssssscccccccccccccccccccccccccccccccc" />
        <path
           id="path5467-7"
           style="fill:none;fill-opacity:1;stroke:#000000;stroke-width:1.07485116;stroke-linecap:round;stroke-miterlimit:4;stroke-opacity:1;stroke-dasharray:none;stroke-dashoffset:0"
           d="m 362.68137,36.127048 c 1.68656,0 3.05378,1.3673 3.05378,3.0538 0,1.6866 -1.36722,3.0538 -3.05378,3.0538 -1.68656,0 -3.05378,-1.3672 -3.05378,-3.0538 0,-1.6865 1.36722,-3.0538 3.05378,-3.0538 z m -29.5199,-0.2036 c 1.68656,0 3.05378,1.3673 3.05378,3.0538 0,1.6866 -1.36722,3.0538 -3.05378,3.0538 -1.68656,0 -3.05378,-1.3672 -3.05378,-3.0538 0,-1.6865 1.36722,-3.0538 3.05378,-3.0538 z m 14.65817,17.5084 c 1.68656,0 3.05378,1.3672 3.05378,3.0538 0,1.6865 -1.36722,3.0538 -3.05378,3.0538 -1.68656,0 -3.05378,-1.3673 -3.05378,-3.0538 0,-1.6866 1.36722,-3.0538 3.05378,-3.0538 z m 92.4847,-41.91 -67.8128,0 c -8.99735,0 -15.46823,11.7949 -24.54576,11.7949 -9.07754,0 -15.54842,-11.7949 -24.54577,-11.7949 l -67.8128,0 c -6.4307,0 -13.79523,7.9682 -13.79523,13.7953 l 0,48.77665 c 0,4.46325 4.85469,8.19824 8.19823,8.19824 l 43.76152,0 c 3.76193,0 13.31135,-6.45216 16.34642,-12.63379 2.89513,-5.89663 3.22072,-13.98177 0,-19.70706 -4.25832,-7.56976 -13.58906,-13.20322 -22.26825,-13.52905 -7.69827,-0.28901 -16.56937,3.9175 -20.59564,10.4853 -2.07523,3.38519 -2.25287,8.64231 0,11.91197 2.49295,3.61811 11.61207,0.35784 12.31703,4.69472 0.47691,2.93394 -3.94107,5.34475 -6.89762,5.6517 -4.6029,0.47787 -9.91549,-2.44948 -12.31703,-6.4052 -3.24358,-5.3427 -3.23143,-13.40061 0,-18.75066 5.47551,-9.06541 17.54107,-15.25268 28.12151,-14.78669 10.91282,0.48063 21.87643,8.40882 27.55183,17.74212 3.69041,6.06895 3.6788,14.34526 2,21.21465 -1.1496,4.704 -5.44881,9.11795 -5.44881,14.11199 l 0,141.540302 29.78856,0 0,-29.79048 c 0,-2.73256 2.95804,-5.59603 5.59604,-5.59603 2.63799,0 5.59603,2.57903 5.59603,5.59603 l 0,29.79048 29.78857,0 10e-6,-141.540292 c 0,-4.994 -4.29921,-9.408 -5.44881,-14.112 -1.6788,-6.8694 -1.69041,-15.1457 2,-21.2146 5.6754,-9.3333 16.63901,-17.2615 27.55183,-17.7422 10.58044,-0.4659 22.646,5.7213 28.12151,14.7867 3.23143,5.3501 3.24358,13.408 0,18.7507 -2.40154,3.9557 -7.71413,6.8831 -12.31703,6.4052 -2.95655,-0.307 -7.37453,-2.7178 -6.89762,-5.6517 0.70496,-4.3369 9.82408,-1.0766 12.31703,-4.6947 2.25287,-3.2697 2.07523,-8.5268 0,-11.912 -4.02627,-6.5678 -12.89737,-10.7743 -20.59564,-10.4853 -8.67919,0.3258 -18.00993,5.9593 -22.26825,13.5291 -3.22072,5.7252 -2.89513,13.8104 0,19.707 3.03507,6.1816 12.58449,12.6338 16.34642,12.6338 l 43.76152,0 c 3.34354,0 8.19823,-3.735 8.19823,-8.1982 l 0,-48.7767 c 0,-5.8271 -7.36453,-13.7953 -13.79523,-13.7953 z"
           inkscape:connector-curvature="0" />
      </g>
    </g>
    <path
       style="fill:none;fill-opacity:1;stroke:#000000;stroke-width:1;stroke-linecap:round;stroke-miterlimit:4;stroke-opacity:1;stroke-dashoffset:0;marker-start:url(#DistanceX-89);marker-mid:url(#DistanceX-2);stroke-dasharray:none"
       d="m 946.47778,446.35412 0,-430.866145 17.7165,17.71654 0,395.433065 z"
       id="path4196"
       inkscape:connector-curvature="0" />
    <path
       style="fill:none;fill-opacity:1;stroke:#000000;stroke-width:1;stroke-linecap:round;stroke-miterlimit:4;stroke-opacity:1;stroke-dashoffset:0;marker-start:url(#DistanceX-89);marker-mid:url(#DistanceX-2);stroke-dasharray:none"
       d="m 973.23508,428.63758 0,-395.433065 17.7165,-17.71654 0,430.866145 z"
       id="rect4094-1"
       inkscape:connector-curvature="0" />
    <rect
       style="fill:none;fill-opacity:1;stroke:#000000;stroke-width:1;stroke-linecap:round;stroke-miterlimit:4;stroke-opacity:1;stroke-dasharray:none;stroke-dashoffset:0"
       id="rect4094-1-7"
       width="430.86615"
       height="696.25983"
       x="454.54538"
       y="15.317031" />
    <path
       style="fill:none;fill-opacity:1;stroke:#000000;stroke-width:1;stroke-linecap:round;stroke-miterlimit:4;stroke-opacity:1;stroke-dashoffset:0;marker-start:url(#DistanceX-89);marker-mid:url(#DistanceX-2);stroke-dasharray:none"
       d="m 892.96298,711.74778 0,-696.259805 17.7165,17.71652 0,660.826785 z"
       id="path4200"
       inkscape:connector-curvature="0" />
    <path
       style="fill:none;fill-opacity:1;stroke:#000000;stroke-width:1;stroke-linecap:round;stroke-miterlimit:4;stroke-opacity:1;stroke-dashoffset:0;marker-start:url(#DistanceX-89);marker-mid:url(#DistanceX-2);stroke-dasharray:none"
       d="m 919.72038,694.03128 0,-660.826785 17.7165,-17.71652 0,696.259805 z"
       id="rect4094-1-0"
       inkscape:connector-curvature="0" />
  </g>
</svg>
