<?xml version="1.0" encoding="UTF-8"?>
<!DOCTYPE svg PUBLIC "-//W3C//DTD SVG 1.1//EN" "http://www.w3.org/Graphics/SVG/1.1/DTD/svg11.dtd">
<!-- Creator: CorelDRAW X7 -->
<svg xmlns="http://www.w3.org/2000/svg" xml:space="preserve" width="32in" height="18in" version="1.1" style="shape-rendering:geometricPrecision; text-rendering:geometricPrecision; image-rendering:optimizeQuality; fill-rule:evenodd; clip-rule:evenodd"
viewBox="0 0 32000 18000"
 xmlns:xlink="http://www.w3.org/1999/xlink">
 <defs>
  <style type="text/css">
   <![CDATA[
    .str5 {stroke:#ED3237;stroke-width:3}
    .str1 {stroke:black;stroke-width:3}
    .str3 {stroke:lime;stroke-width:3}
    .str0 {stroke:black;stroke-width:3;stroke-linejoin:bevel}
    .str2 {stroke:lime;stroke-width:3;stroke-linejoin:bevel}
    .str4 {stroke:red;stroke-width:3;stroke-linejoin:bevel}
    .str6 {stroke:blue;stroke-width:3}
    .str7 {stroke:blue;stroke-width:3;stroke-linecap:round}
    .fil0 {fill:none}
    .fil1 {fill:none;fill-rule:nonzero}
   ]]>
  </style>
 </defs>
 <g id="_3holder_x0020_cut_x0020_outline">
  <metadata id="CorelCorpID_0Corel-Layer"/>
  <line class="fil0 str0" x1="27471" y1="261" x2="31763" y2= "261" />
  <path class="fil0 str0" d="M31449 1376c-509,-721 -1424,-1038 -2272,-780 -864,262 -1456,1059 -1456,1963 0,903 592,1700 1456,1963 848,257 1763,-60 2272,-781"/>
  <line class="fil0 str0" x1="31449" y1="1376" x2="31763" y2= "261" />
  <line class="fil0 str0" x1="31449" y1="3741" x2="31763" y2= "4856" />
  <line class="fil0 str0" x1="27471" y1="4856" x2="31763" y2= "4856" />
  <line class="fil0 str1" x1="27471" y1="261" x2="27471" y2= "4856" />
 </g>
 <g id="_3posts">
  <metadata id="CorelCorpID_1Corel-Layer"/>
  <line class="fil0 str1" x1="10301" y1="1930" x2="10081" y2= "1930" />
  <line class="fil0 str1" x1="10301" y1="3030" x2="10081" y2= "3030" />
  <line class="fil0 str1" x1="10081" y1="3030" x2="10081" y2= "1930" />
  <line class="fil0 str1" x1="10301" y1="4130" x2="10081" y2= "4130" />
  <line class="fil0 str1" x1="10081" y1="4130" x2="10081" y2= "3030" />
 </g>
 <g id="_2holes">
  <metadata id="CorelCorpID_2Corel-Layer"/>
  <g id="_757704544">
   <line class="fil0 str0" x1="27760" y1="4567" x2="27980" y2= "4567" />
   <line class="fil0 str0" x1="27980" y1="4567" x2="27980" y2= "4347" />
   <line class="fil0 str0" x1="27980" y1="4347" x2="27760" y2= "4347" />
   <line class="fil0 str0" x1="27760" y1="4347" x2="27760" y2= "4567" />
  </g>
  <g id="_578108672">
   <line class="fil0 str0" x1="27760" y1="550" x2="27980" y2= "550" />
   <line class="fil0 str0" x1="27980" y1="550" x2="27980" y2= "770" />
   <line class="fil0 str0" x1="27980" y1="770" x2="27760" y2= "770" />
   <line class="fil0 str0" x1="27760" y1="770" x2="27760" y2= "550" />
  </g>
 </g>
 <g id="_2gear_x0020_cut_x0020_outline">
  <metadata id="CorelCorpID_3Corel-Layer"/>
  <g id="_808245136">
   <path class="fil0 str2" d="M31427 1450c-33,56 -70,110 -112,161 -47,56 -96,111 -147,164l57 112c73,-11 146,-18 219,-23 66,-4 131,-2 196,4l49 149c-49,44 -102,83 -157,118 -62,40 -125,77 -190,111l19 124c73,13 145,28 216,47 63,16 125,37 185,64l0 156c-60,27 -122,48 -185,64 -71,19 -143,34 -216,47l-19 124c65,34 128,71 190,111 55,35 108,74 157,118l-49 149c-65,6 -130,8 -196,4 -73,-5 -146,-12 -219,-23l-57 112c51,53 100,108 147,164 42,51 79,105 112,161"/>
   <path class="fil0 str2" d="M31336 1322c-64,14 -127,34 -188,58 -68,27 -135,56 -201,89l-89 -89c32,-66 62,-133 89,-202 24,-61 43,-124 57,-188"/>
   <path class="fil0 str2" d="M30877 898c-56,34 -110,71 -161,113 -56,47 -111,96 -164,147l-112 -57c11,-73 18,-146 23,-219 4,-66 3,-132 -4,-197"/>
   <path class="fil0 str2" d="M30310 637l0 0c-43,49 -83,101 -118,157 -40,62 -77,125 -111,190l-124 -20c-13,-72 -28,-144 -46,-215 -17,-63 -38,-126 -64,-186"/>
   <path class="fil0 str2" d="M29690 563l0 0c-26,60 -48,123 -64,186 -19,71 -34,143 -47,215l-124 20c-34,-65 -71,-128 -111,-190 -35,-56 -74,-108 -118,-157"/>
   <path class="fil0 str2" d="M29077 685l0 0c-6,65 -7,131 -3,197 4,73 12,146 22,219l-112 57c-53,-51 -107,-100 -164,-147 -51,-42 -105,-79 -161,-113"/>
   <path class="fil0 str2" d="M28532 990l0 0c14,64 33,127 57,188 27,69 57,136 90,202l-89 89c-66,-33 -134,-62 -202,-89 -61,-24 -124,-44 -188,-58"/>
   <path class="fil0 str2" d="M28108 1449c33,57 71,110 113,161 46,57 95,112 147,164l-57 112c-73,-10 -146,-18 -220,-22 -65,-4 -131,-3 -196,3"/>
   <path class="fil0 str2" d="M27847 2016l0 0c49,44 101,83 156,119 62,39 126,76 191,110l-20 125c-72,12 -144,28 -215,46 -64,16 -126,38 -186,64"/>
   <path class="fil0 str2" d="M27773 2637l0 0c60,26 122,47 186,64 71,18 143,34 215,46l20 124c-65,35 -129,72 -191,111 -55,35 -107,75 -156,118"/>
   <path class="fil0 str2" d="M27895 3249l0 0c65,7 131,8 196,4 74,-5 147,-12 220,-23l57 113c-52,52 -101,107 -147,164 -42,50 -80,104 -113,161"/>
   <path class="fil0 str2" d="M28200 3794l0 0c64,-14 127,-33 188,-57 68,-27 136,-57 202,-89l89 89c-33,66 -63,133 -90,202 -24,60 -43,123 -57,187"/>
   <path class="fil0 str2" d="M28659 4218l0 0c56,-33 110,-70 161,-112 57,-47 111,-96 164,-147l112 57c-10,73 -18,146 -22,219 -4,66 -3,131 3,196"/>
   <path class="fil0 str2" d="M29226 4480l0 0c44,-49 83,-102 118,-157 40,-62 77,-125 111,-190l124 19c13,73 28,145 47,216 16,63 38,125 64,185"/>
   <path class="fil0 str2" d="M29847 4553l0 0c26,-60 47,-122 64,-185 18,-71 33,-143 46,-216l124 -19c34,65 71,128 111,190 35,55 75,108 118,157"/>
   <path class="fil0 str2" d="M30459 4431l0 0c7,-65 8,-130 4,-196 -5,-73 -12,-146 -23,-219l112 -57c53,51 108,100 164,147 51,42 105,79 161,112"/>
   <path class="fil0 str2" d="M31004 4126l0 0c-14,-64 -33,-127 -57,-187 -27,-69 -57,-136 -89,-202l89 -89c66,32 133,62 201,89 61,24 124,43 188,57"/>
   <line class="fil0 str3" x1="31427" y1="3668" x2="31336" y2= "3794" />
   <line class="fil0 str3" x1="30877" y1="4218" x2="31004" y2= "4126" />
   <line class="fil0 str3" x1="30459" y1="4431" x2="30310" y2= "4480" />
   <line class="fil0 str3" x1="29847" y1="4553" x2="29690" y2= "4553" />
   <line class="fil0 str3" x1="29226" y1="4480" x2="29077" y2= "4431" />
   <line class="fil0 str3" x1="28659" y1="4218" x2="28532" y2= "4126" />
   <line class="fil0 str3" x1="28200" y1="3794" x2="28108" y2= "3668" />
   <line class="fil0 str3" x1="27895" y1="3249" x2="27847" y2= "3100" />
   <line class="fil0 str3" x1="27773" y1="2637" x2="27773" y2= "2480" />
   <line class="fil0 str3" x1="27847" y1="2016" x2="27895" y2= "1867" />
   <line class="fil0 str3" x1="28108" y1="1449" x2="28200" y2= "1322" />
   <line class="fil0 str3" x1="28532" y1="990" x2="28659" y2= "898" />
   <line class="fil0 str3" x1="29077" y1="685" x2="29226" y2= "637" />
   <line class="fil0 str3" x1="29690" y1="563" x2="29847" y2= "563" />
   <line class="fil0 str3" x1="30310" y1="637" x2="30459" y2= "685" />
   <line class="fil0 str3" x1="30877" y1="898" x2="31004" y2= "990" />
   <line class="fil0 str3" x1="31336" y1="1322" x2="31428" y2= "1449" />
  </g>
  <line class="fil0 str0" x1="23178" y1="261" x2="27471" y2= "261" />
  <path class="fil0 str0" d="M27156 1376c-508,-721 -1423,-1038 -2271,-780 -865,262 -1456,1059 -1456,1963 0,903 591,1700 1456,1963 848,257 1763,-60 2271,-781"/>
  <line class="fil0 str0" x1="27156" y1="1376" x2="27471" y2= "261" />
  <line class="fil0 str0" x1="27156" y1="3741" x2="27471" y2= "4856" />
  <line class="fil0 str0" x1="23178" y1="4856" x2="27471" y2= "4856" />
  <line class="fil0 str1" x1="23178" y1="261" x2="23178" y2= "4856" />
  <g id="_808215504">
   <g>
    <line class="fil0 str0" x1="23467" y1="4567" x2="23687" y2= "4567" />
    <line class="fil0 str0" x1="23687" y1="4567" x2="23687" y2= "4347" />
    <line class="fil0 str0" x1="23687" y1="4347" x2="23467" y2= "4347" />
    <line class="fil0 str0" x1="23467" y1="4347" x2="23467" y2= "4567" />
   </g>
   <g>
    <line class="fil0 str0" x1="23467" y1="550" x2="23687" y2= "550" />
    <line class="fil0 str0" x1="23687" y1="550" x2="23687" y2= "770" />
    <line class="fil0 str0" x1="23687" y1="770" x2="23467" y2= "770" />
    <line class="fil0 str0" x1="23467" y1="770" x2="23467" y2= "550" />
   </g>
  </g>
  <g id="_816891184">
   <path class="fil0 str2" d="M27135 1450c-33,56 -71,110 -113,161 -46,56 -95,111 -147,164l58 112c72,-11 145,-18 219,-23 65,-4 131,-2 196,4l48 149c-49,44 -101,83 -156,118 -62,40 -126,77 -191,111l20 124c72,13 144,28 215,47 64,16 126,37 186,64l0 156c-60,27 -122,48 -186,64 -71,19 -143,34 -215,47l-20 124c65,34 129,71 191,111 55,35 107,74 156,118l-48 149c-65,6 -131,8 -196,4 -74,-5 -147,-12 -219,-23l-58 112c52,53 101,108 147,164 42,51 80,105 113,161"/>
   <path class="fil0 str2" d="M27044 1322c-64,14 -127,34 -188,58 -69,27 -136,56 -202,89l-89 -89c33,-66 63,-133 89,-202 24,-61 44,-124 58,-188"/>
   <path class="fil0 str2" d="M26585 898c-57,34 -110,71 -161,113 -57,47 -111,96 -164,147l-112 -57c10,-73 18,-146 22,-219 4,-66 3,-132 -3,-197"/>
   <path class="fil0 str2" d="M26018 637l0 0c-44,49 -83,101 -119,157 -39,62 -76,125 -110,190l-125 -20c-12,-72 -27,-144 -46,-215 -16,-63 -38,-126 -64,-186"/>
   <path class="fil0 str2" d="M25397 563l0 0c-26,60 -47,123 -64,186 -18,71 -34,143 -46,215l-124 20c-35,-65 -71,-128 -111,-190 -35,-56 -75,-108 -118,-157"/>
   <path class="fil0 str2" d="M24785 685l0 0c-7,65 -8,131 -4,197 5,73 12,146 23,219l-113 57c-52,-51 -107,-100 -164,-147 -50,-42 -104,-79 -160,-113"/>
   <path class="fil0 str2" d="M24240 990l0 0c14,64 33,127 57,188 27,69 57,136 89,202l-89 89c-66,-33 -133,-62 -201,-89 -61,-24 -124,-44 -188,-58"/>
   <path class="fil0 str2" d="M23816 1449c33,57 70,110 112,161 47,57 96,112 147,164l-57 112c-73,-10 -146,-18 -219,-22 -66,-4 -131,-3 -196,3"/>
   <path class="fil0 str2" d="M23554 2016l0 0c49,44 102,83 157,119 62,39 125,76 191,110l-20 125c-73,12 -145,28 -216,46 -63,16 -125,38 -185,64"/>
   <path class="fil0 str2" d="M23481 2637l0 0c60,26 122,47 185,64 71,18 143,34 216,46l20 124c-66,35 -129,72 -191,111 -55,35 -108,75 -157,118"/>
   <path class="fil0 str2" d="M23603 3249l0 0c65,7 130,8 196,4 73,-5 146,-12 219,-23l57 113c-51,52 -100,107 -147,164 -42,50 -79,104 -112,161"/>
   <path class="fil0 str2" d="M23908 3794l0 0c64,-14 127,-33 188,-57 68,-27 135,-57 201,-89l89 89c-32,66 -62,133 -89,202 -24,60 -43,123 -57,187"/>
   <path class="fil0 str2" d="M24367 4218l0 0c56,-33 110,-70 160,-112 57,-47 112,-96 164,-147l113 57c-11,73 -18,146 -23,219 -4,66 -3,131 4,196"/>
   <path class="fil0 str2" d="M24934 4480l0 0c43,-49 83,-102 118,-157 40,-62 76,-125 111,-190l124 19c12,73 28,145 46,216 17,63 38,125 64,185"/>
   <path class="fil0 str2" d="M25554 4553l0 0c26,-60 48,-122 64,-185 19,-71 34,-143 46,-216l125 -19c34,65 71,128 110,190 36,55 75,108 119,157"/>
   <path class="fil0 str2" d="M26167 4431l0 0c6,-65 7,-130 3,-196 -4,-73 -12,-146 -22,-219l112 -57c53,51 107,100 164,147 51,42 104,79 161,112"/>
   <path class="fil0 str2" d="M26712 4126l0 0c-14,-64 -34,-127 -58,-187 -26,-69 -56,-136 -89,-202l89 -89c66,32 133,62 202,89 61,24 124,43 188,57"/>
   <line class="fil0 str3" x1="27135" y1="3668" x2="27044" y2= "3794" />
   <line class="fil0 str3" x1="26585" y1="4218" x2="26712" y2= "4126" />
   <line class="fil0 str3" x1="26167" y1="4431" x2="26018" y2= "4480" />
   <line class="fil0 str3" x1="25554" y1="4553" x2="25397" y2= "4553" />
   <line class="fil0 str3" x1="24934" y1="4480" x2="24785" y2= "4431" />
   <line class="fil0 str3" x1="24367" y1="4218" x2="24240" y2= "4126" />
   <line class="fil0 str3" x1="23908" y1="3794" x2="23816" y2= "3668" />
   <line class="fil0 str3" x1="23603" y1="3249" x2="23554" y2= "3100" />
   <line class="fil0 str3" x1="23481" y1="2637" x2="23481" y2= "2480" />
   <line class="fil0 str3" x1="23554" y1="2016" x2="23603" y2= "1867" />
   <line class="fil0 str3" x1="23816" y1="1449" x2="23908" y2= "1322" />
   <line class="fil0 str3" x1="24240" y1="990" x2="24367" y2= "898" />
   <line class="fil0 str3" x1="24785" y1="685" x2="24934" y2= "637" />
   <line class="fil0 str3" x1="25397" y1="563" x2="25554" y2= "563" />
   <line class="fil0 str3" x1="26018" y1="637" x2="26167" y2= "685" />
   <line class="fil0 str3" x1="26585" y1="898" x2="26712" y2= "990" />
   <line class="fil0 str3" x1="27044" y1="1322" x2="27136" y2= "1449" />
  </g>
  <g id="_949715296">
   <path class="fil0 str4" d="M25544 3853c360,-22 694,-192 923,-470"/>
   <path class="fil0 str4" d="M25133 2413c-40,93 -40,198 0,290"/>
   <path class="fil0 str4" d="M25225 2830c46,41 102,69 162,83"/>
   <path class="fil0 str4" d="M26559 3256c272,-426 272,-970 0,-1395"/>
   <path class="fil0 str4" d="M26467 1734c-229,-278 -563,-449 -923,-470"/>
   <path class="fil0 str4" d="M25387 1264c-359,21 -694,192 -923,470"/>
   <path class="fil0 str4" d="M24372 1861c-271,425 -271,969 0,1395"/>
   <path class="fil0 str4" d="M24464 3383c229,278 564,448 923,470"/>
   <line class="fil0 str4" x1="25387" y1="1264" x2="25387" y2= "2204" />
   <line class="fil0 str4" x1="25387" y1="2913" x2="25387" y2= "3853" />
   <line class="fil0 str4" x1="25544" y1="3853" x2="25544" y2= "2913" />
   <line class="fil0 str4" x1="25544" y1="2204" x2="25544" y2= "1264" />
   <line class="fil0 str4" x1="26559" y1="1861" x2="25799" y2= "2413" />
   <line class="fil0 str4" x1="25225" y1="2830" x2="24464" y2= "3383" />
   <line class="fil0 str4" x1="24372" y1="3256" x2="25133" y2= "2703" />
   <line class="fil0 str4" x1="25706" y1="2287" x2="26467" y2= "1734" />
   <line class="fil0 str4" x1="26559" y1="3256" x2="25799" y2= "2703" />
   <line class="fil0 str4" x1="25225" y1="2287" x2="24464" y2= "1734" />
   <line class="fil0 str4" x1="24372" y1="1861" x2="25133" y2= "2413" />
   <line class="fil0 str4" x1="25706" y1="2830" x2="26467" y2= "3383" />
   <path class="fil0 str4" d="M25596 2560c0,-75 -60,-135 -133,-135 -74,0 -134,60 -134,135 0,74 60,134 134,134 73,0 133,-60 133,-134z"/>
   <path class="fil0 str4" d="M25544 2913c60,-14 116,-42 162,-83"/>
   <path class="fil0 str4" d="M25799 2703c40,-92 40,-197 0,-290"/>
   <path class="fil0 str4" d="M25706 2287c-46,-41 -102,-70 -162,-83"/>
   <path class="fil0 str4" d="M25387 2204c-60,13 -116,42 -162,83"/>
  </g>
  <line class="fil0 str0" x1="18886" y1="261" x2="23178" y2= "261" />
  <path class="fil0 str0" d="M22864 1376c-509,-721 -1424,-1038 -2272,-780 -864,262 -1456,1059 -1455,1963 0,903 591,1700 1456,1963 847,257 1763,-60 2271,-781"/>
  <line class="fil0 str0" x1="22864" y1="1376" x2="23178" y2= "261" />
  <line class="fil0 str0" x1="22864" y1="3741" x2="23178" y2= "4856" />
  <line class="fil0 str0" x1="18886" y1="4856" x2="23178" y2= "4856" />
  <line class="fil0 str1" x1="18886" y1="261" x2="18886" y2= "4856" />
  <g id="_949676128">
   <g>
    <line class="fil0 str0" x1="19175" y1="4567" x2="19395" y2= "4567" />
    <line class="fil0 str0" x1="19395" y1="4567" x2="19395" y2= "4347" />
    <line class="fil0 str0" x1="19395" y1="4347" x2="19175" y2= "4347" />
    <line class="fil0 str0" x1="19175" y1="4347" x2="19175" y2= "4567" />
   </g>
   <g>
    <line class="fil0 str0" x1="19175" y1="550" x2="19395" y2= "550" />
    <line class="fil0 str0" x1="19395" y1="550" x2="19395" y2= "770" />
    <line class="fil0 str0" x1="19395" y1="770" x2="19175" y2= "770" />
    <line class="fil0 str0" x1="19175" y1="770" x2="19175" y2= "550" />
   </g>
  </g>
  <g id="_949691264">
   <path class="fil0 str2" d="M22843 1450c-34,56 -71,110 -113,161 -47,56 -96,111 -147,164l57 112c73,-11 146,-18 219,-23 66,-4 131,-2 197,4l48 149c-49,44 -101,83 -157,118 -62,40 -125,77 -190,111l19 124c73,13 145,28 216,47 63,16 125,37 185,64l0 156c-60,27 -122,48 -185,64 -71,19 -143,34 -216,47l-19 124c65,34 128,71 190,111 56,35 108,74 157,118l-48 149c-66,6 -131,8 -197,4 -73,-5 -146,-12 -219,-23l-57 112c51,53 100,108 147,164 42,51 79,105 113,161"/>
   <path class="fil0 str2" d="M22751 1322c-64,14 -127,34 -188,58 -68,27 -135,56 -201,89l-89 -89c32,-66 62,-133 89,-202 24,-61 43,-124 57,-188"/>
   <path class="fil0 str2" d="M22292 898c-56,34 -110,71 -160,113 -57,47 -112,96 -164,147l-113 -57c11,-73 18,-146 23,-219 4,-66 3,-132 -4,-197"/>
   <path class="fil0 str2" d="M21725 637l0 0c-43,49 -83,101 -118,157 -40,62 -76,125 -111,190l-124 -20c-12,-72 -28,-144 -46,-215 -17,-63 -38,-126 -64,-186"/>
   <path class="fil0 str2" d="M21105 563l0 0c-26,60 -48,123 -64,186 -19,71 -34,143 -46,215l-125 20c-34,-65 -71,-128 -110,-190 -36,-56 -75,-108 -119,-157"/>
   <path class="fil0 str2" d="M20492 685l0 0c-6,65 -7,131 -3,197 4,73 12,146 22,219l-112 57c-53,-51 -107,-100 -164,-147 -51,-42 -104,-79 -161,-113"/>
   <path class="fil0 str2" d="M19947 990l0 0c14,64 34,127 58,188 26,69 56,136 89,202l-89 89c-66,-33 -133,-62 -202,-89 -61,-24 -124,-44 -188,-58"/>
   <path class="fil0 str2" d="M19523 1449c33,57 71,110 113,161 47,57 96,112 147,164l-57 112c-73,-10 -146,-18 -220,-22 -65,-4 -131,-3 -196,3"/>
   <path class="fil0 str2" d="M19262 2016l0 0c49,44 101,83 156,119 62,39 126,76 191,110l-20 125c-72,12 -144,28 -215,46 -64,16 -126,38 -186,64"/>
   <path class="fil0 str2" d="M19188 2637l0 0c60,26 122,47 186,64 71,18 143,34 215,46l20 124c-65,35 -129,72 -191,111 -55,35 -107,75 -156,118"/>
   <path class="fil0 str2" d="M19310 3249l0 0c65,7 131,8 196,4 74,-5 147,-12 220,-23l57 113c-51,52 -100,107 -147,164 -42,50 -80,104 -113,161"/>
   <path class="fil0 str2" d="M19615 3794l0 0c64,-14 127,-33 188,-57 69,-27 136,-57 202,-89l89 89c-33,66 -63,133 -89,202 -24,60 -44,123 -58,187"/>
   <path class="fil0 str2" d="M20074 4218l0 0c57,-33 110,-70 161,-112 57,-47 111,-96 164,-147l112 57c-10,73 -18,146 -22,219 -4,66 -3,131 3,196"/>
   <path class="fil0 str2" d="M20641 4480l0 0c44,-49 83,-102 119,-157 39,-62 76,-125 110,-190l125 19c12,73 27,145 46,216 16,63 38,125 64,185"/>
   <path class="fil0 str2" d="M21262 4553l0 0c26,-60 47,-122 64,-185 18,-71 34,-143 46,-216l124 -19c35,65 71,128 111,190 35,55 75,108 118,157"/>
   <path class="fil0 str2" d="M21874 4431l0 0c7,-65 8,-130 4,-196 -5,-73 -12,-146 -23,-219l113 -57c52,51 107,100 164,147 50,42 104,79 160,112"/>
   <path class="fil0 str2" d="M22419 4126l0 0c-14,-64 -33,-127 -57,-187 -27,-69 -57,-136 -89,-202l89 -89c66,32 133,62 201,89 61,24 124,43 188,57"/>
   <line class="fil0 str3" x1="22843" y1="3668" x2="22751" y2= "3794" />
   <line class="fil0 str3" x1="22292" y1="4218" x2="22419" y2= "4126" />
   <line class="fil0 str3" x1="21874" y1="4431" x2="21725" y2= "4480" />
   <line class="fil0 str3" x1="21262" y1="4553" x2="21105" y2= "4553" />
   <line class="fil0 str3" x1="20641" y1="4480" x2="20492" y2= "4431" />
   <line class="fil0 str3" x1="20074" y1="4218" x2="19947" y2= "4126" />
   <line class="fil0 str3" x1="19615" y1="3794" x2="19523" y2= "3668" />
   <line class="fil0 str3" x1="19310" y1="3249" x2="19262" y2= "3100" />
   <line class="fil0 str3" x1="19188" y1="2637" x2="19188" y2= "2480" />
   <line class="fil0 str3" x1="19262" y1="2016" x2="19310" y2= "1867" />
   <line class="fil0 str3" x1="19523" y1="1449" x2="19615" y2= "1322" />
   <line class="fil0 str3" x1="19947" y1="990" x2="20074" y2= "898" />
   <line class="fil0 str3" x1="20492" y1="685" x2="20641" y2= "637" />
   <line class="fil0 str3" x1="21105" y1="563" x2="21262" y2= "563" />
   <line class="fil0 str3" x1="21725" y1="637" x2="21874" y2= "685" />
   <line class="fil0 str3" x1="22292" y1="898" x2="22419" y2= "990" />
   <line class="fil0 str3" x1="22751" y1="1322" x2="22843" y2= "1449" />
  </g>
  <g id="_821843264">
   <path class="fil0 str4" d="M21252 3853c359,-22 694,-192 923,-470"/>
   <path class="fil0 str4" d="M20840 2413c-40,93 -40,198 0,290"/>
   <path class="fil0 str4" d="M20933 2830c46,41 102,69 162,83"/>
   <path class="fil0 str4" d="M22267 3256c271,-426 271,-970 0,-1395"/>
   <path class="fil0 str4" d="M22175 1734c-229,-278 -564,-449 -923,-470"/>
   <path class="fil0 str4" d="M21095 1264c-360,21 -694,192 -923,470"/>
   <path class="fil0 str4" d="M20080 1861c-272,425 -272,969 0,1395"/>
   <path class="fil0 str4" d="M20172 3383c229,278 563,448 923,470"/>
   <line class="fil0 str4" x1="21095" y1="1264" x2="21095" y2= "2204" />
   <line class="fil0 str4" x1="21095" y1="2913" x2="21095" y2= "3853" />
   <line class="fil0 str4" x1="21252" y1="3853" x2="21252" y2= "2913" />
   <line class="fil0 str4" x1="21252" y1="2204" x2="21252" y2= "1264" />
   <line class="fil0 str4" x1="22267" y1="1861" x2="21506" y2= "2413" />
   <line class="fil0 str4" x1="20933" y1="2830" x2="20172" y2= "3383" />
   <line class="fil0 str4" x1="20080" y1="3256" x2="20840" y2= "2703" />
   <line class="fil0 str4" x1="21414" y1="2287" x2="22175" y2= "1734" />
   <line class="fil0 str4" x1="22267" y1="3256" x2="21506" y2= "2703" />
   <line class="fil0 str4" x1="20933" y1="2287" x2="20172" y2= "1734" />
   <line class="fil0 str4" x1="20080" y1="1861" x2="20840" y2= "2413" />
   <line class="fil0 str4" x1="21414" y1="2830" x2="22175" y2= "3383" />
   <path class="fil0 str4" d="M21304 2560c0,-75 -60,-135 -134,-135 -73,0 -133,60 -133,135 0,74 60,134 133,134 74,0 134,-60 134,-134z"/>
   <path class="fil0 str4" d="M21252 2913c60,-14 116,-42 162,-83"/>
   <path class="fil0 str4" d="M21506 2703c40,-92 40,-197 0,-290"/>
   <path class="fil0 str4" d="M21414 2287c-46,-41 -102,-70 -162,-83"/>
   <path class="fil0 str4" d="M21095 2204c-60,13 -116,42 -162,83"/>
  </g>
  <line class="fil0 str0" x1="14593" y1="261" x2="18886" y2= "261" />
  <path class="fil0 str0" d="M18572 1376c-509,-721 -1424,-1038 -2272,-780 -865,262 -1456,1059 -1456,1963 0,903 591,1700 1456,1963 848,257 1763,-60 2272,-781"/>
  <line class="fil0 str0" x1="18572" y1="1376" x2="18886" y2= "261" />
  <line class="fil0 str0" x1="18572" y1="3741" x2="18886" y2= "4856" />
  <line class="fil0 str0" x1="14593" y1="4856" x2="18886" y2= "4856" />
  <g id="_821882592">
   <g>
    <line class="fil0 str0" x1="14883" y1="4567" x2="15103" y2= "4567" />
    <line class="fil0 str0" x1="15103" y1="4567" x2="15103" y2= "4347" />
    <line class="fil0 str0" x1="15103" y1="4347" x2="14883" y2= "4347" />
    <line class="fil0 str0" x1="14883" y1="4347" x2="14883" y2= "4567" />
   </g>
   <g>
    <line class="fil0 str0" x1="14883" y1="550" x2="15103" y2= "550" />
    <line class="fil0 str0" x1="15103" y1="550" x2="15103" y2= "770" />
    <line class="fil0 str0" x1="15103" y1="770" x2="14883" y2= "770" />
    <line class="fil0 str0" x1="14883" y1="770" x2="14883" y2= "550" />
   </g>
  </g>
  <g id="_821841632">
   <path class="fil0 str2" d="M18550 1450c-33,56 -71,110 -112,161 -47,56 -96,111 -148,164l58 112c72,-11 146,-18 219,-23 65,-4 131,-2 196,4l49 149c-49,44 -102,83 -157,118 -62,40 -126,77 -191,111l20 124c72,13 144,28 215,47 64,16 126,37 186,64l0 156c-60,27 -122,48 -186,64 -71,19 -143,34 -215,47l-20 124c65,34 129,71 191,111 55,35 108,74 157,118l-49 149c-65,6 -131,8 -196,4 -73,-5 -147,-12 -219,-23l-58 112c52,53 101,108 148,164 41,51 79,105 112,161"/>
   <path class="fil0 str2" d="M18459 1322c-64,14 -127,34 -188,58 -68,27 -136,56 -202,89l-89 -89c33,-66 63,-133 90,-202 24,-61 43,-124 57,-188"/>
   <path class="fil0 str2" d="M18000 898c-56,34 -110,71 -161,113 -57,47 -111,96 -164,147l-112 -57c10,-73 18,-146 22,-219 4,-66 3,-132 -3,-197"/>
   <path class="fil0 str2" d="M17433 637l0 0c-44,49 -83,101 -118,157 -40,62 -77,125 -111,190l-124 -20c-13,-72 -28,-144 -47,-215 -16,-63 -38,-126 -64,-186"/>
   <path class="fil0 str2" d="M16812 563l0 0c-26,60 -47,123 -64,186 -18,71 -33,143 -46,215l-124 20c-34,-65 -71,-128 -111,-190 -35,-56 -75,-108 -118,-157"/>
   <path class="fil0 str2" d="M16200 685l0 0c-7,65 -8,131 -4,197 5,73 12,146 23,219l-112 57c-53,-51 -108,-100 -164,-147 -51,-42 -105,-79 -161,-113"/>
   <path class="fil0 str2" d="M15655 990l0 0c14,64 33,127 57,188 27,69 57,136 89,202l-89 89c-66,-33 -133,-62 -201,-89 -61,-24 -124,-44 -188,-58"/>
   <path class="fil0 str2" d="M15231 1449c33,57 71,110 112,161 47,57 96,112 148,164l-58 112c-72,-10 -146,-18 -219,-22 -65,-4 -131,-3 -196,3"/>
   <path class="fil0 str2" d="M14969 2016l0 0c49,44 102,83 157,119 62,39 126,76 191,110l-20 125c-72,12 -144,28 -216,46 -63,16 -125,38 -185,64"/>
   <path class="fil0 str2" d="M14896 2637l0 0c60,26 122,47 185,64 72,18 144,34 216,46l20 124c-65,35 -129,72 -191,111 -55,35 -108,75 -157,118"/>
   <path class="fil0 str2" d="M15018 3249l0 0c65,7 131,8 196,4 73,-5 147,-12 219,-23l58 113c-52,52 -101,107 -148,164 -41,50 -79,104 -112,161"/>
   <path class="fil0 str2" d="M15323 3794l0 0c64,-14 127,-33 188,-57 68,-27 135,-57 201,-89l89 89c-32,66 -62,133 -89,202 -24,60 -43,123 -57,187"/>
   <path class="fil0 str2" d="M15782 4218l0 0c56,-33 110,-70 161,-112 56,-47 111,-96 164,-147l112 57c-11,73 -18,146 -23,219 -4,66 -3,131 4,196"/>
   <path class="fil0 str2" d="M16349 4480l0 0c43,-49 83,-102 118,-157 40,-62 77,-125 111,-190l124 19c13,73 28,145 46,216 17,63 38,125 64,185"/>
   <path class="fil0 str2" d="M16969 4553l0 0c26,-60 48,-122 64,-185 19,-71 34,-143 47,-216l124 -19c34,65 71,128 111,190 35,55 74,108 118,157"/>
   <path class="fil0 str2" d="M17582 4431l0 0c6,-65 7,-130 3,-196 -4,-73 -12,-146 -22,-219l112 -57c53,51 107,100 164,147 51,42 105,79 161,112"/>
   <path class="fil0 str2" d="M18127 4126l0 0c-14,-64 -33,-127 -57,-187 -27,-69 -57,-136 -90,-202l89 -89c66,32 134,62 202,89 61,24 124,43 188,57"/>
   <line class="fil0 str3" x1="18550" y1="3668" x2="18459" y2= "3794" />
   <line class="fil0 str3" x1="18000" y1="4218" x2="18127" y2= "4126" />
   <line class="fil0 str3" x1="17582" y1="4431" x2="17433" y2= "4480" />
   <line class="fil0 str3" x1="16969" y1="4553" x2="16812" y2= "4553" />
   <line class="fil0 str3" x1="16349" y1="4480" x2="16200" y2= "4431" />
   <line class="fil0 str3" x1="15782" y1="4218" x2="15655" y2= "4126" />
   <line class="fil0 str3" x1="15323" y1="3794" x2="15231" y2= "3668" />
   <line class="fil0 str3" x1="15018" y1="3249" x2="14969" y2= "3100" />
   <line class="fil0 str3" x1="14896" y1="2637" x2="14896" y2= "2480" />
   <line class="fil0 str3" x1="14969" y1="2016" x2="15018" y2= "1867" />
   <line class="fil0 str3" x1="15231" y1="1449" x2="15323" y2= "1322" />
   <line class="fil0 str3" x1="15655" y1="990" x2="15782" y2= "898" />
   <line class="fil0 str3" x1="16200" y1="685" x2="16349" y2= "637" />
   <line class="fil0 str3" x1="16812" y1="563" x2="16969" y2= "563" />
   <line class="fil0 str3" x1="17433" y1="637" x2="17582" y2= "685" />
   <line class="fil0 str3" x1="18000" y1="898" x2="18127" y2= "990" />
   <line class="fil0 str3" x1="18459" y1="1322" x2="18551" y2= "1449" />
  </g>
  <g id="_821884512">
   <path class="fil0 str4" d="M16959 3853c360,-22 694,-192 923,-470"/>
   <path class="fil0 str4" d="M16548 2413c-40,93 -40,198 0,290"/>
   <path class="fil0 str4" d="M16640 2830c46,41 102,69 162,83"/>
   <path class="fil0 str4" d="M17974 3256c272,-426 272,-970 0,-1395"/>
   <path class="fil0 str4" d="M17882 1734c-229,-278 -563,-449 -923,-470"/>
   <path class="fil0 str4" d="M16802 1264c-359,21 -693,192 -922,470"/>
   <path class="fil0 str4" d="M15787 1861c-271,425 -271,969 0,1395"/>
   <path class="fil0 str4" d="M15880 3383c229,278 563,448 922,470"/>
   <line class="fil0 str4" x1="16802" y1="1264" x2="16802" y2= "2204" />
   <line class="fil0 str4" x1="16802" y1="2913" x2="16802" y2= "3853" />
   <line class="fil0 str4" x1="16959" y1="3853" x2="16959" y2= "2913" />
   <line class="fil0 str4" x1="16959" y1="2204" x2="16959" y2= "1264" />
   <line class="fil0 str4" x1="17974" y1="1861" x2="17214" y2= "2413" />
   <line class="fil0 str4" x1="16640" y1="2830" x2="15880" y2= "3383" />
   <line class="fil0 str4" x1="15787" y1="3256" x2="16548" y2= "2703" />
   <line class="fil0 str4" x1="17122" y1="2287" x2="17882" y2= "1734" />
   <line class="fil0 str4" x1="17974" y1="3256" x2="17214" y2= "2703" />
   <line class="fil0 str4" x1="16640" y1="2287" x2="15880" y2= "1734" />
   <line class="fil0 str4" x1="15787" y1="1861" x2="16548" y2= "2413" />
   <line class="fil0 str4" x1="17122" y1="2830" x2="17882" y2= "3383" />
   <path class="fil0 str4" d="M17011 2560c0,-75 -59,-135 -133,-135 -74,0 -133,60 -133,135 0,74 59,134 133,134 74,0 133,-60 133,-134z"/>
   <path class="fil0 str4" d="M16959 2913c60,-14 116,-42 163,-83"/>
   <path class="fil0 str4" d="M17214 2703c40,-92 40,-197 0,-290"/>
   <path class="fil0 str4" d="M17122 2287c-47,-41 -103,-70 -163,-83"/>
   <path class="fil0 str4" d="M16802 2204c-60,13 -116,42 -162,83"/>
  </g>
  <line class="fil0 str0" x1="10301" y1="261" x2="14593" y2= "261" />
  <line class="fil0 str0" x1="10301" y1="4856" x2="14593" y2= "4856" />
  <g id="_821866816">
   <g>
    <line class="fil0 str0" x1="10590" y1="4567" x2="10810" y2= "4567" />
    <line class="fil0 str0" x1="10810" y1="4567" x2="10810" y2= "4347" />
    <line class="fil0 str0" x1="10810" y1="4347" x2="10590" y2= "4347" />
    <line class="fil0 str0" x1="10590" y1="4347" x2="10590" y2= "4567" />
   </g>
   <g>
    <line class="fil0 str0" x1="10590" y1="550" x2="10810" y2= "550" />
    <line class="fil0 str0" x1="10810" y1="550" x2="10810" y2= "770" />
    <line class="fil0 str0" x1="10810" y1="770" x2="10590" y2= "770" />
    <line class="fil0 str0" x1="10590" y1="770" x2="10590" y2= "550" />
   </g>
  </g>
  <line class="fil0 str1" x1="14593" y1="261" x2="14593" y2= "4856" />
  <line class="fil0 str1" x1="10301" y1="261" x2="10301" y2= "4856" />
  <line class="fil0 str5" x1="25476" y1="4553" x2="25476" y2= "4610" />
 </g>
 <g id="_1_x0020_gear_x0020_engraving">
  <metadata id="CorelCorpID_4Corel-Layer"/>
  <path class="fil0 str4" d="M29837 3853c359,-22 693,-192 922,-470"/>
  <path class="fil0 str4" d="M29425 2413c-40,93 -40,198 0,290"/>
  <path class="fil0 str4" d="M29517 2830c47,41 103,69 163,83"/>
  <path class="fil0 str4" d="M30852 3256c271,-426 271,-970 0,-1395"/>
  <path class="fil0 str4" d="M30759 1734c-229,-278 -563,-449 -922,-470"/>
  <path class="fil0 str4" d="M29680 1264c-360,21 -694,192 -923,470"/>
  <path class="fil0 str4" d="M28665 1861c-272,425 -272,969 0,1395"/>
  <path class="fil0 str4" d="M28757 3383c229,278 563,448 923,470"/>
  <line class="fil0 str4" x1="29680" y1="1264" x2="29680" y2= "2204" />
  <line class="fil0 str4" x1="29680" y1="2913" x2="29680" y2= "3853" />
  <line class="fil0 str4" x1="29837" y1="3853" x2="29837" y2= "2913" />
  <line class="fil0 str4" x1="29837" y1="2204" x2="29837" y2= "1264" />
  <line class="fil0 str4" x1="30852" y1="1861" x2="30091" y2= "2413" />
  <line class="fil0 str4" x1="29517" y1="2830" x2="28757" y2= "3383" />
  <line class="fil0 str4" x1="28665" y1="3256" x2="29425" y2= "2703" />
  <line class="fil0 str4" x1="29999" y1="2287" x2="30759" y2= "1734" />
  <line class="fil0 str4" x1="30852" y1="3256" x2="30091" y2= "2703" />
  <line class="fil0 str4" x1="29517" y1="2287" x2="28757" y2= "1734" />
  <line class="fil0 str4" x1="28665" y1="1861" x2="29425" y2= "2413" />
  <line class="fil0 str4" x1="29999" y1="2830" x2="30759" y2= "3383" />
  <path class="fil0 str4" d="M29889 2560c0,-75 -60,-135 -134,-135 -73,0 -133,60 -133,135 0,74 60,134 133,134 74,0 134,-60 134,-134z"/>
  <path class="fil0 str4" d="M29837 2913c60,-14 116,-42 162,-83"/>
  <path class="fil0 str4" d="M30091 2703c40,-92 40,-197 0,-290"/>
  <path class="fil0 str4" d="M29999 2287c-46,-41 -102,-70 -162,-83"/>
  <path class="fil0 str4" d="M29680 2204c-60,13 -116,42 -163,83"/>
 </g>
 <g id="pentominoes" visibility="hidden">
  <metadata id="CorelCorpID_5Corel-Layer"/>
  <g id="pentominoes_0">
   <path class="fil1 str6" d="M26598 17082l0 -482c0,0 -120,-125 -120,-204l0 -552c0,0 44,31 44,85l0 401c0,58 76,158 76,158l0 -774c0,-44 -55,-94 -95,-94l-1125 0c-66,0 -117,96 -134,145l-86 -10c12,-45 35,-62 35,-135l-101 0c-26,0 -45,72 -68,108l-192 -108 59 127 -184 0 59 -127 -192 108c-22,-38 -41,-108 -68,-108l-102 0 0 135c0,23 55,24 82,35 -27,56 -82,110 -82,168l0 214c0,41 27,88 56,122 23,26 56,57 87,57l504 0c34,0 81,-42 107,-77 22,-29 29,-67 35,-102 7,-37 0,-112 0,-112 0,0 38,127 26,189 -11,54 -83,115 -83,143l0 690 365 0 0 -224c0,0 124,88 196,98 57,7 112,-35 170,-35 57,0 112,42 169,35 72,-10 196,-98 196,-98l0 224 366 0zm-1693 -874c-28,0 -53,-24 -53,-51 -1,-27 24,-53 51,-53 27,0 52,26 51,53 0,26 -23,50 -49,51zm-204 0c-27,1 -52,-24 -52,-51 0,-27 24,-51 51,-51 26,0 51,24 51,51 0,26 -23,50 -50,51zm282 -250c-20,1 -39,-18 -39,-38 -1,-20 17,-40 38,-40 21,0 39,20 38,40 0,20 -17,38 -37,38zm-361 0c-20,1 -40,-17 -40,-38 0,-20 19,-38 39,-38 20,0 38,18 38,38 0,20 -17,38 -37,38z"/>
   <path class="fil1 str6" d="M27205 17810c19,0 51,-25 46,-45l-48 -79 83 43 41 -40 0 -61 -77 -26 77 -30 0 -67 -77 0 77 -61 0 -364 -152 85c0,-37 -57,-85 -97,-85l-233 0c-46,0 -97,37 -97,85l-152 -85 0 166c-116,-67 -244,-166 -388,-166l-1237 0c-204,0 -263,-82 -263,-139l0 -214c0,-53 63,-132 112,-112 104,43 0,336 0,336l209 0c59,0 103,-118 103,-201l0 -200c0,-92 -126,-201 -200,-201l-327 0c-85,0 -201,106 -201,201l0 330c0,92 77,129 77,201 0,71 -77,81 -77,200l0 529 1036 0 0 -91c0,-57 -68,-100 -122,-122 -75,-31 -244,0 -244,0 0,0 180,-93 270,-71 89,21 203,92 203,183l0 101 942 0 0 -91c0,-57 -68,-100 -121,-122 -78,-32 -251,0 -251,0 0,0 187,-94 280,-71 101,26 229,213 229,213l86 -46 -50 81c0,19 15,36 36,36l507 0zm-252 -285c-15,0 -27,-12 -27,-27 0,-15 12,-27 27,-27 15,0 27,12 27,27 0,15 -12,27 -27,27zm148 -113c-15,0 -27,-12 -27,-27 0,-15 12,-27 27,-27 15,0 27,12 27,27 0,15 -12,27 -27,27zm-296 0c-15,0 -27,-12 -27,-27 0,-15 12,-27 27,-27 15,0 27,12 27,27 0,15 -12,27 -27,27z"/>
   <path class="fil1 str7" d="M28062 15612l0 -730 -97 0c-49,0 -68,86 -137,86 -101,0 -176,-86 -248,-86l-249 0 0 -731 -731 0 0 97c0,44 86,85 86,137 0,84 -86,163 -86,248l0 249 -1461 0 0 187 360 0 -360 87 0 456c119,-32 253,-71 386,-71 47,0 102,71 142,71l370 0 -203 -202 96 0 204 202 202 0 -202 -202 96 0 203 202 203 0 -203 -202 96 0 203 202 203 0 -203 -202 96 0 203 202 204 0 -204 -202 97 0 203 202 731 0zm-2520 -231c-33,0 -60,-27 -60,-60 0,-33 27,-59 60,-59 33,0 59,26 59,59 0,33 -26,60 -59,60z"/>
   <path class="fil1 str6" d="M29537 14878l0 -731 532 0c50,0 113,-37 147,-81 40,-51 51,-123 51,-188l0 -122 -390 -55 390 0 0 -153c0,-58 -71,-131 -132,-131l-1126 0c-83,0 -203,105 -203,202l0 528c0,0 39,56 69,69 36,15 82,15 119,0 57,-24 100,-77 130,-131 35,-62 52,-207 52,-207 0,0 8,151 -20,219 -26,60 -69,122 -129,149 -52,24 -118,22 -170,0 -43,-18 -99,-99 -99,-99l-997 0c-98,0 -166,34 -249,51 -8,-17 -32,-51 -52,-51l-70 0c-23,0 -45,21 -45,46l0 60c0,42 61,42 91,52 0,0 4,41 0,60 -16,78 -91,137 -91,218l0 295 436 0 -25 -102c106,34 202,102 319,102l731 0c111,0 213,-68 319,-102l-25 102 437 0zm154 -1289c-22,0 -43,-20 -43,-43 0,-22 21,-43 43,-43 23,0 43,21 43,43 0,23 -20,43 -43,43z"/>
   <path class="fil1 str6" d="M29410 17810c48,0 125,-231 125,-365l0 -180c0,-109 -45,-212 -68,-318 72,124 289,132 437,132l790 0c61,0 80,-49 91,-91 0,40 14,91 69,91l145 0 0 -145c0,-28 -48,-69 -92,-69 53,-14 92,-46 92,-91l0 -996c0,-81 -15,-162 -45,-162l-687 0 0 186c0,104 23,173 105,173l81 0c-62,62 -186,98 -186,186l0 306c0,49 51,91 93,119 40,27 139,39 139,39 0,0 -101,13 -149,0 -67,-18 -132,-70 -132,-132l0 -146 -835 0 0 120c0,49 60,82 103,104 106,54 353,54 353,54 0,0 -258,48 -373,0 -57,-24 -132,-70 -132,-132l0 -83c0,-30 -30,-63 -63,-63l-423 0 47 134 -91 -100 0 248c0,97 1,173 108,173 -36,168 -108,289 -108,463l0 180c0,158 92,365 125,365l115 0c48,0 125,-243 125,-365 0,122 81,365 126,365l115 0zm-241 -497c0,-122 -38,-244 -57,-366l115 0c-19,122 -58,238 -58,366zm-189 -644c-27,0 -51,-24 -51,-51 0,-26 24,-51 51,-51 27,0 51,25 51,51 0,27 -24,51 -51,51z"/>
   <path class="fil1 str6" d="M26801 16167c-19,0 -37,18 -37,37 0,20 18,37 37,37 20,1 37,-17 37,-37 0,-19 -17,-37 -37,-37zm0 -168c-19,0 -37,17 -37,37 0,19 18,37 37,37 20,0 37,-18 37,-37 0,-20 -17,-37 -37,-37zm-199 205l84 -84 -84 -84 84 -85 -84 -335 296 0 112 731 0 -731 323 0 0 731 565 0c91,0 167,85 167,167l0 890c0,89 65,223 223,223 159,0 234,-85 234,-233 0,-48 -54,-102 -101,-102 -14,0 -28,15 -28,28 0,16 68,32 68,89 0,96 -40,167 -167,167 -117,0 -168,-79 -168,-188l0 -142c0,-82 78,-167 168,-167l335 0c77,0 168,69 168,167l0 397c0,85 -95,167 -168,167l-1128 0c-82,0 -168,-90 -168,-167l0 -564c0,-48 -32,-76 -51,-81l-88 0c-36,0 -50,81 -81,81l-314 0 84 -202 -147 177 -114 -113 166 -166 -186 112 0 -217 84 -381 -84 -85z"/>
   <path class="fil1 str6" d="M31496 13836c22,0 41,-19 41,-40 0,-22 -19,-41 -41,-41 -21,0 -40,19 -40,41 0,21 19,40 40,40zm-1131 1774c0,0 146,-69 222,-96 89,-32 180,-66 274,-80 76,-11 153,-6 229,0 83,7 246,39 246,39 0,0 -243,-97 -334,-102 -140,-9 -240,10 -353,46 -72,23 -209,92 -312,66 -30,-8 -70,-61 -70,-61l0 -216c0,0 362,-6 486,-6 37,0 -60,-54 -97,-54 -134,0 -389,3 -389,3l0 -165c0,-65 33,-105 105,-105l626 0 0 -731 -731 0 0 -324c0,0 316,1 516,0 44,-1 -50,-53 -94,-53l-422 0 0 -354 1274 0 -20 116 83 -83c56,10 70,45 82,81l-74 74 117 -31 0 97 -86 30 86 10 0 67 -81 66 81 0 0 51c0,0 -171,36 -173,61 -5,64 19,150 -30,192 -51,43 -148,42 -199,0 -55,-45 -47,-126 -43,-210 3,-52 13,-156 13,-156 0,0 -41,84 -51,156 -12,87 -21,203 46,260 69,57 199,57 269,2 56,-45 36,-136 46,-210 10,-68 122,99 122,158l0 1339c0,89 -41,123 -122,123l-1242 0z"/>
   <path class="fil1 str6" d="M29064 15106c0,-27 -24,-51 -52,-51 -27,0 -51,24 -51,51 0,28 24,52 51,52 28,0 52,-24 52,-52zm1204 293c0,71 -129,206 -207,206 78,0 207,108 207,207l0 525 -694 0c-19,0 -38,-20 -38,-37l0 -126c0,-65 57,-125 126,-125 -67,0 -126,-60 -126,-125l0 -474c0,59 -92,155 -155,155l-399 0c-29,0 -73,-31 -89,-47l137 -246 -191 192c-12,-12 -34,-38 -34,-55l0 -460c0,-78 105,-115 179,-115l552 0 0 -732 525 0c93,0 207,125 207,207 0,-82 121,-207 207,-207l525 0 0 694c0,22 -18,38 -38,38l-125 0c-47,0 -125,-87 -125,-126 0,38 -61,126 -126,126l-318 0 0 525z"/>
   <path class="fil1 str6" d="M31117 15617c-73,0 -119,88 -119,237l0 830c0,195 100,351 100,351 0,0 -70,44 -100,44l-964 0c-163,0 -224,95 -224,95 0,0 -76,-95 -121,-95l-153 0c69,73 105,166 74,197 -31,31 -74,157 -74,206l0 176c0,37 30,99 55,125l71 -67 -34 94 165 0c-4,-127 156,-194 209,-208l401 -103 -376 139c-47,17 -186,85 -173,172l775 0c0,-99 131,-188 209,-208l401 -103 -376 139c-70,25 -173,95 -173,172l975 0c39,0 64,-122 64,-233l0 -264c0,-51 -61,-172 -64,-234 -3,-61 64,-183 64,-240l0 -985c0,-149 -47,-237 -118,-237l-494 0zm198 237l77 0c47,0 80,85 80,159 0,0 3,548 0,671 -3,122 -77,210 -118,236 -42,27 -213,96 -213,96 0,0 94,-135 94,-332l0 -671c0,-71 34,-159 80,-159zm-1579 1513c9,31 5,55 0,78 -29,12 -55,13 -85,3 13,-40 46,-67 85,-81z"/>
   <path class="fil1 str7" d="M28437 16851c0,-30 24,-54 54,-54 31,0 55,24 55,54 0,30 -24,55 -55,55 -30,0 -54,-25 -54,-55zm639 -1035l-92 -199 -57 0c-60,35 -106,109 -126,183l0 -458c0,-43 -78,-203 -149,-274l149 -91 0 -92 -305 0c-15,0 -30,19 -30,33l0 333c0,62 -20,122 -30,183 -10,-61 -31,-122 -31,-183l0 -333c0,-17 -16,-33 -30,-33l-305 0 0 92 149 91c-79,76 -149,222 -149,274l0 458c-20,-76 -61,-146 -126,-183l-57 0 -91 199 -113 -199 -44 0 -118 185 -91 -185 -55 0c-18,0 -37,57 -37,91l0 457c0,118 71,183 183,183l549 0 0 275c0,75 79,132 129,182 -47,47 -129,130 -129,275l731 0 0 -83 -53 -167c35,-27 53,-26 53,-81l-189 -21 189 -33c0,-85 -100,-95 -152,-127 51,-43 152,-72 152,-128 0,-35 -61,-61 -91,-92l640 0c112,0 183,-71 183,-183l0 -457c0,-36 -20,-91 -37,-91l-54 0 -92 185 -118 -185 -44 0 -112 199z"/>
   <path class="fil1 str7" d="M25270 13917c0,-36 28,-64 64,-64 35,0 64,28 64,64 0,35 -29,64 -64,64 -36,0 -64,-29 -64,-64zm2798 -310c0,-79 -109,-190 -190,-190l-349 0c-90,0 -190,96 -190,190 0,-91 -111,-190 -189,-190l-352 0c-106,0 -190,87 -190,190 0,-102 -106,-190 -190,-190l-348 0c-97,0 -190,99 -190,190 0,-97 -115,-190 -190,-190l-280 0 101 365 -366 -76 0 252c0,87 96,190 190,190l717 0c105,0 190,-106 190,-190 0,81 94,190 190,190l349 0c111,0 189,-97 189,-190 0,94 85,190 190,190l352 0c111,0 190,-105 190,-190 0,85 88,190 190,190l348 0c108,0 190,-91 190,-190l372 190 0 -541c0,-82 -117,-190 -189,-190l-356 0c-99,0 -189,114 -189,190z"/>
   <path class="fil1 str7" d="M24659 14362c0,-18 14,-32 31,-32 18,0 32,14 32,32 0,17 -14,31 -32,31 -17,0 -31,-14 -31,-31zm-2 305c0,-18 14,-32 31,-32 18,0 32,14 32,32 0,17 -14,31 -32,31 -17,0 -31,-14 -31,-31zm181 -152c0,-17 14,-31 31,-31 18,0 32,14 32,31 0,18 -14,32 -32,32 -17,0 -31,-14 -31,-32zm-434 -956l0 701c0,93 122,160 122,254 0,94 -122,161 -122,254l0 701c0,66 83,142 143,142l504 0c46,0 85,-50 85,-84l0 -453c0,-39 -67,-137 -131,-169 -60,-30 -144,-33 -203,0 -79,44 -137,141 -140,230 -3,80 40,172 108,213 35,22 90,24 123,0 38,-25 4,-120 49,-127 30,-5 55,41 58,71 5,48 -25,103 -66,128 -55,33 -138,33 -194,0 -93,-57 -157,-182 -153,-291 5,-113 87,-226 184,-285 63,-38 148,-38 219,-21 49,12 94,57 146,57l1463 0 0 -308 -308 0c-28,0 -58,-31 -58,-58 0,-27 27,-58 58,-58l308 0 0 -308 -1463 0c-52,0 -97,45 -146,56 -71,18 -156,18 -219,-20 -97,-59 -179,-172 -184,-285 -4,-109 60,-234 153,-291 56,-33 139,-33 194,0 41,25 71,80 66,128 -3,30 -28,76 -58,71 -45,-7 -11,-102 -49,-127 -33,-24 -88,-22 -123,0 -68,41 -111,133 -108,213 3,89 61,186 140,230 59,33 143,30 203,0 64,-32 131,-130 131,-169l0 -453c0,-34 -39,-84 -85,-84l-504 0c-60,0 -143,76 -143,142z"/>
  </g>
 </g>
</svg>
